<?xml version="1.0" encoding="UTF-8"?>
<!DOCTYPE svg PUBLIC "-//W3C//DTD SVG 1.1//EN" "http://www.w3.org/Graphics/SVG/1.1/DTD/svg11.dtd">
<!-- Creator: CorelDRAW X7 -->
<svg xmlns="http://www.w3.org/2000/svg" xml:space="preserve" width="600px" height="85px" version="1.1" style="shape-rendering:geometricPrecision; text-rendering:geometricPrecision; image-rendering:optimizeQuality; fill-rule:evenodd; clip-rule:evenodd"
viewBox="0 0 548 77"
 xmlns:xlink="http://www.w3.org/1999/xlink">
 <defs>
  <style type="text/css">
   <![CDATA[
    .fil0 {fill:black}
   ]]>
  </style>
 </defs>
 <g id="Layer_x0020_1">
  <metadata id="CorelCorpID_0Corel-Layer"/>
  <g id="_358725732096">
   <path class="fil0" d="M220 23l6 30 -10 0 4 -30zm-24 53l15 0c0,-4 2,-8 3,-12l14 0 2 12 33 0c0,-16 3,-37 3,-47l1 0c0,5 1,8 2,12l5 31c1,5 -1,4 13,4 0,-7 7,-37 7,-48l1 0c0,10 4,38 4,48l15 0c0,-10 -7,-61 -8,-74l-20 0 -5 39c-1,4 0,1 -1,3 0,-12 -6,-32 -6,-42l-20 0 -6 64c-1,5 1,6 -2,9 0,-5 -13,-56 -15,-66 -3,-9 1,-7 -16,-7 -4,0 -3,3 -4,7 -1,3 -1,6 -2,10l-13 57z"/>
   <path class="fil0" d="M458 34l-4 0 0 -20 4 0c11,0 10,20 0,20zm-19 42l15 0 0 -32 13 32 16 0 -13 -34c17,-5 14,-40 -9,-40l-22 0 0 74z"/>
   <path class="fil0" d="M97 76l15 0 2 -31c1,2 1,3 2,5l10 26 16 0c-2,-8 -13,-30 -15,-37 -1,-3 1,-5 2,-9 1,-3 2,-6 4,-9l7 -19 -16 0 -8 24c-1,2 -1,2 -2,4l-2 -28 -15 0 0 74z"/>
   <path class="fil0" d="M144 34l0 9c0,21 12,33 25,34l5 0c7,0 12,-4 16,-11 3,-4 3,-7 4,-12l1 -20 -25 0 0 15 10 0c0,4 -1,7 -2,9 -4,9 -17,9 -17,-14 0,-9 -1,-30 10,-30 5,0 7,4 7,9 5,-1 11,-3 15,-5 -7,-28 -49,-24 -49,16z"/>
   <path class="fil0" d="M335 65l0 -21c7,1 10,4 10,11 0,6 -3,9 -10,10zm0 -31l0 -19 8 1c3,7 3,17 -8,18zm-14 42c13,0 25,3 33,-5 7,-6 8,-19 3,-27 -2,-3 -4,-3 -6,-6 9,-2 11,-17 3,-29 -7,-10 -18,-7 -33,-7l0 74z"/>
   <path class="fil0" d="M24 24c3,2 2,7 4,14 0,4 2,10 2,15l-10 0c1,-9 4,-19 4,-29zm-24 52l16 0c0,-3 2,-8 2,-12l15 0c0,5 2,7 2,12l16 0c-1,-7 -17,-69 -17,-74l-17 0 -12 55c-1,4 -4,17 -5,19z"/>
   <path class="fil0" d="M401 76l31 0 0 -14 -14 0 0 -16 12 0 0 -15 -12 0 0 -15c17,0 14,3 14,-14l-31 0 0 74z"/>
   <path class="fil0" d="M54 23c0,21 22,20 22,34 0,4 -5,6 -8,6 -6,0 -8,-2 -11,-4l0 15c4,2 8,3 11,3l4 0c12,-1 19,-12 19,-22 0,-20 -22,-21 -22,-35 0,-5 6,-8 17,-1l0 -15c-16,-8 -32,0 -32,19z"/>
   <path class="fil0" d="M488 21c0,25 22,23 22,34 0,8 -9,11 -19,4l0 16c7,1 4,2 14,2 10,0 20,-10 20,-20 0,-24 -17,-21 -22,-33 -2,-3 0,-10 5,-10 6,0 8,3 12,5l0 -15c-7,-1 -11,-6 -22,-1 -6,2 -10,9 -10,18z"/>
   <polygon class="fil0" points="366,76 398,76 398,62 381,62 381,2 366,2 "/>
   <path class="fil0" d="M539 21c13,0 13,-19 -1,-19 -12,0 -14,19 1,19z"/>
  </g>
 </g>
</svg>
