<?xml version="1.0" encoding="UTF-8"?>
<!DOCTYPE svg PUBLIC "-//W3C//DTD SVG 1.1//EN" "http://www.w3.org/Graphics/SVG/1.1/DTD/svg11.dtd">
<!-- Creator: CorelDRAW X7 -->
<svg xmlns="http://www.w3.org/2000/svg" xml:space="preserve" width="600px" height="612px" version="1.1" style="shape-rendering:geometricPrecision; text-rendering:geometricPrecision; image-rendering:optimizeQuality; fill-rule:evenodd; clip-rule:evenodd"
viewBox="0 0 1019 1039"
 xmlns:xlink="http://www.w3.org/1999/xlink">
 <defs>
  <style type="text/css">
   <![CDATA[
    .fil0 {fill:black;fill-rule:nonzero}
   ]]>
  </style>
 </defs>
 <g id="Layer_x0020_1">
  <metadata id="CorelCorpID_0Corel-Layer"/>
  <g id="_359558243024">
   <path class="fil0" d="M160 883c-47,-45 -86,-99 -113,-159 -30,-64 -47,-136 -47,-211l0 0 0 0 0 -1 0 0 0 -2c0,-282 228,-510 510,-510 281,0 509,228 509,510 0,4 0,8 0,12l-111 0c0,-88 -29,-168 -78,-232 -46,-62 -111,-109 -186,-135l-6 -5 3 -11 -12 2 -6 -9 -6 10 -11 -1 4 11 -7 9 10 3 3 11 9 -6 10 5 1 -11c75,25 140,71 187,132 47,63 75,141 75,227l-32 0c0,-97 -39,-182 -102,-243 -61,-60 -146,-97 -239,-100l6 -7 -24 -8 -4 -24 -21 13 -22 -12 -3 25 -23 10 18 18 -7 24 25 -3 15 20 13 -22 25 2 -9 -24c94,0 180,37 241,97 61,59 98,141 99,234l-70 0c0,-53 -15,-102 -41,-143 -22,-34 -50,-62 -84,-84l12 -12 -19 -8 -3 -21 -18 11 -18 -11 -3 20 -20 7 14 16 -7 20 21 -2 12 18 12 -17 21 2 -2 -6c28,19 52,45 71,74 25,39 39,85 39,136l-93 0c-1,-37 -13,-69 -33,-94 -18,-22 -41,-40 -69,-51l8 -8 -13 -5 -1 -13 -12 6 -11 -7 -2 14 -13 4 9 10 -5 13 14 -1 7 11 8 -11 13 2 -1 -4c24,11 45,26 61,46 18,24 30,53 30,88l-522 0c2,38 9,74 20,108 13,35 31,68 53,98l0 0 5 -7 5 8 8 0 -3 8 5 6 -8 3 -2 8 -7 -5 -8 4 0 -9 -8 -3 6 -6 -2 -8c-21,-29 -38,-61 -50,-95 -12,-35 -19,-72 -20,-110l-86 0c1,11 1,22 2,33 1,11 3,22 5,33l3 -4 4 8 9 0 -3 8 5 7 -8 2 -2 9 -7 -5 -8 3 -1 -8 -8 -4 7 -6 -2 -8 5 0c-2,-11 -4,-22 -5,-34 -1,-11 -2,-23 -2,-34l-38 0c1,70 18,137 45,198 28,61 68,115 116,160l1 0 9 -11 6 12 14 0 -6 12 9 11 -13 4 -3 13 -11 -8 -12 6 -1 -13 -12 -6 10 -9 -2 -8z"/>
   <g>
    <path class="fil0" d="M279 650l0 -2c0,-9 8,-17 17,-17l5 0c9,0 17,8 17,17l0 2c0,9 -8,17 -17,17l-5 0c-9,0 -17,-8 -17,-17zm0 170l0 -114c0,-10 8,-18 17,-18l5 0c9,0 17,8 17,18l0 114c0,10 -8,18 -17,18l-5 0c-9,0 -17,-8 -17,-18zm127 0l0 -154 -61 0 0 -18c0,-9 8,-17 17,-17l147 0 0 17c0,10 -8,18 -18,18l-43 0 0 154c0,10 -8,18 -18,18l-6 0c-10,0 -18,-8 -18,-18zm209 -27l1 0c7,1 12,6 14,12 2,6 1,13 -4,18 -3,3 -6,5 -9,8 -11,7 -25,11 -41,11 -26,0 -46,-9 -58,-26 -10,-13 -15,-31 -15,-52 0,-25 7,-44 20,-58 13,-14 29,-21 49,-21 22,0 40,7 53,22 10,11 16,27 18,48 0,5 -1,10 -5,14 -3,4 -8,6 -13,6l-81 0c0,11 3,21 10,27 6,7 13,10 22,10 7,0 12,-2 16,-5 2,-2 4,-4 5,-6 4,-6 11,-9 18,-8zm-11 -43c0,-11 -3,-20 -9,-26 -6,-6 -12,-9 -21,-9 -8,0 -15,3 -21,10 -6,6 -8,14 -8,25l59 0zm180 -14l-2 1c-7,1 -14,-2 -18,-9 -1,-2 -3,-5 -5,-6 -5,-4 -11,-6 -18,-6 -10,0 -18,3 -24,10 -6,7 -9,18 -9,35 0,17 3,30 9,37 6,8 14,11 24,11 8,0 14,-2 19,-6 2,-2 4,-5 6,-9 3,-8 11,-12 19,-11l3 1c6,1 10,4 13,10 3,5 2,11 0,16 -4,7 -9,13 -15,18 -12,9 -27,14 -47,14 -22,0 -39,-7 -52,-21 -13,-14 -20,-33 -20,-58 0,-24 7,-44 20,-58 13,-14 31,-20 53,-20 18,0 33,4 44,11 4,4 8,8 11,12 4,6 5,12 3,18 -3,5 -8,9 -14,10zm92 -88l0 60c13,-16 29,-23 46,-23 10,0 18,1 25,5 8,3 13,7 17,13 4,5 6,11 8,17 1,7 2,17 2,30l0 70c0,10 -8,18 -18,18l-4 0c-10,0 -18,-8 -18,-18l0 -61c0,-16 -1,-26 -2,-30 -2,-4 -4,-8 -8,-10 -4,-3 -9,-4 -15,-4 -6,0 -12,2 -18,5 -5,3 -9,8 -11,14 -3,7 -4,16 -4,29l0 57c0,10 -8,18 -18,18l-4 0c-10,0 -18,-8 -18,-18l0 -172c0,-9 8,-17 18,-17l4 0c10,0 18,8 18,17z"/>
    <path class="fil0" d="M282 1036l0 -146c0,-9 8,-17 17,-17l0 0c9,0 17,8 17,17l0 118 82 0 0 12c0,9 -7,16 -17,16l-99 0zm163 -82l-6 -1c-6,-1 -11,-6 -13,-13 -1,-6 1,-13 6,-17 1,0 1,0 1,0 8,-6 19,-8 35,-8 14,0 24,1 31,5 7,3 12,7 15,12 2,5 4,15 4,28l-1 37c0,11 1,18 2,23 1,5 3,10 5,16l-19 0c-7,0 -13,-4 -15,-12 -1,0 -1,0 -1,-1 -5,6 -11,9 -17,12 -6,3 -13,4 -20,4 -12,0 -21,-3 -28,-10 -7,-6 -11,-15 -11,-25 0,-7 2,-13 5,-18 3,-5 8,-9 13,-12 6,-3 14,-5 25,-7 15,-3 25,-6 31,-8l0 -3c0,-6 -2,-11 -5,-13 -3,-3 -8,-4 -17,-4 -5,0 -10,1 -13,3 -3,2 -5,6 -7,12zm42 25c-4,2 -11,3 -19,5 -9,2 -15,4 -17,6 -5,2 -7,6 -7,11 0,4 2,8 5,11 4,3 8,5 13,5 6,0 11,-2 16,-6 4,-3 6,-6 8,-10 0,-3 1,-8 1,-15l0 -7zm60 57l0 -164 15 0c9,0 17,7 17,17l0 42c9,-11 21,-16 34,-16 15,0 27,5 36,15 10,11 14,26 14,46 0,20 -4,36 -14,47 -10,11 -22,16 -35,16 -7,0 -14,-2 -20,-5 -7,-4 -13,-9 -18,-15l0 1c0,9 -7,16 -16,16l-13 0zm31 -62c0,13 2,22 6,28 6,8 13,12 22,12 7,0 13,-3 18,-9 5,-6 7,-15 7,-28 0,-13 -2,-23 -7,-29 -5,-6 -12,-9 -19,-9 -8,0 -14,3 -19,9 -5,5 -8,14 -8,26zm100 29l19 -3c6,-1 12,1 16,7 1,2 3,3 4,5 4,3 10,4 18,4 8,0 14,-1 18,-4 3,-2 4,-5 4,-8 0,-3 -1,-5 -2,-6 -2,-2 -5,-3 -11,-5 -25,-5 -41,-10 -48,-15 -9,-6 -14,-15 -14,-27 0,-10 4,-19 12,-26 8,-7 21,-10 38,-10 16,0 28,2 36,8 8,5 14,13 17,23l-18 4c-6,1 -12,-1 -16,-6 -1,-1 -2,-2 -3,-3 -4,-2 -9,-4 -16,-4 -8,0 -14,1 -17,4 -3,1 -4,4 -4,6 0,2 1,4 3,6 3,2 13,5 30,9 16,4 28,8 35,14 6,5 10,13 10,23 0,11 -5,21 -14,28 -9,8 -23,12 -40,12 -17,0 -29,-3 -39,-10 -9,-6 -16,-15 -18,-26z"/>
   </g>
  </g>
 </g>
</svg>
