<?xml version="1.0" encoding="UTF-8"?>
<!DOCTYPE svg PUBLIC "-//W3C//DTD SVG 1.1//EN" "http://www.w3.org/Graphics/SVG/1.1/DTD/svg11.dtd">
<!-- Creator: CorelDRAW X7 -->
<svg xmlns="http://www.w3.org/2000/svg" xml:space="preserve" width="599px" height="600px" version="1.1" style="shape-rendering:geometricPrecision; text-rendering:geometricPrecision; image-rendering:optimizeQuality; fill-rule:evenodd; clip-rule:evenodd"
viewBox="0 0 668 669"
 xmlns:xlink="http://www.w3.org/1999/xlink">
 <defs>
  <style type="text/css">
   <![CDATA[
    .fil1 {fill:black}
    .fil0 {fill:#E6E6E6}
   ]]>
  </style>
 </defs>
 <g id="Layer_x0020_1">
  <metadata id="CorelCorpID_0Corel-Layer"/>
  <path class="fil0" d="M334 0l15 27 18 -25 12 28 20 -24 9 30 23 -22 6 31 25 -20 3 32 26 -18 1 32 27 -15 -2 31 29 -11 -6 31 30 -9 -9 30 31 -6 -12 29 31 -3 -14 28 31 0 -17 27 31 3 -19 24 30 7 -22 22 30 10 -24 20 29 12 -26 18 28 15 -28 15 26 18 -29 12 24 20 -30 9 22 23 -30 6 19 25 -31 3 17 26 -31 1 14 27 -31 -2 12 29 -31 -6 9 30 -30 -9 6 31 -29 -12 2 31 -27 -14 -1 31 -26 -17 -3 31 -25 -19 -6 30 -23 -22 -9 30 -20 -24 -12 29 -18 -26 -15 28 -15 -28 -18 26 -12 -29 -20 24 -10 -30 -22 22 -7 -30 -24 19 -3 -31 -27 17 0 -31 -28 14 3 -31 -29 12 6 -31 -30 9 9 -30 -31 6 11 -29 -31 2 15 -27 -32 -1 18 -26 -32 -3 20 -25 -31 -6 22 -23 -30 -9 24 -20 -28 -12 25 -18 -27 -15 27 -15 -25 -18 28 -12 -24 -20 30 -10 -22 -22 31 -7 -20 -24 32 -3 -18 -27 32 0 -15 -28 31 3 -11 -29 31 6 -9 -30 30 9 -6 -31 29 11 -3 -31 28 15 0 -32 27 18 3 -32 24 20 7 -31 22 22 10 -30 20 24 12 -28 18 25 15 -27zm0 619c158,0 285,-127 285,-285 0,-158 -127,-286 -285,-286 -158,0 -286,128 -286,286 0,158 128,285 286,285zm0 6c161,0 291,-130 291,-291 0,-161 -130,-291 -291,-291 -161,0 -291,130 -291,291 0,161 130,291 291,291zm0 -26c146,0 265,-119 265,-265 0,-147 -119,-266 -265,-266 -147,0 -266,119 -266,266 0,146 119,265 266,265zm0 11c152,0 276,-124 276,-276 0,-153 -124,-276 -276,-276 -153,0 -276,123 -276,276 0,152 123,276 276,276zm0 -88c104,0 188,-84 188,-188 0,-104 -84,-188 -188,-188 -104,0 -188,84 -188,188 0,104 84,188 188,188zm0 56c135,0 244,-109 244,-244 0,-135 -109,-244 -244,-244 -135,0 -244,109 -244,244 0,135 109,244 244,244zm0 -423l9 22 24 2 -18 16 5 23 -20 -13 -20 13 5 -23 -18 -16 24 -2 9 -22zm-163 249c8,4 24,8 41,8 39,0 57,-20 57,-44 0,-20 -11,-34 -37,-43 -18,-7 -26,-11 -26,-20 0,-8 6,-14 20,-14 15,0 25,4 30,7l8 -26c-9,-4 -21,-8 -37,-8 -34,0 -54,19 -54,44 0,21 15,34 39,42 17,6 24,11 24,20 0,10 -8,16 -23,16 -13,0 -27,-5 -35,-9l-7 27zm115 0c8,4 24,8 40,8 40,0 58,-20 58,-44 0,-20 -12,-34 -37,-43 -18,-7 -26,-11 -26,-20 0,-8 6,-14 20,-14 14,0 25,4 30,7l8 -26c-9,-4 -21,-8 -37,-8 -34,0 -54,19 -54,44 0,21 15,34 39,42 17,6 24,11 24,20 0,10 -8,16 -23,16 -13,0 -27,-5 -36,-9l-6 27zm120 6l90 0 0 -27 -57 0 0 -116 -33 0 0 143zm144 -96l6 14 14 1 -11 10 4 14 -13 -8 -12 8 3 -14 -11 -10 15 -1 5 -14zm-433 0l6 14 15 1 -11 10 3 14 -13 -8 -12 8 3 -14 -11 -10 15 -1 5 -14zm293 126l6 14 14 1 -11 9 4 15 -13 -8 -12 8 3 -15 -11 -9 15 -1 5 -14zm-153 0l6 14 14 1 -11 9 4 15 -13 -8 -12 8 3 -15 -11 -9 15 -1 5 -14zm77 8l9 21 24 2 -18 16 5 23 -20 -12 -20 12 5 -23 -18 -16 24 -2 9 -21zm76 -261l6 13 14 1 -11 10 4 14 -13 -7 -12 7 3 -14 -11 -10 15 -1 5 -13zm-153 0l6 13 14 1 -11 10 4 14 -13 -7 -12 7 3 -14 -11 -10 15 -1 5 -13zm-104 64l2 -5 -27 -13 -2 5 0 8 5 1 -1 -6 1 0 22 10zm-17 -34c-3,5 2,11 9,15 7,4 15,6 18,0 3,-4 1,-10 -9,-15 -6,-4 -14,-7 -18,0zm5 2c1,-1 5,0 10,3 6,4 9,6 8,8 -1,1 -4,1 -11,-3 -6,-4 -8,-6 -7,-8zm8 -21c-4,5 0,11 8,16 6,5 13,7 17,2 3,-4 2,-10 -7,-17 -6,-4 -14,-7 -18,-1zm4 3c1,-2 5,0 10,4 6,4 8,6 7,8 -1,1 -4,0 -10,-4 -6,-4 -8,-7 -7,-8zm9 -20c-2,3 -1,8 3,11 3,3 8,5 11,2 2,-2 2,-6 -3,-11 -3,-3 -8,-5 -11,-2zm3 2c1,-1 3,1 5,3 3,3 4,5 3,6 -1,1 -3,0 -5,-3 -3,-3 -4,-5 -3,-6zm21 18l-11 -33 -2 2 11 34 2 -3zm-3 -24c-3,3 -1,8 2,11 4,4 8,5 11,2 2,-2 2,-6 -2,-11 -3,-2 -8,-5 -11,-2zm2 3c1,-1 3,0 6,3 3,2 4,4 3,5 -1,1 -3,0 -6,-3 -3,-2 -4,-4 -3,-5zm22 -1c1,0 4,-1 6,-3 5,-3 6,-9 2,-13 -2,-3 -5,-5 -10,-4 -4,0 -5,0 -6,-1 -1,-2 -1,-4 1,-5 1,-1 2,-2 3,-2l-2 -5c-1,1 -3,1 -5,3 -5,4 -5,9 -2,13 2,2 5,4 10,3 3,0 5,0 7,2 1,1 1,3 -2,5 -1,1 -3,2 -4,3l2 4zm18 -34l-6 4 -4 -6 6 -4 -3 -5 -11 8 17 26 12 -8 -3 -4 -7 4 -4 -7 6 -4 -3 -4zm25 2c-1,1 -1,1 -2,2 -4,2 -8,0 -11,-7 -4,-6 -2,-11 1,-12 1,-1 2,-1 3,-1l-2 -5c0,0 -2,0 -4,1 -5,3 -9,10 -4,21 4,8 11,12 18,8 2,-1 3,-2 4,-3l-3 -4zm-5 -26l7 18c3,8 7,11 13,9 5,-3 7,-8 4,-15l-7 -18 -6 2 7 19c2,4 1,6 0,7 -2,0 -4,0 -5,-5l-8 -19 -5 2zm33 22l6 -2 -3 -12 1 0c2,-1 3,0 5,4 1,3 3,6 3,7l6 -2c0,-1 -2,-4 -4,-7 -1,-4 -2,-5 -5,-6l0 0c3,-2 4,-5 3,-9 0,-2 -1,-4 -4,-5 -2,-2 -5,-1 -8,-1 -3,1 -5,2 -7,2l7 31zm0 -28c0,0 1,0 2,0 2,-1 4,1 4,3 1,3 0,6 -3,6l-1 0 -2 -9zm33 2l-8 1 -1 -7 8 -1 -1 -5 -13 1 4 32 14 -2 -1 -5 -8 1 -1 -9 7 -1 0 -5zm17 18l6 0 0 -26 5 0 0 -6 -17 1 0 5 6 0 0 26zm15 0l6 1 1 -13 1 0c2,0 3,2 3,5 1,4 1,7 1,8l7 1c-1,-2 -1,-6 -2,-9 0,-4 -1,-6 -3,-7l0 0c3,-1 5,-4 5,-7 1,-3 0,-5 -1,-7 -2,-2 -5,-3 -9,-3 -2,0 -4,0 -6,0l-3 31zm8 -26c1,0 1,0 2,0 3,0 3,2 3,5 0,3 -2,5 -4,4l-1 0 0 -9zm26 23l0 8 6 1 -1 -32 -7 -2 -12 30 6 1 2 -7 6 1zm-4 -5l2 -7c1,-1 2,-4 2,-6l1 0c-1,2 -1,5 -1,7l0 6 -4 0zm18 16l2 -6c3,-6 4,-11 5,-14l0 0c0,3 0,7 0,10l0 13 6 2 10 -30 -5 -2 -2 7c-2,5 -4,10 -5,14l0 0c0,-3 0,-8 0,-10l0 -13 -6 -2 -10 30 5 1zm17 5c1,1 2,3 5,4 5,2 11,0 13,-5 2,-3 1,-6 -1,-10 -3,-4 -3,-5 -2,-7 0,-1 2,-2 5,-1 1,1 2,2 3,3l3 -5c-1,-1 -2,-2 -4,-3 -6,-3 -11,0 -13,5 -1,2 -1,6 2,10 2,3 2,4 1,6 0,2 -2,3 -5,2 -2,-1 -3,-2 -4,-3l-3 4zm30 8l-2 7 5 3 11 -30 -7 -4 -21 24 5 3 5 -6 4 3zm-2 -6l5 -5c1,-2 3,-4 4,-6l0 0c0,2 -2,5 -2,7l-3 6 -4 -2zm22 22c0,-1 -1,-1 -2,-2 -3,-2 -4,-6 0,-12 5,-6 9,-7 12,-5 1,1 2,1 2,2l4 -3c0,-1 -1,-2 -3,-4 -5,-3 -13,-3 -20,6 -5,8 -6,15 1,20 1,1 3,2 4,2l2 -4zm4 10l4 4 17 -20 5 4 3 -5 -13 -11 -4 4 5 4 -17 20zm34 -12l-23 22 4 4 23 -22 -4 -4zm15 16c-5,-6 -13,-3 -19,2 -7,6 -11,13 -6,19 4,4 10,4 19,-4 6,-4 11,-12 6,-17zm-4 3c1,2 -2,6 -6,10 -5,4 -9,6 -11,4 -1,-2 1,-5 6,-10 5,-4 9,-6 11,-4zm-9 33l6 -4c5,-3 9,-6 12,-8l0 0c-2,2 -5,5 -6,8l-8 10 3 5 27 -17 -3 -5 -6 4c-5,3 -9,7 -12,9l0 0c2,-3 4,-6 6,-8l8 -11 -3 -5 -27 17 3 5zm10 14c0,1 1,4 2,6 3,5 8,7 13,5 3,-2 5,-5 5,-9 1,-4 1,-6 3,-7 1,0 3,0 5,2 0,2 0,3 0,4l6 -1c0,-1 -1,-3 -2,-5 -3,-6 -8,-7 -12,-5 -3,2 -5,5 -6,10 0,3 0,5 -2,6 -2,1 -4,0 -5,-3 -1,-1 -2,-3 -2,-5l-5 2zm6 182l-2 5 27 13 3 -5 -1 -8 -5 -1 1 6 0 0 -23 -10zm17 34c3,-5 -2,-11 -9,-16 -7,-4 -15,-5 -18,0 -3,5 0,10 9,16 6,4 14,6 18,0zm-5 -3c-1,2 -4,1 -10,-2 -6,-4 -9,-6 -8,-8 1,-2 5,-1 11,3 6,3 8,6 7,7zm-8 22c4,-5 0,-11 -7,-16 -7,-5 -14,-7 -18,-2 -3,4 -1,10 8,16 5,4 13,8 17,2zm-4 -3c-1,2 -5,0 -10,-4 -6,-4 -8,-6 -7,-8 1,-2 4,0 10,4 6,4 8,6 7,8zm-9 20c3,-3 1,-8 -3,-11 -3,-4 -8,-5 -11,-2 -2,2 -2,6 3,11 3,3 8,5 11,2zm-2 -3c-1,1 -4,0 -6,-2 -3,-3 -4,-5 -3,-6 1,-1 3,0 6,3 2,2 3,4 3,5zm-22 -18l11 34 3 -3 -12 -33 -2 2zm3 24c3,-3 1,-7 -2,-11 -4,-3 -8,-5 -11,-2 -2,3 -2,7 2,11 3,3 8,6 11,2zm-2 -2c-1,1 -3,0 -6,-3 -3,-2 -4,-4 -3,-5 1,-1 3,0 6,2 3,3 4,5 3,6zm-22 0c-1,1 -4,2 -6,3 -4,4 -5,10 -2,14 2,3 5,4 10,4 4,-1 5,-1 7,1 1,1 1,3 -1,5 -2,1 -3,1 -4,1l2 5c1,0 3,-1 5,-2 5,-4 5,-9 2,-13 -2,-3 -5,-4 -10,-4 -3,1 -5,1 -7,-1 -1,-2 -1,-4 2,-6 1,-1 3,-2 5,-2l-3 -5zm-18 35l6 -4 4 6 -6 4 3 4 11 -7 -17 -26 -12 7 3 5 7 -5 5 8 -6 3 2 5zm-25 -2c1,-1 2,-2 3,-2 3,-2 7,0 10,6 4,7 2,11 -1,13 -1,0 -2,1 -3,1l2 5c1,0 2,-1 4,-2 5,-2 9,-9 4,-20 -4,-8 -11,-12 -18,-8 -2,0 -3,2 -4,2l3 5zm6 25l-8 -18c-2,-7 -7,-10 -13,-8 -5,2 -6,7 -4,15l8 18 5 -2 -7 -19c-2,-5 -1,-6 0,-7 2,-1 4,0 5,4l8 20 6 -3zm-34 -21l-6 1 3 13 -1 0c-2,0 -3,0 -5,-4 -1,-3 -2,-6 -3,-7l-6 1c1,1 2,5 4,8 1,3 3,5 5,5l0 0c-3,3 -4,6 -3,9 1,3 2,5 4,6 2,1 5,1 9,0 2,0 4,-1 6,-2l-7 -30zm0 27c0,1 -1,1 -1,1 -3,1 -5,-1 -5,-4 -1,-2 0,-5 3,-5l1 -1 2 9zm-32 -2l7 0 1 7 -8 1 1 5 13 -2 -4 -31 -14 2 1 5 8 -1 1 8 -7 1 1 5zm-18 -17l-6 0 0 26 -5 0 0 5 17 0 0 -6 -5 0 -1 -25zm-15 0l-6 -1 -1 13 -1 0c-2,-1 -3,-2 -3,-6 0,-3 -1,-6 -1,-7l-7 -1c1,1 1,5 2,9 0,3 1,5 3,6l0 0c-3,2 -5,5 -5,8 -1,3 0,5 2,7 2,2 4,2 8,3 2,0 5,0 7,-1l2 -30zm-8 26c-1,0 -1,0 -2,0 -2,-1 -3,-3 -3,-5 0,-3 2,-5 4,-5l1 0 0 10zm-26 -24l0 -7 -6 -1 1 32 7 1 12 -29 -5 -1 -3 6 -6 -1zm4 6l-2 6c-1,2 -2,5 -2,7l0 0c0,-2 0,-5 0,-7l0 -7 4 1zm-18 -17l-2 7c-2,6 -4,11 -5,14l0 0c1,-3 0,-7 0,-10l0 -13 -6 -2 -10 30 5 2 3 -7c1,-5 3,-11 4,-14l0 0c0,3 0,7 0,10l1 13 5 2 10 -30 -5 -2zm-17 -4c0,-1 -2,-3 -5,-4 -5,-2 -11,-1 -13,4 -1,3 -1,7 1,11 3,3 3,5 2,6 0,2 -2,3 -5,2 -1,-1 -2,-2 -3,-3l-3 4c1,1 2,3 4,4 6,2 11,0 13,-5 1,-2 1,-6 -2,-10 -1,-3 -2,-5 -1,-7 1,-1 2,-2 5,-1 2,1 3,2 4,3l3 -4zm-30 -9l2 -7 -5 -2 -10 30 6 4 22 -24 -6 -3 -4 5 -5 -3zm2 7l-5 5c-1,2 -3,4 -4,6l0 0c1,-2 2,-5 2,-7l3 -6 4 2zm-22 -22c0,0 2,1 2,1 3,3 4,7 0,13 -5,6 -9,7 -12,5 -1,-1 -2,-2 -2,-2l-4 3c1,1 1,2 3,3 5,4 13,4 20,-6 5,-7 6,-15 0,-19 -2,-2 -4,-2 -5,-2l-2 4zm-4 -10l-4 -4 -17 20 -4 -4 -4 4 13 12 4 -5 -4 -3 16 -20zm-34 12l23 -22 -4 -4 -23 21 4 5zm-15 -16c5,5 13,3 19,-3 7,-5 11,-12 6,-18 -4,-4 -10,-4 -19,3 -6,5 -11,12 -6,18zm5 -3c-2,-2 1,-6 5,-10 5,-4 9,-6 11,-5 1,2 0,6 -6,10 -5,5 -9,6 -10,5zm8 -33l-6 4c-5,3 -9,6 -12,8l0 0c2,-2 5,-6 6,-8l8 -11 -3 -4 -27 17 3 4 6 -3c5,-4 9,-7 12,-9l0 0c-2,2 -4,6 -6,8l-8 11 3 4 27 -17 -3 -4zm-10 -14c0,-1 0,-4 -2,-6 -2,-6 -8,-8 -13,-5 -3,1 -5,4 -5,9 -1,4 -1,5 -3,6 -1,1 -3,1 -4,-2 -1,-1 -1,-3 -1,-4l-5 2c0,1 0,3 1,5 3,6 8,7 13,4 2,-1 4,-4 5,-9 0,-3 0,-5 2,-6 2,-1 4,0 6,2 0,2 1,4 1,5l5 -1z"/>
  <path class="fil1" d="M334 1l15 28 18 -26 12 29 20 -24 9 30 23 -22 6 30 25 -19 3 31 26 -17 1 31 27 -14 -2 31 29 -12 -6 31 30 -9 -9 30 31 -6 -12 30 31 -3 -14 28 31 0 -17 26 31 3 -19 25 30 6 -22 23 30 9 -24 20 29 13 -26 17 28 15 -28 15 26 18 -29 12 24 20 -30 10 22 22 -30 7 19 24 -31 3 17 27 -31 0 14 28 -31 -3 12 29 -31 -6 9 30 -30 -8 6 30 -29 -11 2 31 -27 -15 -1 32 -26 -17 -3 31 -25 -20 -6 31 -23 -22 -9 30 -20 -24 -12 28 -18 -25 -15 27 -15 -27 -18 25 -12 -28 -20 24 -10 -30 -22 22 -7 -31 -24 20 -3 -31 -27 17 0 -32 -28 15 3 -31 -29 11 6 -30 -30 8 9 -30 -31 6 11 -29 -31 3 15 -28 -32 0 18 -27 -32 -3 20 -24 -31 -7 22 -22 -30 -10 24 -20 -28 -12 25 -18 -27 -15 27 -15 -25 -17 28 -13 -24 -20 30 -9 -22 -23 31 -6 -20 -25 32 -3 -18 -26 32 0 -15 -28 31 3 -11 -30 31 6 -9 -30 30 9 -6 -31 29 12 -3 -31 28 14 0 -31 27 17 3 -31 24 19 7 -30 22 22 10 -30 20 24 12 -29 18 26 15 -28zm0 620c158,0 285,-128 285,-286 0,-157 -127,-285 -285,-285 -158,0 -286,128 -286,285 0,158 128,286 286,286zm0 6c161,0 291,-131 291,-292 0,-161 -130,-291 -291,-291 -161,0 -291,130 -291,291 0,161 130,292 291,292zm0 -26c146,0 265,-119 265,-266 0,-146 -119,-265 -265,-265 -147,0 -266,119 -266,265 0,147 119,266 266,266zm0 10c152,0 276,-123 276,-276 0,-152 -124,-276 -276,-276 -153,0 -276,124 -276,276 0,153 123,276 276,276zm0 -88c104,0 188,-84 188,-188 0,-104 -84,-188 -188,-188 -104,0 -188,84 -188,188 0,104 84,188 188,188zm0 56c135,0 244,-109 244,-244 0,-135 -109,-244 -244,-244 -135,0 -244,109 -244,244 0,135 109,244 244,244zm0 -422l9 22 24 2 -18 15 5 23 -20 -12 -20 12 5 -23 -18 -15 24 -2 9 -22zm-163 248c8,5 24,9 41,9 39,0 57,-21 57,-45 0,-20 -11,-33 -37,-42 -18,-7 -26,-12 -26,-21 0,-7 6,-14 20,-14 15,0 25,5 30,7l8 -26c-9,-4 -21,-7 -37,-7 -34,0 -54,19 -54,43 0,21 15,34 39,42 17,7 24,12 24,21 0,9 -8,15 -23,15 -13,0 -27,-4 -35,-9l-7 27zm115 0c8,5 24,9 40,9 40,0 58,-21 58,-45 0,-20 -12,-33 -37,-42 -18,-7 -26,-12 -26,-21 0,-7 6,-14 20,-14 14,0 25,5 30,7l8 -26c-9,-4 -21,-7 -37,-7 -34,0 -54,19 -54,43 0,21 15,34 39,42 17,7 24,12 24,21 0,9 -8,15 -23,15 -13,0 -27,-4 -36,-9l-6 27zm120 7l90 0 0 -28 -57 0 0 -116 -33 0 0 144zm144 -96l6 13 14 2 -11 9 4 14 -13 -7 -12 7 3 -14 -11 -9 15 -2 5 -13zm-433 0l6 13 15 2 -11 9 3 14 -13 -7 -12 7 3 -14 -11 -9 15 -2 5 -13zm293 126l6 13 14 1 -11 10 4 14 -13 -8 -12 8 3 -14 -11 -10 15 -1 5 -13zm-153 0l6 13 14 1 -11 10 4 14 -13 -8 -12 8 3 -14 -11 -10 15 -1 5 -13zm77 7l9 22 24 2 -18 15 5 23 -20 -12 -20 12 5 -23 -18 -15 24 -2 9 -22zm76 -261l6 14 14 1 -11 9 4 15 -13 -8 -12 8 3 -15 -11 -9 15 -1 5 -14zm-153 0l6 14 14 1 -11 9 4 15 -13 -8 -12 8 3 -15 -11 -9 15 -1 5 -14zm-104 65l2 -6 -27 -12 -2 4 0 8 5 1 -1 -5 1 -1 22 11zm-17 -35c-3,5 2,11 9,16 7,4 15,5 18,0 3,-5 1,-10 -9,-16 -6,-3 -14,-6 -18,0zm5 3c1,-2 5,-1 10,3 6,3 9,5 8,7 -1,2 -4,1 -11,-3 -6,-3 -8,-6 -7,-7zm8 -22c-4,5 0,11 8,16 6,5 13,8 17,2 3,-4 2,-10 -7,-16 -6,-4 -14,-8 -18,-2zm4 3c1,-2 5,0 10,4 6,4 8,6 7,8 -1,2 -4,1 -10,-4 -6,-4 -8,-6 -7,-8zm9 -20c-2,3 -1,8 3,11 3,4 8,5 11,2 2,-2 2,-6 -3,-10 -3,-3 -8,-6 -11,-3zm3 3c1,-1 3,0 5,3 3,2 4,4 3,5 -1,1 -3,0 -5,-3 -3,-2 -4,-4 -3,-5zm21 18l-11 -34 -2 3 11 33 2 -2zm-3 -24c-3,3 -1,7 2,11 4,3 8,5 11,2 2,-3 2,-7 -2,-11 -3,-3 -8,-5 -11,-2zm2 2c1,-1 3,0 6,3 3,3 4,4 3,5 -1,1 -3,0 -6,-2 -3,-3 -4,-5 -3,-6zm22 0c1,-1 4,-2 6,-3 5,-4 6,-9 2,-14 -2,-3 -5,-4 -10,-4 -4,1 -5,1 -6,-1 -1,-1 -1,-3 1,-5 1,-1 2,-1 3,-1l-2 -5c-1,0 -3,1 -5,2 -5,4 -5,9 -2,13 2,3 5,4 10,4 3,-1 5,-1 7,1 1,2 1,4 -2,6 -1,1 -3,2 -4,2l2 5zm18 -35l-6 4 -4 -6 6 -4 -3 -4 -11 7 17 27 12 -8 -3 -5 -7 5 -4 -7 6 -4 -3 -5zm25 2c-1,1 -1,2 -2,2 -4,2 -8,1 -11,-6 -4,-7 -2,-11 1,-13 1,0 2,0 3,0l-2 -6c0,0 -2,1 -4,2 -5,2 -9,10 -4,20 4,8 11,12 18,9 2,-1 3,-2 4,-3l-3 -5zm-5 -25l7 18c3,7 7,11 13,8 5,-2 7,-7 4,-15l-7 -18 -6 2 7 19c2,5 1,6 0,7 -2,1 -4,0 -5,-4l-8 -19 -5 2zm33 21l6 -1 -3 -13 1 0c2,0 3,1 5,4 1,4 3,6 3,7l6 -1c0,-1 -2,-5 -4,-8 -1,-3 -2,-5 -5,-5l0 0c3,-3 4,-6 3,-9 0,-3 -1,-5 -4,-6 -2,-1 -5,-1 -8,0 -3,0 -5,1 -7,2l7 30zm0 -27c0,-1 1,-1 2,-1 2,0 4,1 4,4 1,2 0,5 -3,6l-1 0 -2 -9zm33 2l-8 1 -1 -8 8 -1 -1 -5 -13 2 4 31 14 -2 -1 -5 -8 1 -1 -8 7 -1 0 -5zm17 18l6 -1 0 -25 5 -1 0 -5 -17 0 0 6 6 0 0 26zm15 0l6 0 1 -12 1 0c2,0 3,1 3,5 1,3 1,7 1,8l7 0c-1,-1 -1,-5 -2,-9 0,-3 -1,-5 -3,-6l0 0c3,-2 5,-4 5,-8 1,-2 0,-5 -1,-6 -2,-3 -5,-3 -9,-3 -2,-1 -4,-1 -6,0l-3 31zm8 -27c1,0 1,0 2,0 3,1 3,3 3,5 0,3 -2,5 -4,5l-1 0 0 -10zm26 24l0 7 6 1 -1 -32 -7 -1 -12 29 6 1 2 -6 6 1zm-4 -6l2 -6c1,-2 2,-5 2,-7l1 0c-1,2 -1,5 -1,7l0 7 -4 -1zm18 17l2 -7c3,-6 4,-11 5,-14l0 0c0,3 0,7 0,10l0 13 6 2 10 -30 -5 -2 -2 7c-2,6 -4,11 -5,14l0 0c0,-3 0,-7 0,-10l0 -13 -6 -2 -10 30 5 2zm17 4c1,1 2,3 5,4 5,3 11,1 13,-4 2,-3 1,-7 -1,-11 -3,-3 -3,-4 -2,-6 0,-2 2,-3 5,-2 1,1 2,2 3,3l3 -4c-1,-1 -2,-3 -4,-3 -6,-3 -11,-1 -13,4 -1,3 -1,6 2,10 2,3 2,5 1,7 0,2 -2,2 -5,1 -2,-1 -3,-2 -4,-3l-3 4zm30 9l-2 7 5 3 11 -31 -7 -3 -21 23 5 3 5 -5 4 3zm-2 -7l5 -5c1,-1 3,-4 4,-6l0 0c0,2 -2,5 -2,7l-3 6 -4 -2zm22 22c0,0 -1,-1 -2,-1 -3,-2 -4,-7 0,-13 5,-6 9,-7 12,-5 1,1 2,2 2,3l4 -4c0,-1 -1,-2 -3,-3 -5,-4 -13,-4 -20,6 -5,7 -6,15 1,19 1,2 3,2 4,3l2 -5zm4 10l4 4 17 -20 5 4 3 -4 -13 -11 -4 4 5 3 -17 20zm34 -12l-23 22 4 4 23 -21 -4 -5zm15 16c-5,-5 -13,-3 -19,3 -7,5 -11,13 -6,18 4,4 10,5 19,-3 6,-5 11,-12 6,-18zm-4 3c1,3 -2,6 -6,10 -5,4 -9,7 -11,5 -1,-2 1,-6 6,-10 5,-5 9,-6 11,-5zm-9 33l6 -4c5,-3 9,-6 12,-8l0 0c-2,2 -5,6 -6,8l-8 11 3 4 27 -17 -3 -4 -6 4c-5,3 -9,6 -12,8l0 0c2,-2 4,-6 6,-8l8 -11 -3 -4 -27 17 3 4zm10 14c0,1 1,4 2,6 3,6 8,8 13,5 3,-1 5,-4 5,-9 1,-4 1,-5 3,-6 1,-1 3,-1 5,2 0,1 0,3 0,4l6 -2c0,-1 -1,-3 -2,-5 -3,-5 -8,-7 -12,-4 -3,1 -5,4 -6,9 0,3 0,5 -2,6 -2,1 -4,0 -5,-2 -1,-2 -2,-4 -2,-5l-5 1zm6 182l-2 5 27 13 3 -5 -1 -8 -5 -1 1 6 0 0 -23 -10zm17 35c3,-6 -2,-12 -9,-16 -7,-4 -15,-6 -18,0 -3,4 0,10 9,15 6,4 14,7 18,1zm-5 -3c-1,2 -4,0 -10,-3 -6,-4 -9,-6 -8,-7 1,-2 5,-1 11,2 6,4 8,6 7,8zm-8 22c4,-6 0,-12 -7,-17 -7,-4 -14,-7 -18,-2 -3,4 -1,10 8,17 5,4 13,7 17,2zm-4 -4c-1,2 -5,0 -10,-3 -6,-4 -8,-7 -7,-9 1,-1 4,0 10,4 6,4 8,7 7,8zm-9 20c3,-3 1,-8 -3,-11 -3,-3 -8,-5 -11,-2 -2,2 -2,7 3,11 3,3 8,5 11,2zm-2 -2c-1,1 -4,-1 -6,-3 -3,-3 -4,-5 -3,-6 1,-1 3,0 6,3 2,3 3,5 3,6zm-22 -18l11 33 3 -2 -12 -33 -2 2zm3 24c3,-3 1,-8 -2,-11 -4,-3 -8,-5 -11,-2 -2,2 -2,6 2,11 3,3 8,5 11,2zm-2 -3c-1,1 -3,0 -6,-2 -3,-3 -4,-5 -3,-6 1,-1 3,0 6,3 3,2 4,4 3,5zm-22 1c-1,0 -4,1 -6,3 -4,3 -5,9 -2,14 2,2 5,4 10,3 4,0 5,0 7,1 1,2 1,4 -1,5 -2,1 -3,2 -4,2l2 5c1,0 3,-1 5,-2 5,-5 5,-10 2,-14 -2,-2 -5,-4 -10,-3 -3,0 -5,0 -7,-2 -1,-1 -1,-3 2,-5 1,-1 3,-2 5,-2l-3 -5zm-18 34l6 -4 4 6 -6 4 3 5 11 -8 -17 -26 -12 8 3 4 7 -4 5 7 -6 4 2 4zm-25 -2c1,0 2,-1 3,-2 3,-1 7,0 10,7 4,7 2,11 -1,12 -1,1 -2,1 -3,1l2 5c1,0 2,0 4,-1 5,-3 9,-10 4,-21 -4,-8 -11,-12 -18,-8 -2,1 -3,2 -4,3l3 4zm6 26l-8 -18c-2,-8 -7,-11 -13,-9 -5,3 -6,8 -4,15l8 18 5 -2 -7 -19c-2,-4 -1,-6 0,-7 2,0 4,1 5,5l8 19 6 -2zm-34 -21l-6 1 3 12 -1 0c-2,1 -3,0 -5,-4 -1,-3 -2,-6 -3,-7l-6 2c1,1 2,4 4,8 1,3 3,4 5,5l0 0c-3,2 -4,5 -3,9 1,2 2,4 4,5 2,2 5,2 9,1 2,-1 4,-1 6,-2l-7 -30zm0 27c0,0 -1,0 -1,0 -3,1 -5,-1 -5,-3 -1,-3 0,-5 3,-6l1 0 2 9zm-32 -2l7 -1 1 7 -8 1 1 5 13 -1 -4 -32 -14 2 1 5 8 -1 1 9 -7 1 1 5zm-18 -18l-6 0 0 26 -5 0 0 6 17 -1 0 -5 -5 0 -1 -26zm-15 0l-6 -1 -1 13 -1 0c-2,0 -3,-1 -3,-5 0,-4 -1,-7 -1,-8l-7 0c1,1 1,5 2,8 0,4 1,6 3,7l0 0c-3,1 -5,4 -5,7 -1,3 0,5 2,7 2,2 4,3 8,3 2,0 5,0 7,0l2 -31zm-8 26c-1,0 -1,0 -2,0 -2,0 -3,-2 -3,-5 0,-3 2,-5 4,-4l1 0 0 9zm-26 -23l0 -7 -6 -1 1 32 7 1 12 -30 -5 -1 -3 7 -6 -1zm4 5l-2 7c-1,1 -2,5 -2,7l0 0c0,-3 0,-6 0,-8l0 -6 4 0zm-18 -16l-2 7c-2,6 -4,10 -5,13l0 0c1,-3 0,-7 0,-10l0 -13 -6 -1 -10 29 5 2 3 -7c1,-5 3,-10 4,-14l0 1c0,2 0,7 0,9l1 14 5 1 10 -29 -5 -2zm-17 -5c0,-1 -2,-2 -5,-4 -5,-2 -11,0 -13,5 -1,3 -1,6 1,10 3,4 3,5 2,7 0,1 -2,2 -5,1 -1,-1 -2,-2 -3,-3l-3 5c1,1 2,2 4,3 6,3 11,0 13,-4 1,-3 1,-7 -2,-11 -1,-3 -2,-4 -1,-6 1,-2 2,-3 5,-2 2,1 3,2 4,4l3 -5zm-30 -8l2 -7 -5 -3 -10 30 6 4 22 -24 -6 -3 -4 6 -5 -3zm2 6l-5 6c-1,1 -3,4 -4,5l0 0c1,-2 2,-5 2,-7l3 -6 4 2zm-22 -21c0,0 2,0 2,1 3,2 4,6 0,12 -5,7 -9,7 -12,5 -1,-1 -2,-1 -2,-2l-4 4c1,0 1,2 3,3 5,3 13,3 20,-6 5,-8 6,-15 0,-20 -2,-1 -4,-2 -5,-2l-2 5zm-4 -10l-4 -4 -17 19 -4 -4 -4 5 13 11 4 -4 -4 -4 16 -19zm-34 11l23 -21 -4 -5 -23 22 4 4zm-15 -16c5,6 13,3 19,-2 7,-6 11,-13 6,-18 -4,-5 -10,-5 -19,3 -6,5 -11,12 -6,17zm5 -3c-2,-2 1,-6 5,-10 5,-4 9,-6 11,-4 1,2 0,5 -6,10 -5,4 -9,6 -10,4zm8 -33l-6 4c-5,4 -9,6 -12,8l0 0c2,-2 5,-5 6,-8l8 -10 -3 -5 -27 17 3 5 6 -4c5,-3 9,-7 12,-8l0 0c-2,2 -4,5 -6,7l-8 11 3 5 27 -17 -3 -5zm-10 -14c0,-1 0,-3 -2,-6 -2,-5 -8,-7 -13,-5 -3,2 -5,5 -5,10 -1,4 -1,5 -3,6 -1,0 -3,0 -4,-2 -1,-2 -1,-3 -1,-4l-5 1c0,1 0,3 1,5 3,6 8,7 13,5 2,-2 4,-5 5,-10 0,-3 0,-4 2,-6 2,0 4,0 6,3 0,1 1,3 1,5l5 -2z"/>
 </g>
</svg>
