<?xml version="1.0" encoding="UTF-8"?>
<!DOCTYPE svg PUBLIC "-//W3C//DTD SVG 1.1//EN" "http://www.w3.org/Graphics/SVG/1.1/DTD/svg11.dtd">
<!-- Creator: CorelDRAW X7 -->
<svg xmlns="http://www.w3.org/2000/svg" xml:space="preserve" width="538px" height="600px" version="1.1" style="shape-rendering:geometricPrecision; text-rendering:geometricPrecision; image-rendering:optimizeQuality; fill-rule:evenodd; clip-rule:evenodd"
viewBox="0 0 339 379"
 xmlns:xlink="http://www.w3.org/1999/xlink">
 <defs>
  <style type="text/css">
   <![CDATA[
    .fil0 {fill:black}
   ]]>
  </style>
 </defs>
 <g id="Layer_x0020_1">
  <metadata id="CorelCorpID_0Corel-Layer"/>
  <g id="_359297620112">
   <path class="fil0" d="M157 0l158 0c13,0 24,11 24,24l0 251c0,13 -11,24 -24,24l-158 0 0 -299zm0 254l0 -29c5,0 10,0 16,0 34,0 65,-9 87,-24l0 0 -44 3c-4,0 -8,-1 -11,-4 -3,-3 -4,-7 -4,-11l0 -1c1,-7 7,-13 14,-13l103 0c6,0 10,3 13,7 3,4 4,9 3,14l-17 61c-2,9 -12,15 -21,13l-5 -1c-6,-1 -10,-4 -13,-9 -3,-5 -3,-10 -1,-15l6 -19 0 0c-28,18 -67,29 -109,29 -6,0 -12,0 -17,-1zm0 -185l0 -21c5,0 11,0 17,0 38,0 72,8 100,23 3,2 5,5 6,9 0,4 -1,7 -4,10l-1 2c-5,4 -11,4 -15,1 -22,-15 -53,-25 -87,-25 -6,0 -11,1 -16,1z"/>
   <path class="fil0" d="M157 48l0 21c-59,5 -104,38 -104,78 0,40 45,72 104,78l0 29c-79,-5 -141,-49 -141,-103 0,-53 62,-97 141,-103z"/>
   <path class="fil0" d="M53 351l-32 0 0 7 24 0c-1,4 -5,8 -7,10 -4,2 -8,3 -13,3 -19,-2 -23,-28 -7,-37 6,-3 13,-3 19,0 7,5 -2,4 13,4 -1,-5 -7,-10 -12,-12 -7,-3 -15,-3 -21,0 -11,4 -20,17 -16,32 3,12 15,22 30,20 10,-1 17,-8 20,-16 1,-3 3,-8 2,-11z"/>
   <path class="fil0" d="M280 349l0 -12c5,-1 12,0 11,6 0,6 -6,6 -11,6zm-13 28l13 0 0 -16c0,0 8,14 10,16l15 0c0,-1 -11,-15 -12,-17 1,-1 3,-1 6,-4 2,-2 3,-4 4,-7 4,-10 0,-23 -15,-24 -7,0 -14,0 -21,0l0 52z"/>
   <path class="fil0" d="M216 358c-18,0 -12,-1 -16,3 -3,4 -8,6 -13,4 -14,-4 -14,-24 0,-27 6,-2 10,0 13,3 5,5 -2,4 17,4 -1,-3 -3,-7 -4,-9 -5,-8 -15,-13 -26,-12 -13,1 -24,13 -24,27 1,14 10,25 23,27 11,2 21,-3 27,-11 1,-2 3,-6 3,-9z"/>
   <path class="fil0" d="M104 377l7 0 0 -44c1,1 11,28 13,33 0,2 3,10 4,11l5 0c2,-5 6,-16 9,-22 1,-4 3,-8 4,-11l4 -11 0 44 7 0 0 -52 -11 0c-2,5 -9,24 -11,30 -1,1 -4,9 -5,10l-15 -40 -11 0 0 52z"/>
   <path class="fil0" d="M239 343c1,1 5,15 5,16l-10 0 5 -16zm-25 34l14 0 3 -7 17 0 2 7 15 0c-1,-1 -10,-24 -10,-26 -2,-4 -4,-9 -5,-13 -1,-2 -5,-12 -6,-13l-10 0 -10 26c-1,3 -10,25 -10,26z"/>
   <path class="fil0" d="M339 345l-16 0 0 -8 16 0c0,-2 0,-10 0,-12l-28 0 0 52 28 0 0 -11 -16 0 0 -9 16 0 0 -12z"/>
   <path class="fil0" d="M76 335c1,2 7,19 7,20l-14 0c-1,-1 6,-19 7,-20zm-24 42l8 0 6 -15 20 0c1,3 2,5 3,8 0,2 2,6 3,7l8 0c0,-1 -9,-23 -10,-26 -1,-3 -10,-25 -11,-26l-7 0 -20 52z"/>
   <path class="fil0" d="M339 345l0 12 -16 0 0 9 16 0 0 11 -28 0 0 -52 28 0c0,2 0,10 0,12 0,-1 0,-1 0,-3 0,-2 0,-8 0,-9l-28 0c-1,1 -1,51 -1,53 2,0 27,0 29,0l0 -12 -15 0 0 -9 15 0c0,-2 0,-4 0,-6 0,-1 1,-5 0,-6z"/>
  </g>
 </g>
</svg>
