<?xml version="1.0" encoding="UTF-8"?>
<!DOCTYPE svg PUBLIC "-//W3C//DTD SVG 1.1//EN" "http://www.w3.org/Graphics/SVG/1.1/DTD/svg11.dtd">
<!-- Creator: CorelDRAW X7 -->
<svg xmlns="http://www.w3.org/2000/svg" xml:space="preserve" width="600px" height="600px" version="1.1" style="shape-rendering:geometricPrecision; text-rendering:geometricPrecision; image-rendering:optimizeQuality; fill-rule:evenodd; clip-rule:evenodd"
viewBox="0 0 600 600"
 xmlns:xlink="http://www.w3.org/1999/xlink">
 <defs>
  <style type="text/css">
   <![CDATA[
    .fil0 {fill:white}
   ]]>
  </style>
 </defs>
 <g id="Layer_x0020_1">
  <metadata id="CorelCorpID_0Corel-Layer"/>
  <path class="fil0" d="M300 0c166,0 300,134 300,300 0,166 -134,300 -300,300 -166,0 -300,-134 -300,-300 0,-166 134,-300 300,-300zm0 28c150,0 272,122 272,272 0,150 -122,272 -272,272 -150,0 -272,-122 -272,-272 0,-150 122,-272 272,-272zm0 28c135,0 244,109 244,244 0,135 -109,244 -244,244 -135,0 -244,-109 -244,-244 0,-135 109,-244 244,-244zm-115 340l-36 0 0 -136c-13,13 -28,22 -46,28l0 -33c10,-3 20,-9 31,-17 11,-9 18,-19 22,-30l29 0 0 188zm85 -101c-9,-4 -16,-10 -20,-16 -5,-7 -7,-15 -7,-23 0,-14 5,-25 15,-35 10,-9 23,-13 41,-13 18,0 32,4 42,13 10,10 14,21 14,35 0,9 -2,16 -6,23 -5,7 -11,12 -19,16 10,4 18,10 23,18 6,8 8,17 8,28 0,17 -5,31 -16,42 -11,11 -26,16 -44,16 -17,0 -31,-4 -42,-13 -14,-11 -20,-25 -20,-44 0,-10 2,-19 7,-28 5,-8 13,-15 24,-19zm7 -36c0,7 2,12 6,16 4,4 10,6 16,6 7,0 13,-2 17,-6 4,-4 6,-9 6,-16 0,-7 -2,-13 -6,-17 -4,-4 -10,-6 -16,-6 -7,0 -13,2 -17,6 -4,4 -6,10 -6,17zm-3 80c0,10 2,18 7,23 6,6 12,9 19,9 8,0 14,-3 19,-9 4,-5 7,-13 7,-23 0,-9 -3,-16 -7,-21 -5,-5 -12,-8 -19,-8 -9,0 -15,3 -20,9 -4,6 -6,13 -6,20zm159 30l0 -49 -49 0 0 -33 49 0 0 -49 33 0 0 49 49 0 0 33 -49 0 0 49 -33 0z"/>
 </g>
</svg>
