<?xml version="1.0" encoding="UTF-8"?>
<!DOCTYPE svg PUBLIC "-//W3C//DTD SVG 1.1//EN" "http://www.w3.org/Graphics/SVG/1.1/DTD/svg11.dtd">
<!-- Creator: CorelDRAW X7 -->
<svg xmlns="http://www.w3.org/2000/svg" xml:space="preserve" width="581px" height="600px" version="1.1" style="shape-rendering:geometricPrecision; text-rendering:geometricPrecision; image-rendering:optimizeQuality; fill-rule:evenodd; clip-rule:evenodd"
viewBox="0 0 626 647"
 xmlns:xlink="http://www.w3.org/1999/xlink">
 <defs>
  <style type="text/css">
   <![CDATA[
    .str1 {stroke:#666666;stroke-width:2.47167}
    .str0 {stroke:#B3B3B3;stroke-width:2.47167}
    .fil0 {fill:none}
    .fil1 {fill:white;fill-rule:nonzero}
   ]]>
  </style>
 </defs>
 <g id="Layer_x0020_1">
  <metadata id="CorelCorpID_0Corel-Layer"/>
  <g id="_359297627216">
   <path class="fil0 str0" d="M552 436c2,0 4,3 4,5 0,3 -2,5 -4,5 -2,0 -4,-2 -4,-5 0,-2 2,-5 4,-5z"/>
   <path class="fil0 str0" d="M556 440c2,0 3,2 3,5 0,3 -1,5 -3,5 -3,0 -4,-2 -4,-5 0,-3 1,-5 4,-5z"/>
   <path class="fil0 str0" d="M559 444c2,0 4,3 4,5 0,3 -2,5 -4,5 -2,0 -4,-2 -4,-5 0,-2 2,-5 4,-5z"/>
   <path class="fil0 str0" d="M561 449c2,0 4,2 4,5 0,3 -2,5 -4,5 -2,0 -4,-2 -4,-5 0,-3 2,-5 4,-5z"/>
   <path class="fil0 str0" d="M563 454c2,0 4,3 4,5 0,3 -2,5 -4,5 -2,0 -4,-2 -4,-5 0,-2 2,-5 4,-5z"/>
   <path class="fil0 str0" d="M564 460c2,0 3,2 3,5 0,2 -1,4 -3,4 -2,0 -4,-2 -4,-4 0,-3 2,-5 4,-5z"/>
   <path class="fil0 str0" d="M564 465c2,0 3,2 3,5 0,3 -1,5 -3,5 -2,0 -4,-2 -4,-5 0,-3 2,-5 4,-5z"/>
   <path class="fil0 str0" d="M563 470c2,0 4,3 4,5 0,3 -2,5 -4,5 -2,0 -4,-2 -4,-5 0,-2 2,-5 4,-5z"/>
   <path class="fil0 str0" d="M562 476c2,0 3,2 3,5 0,2 -1,4 -3,4 -2,0 -4,-2 -4,-4 0,-3 2,-5 4,-5z"/>
   <path class="fil0 str0" d="M560 481c2,0 4,2 4,5 0,2 -2,4 -4,4 -2,0 -4,-2 -4,-4 0,-3 2,-5 4,-5z"/>
   <path class="fil0 str0" d="M558 486c2,0 4,2 4,5 0,2 -2,5 -4,5 -2,0 -4,-3 -4,-5 0,-3 2,-5 4,-5z"/>
   <path class="fil0 str0" d="M556 491c2,0 4,2 4,5 0,2 -2,5 -4,5 -2,0 -4,-3 -4,-5 0,-3 2,-5 4,-5z"/>
   <path class="fil0 str0" d="M554 496c2,0 4,2 4,5 0,2 -2,4 -4,4 -2,0 -4,-2 -4,-4 0,-3 2,-5 4,-5z"/>
   <path class="fil0 str0" d="M552 501c2,0 3,2 3,5 0,2 -1,4 -3,4 -2,0 -4,-2 -4,-4 0,-3 2,-5 4,-5z"/>
   <path class="fil0 str0" d="M549 506c2,0 4,2 4,4 0,3 -2,5 -4,5 -2,0 -3,-2 -3,-5 0,-2 1,-4 3,-4z"/>
   <path class="fil0 str0" d="M547 510c2,0 4,3 4,5 0,3 -2,5 -4,5 -2,0 -4,-2 -4,-5 0,-2 2,-5 4,-5z"/>
   <path class="fil0 str0" d="M545 515c2,0 3,2 3,5 0,3 -1,5 -3,5 -2,0 -4,-2 -4,-5 0,-3 2,-5 4,-5z"/>
   <path class="fil0 str0" d="M542 520c2,0 4,2 4,5 0,3 -2,5 -4,5 -2,0 -4,-2 -4,-5 0,-3 2,-5 4,-5z"/>
   <path class="fil0 str0" d="M540 525c2,0 3,2 3,5 0,2 -1,5 -3,5 -3,0 -4,-3 -4,-5 0,-3 1,-5 4,-5z"/>
   <path class="fil0 str0" d="M537 529c2,0 4,3 4,5 0,3 -2,5 -4,5 -2,0 -4,-2 -4,-5 0,-2 2,-5 4,-5z"/>
   <path class="fil0 str0" d="M534 534c2,0 4,2 4,5 0,3 -2,5 -4,5 -2,0 -3,-2 -3,-5 0,-3 1,-5 3,-5z"/>
   <path class="fil0 str0" d="M532 539c2,0 3,2 3,5 0,2 -1,5 -3,5 -3,0 -4,-3 -4,-5 0,-3 1,-5 4,-5z"/>
   <path class="fil0 str0" d="M529 543c2,0 3,3 3,5 0,3 -1,5 -3,5 -2,0 -4,-2 -4,-5 0,-2 2,-5 4,-5z"/>
   <path class="fil0 str0" d="M526 548c2,0 4,2 4,5 0,2 -2,5 -4,5 -2,0 -4,-3 -4,-5 0,-3 2,-5 4,-5z"/>
   <path class="fil0 str0" d="M523 552c2,0 4,3 4,5 0,3 -2,5 -4,5 -2,0 -4,-2 -4,-5 0,-2 2,-5 4,-5z"/>
   <path class="fil0 str0" d="M520 557c2,0 3,2 3,5 0,2 -1,5 -3,5 -2,0 -4,-3 -4,-5 0,-3 2,-5 4,-5z"/>
   <path class="fil0 str0" d="M516 561c2,0 4,2 4,5 0,3 -2,5 -4,5 -2,0 -3,-2 -3,-5 0,-3 1,-5 3,-5z"/>
   <path class="fil0 str0" d="M513 565c2,0 4,2 4,5 0,3 -2,5 -4,5 -2,0 -4,-2 -4,-5 0,-3 2,-5 4,-5z"/>
   <path class="fil0 str0" d="M510 569c2,0 3,3 3,5 0,3 -1,5 -3,5 -3,0 -4,-2 -4,-5 0,-2 1,-5 4,-5z"/>
   <path class="fil0 str0" d="M506 573c2,0 4,3 4,5 0,3 -2,5 -4,5 -2,0 -4,-2 -4,-5 0,-2 2,-5 4,-5z"/>
   <path class="fil0 str0" d="M502 577c2,0 4,2 4,5 0,3 -2,5 -4,5 -2,0 -4,-2 -4,-5 0,-3 2,-5 4,-5z"/>
   <path class="fil0 str0" d="M498 581c2,0 4,2 4,5 0,2 -2,5 -4,5 -2,0 -4,-3 -4,-5 0,-3 2,-5 4,-5z"/>
   <path class="fil0 str0" d="M494 584c2,0 4,2 4,5 0,3 -2,5 -4,5 -2,0 -4,-2 -4,-5 0,-3 2,-5 4,-5z"/>
   <path class="fil0 str0" d="M489 587c3,0 4,2 4,5 0,3 -1,5 -4,5 -2,0 -3,-2 -3,-5 0,-3 1,-5 3,-5z"/>
   <path class="fil0 str0" d="M485 590c2,0 3,2 3,5 0,2 -1,4 -3,4 -2,0 -4,-2 -4,-4 0,-3 2,-5 4,-5z"/>
   <path class="fil0 str0" d="M480 591c2,0 3,3 3,5 0,3 -1,5 -3,5 -3,0 -4,-2 -4,-5 0,-2 1,-5 4,-5z"/>
   <path class="fil0 str0" d="M474 593c2,0 4,2 4,4 0,3 -2,5 -4,5 -2,0 -3,-2 -3,-5 0,-2 1,-4 3,-4z"/>
   <path class="fil0 str0" d="M469 594c2,0 4,2 4,4 0,3 -2,5 -4,5 -2,0 -4,-2 -4,-5 0,-2 2,-4 4,-4z"/>
   <path class="fil0 str0" d="M464 595c2,0 4,2 4,5 0,2 -2,4 -4,4 -2,0 -4,-2 -4,-4 0,-3 2,-5 4,-5z"/>
   <path class="fil0 str0" d="M458 596c3,0 4,2 4,4 0,3 -1,5 -4,5 -2,0 -3,-2 -3,-5 0,-2 1,-4 3,-4z"/>
   <path class="fil0 str0" d="M453 597c2,0 4,2 4,4 0,3 -2,5 -4,5 -2,0 -4,-2 -4,-5 0,-2 2,-4 4,-4z"/>
   <path class="fil0 str0" d="M448 597c2,0 4,3 4,5 0,3 -2,5 -4,5 -2,0 -4,-2 -4,-5 0,-2 2,-5 4,-5z"/>
   <path class="fil0 str0" d="M442 598c3,0 4,3 4,5 0,3 -1,5 -4,5 -2,0 -3,-2 -3,-5 0,-2 1,-5 3,-5z"/>
   <path class="fil0 str0" d="M437 599c2,0 4,2 4,5 0,3 -2,5 -4,5 -2,0 -4,-2 -4,-5 0,-3 2,-5 4,-5z"/>
   <path class="fil0 str0" d="M432 600c2,0 4,2 4,5 0,3 -2,5 -4,5 -2,0 -4,-2 -4,-5 0,-3 2,-5 4,-5z"/>
   <path class="fil0 str0" d="M427 601c2,0 3,2 3,5 0,2 -1,5 -3,5 -3,0 -4,-3 -4,-5 0,-3 1,-5 4,-5z"/>
   <path class="fil0 str0" d="M421 602c2,0 4,2 4,5 0,2 -2,5 -4,5 -2,0 -4,-3 -4,-5 0,-3 2,-5 4,-5z"/>
   <path class="fil0 str0" d="M416 603c2,0 4,2 4,5 0,2 -2,5 -4,5 -2,0 -4,-3 -4,-5 0,-3 2,-5 4,-5z"/>
   <path class="fil0 str0" d="M411 604c2,0 3,2 3,5 0,2 -1,5 -3,5 -2,0 -4,-3 -4,-5 0,-3 2,-5 4,-5z"/>
   <path class="fil0 str0" d="M405 605c2,0 4,2 4,5 0,3 -2,5 -4,5 -2,0 -3,-2 -3,-5 0,-3 1,-5 3,-5z"/>
   <path class="fil0 str0" d="M400 606c2,0 4,3 4,5 0,3 -2,5 -4,5 -2,0 -4,-2 -4,-5 0,-2 2,-5 4,-5z"/>
   <path class="fil0 str0" d="M395 608c2,0 4,2 4,5 0,3 -2,5 -4,5 -2,0 -4,-2 -4,-5 0,-3 2,-5 4,-5z"/>
   <path class="fil0 str0" d="M390 610c2,0 4,2 4,5 0,3 -2,5 -4,5 -2,0 -4,-2 -4,-5 0,-3 2,-5 4,-5z"/>
   <path class="fil0 str0" d="M385 612c2,0 4,2 4,5 0,3 -2,5 -4,5 -2,0 -4,-2 -4,-5 0,-3 2,-5 4,-5z"/>
   <path class="fil0 str0" d="M380 614c2,0 4,2 4,5 0,3 -2,5 -4,5 -2,0 -4,-2 -4,-5 0,-3 2,-5 4,-5z"/>
   <path class="fil0 str0" d="M375 616c2,0 4,2 4,5 0,3 -2,5 -4,5 -2,0 -4,-2 -4,-5 0,-3 2,-5 4,-5z"/>
   <path class="fil0 str0" d="M370 618c2,0 4,3 4,5 0,3 -2,5 -4,5 -2,0 -4,-2 -4,-5 0,-2 2,-5 4,-5z"/>
   <path class="fil0 str0" d="M365 620c2,0 4,3 4,5 0,3 -2,5 -4,5 -2,0 -4,-2 -4,-5 0,-2 2,-5 4,-5z"/>
   <path class="fil0 str0" d="M360 622c2,0 4,3 4,5 0,3 -2,5 -4,5 -2,0 -4,-2 -4,-5 0,-2 2,-5 4,-5z"/>
   <path class="fil0 str0" d="M355 624c2,0 4,3 4,5 0,3 -2,5 -4,5 -2,0 -4,-2 -4,-5 0,-2 2,-5 4,-5z"/>
   <path class="fil0 str0" d="M350 626c2,0 4,3 4,5 0,3 -2,5 -4,5 -2,0 -4,-2 -4,-5 0,-2 2,-5 4,-5z"/>
   <path class="fil0 str0" d="M345 628c2,0 4,2 4,5 0,3 -2,5 -4,5 -2,0 -4,-2 -4,-5 0,-3 2,-5 4,-5z"/>
   <path class="fil0 str0" d="M340 630c2,0 4,2 4,5 0,3 -2,5 -4,5 -2,0 -4,-2 -4,-5 0,-3 2,-5 4,-5z"/>
   <path class="fil0 str0" d="M335 632c2,0 4,2 4,5 0,2 -2,4 -4,4 -2,0 -4,-2 -4,-4 0,-3 2,-5 4,-5z"/>
   <path class="fil0 str0" d="M330 633c2,0 3,2 3,5 0,3 -1,5 -3,5 -2,0 -4,-2 -4,-5 0,-3 2,-5 4,-5z"/>
   <path class="fil0 str0" d="M324 635c3,0 4,2 4,4 0,3 -1,5 -4,5 -2,0 -3,-2 -3,-5 0,-2 1,-4 3,-4z"/>
   <path class="fil0 str0" d="M319 636c2,0 4,2 4,4 0,3 -2,5 -4,5 -2,0 -4,-2 -4,-5 0,-2 2,-4 4,-4z"/>
   <path class="fil0 str0" d="M314 636c2,0 4,2 4,5 0,3 -2,5 -4,5 -2,0 -4,-2 -4,-5 0,-3 2,-5 4,-5z"/>
   <path class="fil0 str0" d="M308 636c2,0 4,2 4,5 0,3 -2,5 -4,5 -2,0 -3,-2 -3,-5 0,-3 1,-5 3,-5z"/>
   <path class="fil0 str0" d="M303 636c2,0 4,2 4,5 0,3 -2,5 -4,5 -2,0 -4,-2 -4,-5 0,-3 2,-5 4,-5z"/>
   <path class="fil0 str0" d="M298 636c2,0 3,2 3,5 0,2 -1,4 -3,4 -2,0 -4,-2 -4,-4 0,-3 2,-5 4,-5z"/>
   <path class="fil0 str0" d="M292 635c2,0 4,2 4,5 0,3 -2,5 -4,5 -2,0 -4,-2 -4,-5 0,-3 2,-5 4,-5z"/>
   <path class="fil0 str0" d="M287 635c2,0 4,2 4,4 0,3 -2,5 -4,5 -2,0 -4,-2 -4,-5 0,-2 2,-4 4,-4z"/>
   <path class="fil0 str0" d="M282 634c2,0 3,2 3,5 0,2 -1,5 -3,5 -3,0 -4,-3 -4,-5 0,-3 1,-5 4,-5z"/>
   <path class="fil0 str0" d="M276 633c2,0 4,2 4,5 0,3 -2,5 -4,5 -2,0 -4,-2 -4,-5 0,-3 2,-5 4,-5z"/>
   <path class="fil0 str0" d="M271 632c2,0 4,2 4,5 0,3 -2,5 -4,5 -2,0 -4,-2 -4,-5 0,-3 2,-5 4,-5z"/>
   <path class="fil0 str0" d="M266 631c2,0 3,2 3,5 0,3 -1,5 -3,5 -2,0 -4,-2 -4,-5 0,-3 2,-5 4,-5z"/>
   <path class="fil0 str0" d="M260 630c2,0 4,2 4,5 0,2 -2,5 -4,5 -2,0 -3,-3 -3,-5 0,-3 1,-5 3,-5z"/>
   <path class="fil0 str0" d="M255 629c2,0 4,2 4,4 0,3 -2,5 -4,5 -2,0 -4,-2 -4,-5 0,-2 2,-4 4,-4z"/>
   <path class="fil0 str0" d="M250 627c2,0 4,2 4,5 0,3 -2,5 -4,5 -2,0 -4,-2 -4,-5 0,-3 2,-5 4,-5z"/>
   <path class="fil0 str0" d="M245 626c2,0 4,2 4,5 0,2 -2,4 -4,4 -2,0 -4,-2 -4,-4 0,-3 2,-5 4,-5z"/>
   <path class="fil0 str0" d="M240 624c2,0 3,2 3,5 0,3 -1,5 -3,5 -3,0 -4,-2 -4,-5 0,-3 1,-5 4,-5z"/>
   <path class="fil0 str0" d="M234 623c3,0 4,2 4,4 0,3 -1,5 -4,5 -2,0 -3,-2 -3,-5 0,-2 1,-4 3,-4z"/>
   <path class="fil0 str0" d="M229 621c2,0 4,2 4,5 0,2 -2,5 -4,5 -2,0 -3,-3 -3,-5 0,-3 1,-5 3,-5z"/>
   <path class="fil0 str0" d="M224 619c2,0 4,2 4,5 0,3 -2,5 -4,5 -2,0 -4,-2 -4,-5 0,-3 2,-5 4,-5z"/>
   <path class="fil0 str0" d="M219 617c2,0 4,2 4,5 0,3 -2,5 -4,5 -2,0 -4,-2 -4,-5 0,-3 2,-5 4,-5z"/>
   <path class="fil0 str0" d="M214 615c2,0 4,2 4,5 0,3 -2,5 -4,5 -2,0 -4,-2 -4,-5 0,-3 2,-5 4,-5z"/>
   <path class="fil0 str0" d="M209 613c2,0 4,2 4,5 0,3 -2,5 -4,5 -2,0 -4,-2 -4,-5 0,-3 2,-5 4,-5z"/>
   <path class="fil0 str0" d="M204 611c2,0 4,2 4,5 0,2 -2,5 -4,5 -2,0 -3,-3 -3,-5 0,-3 1,-5 3,-5z"/>
   <path class="fil0 str0" d="M199 609c3,0 4,2 4,4 0,3 -1,5 -4,5 -2,0 -3,-2 -3,-5 0,-2 1,-4 3,-4z"/>
   <path class="fil0 str0" d="M195 606c2,0 3,2 3,5 0,3 -1,5 -3,5 -2,0 -4,-2 -4,-5 0,-3 2,-5 4,-5z"/>
   <path class="fil0 str0" d="M190 604c2,0 4,2 4,5 0,2 -2,4 -4,4 -2,0 -4,-2 -4,-4 0,-3 2,-5 4,-5z"/>
   <path class="fil0 str0" d="M185 601c2,0 4,2 4,5 0,3 -2,5 -4,5 -2,0 -4,-2 -4,-5 0,-3 2,-5 4,-5z"/>
   <path class="fil0 str0" d="M180 598c2,0 4,3 4,5 0,3 -2,5 -4,5 -2,0 -3,-2 -3,-5 0,-2 1,-5 3,-5z"/>
   <path class="fil0 str0" d="M176 596c2,0 4,2 4,5 0,2 -2,4 -4,4 -2,0 -4,-2 -4,-4 0,-3 2,-5 4,-5z"/>
   <path class="fil0 str0" d="M171 593c2,0 4,2 4,5 0,2 -2,5 -4,5 -2,0 -4,-3 -4,-5 0,-3 2,-5 4,-5z"/>
   <path class="fil0 str0" d="M167 590c2,0 4,2 4,5 0,2 -2,5 -4,5 -2,0 -4,-3 -4,-5 0,-3 2,-5 4,-5z"/>
   <path class="fil0 str0" d="M162 587c2,0 4,2 4,5 0,2 -2,4 -4,4 -2,0 -3,-2 -3,-4 0,-3 1,-5 3,-5z"/>
   <path class="fil0 str0" d="M158 584c2,0 4,2 4,4 0,3 -2,5 -4,5 -2,0 -4,-2 -4,-5 0,-2 2,-4 4,-4z"/>
   <path class="fil0 str0" d="M154 580c2,0 3,2 3,5 0,3 -1,5 -3,5 -2,0 -4,-2 -4,-5 0,-3 2,-5 4,-5z"/>
   <path class="fil0 str0" d="M149 577c3,0 4,2 4,5 0,2 -1,5 -4,5 -2,0 -3,-3 -3,-5 0,-3 1,-5 3,-5z"/>
   <path class="fil0 str0" d="M145 573c2,0 4,3 4,5 0,3 -2,5 -4,5 -2,0 -3,-2 -3,-5 0,-2 1,-5 3,-5z"/>
   <path class="fil0 str0" d="M141 570c2,0 4,2 4,5 0,2 -2,5 -4,5 -2,0 -3,-3 -3,-5 0,-3 1,-5 3,-5z"/>
   <path class="fil0 str0" d="M137 566c2,0 4,2 4,5 0,3 -2,5 -4,5 -2,0 -3,-2 -3,-5 0,-3 1,-5 3,-5z"/>
   <path class="fil0 str0" d="M134 562c2,0 3,3 3,5 0,3 -1,5 -3,5 -3,0 -4,-2 -4,-5 0,-2 1,-5 4,-5z"/>
   <path class="fil0 str0" d="M130 558c2,0 4,3 4,5 0,3 -2,5 -4,5 -2,0 -4,-2 -4,-5 0,-2 2,-5 4,-5z"/>
   <path class="fil0 str0" d="M126 554c2,0 4,3 4,5 0,3 -2,5 -4,5 -2,0 -4,-2 -4,-5 0,-2 2,-5 4,-5z"/>
   <path class="fil0 str0" d="M123 550c2,0 3,3 3,5 0,3 -1,5 -3,5 -2,0 -4,-2 -4,-5 0,-2 2,-5 4,-5z"/>
   <path class="fil0 str0" d="M119 546c2,0 4,2 4,5 0,3 -2,5 -4,5 -2,0 -4,-2 -4,-5 0,-3 2,-5 4,-5z"/>
   <path class="fil0 str0" d="M116 542c2,0 4,2 4,5 0,3 -2,5 -4,5 -2,0 -4,-2 -4,-5 0,-3 2,-5 4,-5z"/>
   <path class="fil0 str0" d="M113 538c2,0 4,2 4,4 0,3 -2,5 -4,5 -2,0 -4,-2 -4,-5 0,-2 2,-4 4,-4z"/>
   <path class="fil0 str0" d="M110 533c2,0 4,2 4,5 0,3 -2,5 -4,5 -2,0 -4,-2 -4,-5 0,-3 2,-5 4,-5z"/>
   <path class="fil0 str0" d="M107 529c2,0 4,2 4,4 0,3 -2,5 -4,5 -2,0 -4,-2 -4,-5 0,-2 2,-4 4,-4z"/>
   <path class="fil0 str0" d="M104 524c2,0 4,2 4,5 0,2 -2,5 -4,5 -2,0 -4,-3 -4,-5 0,-3 2,-5 4,-5z"/>
   <path class="fil0 str0" d="M102 519c2,0 4,2 4,5 0,3 -2,5 -4,5 -2,0 -4,-2 -4,-5 0,-3 2,-5 4,-5z"/>
   <path class="fil0 str0" d="M100 514c2,0 3,2 3,5 0,3 -1,5 -3,5 -3,0 -4,-2 -4,-5 0,-3 1,-5 4,-5z"/>
   <path class="fil0 str0" d="M98 509c2,0 4,2 4,5 0,3 -2,5 -4,5 -2,0 -4,-2 -4,-5 0,-3 2,-5 4,-5z"/>
   <path class="fil0 str0" d="M96 504c2,0 4,2 4,5 0,3 -2,5 -4,5 -2,0 -4,-2 -4,-5 0,-3 2,-5 4,-5z"/>
   <path class="fil0 str0" d="M95 499c2,0 4,2 4,5 0,2 -2,4 -4,4 -2,0 -4,-2 -4,-4 0,-3 2,-5 4,-5z"/>
   <path class="fil0 str0" d="M95 493c2,0 3,2 3,5 0,3 -1,5 -3,5 -2,0 -4,-2 -4,-5 0,-3 2,-5 4,-5z"/>
   <path class="fil0 str0" d="M95 488c2,0 4,2 4,5 0,2 -2,5 -4,5 -2,0 -4,-3 -4,-5 0,-3 2,-5 4,-5z"/>
   <path class="fil0 str0" d="M96 483c2,0 4,2 4,4 0,3 -2,5 -4,5 -2,0 -4,-2 -4,-5 0,-2 2,-4 4,-4z"/>
   <path class="fil0 str0" d="M97 477c2,0 4,3 4,5 0,3 -2,5 -4,5 -2,0 -3,-2 -3,-5 0,-2 1,-5 3,-5z"/>
   <path class="fil0 str0" d="M100 473c2,0 4,2 4,5 0,2 -2,4 -4,4 -2,0 -4,-2 -4,-4 0,-3 2,-5 4,-5z"/>
   <path class="fil0 str0" d="M103 468c2,0 4,3 4,5 0,3 -2,5 -4,5 -2,0 -4,-2 -4,-5 0,-2 2,-5 4,-5z"/>
   <path class="fil0 str0" d="M107 465c2,0 4,2 4,4 0,3 -2,5 -4,5 -2,0 -4,-2 -4,-5 0,-2 2,-4 4,-4z"/>
   <path class="fil1" d="M320 45c73,0 139,30 187,78 48,47 78,114 78,187 0,73 -30,139 -78,187 -48,48 -114,77 -187,77 -73,0 -139,-29 -187,-77 -48,-48 -77,-114 -77,-187 0,-73 29,-140 77,-187 48,-48 114,-78 187,-78zm182 83c-46,-47 -111,-76 -182,-76 -71,0 -135,29 -182,76 -47,46 -75,111 -75,182 0,71 28,135 75,182 47,46 111,75 182,75 71,0 136,-29 182,-75 47,-47 76,-111 76,-182 0,-71 -29,-136 -76,-182zm-182 11c47,0 90,19 121,50 31,31 50,73 50,121 0,47 -19,90 -50,121 -31,31 -74,50 -121,50 -47,0 -90,-19 -121,-50 -31,-31 -50,-74 -50,-121 0,-48 19,-90 50,-121 31,-31 74,-50 121,-50zm116 55c-30,-30 -71,-48 -116,-48 -45,0 -86,18 -116,48 -30,29 -48,70 -48,116 0,45 18,86 48,116 30,29 71,48 116,48 45,0 86,-19 116,-48 30,-30 48,-71 48,-116 0,-46 -18,-87 -48,-116z"/>
   <path class="fil1" d="M110 283l0 -4c1,1 3,0 4,0 1,-1 2,-1 2,-2 1,-2 2,-3 2,-5 0,-1 0,-2 0,-3 0,-2 -1,-2 -1,-3 -1,-1 -2,-1 -2,-1 -1,-1 -2,0 -3,0 -1,0 -1,1 -2,2 0,1 -1,2 -2,5 -1,2 -2,4 -3,5 -1,1 -2,2 -3,2 -1,1 -2,1 -4,1 -1,-1 -2,-1 -3,-2 -2,-1 -2,-3 -3,-4 0,-2 0,-4 0,-6 1,-2 1,-3 2,-5 1,-1 3,-2 4,-3 1,-1 3,-1 5,0l-1 3c-2,0 -3,0 -4,1 -1,1 -2,3 -2,5 -1,2 -1,4 0,5 1,1 2,2 3,2 1,0 2,0 2,-1 1,0 2,-2 3,-5 2,-3 3,-5 3,-6 1,-1 3,-2 4,-3 1,0 2,0 4,0 1,0 3,1 4,2 1,1 2,3 2,4 1,2 1,4 0,6 0,2 -1,4 -2,6 -1,2 -2,3 -4,3 -2,1 -3,1 -5,1zm11 -40l2 -4c2,1 3,3 4,5 0,1 0,4 0,6 -1,3 -2,5 -5,6 -2,1 -5,1 -8,1 -3,-1 -6,-3 -7,-5 -1,-2 -2,-5 -1,-7 1,-3 2,-5 4,-6 3,-1 5,-2 9,-1 0,0 0,0 1,1l-4 14c2,1 4,1 5,0 2,-1 3,-2 3,-4 0,-1 0,-2 0,-3 -1,-1 -1,-2 -3,-3zm-8 9l3 -11c-2,0 -3,0 -4,1 -2,0 -3,2 -3,3 -1,2 0,3 0,5 1,1 2,2 4,2zm18 -15l-19 -8 1 -2 3 1c-1,-2 -2,-3 -2,-3 0,-1 0,-2 0,-3 1,-1 1,-2 3,-3l2 3c-1,0 -1,1 -1,2 -1,0 -1,1 -1,2 1,1 1,1 2,2 1,1 2,1 3,2l10 4 -1 3zm5 -28l2 -3c2,2 3,4 3,5 1,2 0,4 -1,6 -1,3 -3,5 -6,6 -2,0 -5,0 -8,-2 -3,-1 -5,-3 -6,-6 -1,-2 0,-5 1,-7 1,-2 3,-4 5,-5 3,0 6,0 9,1 0,1 0,1 0,1l-6 14c2,0 3,1 5,0 2,0 3,-1 4,-3 0,-1 0,-2 0,-3 0,-1 -1,-2 -2,-4zm-10 8l5 -10c-1,-1 -3,-1 -4,-1 -2,1 -3,2 -4,3 0,2 0,3 0,5 1,1 2,2 3,3zm20 -12l-17 -11 2 -2 2 1c-1,-2 -1,-5 1,-7 1,-1 1,-2 2,-3 1,0 2,-1 3,-1 1,0 2,1 3,1 0,0 1,1 3,2l10 6 -2 3 -10 -6c-1,-1 -2,-2 -3,-2 -1,0 -1,0 -2,1 -1,0 -2,0 -2,1 -1,1 -1,3 -1,4 0,2 1,3 4,4l9 7 -2 2zm-7 -33l-3 -2 2 -3 3 3 -2 2zm20 15l-17 -12 2 -3 17 13 -2 2zm8 -14l2 1c0,1 -1,2 -1,2 -1,1 -2,2 -3,2 0,1 -1,1 -2,0 -1,0 -2,-1 -3,-2l-9 -8 -2 2 -2 -2 2 -2 -4 -3 1 -4 5 5 2 -3 2 2 -2 3 9 7c1,1 2,2 2,2 0,0 0,0 1,0 0,-1 0,-1 1,-1 0,0 0,-1 1,-1zm10 5l-3 -2c1,-1 1,-1 2,-1 0,-1 1,-2 1,-2 0,-1 0,-1 0,-2 0,0 -1,-1 -1,-2 0,0 -1,-1 -1,-1l-20 -9 3 -2 11 5c2,0 3,1 5,2 -1,-1 -2,-3 -3,-4l-5 -12 2 -2 10 20c1,2 1,4 2,4 0,2 0,3 0,4 0,1 -1,2 -1,2 -1,1 -1,1 -2,2zm308 -2l2 3c-3,2 -5,2 -8,2 -3,-1 -5,-2 -7,-4 -2,-3 -3,-5 -3,-7 -1,-2 0,-5 1,-7 1,-2 3,-4 5,-6 2,-2 4,-3 7,-4 2,-1 4,0 7,0 2,1 4,3 5,4 2,3 3,5 3,7 1,3 0,5 -1,7l-4 -2c2,-2 2,-4 2,-5 0,-2 -1,-3 -2,-5 -1,-1 -3,-2 -5,-3 -2,0 -3,0 -5,1 -2,1 -3,2 -5,3 -2,1 -3,3 -4,5 -1,1 -1,3 -1,5 1,1 1,3 3,4 1,2 3,3 4,3 2,0 4,0 6,-1zm5 6c3,-3 6,-3 9,-3 2,1 4,2 6,4 1,2 2,5 1,7 0,3 -2,5 -4,7 -2,1 -4,2 -6,3 -2,0 -3,0 -5,-1 -1,-1 -3,-2 -4,-3 -1,-3 -2,-5 -2,-8 1,-2 2,-4 5,-6zm2 2c-2,2 -3,4 -3,5 -1,2 0,3 1,5 1,1 2,2 4,2 1,0 3,0 6,-2 2,-1 3,-3 3,-5 1,-1 0,-3 -1,-4 -1,-2 -2,-2 -4,-3 -2,0 -4,1 -6,2zm9 35l3 -2c-3,0 -5,-1 -6,-4 -1,-1 -1,-2 -1,-3 0,-1 0,-2 1,-3 0,-1 1,-2 1,-2 1,-1 2,-1 3,-2l12 -6 1 4 -10 5c-2,0 -3,1 -3,1 -1,1 -1,2 -1,3 -1,1 0,1 0,2 0,1 1,2 2,3 1,0 2,0 3,0 1,0 2,0 4,-1l9 -5 2 3 -18 9 -2 -2zm4 7l19 -8 1 3 -3 1c2,0 3,0 4,1 0,0 1,1 1,2 1,1 1,2 1,3l-4 1c0,-1 0,-2 0,-3 -1,-1 -1,-1 -2,-2 0,0 -1,0 -2,0 -1,0 -3,1 -4,1l-10 5 -1 -4zm12 24c-2,0 -3,-1 -4,-2 0,-1 -1,-2 -1,-4 -1,-2 -1,-4 -1,-5 1,-2 2,-3 4,-3 1,-1 2,-1 3,-1 1,1 1,1 2,2 1,0 1,1 2,2 0,0 1,1 1,2 2,3 3,5 4,6 0,0 0,0 0,-1 2,0 3,-1 3,-1 0,-2 0,-3 0,-5 -1,-1 -1,-2 -2,-3 -1,0 -2,0 -4,0l0 -4c1,0 2,0 4,1 1,0 2,1 2,2 1,1 2,2 3,4 0,2 1,3 0,4 0,1 0,2 0,3 -1,1 -1,1 -2,2 -1,0 -2,1 -3,1l-4 2c-3,1 -5,1 -6,2 -1,0 -2,1 -2,1l-1 -3c0,-1 1,-1 2,-2zm7 -2c-1,-1 -2,-3 -3,-5 -1,-2 -1,-2 -2,-3 0,0 -1,-1 -1,-1 -1,0 -1,0 -2,0 -1,0 -1,1 -2,2 0,1 0,2 0,3 1,1 1,2 2,3 1,1 2,2 3,2 1,0 2,0 4,-1l1 0zm-9 11l0 4c-1,0 -2,1 -2,1 0,1 0,3 0,4 0,2 1,3 2,3 1,1 2,2 3,2 0,0 2,-1 4,-1 -2,-1 -3,-3 -4,-5 0,-3 0,-5 2,-7 1,-2 4,-3 6,-4 2,-1 4,-1 6,0 2,0 3,1 4,2 1,1 2,2 3,4 0,3 0,5 -2,7l3 -1 0 3 -17 4c-3,1 -5,1 -7,1 -1,-1 -3,-1 -4,-2 -1,-2 -1,-3 -2,-5 0,-3 0,-5 0,-6 1,-2 3,-3 5,-4zm12 0c-2,1 -4,2 -5,3 -1,2 -1,3 -1,5 0,1 1,2 3,3 1,1 3,1 6,0 2,0 4,-1 5,-3 1,-1 1,-2 1,-4 0,-1 -1,-3 -3,-3 -1,-1 -3,-1 -6,-1zm2 36l0 3c-2,0 -4,-1 -5,-3 -2,-1 -2,-3 -3,-5 0,-3 1,-6 3,-8 1,-1 4,-3 7,-3 4,0 6,1 8,2 2,2 3,4 4,7 0,3 -1,5 -3,7 -1,2 -4,3 -7,3 0,0 -1,0 -1,0l-1 -15c-3,0 -4,1 -5,2 -1,1 -2,3 -2,4 0,2 1,3 1,4 1,1 2,1 4,2zm5 -12l0 11c2,0 3,-1 4,-1 1,-2 2,-3 2,-5 0,-1 -1,-3 -2,-4 -1,-1 -3,-1 -4,-1z"/>
   <path class="fil1" d="M260 531l-1 -30 4 1 0 19c0,2 0,4 0,6 1,-3 2,-4 2,-5l10 -17 4 1 1 15c0,4 0,7 0,10 1,-2 2,-3 3,-6l8 -16 4 0 -14 26 -4 0 -1 -23c0,-2 0,-3 0,-3 0,1 -1,2 -1,3l-11 20 -4 -1zm35 -19l0 -4 4 1 -1 4 -3 -1zm-3 25l2 -21 4 1 -3 20 -3 0zm7 -6l4 0c0,1 0,2 1,3 1,1 2,1 4,2 1,0 3,0 3,-1 1,-1 2,-1 2,-2 0,-1 0,-2 -1,-2 -1,-1 -2,-1 -4,-2 -2,0 -4,-1 -5,-2 -1,0 -1,-1 -2,-2 0,-1 0,-2 0,-3 0,-1 0,-1 0,-2 1,-1 2,-1 2,-2 1,0 2,-1 3,-1 1,0 2,0 3,0 1,0 3,1 4,1 1,1 2,1 2,2 1,1 1,2 1,3l-3 1c0,-1 -1,-2 -1,-3 -1,-1 -2,-1 -3,-1 -2,0 -3,0 -4,0 -1,1 -1,2 -1,2 0,1 0,1 0,1 1,1 1,1 2,1 0,1 1,1 3,2 2,0 4,1 5,2 1,0 1,1 2,2 0,0 0,1 0,3 0,1 0,2 -1,3 -1,1 -2,1 -3,2 -1,0 -3,1 -4,0 -3,0 -5,0 -6,-2 -2,-1 -2,-3 -3,-5zm34 7l0 -3c-1,2 -3,4 -5,4 -2,0 -4,-1 -5,-2 -1,-1 -2,-2 -3,-3 -1,-2 -1,-4 -1,-6 0,-2 0,-4 0,-6 1,-1 2,-2 3,-3 2,-1 3,-2 5,-2 1,0 2,0 3,1 1,0 2,1 3,2l0 -10 3 0 1 28 -4 0zm-11 -10c0,3 1,5 2,6 1,1 2,2 4,2 1,0 3,-1 4,-2 1,-1 1,-3 1,-6 0,-3 0,-5 -2,-6 -1,-1 -2,-2 -4,-2 -1,0 -2,1 -3,2 -1,1 -2,3 -2,6zm17 -1c0,-3 1,-6 2,-8 2,-2 4,-3 7,-3 2,-1 5,0 7,1 2,2 3,4 3,8 1,2 1,4 0,6 -1,2 -2,3 -3,4 -1,1 -3,2 -5,2 -3,0 -5,0 -7,-2 -2,-2 -3,-4 -4,-8zm4 0c0,3 1,4 2,6 2,1 3,1 5,1 2,0 3,-1 4,-3 1,-1 1,-3 1,-6 0,-2 -1,-4 -3,-5 -1,-1 -2,-2 -4,-2 -2,1 -3,1 -4,3 -1,1 -1,3 -1,6zm21 7l-5 -20 3 0 1 3c0,-2 1,-3 2,-3 1,-1 2,-2 3,-2 2,0 3,0 4,0 1,0 2,1 3,2 1,-3 2,-4 5,-5 2,0 4,0 5,1 1,1 2,2 3,4l3 14 -3 1 -3 -13c-1,-1 -1,-2 -1,-3 -1,0 -1,0 -2,-1 -1,0 -1,0 -2,0 -1,1 -3,1 -3,2 -1,2 -1,3 -1,5l3 12 -3 1 -3 -13c-1,-2 -1,-3 -2,-4 -1,0 -2,0 -3,0 -1,0 -2,1 -2,1 -1,1 -1,2 -2,3 0,1 0,2 1,4l2 11 -3 0z"/>
   <path class="fil1" d="M216 308l-15 0 0 5 9 0 0 14c-1,1 -4,1 -8,1 -11,0 -18,-7 -18,-19 0,-11 7,-18 19,-18 4,0 8,1 10,2l1 -5c-2,-1 -6,-2 -11,-2 -16,0 -25,10 -25,24 0,7 2,13 6,17 5,4 11,6 18,6 6,0 11,-1 14,-2l0 -23zm33 25c0,-3 0,-5 0,-8l0 -13c0,-6 -3,-13 -13,-13 -4,0 -8,1 -11,3l2 4c2,-2 5,-3 8,-3 7,0 8,5 8,8l0 0c-13,0 -20,5 -20,13 0,5 3,9 10,9 5,0 8,-2 10,-4l0 0 1 4 5 0zm-6 -12c0,1 0,2 0,2 -1,3 -4,6 -8,6 -4,0 -6,-2 -6,-6 0,-6 7,-7 14,-7l0 5zm16 12l6 0 0 -20c0,-1 0,-2 0,-3 1,-3 4,-6 7,-6 5,0 7,3 7,9l0 20 6 0 0 -21c0,-1 1,-2 1,-3 1,-3 4,-5 7,-5 5,0 7,3 7,10l0 19 6 0 0 -20c0,-12 -6,-14 -11,-14 -3,0 -5,0 -7,2 -2,1 -3,2 -4,4l0 0c-1,-4 -5,-6 -9,-6 -6,0 -9,3 -11,6l0 0 0 -6 -6 0c1,3 1,6 1,9l0 25zm81 -15l5 15 7 0 -16 -47 -7 0 -16 47 6 0 5 -15 16 0zm-15 -5l5 -13c0,-3 1,-6 2,-8l0 0c1,2 1,5 2,8l5 13 -14 0zm33 20l6 0 0 -20c0,-1 0,-2 1,-3 1,-4 4,-6 8,-6 5,0 7,4 7,9l0 20 6 0 0 -20c0,-12 -7,-14 -11,-14 -6,0 -10,3 -11,6l0 0 -1 -6 -5 0c0,3 0,6 0,9l0 25zm52 -34c-9,0 -16,6 -16,17 0,11 7,17 16,17 8,0 17,-5 17,-17 0,-10 -7,-17 -17,-17zm0 4c7,0 10,7 10,13 0,7 -4,13 -10,13 -6,0 -10,-6 -10,-13 0,-6 3,-13 10,-13zm24 30l6 0 0 -20c0,-1 0,-2 1,-3 1,-4 4,-6 8,-6 6,0 8,4 8,9l0 20 6 0 0 -20c0,-12 -8,-14 -12,-14 -6,0 -10,3 -11,6l0 0 -1 -6 -5 0c0,3 0,6 0,9l0 25z"/>
   <path class="fil0 str0" d="M97 450c2,0 4,3 4,5 0,3 -2,5 -4,5 -2,0 -4,-2 -4,-5 0,-2 2,-5 4,-5z"/>
   <path class="fil0 str0" d="M93 454c2,0 3,2 3,4 0,3 -1,5 -3,5 -2,0 -4,-2 -4,-5 0,-2 2,-4 4,-4z"/>
   <path class="fil0 str0" d="M88 456c2,0 3,2 3,5 0,2 -1,5 -3,5 -2,0 -4,-3 -4,-5 0,-3 2,-5 4,-5z"/>
   <path class="fil0 str0" d="M82 457c2,0 4,2 4,5 0,3 -2,5 -4,5 -2,0 -4,-2 -4,-5 0,-3 2,-5 4,-5z"/>
   <path class="fil0 str0" d="M77 458c2,0 4,2 4,4 0,3 -2,5 -4,5 -2,0 -4,-2 -4,-5 0,-2 2,-4 4,-4z"/>
   <path class="fil0 str0" d="M71 457c2,0 4,2 4,4 0,3 -2,5 -4,5 -2,0 -3,-2 -3,-5 0,-2 1,-4 3,-4z"/>
   <path class="fil0 str0" d="M66 454c2,0 4,3 4,5 0,3 -2,5 -4,5 -2,0 -4,-2 -4,-5 0,-2 2,-5 4,-5z"/>
   <path class="fil0 str0" d="M61 452c3,0 4,2 4,4 0,3 -1,5 -4,5 -2,0 -3,-2 -3,-5 0,-2 1,-4 3,-4z"/>
   <path class="fil0 str0" d="M57 448c2,0 4,3 4,5 0,3 -2,5 -4,5 -2,0 -4,-2 -4,-5 0,-2 2,-5 4,-5z"/>
   <path class="fil0 str0" d="M53 445c2,0 3,2 3,5 0,2 -1,5 -3,5 -2,0 -4,-3 -4,-5 0,-3 2,-5 4,-5z"/>
   <path class="fil0 str0" d="M49 441c2,0 3,2 3,5 0,3 -1,5 -3,5 -3,0 -4,-2 -4,-5 0,-3 1,-5 4,-5z"/>
   <path class="fil0 str0" d="M45 437c2,0 3,2 3,5 0,3 -1,5 -3,5 -2,0 -4,-2 -4,-5 0,-3 2,-5 4,-5z"/>
   <path class="fil0 str0" d="M41 433c2,0 4,2 4,5 0,3 -2,5 -4,5 -2,0 -4,-2 -4,-5 0,-3 2,-5 4,-5z"/>
   <path class="fil0 str0" d="M37 429c2,0 4,2 4,5 0,3 -2,5 -4,5 -2,0 -4,-2 -4,-5 0,-3 2,-5 4,-5z"/>
   <path class="fil0 str0" d="M34 425c2,0 4,2 4,5 0,2 -2,5 -4,5 -2,0 -4,-3 -4,-5 0,-3 2,-5 4,-5z"/>
   <path class="fil0 str0" d="M30 420c3,0 4,3 4,5 0,3 -1,5 -4,5 -2,0 -3,-2 -3,-5 0,-2 1,-5 3,-5z"/>
   <path class="fil0 str0" d="M27 416c2,0 4,2 4,5 0,2 -2,5 -4,5 -2,0 -3,-3 -3,-5 0,-3 1,-5 3,-5z"/>
   <path class="fil0 str0" d="M24 411c3,0 4,2 4,5 0,3 -1,5 -4,5 -2,0 -3,-2 -3,-5 0,-3 1,-5 3,-5z"/>
   <path class="fil0 str0" d="M22 406c2,0 3,2 3,5 0,3 -1,5 -3,5 -2,0 -4,-2 -4,-5 0,-3 2,-5 4,-5z"/>
   <path class="fil0 str0" d="M19 401c2,0 4,3 4,5 0,3 -2,5 -4,5 -2,0 -4,-2 -4,-5 0,-2 2,-5 4,-5z"/>
   <path class="fil0 str0" d="M17 396c2,0 4,2 4,5 0,3 -2,5 -4,5 -2,0 -4,-2 -4,-5 0,-3 2,-5 4,-5z"/>
   <path class="fil0 str0" d="M15 391c2,0 4,2 4,5 0,3 -2,5 -4,5 -2,0 -4,-2 -4,-5 0,-3 2,-5 4,-5z"/>
   <path class="fil0 str0" d="M13 386c3,0 4,2 4,5 0,2 -1,5 -4,5 -2,0 -3,-3 -3,-5 0,-3 1,-5 3,-5z"/>
   <path class="fil0 str0" d="M12 380c2,0 4,3 4,5 0,3 -2,5 -4,5 -2,0 -4,-2 -4,-5 0,-2 2,-5 4,-5z"/>
   <path class="fil0 str0" d="M11 375c2,0 4,2 4,5 0,3 -2,5 -4,5 -2,0 -3,-2 -3,-5 0,-3 1,-5 3,-5z"/>
   <path class="fil0 str0" d="M10 370c3,0 4,2 4,4 0,3 -1,5 -4,5 -2,0 -3,-2 -3,-5 0,-2 1,-4 3,-4z"/>
   <path class="fil0 str0" d="M10 364c2,0 3,2 3,5 0,3 -1,5 -3,5 -2,0 -4,-2 -4,-5 0,-3 2,-5 4,-5z"/>
   <path class="fil0 str0" d="M9 359c2,0 4,2 4,4 0,3 -2,5 -4,5 -2,0 -4,-2 -4,-5 0,-2 2,-4 4,-4z"/>
   <path class="fil0 str0" d="M8 353c2,0 4,2 4,5 0,3 -2,5 -4,5 -2,0 -4,-2 -4,-5 0,-3 2,-5 4,-5z"/>
   <path class="fil0 str0" d="M7 348c3,0 4,2 4,4 0,3 -1,5 -4,5 -2,0 -3,-2 -3,-5 0,-2 1,-4 3,-4z"/>
   <path class="fil0 str0" d="M7 342c2,0 4,2 4,5 0,3 -2,5 -4,5 -2,0 -4,-2 -4,-5 0,-3 2,-5 4,-5z"/>
   <path class="fil0 str0" d="M6 337c2,0 4,2 4,5 0,2 -2,4 -4,4 -2,0 -4,-2 -4,-4 0,-3 2,-5 4,-5z"/>
   <path class="fil0 str0" d="M6 331c2,0 4,2 4,5 0,3 -2,5 -4,5 -2,0 -4,-2 -4,-5 0,-3 2,-5 4,-5z"/>
   <path class="fil0 str0" d="M5 326c3,0 4,2 4,4 0,3 -1,5 -4,5 -2,0 -3,-2 -3,-5 0,-2 1,-4 3,-4z"/>
   <path class="fil0 str0" d="M5 320c2,0 4,2 4,5 0,3 -2,5 -4,5 -2,0 -4,-2 -4,-5 0,-3 2,-5 4,-5z"/>
   <path class="fil0 str0" d="M5 315c2,0 4,2 4,4 0,3 -2,5 -4,5 -2,0 -4,-2 -4,-5 0,-2 2,-4 4,-4z"/>
   <path class="fil0 str0" d="M5 309c2,0 4,2 4,5 0,3 -2,5 -4,5 -2,0 -4,-2 -4,-5 0,-3 2,-5 4,-5z"/>
   <path class="fil0 str0" d="M5 304c2,0 4,2 4,4 0,3 -2,5 -4,5 -2,0 -4,-2 -4,-5 0,-2 2,-4 4,-4z"/>
   <path class="fil0 str0" d="M5 298c2,0 4,2 4,5 0,3 -2,5 -4,5 -2,0 -3,-2 -3,-5 0,-3 1,-5 3,-5z"/>
   <path class="fil0 str0" d="M6 292c2,0 4,3 4,5 0,3 -2,5 -4,5 -2,0 -4,-2 -4,-5 0,-2 2,-5 4,-5z"/>
   <path class="fil0 str0" d="M6 287c2,0 4,2 4,5 0,3 -2,5 -4,5 -2,0 -3,-2 -3,-5 0,-3 1,-5 3,-5z"/>
   <path class="fil0 str0" d="M7 281c2,0 4,3 4,5 0,3 -2,5 -4,5 -2,0 -4,-2 -4,-5 0,-2 2,-5 4,-5z"/>
   <path class="fil0 str0" d="M8 276c2,0 4,2 4,5 0,3 -2,5 -4,5 -2,0 -4,-2 -4,-5 0,-3 2,-5 4,-5z"/>
   <path class="fil0 str0" d="M9 271c2,0 4,2 4,5 0,2 -2,4 -4,4 -2,0 -3,-2 -3,-4 0,-3 1,-5 3,-5z"/>
   <path class="fil0 str0" d="M11 265c2,0 4,3 4,5 0,3 -2,5 -4,5 -2,0 -4,-2 -4,-5 0,-2 2,-5 4,-5z"/>
   <path class="fil0 str0" d="M12 260c3,0 4,2 4,5 0,3 -1,5 -4,5 -2,0 -3,-2 -3,-5 0,-3 1,-5 3,-5z"/>
   <path class="fil0 str0" d="M14 255c2,0 4,2 4,5 0,2 -2,5 -4,5 -2,0 -3,-3 -3,-5 0,-3 1,-5 3,-5z"/>
   <path class="fil0 str0" d="M16 250c3,0 4,2 4,5 0,2 -1,4 -4,4 -2,0 -3,-2 -3,-4 0,-3 1,-5 3,-5z"/>
   <path class="fil0 str0" d="M18 245c2,0 4,2 4,4 0,3 -2,5 -4,5 -2,0 -3,-2 -3,-5 0,-2 1,-4 3,-4z"/>
   <path class="fil0 str0" d="M20 239c2,0 4,3 4,5 0,3 -2,5 -4,5 -2,0 -3,-2 -3,-5 0,-2 1,-5 3,-5z"/>
   <path class="fil0 str0" d="M22 234c2,0 4,2 4,5 0,3 -2,5 -4,5 -2,0 -4,-2 -4,-5 0,-3 2,-5 4,-5z"/>
   <path class="fil0 str0" d="M24 229c2,0 4,2 4,5 0,3 -2,5 -4,5 -2,0 -4,-2 -4,-5 0,-3 2,-5 4,-5z"/>
   <path class="fil0 str0" d="M26 224c2,0 4,2 4,5 0,2 -2,4 -4,4 -2,0 -4,-2 -4,-4 0,-3 2,-5 4,-5z"/>
   <path class="fil0 str0" d="M27 218c3,0 4,3 4,5 0,3 -1,5 -4,5 -2,0 -3,-2 -3,-5 0,-2 1,-5 3,-5z"/>
   <path class="fil0 str0" d="M29 213c2,0 4,2 4,5 0,3 -2,5 -4,5 -2,0 -4,-2 -4,-5 0,-3 2,-5 4,-5z"/>
   <path class="fil0 str0" d="M31 208c2,0 4,2 4,5 0,2 -2,5 -4,5 -2,0 -4,-3 -4,-5 0,-3 2,-5 4,-5z"/>
   <path class="fil0 str0" d="M32 203c2,0 4,2 4,4 0,3 -2,5 -4,5 -2,0 -3,-2 -3,-5 0,-2 1,-4 3,-4z"/>
   <path class="fil0 str0" d="M34 197c2,0 4,2 4,5 0,3 -2,5 -4,5 -2,0 -4,-2 -4,-5 0,-3 2,-5 4,-5z"/>
   <path class="fil0 str0" d="M35 192c3,0 4,2 4,5 0,3 -1,5 -4,5 -2,0 -3,-2 -3,-5 0,-3 1,-5 3,-5z"/>
   <path class="fil0 str0" d="M37 187c2,0 4,2 4,5 0,2 -2,4 -4,4 -2,0 -4,-2 -4,-4 0,-3 2,-5 4,-5z"/>
   <path class="fil0 str0" d="M38 181c3,0 4,3 4,5 0,3 -1,5 -4,5 -2,0 -3,-2 -3,-5 0,-2 1,-5 3,-5z"/>
   <path class="fil0 str0" d="M40 176c2,0 4,2 4,5 0,3 -2,5 -4,5 -2,0 -4,-2 -4,-5 0,-3 2,-5 4,-5z"/>
   <path class="fil0 str0" d="M41 171c2,0 4,2 4,5 0,2 -2,4 -4,4 -2,0 -3,-2 -3,-4 0,-3 1,-5 3,-5z"/>
   <path class="fil0 str0" d="M43 165c2,0 4,3 4,5 0,3 -2,5 -4,5 -2,0 -4,-2 -4,-5 0,-2 2,-5 4,-5z"/>
   <path class="fil0 str0" d="M44 160c2,0 4,2 4,5 0,3 -2,5 -4,5 -2,0 -4,-2 -4,-5 0,-3 2,-5 4,-5z"/>
   <path class="fil0 str0" d="M46 155c2,0 3,2 3,5 0,2 -1,4 -3,4 -3,0 -4,-2 -4,-4 0,-3 1,-5 4,-5z"/>
   <path class="fil0 str0" d="M47 149c2,0 4,2 4,5 0,3 -2,5 -4,5 -2,0 -4,-2 -4,-5 0,-3 2,-5 4,-5z"/>
   <path class="fil0 str0" d="M48 144c2,0 4,2 4,5 0,2 -2,5 -4,5 -2,0 -3,-3 -3,-5 0,-3 1,-5 3,-5z"/>
   <path class="fil0 str0" d="M50 139c2,0 4,2 4,4 0,3 -2,5 -4,5 -2,0 -4,-2 -4,-5 0,-2 2,-4 4,-4z"/>
   <path class="fil0 str0" d="M51 133c2,0 4,2 4,5 0,3 -2,5 -4,5 -2,0 -4,-2 -4,-5 0,-3 2,-5 4,-5z"/>
   <path class="fil0 str0" d="M53 128c2,0 4,2 4,5 0,3 -2,5 -4,5 -2,0 -4,-2 -4,-5 0,-3 2,-5 4,-5z"/>
   <path class="fil0 str0" d="M55 123c2,0 4,2 4,5 0,3 -2,5 -4,5 -2,0 -4,-2 -4,-5 0,-3 2,-5 4,-5z"/>
   <path class="fil0 str0" d="M57 118c3,0 4,2 4,5 0,2 -1,5 -4,5 -2,0 -3,-3 -3,-5 0,-3 1,-5 3,-5z"/>
   <path class="fil0 str0" d="M60 113c2,0 4,2 4,5 0,3 -2,5 -4,5 -2,0 -4,-2 -4,-5 0,-3 2,-5 4,-5z"/>
   <path class="fil0 str0" d="M63 108c2,0 3,2 3,5 0,3 -1,5 -3,5 -2,0 -4,-2 -4,-5 0,-3 2,-5 4,-5z"/>
   <path class="fil0 str0" d="M65 103c3,0 4,3 4,5 0,3 -1,5 -4,5 -2,0 -3,-2 -3,-5 0,-2 1,-5 3,-5z"/>
   <path class="fil0 str0" d="M68 99c3,0 4,2 4,5 0,2 -1,4 -4,4 -2,0 -3,-2 -3,-4 0,-3 1,-5 3,-5z"/>
   <path class="fil0 str0" d="M72 94c2,0 3,2 3,5 0,3 -1,5 -3,5 -3,0 -4,-2 -4,-5 0,-3 1,-5 4,-5z"/>
   <path class="fil0 str0" d="M75 90c2,0 4,2 4,5 0,2 -2,4 -4,4 -2,0 -4,-2 -4,-4 0,-3 2,-5 4,-5z"/>
   <path class="fil0 str0" d="M78 85c2,0 4,2 4,5 0,3 -2,5 -4,5 -2,0 -4,-2 -4,-5 0,-3 2,-5 4,-5z"/>
   <path class="fil0 str0" d="M82 81c2,0 3,2 3,5 0,3 -1,5 -3,5 -2,0 -4,-2 -4,-5 0,-3 2,-5 4,-5z"/>
   <path class="fil0 str0" d="M85 77c2,0 4,2 4,5 0,2 -2,5 -4,5 -2,0 -4,-3 -4,-5 0,-3 2,-5 4,-5z"/>
   <path class="fil0 str0" d="M89 73c2,0 4,2 4,5 0,2 -2,4 -4,4 -2,0 -4,-2 -4,-4 0,-3 2,-5 4,-5z"/>
   <path class="fil0 str0" d="M93 69c2,0 4,2 4,5 0,2 -2,4 -4,4 -2,0 -4,-2 -4,-4 0,-3 2,-5 4,-5z"/>
   <path class="fil0 str0" d="M97 65c2,0 4,2 4,5 0,2 -2,5 -4,5 -2,0 -4,-3 -4,-5 0,-3 2,-5 4,-5z"/>
   <path class="fil0 str0" d="M101 61c2,0 4,2 4,5 0,3 -2,5 -4,5 -2,0 -4,-2 -4,-5 0,-3 2,-5 4,-5z"/>
   <path class="fil0 str0" d="M105 57c2,0 4,3 4,5 0,3 -2,5 -4,5 -2,0 -4,-2 -4,-5 0,-2 2,-5 4,-5z"/>
   <path class="fil0 str0" d="M109 54c2,0 4,2 4,5 0,2 -2,5 -4,5 -2,0 -4,-3 -4,-5 0,-3 2,-5 4,-5z"/>
   <path class="fil0 str0" d="M114 51c2,0 3,2 3,4 0,3 -1,5 -3,5 -3,0 -4,-2 -4,-5 0,-2 1,-4 4,-4z"/>
   <path class="fil0 str0" d="M118 47c2,0 4,2 4,5 0,3 -2,5 -4,5 -2,0 -4,-2 -4,-5 0,-3 2,-5 4,-5z"/>
   <path class="fil0 str0" d="M123 44c2,0 3,2 3,5 0,3 -1,5 -3,5 -2,0 -4,-2 -4,-5 0,-3 2,-5 4,-5z"/>
   <path class="fil0 str0" d="M127 41c2,0 4,2 4,5 0,3 -2,5 -4,5 -2,0 -3,-2 -3,-5 0,-3 1,-5 3,-5z"/>
   <path class="fil0 str0" d="M132 38c2,0 4,3 4,5 0,3 -2,5 -4,5 -2,0 -4,-2 -4,-5 0,-2 2,-5 4,-5z"/>
   <path class="fil0 str0" d="M137 36c2,0 4,2 4,5 0,2 -2,5 -4,5 -2,0 -4,-3 -4,-5 0,-3 2,-5 4,-5z"/>
   <path class="fil0 str0" d="M142 34c2,0 4,2 4,4 0,3 -2,5 -4,5 -2,0 -4,-2 -4,-5 0,-2 2,-4 4,-4z"/>
   <path class="fil0 str0" d="M147 31c2,0 4,3 4,5 0,3 -2,5 -4,5 -2,0 -4,-2 -4,-5 0,-2 2,-5 4,-5z"/>
   <path class="fil0 str0" d="M152 30c2,0 4,2 4,4 0,3 -2,5 -4,5 -2,0 -3,-2 -3,-5 0,-2 1,-4 3,-4z"/>
   <path class="fil0 str0" d="M158 28c2,0 3,2 3,5 0,3 -1,5 -3,5 -3,0 -4,-2 -4,-5 0,-3 1,-5 4,-5z"/>
   <path class="fil0 str0" d="M163 26c2,0 4,3 4,5 0,3 -2,5 -4,5 -2,0 -4,-2 -4,-5 0,-2 2,-5 4,-5z"/>
   <path class="fil0 str0" d="M168 25c2,0 4,2 4,5 0,3 -2,5 -4,5 -2,0 -4,-2 -4,-5 0,-3 2,-5 4,-5z"/>
   <path class="fil0 str0" d="M174 24c2,0 3,2 3,5 0,2 -1,5 -3,5 -2,0 -4,-3 -4,-5 0,-3 2,-5 4,-5z"/>
   <path class="fil0 str0" d="M179 23c2,0 4,2 4,4 0,3 -2,5 -4,5 -2,0 -4,-2 -4,-5 0,-2 2,-4 4,-4z"/>
   <path class="fil0 str0" d="M184 22c3,0 4,2 4,4 0,3 -1,5 -4,5 -2,0 -3,-2 -3,-5 0,-2 1,-4 3,-4z"/>
   <path class="fil0 str0" d="M190 20c2,0 4,3 4,5 0,3 -2,5 -4,5 -2,0 -4,-2 -4,-5 0,-2 2,-5 4,-5z"/>
   <path class="fil0 str0" d="M195 20c2,0 4,2 4,4 0,3 -2,5 -4,5 -2,0 -3,-2 -3,-5 0,-2 1,-4 3,-4z"/>
   <path class="fil0 str0" d="M201 19c2,0 4,2 4,5 0,2 -2,4 -4,4 -2,0 -4,-2 -4,-4 0,-3 2,-5 4,-5z"/>
   <path class="fil0 str0" d="M206 18c2,0 4,2 4,5 0,2 -2,5 -4,5 -2,0 -4,-3 -4,-5 0,-3 2,-5 4,-5z"/>
   <path class="fil0 str0" d="M212 17c2,0 4,2 4,5 0,3 -2,5 -4,5 -2,0 -4,-2 -4,-5 0,-3 2,-5 4,-5z"/>
   <path class="fil0 str0" d="M217 17c2,0 4,2 4,4 0,3 -2,5 -4,5 -2,0 -4,-2 -4,-5 0,-2 2,-4 4,-4z"/>
   <path class="fil0 str0" d="M223 16c2,0 4,2 4,5 0,2 -2,5 -4,5 -2,0 -4,-3 -4,-5 0,-3 2,-5 4,-5z"/>
   <path class="fil0 str0" d="M228 15c2,0 4,3 4,5 0,3 -2,5 -4,5 -2,0 -4,-2 -4,-5 0,-2 2,-5 4,-5z"/>
   <path class="fil0 str0" d="M234 15c2,0 4,2 4,5 0,3 -2,5 -4,5 -2,0 -4,-2 -4,-5 0,-3 2,-5 4,-5z"/>
   <path class="fil0 str0" d="M239 15c2,0 4,2 4,5 0,2 -2,4 -4,4 -2,0 -4,-2 -4,-4 0,-3 2,-5 4,-5z"/>
   <path class="fil0 str0" d="M245 14c2,0 4,3 4,5 0,3 -2,5 -4,5 -2,0 -4,-2 -4,-5 0,-2 2,-5 4,-5z"/>
   <path class="fil0 str0" d="M250 14c2,0 4,3 4,5 0,3 -2,5 -4,5 -2,0 -3,-2 -3,-5 0,-2 1,-5 3,-5z"/>
   <path class="fil0 str0" d="M256 14c2,0 4,2 4,5 0,3 -2,5 -4,5 -2,0 -4,-2 -4,-5 0,-3 2,-5 4,-5z"/>
   <path class="fil0 str0" d="M261 14c2,0 4,3 4,5 0,3 -2,5 -4,5 -2,0 -3,-2 -3,-5 0,-2 1,-5 3,-5z"/>
   <path class="fil0 str0" d="M267 15c2,0 4,2 4,5 0,2 -2,4 -4,4 -2,0 -4,-2 -4,-4 0,-3 2,-5 4,-5z"/>
   <path class="fil0 str0" d="M272 15c3,0 4,2 4,5 0,3 -1,5 -4,5 -2,0 -3,-2 -3,-5 0,-3 1,-5 3,-5z"/>
   <path class="fil0 str0" d="M278 16c2,0 4,2 4,5 0,2 -2,5 -4,5 -2,0 -4,-3 -4,-5 0,-3 2,-5 4,-5z"/>
   <path class="fil0 str0" d="M283 17c2,0 4,2 4,5 0,3 -2,5 -4,5 -2,0 -4,-2 -4,-5 0,-3 2,-5 4,-5z"/>
   <path class="fil0 str0" d="M288 19c2,0 4,3 4,5 0,3 -2,5 -4,5 -2,0 -4,-2 -4,-5 0,-2 2,-5 4,-5z"/>
   <path class="fil0 str0" d="M292 23c2,0 4,3 4,5 0,3 -2,5 -4,5 -2,0 -4,-2 -4,-5 0,-2 2,-5 4,-5z"/>
   <path class="fil0 str0" d="M294 29c2,0 4,2 4,4 0,3 -2,5 -4,5 -2,0 -4,-2 -4,-5 0,-2 2,-4 4,-4z"/>
   <path class="fil0 str0" d="M295 34c2,0 4,2 4,5 0,3 -2,5 -4,5 -2,0 -4,-2 -4,-5 0,-3 2,-5 4,-5z"/>
   <path class="fil0 str0" d="M295 39c2,0 4,3 4,5 0,3 -2,5 -4,5 -2,0 -4,-2 -4,-5 0,-2 2,-5 4,-5z"/>
   <path class="fil0 str0" d="M309 39c2,0 4,2 4,5 0,2 -2,5 -4,5 -2,0 -4,-3 -4,-5 0,-3 2,-5 4,-5z"/>
   <path class="fil0 str0" d="M310 34c2,0 3,2 3,5 0,2 -1,4 -3,4 -3,0 -4,-2 -4,-4 0,-3 1,-5 4,-5z"/>
   <path class="fil0 str0" d="M311 29c2,0 3,2 3,5 0,2 -1,4 -3,4 -2,0 -4,-2 -4,-4 0,-3 2,-5 4,-5z"/>
   <path class="fil0 str0" d="M312 24c2,0 4,2 4,5 0,2 -2,5 -4,5 -2,0 -3,-3 -3,-5 0,-3 1,-5 3,-5z"/>
   <path class="fil0 str0" d="M315 19c2,0 4,3 4,5 0,3 -2,5 -4,5 -2,0 -4,-2 -4,-5 0,-2 2,-5 4,-5z"/>
   <path class="fil0 str0" d="M318 15c2,0 4,3 4,5 0,3 -2,5 -4,5 -2,0 -3,-2 -3,-5 0,-2 1,-5 3,-5z"/>
   <path class="fil0 str0" d="M322 12c2,0 4,2 4,5 0,3 -2,5 -4,5 -2,0 -3,-2 -3,-5 0,-3 1,-5 3,-5z"/>
   <path class="fil0 str0" d="M327 10c2,0 4,2 4,5 0,2 -2,5 -4,5 -2,0 -4,-3 -4,-5 0,-3 2,-5 4,-5z"/>
   <path class="fil0 str0" d="M332 8c2,0 3,2 3,5 0,2 -1,5 -3,5 -2,0 -4,-3 -4,-5 0,-3 2,-5 4,-5z"/>
   <path class="fil0 str0" d="M337 6c2,0 3,2 3,5 0,3 -1,5 -3,5 -3,0 -4,-2 -4,-5 0,-3 1,-5 4,-5z"/>
   <path class="fil0 str0" d="M342 5c2,0 3,2 3,5 0,2 -1,4 -3,4 -3,0 -4,-2 -4,-4 0,-3 1,-5 4,-5z"/>
   <path class="fil0 str0" d="M347 4c2,0 3,2 3,4 0,3 -1,5 -3,5 -3,0 -4,-2 -4,-5 0,-2 1,-4 4,-4z"/>
   <path class="fil0 str0" d="M352 3c2,0 3,2 3,4 0,3 -1,5 -3,5 -3,0 -4,-2 -4,-5 0,-2 1,-4 4,-4z"/>
   <path class="fil0 str0" d="M357 2c2,0 3,2 3,5 0,2 -1,5 -3,5 -2,0 -4,-3 -4,-5 0,-3 2,-5 4,-5z"/>
   <path class="fil0 str0" d="M362 1c2,0 4,3 4,5 0,3 -2,5 -4,5 -2,0 -4,-2 -4,-5 0,-2 2,-5 4,-5z"/>
   <path class="fil0 str0" d="M367 1c2,0 4,2 4,5 0,3 -2,5 -4,5 -2,0 -4,-2 -4,-5 0,-3 2,-5 4,-5z"/>
   <path class="fil0 str0" d="M372 1c2,0 4,3 4,5 0,3 -2,5 -4,5 -2,0 -4,-2 -4,-5 0,-2 2,-5 4,-5z"/>
   <path class="fil0 str0" d="M377 2c2,0 4,2 4,5 0,2 -2,4 -4,4 -2,0 -3,-2 -3,-4 0,-3 1,-5 3,-5z"/>
   <path class="fil0 str0" d="M382 2c3,0 4,3 4,5 0,3 -1,5 -4,5 -2,0 -3,-2 -3,-5 0,-2 1,-5 3,-5z"/>
   <path class="fil0 str0" d="M388 3c2,0 3,2 3,5 0,3 -1,5 -3,5 -3,0 -4,-2 -4,-5 0,-3 1,-5 4,-5z"/>
   <path class="fil0 str0" d="M393 4c2,0 3,3 3,5 0,3 -1,5 -3,5 -3,0 -4,-2 -4,-5 0,-2 1,-5 4,-5z"/>
   <path class="fil0 str0" d="M397 6c3,0 4,2 4,5 0,2 -1,5 -4,5 -2,0 -3,-3 -3,-5 0,-3 1,-5 3,-5z"/>
   <path class="fil0 str0" d="M402 8c2,0 4,2 4,4 0,3 -2,5 -4,5 -2,0 -3,-2 -3,-5 0,-2 1,-4 3,-4z"/>
   <path class="fil0 str0" d="M407 9c2,0 4,3 4,5 0,3 -2,5 -4,5 -2,0 -4,-2 -4,-5 0,-2 2,-5 4,-5z"/>
   <path class="fil0 str0" d="M412 11c2,0 4,3 4,5 0,3 -2,5 -4,5 -2,0 -4,-2 -4,-5 0,-2 2,-5 4,-5z"/>
   <path class="fil0 str0" d="M417 13c2,0 3,3 3,5 0,3 -1,5 -3,5 -2,0 -4,-2 -4,-5 0,-2 2,-5 4,-5z"/>
   <path class="fil0 str0" d="M421 16c2,0 4,2 4,5 0,2 -2,4 -4,4 -2,0 -3,-2 -3,-4 0,-3 1,-5 3,-5z"/>
   <path class="fil0 str0" d="M426 18c2,0 4,2 4,5 0,3 -2,5 -4,5 -2,0 -4,-2 -4,-5 0,-3 2,-5 4,-5z"/>
   <path class="fil0 str0" d="M431 20c2,0 3,3 3,5 0,3 -1,5 -3,5 -3,0 -4,-2 -4,-5 0,-2 1,-5 4,-5z"/>
   <path class="fil0 str0" d="M435 23c2,0 4,2 4,5 0,2 -2,5 -4,5 -2,0 -4,-3 -4,-5 0,-3 2,-5 4,-5z"/>
   <path class="fil0 str0" d="M439 26c3,0 4,2 4,4 0,3 -1,5 -4,5 -2,0 -3,-2 -3,-5 0,-2 1,-4 3,-4z"/>
   <path class="fil0 str0" d="M444 28c2,0 4,2 4,5 0,3 -2,5 -4,5 -2,0 -4,-2 -4,-5 0,-3 2,-5 4,-5z"/>
   <path class="fil0 str0" d="M448 31c2,0 4,2 4,5 0,3 -2,5 -4,5 -2,0 -4,-2 -4,-5 0,-3 2,-5 4,-5z"/>
   <path class="fil0 str0" d="M453 34c2,0 3,2 3,5 0,2 -1,5 -3,5 -3,0 -4,-3 -4,-5 0,-3 1,-5 4,-5z"/>
   <path class="fil0 str0" d="M457 37c2,0 4,2 4,5 0,2 -2,4 -4,4 -2,0 -4,-2 -4,-4 0,-3 2,-5 4,-5z"/>
   <path class="fil0 str0" d="M461 40c2,0 4,2 4,5 0,2 -2,4 -4,4 -2,0 -4,-2 -4,-4 0,-3 2,-5 4,-5z"/>
   <path class="fil0 str0" d="M465 43c2,0 4,2 4,5 0,2 -2,5 -4,5 -2,0 -4,-3 -4,-5 0,-3 2,-5 4,-5z"/>
   <path class="fil0 str0" d="M469 46c2,0 4,2 4,5 0,2 -2,5 -4,5 -2,0 -3,-3 -3,-5 0,-3 1,-5 3,-5z"/>
   <path class="fil0 str0" d="M473 49c2,0 4,2 4,5 0,3 -2,5 -4,5 -2,0 -3,-2 -3,-5 0,-3 1,-5 3,-5z"/>
   <path class="fil0 str0" d="M477 52c2,0 4,2 4,5 0,3 -2,5 -4,5 -2,0 -3,-2 -3,-5 0,-3 1,-5 3,-5z"/>
   <path class="fil0 str0" d="M481 56c2,0 4,2 4,4 0,3 -2,5 -4,5 -2,0 -3,-2 -3,-5 0,-2 1,-4 3,-4z"/>
   <path class="fil0 str0" d="M485 59c2,0 4,2 4,5 0,2 -2,5 -4,5 -2,0 -3,-3 -3,-5 0,-3 1,-5 3,-5z"/>
   <path class="fil0 str0" d="M489 62c2,0 4,3 4,5 0,3 -2,5 -4,5 -2,0 -4,-2 -4,-5 0,-2 2,-5 4,-5z"/>
   <path class="fil0 str0" d="M493 66c2,0 4,2 4,5 0,2 -2,4 -4,4 -2,0 -4,-2 -4,-4 0,-3 2,-5 4,-5z"/>
   <path class="fil0 str0" d="M497 69c2,0 4,2 4,5 0,3 -2,5 -4,5 -2,0 -4,-2 -4,-5 0,-3 2,-5 4,-5z"/>
   <path class="fil0 str0" d="M501 73c2,0 4,2 4,4 0,3 -2,5 -4,5 -2,0 -4,-2 -4,-5 0,-2 2,-4 4,-4z"/>
   <path class="fil0 str0" d="M505 76c2,0 3,2 3,5 0,3 -1,5 -3,5 -2,0 -4,-2 -4,-5 0,-3 2,-5 4,-5z"/>
   <path class="fil0 str0" d="M509 79c2,0 3,3 3,5 0,3 -1,5 -3,5 -2,0 -4,-2 -4,-5 0,-2 2,-5 4,-5z"/>
   <path class="fil0 str0" d="M512 83c3,0 4,2 4,5 0,2 -1,4 -4,4 -2,0 -3,-2 -3,-4 0,-3 1,-5 3,-5z"/>
   <path class="fil0 str0" d="M516 86c2,0 4,2 4,5 0,3 -2,5 -4,5 -2,0 -3,-2 -3,-5 0,-3 1,-5 3,-5z"/>
   <path class="fil0 str0" d="M520 90c2,0 4,2 4,4 0,3 -2,5 -4,5 -2,0 -4,-2 -4,-5 0,-2 2,-4 4,-4z"/>
   <path class="fil0 str0" d="M524 93c2,0 4,2 4,5 0,2 -2,5 -4,5 -2,0 -4,-3 -4,-5 0,-3 2,-5 4,-5z"/>
   <path class="fil0 str0" d="M528 96c2,0 4,3 4,5 0,3 -2,5 -4,5 -2,0 -4,-2 -4,-5 0,-2 2,-5 4,-5z"/>
   <path class="fil0 str0" d="M532 100c2,0 4,2 4,5 0,2 -2,4 -4,4 -2,0 -4,-2 -4,-4 0,-3 2,-5 4,-5z"/>
   <path class="fil0 str0" d="M536 103c2,0 4,2 4,5 0,3 -2,5 -4,5 -2,0 -4,-2 -4,-5 0,-3 2,-5 4,-5z"/>
   <path class="fil0 str0" d="M540 107c2,0 3,2 3,5 0,2 -1,4 -3,4 -3,0 -4,-2 -4,-4 0,-3 1,-5 4,-5z"/>
   <path class="fil0 str0" d="M543 110c2,0 4,2 4,5 0,3 -2,5 -4,5 -2,0 -3,-2 -3,-5 0,-3 1,-5 3,-5z"/>
   <path class="fil0 str0" d="M547 114c2,0 4,2 4,4 0,3 -2,5 -4,5 -2,0 -4,-2 -4,-5 0,-2 2,-4 4,-4z"/>
   <path class="fil0 str0" d="M551 117c2,0 4,2 4,5 0,3 -2,5 -4,5 -2,0 -4,-2 -4,-5 0,-3 2,-5 4,-5z"/>
   <path class="fil0 str0" d="M555 121c2,0 3,2 3,5 0,2 -1,4 -3,4 -2,0 -4,-2 -4,-4 0,-3 2,-5 4,-5z"/>
   <path class="fil0 str0" d="M558 124c2,0 4,3 4,5 0,3 -2,5 -4,5 -2,0 -3,-2 -3,-5 0,-2 1,-5 3,-5z"/>
   <path class="fil0 str0" d="M562 128c2,0 4,2 4,5 0,3 -2,5 -4,5 -2,0 -4,-2 -4,-5 0,-3 2,-5 4,-5z"/>
   <path class="fil0 str0" d="M566 132c2,0 3,2 3,5 0,2 -1,5 -3,5 -3,0 -4,-3 -4,-5 0,-3 1,-5 4,-5z"/>
   <path class="fil0 str0" d="M569 136c2,0 4,2 4,4 0,3 -2,5 -4,5 -2,0 -4,-2 -4,-5 0,-2 2,-4 4,-4z"/>
   <path class="fil0 str0" d="M572 139c3,0 4,3 4,5 0,3 -1,5 -4,5 -2,0 -3,-2 -3,-5 0,-2 1,-5 3,-5z"/>
   <path class="fil0 str0" d="M576 143c2,0 4,3 4,5 0,3 -2,5 -4,5 -2,0 -4,-2 -4,-5 0,-2 2,-5 4,-5z"/>
   <path class="fil0 str0" d="M579 147c2,0 4,3 4,5 0,3 -2,5 -4,5 -2,0 -4,-2 -4,-5 0,-2 2,-5 4,-5z"/>
   <path class="fil0 str0" d="M582 152c2,0 4,2 4,4 0,3 -2,5 -4,5 -2,0 -4,-2 -4,-5 0,-2 2,-4 4,-4z"/>
   <path class="fil0 str0" d="M585 156c2,0 4,2 4,5 0,2 -2,5 -4,5 -2,0 -4,-3 -4,-5 0,-3 2,-5 4,-5z"/>
   <path class="fil0 str0" d="M588 160c2,0 4,2 4,5 0,3 -2,5 -4,5 -2,0 -4,-2 -4,-5 0,-3 2,-5 4,-5z"/>
   <path class="fil0 str0" d="M590 165c3,0 4,2 4,4 0,3 -1,5 -4,5 -2,0 -3,-2 -3,-5 0,-2 1,-4 3,-4z"/>
   <path class="fil0 str0" d="M593 169c2,0 4,2 4,5 0,3 -2,5 -4,5 -2,0 -4,-2 -4,-5 0,-3 2,-5 4,-5z"/>
   <path class="fil0 str0" d="M595 174c3,0 4,2 4,4 0,3 -1,5 -4,5 -2,0 -3,-2 -3,-5 0,-2 1,-4 3,-4z"/>
   <path class="fil0 str0" d="M598 178c2,0 3,2 3,5 0,3 -1,5 -3,5 -2,0 -4,-2 -4,-5 0,-3 2,-5 4,-5z"/>
   <path class="fil0 str0" d="M600 183c2,0 4,2 4,5 0,3 -2,5 -4,5 -2,0 -4,-2 -4,-5 0,-3 2,-5 4,-5z"/>
   <path class="fil0 str0" d="M602 188c2,0 3,2 3,5 0,2 -1,5 -3,5 -2,0 -4,-3 -4,-5 0,-3 2,-5 4,-5z"/>
   <path class="fil0 str0" d="M603 193c3,0 4,2 4,4 0,3 -1,5 -4,5 -2,0 -3,-2 -3,-5 0,-2 1,-4 3,-4z"/>
   <path class="fil0 str0" d="M605 197c2,0 4,3 4,5 0,3 -2,5 -4,5 -2,0 -4,-2 -4,-5 0,-2 2,-5 4,-5z"/>
   <path class="fil0 str0" d="M607 202c2,0 4,3 4,5 0,3 -2,5 -4,5 -2,0 -4,-2 -4,-5 0,-2 2,-5 4,-5z"/>
   <path class="fil0 str0" d="M608 207c2,0 4,3 4,5 0,3 -2,5 -4,5 -2,0 -4,-2 -4,-5 0,-2 2,-5 4,-5z"/>
   <path class="fil0 str0" d="M609 212c3,0 4,3 4,5 0,3 -1,5 -4,5 -2,0 -3,-2 -3,-5 0,-2 1,-5 3,-5z"/>
   <path class="fil0 str0" d="M611 217c2,0 4,3 4,5 0,3 -2,5 -4,5 -2,0 -4,-2 -4,-5 0,-2 2,-5 4,-5z"/>
   <path class="fil0 str0" d="M612 222c2,0 4,3 4,5 0,3 -2,5 -4,5 -2,0 -4,-2 -4,-5 0,-2 2,-5 4,-5z"/>
   <path class="fil0 str0" d="M613 227c2,0 4,3 4,5 0,3 -2,5 -4,5 -2,0 -4,-2 -4,-5 0,-2 2,-5 4,-5z"/>
   <path class="fil0 str0" d="M614 233c2,0 4,2 4,4 0,3 -2,5 -4,5 -2,0 -4,-2 -4,-5 0,-2 2,-4 4,-4z"/>
   <path class="fil0 str0" d="M615 238c2,0 4,2 4,4 0,3 -2,5 -4,5 -2,0 -4,-2 -4,-5 0,-2 2,-4 4,-4z"/>
   <path class="fil0 str0" d="M616 243c2,0 3,2 3,5 0,2 -1,4 -3,4 -2,0 -4,-2 -4,-4 0,-3 2,-5 4,-5z"/>
   <path class="fil0 str0" d="M616 248c3,0 4,2 4,5 0,2 -1,5 -4,5 -2,0 -3,-3 -3,-5 0,-3 1,-5 3,-5z"/>
   <path class="fil0 str0" d="M617 253c2,0 4,2 4,5 0,2 -2,5 -4,5 -2,0 -4,-3 -4,-5 0,-3 2,-5 4,-5z"/>
   <path class="fil0 str0" d="M618 258c2,0 4,2 4,5 0,3 -2,5 -4,5 -2,0 -4,-2 -4,-5 0,-3 2,-5 4,-5z"/>
   <path class="fil0 str0" d="M619 263c2,0 3,2 3,5 0,3 -1,5 -3,5 -3,0 -4,-2 -4,-5 0,-3 1,-5 4,-5z"/>
   <path class="fil0 str0" d="M619 268c2,0 4,2 4,5 0,3 -2,5 -4,5 -2,0 -4,-2 -4,-5 0,-3 2,-5 4,-5z"/>
   <path class="fil0 str0" d="M620 273c2,0 3,3 3,5 0,3 -1,5 -3,5 -2,0 -4,-2 -4,-5 0,-2 2,-5 4,-5z"/>
   <path class="fil0 str0" d="M620 279c2,0 4,2 4,4 0,3 -2,5 -4,5 -2,0 -4,-2 -4,-5 0,-2 2,-4 4,-4z"/>
   <path class="fil0 str0" d="M621 284c2,0 3,2 3,5 0,2 -1,4 -3,4 -3,0 -4,-2 -4,-4 0,-3 1,-5 4,-5z"/>
   <path class="fil0 str0" d="M621 289c2,0 4,2 4,5 0,2 -2,5 -4,5 -2,0 -4,-3 -4,-5 0,-3 2,-5 4,-5z"/>
   <path class="fil0 str0" d="M621 294c2,0 4,2 4,5 0,3 -2,5 -4,5 -2,0 -4,-2 -4,-5 0,-3 2,-5 4,-5z"/>
   <path class="fil0 str0" d="M621 299c2,0 4,2 4,5 0,3 -2,5 -4,5 -2,0 -4,-2 -4,-5 0,-3 2,-5 4,-5z"/>
   <path class="fil0 str0" d="M621 304c2,0 4,2 4,5 0,3 -2,5 -4,5 -2,0 -4,-2 -4,-5 0,-3 2,-5 4,-5z"/>
   <path class="fil0 str0" d="M621 309c2,0 4,3 4,5 0,3 -2,5 -4,5 -2,0 -4,-2 -4,-5 0,-2 2,-5 4,-5z"/>
   <path class="fil0 str0" d="M621 315c2,0 3,2 3,4 0,3 -1,5 -3,5 -2,0 -4,-2 -4,-5 0,-2 2,-4 4,-4z"/>
   <path class="fil0 str0" d="M620 320c2,0 4,2 4,5 0,2 -2,5 -4,5 -2,0 -3,-3 -3,-5 0,-3 1,-5 3,-5z"/>
   <path class="fil0 str0" d="M620 325c2,0 4,2 4,5 0,2 -2,5 -4,5 -2,0 -4,-3 -4,-5 0,-3 2,-5 4,-5z"/>
   <path class="fil0 str0" d="M619 330c2,0 4,2 4,5 0,3 -2,5 -4,5 -2,0 -4,-2 -4,-5 0,-3 2,-5 4,-5z"/>
   <path class="fil0 str0" d="M618 335c2,0 4,2 4,5 0,3 -2,5 -4,5 -2,0 -4,-2 -4,-5 0,-3 2,-5 4,-5z"/>
   <path class="fil0 str0" d="M617 340c2,0 4,2 4,5 0,3 -2,5 -4,5 -2,0 -3,-2 -3,-5 0,-3 1,-5 3,-5z"/>
   <path class="fil0 str0" d="M616 345c2,0 4,2 4,5 0,3 -2,5 -4,5 -2,0 -4,-2 -4,-5 0,-3 2,-5 4,-5z"/>
   <path class="fil0 str0" d="M615 350c2,0 4,2 4,5 0,3 -2,5 -4,5 -2,0 -4,-2 -4,-5 0,-3 2,-5 4,-5z"/>
   <path class="fil0 str0" d="M613 355c2,0 4,2 4,5 0,3 -2,5 -4,5 -2,0 -3,-2 -3,-5 0,-3 1,-5 3,-5z"/>
   <path class="fil0 str0" d="M612 360c2,0 4,2 4,5 0,3 -2,5 -4,5 -2,0 -4,-2 -4,-5 0,-3 2,-5 4,-5z"/>
   <path class="fil0 str0" d="M610 365c2,0 4,2 4,5 0,2 -2,5 -4,5 -2,0 -4,-3 -4,-5 0,-3 2,-5 4,-5z"/>
   <path class="fil0 str0" d="M608 370c2,0 4,2 4,4 0,3 -2,5 -4,5 -2,0 -4,-2 -4,-5 0,-2 2,-4 4,-4z"/>
   <path class="fil0 str0" d="M606 374c2,0 3,2 3,5 0,3 -1,5 -3,5 -2,0 -4,-2 -4,-5 0,-3 2,-5 4,-5z"/>
   <path class="fil0 str0" d="M603 379c2,0 4,2 4,5 0,2 -2,5 -4,5 -2,0 -4,-3 -4,-5 0,-3 2,-5 4,-5z"/>
   <path class="fil0 str0" d="M601 383c2,0 3,2 3,5 0,3 -1,5 -3,5 -2,0 -4,-2 -4,-5 0,-3 2,-5 4,-5z"/>
   <path class="fil0 str0" d="M598 388c2,0 4,2 4,5 0,2 -2,4 -4,4 -2,0 -4,-2 -4,-4 0,-3 2,-5 4,-5z"/>
   <path class="fil0 str0" d="M595 392c2,0 4,2 4,5 0,2 -2,5 -4,5 -2,0 -4,-3 -4,-5 0,-3 2,-5 4,-5z"/>
   <path class="fil0 str0" d="M592 396c2,0 4,2 4,5 0,3 -2,5 -4,5 -2,0 -4,-2 -4,-5 0,-3 2,-5 4,-5z"/>
   <path class="fil0 str0" d="M589 400c2,0 4,2 4,5 0,3 -2,5 -4,5 -2,0 -4,-2 -4,-5 0,-3 2,-5 4,-5z"/>
   <path class="fil0 str0" d="M586 404c2,0 3,2 3,5 0,3 -1,5 -3,5 -2,0 -4,-2 -4,-5 0,-3 2,-5 4,-5z"/>
   <path class="fil0 str0" d="M582 408c2,0 4,2 4,5 0,3 -2,5 -4,5 -2,0 -4,-2 -4,-5 0,-3 2,-5 4,-5z"/>
   <path class="fil0 str0" d="M579 412c2,0 3,2 3,5 0,2 -1,5 -3,5 -2,0 -4,-3 -4,-5 0,-3 2,-5 4,-5z"/>
   <path class="fil0 str0" d="M575 415c2,0 3,2 3,5 0,3 -1,5 -3,5 -3,0 -4,-2 -4,-5 0,-3 1,-5 4,-5z"/>
   <path class="fil0 str0" d="M570 418c2,0 4,2 4,5 0,2 -2,4 -4,4 -2,0 -4,-2 -4,-4 0,-3 2,-5 4,-5z"/>
   <path class="fil0 str0" d="M565 419c2,0 4,2 4,5 0,3 -2,5 -4,5 -2,0 -4,-2 -4,-5 0,-3 2,-5 4,-5z"/>
   <path class="fil0 str0" d="M560 419c2,0 4,3 4,5 0,3 -2,5 -4,5 -2,0 -4,-2 -4,-5 0,-2 2,-5 4,-5z"/>
   <path class="fil0 str1" d="M180 410c2,0 4,3 4,5 0,3 -2,5 -4,5 -2,0 -4,-2 -4,-5 0,-2 2,-5 4,-5z"/>
   <path class="fil0 str0" d="M310 41c2,0 4,2 4,5 0,2 -2,5 -4,5 -2,0 -4,-3 -4,-5 0,-3 2,-5 4,-5z"/>
   <path class="fil0 str0" d="M306 38c2,0 4,3 4,5 0,3 -2,5 -4,5 -2,0 -3,-2 -3,-5 0,-2 1,-5 3,-5z"/>
   <path class="fil0 str0" d="M302 37c3,0 4,2 4,4 0,3 -1,5 -4,5 -2,0 -3,-2 -3,-5 0,-2 1,-4 3,-4z"/>
   <path class="fil0 str0" d="M298 36c2,0 4,2 4,4 0,3 -2,5 -4,5 -2,0 -4,-2 -4,-5 0,-2 2,-4 4,-4z"/>
   <path class="fil0 str0" d="M294 36c2,0 4,2 4,4 0,3 -2,5 -4,5 -2,0 -4,-2 -4,-5 0,-2 2,-4 4,-4z"/>
   <path class="fil0 str0" d="M290 37c2,0 4,2 4,5 0,2 -2,4 -4,4 -2,0 -4,-2 -4,-4 0,-3 2,-5 4,-5z"/>
   <path class="fil0 str0" d="M286 38c2,0 4,3 4,5 0,3 -2,5 -4,5 -2,0 -4,-2 -4,-5 0,-2 2,-5 4,-5z"/>
   <path class="fil0 str0" d="M282 41c2,0 4,2 4,5 0,2 -2,5 -4,5 -2,0 -4,-3 -4,-5 0,-3 2,-5 4,-5z"/>
   <path class="fil0 str0" d="M280 44c2,0 4,3 4,5 0,3 -2,5 -4,5 -2,0 -4,-2 -4,-5 0,-2 2,-5 4,-5z"/>
   <path class="fil0 str0" d="M281 48c2,0 4,2 4,5 0,3 -2,5 -4,5 -2,0 -4,-2 -4,-5 0,-3 2,-5 4,-5z"/>
   <path class="fil0 str0" d="M285 50c2,0 4,3 4,5 0,3 -2,5 -4,5 -2,0 -4,-2 -4,-5 0,-2 2,-5 4,-5z"/>
   <path class="fil0 str0" d="M289 51c2,0 4,3 4,5 0,3 -2,5 -4,5 -2,0 -4,-2 -4,-5 0,-2 2,-5 4,-5z"/>
   <path class="fil0 str0" d="M293 52c2,0 4,2 4,5 0,2 -2,5 -4,5 -2,0 -3,-3 -3,-5 0,-3 1,-5 3,-5z"/>
   <path class="fil0 str0" d="M298 52c2,0 3,2 3,5 0,3 -1,5 -3,5 -2,0 -4,-2 -4,-5 0,-3 2,-5 4,-5z"/>
   <path class="fil0 str0" d="M302 52c2,0 4,2 4,5 0,3 -2,5 -4,5 -2,0 -4,-2 -4,-5 0,-3 2,-5 4,-5z"/>
   <path class="fil0 str0" d="M306 52c2,0 4,2 4,5 0,2 -2,5 -4,5 -2,0 -3,-3 -3,-5 0,-3 1,-5 3,-5z"/>
   <path class="fil0 str0" d="M311 51c2,0 3,2 3,5 0,3 -1,5 -3,5 -2,0 -4,-2 -4,-5 0,-3 2,-5 4,-5z"/>
   <path class="fil0 str0" d="M309 51c3,0 4,2 4,5 0,2 -1,5 -4,5 -2,0 -3,-3 -3,-5 0,-3 1,-5 3,-5z"/>
   <path class="fil0 str0" d="M305 51c2,0 4,2 4,5 0,2 -2,5 -4,5 -2,0 -4,-3 -4,-5 0,-3 2,-5 4,-5z"/>
   <path class="fil0 str0" d="M301 51c2,0 4,2 4,5 0,3 -2,5 -4,5 -2,0 -4,-2 -4,-5 0,-3 2,-5 4,-5z"/>
   <path class="fil0 str0" d="M297 51c2,0 3,2 3,5 0,3 -1,5 -3,5 -3,0 -4,-2 -4,-5 0,-3 1,-5 4,-5z"/>
   <path class="fil0 str0" d="M292 51c2,0 4,3 4,5 0,3 -2,5 -4,5 -2,0 -4,-2 -4,-5 0,-2 2,-5 4,-5z"/>
   <path class="fil0 str0" d="M288 52c2,0 4,2 4,5 0,2 -2,5 -4,5 -2,0 -4,-3 -4,-5 0,-3 2,-5 4,-5z"/>
   <path class="fil0 str0" d="M284 53c2,0 3,2 3,5 0,2 -1,4 -3,4 -2,0 -4,-2 -4,-4 0,-3 2,-5 4,-5z"/>
   <path class="fil0 str0" d="M281 55c2,0 4,2 4,5 0,3 -2,5 -4,5 -2,0 -4,-2 -4,-5 0,-3 2,-5 4,-5z"/>
   <path class="fil0 str0" d="M284 58c2,0 4,2 4,5 0,3 -2,5 -4,5 -2,0 -4,-2 -4,-5 0,-3 2,-5 4,-5z"/>
   <path class="fil0 str0" d="M288 60c2,0 3,2 3,5 0,3 -1,5 -3,5 -2,0 -4,-2 -4,-5 0,-3 2,-5 4,-5z"/>
   <path class="fil0 str0" d="M292 62c2,0 3,2 3,5 0,2 -1,5 -3,5 -2,0 -4,-3 -4,-5 0,-3 2,-5 4,-5z"/>
   <path class="fil0 str0" d="M296 63c2,0 4,2 4,5 0,3 -2,5 -4,5 -2,0 -4,-2 -4,-5 0,-3 2,-5 4,-5z"/>
   <path class="fil0 str0" d="M300 64c2,0 4,2 4,5 0,3 -2,5 -4,5 -2,0 -4,-2 -4,-5 0,-3 2,-5 4,-5z"/>
   <path class="fil0 str0" d="M304 65c2,0 4,2 4,5 0,3 -2,5 -4,5 -2,0 -4,-2 -4,-5 0,-3 2,-5 4,-5z"/>
   <path class="fil0 str0" d="M308 65c3,0 4,3 4,5 0,3 -1,5 -4,5 -2,0 -3,-2 -3,-5 0,-2 1,-5 3,-5z"/>
   <path class="fil0 str0" d="M313 65c2,0 4,2 4,5 0,3 -2,5 -4,5 -2,0 -4,-2 -4,-5 0,-3 2,-5 4,-5z"/>
   <path class="fil0 str0" d="M316 63c2,0 4,2 4,5 0,2 -2,4 -4,4 -2,0 -4,-2 -4,-4 0,-3 2,-5 4,-5z"/>
   <path class="fil0 str0" d="M313 61c2,0 4,2 4,5 0,2 -2,4 -4,4 -2,0 -4,-2 -4,-4 0,-3 2,-5 4,-5z"/>
   <path class="fil0 str0" d="M309 61c2,0 3,2 3,5 0,2 -1,5 -3,5 -2,0 -4,-3 -4,-5 0,-3 2,-5 4,-5z"/>
   <path class="fil0 str0" d="M304 62c3,0 4,2 4,4 0,3 -1,5 -4,5 -2,0 -3,-2 -3,-5 0,-2 1,-4 3,-4z"/>
   <path class="fil0 str0" d="M300 63c2,0 4,2 4,5 0,2 -2,5 -4,5 -2,0 -3,-3 -3,-5 0,-3 1,-5 3,-5z"/>
   <path class="fil0 str0" d="M296 64c2,0 4,3 4,5 0,3 -2,5 -4,5 -2,0 -3,-2 -3,-5 0,-2 1,-5 3,-5z"/>
   <path class="fil0 str0" d="M293 67c2,0 3,2 3,5 0,2 -1,4 -3,4 -2,0 -4,-2 -4,-4 0,-3 2,-5 4,-5z"/>
   <path class="fil0 str0" d="M291 70c2,0 3,3 3,5 0,3 -1,5 -3,5 -2,0 -4,-2 -4,-5 0,-2 2,-5 4,-5z"/>
   <path class="fil0 str0" d="M293 74c2,0 4,2 4,5 0,3 -2,5 -4,5 -2,0 -4,-2 -4,-5 0,-3 2,-5 4,-5z"/>
   <path class="fil0 str0" d="M296 77c2,0 4,2 4,5 0,2 -2,4 -4,4 -2,0 -4,-2 -4,-4 0,-3 2,-5 4,-5z"/>
   <path class="fil0 str0" d="M300 78c2,0 4,3 4,5 0,3 -2,5 -4,5 -2,0 -4,-2 -4,-5 0,-2 2,-5 4,-5z"/>
   <path class="fil0 str0" d="M304 80c2,0 4,2 4,5 0,2 -2,4 -4,4 -2,0 -3,-2 -3,-4 0,-3 1,-5 3,-5z"/>
   <path class="fil0 str0" d="M309 80c2,0 3,3 3,5 0,3 -1,5 -3,5 -3,0 -4,-2 -4,-5 0,-2 1,-5 4,-5z"/>
   <path class="fil0 str0" d="M313 81c2,0 4,2 4,4 0,3 -2,5 -4,5 -2,0 -4,-2 -4,-5 0,-2 2,-4 4,-4z"/>
   <path class="fil0 str0" d="M317 80c2,0 4,2 4,5 0,3 -2,5 -4,5 -2,0 -4,-2 -4,-5 0,-3 2,-5 4,-5z"/>
   <path class="fil0 str0" d="M321 78c2,0 4,3 4,5 0,3 -2,5 -4,5 -2,0 -4,-2 -4,-5 0,-2 2,-5 4,-5z"/>
   <path class="fil0 str0" d="M322 75c2,0 4,2 4,5 0,2 -2,5 -4,5 -2,0 -4,-3 -4,-5 0,-3 2,-5 4,-5z"/>
   <path class="fil0 str0" d="M318 74c2,0 4,2 4,5 0,2 -2,5 -4,5 -2,0 -4,-3 -4,-5 0,-3 2,-5 4,-5z"/>
   <path class="fil0 str0" d="M314 74c2,0 4,2 4,5 0,3 -2,5 -4,5 -2,0 -4,-2 -4,-5 0,-3 2,-5 4,-5z"/>
   <path class="fil0 str0" d="M309 75c3,0 4,2 4,5 0,2 -1,5 -4,5 -2,0 -3,-3 -3,-5 0,-3 1,-5 3,-5z"/>
   <path class="fil0 str0" d="M305 76c2,0 4,2 4,5 0,2 -2,5 -4,5 -2,0 -4,-3 -4,-5 0,-3 2,-5 4,-5z"/>
   <path class="fil0 str0" d="M301 77c2,0 4,3 4,5 0,3 -2,5 -4,5 -2,0 -4,-2 -4,-5 0,-2 2,-5 4,-5z"/>
   <path class="fil0 str0" d="M297 80c3,0 4,2 4,4 0,3 -1,5 -4,5 -2,0 -3,-2 -3,-5 0,-2 1,-4 3,-4z"/>
   <path class="fil0 str0" d="M295 83c2,0 3,2 3,5 0,2 -1,4 -3,4 -3,0 -4,-2 -4,-4 0,-3 1,-5 4,-5z"/>
   <path class="fil0 str0" d="M295 87c2,0 4,2 4,5 0,2 -2,5 -4,5 -2,0 -4,-3 -4,-5 0,-3 2,-5 4,-5z"/>
   <path class="fil0 str0" d="M298 90c2,0 4,2 4,5 0,2 -2,5 -4,5 -2,0 -4,-3 -4,-5 0,-3 2,-5 4,-5z"/>
   <path class="fil0 str0" d="M302 92c2,0 4,2 4,5 0,2 -2,5 -4,5 -2,0 -4,-3 -4,-5 0,-3 2,-5 4,-5z"/>
   <path class="fil0 str0" d="M306 93c2,0 4,2 4,5 0,3 -2,5 -4,5 -2,0 -4,-2 -4,-5 0,-3 2,-5 4,-5z"/>
   <path class="fil0 str0" d="M310 94c2,0 4,3 4,5 0,3 -2,5 -4,5 -2,0 -4,-2 -4,-5 0,-2 2,-5 4,-5z"/>
   <path class="fil0 str0" d="M314 95c2,0 4,2 4,5 0,3 -2,5 -4,5 -2,0 -4,-2 -4,-5 0,-3 2,-5 4,-5z"/>
   <path class="fil0 str0" d="M319 96c2,0 3,2 3,5 0,2 -1,5 -3,5 -3,0 -4,-3 -4,-5 0,-3 1,-5 4,-5z"/>
   <path class="fil0 str0" d="M323 96c2,0 4,2 4,5 0,3 -2,5 -4,5 -2,0 -4,-2 -4,-5 0,-3 2,-5 4,-5z"/>
   <path class="fil0 str0" d="M327 96c2,0 4,2 4,5 0,3 -2,5 -4,5 -2,0 -4,-2 -4,-5 0,-3 2,-5 4,-5z"/>
   <path class="fil0 str0" d="M331 95c2,0 4,2 4,5 0,3 -2,5 -4,5 -2,0 -3,-2 -3,-5 0,-3 1,-5 3,-5z"/>
   <path class="fil0 str0" d="M331 92c2,0 4,2 4,4 0,3 -2,5 -4,5 -2,0 -3,-2 -3,-5 0,-2 1,-4 3,-4z"/>
   <path class="fil0 str0" d="M327 90c2,0 4,2 4,5 0,3 -2,5 -4,5 -2,0 -3,-2 -3,-5 0,-3 1,-5 3,-5z"/>
   <path class="fil0 str0" d="M323 90c2,0 4,2 4,4 0,3 -2,5 -4,5 -2,0 -4,-2 -4,-5 0,-2 2,-4 4,-4z"/>
   <path class="fil0 str0" d="M319 89c2,0 4,3 4,5 0,3 -2,5 -4,5 -2,0 -4,-2 -4,-5 0,-2 2,-5 4,-5z"/>
   <path class="fil0 str0" d="M314 90c3,0 4,2 4,5 0,2 -1,4 -4,4 -2,0 -3,-2 -3,-4 0,-3 1,-5 3,-5z"/>
   <path class="fil0 str0" d="M310 90c2,0 4,2 4,5 0,3 -2,5 -4,5 -2,0 -4,-2 -4,-5 0,-3 2,-5 4,-5z"/>
   <path class="fil0 str0" d="M306 91c2,0 4,2 4,5 0,3 -2,5 -4,5 -2,0 -4,-2 -4,-5 0,-3 2,-5 4,-5z"/>
   <path class="fil0 str0" d="M302 92c2,0 4,3 4,5 0,3 -2,5 -4,5 -2,0 -4,-2 -4,-5 0,-2 2,-5 4,-5z"/>
   <path class="fil0 str0" d="M298 95c2,0 4,2 4,5 0,3 -2,5 -4,5 -2,0 -3,-2 -3,-5 0,-3 1,-5 3,-5z"/>
   <path class="fil0 str0" d="M298 99c3,0 4,2 4,5 0,3 -1,5 -4,5 -2,0 -3,-2 -3,-5 0,-3 1,-5 3,-5z"/>
   <path class="fil0 str0" d="M302 102c2,0 3,2 3,5 0,3 -1,5 -3,5 -3,0 -4,-2 -4,-5 0,-3 1,-5 4,-5z"/>
   <path class="fil0 str0" d="M305 104c2,0 4,3 4,5 0,3 -2,5 -4,5 -2,0 -4,-2 -4,-5 0,-2 2,-5 4,-5z"/>
   <path class="fil0 str0" d="M309 106c2,0 4,3 4,5 0,3 -2,5 -4,5 -2,0 -4,-2 -4,-5 0,-2 2,-5 4,-5z"/>
   <path class="fil0 str0" d="M313 108c2,0 4,2 4,5 0,3 -2,5 -4,5 -2,0 -4,-2 -4,-5 0,-3 2,-5 4,-5z"/>
   <path class="fil0 str0" d="M317 110c2,0 4,2 4,5 0,2 -2,5 -4,5 -2,0 -4,-3 -4,-5 0,-3 2,-5 4,-5z"/>
   <path class="fil0 str0" d="M321 111c2,0 4,2 4,5 0,3 -2,5 -4,5 -2,0 -4,-2 -4,-5 0,-3 2,-5 4,-5z"/>
   <path class="fil0 str0" d="M325 112c2,0 4,2 4,5 0,2 -2,4 -4,4 -2,0 -3,-2 -3,-4 0,-3 1,-5 3,-5z"/>
   <path class="fil0 str0" d="M326 109c2,0 3,2 3,5 0,2 -1,5 -3,5 -3,0 -4,-3 -4,-5 0,-3 1,-5 4,-5z"/>
   <path class="fil0 str0" d="M322 106c2,0 4,3 4,5 0,3 -2,5 -4,5 -2,0 -4,-2 -4,-5 0,-2 2,-5 4,-5z"/>
   <path class="fil0 str0" d="M318 105c2,0 4,2 4,5 0,3 -2,5 -4,5 -2,0 -4,-2 -4,-5 0,-3 2,-5 4,-5z"/>
   <path class="fil0 str0" d="M313 105c3,0 4,2 4,5 0,3 -1,5 -4,5 -2,0 -3,-2 -3,-5 0,-3 1,-5 3,-5z"/>
   <path class="fil0 str0" d="M309 105c2,0 4,2 4,5 0,3 -2,5 -4,5 -2,0 -4,-2 -4,-5 0,-3 2,-5 4,-5z"/>
   <path class="fil0 str0" d="M305 106c2,0 4,2 4,5 0,3 -2,5 -4,5 -2,0 -4,-2 -4,-5 0,-3 2,-5 4,-5z"/>
   <path class="fil0 str0" d="M301 107c2,0 4,3 4,5 0,3 -2,5 -4,5 -2,0 -4,-2 -4,-5 0,-2 2,-5 4,-5z"/>
   <path class="fil0 str0" d="M297 109c2,0 4,3 4,5 0,3 -2,5 -4,5 -2,0 -4,-2 -4,-5 0,-2 2,-5 4,-5z"/>
   <path class="fil0 str0" d="M296 113c2,0 4,2 4,5 0,3 -2,5 -4,5 -2,0 -3,-2 -3,-5 0,-3 1,-5 3,-5z"/>
   <path class="fil0 str0" d="M300 116c2,0 4,2 4,4 0,3 -2,5 -4,5 -2,0 -4,-2 -4,-5 0,-2 2,-4 4,-4z"/>
   <path class="fil0 str0" d="M304 118c2,0 3,2 3,5 0,2 -1,4 -3,4 -2,0 -4,-2 -4,-4 0,-3 2,-5 4,-5z"/>
   <path class="fil0 str0" d="M307 120c2,0 4,2 4,5 0,2 -2,5 -4,5 -2,0 -3,-3 -3,-5 0,-3 1,-5 3,-5z"/>
   <path class="fil0 str0" d="M311 122c2,0 4,2 4,5 0,2 -2,5 -4,5 -2,0 -4,-3 -4,-5 0,-3 2,-5 4,-5z"/>
   <path class="fil0 str0" d="M315 124c2,0 4,2 4,5 0,2 -2,5 -4,5 -2,0 -4,-3 -4,-5 0,-3 2,-5 4,-5z"/>
   <path class="fil0 str0" d="M319 126c2,0 4,2 4,5 0,2 -2,5 -4,5 -2,0 -4,-3 -4,-5 0,-3 2,-5 4,-5z"/>
   <path class="fil0 str0" d="M323 128c2,0 4,2 4,5 0,2 -2,4 -4,4 -2,0 -4,-2 -4,-4 0,-3 2,-5 4,-5z"/>
   <path class="fil0 str0" d="M327 129c2,0 4,2 4,5 0,3 -2,5 -4,5 -2,0 -4,-2 -4,-5 0,-3 2,-5 4,-5z"/>
   <path class="fil0 str0" d="M327 127c2,0 4,3 4,5 0,3 -2,5 -4,5 -2,0 -4,-2 -4,-5 0,-2 2,-5 4,-5z"/>
   <path class="fil0 str0" d="M324 125c2,0 4,2 4,5 0,2 -2,5 -4,5 -2,0 -4,-3 -4,-5 0,-3 2,-5 4,-5z"/>
   <path class="fil0 str0" d="M320 123c2,0 4,2 4,5 0,2 -2,4 -4,4 -2,0 -4,-2 -4,-4 0,-3 2,-5 4,-5z"/>
   <path class="fil0 str0" d="M316 121c2,0 4,2 4,5 0,3 -2,5 -4,5 -2,0 -4,-2 -4,-5 0,-3 2,-5 4,-5z"/>
   <path class="fil0 str0" d="M312 120c2,0 4,2 4,5 0,3 -2,5 -4,5 -2,0 -4,-2 -4,-5 0,-3 2,-5 4,-5z"/>
   <path class="fil0 str0" d="M308 120c2,0 3,2 3,5 0,2 -1,4 -3,4 -3,0 -4,-2 -4,-4 0,-3 1,-5 4,-5z"/>
   <path class="fil0 str0" d="M303 120c2,0 4,2 4,5 0,2 -2,5 -4,5 -2,0 -4,-3 -4,-5 0,-3 2,-5 4,-5z"/>
   <path class="fil0 str0" d="M299 120c2,0 4,3 4,5 0,3 -2,5 -4,5 -2,0 -4,-2 -4,-5 0,-2 2,-5 4,-5z"/>
   <path class="fil0 str0" d="M295 122c2,0 4,2 4,5 0,3 -2,5 -4,5 -2,0 -4,-2 -4,-5 0,-3 2,-5 4,-5z"/>
   <path class="fil0 str0" d="M292 125c2,0 4,3 4,5 0,3 -2,5 -4,5 -2,0 -4,-2 -4,-5 0,-2 2,-5 4,-5z"/>
   <path class="fil0 str0" d="M292 130c2,0 4,2 4,5 0,2 -2,4 -4,4 -2,0 -4,-2 -4,-4 0,-3 2,-5 4,-5z"/>
   <path class="fil0 str0" d="M293 134c2,0 4,2 4,5 0,2 -2,5 -4,5 -2,0 -4,-3 -4,-5 0,-3 2,-5 4,-5z"/>
   <path class="fil0 str0" d="M295 138c2,0 4,2 4,4 0,3 -2,5 -4,5 -2,0 -4,-2 -4,-5 0,-2 2,-4 4,-4z"/>
   <path class="fil0 str0" d="M298 141c2,0 4,2 4,5 0,2 -2,5 -4,5 -2,0 -4,-3 -4,-5 0,-3 2,-5 4,-5z"/>
   <path class="fil0 str0" d="M301 143c3,0 4,3 4,5 0,3 -1,5 -4,5 -2,0 -3,-2 -3,-5 0,-2 1,-5 3,-5z"/>
   <path class="fil0 str0" d="M306 145c2,0 3,2 3,5 0,3 -1,5 -3,5 -3,0 -4,-2 -4,-5 0,-3 1,-5 4,-5z"/>
   <path class="fil0 str0" d="M310 145c2,0 4,2 4,5 0,3 -2,5 -4,5 -2,0 -4,-2 -4,-5 0,-3 2,-5 4,-5z"/>
   <path class="fil0 str0" d="M314 144c2,0 4,3 4,5 0,3 -2,5 -4,5 -2,0 -4,-2 -4,-5 0,-2 2,-5 4,-5z"/>
   <path class="fil0 str0" d="M318 143c2,0 4,2 4,5 0,3 -2,5 -4,5 -2,0 -4,-2 -4,-5 0,-3 2,-5 4,-5z"/>
   <path class="fil0 str0" d="M322 141c2,0 4,2 4,5 0,2 -2,4 -4,4 -2,0 -4,-2 -4,-4 0,-3 2,-5 4,-5z"/>
   <path class="fil0 str0" d="M322 137c2,0 4,2 4,5 0,2 -2,4 -4,4 -2,0 -3,-2 -3,-4 0,-3 1,-5 3,-5z"/>
   <path class="fil0 str0" d="M320 133c2,0 3,3 3,5 0,3 -1,5 -3,5 -2,0 -4,-2 -4,-5 0,-2 2,-5 4,-5z"/>
   <path class="fil0 str0" d="M316 131c2,0 4,2 4,5 0,2 -2,5 -4,5 -2,0 -4,-3 -4,-5 0,-3 2,-5 4,-5z"/>
   <path class="fil0 str0" d="M312 129c2,0 4,2 4,5 0,2 -2,5 -4,5 -2,0 -3,-3 -3,-5 0,-3 1,-5 3,-5z"/>
   <path class="fil0 str0" d="M308 128c2,0 4,2 4,5 0,2 -2,5 -4,5 -2,0 -4,-3 -4,-5 0,-3 2,-5 4,-5z"/>
   <path class="fil0 str0" d="M101 449c2,0 4,2 4,5 0,3 -2,5 -4,5 -2,0 -4,-2 -4,-5 0,-3 2,-5 4,-5z"/>
   <path class="fil0 str0" d="M101 454c2,0 3,2 3,4 0,3 -1,5 -3,5 -3,0 -4,-2 -4,-5 0,-2 1,-4 4,-4z"/>
   <path class="fil0 str0" d="M101 458c2,0 4,2 4,5 0,2 -2,5 -4,5 -2,0 -4,-3 -4,-5 0,-3 2,-5 4,-5z"/>
   <path class="fil0 str0" d="M102 462c2,0 4,2 4,5 0,3 -2,5 -4,5 -2,0 -4,-2 -4,-5 0,-3 2,-5 4,-5z"/>
   <path class="fil0 str0" d="M104 466c2,0 4,2 4,5 0,2 -2,4 -4,4 -2,0 -3,-2 -3,-4 0,-3 1,-5 3,-5z"/>
   <path class="fil0 str0" d="M107 469c2,0 4,2 4,5 0,2 -2,5 -4,5 -2,0 -3,-3 -3,-5 0,-3 1,-5 3,-5z"/>
   <path class="fil0 str0" d="M111 471c2,0 4,3 4,5 0,3 -2,5 -4,5 -2,0 -4,-2 -4,-5 0,-2 2,-5 4,-5z"/>
   <path class="fil0 str0" d="M115 473c2,0 4,2 4,5 0,3 -2,5 -4,5 -2,0 -4,-2 -4,-5 0,-3 2,-5 4,-5z"/>
   <path class="fil0 str0" d="M119 474c2,0 4,2 4,4 0,3 -2,5 -4,5 -2,0 -4,-2 -4,-5 0,-2 2,-4 4,-4z"/>
   <path class="fil0 str0" d="M122 471c2,0 4,2 4,4 0,3 -2,5 -4,5 -2,0 -4,-2 -4,-5 0,-2 2,-4 4,-4z"/>
   <path class="fil0 str0" d="M122 466c2,0 3,2 3,5 0,3 -1,5 -3,5 -2,0 -4,-2 -4,-5 0,-3 2,-5 4,-5z"/>
   <path class="fil0 str0" d="M120 462c3,0 4,2 4,5 0,3 -1,5 -4,5 -2,0 -3,-2 -3,-5 0,-3 1,-5 3,-5z"/>
   <path class="fil0 str0" d="M119 458c2,0 4,2 4,5 0,3 -2,5 -4,5 -2,0 -4,-2 -4,-5 0,-3 2,-5 4,-5z"/>
   <path class="fil0 str0" d="M117 454c2,0 4,2 4,5 0,3 -2,5 -4,5 -2,0 -4,-2 -4,-5 0,-3 2,-5 4,-5z"/>
   <path class="fil0 str0" d="M115 451c2,0 3,2 3,4 0,3 -1,5 -3,5 -2,0 -4,-2 -4,-5 0,-2 2,-4 4,-4z"/>
   <path class="fil0 str0" d="M112 447c2,0 4,2 4,5 0,2 -2,5 -4,5 -2,0 -4,-3 -4,-5 0,-3 2,-5 4,-5z"/>
   <path class="fil0 str0" d="M110 443c2,0 3,3 3,5 0,3 -1,5 -3,5 -2,0 -4,-2 -4,-5 0,-2 2,-5 4,-5z"/>
   <path class="fil0 str0" d="M110 445c2,0 4,2 4,4 0,3 -2,5 -4,5 -2,0 -4,-2 -4,-5 0,-2 2,-4 4,-4z"/>
   <path class="fil0 str0" d="M112 448c2,0 4,3 4,5 0,3 -2,5 -4,5 -2,0 -4,-2 -4,-5 0,-2 2,-5 4,-5z"/>
   <path class="fil0 str0" d="M114 452c2,0 4,2 4,5 0,3 -2,5 -4,5 -2,0 -4,-2 -4,-5 0,-3 2,-5 4,-5z"/>
   <path class="fil0 str0" d="M116 456c3,0 4,2 4,5 0,2 -1,4 -4,4 -2,0 -3,-2 -3,-4 0,-3 1,-5 3,-5z"/>
   <path class="fil0 str0" d="M119 459c2,0 4,3 4,5 0,3 -2,5 -4,5 -2,0 -4,-2 -4,-5 0,-2 2,-5 4,-5z"/>
   <path class="fil0 str0" d="M121 463c2,0 4,2 4,5 0,2 -2,5 -4,5 -2,0 -3,-3 -3,-5 0,-3 1,-5 3,-5z"/>
   <path class="fil0 str0" d="M124 466c2,0 4,2 4,5 0,3 -2,5 -4,5 -2,0 -4,-2 -4,-5 0,-3 2,-5 4,-5z"/>
   <path class="fil0 str0" d="M128 467c2,0 4,3 4,5 0,3 -2,5 -4,5 -2,0 -4,-2 -4,-5 0,-2 2,-5 4,-5z"/>
   <path class="fil0 str0" d="M129 463c2,0 4,2 4,5 0,3 -2,5 -4,5 -2,0 -4,-2 -4,-5 0,-3 2,-5 4,-5z"/>
   <path class="fil0 str0" d="M129 459c2,0 4,2 4,5 0,2 -2,5 -4,5 -2,0 -4,-3 -4,-5 0,-3 2,-5 4,-5z"/>
   <path class="fil0 str0" d="M128 455c2,0 4,2 4,4 0,3 -2,5 -4,5 -2,0 -4,-2 -4,-5 0,-2 2,-4 4,-4z"/>
   <path class="fil0 str0" d="M127 450c2,0 4,3 4,5 0,3 -2,5 -4,5 -2,0 -3,-2 -3,-5 0,-2 1,-5 3,-5z"/>
   <path class="fil0 str0" d="M126 446c2,0 4,2 4,5 0,3 -2,5 -4,5 -2,0 -4,-2 -4,-5 0,-3 2,-5 4,-5z"/>
   <path class="fil0 str0" d="M125 442c2,0 4,2 4,5 0,3 -2,5 -4,5 -2,0 -4,-2 -4,-5 0,-3 2,-5 4,-5z"/>
   <path class="fil0 str0" d="M123 438c2,0 4,2 4,5 0,3 -2,5 -4,5 -2,0 -4,-2 -4,-5 0,-3 2,-5 4,-5z"/>
   <path class="fil0 str0" d="M121 435c2,0 3,2 3,5 0,2 -1,4 -3,4 -3,0 -4,-2 -4,-4 0,-3 1,-5 4,-5z"/>
   <path class="fil0 str0" d="M117 433c2,0 4,2 4,5 0,3 -2,5 -4,5 -2,0 -4,-2 -4,-5 0,-3 2,-5 4,-5z"/>
   <path class="fil0 str0" d="M117 437c2,0 3,2 3,5 0,2 -1,4 -3,4 -3,0 -4,-2 -4,-4 0,-3 1,-5 4,-5z"/>
   <path class="fil0 str0" d="M119 440c2,0 4,2 4,5 0,3 -2,5 -4,5 -2,0 -4,-2 -4,-5 0,-3 2,-5 4,-5z"/>
   <path class="fil0 str0" d="M122 444c2,0 3,2 3,4 0,3 -1,5 -3,5 -2,0 -4,-2 -4,-5 0,-2 2,-4 4,-4z"/>
   <path class="fil0 str0" d="M125 447c2,0 4,2 4,4 0,3 -2,5 -4,5 -2,0 -4,-2 -4,-5 0,-2 2,-4 4,-4z"/>
   <path class="fil0 str0" d="M128 449c2,0 4,2 4,5 0,3 -2,5 -4,5 -2,0 -4,-2 -4,-5 0,-3 2,-5 4,-5z"/>
   <path class="fil0 str0" d="M132 451c2,0 4,2 4,5 0,3 -2,5 -4,5 -2,0 -4,-2 -4,-5 0,-3 2,-5 4,-5z"/>
   <path class="fil0 str0" d="M136 451c2,0 4,2 4,5 0,3 -2,5 -4,5 -2,0 -4,-2 -4,-5 0,-3 2,-5 4,-5z"/>
   <path class="fil0 str0" d="M138 447c2,0 4,3 4,5 0,3 -2,5 -4,5 -2,0 -4,-2 -4,-5 0,-2 2,-5 4,-5z"/>
   <path class="fil0 str0" d="M139 443c2,0 4,2 4,5 0,3 -2,5 -4,5 -2,0 -4,-2 -4,-5 0,-3 2,-5 4,-5z"/>
   <path class="fil0 str0" d="M138 439c2,0 4,2 4,5 0,2 -2,5 -4,5 -2,0 -3,-3 -3,-5 0,-3 1,-5 3,-5z"/>
   <path class="fil0 str0" d="M137 435c2,0 4,2 4,5 0,2 -2,4 -4,4 -2,0 -3,-2 -3,-4 0,-3 1,-5 3,-5z"/>
   <path class="fil0 str0" d="M136 431c2,0 4,2 4,5 0,2 -2,4 -4,4 -2,0 -4,-2 -4,-4 0,-3 2,-5 4,-5z"/>
   <path class="fil0 str0" d="M134 427c2,0 4,2 4,5 0,2 -2,5 -4,5 -2,0 -4,-3 -4,-5 0,-3 2,-5 4,-5z"/>
   <path class="fil0 str0" d="M131 423c2,0 4,3 4,5 0,3 -2,5 -4,5 -2,0 -4,-2 -4,-5 0,-2 2,-5 4,-5z"/>
   <path class="fil0 str0" d="M128 421c2,0 4,2 4,5 0,2 -2,5 -4,5 -2,0 -4,-3 -4,-5 0,-3 2,-5 4,-5z"/>
   <path class="fil0 str0" d="M124 422c2,0 4,2 4,5 0,2 -2,4 -4,4 -2,0 -4,-2 -4,-4 0,-3 2,-5 4,-5z"/>
   <path class="fil0 str0" d="M125 426c3,0 4,2 4,5 0,2 -1,4 -4,4 -2,0 -3,-2 -3,-4 0,-3 1,-5 3,-5z"/>
   <path class="fil0 str0" d="M128 429c2,0 4,3 4,5 0,3 -2,5 -4,5 -2,0 -4,-2 -4,-5 0,-2 2,-5 4,-5z"/>
   <path class="fil0 str0" d="M131 433c2,0 3,2 3,5 0,2 -1,4 -3,4 -3,0 -4,-2 -4,-4 0,-3 1,-5 4,-5z"/>
   <path class="fil0 str0" d="M134 436c2,0 3,2 3,5 0,2 -1,4 -3,4 -2,0 -4,-2 -4,-4 0,-3 2,-5 4,-5z"/>
   <path class="fil0 str0" d="M137 438c2,0 4,3 4,5 0,3 -2,5 -4,5 -2,0 -4,-2 -4,-5 0,-2 2,-5 4,-5z"/>
   <path class="fil0 str0" d="M141 441c2,0 3,2 3,5 0,2 -1,4 -3,4 -2,0 -4,-2 -4,-4 0,-3 2,-5 4,-5z"/>
   <path class="fil0 str0" d="M145 442c2,0 4,2 4,5 0,2 -2,4 -4,4 -2,0 -4,-2 -4,-4 0,-3 2,-5 4,-5z"/>
   <path class="fil0 str0" d="M148 439c2,0 4,2 4,5 0,3 -2,5 -4,5 -2,0 -4,-2 -4,-5 0,-3 2,-5 4,-5z"/>
   <path class="fil0 str0" d="M149 435c2,0 4,2 4,5 0,3 -2,5 -4,5 -2,0 -4,-2 -4,-5 0,-3 2,-5 4,-5z"/>
   <path class="fil0 str0" d="M149 431c2,0 4,2 4,5 0,2 -2,5 -4,5 -2,0 -4,-3 -4,-5 0,-3 2,-5 4,-5z"/>
   <path class="fil0 str0" d="M148 427c2,0 4,2 4,4 0,3 -2,5 -4,5 -2,0 -3,-2 -3,-5 0,-2 1,-4 3,-4z"/>
   <path class="fil0 str0" d="M147 422c2,0 4,3 4,5 0,3 -2,5 -4,5 -2,0 -4,-2 -4,-5 0,-2 2,-5 4,-5z"/>
   <path class="fil0 str0" d="M146 418c2,0 4,2 4,5 0,3 -2,5 -4,5 -2,0 -4,-2 -4,-5 0,-3 2,-5 4,-5z"/>
   <path class="fil0 str0" d="M144 414c2,0 4,2 4,5 0,3 -2,5 -4,5 -2,0 -4,-2 -4,-5 0,-3 2,-5 4,-5z"/>
   <path class="fil0 str0" d="M142 410c2,0 4,3 4,5 0,3 -2,5 -4,5 -2,0 -3,-2 -3,-5 0,-2 1,-5 3,-5z"/>
   <path class="fil0 str0" d="M140 407c2,0 4,2 4,5 0,2 -2,4 -4,4 -2,0 -4,-2 -4,-4 0,-3 2,-5 4,-5z"/>
   <path class="fil0 str0" d="M137 404c2,0 4,2 4,5 0,2 -2,4 -4,4 -2,0 -4,-2 -4,-4 0,-3 2,-5 4,-5z"/>
   <path class="fil0 str0" d="M134 405c2,0 4,2 4,5 0,3 -2,5 -4,5 -2,0 -4,-2 -4,-5 0,-3 2,-5 4,-5z"/>
   <path class="fil0 str0" d="M135 409c2,0 4,3 4,5 0,3 -2,5 -4,5 -2,0 -4,-2 -4,-5 0,-2 2,-5 4,-5z"/>
   <path class="fil0 str0" d="M137 413c2,0 3,3 3,5 0,3 -1,5 -3,5 -3,0 -4,-2 -4,-5 0,-2 1,-5 4,-5z"/>
   <path class="fil0 str0" d="M139 417c2,0 3,2 3,5 0,3 -1,5 -3,5 -2,0 -4,-2 -4,-5 0,-3 2,-5 4,-5z"/>
   <path class="fil0 str0" d="M141 421c2,0 4,2 4,5 0,2 -2,5 -4,5 -2,0 -4,-3 -4,-5 0,-3 2,-5 4,-5z"/>
   <path class="fil0 str0" d="M144 424c2,0 3,3 3,5 0,3 -1,5 -3,5 -3,0 -4,-2 -4,-5 0,-2 1,-5 4,-5z"/>
   <path class="fil0 str0" d="M146 428c3,0 4,2 4,4 0,3 -1,5 -4,5 -2,0 -3,-2 -3,-5 0,-2 1,-4 3,-4z"/>
   <path class="fil0 str0" d="M150 430c2,0 3,3 3,5 0,3 -1,5 -3,5 -2,0 -4,-2 -4,-5 0,-2 2,-5 4,-5z"/>
   <path class="fil0 str0" d="M154 432c2,0 3,2 3,5 0,3 -1,5 -3,5 -3,0 -4,-2 -4,-5 0,-3 1,-5 4,-5z"/>
   <path class="fil0 str0" d="M157 430c2,0 4,2 4,5 0,3 -2,5 -4,5 -2,0 -4,-2 -4,-5 0,-3 2,-5 4,-5z"/>
   <path class="fil0 str0" d="M158 426c2,0 4,2 4,5 0,2 -2,5 -4,5 -2,0 -4,-3 -4,-5 0,-3 2,-5 4,-5z"/>
   <path class="fil0 str0" d="M158 422c2,0 4,2 4,4 0,3 -2,5 -4,5 -2,0 -3,-2 -3,-5 0,-2 1,-4 3,-4z"/>
   <path class="fil0 str0" d="M158 417c2,0 4,2 4,5 0,3 -2,5 -4,5 -2,0 -4,-2 -4,-5 0,-3 2,-5 4,-5z"/>
   <path class="fil0 str0" d="M158 413c2,0 4,2 4,5 0,3 -2,5 -4,5 -2,0 -4,-2 -4,-5 0,-3 2,-5 4,-5z"/>
   <path class="fil0 str0" d="M157 409c2,0 4,2 4,5 0,2 -2,4 -4,4 -2,0 -4,-2 -4,-4 0,-3 2,-5 4,-5z"/>
   <path class="fil0 str0" d="M156 405c2,0 4,2 4,4 0,3 -2,5 -4,5 -2,0 -4,-2 -4,-5 0,-2 2,-4 4,-4z"/>
   <path class="fil0 str0" d="M155 400c2,0 3,3 3,5 0,3 -1,5 -3,5 -2,0 -4,-2 -4,-5 0,-2 2,-5 4,-5z"/>
   <path class="fil0 str0" d="M152 402c2,0 4,2 4,5 0,2 -2,4 -4,4 -2,0 -4,-2 -4,-4 0,-3 2,-5 4,-5z"/>
   <path class="fil0 str0" d="M152 406c2,0 4,2 4,5 0,3 -2,5 -4,5 -2,0 -4,-2 -4,-5 0,-3 2,-5 4,-5z"/>
   <path class="fil0 str0" d="M153 410c2,0 4,2 4,5 0,3 -2,5 -4,5 -2,0 -4,-2 -4,-5 0,-3 2,-5 4,-5z"/>
   <path class="fil0 str0" d="M155 414c2,0 3,2 3,5 0,3 -1,5 -3,5 -2,0 -4,-2 -4,-5 0,-3 2,-5 4,-5z"/>
   <path class="fil0 str0" d="M157 418c2,0 4,2 4,5 0,2 -2,4 -4,4 -2,0 -4,-2 -4,-4 0,-3 2,-5 4,-5z"/>
   <path class="fil0 str0" d="M160 421c2,0 4,2 4,5 0,3 -2,5 -4,5 -2,0 -4,-2 -4,-5 0,-3 2,-5 4,-5z"/>
   <path class="fil0 str0" d="M163 424c2,0 4,2 4,5 0,2 -2,5 -4,5 -2,0 -4,-3 -4,-5 0,-3 2,-5 4,-5z"/>
   <path class="fil0 str0" d="M167 426c2,0 4,2 4,5 0,3 -2,5 -4,5 -2,0 -4,-2 -4,-5 0,-3 2,-5 4,-5z"/>
   <path class="fil0 str0" d="M170 425c2,0 4,2 4,5 0,2 -2,5 -4,5 -2,0 -3,-3 -3,-5 0,-3 1,-5 3,-5z"/>
   <path class="fil0 str0" d="M171 421c2,0 3,2 3,4 0,3 -1,5 -3,5 -2,0 -4,-2 -4,-5 0,-2 2,-4 4,-4z"/>
   <path class="fil0 str0" d="M171 416c2,0 3,2 3,5 0,3 -1,5 -3,5 -2,0 -4,-2 -4,-5 0,-3 2,-5 4,-5z"/>
   <path class="fil0 str0" d="M171 412c2,0 3,2 3,5 0,3 -1,5 -3,5 -3,0 -4,-2 -4,-5 0,-3 1,-5 4,-5z"/>
   <path class="fil0 str0" d="M170 408c3,0 4,2 4,5 0,2 -1,4 -4,4 -2,0 -3,-2 -3,-4 0,-3 1,-5 3,-5z"/>
   <path class="fil0 str0" d="M170 403c2,0 4,2 4,5 0,3 -2,5 -4,5 -2,0 -4,-2 -4,-5 0,-3 2,-5 4,-5z"/>
   <path class="fil0 str0" d="M170 399c2,0 4,2 4,5 0,3 -2,5 -4,5 -2,0 -4,-2 -4,-5 0,-3 2,-5 4,-5z"/>
   <path class="fil0 str0" d="M170 395c2,0 3,2 3,5 0,2 -1,4 -3,4 -2,0 -4,-2 -4,-4 0,-3 2,-5 4,-5z"/>
   <path class="fil0 str0" d="M169 390c2,0 4,3 4,5 0,3 -2,5 -4,5 -2,0 -4,-2 -4,-5 0,-2 2,-5 4,-5z"/>
   <path class="fil0 str0" d="M167 391c2,0 4,2 4,5 0,2 -2,5 -4,5 -2,0 -3,-3 -3,-5 0,-3 1,-5 3,-5z"/>
   <path class="fil0 str0" d="M167 395c2,0 3,2 3,5 0,3 -1,5 -3,5 -2,0 -4,-2 -4,-5 0,-3 2,-5 4,-5z"/>
   <path class="fil0 str0" d="M167 400c2,0 4,2 4,4 0,3 -2,5 -4,5 -2,0 -4,-2 -4,-5 0,-2 2,-4 4,-4z"/>
   <path class="fil0 str0" d="M167 404c3,0 4,2 4,5 0,2 -1,5 -4,5 -2,0 -3,-3 -3,-5 0,-3 1,-5 3,-5z"/>
   <path class="fil0 str0" d="M169 408c2,0 3,2 3,5 0,2 -1,5 -3,5 -2,0 -4,-3 -4,-5 0,-3 2,-5 4,-5z"/>
   <path class="fil0 str0" d="M170 412c3,0 4,2 4,5 0,2 -1,5 -4,5 -2,0 -3,-3 -3,-5 0,-3 1,-5 3,-5z"/>
   <path class="fil0 str0" d="M173 416c2,0 3,2 3,4 0,3 -1,5 -3,5 -2,0 -4,-2 -4,-5 0,-2 2,-4 4,-4z"/>
   <path class="fil0 str0" d="M175 419c2,0 4,2 4,5 0,3 -2,5 -4,5 -2,0 -3,-2 -3,-5 0,-3 1,-5 3,-5z"/>
   <path class="fil0 str0" d="M179 422c2,0 4,2 4,4 0,3 -2,5 -4,5 -2,0 -4,-2 -4,-5 0,-2 2,-4 4,-4z"/>
   <path class="fil0 str0" d="M183 422c2,0 4,2 4,5 0,3 -2,5 -4,5 -2,0 -4,-2 -4,-5 0,-3 2,-5 4,-5z"/>
   <path class="fil0 str0" d="M187 420c2,0 4,3 4,5 0,3 -2,5 -4,5 -2,0 -4,-2 -4,-5 0,-2 2,-5 4,-5z"/>
   <path class="fil0 str0" d="M190 417c2,0 4,2 4,5 0,3 -2,5 -4,5 -2,0 -4,-2 -4,-5 0,-3 2,-5 4,-5z"/>
   <path class="fil0 str0" d="M192 414c2,0 4,2 4,4 0,3 -2,5 -4,5 -2,0 -4,-2 -4,-5 0,-2 2,-4 4,-4z"/>
   <path class="fil0 str0" d="M194 410c2,0 3,2 3,4 0,3 -1,5 -3,5 -3,0 -4,-2 -4,-5 0,-2 1,-4 4,-4z"/>
   <path class="fil0 str0" d="M194 405c2,0 4,2 4,5 0,3 -2,5 -4,5 -2,0 -4,-2 -4,-5 0,-3 2,-5 4,-5z"/>
   <path class="fil0 str0" d="M193 401c2,0 4,2 4,5 0,3 -2,5 -4,5 -2,0 -3,-2 -3,-5 0,-3 1,-5 3,-5z"/>
   <path class="fil0 str0" d="M191 397c2,0 4,2 4,5 0,3 -2,5 -4,5 -2,0 -4,-2 -4,-5 0,-3 2,-5 4,-5z"/>
   <path class="fil0 str0" d="M189 394c2,0 3,2 3,5 0,2 -1,5 -3,5 -3,0 -4,-3 -4,-5 0,-3 1,-5 4,-5z"/>
   <path class="fil0 str0" d="M185 391c2,0 4,2 4,5 0,2 -2,5 -4,5 -2,0 -3,-3 -3,-5 0,-3 1,-5 3,-5z"/>
   <path class="fil0 str0" d="M181 389c3,0 4,2 4,5 0,3 -1,5 -4,5 -2,0 -3,-2 -3,-5 0,-3 1,-5 3,-5z"/>
   <path class="fil0 str0" d="M178 391c2,0 3,2 3,4 0,3 -1,5 -3,5 -2,0 -4,-2 -4,-5 0,-2 2,-4 4,-4z"/>
   <path class="fil0 str0" d="M176 395c2,0 4,2 4,4 0,3 -2,5 -4,5 -2,0 -4,-2 -4,-5 0,-2 2,-4 4,-4z"/>
   <path class="fil0 str0" d="M176 399c2,0 4,2 4,5 0,2 -2,5 -4,5 -2,0 -4,-3 -4,-5 0,-3 2,-5 4,-5z"/>
   <path class="fil0 str0" d="M176 403c2,0 4,2 4,5 0,3 -2,5 -4,5 -2,0 -4,-2 -4,-5 0,-3 2,-5 4,-5z"/>
   <path class="fil0 str0" d="M177 407c2,0 4,2 4,5 0,3 -2,5 -4,5 -2,0 -4,-2 -4,-5 0,-3 2,-5 4,-5z"/>
   <path class="fil0 str0" d="M546 433c2,0 3,2 3,4 0,3 -1,5 -3,5 -2,0 -4,-2 -4,-5 0,-2 2,-4 4,-4z"/>
   <path class="fil0 str0" d="M550 431c2,0 3,2 3,5 0,2 -1,4 -3,4 -2,0 -4,-2 -4,-4 0,-3 2,-5 4,-5z"/>
   <path class="fil0 str0" d="M553 428c2,0 4,2 4,5 0,3 -2,5 -4,5 -2,0 -4,-2 -4,-5 0,-3 2,-5 4,-5z"/>
   <path class="fil0 str0" d="M556 425c2,0 4,2 4,5 0,3 -2,5 -4,5 -2,0 -4,-2 -4,-5 0,-3 2,-5 4,-5z"/>
   <path class="fil0 str0" d="M558 421c2,0 4,3 4,5 0,3 -2,5 -4,5 -2,0 -4,-2 -4,-5 0,-2 2,-5 4,-5z"/>
   <path class="fil0 str0" d="M559 417c2,0 4,2 4,5 0,3 -2,5 -4,5 -2,0 -3,-2 -3,-5 0,-3 1,-5 3,-5z"/>
   <path class="fil0 str0" d="M560 413c2,0 4,2 4,5 0,2 -2,5 -4,5 -2,0 -4,-3 -4,-5 0,-3 2,-5 4,-5z"/>
   <path class="fil0 str0" d="M560 409c2,0 3,2 3,4 0,3 -1,5 -3,5 -3,0 -4,-2 -4,-5 0,-2 1,-4 4,-4z"/>
   <path class="fil0 str0" d="M558 405c2,0 3,2 3,5 0,2 -1,5 -3,5 -2,0 -4,-3 -4,-5 0,-3 2,-5 4,-5z"/>
   <path class="fil0 str0" d="M554 404c2,0 3,2 3,5 0,3 -1,5 -3,5 -2,0 -4,-2 -4,-5 0,-3 2,-5 4,-5z"/>
   <path class="fil0 str0" d="M550 406c2,0 4,2 4,5 0,3 -2,5 -4,5 -2,0 -4,-2 -4,-5 0,-3 2,-5 4,-5z"/>
   <path class="fil0 str0" d="M547 409c2,0 4,2 4,5 0,3 -2,5 -4,5 -2,0 -4,-2 -4,-5 0,-3 2,-5 4,-5z"/>
   <path class="fil0 str0" d="M544 413c3,0 4,2 4,5 0,2 -1,4 -4,4 -2,0 -3,-2 -3,-4 0,-3 1,-5 3,-5z"/>
   <path class="fil0 str0" d="M542 416c2,0 4,3 4,5 0,3 -2,5 -4,5 -2,0 -4,-2 -4,-5 0,-2 2,-5 4,-5z"/>
   <path class="fil0 str0" d="M540 420c2,0 4,2 4,5 0,3 -2,5 -4,5 -2,0 -4,-2 -4,-5 0,-3 2,-5 4,-5z"/>
   <path class="fil0 str0" d="M538 424c2,0 4,2 4,5 0,3 -2,5 -4,5 -2,0 -4,-2 -4,-5 0,-3 2,-5 4,-5z"/>
   <path class="fil0 str0" d="M536 428c2,0 4,2 4,5 0,3 -2,5 -4,5 -2,0 -4,-2 -4,-5 0,-3 2,-5 4,-5z"/>
   <path class="fil0 str0" d="M537 427c2,0 4,2 4,5 0,3 -2,5 -4,5 -2,0 -4,-2 -4,-5 0,-3 2,-5 4,-5z"/>
   <path class="fil0 str0" d="M539 423c2,0 4,3 4,5 0,3 -2,5 -4,5 -2,0 -3,-2 -3,-5 0,-2 1,-5 3,-5z"/>
   <path class="fil0 str0" d="M541 420c3,0 4,2 4,5 0,2 -1,4 -4,4 -2,0 -3,-2 -3,-4 0,-3 1,-5 3,-5z"/>
   <path class="fil0 str0" d="M543 416c3,0 4,2 4,5 0,2 -1,5 -4,5 -2,0 -3,-3 -3,-5 0,-3 1,-5 3,-5z"/>
   <path class="fil0 str0" d="M545 412c3,0 4,2 4,5 0,3 -1,5 -4,5 -2,0 -3,-2 -3,-5 0,-3 1,-5 3,-5z"/>
   <path class="fil0 str0" d="M547 408c2,0 4,2 4,5 0,3 -2,5 -4,5 -2,0 -4,-2 -4,-5 0,-3 2,-5 4,-5z"/>
   <path class="fil0 str0" d="M549 404c2,0 3,2 3,5 0,3 -1,5 -3,5 -3,0 -4,-2 -4,-5 0,-3 1,-5 4,-5z"/>
   <path class="fil0 str0" d="M548 400c2,0 4,2 4,5 0,3 -2,5 -4,5 -2,0 -4,-2 -4,-5 0,-3 2,-5 4,-5z"/>
   <path class="fil0 str0" d="M544 401c2,0 4,2 4,5 0,3 -2,5 -4,5 -2,0 -4,-2 -4,-5 0,-3 2,-5 4,-5z"/>
   <path class="fil0 str0" d="M540 404c2,0 4,2 4,4 0,3 -2,5 -4,5 -2,0 -4,-2 -4,-5 0,-2 2,-4 4,-4z"/>
   <path class="fil0 str0" d="M537 406c2,0 3,2 3,5 0,3 -1,5 -3,5 -2,0 -4,-2 -4,-5 0,-3 2,-5 4,-5z"/>
   <path class="fil0 str0" d="M533 409c3,0 4,2 4,5 0,3 -1,5 -4,5 -2,0 -3,-2 -3,-5 0,-3 1,-5 3,-5z"/>
   <path class="fil0 str0" d="M530 412c2,0 4,2 4,5 0,3 -2,5 -4,5 -2,0 -3,-2 -3,-5 0,-3 1,-5 3,-5z"/>
   <path class="fil0 str0" d="M528 415c2,0 3,3 3,5 0,3 -1,5 -3,5 -3,0 -4,-2 -4,-5 0,-2 1,-5 4,-5z"/>
   <path class="fil0 str0" d="M525 419c2,0 4,2 4,5 0,3 -2,5 -4,5 -2,0 -4,-2 -4,-5 0,-3 2,-5 4,-5z"/>
   <path class="fil0 str0" d="M523 423c2,0 4,2 4,5 0,2 -2,5 -4,5 -2,0 -4,-3 -4,-5 0,-3 2,-5 4,-5z"/>
   <path class="fil0 str0" d="M524 427c2,0 3,2 3,5 0,3 -1,5 -3,5 -2,0 -4,-2 -4,-5 0,-3 2,-5 4,-5z"/>
   <path class="fil0 str0" d="M527 425c2,0 4,3 4,5 0,3 -2,5 -4,5 -2,0 -4,-2 -4,-5 0,-2 2,-5 4,-5z"/>
   <path class="fil0 str0" d="M529 422c2,0 4,2 4,4 0,3 -2,5 -4,5 -2,0 -4,-2 -4,-5 0,-2 2,-4 4,-4z"/>
   <path class="fil0 str0" d="M530 418c3,0 4,2 4,4 0,3 -1,5 -4,5 -2,0 -3,-2 -3,-5 0,-2 1,-4 3,-4z"/>
   <path class="fil0 str0" d="M531 413c3,0 4,2 4,5 0,3 -1,5 -4,5 -2,0 -3,-2 -3,-5 0,-3 1,-5 3,-5z"/>
   <path class="fil0 str0" d="M532 409c2,0 4,2 4,5 0,3 -2,5 -4,5 -2,0 -4,-2 -4,-5 0,-3 2,-5 4,-5z"/>
   <path class="fil0 str0" d="M532 405c2,0 4,2 4,5 0,2 -2,4 -4,4 -2,0 -4,-2 -4,-4 0,-3 2,-5 4,-5z"/>
   <path class="fil0 str0" d="M530 401c2,0 3,2 3,5 0,3 -1,5 -3,5 -2,0 -4,-2 -4,-5 0,-3 2,-5 4,-5z"/>
   <path class="fil0 str0" d="M525 401c3,0 4,2 4,5 0,3 -1,5 -4,5 -2,0 -3,-2 -3,-5 0,-3 1,-5 3,-5z"/>
   <path class="fil0 str0" d="M521 403c3,0 4,2 4,5 0,2 -1,5 -4,5 -2,0 -3,-3 -3,-5 0,-3 1,-5 3,-5z"/>
   <path class="fil0 str0" d="M518 405c2,0 4,3 4,5 0,3 -2,5 -4,5 -2,0 -4,-2 -4,-5 0,-2 2,-5 4,-5z"/>
   <path class="fil0 str0" d="M515 408c2,0 4,2 4,5 0,3 -2,5 -4,5 -2,0 -4,-2 -4,-5 0,-3 2,-5 4,-5z"/>
   <path class="fil0 str0" d="M512 412c2,0 4,2 4,5 0,2 -2,4 -4,4 -2,0 -4,-2 -4,-4 0,-3 2,-5 4,-5z"/>
   <path class="fil0 str0" d="M510 415c2,0 4,2 4,5 0,3 -2,5 -4,5 -2,0 -4,-2 -4,-5 0,-3 2,-5 4,-5z"/>
   <path class="fil0 str0" d="M508 419c2,0 4,2 4,5 0,3 -2,5 -4,5 -2,0 -4,-2 -4,-5 0,-3 2,-5 4,-5z"/>
   <path class="fil0 str0" d="M508 424c2,0 3,2 3,4 0,3 -1,5 -3,5 -3,0 -4,-2 -4,-5 0,-2 1,-4 4,-4z"/>
   <path class="fil0 str0" d="M510 426c2,0 4,2 4,5 0,3 -2,5 -4,5 -2,0 -4,-2 -4,-5 0,-3 2,-5 4,-5z"/>
   <path class="fil0 str0" d="M513 423c2,0 4,2 4,5 0,3 -2,5 -4,5 -2,0 -4,-2 -4,-5 0,-3 2,-5 4,-5z"/>
   <path class="fil0 str0" d="M515 419c2,0 4,2 4,5 0,3 -2,5 -4,5 -2,0 -4,-2 -4,-5 0,-3 2,-5 4,-5z"/>
   <path class="fil0 str0" d="M516 415c3,0 4,2 4,5 0,3 -1,5 -4,5 -2,0 -3,-2 -3,-5 0,-3 1,-5 3,-5z"/>
   <path class="fil0 str0" d="M518 411c2,0 3,2 3,5 0,3 -1,5 -3,5 -2,0 -4,-2 -4,-5 0,-3 2,-5 4,-5z"/>
   <path class="fil0 str0" d="M518 407c2,0 4,2 4,5 0,2 -2,5 -4,5 -2,0 -3,-3 -3,-5 0,-3 1,-5 3,-5z"/>
   <path class="fil0 str0" d="M518 402c2,0 4,3 4,5 0,3 -2,5 -4,5 -2,0 -3,-2 -3,-5 0,-2 1,-5 3,-5z"/>
   <path class="fil0 str0" d="M517 398c2,0 4,3 4,5 0,3 -2,5 -4,5 -2,0 -4,-2 -4,-5 0,-2 2,-5 4,-5z"/>
   <path class="fil0 str0" d="M513 397c2,0 4,2 4,4 0,3 -2,5 -4,5 -2,0 -3,-2 -3,-5 0,-2 1,-4 3,-4z"/>
   <path class="fil0 str0" d="M509 398c2,0 4,2 4,5 0,2 -2,5 -4,5 -2,0 -4,-3 -4,-5 0,-3 2,-5 4,-5z"/>
   <path class="fil0 str0" d="M506 400c2,0 3,2 3,5 0,3 -1,5 -3,5 -3,0 -4,-2 -4,-5 0,-3 1,-5 4,-5z"/>
   <path class="fil0 str0" d="M502 403c2,0 4,2 4,5 0,2 -2,5 -4,5 -2,0 -4,-3 -4,-5 0,-3 2,-5 4,-5z"/>
   <path class="fil0 str0" d="M499 406c2,0 4,2 4,5 0,2 -2,5 -4,5 -2,0 -4,-3 -4,-5 0,-3 2,-5 4,-5z"/>
   <path class="fil0 str0" d="M496 409c2,0 4,2 4,5 0,3 -2,5 -4,5 -2,0 -3,-2 -3,-5 0,-3 1,-5 3,-5z"/>
   <path class="fil0 str0" d="M494 413c2,0 4,2 4,4 0,3 -2,5 -4,5 -2,0 -4,-2 -4,-5 0,-2 2,-4 4,-4z"/>
   <path class="fil0 str0" d="M491 416c2,0 4,2 4,5 0,3 -2,5 -4,5 -2,0 -3,-2 -3,-5 0,-3 1,-5 3,-5z"/>
   <path class="fil0 str0" d="M489 420c2,0 4,2 4,5 0,3 -2,5 -4,5 -2,0 -4,-2 -4,-5 0,-3 2,-5 4,-5z"/>
   <path class="fil0 str0" d="M488 424c2,0 4,2 4,5 0,3 -2,5 -4,5 -2,0 -4,-2 -4,-5 0,-3 2,-5 4,-5z"/>
   <path class="fil0 str0" d="M491 426c2,0 4,2 4,5 0,2 -2,5 -4,5 -2,0 -4,-3 -4,-5 0,-3 2,-5 4,-5z"/>
   <path class="fil0 str0" d="M494 423c2,0 4,2 4,5 0,3 -2,5 -4,5 -2,0 -4,-2 -4,-5 0,-3 2,-5 4,-5z"/>
   <path class="fil0 str0" d="M497 420c2,0 4,2 4,4 0,3 -2,5 -4,5 -2,0 -4,-2 -4,-5 0,-2 2,-4 4,-4z"/>
   <path class="fil0 str0" d="M499 416c2,0 4,2 4,5 0,2 -2,5 -4,5 -2,0 -4,-3 -4,-5 0,-3 2,-5 4,-5z"/>
   <path class="fil0 str0" d="M501 412c2,0 4,2 4,5 0,3 -2,5 -4,5 -2,0 -4,-2 -4,-5 0,-3 2,-5 4,-5z"/>
   <path class="fil0 str0" d="M503 408c2,0 4,2 4,5 0,3 -2,5 -4,5 -2,0 -4,-2 -4,-5 0,-3 2,-5 4,-5z"/>
   <path class="fil0 str0" d="M504 404c2,0 4,2 4,5 0,3 -2,5 -4,5 -2,0 -4,-2 -4,-5 0,-3 2,-5 4,-5z"/>
   <path class="fil0 str0" d="M505 400c2,0 4,2 4,5 0,2 -2,5 -4,5 -2,0 -4,-3 -4,-5 0,-3 2,-5 4,-5z"/>
   <path class="fil0 str0" d="M505 396c2,0 3,2 3,4 0,3 -1,5 -3,5 -3,0 -4,-2 -4,-5 0,-2 1,-4 4,-4z"/>
   <path class="fil0 str0" d="M501 394c2,0 4,2 4,5 0,2 -2,4 -4,4 -2,0 -4,-2 -4,-4 0,-3 2,-5 4,-5z"/>
   <path class="fil0 str0" d="M497 395c2,0 4,2 4,5 0,2 -2,4 -4,4 -2,0 -4,-2 -4,-4 0,-3 2,-5 4,-5z"/>
   <path class="fil0 str0" d="M493 397c2,0 4,2 4,5 0,2 -2,4 -4,4 -2,0 -4,-2 -4,-4 0,-3 2,-5 4,-5z"/>
   <path class="fil0 str0" d="M489 399c2,0 4,2 4,5 0,2 -2,5 -4,5 -2,0 -3,-3 -3,-5 0,-3 1,-5 3,-5z"/>
   <path class="fil0 str0" d="M486 401c2,0 4,3 4,5 0,3 -2,5 -4,5 -2,0 -4,-2 -4,-5 0,-2 2,-5 4,-5z"/>
   <path class="fil0 str0" d="M482 404c3,0 4,2 4,5 0,3 -1,5 -4,5 -2,0 -3,-2 -3,-5 0,-3 1,-5 3,-5z"/>
   <path class="fil0 str0" d="M479 407c2,0 4,2 4,5 0,3 -2,5 -4,5 -2,0 -4,-2 -4,-5 0,-3 2,-5 4,-5z"/>
   <path class="fil0 str0" d="M477 410c2,0 3,3 3,5 0,3 -1,5 -3,5 -3,0 -4,-2 -4,-5 0,-2 1,-5 4,-5z"/>
   <path class="fil0 str0" d="M479 412c2,0 4,2 4,5 0,3 -2,5 -4,5 -2,0 -4,-2 -4,-5 0,-3 2,-5 4,-5z"/>
   <path class="fil0 str0" d="M483 410c2,0 4,2 4,5 0,3 -2,5 -4,5 -2,0 -4,-2 -4,-5 0,-3 2,-5 4,-5z"/>
   <path class="fil0 str0" d="M486 407c2,0 4,2 4,5 0,3 -2,5 -4,5 -2,0 -4,-2 -4,-5 0,-3 2,-5 4,-5z"/>
   <path class="fil0 str0" d="M488 404c2,0 4,2 4,4 0,3 -2,5 -4,5 -2,0 -3,-2 -3,-5 0,-2 1,-4 3,-4z"/>
   <path class="fil0 str0" d="M490 400c2,0 4,2 4,5 0,2 -2,4 -4,4 -2,0 -4,-2 -4,-4 0,-3 2,-5 4,-5z"/>
   <path class="fil0 str0" d="M492 396c2,0 4,2 4,5 0,2 -2,4 -4,4 -2,0 -4,-2 -4,-4 0,-3 2,-5 4,-5z"/>
   <path class="fil0 str0" d="M493 391c2,0 3,3 3,5 0,3 -1,5 -3,5 -2,0 -4,-2 -4,-5 0,-2 2,-5 4,-5z"/>
   <path class="fil0 str0" d="M493 387c2,0 3,2 3,5 0,3 -1,5 -3,5 -2,0 -4,-2 -4,-5 0,-3 2,-5 4,-5z"/>
   <path class="fil0 str0" d="M490 385c2,0 4,2 4,5 0,2 -2,4 -4,4 -2,0 -4,-2 -4,-4 0,-3 2,-5 4,-5z"/>
   <path class="fil0 str0" d="M486 387c2,0 4,2 4,4 0,3 -2,5 -4,5 -2,0 -4,-2 -4,-5 0,-2 2,-4 4,-4z"/>
   <path class="fil0 str0" d="M482 389c2,0 4,2 4,5 0,2 -2,4 -4,4 -2,0 -4,-2 -4,-4 0,-3 2,-5 4,-5z"/>
   <path class="fil0 str0" d="M479 391c2,0 3,2 3,5 0,2 -1,5 -3,5 -3,0 -4,-3 -4,-5 0,-3 1,-5 4,-5z"/>
   <path class="fil0 str0" d="M475 393c2,0 4,2 4,5 0,3 -2,5 -4,5 -2,0 -4,-2 -4,-5 0,-3 2,-5 4,-5z"/>
   <path class="fil0 str0" d="M471 396c2,0 4,2 4,4 0,3 -2,5 -4,5 -2,0 -4,-2 -4,-5 0,-2 2,-4 4,-4z"/>
   <path class="fil0 str0" d="M468 398c2,0 3,2 3,5 0,2 -1,5 -3,5 -3,0 -4,-3 -4,-5 0,-3 1,-5 4,-5z"/>
   <path class="fil0 str0" d="M464 400c2,0 4,3 4,5 0,3 -2,5 -4,5 -2,0 -4,-2 -4,-5 0,-2 2,-5 4,-5z"/>
   <path class="fil0 str0" d="M461 403c2,0 3,2 3,5 0,3 -1,5 -3,5 -2,0 -4,-2 -4,-5 0,-3 2,-5 4,-5z"/>
   <path class="fil0 str0" d="M462 404c2,0 4,2 4,5 0,3 -2,5 -4,5 -2,0 -4,-2 -4,-5 0,-3 2,-5 4,-5z"/>
   <path class="fil0 str0" d="M466 403c2,0 4,2 4,5 0,2 -2,4 -4,4 -2,0 -4,-2 -4,-4 0,-3 2,-5 4,-5z"/>
   <path class="fil0 str0" d="M470 400c2,0 3,3 3,5 0,3 -1,5 -3,5 -2,0 -4,-2 -4,-5 0,-2 2,-5 4,-5z"/>
   <path class="fil0 str0" d="M473 398c2,0 4,2 4,5 0,2 -2,4 -4,4 -2,0 -4,-2 -4,-4 0,-3 2,-5 4,-5z"/>
   <path class="fil0 str0" d="M476 395c2,0 4,2 4,4 0,3 -2,5 -4,5 -2,0 -4,-2 -4,-5 0,-2 2,-4 4,-4z"/>
   <path class="fil0 str0" d="M479 391c2,0 3,2 3,5 0,3 -1,5 -3,5 -3,0 -4,-2 -4,-5 0,-3 1,-5 4,-5z"/>
   <path class="fil0 str0" d="M481 387c2,0 3,2 3,5 0,3 -1,5 -3,5 -2,0 -4,-2 -4,-5 0,-3 2,-5 4,-5z"/>
   <path class="fil0 str0" d="M482 383c2,0 4,2 4,5 0,3 -2,5 -4,5 -2,0 -4,-2 -4,-5 0,-3 2,-5 4,-5z"/>
   <path class="fil0 str0" d="M483 379c2,0 4,2 4,5 0,3 -2,5 -4,5 -2,0 -4,-2 -4,-5 0,-3 2,-5 4,-5z"/>
   <path class="fil0 str0" d="M481 375c2,0 4,2 4,5 0,3 -2,5 -4,5 -2,0 -3,-2 -3,-5 0,-3 1,-5 3,-5z"/>
   <path class="fil0 str0" d="M478 373c2,0 3,2 3,5 0,2 -1,4 -3,4 -2,0 -4,-2 -4,-4 0,-3 2,-5 4,-5z"/>
   <path class="fil0 str0" d="M474 372c2,0 3,2 3,5 0,2 -1,4 -3,4 -3,0 -4,-2 -4,-4 0,-3 1,-5 4,-5z"/>
   <path class="fil0 str0" d="M469 372c2,0 4,2 4,4 0,3 -2,5 -4,5 -2,0 -4,-2 -4,-5 0,-2 2,-4 4,-4z"/>
   <path class="fil0 str0" d="M465 372c2,0 4,2 4,5 0,3 -2,5 -4,5 -2,0 -4,-2 -4,-5 0,-3 2,-5 4,-5z"/>
   <path class="fil0 str0" d="M461 374c2,0 4,2 4,5 0,3 -2,5 -4,5 -2,0 -4,-2 -4,-5 0,-3 2,-5 4,-5z"/>
   <path class="fil0 str0" d="M458 377c2,0 3,2 3,5 0,2 -1,4 -3,4 -2,0 -4,-2 -4,-4 0,-3 2,-5 4,-5z"/>
   <path class="fil0 str0" d="M455 380c3,0 4,3 4,5 0,3 -1,5 -4,5 -2,0 -3,-2 -3,-5 0,-2 1,-5 3,-5z"/>
   <path class="fil0 str0" d="M454 384c2,0 4,3 4,5 0,3 -2,5 -4,5 -2,0 -4,-2 -4,-5 0,-2 2,-5 4,-5z"/>
   <path class="fil0 str0" d="M453 389c2,0 4,2 4,5 0,2 -2,4 -4,4 -2,0 -4,-2 -4,-4 0,-3 2,-5 4,-5z"/>
   <path class="fil0 str0" d="M453 393c2,0 4,2 4,5 0,2 -2,5 -4,5 -2,0 -4,-3 -4,-5 0,-3 2,-5 4,-5z"/>
   <path class="fil0 str0" d="M456 395c2,0 4,3 4,5 0,3 -2,5 -4,5 -2,0 -3,-2 -3,-5 0,-2 1,-5 3,-5z"/>
   <path class="fil0 str0" d="M461 395c2,0 3,2 3,5 0,2 -1,5 -3,5 -2,0 -4,-3 -4,-5 0,-3 2,-5 4,-5z"/>
   <path class="fil0 str0" d="M465 393c2,0 3,2 3,5 0,3 -1,5 -3,5 -3,0 -4,-2 -4,-5 0,-3 1,-5 4,-5z"/>
   <path class="fil0 str0" d="M468 391c2,0 4,2 4,4 0,3 -2,5 -4,5 -2,0 -4,-2 -4,-5 0,-2 2,-4 4,-4z"/>
   <path class="fil0 str0" d="M471 388c2,0 4,2 4,4 0,3 -2,5 -4,5 -2,0 -4,-2 -4,-5 0,-2 2,-4 4,-4z"/>
  </g>
 </g>
</svg>
