<?xml version="1.0" encoding="UTF-8"?>
<!DOCTYPE svg PUBLIC "-//W3C//DTD SVG 1.1//EN" "http://www.w3.org/Graphics/SVG/1.1/DTD/svg11.dtd">
<!-- Creator: CorelDRAW X7 -->
<svg xmlns="http://www.w3.org/2000/svg" xml:space="preserve" width="600px" height="375px" version="1.1" style="shape-rendering:geometricPrecision; text-rendering:geometricPrecision; image-rendering:optimizeQuality; fill-rule:evenodd; clip-rule:evenodd"
viewBox="0 0 600 375"
 xmlns:xlink="http://www.w3.org/1999/xlink">
 <defs>
  <style type="text/css">
   <![CDATA[
    .fil0 {fill:white}
   ]]>
  </style>
 </defs>
 <g id="Layer_x0020_1">
  <metadata id="CorelCorpID_0Corel-Layer"/>
  <path class="fil0" d="M461 214l-92 0 0 101 -47 0 0 -315 75 0 170 315 -51 0 -55 -101zm-92 -40l70 0 -70 -127 0 127zm-369 201l600 0 -26 -48 -548 0 -26 48zm264 -108l0 -53 -79 0 21 -40 58 0 44 0 1 0 0 141 -276 0 170 -315 106 0 0 135 -45 0 0 -93 -24 0 -124 225 148 0z"/>
 </g>
</svg>
