<?xml version="1.0" encoding="UTF-8"?>
<!DOCTYPE svg PUBLIC "-//W3C//DTD SVG 1.1//EN" "http://www.w3.org/Graphics/SVG/1.1/DTD/svg11.dtd">
<!-- Creator: CorelDRAW X7 -->
<svg xmlns="http://www.w3.org/2000/svg" xml:space="preserve" width="600px" height="182px" version="1.1" style="shape-rendering:geometricPrecision; text-rendering:geometricPrecision; image-rendering:optimizeQuality; fill-rule:evenodd; clip-rule:evenodd"
viewBox="0 0 600 182"
 xmlns:xlink="http://www.w3.org/1999/xlink">
 <defs>
  <style type="text/css">
   <![CDATA[
    .fil0 {fill:white;fill-rule:nonzero}
   ]]>
  </style>
 </defs>
 <g id="Layer_x0020_1">
  <metadata id="CorelCorpID_0Corel-Layer"/>
  <g id="_360703000640">
   <path class="fil0" d="M123 78c-8,33 -42,54 -76,45 -33,-8 -53,-42 -45,-76 8,-33 42,-53 76,-45 33,8 54,42 45,76zm-33 -24c1,-9 -5,-13 -14,-16l3 -11 -7 -2 -2 11c-2,-1 -4,-1 -6,-1l3 -11 -7 -2 -3 11c-1,0 -3,-1 -4,-1l0 0 -10 -2 -1 7c0,0 5,1 5,1 2,1 3,3 3,4l-3 13c0,0 0,0 0,0 0,0 0,0 0,0l-5 18c0,1 -1,2 -3,2 0,0 -5,-1 -5,-1l-4 7 9 3c2,0 4,1 5,1l-3 11 7 2 3 -11c2,0 4,1 6,1l-3 11 7 2 3 -11c11,2 20,1 24,-10 3,-8 0,-13 -7,-16 5,-1 8,-4 9,-10zm-15 22l0 0c-3,8 -17,4 -22,3l4 -16c5,2 20,4 18,13zm2 -22l0 0c-2,7 -14,3 -18,2l3 -13c4,1 17,3 15,11z"/>
   <path class="fil0" d="M184 38c5,0 9,1 13,3 3,1 6,4 9,7 2,3 4,7 5,11 1,4 2,8 2,13 0,7 -1,14 -4,21 -3,6 -6,12 -11,17 -5,4 -10,8 -16,11 -7,3 -14,4 -21,4 -1,0 -3,0 -5,0 -2,0 -5,0 -8,-1 -3,0 -7,-1 -10,-1 -3,-1 -7,-2 -10,-4l28 -115 24 -4 -10 41c3,-1 5,-2 7,-2 2,-1 4,-1 7,-1zm-21 68l0 0c4,0 7,-1 10,-3 4,-2 7,-4 9,-7 2,-3 4,-7 6,-10 1,-4 2,-8 2,-12 0,-5 -1,-9 -3,-12 -2,-3 -5,-4 -9,-4 -2,0 -4,0 -6,0 -2,1 -5,2 -7,4l-10 43c1,0 1,0 2,0 0,1 1,1 1,1 1,0 1,0 2,0 1,0 2,0 3,0z"/>
   <path class="fil0" d="M239 123l-24 0 20 -83 24 0 -20 83zm11 -93l0 0c-3,0 -6,-1 -9,-3 -3,-2 -4,-5 -4,-9 0,-3 1,-5 1,-7 1,-2 3,-3 4,-5 2,-1 3,-2 5,-3 2,-1 4,-1 6,-1 4,0 7,1 9,3 3,2 4,4 4,9 0,2 0,4 -1,6 -1,2 -2,3 -4,5 -1,1 -3,2 -5,3 -2,1 -4,2 -6,2z"/>
   <path class="fil0" d="M279 19l25 -4 -6 25 26 0 -5 19 -26 0 -7 29c-1,3 -1,5 -1,7 0,2 0,4 1,5 0,2 1,3 3,4 2,1 4,1 7,1 3,0 5,0 8,0 2,-1 4,-2 7,-2l2 18c-4,1 -7,2 -11,3 -3,1 -8,1 -13,1 -7,0 -13,-1 -17,-3 -4,-2 -7,-5 -8,-9 -2,-4 -3,-8 -3,-13 1,-5 1,-10 3,-15l15 -66z"/>
   <path class="fil0" d="M323 90c0,-7 1,-14 3,-21 3,-6 6,-11 10,-16 5,-5 10,-9 16,-11 6,-3 13,-5 21,-5 5,0 9,1 13,2 3,1 7,2 10,3l-8 19c-2,-1 -5,-2 -7,-3 -2,0 -5,-1 -8,-1 -8,0 -14,3 -19,9 -4,5 -7,12 -7,21 0,6 1,10 4,13 2,4 6,5 13,5 3,0 6,0 9,-1 2,0 5,-1 7,-2l2 19c-3,1 -6,2 -10,3 -4,1 -8,1 -13,1 -6,0 -12,-1 -16,-3 -5,-1 -9,-4 -12,-7 -3,-3 -5,-7 -6,-12 -1,-4 -2,-8 -2,-13z"/>
   <path class="fil0" d="M427 125c-5,0 -10,-1 -14,-2 -5,-2 -8,-4 -11,-7 -2,-3 -4,-7 -6,-11 -1,-4 -2,-9 -2,-14 0,-6 1,-13 3,-19 2,-6 5,-12 9,-17 4,-5 9,-9 15,-13 6,-3 13,-5 20,-5 6,0 10,1 15,3 4,2 7,4 10,7 3,3 5,7 6,11 1,4 2,9 2,14 0,6 -1,13 -3,19 -2,6 -5,12 -9,17 -4,5 -9,9 -14,12 -6,4 -13,5 -21,5zm12 -68l0 0c-4,0 -7,1 -9,3 -3,2 -5,5 -7,8 -2,3 -3,6 -4,10 -1,4 -1,7 -1,10 0,6 0,10 2,13 2,3 5,4 9,4 4,0 7,-1 10,-3 2,-2 4,-4 6,-7 2,-3 3,-7 4,-10 1,-4 2,-8 2,-11 0,-5 -1,-9 -3,-12 -2,-3 -5,-5 -9,-5z"/>
   <path class="fil0" d="M500 123l-24 0 20 -83 24 0 -20 83zm11 -93l0 0c-3,0 -6,-1 -9,-3 -2,-2 -4,-5 -4,-9 0,-3 1,-5 2,-7 0,-2 2,-3 3,-5 2,-1 3,-2 5,-3 2,-1 4,-1 7,-1 3,0 6,1 8,3 3,2 4,4 4,9 0,2 0,4 -1,6 -1,2 -2,3 -4,5 -1,1 -3,2 -5,3 -2,1 -4,2 -6,2z"/>
   <path class="fil0" d="M537 43c1,0 3,-1 5,-1 3,-1 5,-2 8,-2 2,-1 5,-1 9,-2 3,0 7,0 11,0 12,0 21,3 26,11 4,7 5,17 2,29l-11 45 -23 0 10 -44c1,-3 1,-5 2,-8 0,-3 0,-5 0,-7 -1,-2 -2,-3 -3,-5 -2,-1 -4,-1 -7,-1 -3,0 -6,0 -10,1l-15 64 -24 0 20 -80z"/>
   <path class="fil0" d="M252 173l-5 8 -5 0c4,-6 7,-12 11,-17 3,-6 6,-11 10,-15l4 0c1,2 1,4 1,7 1,2 1,5 1,7 1,3 1,6 2,9 0,3 0,6 1,9l-5 0c0,-1 0,-3 0,-4 -1,-2 -1,-3 -1,-4l-14 0zm14 -4l0 0c0,-2 -1,-5 -1,-7 0,-3 -1,-6 -1,-8 -1,1 -3,3 -4,6 -2,2 -4,6 -6,9l12 0z"/>
   <path class="fil0" d="M288 182c-2,0 -3,0 -5,-1 -2,-1 -3,-2 -4,-3 -1,-1 -2,-2 -2,-4 -1,-1 -1,-3 -1,-5 0,-3 0,-5 1,-8 1,-2 3,-5 4,-7 2,-2 4,-3 6,-4 2,-2 5,-2 8,-2 2,0 4,0 6,1 1,0 2,1 3,1l-2 4c-1,-1 -2,-1 -3,-2 -1,0 -3,0 -4,0 -3,0 -4,0 -6,1 -2,1 -3,3 -5,4 -1,2 -2,4 -2,6 -1,2 -1,4 -1,6 0,6 2,9 8,9 1,0 2,0 3,0 1,-1 1,-1 2,-1 1,0 1,0 2,-1 0,0 1,0 1,0l1 4c0,0 -1,0 -2,0 0,1 -1,1 -2,1 -1,0 -1,0 -2,1 -1,0 -2,0 -4,0z"/>
   <path class="fil0" d="M315 182c-2,0 -4,0 -6,-1 -1,-1 -2,-2 -3,-3 -1,-1 -2,-2 -3,-4 0,-1 0,-3 0,-5 0,-3 0,-5 1,-8 1,-2 2,-5 4,-7 1,-2 3,-3 6,-4 2,-2 5,-2 7,-2 3,0 5,0 6,1 2,0 3,1 3,1l-2 4c0,-1 -1,-1 -2,-2 -2,0 -3,0 -5,0 -2,0 -4,0 -6,1 -1,1 -3,3 -4,4 -1,2 -2,4 -3,6 0,2 -1,4 -1,6 0,6 3,9 8,9 1,0 2,0 3,0 1,-1 2,-1 3,-1 0,0 1,0 1,-1 1,0 1,0 2,0l0 4c0,0 0,0 -1,0 -1,1 -1,1 -2,1 -1,0 -2,0 -3,1 -1,0 -2,0 -3,0z"/>
   <polygon class="fil0" points="328,181 335,149 355,149 354,152 339,152 337,162 350,162 349,166 336,166 333,177 349,177 348,181 "/>
   <path class="fil0" d="M368 148c4,0 7,1 9,2 2,2 3,4 3,7 0,2 -1,4 -1,5 -1,2 -2,3 -4,4 -1,1 -3,2 -5,2 -2,1 -5,1 -7,1l-3 0 -3 12 -5 0 8 -32c1,0 3,-1 4,-1 2,0 3,0 4,0zm0 4l0 0c-2,0 -4,0 -4,0l-3 13 3 0c1,0 2,0 4,0 1,0 2,-1 3,-1 1,-1 2,-2 3,-3 1,-1 1,-2 1,-4 0,-2 -1,-3 -2,-4 -1,-1 -3,-1 -5,-1z"/>
   <polygon class="fil0" points="408,149 407,152 397,152 390,181 385,181 392,152 383,152 383,149 "/>
   <polygon class="fil0" points="404,181 411,149 431,149 430,152 415,152 413,162 426,162 425,166 412,166 409,177 425,177 424,181 "/>
   <path class="fil0" d="M444 148c5,0 9,1 11,4 2,2 4,5 4,9 0,3 -1,5 -2,8 -1,2 -2,4 -4,6 -1,2 -4,4 -6,5 -3,1 -7,1 -10,1 -2,0 -3,0 -5,0 -1,0 -3,0 -4,0l8 -32c1,0 3,-1 4,-1 1,0 3,0 4,0zm0 4l0 0c-3,0 -4,0 -4,0l-6 25c0,0 0,0 1,1 0,0 1,0 3,0 2,0 4,-1 6,-2 2,0 4,-2 5,-3 2,-2 3,-3 4,-5 0,-2 1,-5 1,-7 0,-3 -1,-5 -3,-7 -1,-1 -4,-2 -7,-2z"/>
   <polygon class="fil0" points="494,181 489,181 493,166 478,166 474,181 469,181 477,149 482,149 479,162 494,162 497,149 501,149 "/>
   <polygon class="fil0" points="501,181 509,149 528,149 527,152 512,152 510,162 523,162 522,166 509,166 506,177 522,177 521,181 "/>
   <path class="fil0" d="M542 148c3,0 6,1 8,2 2,2 3,4 3,7 0,2 -1,5 -2,6 -2,2 -4,4 -7,4 0,1 1,2 1,3 1,1 1,2 2,3 0,2 1,3 1,4 1,2 1,3 1,4l-4 0c-1,-1 -1,-2 -2,-4 0,-1 0,-2 -1,-3 0,-1 -1,-2 -1,-3 -1,-1 -1,-2 -2,-3 0,0 -1,0 -1,0 0,0 -1,0 -1,0l-4 0 -3 13 -4 0 7 -32c2,0 3,-1 4,-1 2,0 3,0 5,0zm-1 4l0 0c-2,0 -3,0 -4,0l-3 13 3 0c1,0 2,-1 4,-1 1,0 2,0 3,-1 2,0 3,-1 3,-2 1,-1 1,-2 1,-4 0,-2 0,-3 -2,-4 -1,-1 -3,-1 -5,-1z"/>
   <polygon class="fil0" points="553,181 561,149 580,149 580,152 565,152 562,162 576,162 575,166 562,166 559,177 575,177 574,181 "/>
  </g>
 </g>
</svg>
