<?xml version="1.0" encoding="UTF-8"?>
<!DOCTYPE svg PUBLIC "-//W3C//DTD SVG 1.1//EN" "http://www.w3.org/Graphics/SVG/1.1/DTD/svg11.dtd">
<!-- Creator: CorelDRAW X7 -->
<svg xmlns="http://www.w3.org/2000/svg" xml:space="preserve" width="600px" height="158px" version="1.1" style="shape-rendering:geometricPrecision; text-rendering:geometricPrecision; image-rendering:optimizeQuality; fill-rule:evenodd; clip-rule:evenodd"
viewBox="0 0 600 158"
 xmlns:xlink="http://www.w3.org/1999/xlink">
 <defs>
  <style type="text/css">
   <![CDATA[
    .fil1 {fill:#B3B3B3}
    .fil0 {fill:white}
   ]]>
  </style>
 </defs>
 <g id="Layer_x0020_1">
  <metadata id="CorelCorpID_0Corel-Layer"/>
  <g id="_358951742256">
   <path class="fil0" d="M218 80c0,17 14,31 32,31 7,0 15,-3 20,-9 1,0 1,-1 1,-2l-7 -7c-1,-1 -2,-1 -2,0 -3,2 -8,4 -12,4 -10,0 -17,-8 -17,-18 0,-9 7,-17 17,-17 4,0 8,1 12,4 0,1 1,1 2,0l6 -7c1,-1 1,-2 0,-2 -5,-6 -12,-8 -20,-8 -18,0 -32,14 -32,31zm81 7c0,13 11,24 24,24 14,0 25,-11 25,-24l0 -36c0,-1 -1,-1 -2,-1l-10 0c-1,0 -2,0 -2,1l0 35c0,6 -4,11 -11,11 -6,0 -10,-5 -10,-11l0 -35c0,-1 -1,-1 -2,-1l-10 0c-1,0 -2,0 -2,1l0 36zm82 21c0,1 1,2 2,2l21 0c10,0 19,-7 19,-17 0,-8 -7,-12 -12,-14 4,-2 10,-7 10,-13 0,-10 -8,-16 -18,-16l-20 0c-1,0 -2,0 -2,1l0 57zm13 -34l0 -12 7 0c3,0 6,2 6,6 0,3 -3,6 -6,6l-7 0zm0 24l0 -13 7 0c4,0 8,3 8,6 0,4 -3,7 -7,7l-8 0zm59 10c0,1 1,2 1,2l11 0c1,0 1,-1 1,-2l0 -57c0,-1 0,-1 -1,-1l-11 0c0,0 -1,0 -1,1l0 57zm55 0c0,1 1,2 2,2l10 0c1,0 2,-1 2,-2l0 -46 12 0c1,0 2,-1 2,-1l0 -10c0,-1 -1,-1 -2,-1l-38 0c-1,0 -2,0 -2,1l0 10c0,0 1,1 2,1l12 0 0 46zm52 -4c2,2 8,7 20,7 12,0 20,-9 20,-18 0,-12 -11,-17 -17,-20 -7,-3 -10,-5 -10,-8 0,-2 3,-5 6,-5 5,0 11,5 12,6 1,0 2,-1 3,-1l4 -7c1,-1 1,-2 0,-3 -3,-2 -10,-6 -19,-6 -13,0 -20,8 -20,17 0,10 10,16 17,19 6,2 9,5 9,9 0,3 -2,5 -6,5 -6,0 -12,-5 -12,-5 -1,0 -2,-1 -3,0l-4 8c-1,1 -1,1 0,2z"/>
   <polygon class="fil1" points="126,146 100,100 82,100 77,97 68,82 68,76 77,61 82,58 100,58 126,11 55,11 50,14 15,76 15,82 50,143 55,146 "/>
   <path class="fil0" d="M136 0l23 39 23 40 -23 39 -23 40 -45 0 -46 0 -22 -40 -23 -39 23 -40 22 -39 46 0 45 0zm-36 58l26 -47 -35 0 -36 0 27 47 9 0 9 0zm31 -44l-28 49 -18 0 8 13 74 0 -18 -31 -18 -31zm-28 80l28 49 18 -31 18 -30 -74 0 -8 12 18 0zm23 52l-26 -46 -9 0 -9 0 -27 46 36 0 35 0zm-111 -70l53 0 5 -8 4 -7 -27 -47 -17 31 -18 31zm53 6l-53 0 18 30 17 31 27 -46 -4 -8 -5 -7zm12 9l8 -12 -8 -13 -2 5 -5 8 5 7 2 5z"/>
  </g>
 </g>
</svg>
