<?xml version="1.0" encoding="UTF-8"?>
<!DOCTYPE svg PUBLIC "-//W3C//DTD SVG 1.1//EN" "http://www.w3.org/Graphics/SVG/1.1/DTD/svg11.dtd">
<!-- Creator: CorelDRAW X7 -->
<svg xmlns="http://www.w3.org/2000/svg" xml:space="preserve" width="600px" height="359px" version="1.1" style="shape-rendering:geometricPrecision; text-rendering:geometricPrecision; image-rendering:optimizeQuality; fill-rule:evenodd; clip-rule:evenodd"
viewBox="0 0 574 343"
 xmlns:xlink="http://www.w3.org/1999/xlink">
 <defs>
  <style type="text/css">
   <![CDATA[
    .fil2 {fill:none}
    .fil1 {fill:#E6E6E6}
    .fil0 {fill:white}
   ]]>
  </style>
 </defs>
 <g id="Layer_x0020_1">
  <metadata id="CorelCorpID_0Corel-Layer"/>
  <g id="_358980452272">
   <path class="fil0" d="M402 343l9 0 8 -1 9 -1 8 -1 9 -2 8 -2 8 -3 8 -3 7 -4 8 -3 7 -5 7 -4 7 -5 6 -5 6 -5 6 -6 6 -6 5 -6 6 -7 4 -6 5 -7 4 -8 4 -7 3 -8 3 -8 3 -8 2 -8 2 -8 2 -8 1 -9 0 -9 1 -9 -1 -8 0 -9 -1 -9 -2 -8 -2 -8 -2 -8 -3 -8 -3 -8 -3 -8 -4 -7 -4 -7 -5 -7 -4 -7 -6 -7 -5 -6 -6 -6 -6 -5 -6 -6 -6 -5 -7 -5 -7 -4 -7 -4 -8 -4 -7 -4 -8 -3 -8 -2 -8 -3 -9 -2 -8 -1 -9 -1 -8 -1 -9 0 -9 0 -9 1 -8 1 -9 1 -8 2 -8 3 -8 2 -8 3 -8 4 -7 4 -7 4 -7 4 -7 5 -6 5 -7 6 -6 5 -5 6 -6 6 -5 7 -4 7 -5 7 -4 7 -4 7 -3 8 -3 8 -3 8 -2 8 -2 8 -1 2 2 0 -2 14 9 0 -2 13 -10 0 0 5 1 9 0 9 1 9 1 4 0 0 1 0 1 0 1 0 1 0 0 -1 0 0 -2 11 1 2 2 8 3 8 3 8 3 8 4 7 4 8 5 7 4 6 5 7 6 6 5 6 6 6 7 5 6 5 7 5 7 4 7 5 7 3 8 4 8 3 8 3 8 2 8 2 9 1 8 1 9 1 9 0zm-147 -155l0 1 0 1 0 1 0 1 1 1 0 1 1 1 0 1 1 1 1 1 1 1 1 1 1 0 1 1 1 0 2 0 1 1 2 0 1 0 2 0 1 0 2 0 1 0 2 0 1 0 2 -1 1 0 2 0 2 -1 1 -1 2 -1 2 -1 -3 15 -1 0 -1 0 0 1 -1 0 -1 0 -1 1 -1 0 -1 0 -1 0 -1 0 -1 1 -2 0 -1 0 -2 0 -2 0 -2 0 -2 0 -3 -1 -3 0 -3 -1 -3 -1 -3 -1 -2 -1 -3 -2 -2 -2 -2 -2 -2 -3 -1 -3 -1 -3 -1 -4 0 -4 0 -5 1 -2 0 -2 1 -2 0 -3 1 -2 1 -3 1 -2 2 -3 2 -2 2 -2 3 -2 3 -2 3 -1 4 -2 4 0 5 0 2 0 2 0 3 0 2 1 2 1 3 1 2 1 2 2 1 2 2 2 1 3 1 3 0 3 0 4 0 5 -1 4 0 4 -38 1 2 -12 21 0 1 -2 -1 -1 0 -2 0 -1 0 -1 -1 -1 0 -1 -1 0 -1 -1 0 -1 -1 0 -1 -1 -1 0 -1 0 -1 0 -1 -1 -1 0 -1 1 -1 0 -1 0 -1 1 -1 0 -1 1 0 1 -1 0 -1 1 -1 1 0 1 -1 1 0 1 0 1 -1 2 -2 12zm37 27l17 0 0 0 6 -33 0 -1 0 -2 0 -1 1 -1 0 -1 1 -1 0 -1 1 -1 1 -1 1 -1 2 -1 1 0 2 -1 1 0 2 -1 3 0 0 0 0 0 0 0 1 0 0 0 0 0 0 0 0 0 0 0 1 0 0 -2 0 -1 0 -1 1 -2 0 -2 1 -1 0 -1 1 -1 1 -1 0 -1 1 -1 0 -1 0 0 0 -1 0 0 0 0 0 0 -1 0 0 0 0 0 -1 0 0 0 -2 0 -2 0 -1 1 -2 0 -1 1 -1 0 -1 1 -1 0 -1 1 -1 1 -1 1 -1 1 -1 1 -1 1 0 1 -1 1 2 -10 -17 0 -11 62zm244 0l-16 0 1 -7 0 0 -1 1 -1 1 -1 1 -1 1 -1 0 -1 1 -1 1 -1 0 -1 1 -1 0 -2 0 -1 0 -1 0 -1 1 -1 0 -1 0 -3 -1 -3 0 -3 -1 -2 -2 -2 -1 -2 -2 -1 -2 -2 -3 -1 -2 -1 -3 -1 -3 0 -3 0 -3 0 -3 0 -3 1 -3 0 -3 2 -3 1 -3 1 -3 2 -3 1 -2 2 -2 2 -2 2 -2 2 -1 3 -1 2 -1 2 -1 2 -1 3 0 2 0 2 0 1 0 2 0 1 1 2 0 1 1 1 0 1 1 1 1 1 0 0 1 1 1 1 1 0 0 1 1 0 1 4 -23 16 0 -13 76zm-26 -14l1 0 2 -1 1 0 1 -1 2 0 1 -1 1 -1 1 -1 1 -1 1 -2 0 -1 1 -1 1 -2 0 -1 0 -2 1 -2 0 -1 0 -2 0 -1 0 -2 0 -2 0 -1 -1 -1 0 -2 -1 -1 0 -1 -1 -1 -1 -1 -1 0 -1 -1 -1 0 -1 0 -2 0 -1 0 -2 1 -1 0 -1 1 -1 1 -1 1 -1 1 -1 1 -1 1 -1 2 0 1 -1 2 0 2 -1 1 0 2 -1 2 1 3 0 3 1 3 1 2 1 2 2 1 3 1zm-64 14l16 0 6 -33 0 -1 0 -2 1 -1 0 -1 1 -2 1 -1 0 -1 1 -1 1 -1 1 -1 2 -1 1 0 2 -1 2 -1 2 0 2 0 1 0 0 0 1 0 2 -15 -1 0 -2 0 -2 1 -1 0 -1 1 -1 0 -2 1 -1 0 -1 1 -1 1 -1 1 -1 1 0 1 -1 1 -1 1 -1 1 2 -10 -16 0 -11 62zm-5 -13l-2 13 -15 0 1 -3 0 -2 0 -1 0 -1 -1 1 -1 1 -1 1 -1 0 -1 1 -2 1 -1 1 -2 0 -1 1 -2 0 -1 0 -2 1 -2 0 -1 0 -2 0 -1 -1 -3 0 -1 -1 -2 0 -2 -1 -1 -1 -1 -1 -1 -1 -1 -2 0 -1 -1 -1 0 -1 -1 -2 0 -1 0 -1 0 -2 0 -1 0 -2 0 -2 1 -2 1 -2 0 -2 2 -2 1 -1 1 -2 2 -1 1 -1 2 -1 2 -1 1 -1 2 -1 2 0 2 -1 0 0 1 0 0 0 1 0 0 0 1 0 1 0 1 0 1 0 1 -1 1 0 1 0 1 0 1 0 1 0 0 0 2 0 1 0 1 0 2 0 1 0 1 0 0 0 0 0 0 0 1 -1 0 -1 0 -1 0 -2 -1 -1 -1 -1 0 -1 -1 0 -2 -1 -1 0 -1 0 -2 0 -2 -1 -1 0 -2 1 -2 0 -2 0 -2 0 -2 0 -1 0 -2 1 -2 0 -1 0 -1 1 -1 0 -1 0 -1 1 4 -14 2 -1 1 0 1 -1 2 0 1 0 1 0 2 -1 2 0 1 0 2 0 2 0 1 0 2 0 2 0 2 0 2 0 2 0 1 1 2 0 2 0 2 1 2 1 1 1 2 1 1 1 2 2 1 1 1 2 0 2 1 2 0 2 -1 2 -6 31zm-14 -15l0 -1 0 0 0 0 -1 0 -1 0 0 0 -1 0 -1 0 -1 0 -1 0 -1 0 -1 0 -1 0 0 1 -1 0 -1 0 0 0 -1 0 0 0 -1 0 -1 1 0 0 -1 1 -1 0 -1 1 0 0 -1 1 -1 1 0 0 -1 1 0 1 0 1 0 2 0 2 1 1 0 1 1 0 1 1 1 0 1 0 2 0 2 0 1 -1 1 0 2 0 1 -1 1 -1 1 0 1 -1 0 -1 1 0 0 -1 1 -1 0 0 0 -1 0 -1 1 -1 0 -2 0 -2 0 -1zm124 25l0 -9 4 0c0,0 1,0 2,0 0,0 0,0 1,1 0,0 0,1 0,1 0,1 0,1 -1,2 0,0 -1,1 -1,1 0,0 0,0 1,0 0,1 0,1 1,2l1 2 -2 0 -2 -2c0,-1 0,-1 -1,-2 0,0 0,0 0,0 0,0 -1,0 -1,0l0 0 0 4 -2 0zm2 -5l1 0c1,0 1,-1 1,-1 1,0 1,0 1,0 0,0 0,0 0,-1 0,0 0,0 0,0 0,-1 0,-1 -1,-1 0,0 0,0 -1,0l-1 0 0 3zm2 -8c2,0 4,1 6,2 1,2 2,4 2,6 0,2 -1,5 -2,6 -2,2 -4,2 -6,2 -3,0 -5,0 -6,-2 -2,-1 -2,-4 -2,-6 0,-2 0,-4 2,-6 1,-1 3,-2 6,-2zm5 3c-2,-1 -3,-2 -5,-2 -2,0 -4,1 -5,2 -1,2 -2,3 -2,5 0,2 1,4 2,5 1,1 3,2 5,2 2,0 3,-1 5,-2 1,-1 1,-3 1,-5 0,-2 0,-3 -1,-5zm-167 -46l-1 0 0 -1 -1 0 -1 0 -1 -1 -1 0 -1 0 -1 -1 -1 0 -1 0 -1 0 -1 -1 -2 0 -1 0 -2 0 -1 0 -1 0 -2 0 -1 0 -2 1 -2 0 -1 1 -2 1 -2 1 -1 1 -2 1 -1 2 -2 2 -1 3 -1 3 -1 3 -1 4 0 2 -1 2 0 2 0 2 1 2 0 2 0 2 1 1 1 2 1 1 1 2 2 1 1 1 2 1 2 1 2 0 1 0 1 0 1 1 1 0 1 0 2 0 1 0 1 0 2 -1 1 0 2 0 1 -1 2 0 1 -1 1 -1 2 -1 -3 15 0 1 -1 0 0 0 -1 1 0 0 -1 1 -1 0 -1 0 -2 1 -1 0 -2 0 -2 1 -2 0 -3 0 -3 0 -3 0 -3 -1 -2 0 -3 -1 -3 -1 -2 -2 -2 -2 -3 -2 -2 -2 -2 -2 -1 -3 -2 -4 -1 -3 -1 -4 0 -4 0 -5 1 -4 0 -3 1 -2 0 -2 1 -3 1 -2 0 -2 1 -2 1 -1 1 -2 1 -2 1 -1 1 -2 1 -1 1 -2 1 -1 1 -1 2 -1 1 -1 1 -1 2 -1 1 -1 2 -1 2 -1 1 0 2 -1 2 0 2 -1 2 0 2 0 2 -1 2 0 2 0 2 0 2 0 1 0 2 1 2 0 1 0 2 1 1 0 2 0 1 1 1 0 1 0 1 1 0 0 1 0 0 0 -3 16z"/>
   <path class="fil1" d="M172 343l9 0 9 -1 8 -1 9 -1 8 -2 8 -2 8 -3 8 -3 7 -4 8 -3 7 -5 7 -4 7 -5 6 -5 6 -5 6 -6 6 -6 5 -6 5 -7 5 -6 5 -7 4 -8 4 -7 3 -8 3 -8 3 -8 2 -8 2 -8 0 -3 -1 -1 -1 -3 -2 -4 -1 -3 -1 -4 0 -4 0 -5 1 -4 0 -3 1 -2 0 -2 1 -3 1 -2 0 -2 1 -2 1 -1 1 -2 1 -2 0 -1 -1 -8 -1 -8 -2 -8 -2 -8 -3 -8 -3 -8 -3 -8 -4 -7 -4 -7 -5 -7 -5 -7 -5 -7 -5 -6 -6 -6 -6 -5 -6 -6 -6 -5 -7 -5 -7 -4 -7 -4 -8 -4 -7 -4 -8 -3 -8 -2 -8 -3 -8 -2 -9 -1 -8 -1 -9 -1 -9 0 -9 0 -9 1 -8 1 -9 1 -8 2 -8 3 -8 2 -8 3 -8 4 -7 4 -7 4 -7 4 -7 5 -6 5 -7 6 -6 5 -5 6 -6 6 -5 7 -5 7 -4 7 -4 7 -4 7 -4 8 -3 8 -2 8 -3 8 -2 8 -1 8 -1 9 -1 9 0 8 0 9 1 9 1 9 1 8 2 8 3 8 2 8 3 8 4 8 4 7 4 8 4 7 5 6 5 7 6 6 5 6 6 6 7 5 6 5 7 5 7 4 7 5 7 3 8 4 8 3 8 3 8 2 8 2 9 1 8 1 9 1 9 0zm-140 -128l-16 0 13 -76 28 0 2 45 19 -45 29 0 -13 76 -16 0 10 -57 -1 0 -23 57 -18 0 0 -3 -1 -6 0 -9 -1 -10 0 -11 -1 -9 0 -6 0 -3 -1 0 0 0 0 0 -10 57zm173 -49l-1 0 0 0 -1 0 -1 0 -1 0 0 0 -1 -1 -1 0 -1 0 -1 0 -1 0 -1 0 -1 0 -1 0 -2 0 -2 0 -1 0 -1 1 -1 0 -1 0 0 1 -1 0 -1 1 0 0 -1 1 0 1 0 0 0 1 0 1 0 0 1 1 0 1 2 1 1 1 2 1 1 0 2 1 2 1 2 0 2 1 2 1 1 1 2 2 1 1 1 3 0 2 1 3 -1 4 0 3 -1 2 -1 2 -1 2 -1 2 -2 1 -1 2 -2 1 -2 1 -2 0 -2 1 -2 0 -2 1 -2 0 -2 0 -1 0 -3 0 -2 0 -2 0 -2 0 -2 0 -1 0 -2 0 -1 0 -1 -1 -1 0 -2 0 -1 0 -1 -1 0 0 -1 0 -1 -1 2 -12 1 0 0 0 1 0 1 0 1 1 1 0 2 0 1 0 1 1 2 0 2 0 1 0 2 0 2 0 1 0 2 0 2 0 1 -1 1 0 1 -1 0 -1 1 -1 0 -1 0 -1 0 -1 0 -2 -1 -1 -2 -1 -1 -1 -2 -1 -3 0 -2 -1 -2 -1 -2 -2 -2 -1 -2 -2 -2 -2 -1 -3 0 -3 0 -4 0 -2 1 -2 0 -2 1 -2 1 -1 1 -2 1 -1 1 -2 2 -1 2 -1 2 -1 2 0 3 -1 3 0 3 0 3 0 2 0 2 0 2 0 2 0 1 0 2 0 1 0 1 0 1 0 1 0 0 1 1 0 1 0 0 0 1 0 0 0 -3 13zm-51 36l-2 13 -15 0 0 -3 1 -2 0 -1 0 -1 -1 1 -1 1 -1 1 -1 0 -1 1 -2 1 -1 1 -2 0 -1 1 -2 0 -2 0 -2 1 -1 0 -2 0 -2 0 -1 -1 -2 0 -2 -1 -2 0 -1 -1 -1 -1 -1 -1 -1 -1 -1 -2 -1 -1 0 -1 -1 -1 0 -2 -1 -1 0 -1 0 -2 0 -1 0 -2 1 -2 0 -2 1 -2 1 -2 1 -2 1 -1 2 -2 1 -1 2 -1 1 -1 2 -1 2 -1 2 -1 2 0 2 -1 0 0 0 0 1 0 0 0 1 0 1 0 1 0 1 0 1 0 1 -1 1 0 1 0 1 0 0 0 1 0 1 0 1 0 2 0 1 0 1 0 1 0 1 0 1 0 0 0 0 0 0 -1 0 -1 1 -1 -1 -2 0 -1 -1 -1 -1 -1 -1 0 -1 -1 -2 0 -1 0 -2 0 -1 -1 -2 0 -2 1 -2 0 -2 0 -2 0 -1 0 -2 0 -2 1 -1 0 -2 0 -1 1 -1 0 -1 0 -1 1 5 -14 1 -1 1 0 2 -1 1 0 1 0 2 0 1 -1 2 0 2 0 1 0 2 0 2 0 2 0 1 0 3 0 2 0 1 0 2 1 2 0 2 0 1 1 2 1 2 1 1 1 2 1 1 2 1 1 1 2 1 2 0 2 0 2 0 2 -6 31zm-14 -15l0 0 0 -1 -1 0 0 0 -1 0 -1 0 -1 0 0 0 -1 0 -1 0 -1 0 -1 0 -1 0 -1 0 -1 1 0 0 -1 0 0 0 -1 0 0 1 -1 0 -1 0 -1 1 0 0 -1 1 -1 0 -1 1 0 1 -1 1 0 0 -1 1 0 1 0 2 0 2 1 1 1 1 1 0 1 1 1 0 1 0 1 0 2 0 1 -1 2 0 1 0 1 -1 1 0 1 -1 1 -1 0 0 1 -1 0 -1 1 0 0 -1 0 -1 0 0 1 -2 0 -2 1 -2 0 -1zm152 28l17 0 0 0 6 -33 0 -1 0 -2 0 -1 1 -1 0 -1 1 -1 0 -1 1 -1 1 -1 1 -1 2 -1 1 0 2 -1 1 0 2 -1 3 0 0 0 0 0 0 0 1 0 0 0 0 0 0 0 0 0 0 0 1 0 0 -2 0 -1 0 -1 1 -2 0 -2 1 -1 0 -1 1 -1 1 -1 0 -1 1 -1 0 -1 0 0 0 -1 0 0 0 0 0 0 -1 0 0 0 0 0 -1 0 0 0 -2 0 -2 0 -1 1 -2 0 -1 1 -1 0 -1 1 -1 0 -1 1 -1 1 -1 1 -1 1 -1 1 -1 1 0 1 -1 1 2 -10 -17 0 -11 62zm-37 -27l0 1 0 1 0 1 0 1 1 1 0 1 1 1 0 1 1 1 1 1 1 1 1 1 1 0 1 1 1 0 2 0 1 1 2 0 1 0 2 0 1 0 2 0 1 0 2 0 1 0 2 -1 1 0 2 0 2 -1 1 -1 2 -1 2 -1 -3 15 -1 0 -1 0 0 1 -1 0 -1 0 -1 1 -1 0 -1 0 -1 0 -1 0 -1 1 -2 0 -1 0 -2 0 -2 0 -2 0 -2 0 -3 -1 -3 0 -3 -1 -3 -1 -3 -1 -2 -1 -3 -2 -2 -2 -2 -2 -2 -3 -1 -3 -1 -3 -1 -4 0 -4 0 -5 1 -2 0 -2 1 -2 0 -3 1 -2 1 -3 1 -2 2 -3 2 -2 2 -2 3 -2 3 -2 3 -1 4 -2 4 0 5 0 2 0 2 0 3 0 2 1 2 1 3 1 2 1 2 2 1 2 2 2 1 3 1 3 0 3 0 4 0 5 -1 4 0 4 -38 1 2 -12 21 0 1 -2 -1 -1 0 -2 0 -1 0 -1 -1 -1 0 -1 -1 0 -1 -1 0 -1 -1 0 -1 -1 -1 0 -1 0 -1 0 -1 -1 -1 0 -1 1 -1 0 -1 0 -1 1 -1 0 -1 1 0 1 -1 0 -1 1 -1 1 0 1 -1 1 0 1 0 1 -1 2 -2 12zm-36 -49l16 0 -2 14 9 0 -2 13 -10 0 -6 32 0 1 1 1 0 1 1 0 1 1 1 0 2 0 1 1 1 -1 1 0 1 0 1 0 1 0 1 0 0 -1 0 0 -2 11 0 0 -1 1 0 0 -1 0 0 0 0 0 -1 1 -1 0 0 0 -1 0 0 0 -1 0 -1 0 -1 1 -1 0 -1 0 -4 0 -2 0 -2 -1 -2 0 -2 0 -1 -1 -1 0 -1 -1 -1 -1 -1 -1 0 -1 0 -1 0 -1 0 -1 0 -1 0 -2 0 -1 11 -63z"/>
   <path class="fil0" d="M278 290l80 0 0 -9 -88 0 8 9zm-17 -20l97 0 0 -10 -103 0 6 10zm-12 -21l109 0 0 -9 -114 0 5 9zm-9 -21l118 0 0 -9 -121 0 3 9zm70 -21l34 0 -1 -1 -2 -2 -2 -2 -1 -3 -1 -1 -25 0 -2 9zm-43 -141l91 0 0 -9 -83 0 -8 9zm-14 21l105 0 0 -10 -99 0 -6 10zm-10 20l115 0 0 -9 -111 0 -4 9zm-7 21l122 0 0 -9 -119 0 -3 9zm-3 21l113 0 0 -1 1 -1 1 -1 2 -1 1 -1 1 -1 2 -1 1 -1 2 -1 1 0 0 -1 -123 0 0 2 -2 8zm81 38l20 0 0 -3 0 -5 1 -2 -19 0 -1 1 0 1 0 2 0 1 -1 5zm39 0l4 0 0 -10 -4 0 -1 2 0 2 0 2 1 2 0 2 0 0zm-124 -10l10 0 0 1 0 2 -1 2 0 5 0 0 -9 0 0 -10z"/>
   <polyline class="fil2" points="205,166 205,166 204,166 204,166 203,166 202,166 201,166 201,166 200,165 199,165 198,165 197,165 196,165 195,165 194,165 193,165 191,165 189,165 188,165 187,166 186,166 185,166 185,167 184,167 183,168 183,168 182,169 182,170 182,170 182,171 182,172 182,172 183,173 183,174 185,175 186,176 188,177 189,177 191,178 193,179 195,179 197,180 199,181 200,182 202,184 203,185 204,188 204,190 205,193 204,197 204,200 203,202 202,204 201,206 200,208 198,209 197,211 195,212 193,213 191,213 189,214 187,214 185,215 183,215 181,215 180,215 177,215 175,215 173,215 171,215 169,215 168,215 166,215 165,215 164,214 163,214 161,214 160,214 159,213 159,213 158,213 157,212 159,200 160,200 160,200 161,200 162,200 163,201 164,201 166,201 167,201 168,202 170,202 172,202 173,202 175,202 177,202 178,202 180,202 182,202 183,201 184,201 185,200 185,199 186,198 186,197 186,196 186,195 186,193 185,192 183,191 182,190 180,189 177,189 175,188 173,187 171,185 169,184 167,182 165,180 164,177 164,174 164,170 164,168 165,166 165,164 166,162 167,161 168,159 169,158 170,156 172,155 174,154 176,153 178,153 181,152 184,152 187,152 190,152 192,152 194,152 196,152 198,152 199,152 201,152 202,152 203,152 204,152 205,152 205,153 206,153 207,153 207,153 208,153 208,153 205,166 "/>
   <polyline class="fil2" points="219,139 235,139 233,153 242,153 240,166 230,166 224,198 224,199 225,200 225,201 226,201 227,202 228,202 230,202 231,203 232,202 233,202 234,202 235,202 236,202 237,202 237,201 237,201 235,212 235,212 234,213 234,213 233,213 233,213 233,213 232,214 231,214 231,214 230,214 230,214 229,214 228,214 227,215 226,215 225,215 221,215 219,215 217,214 215,214 213,214 212,213 211,213 210,212 209,211 208,210 208,209 208,208 208,207 208,206 208,205 208,203 208,202 219,139 "/>
   <polyline class="fil2" points="255,188 255,188 255,189 255,190 255,191 255,192 256,193 256,194 257,195 257,196 258,197 259,198 260,199 261,200 262,200 263,201 264,201 266,201 267,202 269,202 270,202 272,202 273,202 275,202 276,202 278,202 279,202 281,201 282,201 284,201 286,200 287,199 289,198 291,197 288,212 287,212 286,212 286,213 285,213 284,213 283,214 282,214 281,214 280,214 279,214 278,215 276,215 275,215 273,215 271,215 269,215 267,215 264,214 261,214 258,213 255,212 252,211 250,210 247,208 245,206 243,204 241,201 240,198 239,195 238,191 238,187 238,182 239,180 239,178 240,176 240,173 241,171 242,168 243,166 245,163 247,161 249,159 252,157 255,155 258,154 262,152 266,152 271,152 273,152 275,152 278,152 280,153 282,154 285,155 287,156 289,158 290,160 292,162 293,165 294,168 294,171 294,175 294,180 293,184 293,188 250,188 253,177 278,177 279,175 278,174 278,172 278,171 278,170 277,169 277,168 276,168 275,167 275,166 274,166 273,165 272,165 271,165 270,165 269,164 268,164 267,165 266,165 265,165 264,166 263,166 262,167 262,168 261,168 260,169 259,170 259,171 258,172 258,173 258,174 257,176 255,188 "/>
   <polyline class="fil2" points="393,156 393,156 392,156 392,155 391,155 390,155 389,154 388,154 387,154 386,153 385,153 384,153 383,153 382,152 380,152 379,152 377,152 376,152 375,152 373,152 372,152 370,153 368,153 367,154 365,155 363,156 362,157 360,158 359,160 357,162 356,165 355,168 354,171 353,175 353,177 352,179 352,181 352,183 353,185 353,187 353,189 354,190 355,192 356,193 357,195 359,196 360,197 362,198 364,199 366,199 367,199 368,199 369,200 370,200 371,200 373,200 374,200 375,200 377,199 378,199 380,199 381,198 383,198 384,197 385,196 387,195 384,210 384,211 383,211 383,211 382,212 382,212 381,213 380,213 379,213 377,214 376,214 374,214 372,215 370,215 367,215 364,215 361,215 358,214 356,214 353,213 350,212 348,210 346,208 343,206 341,204 339,202 338,199 336,195 335,192 334,188 334,184 334,179 335,175 335,172 336,170 336,168 337,165 338,163 338,161 339,159 340,158 341,156 342,154 343,153 344,151 345,150 346,148 347,147 348,146 350,145 351,144 352,143 354,142 355,141 357,140 359,139 360,139 362,138 364,138 366,137 368,137 370,137 372,136 374,136 376,136 378,136 380,136 381,136 383,137 385,137 386,137 388,138 389,138 391,138 392,139 393,139 394,139 395,140 395,140 396,140 396,140 393,156 "/>
   <polyline class="fil2" points="536,215 520,215 521,208 521,208 520,209 519,210 518,211 517,212 516,212 515,213 514,214 513,214 512,215 511,215 509,215 508,215 507,215 506,216 505,216 504,216 501,215 498,215 495,214 493,212 491,211 489,209 488,207 486,204 485,202 484,199 483,196 483,193 483,190 483,187 483,184 484,181 484,178 486,175 487,172 488,169 490,166 491,164 493,162 495,160 497,158 499,157 502,156 504,155 506,154 508,153 511,153 513,153 515,153 516,153 518,153 519,154 521,154 522,155 523,155 524,156 525,157 526,157 526,158 527,159 528,160 528,160 529,161 529,162 533,139 549,139 536,215 "/>
   <polyline class="fil2" points="154,202 152,215 137,215 137,212 138,210 138,209 138,208 137,209 136,210 135,211 134,211 133,212 131,213 130,214 128,214 127,215 125,215 123,215 121,216 120,216 118,216 116,216 115,215 113,215 111,214 109,214 108,213 107,212 106,211 105,210 104,208 103,207 103,206 102,205 102,203 101,202 101,201 101,199 101,198 101,196 102,194 102,192 103,190 104,188 105,186 106,185 108,183 109,182 111,181 112,180 114,179 116,178 118,177 120,177 122,176 122,176 122,176 123,176 123,176 124,176 125,176 126,176 127,176 128,176 129,175 130,175 131,175 132,175 132,175 133,175 134,175 135,175 137,175 138,175 139,175 140,175 141,175 142,175 142,175 142,175 142,174 142,173 143,172 142,170 142,169 141,168 140,167 139,167 138,166 136,166 135,166 133,166 132,165 130,165 128,166 126,166 124,166 122,166 121,166 119,166 117,167 116,167 114,167 113,168 112,168 111,168 110,169 115,155 116,154 117,154 119,153 120,153 121,153 123,153 124,152 126,152 128,152 129,152 131,152 133,152 135,152 136,152 139,152 141,152 142,152 144,153 146,153 148,153 149,154 151,155 153,156 154,157 156,158 157,160 158,161 159,163 160,165 160,167 160,169 160,171 154,202 "/>
   <polyline class="fil2" points="32,215 16,215 29,139 57,139 59,184 78,139 107,139 94,215 78,215 88,158 87,158 64,215 46,215 46,212 45,206 45,197 44,187 44,176 43,167 43,161 43,158 42,158 42,158 42,158 32,215 "/>
   <polyline class="fil2" points="547,207 547,207 547,206 547,204 548,203 549,201 550,200 552,200 553,199 555,199 556,199 558,200 559,200 560,201 561,203 562,204 563,206 563,207 563,209 562,210 561,212 560,213 559,214 558,215 556,215 555,215 553,215 552,215 550,214 549,213 548,212 547,210 547,209 547,207 "/>
   <polyline class="fil2" points="555,214 555,214 556,214 557,213 558,213 559,212 560,211 561,210 561,209 561,207 561,206 561,205 560,203 559,202 558,202 557,201 556,201 555,200 553,201 552,201 551,202 550,202 549,203 549,205 548,206 548,207 548,209 549,210 549,211 550,212 551,213 552,213 553,214 555,214 "/>
   <polyline class="fil2" points="292,215 309,215 309,215 315,182 315,181 315,179 315,178 316,177 316,176 317,175 317,174 318,173 319,172 320,171 322,170 323,170 325,169 326,169 328,168 331,168 331,168 331,168 331,168 332,168 332,168 332,168 332,168 332,168 332,168 333,168 333,166 333,165 333,164 334,162 334,160 335,159 335,158 336,157 337,156 337,155 338,154 338,153 338,153 338,152 338,152 338,152 338,152 337,152 337,152 337,152 336,152 336,152 334,152 332,152 331,153 329,153 328,154 327,154 326,155 325,155 324,156 323,157 322,158 321,159 320,160 319,161 319,162 318,163 320,153 303,153 292,215 "/>
  </g>
 </g>
</svg>
