<?xml version="1.0" encoding="UTF-8"?>
<!DOCTYPE svg PUBLIC "-//W3C//DTD SVG 1.1//EN" "http://www.w3.org/Graphics/SVG/1.1/DTD/svg11.dtd">
<!-- Creator: CorelDRAW X7 -->
<svg xmlns="http://www.w3.org/2000/svg" xml:space="preserve" width="600px" height="102px" version="1.1" style="shape-rendering:geometricPrecision; text-rendering:geometricPrecision; image-rendering:optimizeQuality; fill-rule:evenodd; clip-rule:evenodd"
viewBox="0 0 600 102"
 xmlns:xlink="http://www.w3.org/1999/xlink">
 <defs>
  <style type="text/css">
   <![CDATA[
    .fil1 {fill:#B3B3B3}
    .fil0 {fill:white}
   ]]>
  </style>
 </defs>
 <g id="Layer_x0020_1">
  <metadata id="CorelCorpID_0Corel-Layer"/>
  <g id="_358722933168">
   <path class="fil0" d="M108 45c0,-2 -1,-3 -3,-3l-10 0c-3,0 -4,2 -4,4l0 18c0,3 2,4 4,4l10 0c1,0 1,0 2,-1 1,0 1,-1 1,-2l0 -20zm-30 -2c0,-5 1,-8 3,-11 1,-1 3,-1 4,-2 2,-1 3,-1 5,-1l19 0c8,0 12,4 12,13l0 28c0,3 -1,6 -4,8 -2,2 -5,4 -8,4l-18 0 0 20 -13 0 0 -59z"/>
   <path class="fil0" d="M145 66c0,0 0,1 1,1 0,1 1,1 2,1l10 0c2,0 3,-1 4,-2l0 -4c0,-2 -2,-3 -4,-3l-10 0c-1,0 -2,0 -3,0 0,1 0,2 0,3l0 4zm17 -21c0,-2 -2,-3 -4,-3l-26 0 0 -13 29 0c9,0 13,4 14,12l0 28c-1,4 -2,7 -4,9 -2,3 -5,4 -8,4l-18 0c-9,0 -13,-4 -13,-12l0 -11c0,-8 4,-12 12,-13l18 0 0 -1z"/>
   <path class="fil0" d="M211 88c1,0 2,0 3,-1 1,-1 1,-1 1,-2l0 -1 0 -2 -17 0c-2,0 -4,-1 -5,-1 -1,-1 -3,-2 -4,-3 -1,-1 -2,-3 -3,-4 -1,-2 -1,-4 -1,-6l0 -39 13 0 0 35c0,3 1,4 4,4l9 0c1,0 2,0 3,-1 0,0 1,-1 1,-2l0 -1 0 -35 13 0 0 58c0,4 -1,8 -3,11 -3,2 -6,4 -9,4l-31 0 0 -14 26 0z"/>
   <path class="fil0" d="M238 68l23 0c2,0 4,-1 4,-2l0 -1c0,-1 0,-1 -1,-2 0,-1 -1,-1 -2,-1l-1 0 -10 0c-4,0 -6,-1 -9,-4 -2,-2 -4,-4 -4,-7l0 -10c0,-8 5,-12 13,-12l27 0 0 13 -23 0c-3,0 -4,1 -4,3l0 1c0,2 1,2 4,2l12 0c3,1 5,2 8,4 2,2 3,5 3,8l0 10c0,3 -1,5 -4,8 -1,2 -2,2 -3,3 -2,1 -3,1 -6,1l-27 0 0 -14z"/>
   <path class="fil0" d="M300 66c0,0 1,1 1,1 1,1 2,1 3,1l10 0c2,0 3,-1 3,-2l0 -4c0,-2 -1,-3 -3,-3l-10 0c-2,0 -2,0 -3,0 0,1 -1,2 -1,3l0 4zm17 -21c0,-2 -1,-3 -3,-3l-27 0 0 -13 30 0c9,0 13,4 13,12l0 28c0,4 -1,7 -3,9 -2,3 -5,4 -9,4l-18 0c-8,0 -13,-4 -13,-12l0 -11c0,-8 5,-12 13,-13l17 0 0 -1z"/>
   <path class="fil0" d="M341 21c0,-3 1,-6 4,-9 2,-2 6,-3 10,-3l8 0 0 13 -5 0c-3,0 -4,1 -4,4l0 3 9 0 0 13 -9 0 0 40 -13 0 0 -61z"/>
   <path class="fil0" d="M400 45l0 -1c0,0 0,-1 -1,-1 0,-1 -1,-1 -2,-1l-9 0c-1,0 -2,0 -3,1 -1,1 -1,2 -1,3l0 5 16 -6zm-16 19l0 1c0,1 0,2 1,2 0,1 1,1 2,1l1 0 25 0 0 14 -28 0c-3,0 -5,-1 -6,-1 -2,-1 -3,-1 -4,-3 -2,-1 -3,-2 -3,-4 -1,-1 -1,-3 -1,-6l0 -27c0,-8 4,-12 13,-12l17 0c8,0 12,4 13,13l0 10 -30 12z"/>
   <path class="fil0" d="M441 82c-2,0 -4,0 -5,-1 -2,0 -4,-1 -5,-2 -2,-2 -3,-3 -4,-5 -1,-2 -1,-4 -1,-7l0 -25c0,-2 0,-4 0,-5 1,-2 2,-3 3,-5 2,-1 3,-2 5,-3 2,0 4,-1 6,-1l20 0 0 4 -20 0c-3,0 -6,0 -8,2 -2,1 -3,4 -3,8l0 25c0,1 0,3 1,5 0,1 1,3 2,4 2,1 3,2 5,2 1,0 3,1 4,1l19 0 0 3 -19 0z"/>
   <path class="fil0" d="M511 49l-26 0c-3,0 -6,1 -7,3 -2,2 -3,5 -3,8l0 8c0,2 0,3 0,4 1,2 1,3 3,4 2,2 4,3 7,3l16 0c7,0 10,-4 10,-11l0 -19zm3 18c0,2 0,4 0,6 -1,1 -1,3 -3,5 -3,2 -6,4 -10,4l-16 0c-4,0 -7,-1 -9,-4 -3,-2 -4,-6 -4,-10l0 -8c0,-9 4,-14 13,-14l26 0 0 -3c0,-3 -1,-6 -2,-8 -1,-1 -3,-2 -4,-3 -2,0 -3,0 -5,0l-28 0 0 -4 27 0c2,0 4,1 6,1 1,0 2,1 3,1 1,1 2,1 3,3 2,3 3,6 3,10l0 24z"/>
   <path class="fil0" d="M544 32c-8,0 -11,4 -11,11l0 39 -3 0 0 -39c0,-10 4,-15 14,-15l4 0 0 4 -4 0z"/>
   <path class="fil0" d="M596 32l-24 0c-2,0 -4,0 -5,0 -2,0 -3,1 -4,3 -2,1 -3,3 -3,4 0,1 -1,3 -1,5l0 24c0,4 2,7 4,8 1,1 3,2 4,2 1,0 3,1 5,1l11 0c4,0 7,-1 9,-3 3,-2 4,-5 4,-9l0 -35zm4 35c-1,10 -6,15 -17,15l-11 0c-3,0 -5,0 -7,-1 -2,0 -4,-2 -5,-3 -2,-2 -3,-4 -3,-6 -1,-1 -1,-3 -1,-6l0 -22c0,-11 6,-16 16,-16l24 0 0 -17 4 0 0 56z"/>
   <path class="fil1" d="M6 27c1,-1 2,-1 3,-1 2,-9 10,-16 19,-16 10,0 18,7 19,16 3,0 6,1 8,3 0,-2 0,-3 0,-5 -2,-13 -13,-24 -27,-24 -14,0 -26,11 -27,26 0,1 0,2 0,3 2,-1 3,-2 5,-2z"/>
   <path class="fil1" d="M44 29l-32 0c-2,0 -3,0 -5,1 -2,1 -3,1 -4,2 -2,3 -3,6 -3,11l0 25c0,4 1,8 3,10 1,1 2,2 4,3 2,0 3,1 5,1l32 0c8,0 12,-5 12,-14l0 -26c0,-9 -4,-13 -12,-13z"/>
  </g>
 </g>
</svg>
