<?xml version="1.0" encoding="UTF-8"?>
<!DOCTYPE svg PUBLIC "-//W3C//DTD SVG 1.1//EN" "http://www.w3.org/Graphics/SVG/1.1/DTD/svg11.dtd">
<!-- Creator: CorelDRAW X7 -->
<svg xmlns="http://www.w3.org/2000/svg" xml:space="preserve" width="600px" height="137px" version="1.1" style="shape-rendering:geometricPrecision; text-rendering:geometricPrecision; image-rendering:optimizeQuality; fill-rule:evenodd; clip-rule:evenodd"
viewBox="0 0 600 137"
 xmlns:xlink="http://www.w3.org/1999/xlink">
 <defs>
  <style type="text/css">
   <![CDATA[
    .fil0 {fill:#E6E6E6}
    .fil1 {fill:#F7F7F7}
    .fil2 {fill:white}
   ]]>
  </style>
 </defs>
 <g id="Layer_x0020_1">
  <metadata id="CorelCorpID_0Corel-Layer"/>
  <g id="_358723773056">
   <path class="fil0" d="M96 0l60 0c-9,0 -18,7 -20,17l-8 32c-1,-1 -2,-1 -2,-1 -1,0 -3,1 -5,1 0,1 -1,1 -2,1l1 -2 0 0c-4,1 -5,1 -8,1l0 0c0,4 -1,6 -2,12 -1,2 -1,4 -2,6l0 1c4,0 5,0 8,0l0 -1c0,-1 0,-2 1,-6 0,-1 1,-5 1,-7 1,0 2,0 3,0 1,0 1,1 1,2 0,1 -1,4 -1,6l-1 2c0,1 0,2 -1,4l1 0c1,0 2,0 4,0l-2 8 -6 0 0 0 -9 28c0,1 0,2 0,3 0,0 0,1 1,1 0,0 1,0 2,0 0,0 2,0 3,0l1 0 -3 12c-2,9 4,17 13,17l-60 0c-9,0 -14,-8 -12,-17l15 -66c0,1 0,1 0,2 0,1 0,4 -1,6l0 2c-1,1 -1,2 -1,4l0 0c3,0 4,0 7,0l0 -1c1,-2 1,-3 2,-7l0 -2c1,-4 1,-6 1,-8 -1,-1 -3,-2 -4,-2 -1,0 -2,0 -3,1l8 -32c2,-10 11,-17 20,-17zm24 83l-1 2c0,0 0,0 0,0l1 -2zm-1 4l-1 2 0 0 1 -2 0 0zm-1 6l-3 11 0 0c0,0 -1,0 -1,0 0,-1 0,-1 0,-2l3 -9 1 0zm-35 -25c-2,0 -3,0 -4,0 -1,0 -2,0 -3,0l0 0 0 -1c0,-1 0,-2 0,-2 1,-1 1,-1 1,-3 1,-2 1,-4 1,-5 0,-1 0,-2 1,-3l0 0 0 -1c2,0 3,0 4,0 1,0 2,0 4,-1l0 0 0 1c-1,1 -1,2 -1,3 -1,2 -1,3 -1,4 -1,3 -1,4 -1,5 0,1 0,1 -1,2l0 1 0 0zm3 -17c2,-1 2,-3 1,-4 -2,-1 -5,-1 -7,1 -1,1 -2,3 0,3 2,1 4,1 6,0zm15 7c-1,1 -1,3 -2,4 -1,1 -1,2 -2,2 0,0 -2,0 -2,-2 0,-1 0,-2 1,-3 0,-4 1,-6 3,-6 2,0 2,2 2,5zm7 0l0 0c1,-4 0,-6 -1,-7 -1,-2 -4,-3 -7,-3 -1,0 -5,1 -8,3 -2,2 -3,5 -4,7 0,3 -1,8 3,9 2,1 4,1 5,1 3,0 6,-1 9,-3 2,-2 2,-6 3,-7zm-2 20l7 0 -2 5 -9 0 -1 1c-1,0 -1,0 -2,0 0,0 -1,1 -3,1l-3 0 1 -4 1 0c1,0 2,0 2,0 0,-1 1,-1 1,-2l2 -3 7 0 -1 2zm-12 8l17 0 -1 4 -7 0 -1 3 7 0 -1 5 -7 0 -2 6c0,0 2,0 2,0l4 0 -2 4 -8 0c0,0 -1,0 -1,0 -1,0 -1,0 -2,-1 0,0 0,-1 0,-2l2 -7 -4 0 2 -5 3 0 2 -3 -4 0 1 -4z"/>
   <path class="fil1" d="M156 0l49 0c9,0 15,7 13,17l-25 103c-2,9 -11,17 -20,17l-49 0c-9,0 -15,-8 -13,-17l3 -12 4 0 1 -4 -4 0 3 -11 8 0c2,0 3,0 3,0 1,0 2,0 3,-1 1,0 1,-1 1,-1 1,-1 1,-2 2,-4l3 -11 -9 0c0,0 -3,1 -5,1 -1,1 -3,2 -3,2l1 -3 0 0 2 -8c0,0 1,0 2,0l1 -1c0,-2 0,-3 1,-7l1 -2c1,-4 1,-6 0,-8 0,0 0,-1 -1,-1l8 -32c2,-10 11,-17 20,-17zm-38 89l1 -2 10 0 0 0 -1 2c0,0 0,0 -1,0l-9 0zm1 -4l1 -2 1 -2 10 0 -1 2c0,0 -5,0 -5,0 -3,1 -5,2 -6,2zm47 11l-7 0 1 -4 8 0 1 -3 -8 0 2 -4 20 0 -1 4 -7 0 -1 3 7 0 -1 4 -8 0 -1 2 3 0 1 4c0,1 0,1 0,1 0,1 1,1 2,1l1 0 -2 4 -2 0c-1,0 -1,0 -2,0 -1,0 -1,0 -1,0 -1,-1 -2,-1 -2,-2l0 -5 -4 5c-1,1 -2,2 -5,2l-5 0 2 -4 1 0c1,0 1,0 2,0 0,0 0,0 1,-1l5 -7zm36 -47l0 -1c-4,1 -4,1 -8,1l0 1c0,0 0,0 0,0l0 0c-2,5 -2,4 -4,8 0,0 0,0 0,0l0 -9 -1 -1c-3,1 -3,1 -7,1l0 1c0,0 0,0 0,0l0 0c1,2 0,2 1,5 0,2 0,3 0,5 1,3 1,4 1,8 -2,4 -2,5 -5,8l0 0 -1 3c0,0 0,0 -1,0 0,0 0,0 -1,0l0 0 -2 4 5 0c2,0 4,-1 5,-2l2 -5 0 0 0 0c2,-4 16,-27 16,-27zm-27 19c-4,0 -5,0 -8,0l0 0 1 -1c-2,1 -3,1 -4,1 -1,0 -3,0 -4,0 -4,-2 -3,-7 -3,-9 1,-3 2,-5 4,-7 3,-3 6,-4 8,-3 1,0 2,1 2,2l0 -1 0 0c4,-1 5,-1 8,-1l0 0c-1,2 -1,5 -2,8 -1,5 -1,8 -2,11l0 0zm-6 -7c0,-1 0,-2 1,-3 0,0 0,-1 0,-2 0,-2 -1,-3 -2,-3 -2,0 -3,3 -4,6 0,1 0,2 0,3 0,2 1,2 1,2 1,0 3,0 3,-1 0,-1 1,-1 1,-2zm-19 -26c0,0 -2,0 -2,0 -6,0 -8,0 -9,0 0,0 -1,1 -1,1 0,0 -2,10 -2,10 0,0 -5,21 -5,22 5,0 7,0 8,0 0,-1 2,-7 2,-7 0,0 1,-4 1,-5 0,0 0,0 0,0l1 0c4,0 9,0 13,-3 3,-2 5,-5 6,-9 0,0 0,-1 0,-3 0,-1 0,-2 -1,-3 -2,-3 -6,-3 -11,-3zm3 10l0 0c0,2 -2,4 -4,5 -1,1 -3,1 -5,1l-1 0 0 -1c0,0 2,-10 2,-10l0 0 0 0 1 0c0,0 5,0 5,0 2,1 3,3 2,5zm-20 49l0 3c0,1 -1,1 -1,2 -1,0 -2,1 -3,1l-4 0 0 3c0,1 0,1 0,1 1,0 1,0 1,0l1 0 3 0 -1 4 -4 0c-2,0 -4,0 -5,0 -1,-1 -1,-1 -1,-2l1 -12 5 0 0 3 2 0c0,0 1,0 1,0 0,-1 0,-1 0,-1l1 -2 4 0zm11 9l5 0 2 -5 -6 0 -1 5zm4 -14l0 0 -2 6c0,0 2,-1 3,-2 1,0 3,0 3,0l1 -4 -5 0zm3 -8l0 0 -2 5c0,0 2,-1 3,-1 1,0 3,0 3,0l1 -4 -5 0zm11 0l0 0 -7 22 2 0 -1 4 -2 0 0 1 -7 0 1 -1 -13 0 1 -4 1 0 7 -22 1 -5 7 0 -1 2c0,0 2,-1 4,-1 1,-1 11,-1 11,-1l-2 5 -2 0zm3 -5l7 0 0 3c0,0 0,0 1,0l1 0 -1 4 -4 0c-3,1 -4,-1 -4,-2l0 -5z"/>
   <path class="fil2" d="M45 0l51 0c-9,0 -18,7 -20,17l-8 32c0,0 -1,0 -1,0 -1,1 -2,1 -2,1l0 -2 0 0c-3,1 -4,1 -7,1l-1 0c0,4 0,6 -2,12 0,2 -1,4 -1,6l0 1c3,0 4,0 7,0l0 -1c1,-1 1,-2 1,-6 1,-1 2,-5 2,-7 1,0 1,0 2,0 1,0 1,0 1,0l-15 66c-2,9 3,17 12,17l-51 0c-9,0 -15,-8 -13,-17l25 -103c2,-10 11,-17 20,-17zm4 35c0,1 -4,18 -4,18 -1,4 -1,6 -3,8 -1,1 -3,1 -4,1 -3,0 -4,-1 -4,-3l0 -1c0,0 0,-5 0,-5 0,0 4,-16 5,-18 0,0 0,0 0,0 -8,0 -9,0 -9,0 0,0 0,1 0,1l-4 18 -1 1 0 5c0,2 0,3 0,4 2,3 8,4 11,4 3,0 7,-1 9,-2 5,-3 6,-7 7,-10l0 -2c0,0 4,-17 5,-19 0,0 0,0 0,0 -6,0 -7,0 -8,0z"/>
   <path class="fil2" d="M279 17c-3,9 -5,20 -7,30 -2,9 -3,21 -14,22 -22,2 -4,-27 -2,-52l-14 0c-3,13 -6,27 -9,40 -4,17 9,24 25,23 15,-1 23,-10 26,-23l9 -40 -14 0z"/>
   <path class="fil2" d="M530 126c1,-6 3,-11 4,-17 3,-10 1,-8 12,-8 15,0 20,-6 25,-15 4,-6 29,-50 29,-52l-14 0 -16 31 -1 -31 -14 0c-1,8 2,26 3,35 1,15 2,21 -16,21 -12,0 -11,-1 -12,6 -2,9 -6,22 -7,30l7 0z"/>
   <path class="fil2" d="M473 47c0,-2 3,-19 5,-20 9,0 17,1 13,12 -3,7 -9,8 -18,8zm-3 10c10,0 17,1 25,-4 5,-4 10,-9 11,-18 2,-22 -23,-18 -41,-18l-14 62 14 0 5 -22z"/>
   <path class="fil2" d="M535 43c-1,12 -11,34 -19,26 -5,-5 2,-28 19,-26zm7 36c1,-16 6,-29 8,-44 -15,-6 -37,0 -46,16 -5,8 -6,21 1,26 8,6 20,1 23,-5 3,2 2,5 4,6 3,1 7,1 10,1z"/>
   <path class="fil2" d="M381 43c15,-4 8,25 -2,27 -15,4 -9,-25 2,-27zm22 14c3,-17 -6,-26 -22,-24 -13,2 -22,11 -24,23 -8,33 40,31 46,1z"/>
   <path class="fil2" d="M299 79c3,-13 5,-35 14,-36 13,-2 2,20 -1,36l14 0c5,-22 16,-46 -6,-46 -8,0 -10,4 -14,7l-1 -6 -10 0 -10 45 14 0z"/>
   <path class="fil2" d="M417 79c1,-7 3,-14 5,-21 1,-6 3,-14 9,-15 14,-3 2,18 0,36l14 0c1,-7 7,-30 7,-36 -1,-7 -6,-10 -13,-10 -8,0 -11,4 -15,7l-1 -6 -10 0 -9 45 13 0z"/>
   <polygon class="fil2" points="356,34 342,34 332,79 346,79 "/>
   <path class="fil2" d="M374 121c-2,-8 3,-16 11,-16 -1,6 -4,18 -11,16zm19 -20c-11,-5 -21,1 -25,9 -9,17 8,22 13,12l1 3c1,1 0,0 1,1 1,1 3,0 5,0l5 -25z"/>
   <path class="fil2" d="M513 105c0,4 -1,8 -3,11 -1,2 -5,7 -7,4 -3,-2 0,-8 1,-10 2,-3 4,-5 9,-5zm9 -5c-12,-4 -22,3 -26,10 -8,16 8,22 13,12 3,3 0,4 7,4l6 -26z"/>
   <path class="fil2" d="M446 106c10,-5 9,12 2,15 -11,4 -10,-12 -2,-15zm15 7c5,-18 -25,-17 -29,0 -5,19 25,18 29,0z"/>
   <path class="fil2" d="M470 127c4,-7 3,-25 13,-21 1,4 -3,16 -4,21l8 0c2,-13 10,-27 -3,-27 -4,0 -6,1 -9,4 -2,-4 2,-4 -6,-4l-7 27 8 0z"/>
   <path class="fil2" d="M240 127c1,-6 3,-20 9,-21 7,-2 1,11 -1,21l7 0c2,-1 6,-20 6,-21 -1,-8 -12,-7 -16,-2l-2 -3c0,-1 -3,-1 -4,-1 -2,2 -1,0 -2,3 0,2 0,3 0,4 -1,2 -1,4 -2,6 -1,5 -2,9 -3,14l8 0z"/>
   <path class="fil2" d="M343 127c1,-6 3,-20 8,-21 8,-2 2,11 0,21l7 0c2,-1 6,-19 6,-21 -1,-8 -12,-7 -16,-2 0,0 0,0 0,-1 -2,-2 -1,2 -1,-3l-6 1 -6 26 8 0z"/>
   <path class="fil2" d="M294 110c1,-5 10,-8 9,0l-9 0zm16 5c3,-22 -17,-16 -23,-7 -6,11 -4,23 19,17l0 -4c-3,0 -7,2 -10,1 -3,-1 -5,-4 -3,-7 3,-1 13,0 17,0z"/>
   <path class="fil2" d="M411 90l-4 0c-6,12 -5,10 -10,10l0 4c1,1 1,1 3,1 -2,14 -8,22 5,22 5,0 6,1 7,-5l-6 -1c-2,-4 1,-11 2,-16l7 0 1 -5 -7 0 2 -10z"/>
   <path class="fil2" d="M280 90c-4,0 -4,0 -5,2l-3 6c-4,7 -5,-2 -7,6l4 2c-3,13 -8,21 4,21 1,0 5,0 5,0 3,-1 2,-1 2,-4 0,0 0,0 0,0l-6 -1c-1,-4 2,-13 3,-17l7 0 1 -4 -7 0 2 -11z"/>
   <polygon class="fil2" points="234,88 226,88 216,127 225,127 "/>
   <path class="fil2" d="M334 107c1,-3 2,-3 3,-6 -5,-2 -8,0 -11,3 -1,-2 0,-1 -1,-3l-7 0 -6 26 8 -1c4,-15 2,-21 14,-19z"/>
   <path class="fil2" d="M351 14c-4,2 -7,5 -7,10 1,5 6,7 11,5 10,-4 7,-20 -4,-15z"/>
   <path class="fil2" d="M417 126c10,1 7,0 9,-9 2,-6 3,-11 4,-17l-8 0 -5 26z"/>
   <path class="fil2" d="M432 96c1,-2 1,-6 -1,-7 -3,-1 -6,0 -7,2 -4,6 5,9 8,5z"/>
  </g>
 </g>
</svg>
