<?xml version="1.0" encoding="UTF-8"?>
<!DOCTYPE svg PUBLIC "-//W3C//DTD SVG 1.1//EN" "http://www.w3.org/Graphics/SVG/1.1/DTD/svg11.dtd">
<!-- Creator: CorelDRAW X7 -->
<svg xmlns="http://www.w3.org/2000/svg" xml:space="preserve" width="516px" height="600px" version="1.1" style="shape-rendering:geometricPrecision; text-rendering:geometricPrecision; image-rendering:optimizeQuality; fill-rule:evenodd; clip-rule:evenodd"
viewBox="0 0 516 600"
 xmlns:xlink="http://www.w3.org/1999/xlink">
 <defs>
  <style type="text/css">
   <![CDATA[
    .fil3 {fill:#E6D760}
    .fil2 {fill:white}
    .fil4 {fill:white;fill-rule:nonzero}
    .fil0 {fill:url(#id0)}
    .fil1 {fill:url(#id1)}
   ]]>
  </style>
  <radialGradient id="id0" gradientUnits="userSpaceOnUse" gradientTransform="matrix(0.859926 -0 -0 1 36 0)" cx="258" cy="126.011" r="404.403" fx="258" fy="126.011">
   <stop offset="0" style="stop-opacity:1; stop-color:#424242"/>
   <stop offset="1" style="stop-opacity:1; stop-color:#1F1F1F"/>
  </radialGradient>
  <radialGradient id="id1" gradientUnits="userSpaceOnUse" gradientTransform="matrix(1 -0 -0 0.809306 0 56)" cx="258" cy="293.643" r="316.339" fx="258" fy="293.643">
   <stop offset="0" style="stop-opacity:1; stop-color:#5A769B"/>
   <stop offset="1" style="stop-opacity:1; stop-color:#375575"/>
  </radialGradient>
 </defs>
 <g id="Layer_x0020_1">
  <metadata id="CorelCorpID_0Corel-Layer"/>
  <g id="_358949799696">
   <path class="fil0" d="M258 600c-246,-98 -278,-305 -249,-544 158,-75 340,-75 498,0 29,239 -3,446 -249,544z"/>
   <path class="fil1" d="M258 575c-165,-66 -225,-185 -235,-331 150,-66 320,-66 470,0 -10,146 -70,265 -235,331z"/>
   <path class="fil2" d="M28 285c-1,-3 -1,-5 -2,-8l5 -15 -7 -5c0,-4 0,-7 -1,-11l14 0 2 -9c4,-1 7,-2 11,-4l4 13 27 0 -22 16 8 27 -22 -17 -17 13z"/>
   <path class="fil3" d="M143 508c-21,-18 -39,-38 -54,-59l338 0c-15,21 -33,41 -54,59l-230 0z"/>
   <polygon class="fil2" points="118,278 130,315 168,315 137,338 149,375 118,352 86,375 98,338 67,315 106,315 "/>
   <path class="fil4" d="M136 83l8 1c0,4 -1,7 -4,10 -2,2 -6,4 -10,5 -6,1 -10,0 -14,-3 -4,-4 -6,-9 -8,-17 -1,-7 -1,-13 2,-18 2,-4 6,-7 12,-8 4,-1 7,-1 10,1 3,1 6,4 7,7l-7 4c-1,-2 -2,-4 -4,-5 -1,0 -3,-1 -5,0 -3,0 -5,2 -6,5 -1,3 -1,7 0,13 1,5 2,9 4,11 2,2 5,3 8,2 2,0 4,-1 5,-2 1,-2 2,-4 2,-6zm17 -6l-3 -29 8 -1 4 29c0,4 1,6 3,7 1,2 4,2 7,2 3,-1 5,-2 6,-3 1,-2 2,-4 1,-8l-3 -29 8 -1 4 30c0,5 -1,9 -3,13 -3,3 -7,5 -13,5 -5,1 -10,0 -13,-2 -3,-3 -5,-7 -6,-13zm55 -15l8 0c2,-1 4,-1 5,-2 2,-1 2,-3 2,-5 0,-2 -1,-4 -2,-5 -2,-1 -4,-1 -6,-1l-8 1 1 12zm-6 27l-4 -46 16 -1c5,-1 10,0 13,2 3,2 4,6 5,10 0,3 -1,6 -2,8 -1,2 -3,3 -6,4l12 20 -9 1 -11 -18 -7 0 1 19 -8 1zm52 -20l12 0 -6 -21 -6 21zm-13 17l14 -46 11 0 13 46 -9 0 -2 -10 -16 0 -3 10 -8 0zm70 -12l8 3c-1,4 -4,7 -7,9 -3,2 -6,2 -11,2 -6,0 -10,-2 -13,-6 -3,-5 -4,-10 -3,-18 0,-8 2,-13 5,-17 4,-4 8,-6 14,-6 4,0 8,2 10,4 3,2 4,5 5,9l-8 2c0,-3 -1,-4 -2,-6 -2,-1 -3,-1 -5,-2 -4,0 -6,2 -8,4 -1,3 -2,7 -3,12 0,6 1,10 2,12 1,3 4,4 7,5 2,0 4,-1 6,-2 1,-1 2,-3 3,-5zm-18 27l1 -4c1,0 3,0 4,1 1,0 2,0 3,0 1,0 2,0 3,0 0,0 0,-1 1,-2 0,-1 -1,-1 -1,-1 -1,-1 -2,-1 -3,-1 -1,0 -1,0 -1,0 0,0 -1,0 -1,0l1 -7 3 1 -1 2 1 0c2,0 4,1 5,2 1,1 2,3 2,5 0,2 -1,3 -2,4 -2,1 -4,1 -7,1 -1,0 -2,0 -3,0 -2,-1 -3,-1 -5,-1zm44 -28l12 2 -3 -21 -9 19zm-15 16l19 -44 11 2 8 47 -8 -1 -2 -11 -16 -2 -4 10 -8 -1zm55 -16c-1,6 0,10 1,12 1,3 3,5 7,6 3,0 6,0 8,-3 2,-2 4,-6 4,-11 1,-5 1,-9 0,-12 -1,-3 -3,-5 -7,-5 -3,-1 -6,0 -8,2 -2,3 -4,6 -5,11zm-8 -1c1,-7 4,-13 8,-16 4,-4 9,-5 15,-4 6,1 10,4 12,9 3,5 3,11 2,18 -1,7 -4,12 -8,16 -4,3 -9,4 -15,3 -6,-1 -10,-4 -12,-8 -3,-5 -4,-11 -2,-18z"/>
   <path class="fil4" d="M124 176l-8 -43 27 -6 2 7 -20 4 2 10 14 -3 2 7 -15 3 3 12 20 -4 2 7 -29 6zm63 -11l-1 -4c-1,2 -3,3 -4,4 -2,1 -4,2 -7,2 -5,1 -9,0 -13,-4 -3,-3 -6,-9 -7,-16 -1,-7 0,-12 3,-17 2,-4 7,-7 12,-7 4,-1 7,0 10,1 3,2 5,4 7,7l-7 3c-1,-2 -3,-3 -4,-4 -1,-1 -3,-1 -5,-1 -3,1 -5,3 -7,5 -1,3 -1,7 0,12 0,5 2,9 4,11 2,3 4,4 7,3 3,0 4,-1 6,-3 1,-2 2,-4 2,-7l-9 1 -1 -6 17 -3 3 22 -6 1zm23 -19l11 0 -7 -20 -4 20zm-12 18l11 -45 10 -1 16 43 -8 1 -3 -10 -16 2 -2 9 -8 1zm44 -3l1 -44 11 0 7 21c0,2 1,4 1,6 0,2 1,4 1,5 0,-1 1,-3 1,-5 1,-1 1,-3 2,-5l7 -22 11 0 -1 44 -7 0 1 -37c-1,2 -1,4 -2,5 0,2 0,3 -1,5l-8 27 -6 0 -8 -27c-1,-3 -1,-5 -2,-6 0,-2 0,-3 0,-4l-1 37 -7 0zm54 1l2 -44 9 1 -3 44 -8 -1zm20 2l6 -44 8 1 10 24c1,1 2,3 2,5 1,2 2,4 2,6 0,-2 0,-3 0,-5 0,-1 0,-3 0,-4l3 -24 8 1 -5 44 -8 -1 -11 -24c0,-2 -1,-3 -2,-5 0,-2 -1,-4 -2,-6 0,1 0,2 0,4 0,1 0,3 0,5l-3 24 -8 -1zm71 11l0 -5c-2,2 -3,3 -5,3 -2,1 -5,1 -7,0 -5,-1 -9,-4 -11,-8 -2,-5 -3,-11 -1,-18 1,-7 4,-12 7,-15 4,-3 9,-4 15,-3 4,1 7,2 9,5 2,2 3,5 4,9l-8 0c0,-2 -1,-4 -2,-5 -1,-1 -3,-2 -5,-2 -3,-1 -5,0 -8,2 -2,3 -3,6 -4,11 -1,5 -1,9 0,12 1,3 3,5 6,5 2,1 4,0 6,-1 2,-1 3,-3 4,-6l-8 -1 2 -7 16 3 -5 22 -5 -1z"/>
  </g>
 </g>
</svg>
