<?xml version="1.0" encoding="UTF-8"?>
<!DOCTYPE svg PUBLIC "-//W3C//DTD SVG 1.1//EN" "http://www.w3.org/Graphics/SVG/1.1/DTD/svg11.dtd">
<!-- Creator: CorelDRAW X7 -->
<svg xmlns="http://www.w3.org/2000/svg" xml:space="preserve" width="589px" height="600px" version="1.1" style="shape-rendering:geometricPrecision; text-rendering:geometricPrecision; image-rendering:optimizeQuality; fill-rule:evenodd; clip-rule:evenodd"
viewBox="0 0 1001 1020"
 xmlns:xlink="http://www.w3.org/1999/xlink">
 <defs>
  <style type="text/css">
   <![CDATA[
    .fil1 {fill:black;fill-rule:nonzero}
    .fil0 {fill:url(#id0);fill-rule:nonzero}
   ]]>
  </style>
  <radialGradient id="id0" gradientUnits="userSpaceOnUse" gradientTransform="matrix(1 -0 -0 0.903489 0 48)" cx="500.291" cy="497.209" r="707.517" fx="500.291" fy="497.209">
   <stop offset="0" style="stop-opacity:1; stop-color:#08E6FF"/>
   <stop offset="0.85098" style="stop-opacity:1; stop-color:#0138C8"/>
   <stop offset="0.501961" style="stop-opacity:1; stop-color:#048FE3"/>
   <stop offset="1" style="stop-opacity:1; stop-color:#0138C8"/>
  </radialGradient>
 </defs>
 <g id="Layer_x0020_1">
  <metadata id="CorelCorpID_0Corel-Layer"/>
  <g id="_359558235088">
   <path class="fil0" d="M157 866c-46,-44 -84,-96 -111,-155 -29,-63 -46,-134 -46,-208l0 0 0 0 0 0 0 0 0 -3c0,-276 224,-500 500,-500 277,0 501,224 501,500 0,4 0,8 -1,12l-109 0c0,-86 -28,-165 -76,-228 -46,-60 -109,-106 -183,-131l-6 -6 3 -11 -11 2 -7 -9 -5 10 -12 0 5 10 -7 9 10 3 3 11 9 -6 10 5 0 -11c74,24 138,70 184,130 46,61 74,138 74,222l-32 0c0,-94 -38,-178 -100,-238 -60,-59 -143,-96 -235,-99l6 -6 -23 -8 -5 -24 -20 14 -22 -12 -2 24 -23 10 18 17 -7 24 24 -3 15 20 13 -21 24 1 -8 -23c92,0 176,36 236,95 60,58 97,138 97,229l-69 0c0,-52 -15,-100 -40,-140 -21,-33 -49,-61 -82,-82l12 -12 -19 -8 -3 -20 -18 10 -17 -11 -3 20 -20 7 14 16 -7 19 21 -1 11 17 12 -17 20 2 -1 -6c28,19 51,44 69,73 25,38 39,83 39,133l-92 0c0,-36 -12,-67 -32,-92 -17,-22 -40,-39 -67,-50l7 -8 -12 -4 -2 -14 -11 7 -11 -7 -2 13 -13 4 9 10 -4 13 13 -1 7 11 8 -11 13 2 -1 -4c23,10 44,26 59,45 18,23 29,53 30,86l-512 0c1,37 8,73 19,106 13,35 30,67 52,96l0 0 5 -6 4 7 9 0 -3 8 5 7 -8 2 -2 9 -7 -5 -8 3 0 -8 -8 -4 6 -6 -1 -7c-21,-29 -38,-60 -50,-94 -11,-34 -18,-70 -20,-108l-84 0c1,11 1,22 2,33 1,11 3,22 5,32l3 -4 4 8 9 0 -4 8 6 7 -9 2 -1 8 -7 -5 -8 4 -1 -9 -7 -3 6 -6 -2 -8 5 1c-2,-12 -4,-23 -5,-34 -1,-11 -2,-22 -2,-34l-37 0c1,70 17,135 44,195 28,59 66,113 114,157l1 0 8 -11 7 12 13 0 -5 12 8 10 -13 4 -2 13 -11 -8 -12 6 -1 -13 -12 -6 10 -9 -2 -8z"/>
   <g>
    <path class="fil1" d="M274 638l0 -1c0,-10 7,-18 17,-18l4 0c10,0 17,8 17,18l0 1c0,9 -7,17 -17,17l-4 0c-10,0 -17,-8 -17,-17zm0 167l0 -112c0,-10 7,-18 17,-18l4 0c10,0 17,8 17,18l0 112c0,10 -7,18 -17,18l-4 0c-10,0 -17,-8 -17,-18zm125 0l0 -151 -61 0 0 -17c0,-10 8,-18 18,-18l144 0 0 17c0,10 -8,18 -18,18l-42 0 0 151c0,10 -8,18 -18,18l-6 0c-10,0 -17,-8 -17,-18zm205 -27l1 1c6,1 11,5 14,11 2,7 0,13 -4,18 -3,3 -6,5 -9,7 -11,8 -24,12 -41,12 -25,0 -44,-9 -57,-26 -9,-13 -14,-30 -14,-51 0,-24 6,-43 19,-57 13,-14 29,-21 48,-21 22,0 40,7 52,22 10,11 16,27 18,47 0,6 -1,10 -5,14 -3,4 -7,5 -12,5l-80 0c0,12 3,21 9,28 6,6 14,9 23,9 6,0 11,-1 15,-5 2,-1 4,-3 5,-6 4,-6 11,-9 18,-8zm-11 -41c0,-12 -3,-20 -9,-26 -5,-6 -12,-9 -20,-9 -9,0 -16,3 -21,9 -6,6 -8,15 -8,26l58 0zm177 -14l-2 0c-7,2 -14,-2 -18,-8 -1,-3 -3,-5 -5,-6 -5,-4 -11,-6 -18,-6 -10,0 -17,3 -23,10 -6,7 -9,18 -9,34 0,17 3,30 9,37 6,7 14,11 23,11 8,0 14,-2 19,-7 2,-2 4,-5 6,-9 3,-7 11,-11 19,-10l3 1c5,1 10,4 12,9 3,5 3,11 0,16 -4,7 -9,13 -15,18 -11,9 -26,14 -45,14 -22,0 -39,-7 -52,-21 -13,-14 -19,-32 -19,-57 0,-24 6,-43 19,-57 13,-13 30,-20 52,-20 18,0 33,4 43,12 5,3 9,7 12,11 4,5 4,11 2,17 -2,6 -7,10 -13,11zm90 -86l0 58c13,-15 28,-23 46,-23 9,0 17,2 24,5 7,3 13,8 16,13 4,5 7,11 8,17 1,6 2,16 2,29l0 69c0,10 -8,18 -18,18l-4 0c-9,0 -17,-8 -17,-18l0 -60c0,-16 -1,-25 -2,-29 -2,-5 -4,-8 -8,-10 -4,-3 -9,-4 -14,-4 -7,0 -13,1 -18,5 -5,3 -9,8 -11,14 -3,6 -4,16 -4,28l0 56c0,10 -8,18 -17,18l-4 0c-10,0 -18,-8 -18,-18l0 -168c0,-10 8,-18 18,-18l4 0c9,0 17,8 17,18z"/>
    <path class="fil1" d="M277 1017l0 -143c0,-9 8,-17 16,-17l1 0c9,0 16,8 16,17l0 116 81 0 0 11c0,9 -8,16 -17,16l-97 0zm160 -81l-6 -1c-6,-1 -11,-5 -13,-12 -1,-6 1,-13 7,-17 0,0 0,0 0,0 8,-5 19,-8 34,-8 14,0 24,2 31,5 7,3 11,7 14,12 3,5 4,14 4,28l0 36c0,10 0,18 1,22 1,5 3,11 6,16l-19 0c-7,0 -13,-4 -15,-11 -1,-1 -1,-1 -1,-1 -5,5 -11,9 -17,11 -6,3 -12,4 -19,4 -12,0 -21,-3 -28,-10 -7,-6 -11,-14 -11,-24 0,-7 2,-13 5,-18 3,-5 8,-9 13,-12 6,-3 14,-5 25,-7 14,-3 24,-5 30,-8l0 -3c0,-6 -2,-10 -4,-13 -3,-2 -9,-3 -17,-3 -6,0 -10,1 -13,3 -3,2 -6,6 -7,11zm41 25c-4,2 -10,3 -19,5 -8,2 -14,4 -17,5 -4,3 -6,7 -6,11 0,5 2,8 5,12 3,3 7,4 12,4 6,0 11,-2 16,-5 4,-3 7,-6 8,-10 0,-3 1,-8 1,-16l0 -6zm59 56l0 -161 15 0c9,0 16,7 16,16l0 42c10,-11 21,-16 34,-16 14,0 26,5 35,15 10,11 14,25 14,45 0,20 -5,35 -14,46 -10,11 -21,16 -35,16 -6,0 -13,-2 -19,-5 -7,-4 -12,-8 -17,-15l0 1c0,9 -7,16 -16,16l-13 0zm31 -61c0,13 2,22 5,27 6,9 13,13 22,13 7,0 12,-3 17,-9 5,-6 7,-15 7,-28 0,-13 -2,-23 -7,-29 -5,-6 -11,-8 -18,-8 -8,0 -14,2 -19,8 -5,6 -7,15 -7,26zm97 28l19 -3c6,-1 12,2 16,7 1,2 2,4 4,5 4,3 10,5 17,5 8,0 14,-2 18,-5 3,-2 4,-4 4,-8 0,-2 -1,-4 -2,-6 -2,-1 -5,-3 -10,-4 -25,-5 -41,-10 -48,-15 -9,-6 -14,-15 -14,-26 0,-10 4,-19 12,-26 8,-7 21,-10 37,-10 16,0 28,3 36,8 8,5 13,13 16,23l-17 3c-6,1 -12,-1 -16,-5 -1,-1 -2,-2 -3,-3 -3,-3 -8,-4 -15,-4 -8,0 -14,1 -18,4 -2,1 -3,3 -3,6 0,2 1,4 3,5 3,3 12,5 29,9 16,4 28,8 34,14 7,5 10,13 10,23 0,11 -4,20 -13,28 -9,7 -22,11 -40,11 -16,0 -28,-3 -38,-10 -9,-6 -15,-15 -18,-26z"/>
   </g>
  </g>
 </g>
</svg>
