<?xml version="1.0" encoding="UTF-8"?>
<!DOCTYPE svg PUBLIC "-//W3C//DTD SVG 1.1//EN" "http://www.w3.org/Graphics/SVG/1.1/DTD/svg11.dtd">
<!-- Creator: CorelDRAW X7 -->
<svg xmlns="http://www.w3.org/2000/svg" xml:space="preserve" width="600px" height="302px" version="1.1" style="shape-rendering:geometricPrecision; text-rendering:geometricPrecision; image-rendering:optimizeQuality; fill-rule:evenodd; clip-rule:evenodd"
viewBox="0 0 876 441"
 xmlns:xlink="http://www.w3.org/1999/xlink">
 <defs>
  <style type="text/css">
   <![CDATA[
    .fil0 {fill:#2B2A29;fill-rule:nonzero}
   ]]>
  </style>
 </defs>
 <g id="Layer_x0020_1">
  <metadata id="CorelCorpID_0Corel-Layer"/>
  <g id="_358955185840">
   <path class="fil0" d="M50 0l776 0c14,0 27,6 36,15l0 0c9,9 14,21 14,35l0 341c0,14 -5,26 -14,36 -9,9 -22,14 -36,14l-776 0c-14,0 -26,-5 -35,-14l0 -1c-9,-9 -15,-21 -15,-35l0 -341c0,-14 6,-26 15,-35l0 0c9,-9 21,-15 35,-15zm776 10l-776 0c-11,0 -21,5 -28,12l0 0c-7,7 -12,17 -12,28l0 341c0,11 5,21 12,28 7,7 17,12 28,12l776 0c11,0 21,-5 28,-12 8,-7 12,-17 12,-28l0 -341c0,-11 -4,-21 -12,-28l0 0c-7,-7 -17,-12 -28,-12z"/>
   <path class="fil0" d="M149 195l14 0 0 -52c3,1 4,1 7,1 11,0 23,-5 30,-14 5,-7 8,-15 8,-26 0,-11 -4,-21 -10,-27 -6,-6 -16,-9 -28,-9 -8,0 -15,1 -21,2l0 125zm14 -114c2,-1 5,-1 9,-1 16,0 21,11 21,24 0,18 -10,28 -24,28 -2,0 -4,0 -6,-1l0 -50zm61 114l15 0 0 -55 5 0c13,0 18,7 21,24 2,16 5,28 7,31l14 0c-1,-3 -4,-14 -7,-32 -3,-16 -7,-25 -17,-28l0 -1c13,-5 21,-16 21,-32 0,-10 -3,-19 -9,-25 -7,-6 -16,-9 -29,-9 -7,0 -15,1 -21,2l0 125zm15 -115c1,0 4,0 7,0 16,0 22,9 22,24 0,15 -9,25 -23,25l-6 0 0 -49zm94 -13c-22,0 -37,23 -37,65 0,43 14,65 35,65 20,0 37,-18 37,-66 0,-40 -13,-64 -35,-64zm-1 13c16,0 21,28 21,52 0,24 -5,52 -21,52 -16,0 -21,-26 -21,-52 0,-26 5,-52 21,-52zm87 115l30 -126 -16 0 -12 59c-3,15 -6,32 -8,49l-1 0c-2,-16 -6,-35 -9,-49l-12 -59 -16 0 29 126 15 0zm79 -38l9 38 14 0 -28 -126 -16 0 -29 126 14 0 8 -38 28 0zm-26 -11l7 -32c2,-9 3,-20 5,-29l1 0c1,9 3,19 5,29l6 32 -24 0zm65 49c4,1 9,1 19,1 14,0 26,-3 33,-11 6,-6 9,-15 9,-25 0,-17 -8,-29 -23,-33l0 0c12,-5 19,-16 19,-29 0,-9 -2,-16 -8,-21 -7,-7 -16,-9 -28,-9 -8,0 -15,1 -21,2l0 125zm14 -115c2,0 5,-1 8,-1 16,0 21,9 21,21 0,13 -10,22 -22,22l-7 0 0 -42zm0 54l7 0c13,0 26,8 26,26 0,16 -10,25 -25,25 -4,0 -6,-1 -8,-1l0 -50zm64 61l51 0 0 -12 -36 0 0 -114 -15 0 0 126zm83 0l0 -54 29 -72 -15 0 -11 31c-3,10 -6,19 -9,29l0 0c-3,-10 -6,-20 -10,-29l-11 -31 -15 0 28 73 0 53 14 0zm-380 179l14 0 0 -57 32 0 0 -13 -32 0 0 -44 34 0 0 -13 -48 0 0 127zm99 -38l9 38 14 0 -28 -127 -16 0 -29 127 14 0 8 -38 28 0zm-26 -12l7 -32c2,-8 4,-19 5,-29l1 0c1,10 3,20 5,29l7 32 -25 0zm65 -77l0 127 15 0 0 -127 -15 0zm38 127l14 0 0 -55 6 0c12,0 18,6 20,24 3,15 5,27 7,31l15 0c-2,-4 -4,-14 -7,-32 -3,-17 -8,-26 -17,-28l0 -1c12,-6 20,-16 20,-32 0,-10 -3,-19 -9,-25 -6,-7 -16,-9 -29,-9 -7,0 -14,0 -20,2l0 125zm14 -115c2,0 5,-1 8,-1 15,1 21,10 21,24 0,16 -9,26 -23,26l-6 0 0 -49z"/>
  </g>
 </g>
</svg>
