<?xml version="1.0" encoding="UTF-8"?>
<!DOCTYPE svg PUBLIC "-//W3C//DTD SVG 1.1//EN" "http://www.w3.org/Graphics/SVG/1.1/DTD/svg11.dtd">
<!-- Creator: CorelDRAW X7 -->
<svg xmlns="http://www.w3.org/2000/svg" xml:space="preserve" width="601px" height="138px" version="1.1" style="shape-rendering:geometricPrecision; text-rendering:geometricPrecision; image-rendering:optimizeQuality; fill-rule:evenodd; clip-rule:evenodd"
viewBox="0 0 601 138"
 xmlns:xlink="http://www.w3.org/1999/xlink">
 <defs>
  <style type="text/css">
   <![CDATA[
    .fil5 {fill:none}
    .fil55 {fill:none;fill-rule:nonzero}
    .fil10 {fill:#FEFEFE}
    .fil23 {fill:#EBECEC}
    .fil0 {fill:#D9DADA}
    .fil25 {fill:#9D9E9E}
    .fil24 {fill:#898989}
    .fil8 {fill:#FFFBDB}
    .fil9 {fill:#FFF7B2}
    .fil14 {fill:#FFF383}
    .fil4 {fill:#FFED00}
    .fil51 {fill:#877D61}
    .fil38 {fill:#FFE598}
    .fil50 {fill:#ECD58E}
    .fil29 {fill:#D9C484}
    .fil52 {fill:#9B8F62}
    .fil36 {fill:#FFE166}
    .fil37 {fill:#FFDE23}
    .fil33 {fill:#FFDD00}
    .fil53 {fill:#C18349}
    .fil39 {fill:#C47B44}
    .fil11 {fill:#C88517}
    .fil26 {fill:#C58C14}
    .fil31 {fill:#B61100}
    .fil2 {fill:#B62A22}
    .fil35 {fill:#BB6800}
    .fil7 {fill:#BB8149}
    .fil54 {fill:#FEB300}
    .fil27 {fill:#FECC00}
    .fil21 {fill:#FEFEFE;fill-rule:nonzero}
    .fil19 {fill:#5B5B5B;fill-rule:nonzero}
    .fil16 {fill:#FFF7B2;fill-rule:nonzero}
    .fil46 {fill:#5A554D;fill-rule:nonzero}
    .fil48 {fill:#FFE598;fill-rule:nonzero}
    .fil43 {fill:#FFDE23;fill-rule:nonzero}
    .fil28 {fill:#FFE497;fill-rule:nonzero}
    .fil56 {fill:black;fill-rule:nonzero}
    .fil44 {fill:#1A0100;fill-rule:nonzero}
    .fil17 {fill:#1A1A1A;fill-rule:nonzero}
    .fil45 {fill:#B61100;fill-rule:nonzero}
    .fil18 {fill:#B62A22;fill-rule:nonzero}
    .fil42 {fill:#BB6800;fill-rule:nonzero}
    .fil15 {fill:#BB8149;fill-rule:nonzero}
    .fil6 {fill:url(#id10)}
    .fil34 {fill:url(#id11)}
    .fil13 {fill:url(#id12)}
    .fil41 {fill:url(#id13)}
    .fil32 {fill:url(#id14)}
    .fil3 {fill:url(#id15)}
    .fil40 {fill:url(#id16)}
    .fil12 {fill:url(#id17)}
    .fil1 {fill:url(#id18)}
    .fil30 {fill:url(#id19)}
    .fil20 {fill:url(#id20);fill-rule:nonzero}
    .fil47 {fill:url(#id21);fill-rule:nonzero}
    .fil22 {fill:url(#id22);fill-rule:nonzero}
    .fil49 {fill:url(#id23);fill-rule:nonzero}
   ]]>
  </style>
    <clipPath id="id0">
     <path d="M68 3c37,0 67,30 67,67 0,38 -30,68 -67,68 -38,0 -68,-30 -68,-68 0,-37 30,-67 68,-67z"/>
    </clipPath>
    <clipPath id="id1">
     <path d="M68 4c37,0 67,29 67,66 0,37 -30,67 -67,67 -37,0 -67,-30 -67,-67 0,-37 30,-66 67,-66zm0 0c36,0 66,30 66,66 0,37 -30,67 -66,67 -37,0 -67,-30 -67,-67 0,-36 30,-66 67,-66z"/>
    </clipPath>
    <clipPath id="id2">
     <path d="M68 8c34,0 63,28 63,62 0,35 -29,63 -63,63 -35,0 -63,-28 -63,-63 0,-34 28,-62 63,-62z"/>
    </clipPath>
    <clipPath id="id3" style="clip-rule:nonzero">
     <path d="M48 46l7 0 0 -8 8 0 0 8 5 0 0 -8 9 0 0 8c1,0 2,0 3,0 2,1 4,1 6,2 1,2 3,3 4,5 1,2 2,4 2,6 0,2 -1,4 -3,6 -1,2 -3,4 -5,5 3,1 6,2 8,5 1,2 2,4 2,7 0,3 0,5 -2,7 -1,3 -2,4 -4,6 -2,1 -5,2 -8,2 -1,0 -2,0 -3,0l0 8 -9 0 0 -8 -1 0 -4 0 0 8 -8 0 0 -8 -7 0 0 -51zm11 8l0 12 7 0c5,0 7,0 8,0 2,0 4,-1 5,-2 1,-1 2,-2 2,-4 0,-1 -1,-3 -2,-4 -1,-1 -2,-1 -4,-1 -1,-1 -4,-1 -10,-1l-6 0zm0 21l0 14 10 0c4,0 7,0 8,-1 2,0 3,-1 4,-2 1,-1 2,-2 2,-4 0,-2 -1,-3 -2,-4 0,-1 -2,-2 -3,-2 -2,-1 -5,-1 -10,-1l-9 0z"/>
    </clipPath>
      <clipPath id="id4">
       <path d="M48 46l7 0 0 -8 8 0 0 8 5 0 0 -8 9 0 0 8c1,0 2,0 3,0 2,1 4,1 6,2 1,2 3,3 4,5 1,2 2,4 2,6 0,2 -1,4 -3,6 -1,2 -3,4 -5,5 3,1 6,2 8,5 1,2 2,4 2,7 0,3 0,5 -2,7 -1,3 -2,4 -4,6 -2,1 -5,2 -8,2 -1,0 -2,0 -3,0l0 8 -9 0 0 -8 -1 0 -4 0 0 8 -8 0 0 -8 -7 0 0 -51zm11 8l0 12 7 0c5,0 7,0 8,0 2,0 4,-1 5,-2 1,-1 2,-2 2,-4 0,-1 -1,-3 -2,-4 -1,-1 -2,-1 -4,-1 -1,-1 -4,-1 -10,-1l-6 0zm0 21l0 14 10 0c4,0 7,0 8,-1 2,0 3,-1 4,-2 1,-1 2,-2 2,-4 0,-2 -1,-3 -2,-4 0,-1 -2,-2 -3,-2 -2,-1 -5,-1 -10,-1l-9 0z"/>
      </clipPath>
      <clipPath id="id5">
       <path d="M48 46l7 0 0 -8 8 0 0 8 5 0 0 -8 9 0 0 8c1,0 2,0 3,0 2,1 4,1 6,2 1,2 3,3 4,5 1,2 2,4 2,6 0,2 -1,4 -3,6 -1,2 -3,4 -5,5 3,1 6,2 8,5 1,2 2,4 2,7 0,3 0,5 -2,7 -1,3 -2,4 -4,6 -2,1 -5,2 -8,2 -1,0 -2,0 -3,0l0 8 -9 0 0 -8 -1 0 -4 0 0 8 -8 0 0 -8 -7 0 0 -51zm11 8l0 12 7 0c5,0 7,0 8,0 2,0 4,-1 5,-2 1,-1 2,-2 2,-4 0,-1 -1,-3 -2,-4 -1,-1 -2,-1 -4,-1 -1,-1 -4,-1 -10,-1l-6 0zm0 21l0 14 10 0c4,0 7,0 8,-1 2,0 3,-1 4,-2 1,-1 2,-2 2,-4 0,-2 -1,-3 -2,-4 0,-1 -2,-2 -3,-2 -2,-1 -5,-1 -10,-1l-9 0z"/>
      </clipPath>
      <clipPath id="id6">
      </clipPath>
      <clipPath id="id7">
       <path d="M48 46l7 0 0 -8 8 0 0 8 5 0 0 -8 9 0 0 8c1,0 2,0 3,0 2,1 4,1 6,2 1,2 3,3 4,5 1,2 2,4 2,6 0,2 -1,4 -3,6 -1,2 -3,4 -5,5 3,1 6,2 8,5 1,2 2,4 2,7 0,3 0,5 -2,7 -1,3 -2,4 -4,6 -2,1 -5,2 -8,2 -1,0 -2,0 -3,0l0 8 -9 0 0 -8 -1 0 -4 0 0 8 -8 0 0 -8 -7 0 0 -51zm11 8l0 12 7 0c5,0 7,0 8,0 2,0 4,-1 5,-2 1,-1 2,-2 2,-4 0,-1 -1,-3 -2,-4 -1,-1 -2,-1 -4,-1 -1,-1 -4,-1 -10,-1l-6 0zm0 21l0 14 10 0c4,0 7,0 8,-1 2,0 3,-1 4,-2 1,-1 2,-2 2,-4 0,-2 -1,-3 -2,-4 0,-1 -2,-2 -3,-2 -2,-1 -5,-1 -10,-1l-9 0z"/>
      </clipPath>
      <clipPath id="id8">
       <path d="M48 46l7 0 0 -8 8 0 0 8 5 0 0 -8 9 0 0 8c1,0 2,0 3,0 2,1 4,1 6,2 1,2 3,3 4,5 1,2 2,4 2,6 0,2 -1,4 -3,6 -1,2 -3,4 -5,5 3,1 6,2 8,5 1,2 2,4 2,7 0,3 0,5 -2,7 -1,3 -2,4 -4,6 -2,1 -5,2 -8,2 -1,0 -2,0 -3,0l0 8 -9 0 0 -8 -1 0 -4 0 0 8 -8 0 0 -8 -7 0 0 -51zm11 8l0 12 7 0c5,0 7,0 8,0 2,0 4,-1 5,-2 1,-1 2,-2 2,-4 0,-1 -1,-3 -2,-4 -1,-1 -2,-1 -4,-1 -1,-1 -4,-1 -10,-1l-6 0zm0 21l0 14 10 0c4,0 7,0 8,-1 2,0 3,-1 4,-2 1,-1 2,-2 2,-4 0,-2 -1,-3 -2,-4 0,-1 -2,-2 -3,-2 -2,-1 -5,-1 -10,-1l-9 0z"/>
      </clipPath>
      <clipPath id="id9">
       <path d="M48 46l7 0 0 -8 8 0 0 8 5 0 0 -8 9 0 0 8c1,0 2,0 3,0 2,1 4,1 6,2 1,2 3,3 4,5 1,2 2,4 2,6 0,2 -1,4 -3,6 -1,2 -3,4 -5,5 3,1 6,2 8,5 1,2 2,4 2,7 0,3 0,5 -2,7 -1,3 -2,4 -4,6 -2,1 -5,2 -8,2 -1,0 -2,0 -3,0l0 8 -9 0 0 -8 -1 0 -4 0 0 8 -8 0 0 -8 -7 0 0 -51zm11 8l0 12 7 0c5,0 7,0 8,0 2,0 4,-1 5,-2 1,-1 2,-2 2,-4 0,-1 -1,-3 -2,-4 -1,-1 -2,-1 -4,-1 -1,-1 -4,-1 -10,-1l-6 0zm0 21l0 14 10 0c4,0 7,0 8,-1 2,0 3,-1 4,-2 1,-1 2,-2 2,-4 0,-2 -1,-3 -2,-4 0,-1 -2,-2 -3,-2 -2,-1 -5,-1 -10,-1l-9 0z"/>
      </clipPath>
  <linearGradient id="id10" gradientUnits="userSpaceOnUse" x1="133.276" y1="140.074" x2="2.04686" y2="0.891067">
   <stop offset="0" style="stop-opacity:1; stop-color:#FFF7B2"/>
   <stop offset="1" style="stop-opacity:1; stop-color:#FFFBDB"/>
  </linearGradient>
  <linearGradient id="id11" gradientUnits="userSpaceOnUse" x1="133.276" y1="140.074" x2="2.04686" y2="0.891067">
   <stop offset="0" style="stop-opacity:1; stop-color:#FFDE23"/>
   <stop offset="1" style="stop-opacity:1; stop-color:#FFE166"/>
  </linearGradient>
  <linearGradient id="id12" gradientUnits="userSpaceOnUse" x1="41.0228" y1="20.7563" x2="94.3004" y2="120.208">
   <stop offset="0" style="stop-opacity:1; stop-color:#FEFEFE"/>
   <stop offset="0.129412" style="stop-opacity:1; stop-color:#C2C2C3"/>
   <stop offset="0.501961" style="stop-opacity:1; stop-color:#727271"/>
   <stop offset="1" style="stop-opacity:1; stop-color:#D9DADA"/>
  </linearGradient>
  <linearGradient id="id13" gradientUnits="userSpaceOnUse" x1="41.0228" y1="20.7563" x2="94.3004" y2="120.208">
   <stop offset="0" style="stop-opacity:1; stop-color:#FFE598"/>
   <stop offset="0.129412" style="stop-opacity:1; stop-color:#C0AF77"/>
   <stop offset="0.501961" style="stop-opacity:1; stop-color:#706959"/>
   <stop offset="1" style="stop-opacity:1; stop-color:#D9C484"/>
  </linearGradient>
  <linearGradient id="id14" gradientUnits="userSpaceOnUse" x1="35.5071" y1="10.7667" x2="99.8166" y2="130.198">
   <stop offset="0" style="stop-opacity:1; stop-color:#FCBE00"/>
   <stop offset="0.501961" style="stop-opacity:1; stop-color:#EA9000"/>
   <stop offset="1" style="stop-opacity:1; stop-color:#FECB00"/>
  </linearGradient>
  <linearGradient id="id15" gradientUnits="userSpaceOnUse" x1="35.5071" y1="10.7667" x2="99.8166" y2="130.198">
   <stop offset="0" style="stop-opacity:1; stop-color:#FCD730"/>
   <stop offset="0.501961" style="stop-opacity:1; stop-color:#EAA912"/>
   <stop offset="1" style="stop-opacity:1; stop-color:#FEE46E"/>
  </linearGradient>
  <linearGradient id="id16" gradientUnits="userSpaceOnUse" x1="37.7845" y1="14.996" x2="97.5393" y2="125.969">
   <stop offset="0" style="stop-opacity:1; stop-color:#FCCB00"/>
   <stop offset="0.501961" style="stop-opacity:1; stop-color:#E69600"/>
   <stop offset="1" style="stop-opacity:1; stop-color:#FED704"/>
  </linearGradient>
  <linearGradient id="id17" gradientUnits="userSpaceOnUse" x1="37.7845" y1="14.996" x2="97.5393" y2="125.969">
   <stop offset="0" style="stop-opacity:1; stop-color:#FCE43C"/>
   <stop offset="0.501961" style="stop-opacity:1; stop-color:#E6AF1C"/>
   <stop offset="1" style="stop-opacity:1; stop-color:#FEF083"/>
  </linearGradient>
  <radialGradient id="id18" gradientUnits="userSpaceOnUse" gradientTransform="matrix(1.95244 -0 -0 1.95244 -134 -40)" cx="140.807" cy="42.2476" r="139.334" fx="140.807" fy="42.2476">
   <stop offset="0" style="stop-opacity:1; stop-color:#FEFEFE"/>
   <stop offset="1" style="stop-opacity:1; stop-color:#D9DADA"/>
  </radialGradient>
  <radialGradient id="id19" gradientUnits="userSpaceOnUse" gradientTransform="matrix(1.95244 -0 -0 1.95244 -134 -40)" cx="140.807" cy="42.2476" r="139.334" fx="140.807" fy="42.2476">
   <stop offset="0" style="stop-opacity:1; stop-color:#FFE497"/>
   <stop offset="1" style="stop-opacity:1; stop-color:#D9C484"/>
  </radialGradient>
  <linearGradient id="id20" gradientUnits="userSpaceOnUse" x1="52.2955" y1="50.4796" x2="89.6332" y2="91.982">
   <stop offset="0" style="stop-opacity:1; stop-color:#FEFEFE"/>
   <stop offset="0.129412" style="stop-opacity:1; stop-color:#EBECEC"/>
   <stop offset="0.501961" style="stop-opacity:1; stop-color:#C5C6C6"/>
   <stop offset="1" style="stop-opacity:1; stop-color:#EBECEC"/>
  </linearGradient>
  <linearGradient id="id21" gradientUnits="userSpaceOnUse" x1="52.2955" y1="50.4796" x2="89.6332" y2="91.982">
   <stop offset="0" style="stop-opacity:1; stop-color:#FFE598"/>
   <stop offset="0.129412" style="stop-opacity:1; stop-color:#ECD58E"/>
   <stop offset="0.501961" style="stop-opacity:1; stop-color:#C4B379"/>
   <stop offset="1" style="stop-opacity:1; stop-color:#ECD58E"/>
  </linearGradient>
  <linearGradient id="id22" gradientUnits="userSpaceOnUse" x1="53.1572" y1="49.9276" x2="88.7715" y2="92.5349">
   <stop offset="0" style="stop-opacity:1; stop-color:#C4C5C5"/>
   <stop offset="0.129412" style="stop-opacity:1; stop-color:#BABBBB"/>
   <stop offset="0.501961" style="stop-opacity:1; stop-color:#A6A7A7"/>
   <stop offset="1" style="stop-opacity:1; stop-color:#BABBBB"/>
  </linearGradient>
  <linearGradient id="id23" gradientUnits="userSpaceOnUse" x1="53.1572" y1="49.9276" x2="88.7715" y2="92.5349">
   <stop offset="0" style="stop-opacity:1; stop-color:#C3B178"/>
   <stop offset="0.129412" style="stop-opacity:1; stop-color:#B8A873"/>
   <stop offset="0.501961" style="stop-opacity:1; stop-color:#A49667"/>
   <stop offset="1" style="stop-opacity:1; stop-color:#B8A873"/>
  </linearGradient>
 </defs>
 <rect class="fil0" x="-213" y="-73" width="1028" height="1453"/>
 <g id="Layer_x0020_1">
  <metadata id="CorelCorpID_0Corel-Layer"/>
  <g id="_358997408064">
   <path class="fil1" d="M167 0c37,0 68,31 68,68 0,38 -31,68 -68,68 -19,0 -37,-8 -49,-20 0,-1 0,-1 1,-1l0 0c0,-1 0,-1 1,-1l0 -1c0,0 1,0 1,-1l0 0c0,0 1,-1 1,-1l0 0c0,0 0,-1 1,-1l0 0c0,-1 0,-1 1,-1l0 -1 0 0c5,-8 9,-17 10,-26l0 -1c1,0 1,0 1,-1 0,0 0,0 0,0 0,-1 0,-1 0,-1 0,-1 0,-1 0,-1 0,0 0,-1 0,-1 0,0 0,-1 0,-1l0 0c0,-1 0,-1 0,-2l0 0c0,-1 0,-1 0,-2l0 0c0,0 0,-1 0,-1 0,-1 0,-2 0,-2l0 0c0,-1 0,-1 0,-2l0 0c0,-1 0,-1 0,-2l0 0c0,0 0,-1 0,-1 0,0 0,-1 0,-1 0,0 0,0 0,-1 0,0 0,0 0,0 0,-1 0,-1 0,-1 0,-1 0,-1 -1,-1 0,-1 0,-1 0,-1 0,0 0,-1 0,-1l0 0 0 0 0 -1c-2,-9 -5,-17 -10,-24 -1,-1 -1,-1 -1,-2l0 0c0,0 -1,-1 -1,-1l0 0c0,0 -1,-1 -1,-1l0 0c0,-1 -1,-1 -1,-1l0 -1c0,0 -1,0 -1,-1l0 0c-1,0 -1,-1 -1,-1l0 0c-1,0 -1,-1 -1,-1l0 0c-1,-1 -1,-1 -1,-1 12,-14 30,-23 51,-23z"/>
   <path class="fil2" d="M155 35l24 0 0 21 21 0 0 24 -21 0 0 21 -24 0 0 -21 -20 0 0 0c0,1 0,1 -1,1l0 1c0,3 -1,6 -2,8 8,12 20,19 35,19 23,0 41,-18 41,-41 0,-22 -18,-41 -41,-41 -15,0 -29,8 -36,21 1,3 2,6 3,9l0 -1 21 0 0 -21zm12 -31c4,0 8,0 12,1l0 4c-4,-1 -8,-2 -12,-2 -4,0 -9,1 -13,2l0 -4c4,-1 9,-1 13,-1zm36 10c7,5 13,11 18,18l-3 3c-5,-7 -11,-13 -18,-18l3 -3zm27 41c1,5 2,9 2,13 0,4 -1,8 -1,12l-4 0c1,-3 1,-8 1,-12 0,-4 -1,-8 -1,-13l3 0zm-9 49c-5,7 -11,13 -18,18l-3 -3c8,-4 14,-11 18,-18l3 3zm-41 28c-4,1 -9,1 -13,1 -4,0 -8,0 -12,-1l0 -4c4,1 8,1 12,1 4,0 9,0 13,-1l0 4zm-49 -10c-4,-2 -7,-6 -11,-9 0,0 1,0 1,-1l0 0c0,0 1,-1 1,-1l0 0c0,0 0,-1 1,-1 3,4 7,7 11,9l-3 3zm-13 -96c4,-5 8,-8 13,-11l2 2c-4,3 -9,7 -12,12 -1,-1 -1,-1 -1,-1l0 -1c0,0 -1,0 -1,-1l0 0c0,0 -1,0 -1,0zm60 -14c8,1 15,4 21,8l-8 9c-4,-2 -9,-4 -13,-5l0 -12zm28 33l9 -9c4,6 7,14 9,21l-13 0c-1,-4 -2,-9 -5,-12zm5 34l13 0c-2,8 -5,15 -9,22l-9 -9c2,-4 4,-8 5,-13zm-20 29l8 8c-6,4 -13,7 -21,9l0 -12c4,-1 9,-3 13,-5zm-35 5l0 12c-8,-2 -15,-5 -21,-9l8 -9c4,3 8,5 13,6zm-13 -84l-8 -9c6,-4 13,-7 21,-8l0 12c-5,1 -9,3 -13,5z"/>
   <path class="fil3" d="M68 3c37,0 67,30 67,67 0,38 -30,68 -67,68 -38,0 -68,-30 -68,-68 0,-37 30,-67 68,-67z"/>
   <g style="clip-path:url(#id0)">
    <g>
     <path id="1" class="fil4" d="M116 13l-7 -9 -137 110 5 9 139 -110zm-8 -11l-2 -3 -139 109 3 4 138 -110z"/>
    </g>
   </g>
   <path class="fil5" d="M68 3c37,0 67,30 67,67 0,38 -30,68 -67,68 -38,0 -68,-30 -68,-68 0,-37 30,-67 68,-67z"/>
   <path class="fil6" d="M1 57l5 0c-1,5 -1,9 -1,13 0,5 0,9 1,13l-5 0c-1,-4 -1,-8 -1,-13 0,-4 0,-8 1,-13zm67 -54c4,0 8,0 13,1l0 5c-4,-1 -9,-1 -13,-1 -5,0 -9,0 -13,1l0 -5c4,-1 8,-1 13,-1zm38 11c7,5 13,11 18,19l-4 3c-4,-7 -11,-13 -18,-18l4 -4zm28 43c1,5 1,9 1,13 0,5 0,9 -1,13l-5 0c1,-4 2,-8 2,-13 0,-4 -1,-8 -2,-13l5 0zm-10 51c-5,7 -11,13 -18,18l-4 -3c8,-5 14,-11 18,-18l4 3zm-43 29c-5,1 -9,1 -13,1 -5,0 -9,0 -13,-1l0 -5c4,1 8,1 13,1 4,0 9,0 13,-1l0 5zm-51 -10c-7,-5 -14,-11 -18,-19l3 -3c5,7 11,13 18,18l-3 4zm-18 -95c5,-7 11,-13 18,-18l3 4c-7,4 -13,11 -18,18l-3 -4z"/>
   <path class="fil7" d="M68 4c37,0 67,30 67,67 0,37 -30,67 -67,67 -37,0 -67,-30 -67,-67 0,-37 30,-67 67,-67zm0 1c37,0 66,29 66,66 0,36 -29,66 -66,66 -37,0 -66,-30 -66,-66 0,-37 29,-66 66,-66z"/>
   <path class="fil8" d="M67 3c37,0 67,30 67,67 0,37 -30,67 -67,67 -37,0 -66,-30 -66,-67 0,-37 29,-67 66,-67zm0 1c37,0 67,30 67,66 0,37 -30,66 -67,66 -36,0 -66,-29 -66,-66 0,-36 30,-66 66,-66z"/>
   <path class="fil9" d="M68 4c37,0 67,29 67,66 0,37 -30,67 -67,67 -37,0 -67,-30 -67,-67 0,-37 30,-66 67,-66zm0 0c36,0 66,30 66,66 0,37 -30,67 -66,67 -37,0 -67,-30 -67,-67 0,-36 30,-66 67,-66z"/>
   <g style="clip-path:url(#id1)">
    <g>
     <path id="1" class="fil10" d="M117 11l-6 -8 -138 110 6 9 138 -111zm-7 -11l-3 -3 -138 110 2 3 139 -110z"/>
    </g>
   </g>
   <path class="fil5" d="M68 4c37,0 67,29 67,66 0,37 -30,67 -67,67 -37,0 -67,-30 -67,-67 0,-37 30,-66 67,-66zm0 0c36,0 66,30 66,66 0,37 -30,67 -66,67 -37,0 -67,-30 -67,-67 0,-36 30,-66 67,-66z"/>
   <path class="fil8" d="M67 7c35,0 63,28 63,63 0,35 -28,63 -63,63 -34,0 -62,-28 -62,-63 0,-35 28,-63 62,-63z"/>
   <path class="fil11" d="M68 8c35,0 63,28 63,63 0,35 -28,63 -63,63 -35,0 -63,-28 -63,-63 0,-35 28,-63 63,-63z"/>
   <path class="fil12" d="M68 8c34,0 63,28 63,62 0,35 -29,63 -63,63 -35,0 -63,-28 -63,-63 0,-34 28,-62 63,-62z"/>
   <g style="clip-path:url(#id2)">
    <g>
     <path id="1" class="fil4" d="M116 12l-7 -9 -137 110 5 9 139 -110zm-8 -11l-2 -3 -139 109 3 4 138 -110z"/>
    </g>
   </g>
   <path class="fil5" d="M68 8c34,0 63,28 63,62 0,35 -29,63 -63,63 -35,0 -63,-28 -63,-63 0,-34 28,-62 63,-62z"/>
   <path class="fil13" d="M68 26c24,0 44,20 44,44 0,25 -20,45 -44,45 -25,0 -45,-20 -45,-45 0,-24 20,-44 45,-44z"/>
   <polygon class="fil14" points="26,97 27,100 30,101 27,103 27,107 24,104 21,105 22,102 20,99 24,100 "/>
   <path class="fil15" d="M12 80l-1 -3c0,-1 0,-1 0,-1 0,-1 0,-1 0,-1 0,-1 1,-1 1,-1 0,0 0,0 1,0 0,0 1,0 1,0 0,0 1,0 1,1 0,-1 0,-1 0,-2 1,0 1,0 2,0 0,0 0,0 1,0 0,0 1,0 1,0 0,1 0,1 0,2 0,0 0,0 1,2l0 2 -8 1zm1 -1l2 -1 0 -1c-1,0 -1,-1 -1,-1 0,0 0,-1 0,-1 0,0 0,0 -1,0 0,0 0,0 0,0 0,1 -1,1 -1,1 0,0 1,1 1,2l0 1zm3 -1l2 0 0 -2c0,0 0,-1 0,-1 0,0 0,0 0,0 -1,-1 -1,-1 -1,-1 0,0 -1,1 -1,1 0,0 0,0 0,0 0,1 0,1 0,2l0 1zm3 -7l-8 0 0 -2 8 0 0 2zm0 -5l-6 -1 -1 2 -1 0 1 -7 1 1 0 2 7 1 -1 2zm0 -12l1 -1c1,1 1,1 1,2 1,0 1,1 0,2 0,1 -1,2 -1,3 -1,0 -2,0 -4,0 -1,-1 -2,-1 -3,-2 0,-1 0,-2 0,-3 0,-1 1,-2 2,-3 0,0 1,0 1,0l0 2c0,0 -1,0 -1,0 0,0 0,1 -1,1 0,1 0,1 1,2 0,0 1,1 2,1 1,0 1,0 2,0 0,0 1,-1 1,-1 0,-1 0,-1 0,-1 0,-1 -1,-1 -1,-2zm0 -3c-1,-1 -2,-1 -2,-2 0,0 0,0 -1,-1 0,0 0,-1 0,-1 0,-1 0,-1 1,-2 0,-1 1,-2 2,-2 1,0 2,0 4,0 1,1 2,2 2,3 0,1 0,2 0,3 -1,1 -2,2 -3,2 -1,0 -2,0 -3,0zm1 -2c0,1 1,1 2,1 0,-1 1,-1 1,-2 1,0 1,-1 0,-1 0,-1 0,-2 -1,-2 -1,-1 -2,-1 -2,-1 -1,1 -2,1 -2,2 0,0 0,1 0,1 0,1 1,2 2,2zm7 -5l-7 -5 1 -1 7 5 -1 1zm2 -2l-6 -6 1 -1 6 1 -4 -4 1 -1 6 5 -1 2 -6 -1 4 3 -1 2zm11 -15l1 0c1,1 1,2 1,2 -1,1 -1,2 -2,2 -1,1 -2,1 -3,1 -1,-1 -2,-1 -2,-2 -1,-1 -2,-3 -1,-4 0,-1 0,-1 1,-2 1,-1 2,-1 3,-1 0,0 1,0 1,1l-1 1c0,0 0,0 -1,0 0,0 -1,0 -1,0 -1,0 -1,1 -1,2 0,0 0,1 1,2 1,1 1,1 2,1 0,0 1,0 1,0 1,0 1,-1 1,-1 0,-1 0,-1 0,-2zm11 -2l-1 1 -2 -2 -3 2 0 2 -2 1 0 -10 2 0 6 6zm-4 -2l-2 -2 0 3 2 -1zm4 -1l2 0c0,0 0,0 0,1 1,0 1,0 2,0 0,0 1,-1 1,-1 0,0 0,-1 0,-1 0,0 0,0 0,0 0,0 -1,0 -1,-1 0,0 -1,0 -1,0 -1,1 -2,0 -2,0 -1,0 -1,-1 -2,-1 0,-1 0,-1 0,-2 1,0 1,0 1,-1 1,0 1,0 2,0 1,-1 2,-1 2,0 1,0 1,1 2,1l-2 1c0,-1 0,-1 -1,-1 0,0 0,0 -1,0 0,0 -1,0 -1,1 0,0 0,0 0,0 0,0 0,1 0,1 1,0 1,0 2,0 1,0 1,0 2,0 0,0 1,0 1,0 0,1 1,1 1,2 0,0 0,1 0,1 0,1 -1,1 -1,1 -1,1 -1,1 -2,1 -1,0 -2,0 -2,0 -1,0 -2,-1 -2,-2zm9 1l-1 -8 1 -1 1 9 -1 0zm3 -1l0 -8 1 0 4 6 0 -6 2 0 0 8 -2 0 -4 -5 1 5 -2 0zm9 -4c0,-1 0,-1 1,-2 0,0 0,-1 1,-1 0,0 1,0 1,-1 0,0 1,0 2,0 1,1 2,1 3,2 0,1 0,2 0,3 0,2 -1,3 -2,3 0,1 -1,1 -3,1 -1,0 -2,-1 -2,-2 -1,0 -1,-2 -1,-3zm2 0c0,1 0,2 0,3 0,0 1,1 2,1 0,0 1,0 1,-1 1,0 1,-1 1,-2 1,-1 0,-2 0,-2 0,-1 -1,-1 -1,-1 -1,0 -2,0 -2,0 -1,1 -1,1 -1,2zm11 4l1 1c0,0 0,1 0,1 0,0 1,1 1,1 1,0 1,0 1,0 1,0 1,0 1,0 0,-1 0,-1 0,-1 0,0 0,0 0,-1 0,0 -1,0 -1,-1 -1,0 -2,-1 -2,-1 0,-1 0,-1 0,-2 0,0 1,-1 1,-1 0,0 1,0 1,0 1,0 1,0 2,0 1,1 2,1 2,2 0,0 0,1 0,2l-2 -1c0,0 0,-1 0,-1 0,0 0,0 -1,-1 0,0 0,0 -1,0 0,0 0,0 0,1 0,0 0,0 0,0 0,0 0,1 1,1 1,1 1,1 1,2 1,0 1,0 1,1 0,0 0,1 0,1 -1,1 -1,1 -1,1 -1,1 -1,1 -2,1 0,0 -1,0 -1,-1 -1,0 -2,-1 -2,-1 -1,-1 -1,-2 0,-3zm8 2c0,0 1,-1 1,-1 1,0 1,-1 2,-1 0,0 0,0 1,0 0,0 1,0 2,1 1,0 1,1 2,2 0,1 0,3 -1,4 -1,1 -2,2 -3,2 -1,0 -2,0 -3,-1 -1,0 -2,-1 -2,-2 0,-1 0,-2 1,-4zm1 1c0,1 0,2 0,2 0,1 0,2 1,2 0,0 1,0 2,0 0,0 1,0 1,-1 1,-1 1,-2 1,-2 0,-1 -1,-2 -1,-2 -1,0 -1,0 -2,0 -1,0 -1,0 -2,1zm5 8l5 -6 5 4 -1 1 -3 -3 -2 2 3 2 -1 1 -3 -2 -2 3 -1 -2zm6 7l5 -5 -1 -2 1 -1 4 6 -1 1 -1 -2 -6 4 -1 -1zm4 5l6 -6 1 2 -4 4 6 -2 0 2 -4 4 6 -1 1 1 -9 2 -1 -1 5 -5 -6 2 -1 -2zm6 16l0 -2 1 -1 -1 -4 -2 0 0 -2 9 1 0 2 -7 6zm3 -4l2 -2 -3 -1 1 3zm-3 5l9 -2 0 4c0,1 0,1 0,2 0,0 0,1 0,1 -1,0 -1,0 -2,1 0,0 -1,-1 -1,-1 -1,0 -1,-1 -1,-1 0,0 -1,0 -1,1 0,0 -1,0 -1,1l-2 1 0 -2 2 -1c0,-1 1,-1 1,-2 0,0 0,0 0,0 0,0 0,-1 0,-1l0 0 -3 0 -1 -1zm5 1l1 1c0,1 0,1 0,1 0,0 0,1 0,1 1,0 1,0 1,0 0,0 0,0 1,-1 0,0 0,0 0,0 0,0 0,-1 0,-1l0 -2 -3 1zm-4 7l9 0 0 6 -2 0 0 -4 -2 0 0 4 -1 0 0 -4 -2 0 0 4 -2 0 0 -6z"/>
   <path class="fil15" d="M35 116l1 0c0,1 0,1 0,2 0,0 0,0 1,1 0,0 0,0 1,0 0,0 0,0 1,-1 0,0 0,0 0,0 0,0 0,0 -1,-1 0,0 0,0 -1,-1 0,0 -1,-1 -1,-1 0,-1 0,-2 1,-2 0,0 0,-1 1,-1 0,0 0,0 1,0 0,0 1,0 1,1 1,0 2,1 2,1 0,1 0,2 0,2l-2 0c0,-1 0,-1 0,-1 0,-1 0,-1 0,-1 -1,-1 -1,-1 -2,-1 0,0 0,0 0,1 0,0 0,0 0,0 0,0 0,1 1,1 0,1 1,2 1,2 0,0 0,1 0,1 0,0 0,1 0,1 0,1 -1,1 -1,1 -1,0 -1,0 -2,0 0,0 -1,0 -1,0 -1,-1 -2,-2 -2,-2 0,-1 0,-2 1,-2zm7 3c0,-1 1,-2 1,-2 1,0 1,-1 2,-1 0,0 0,0 1,0 0,0 1,0 1,0 2,1 2,2 3,3 0,1 0,2 -1,3 0,1 -1,2 -2,2 -1,1 -2,1 -3,0 -1,0 -2,-1 -2,-2 -1,-1 0,-2 0,-3zm2 0c-1,1 -1,2 -1,2 1,1 1,1 2,2 0,0 1,0 1,0 1,0 1,-1 2,-2 0,-1 0,-1 0,-2 0,-1 0,-1 -1,-1 -1,-1 -1,-1 -2,0 0,0 -1,0 -1,1zm6 7l2 -8 5 2 0 1 -4 -1 0 2 3 1 0 1 -4 -1 -1 4 -1 -1zm9 2l1 -7 -2 0 0 -1 7 1 -1 1 -2 0 -1 6 -2 0zm6 -2l2 0c0,1 0,1 0,1 1,0 1,1 2,1 0,0 0,-1 1,-1 0,0 0,0 0,-1 0,0 0,0 0,0 0,0 0,0 -1,0 0,0 0,-1 -1,-1 -1,0 -2,0 -2,0 0,-1 -1,-1 -1,-2 0,0 0,-1 1,-1 0,-1 0,-1 1,-1 0,0 1,0 1,0 1,0 2,0 3,0 0,1 0,1 0,2l-1 0c0,0 0,-1 -1,-1 0,0 0,0 -1,0 0,0 -1,0 -1,0 0,0 0,1 0,1 0,0 0,0 0,0 0,0 1,1 2,1 0,0 1,0 1,0 1,0 1,1 1,1 1,0 1,1 1,1 0,1 0,1 -1,2 0,0 0,0 -1,1 0,0 -1,0 -1,0 -1,0 -2,0 -3,-1 0,0 -1,-1 -1,-2zm10 2l-3 -7 2 0 2 5 0 -6 2 0 3 5 0 -6 1 0 0 8 -2 0 -2 -5 -1 6 -2 0zm11 -2l-3 -7 2 -1 2 8 -1 0zm2 -3l2 -1c0,0 0,1 1,1 0,0 0,0 1,-1 0,0 1,0 1,0 0,-1 0,-1 0,-1 0,0 0,-1 -1,-1 0,0 0,0 0,0 0,0 -1,0 -2,1 0,0 -1,0 -2,0 0,-1 -1,-1 -1,-2 0,0 0,0 0,-1 0,0 0,-1 1,-1 0,0 0,-1 1,-1 1,0 2,0 2,0 1,0 1,0 2,1l-2 1c0,0 0,-1 -1,-1 0,0 0,0 -1,0 0,1 0,1 -1,1 0,0 0,1 0,1 1,0 1,0 1,0 0,0 1,0 1,0 1,0 2,0 2,0 1,0 1,0 1,0 1,0 1,1 1,1 1,1 1,1 1,1 -1,1 -1,1 -1,2 0,0 -1,0 -2,1 0,0 -1,0 -2,0 -1,0 -1,-1 -2,-1zm8 -4l1 -1c0,1 1,1 1,1 1,0 1,0 1,-1 1,0 1,0 1,0 0,-1 0,-1 0,-1 0,0 0,-1 0,-1 0,0 -1,0 -1,0 0,0 -1,1 -1,1 -1,0 -2,0 -2,0 -1,0 -1,0 -2,-1 0,0 0,-1 0,-1 0,0 0,-1 0,-1 1,-1 1,-1 2,-1 0,-1 1,-1 2,-1 0,0 1,0 1,1l-1 1c0,0 0,0 -1,0 0,-1 0,0 -1,0 0,0 0,0 -1,1 0,0 0,0 1,0 0,0 0,1 0,1 0,0 1,-1 2,-1 0,0 1,0 1,0 1,0 1,0 2,0 0,0 0,0 1,1 0,0 0,1 0,1 0,1 0,1 -1,1 0,1 0,1 -1,2 -1,0 -1,0 -2,0 -1,0 -2,0 -2,-1z"/>
   <path class="fil16" d="M12 80l-1 -4c0,0 0,-1 0,-1 0,0 0,-1 0,-1 0,0 1,-1 1,-1 0,0 0,0 1,0 0,0 1,0 1,0 0,0 1,0 1,1 0,-1 0,-1 0,-1 1,-1 1,-1 2,-1 0,0 0,0 1,0 0,0 1,0 1,1 0,0 0,0 0,1 0,0 0,1 1,2l0 3 -8 1zm1 -2l2 0 0 -1c-1,-1 -1,-2 -1,-2 0,0 0,0 0,0 0,0 0,-1 -1,-1 0,1 0,1 0,1 0,0 -1,0 -1,0 0,1 1,1 1,2l0 1zm3 -1l2 0 0 -1c0,-1 0,-1 0,-2 0,0 0,0 0,0 -1,0 -1,0 -1,0 0,0 -1,0 -1,0 0,0 0,0 0,1 0,0 0,0 0,1l0 1zm3 -7l-8 0 0 -2 8 1 0 1zm0 -5l-6 -1 -1 3 -1 -1 1 -6 1 0 0 2 7 1 -1 2zm0 -11l1 -2c1,1 1,1 1,2 1,1 1,2 0,2 0,2 -1,2 -1,3 -1,0 -2,0 -4,0 -1,0 -2,-1 -3,-2 0,-1 0,-2 0,-3 0,-1 1,-2 2,-2 0,0 1,-1 1,-1l0 2c0,0 -1,0 -1,0 0,1 0,1 -1,1 0,1 0,2 1,2 0,1 1,1 2,1 1,1 1,1 2,0 0,0 1,0 1,-1 0,0 0,-1 0,-1 0,-1 -1,-1 -1,-1zm0 -4c-1,0 -2,-1 -2,-1 0,-1 0,-1 -1,-2 0,0 0,-1 0,-1 0,-1 0,-1 1,-2 0,-1 1,-2 2,-2 1,0 2,0 4,1 1,0 2,1 2,2 0,1 0,2 0,3 -1,1 -2,2 -3,2 -1,1 -2,1 -3,0zm1 -2c0,1 1,1 2,1 0,0 1,-1 1,-1 1,-1 1,-2 0,-2 0,-1 0,-1 -1,-2 -1,0 -2,0 -2,0 -1,0 -2,0 -2,1 0,1 0,1 0,2 0,0 1,1 2,1zm7 -4l-7 -5 1 -2 7 5 -1 2zm2 -3l-6 -6 1 -1 6 1 -4 -4 1 -1 6 6 -1 1 -6 -1 4 4 -1 1zm11 -14l1 -1c1,1 1,2 1,3 -1,0 -1,1 -2,1 -1,1 -2,1 -3,1 -1,0 -2,-1 -2,-2 -1,-1 -2,-2 -1,-3 0,-1 0,-2 1,-3 1,0 2,-1 3,-1 0,1 1,1 1,1l-1 2c0,-1 0,-1 -1,-1 0,0 -1,0 -1,0 -1,1 -1,1 -1,2 0,0 0,1 1,2 1,1 1,1 2,1 0,1 1,1 1,0 1,0 1,0 1,-1 0,0 0,-1 0,-1zm11 -3l-1 1 -2 -1 -3 1 0 2 -2 1 0 -9 2 -1 6 6zm-4 -1l-2 -3 0 4 2 -1zm4 -1l2 -1c0,0 0,1 0,1 1,0 1,0 2,0 0,0 1,0 1,-1 0,0 0,0 0,-1 0,0 0,0 0,0 0,0 -1,0 -1,0 0,0 -1,0 -1,0 -1,0 -2,0 -2,-1 -1,0 -1,0 -2,-1 0,0 0,-1 0,-1 1,-1 1,-1 1,-1 1,-1 1,-1 2,-1 1,0 2,0 2,0 1,0 1,1 2,2l-2 0c0,0 0,-1 -1,-1 0,0 0,0 -1,0 0,0 -1,1 -1,1 0,0 0,0 0,1 0,0 0,0 0,0 1,0 1,0 2,0 1,0 1,0 2,0 0,0 1,0 1,1 0,0 1,0 1,1 0,0 0,1 0,1 0,1 -1,1 -1,2 -1,0 -1,0 -2,0 -1,1 -2,1 -2,0 -1,0 -2,-1 -2,-1zm9 0l-1 -8 1 0 1 8 -1 0zm3 0l0 -9 1 0 4 6 0 -6 2 0 0 9 -2 0 -4 -6 1 6 -2 0zm9 -5c0,0 0,-1 1,-2 0,0 0,0 1,-1 0,0 1,0 1,0 0,0 1,0 2,0 1,0 2,1 3,1 0,1 0,2 0,4 0,1 -1,2 -2,3 0,0 -1,1 -3,0 -1,0 -2,0 -2,-1 -1,-1 -1,-2 -1,-4zm2 1c0,1 0,1 0,2 0,0 1,1 2,1 0,0 1,0 1,0 1,-1 1,-2 1,-3 1,-1 0,-1 0,-2 0,0 -1,-1 -1,-1 -1,0 -2,0 -2,1 -1,0 -1,1 -1,2zm11 3l1 1c0,1 0,1 0,1 0,1 1,1 1,1 1,0 1,1 1,0 1,0 1,0 1,0 0,0 0,-1 0,-1 0,0 0,0 0,0 0,0 -1,-1 -1,-1 -1,-1 -2,-1 -2,-2 0,0 0,-1 0,-2 0,0 1,0 1,-1 0,0 1,0 1,0 1,0 1,0 2,0 1,1 2,1 2,2 0,1 0,1 0,2l-2 0c0,-1 0,-1 0,-2 0,0 0,0 -1,0 0,0 0,0 -1,0 0,0 0,0 0,0 0,0 0,0 0,1 0,0 0,0 1,1 1,0 1,1 1,1 1,0 1,1 1,1 0,1 0,1 0,2 -1,0 -1,0 -1,1 -1,0 -1,0 -2,0 0,0 -1,0 -1,0 -1,-1 -2,-1 -2,-2 -1,-1 -1,-2 0,-3zm8 3c0,-1 1,-2 1,-2 1,0 1,0 2,0 0,-1 0,-1 1,-1 0,1 1,1 2,1 1,1 1,2 2,3 0,1 0,2 -1,3 -1,1 -2,2 -3,2 -1,0 -2,0 -3,0 -1,-1 -2,-2 -2,-3 0,-1 0,-2 1,-3zm1 1c0,0 0,1 0,2 0,0 0,1 1,1 0,1 1,1 2,1 0,-1 1,-1 1,-2 1,-1 1,-1 1,-2 0,-1 -1,-1 -1,-2 -1,0 -1,0 -2,0 -1,0 -1,1 -2,2zm5 8l5 -7 5 4 -1 1 -3 -2 -2 1 3 3 -1 1 -3 -3 -2 3 -1 -1zm6 6l5 -4 -1 -2 1 -1 4 5 -1 1 -1 -2 -6 4 -1 -1zm4 5l6 -5 1 1 -4 4 6 -1 0 1 -4 4 6 -1 1 1 -9 2 -1 -1 5 -5 -6 2 -1 -2zm6 16l0 -2 1 -1 -1 -3 -2 0 0 -2 9 1 0 1 -7 6zm3 -4l2 -2 -3 0 1 2zm-3 5l9 -1 0 3c0,1 0,2 0,2 0,1 0,1 0,1 -1,1 -1,1 -2,1 0,0 -1,0 -1,-1 -1,0 -1,0 -1,-1 0,0 -1,1 -1,1 0,0 -1,1 -1,1l-2 1 0 -2 2 -1c0,-1 1,-1 1,-1 0,0 0,-1 0,-1 0,0 0,0 0,-1l0 0 -3 1 -1 -2zm5 1l1 1c0,1 0,1 0,2 0,0 0,0 0,0 1,0 1,0 1,0 0,0 0,0 1,0 0,0 0,-1 0,-1 0,0 0,0 0,-1l0 -1 -3 0zm-4 7l9 0 0 7 -2 0 0 -5 -2 0 0 4 -1 0 0 -4 -2 0 0 5 -2 0 0 -7z"/>
   <path class="fil16" d="M35 115l1 1c0,0 0,1 0,1 0,0 0,1 1,1 0,0 0,0 1,0 0,0 0,0 1,0 0,0 0,-1 0,-1 0,0 0,0 -1,0 0,-1 0,-1 -1,-1 0,-1 -1,-2 -1,-2 0,-1 0,-1 1,-2 0,0 0,0 1,-1 0,0 0,0 1,0 0,0 1,1 1,1 1,0 2,1 2,2 0,0 0,1 0,2l-2 -1c0,-1 0,-1 0,-1 0,0 0,-1 0,-1 -1,0 -1,0 -2,0 0,0 0,0 0,0 0,0 0,0 0,1 0,0 0,0 1,1 0,0 1,1 1,1 0,1 0,1 0,1 0,1 0,1 0,2 0,0 -1,0 -1,1 -1,0 -1,0 -2,0 0,0 -1,-1 -1,-1 -1,-1 -2,-1 -2,-2 0,-1 0,-1 1,-2zm7 3c0,-1 1,-1 1,-2 1,0 1,0 2,0 0,-1 0,-1 1,-1 0,0 1,0 1,1 2,0 2,1 3,2 0,1 0,2 -1,3 0,1 -1,2 -2,3 -1,0 -2,0 -3,-1 -1,0 -2,-1 -2,-2 -1,-1 0,-2 0,-3zm2 1c-1,0 -1,1 -1,2 1,0 1,1 2,1 0,0 1,0 1,0 1,0 1,-1 2,-2 0,0 0,-1 0,-2 0,0 0,-1 -1,-1 -1,0 -1,0 -2,0 0,0 -1,1 -1,2zm6 6l2 -7 5 1 0 1 -4 -1 0 2 3 1 0 1 -4 0 -1 3 -1 -1zm9 2l1 -6 -2 -1 0 -1 7 1 -1 1 -2 0 -1 7 -2 -1zm6 -1l2 -1c0,1 0,1 0,2 1,0 1,0 2,0 0,0 0,0 1,-1 0,0 0,0 0,0 0,-1 0,-1 0,-1 0,0 0,0 -1,0 0,0 0,0 -1,0 -1,-1 -2,-1 -2,-1 0,-1 -1,-1 -1,-2 0,0 0,-1 1,-1 0,0 0,-1 1,-1 0,0 1,0 1,0 1,0 2,0 3,0 0,1 0,1 0,2l-1 0c0,0 0,0 -1,-1 0,0 0,0 -1,0 0,0 -1,0 -1,1 0,0 0,0 0,0 0,0 0,0 0,1 0,0 1,0 2,0 0,0 1,0 1,1 1,0 1,0 1,0 1,1 1,1 1,2 0,0 0,1 -1,1 0,0 0,1 -1,1 0,0 -1,0 -1,0 -1,0 -2,0 -3,0 0,-1 -1,-2 -1,-2zm10 2l-3 -8 2 0 2 5 0 -6 2 0 3 5 0 -6 1 0 0 8 -2 1 -2 -6 -1 6 -2 1zm11 -3l-3 -7 2 -1 2 8 -1 0zm2 -3l2 -1c0,1 0,1 1,1 0,0 0,0 1,0 0,0 1,-1 1,-1 0,0 0,-1 0,-1 0,0 0,0 -1,0 0,0 0,0 0,0 0,0 -1,0 -2,0 0,0 -1,0 -2,0 0,0 -1,-1 -1,-1 0,-1 0,-1 0,-1 0,-1 0,-1 1,-2 0,0 0,0 1,0 1,-1 2,-1 2,-1 1,0 1,1 2,1l-2 1c0,0 0,0 -1,0 0,-1 0,0 -1,0 0,0 0,0 -1,0 0,1 0,1 0,1 1,0 1,0 1,0 0,0 1,0 1,0 1,0 2,0 2,0 1,0 1,0 1,0 1,1 1,1 1,1 1,1 1,1 1,2 -1,0 -1,1 -1,1 0,0 -1,1 -2,1 0,0 -1,1 -2,0 -1,0 -1,0 -2,-1zm8 -4l1 -1c0,1 1,1 1,1 1,0 1,0 1,0 1,0 1,-1 1,-1 0,0 0,-1 0,-1 0,0 0,0 0,0 0,0 -1,0 -1,0 0,0 -1,0 -1,0 -1,0 -2,1 -2,0 -1,0 -1,0 -2,0 0,-1 0,-1 0,-2 0,0 0,0 0,-1 1,0 1,-1 2,-1 0,-1 1,-1 2,-1 0,0 1,1 1,1l-1 1c0,0 0,0 -1,0 0,0 0,0 -1,0 0,0 0,1 -1,1 0,0 0,0 1,1 0,0 0,0 0,0 0,0 1,0 2,-1 0,0 1,0 1,0 1,0 1,0 2,0 0,0 0,1 1,1 0,1 0,1 0,1 0,1 0,1 -1,2 0,0 0,1 -1,1 -1,1 -1,1 -2,1 -1,0 -2,-1 -2,-2z"/>
   <path class="fil17" d="M12 80l-1 -3c0,-1 0,-1 0,-2 0,0 0,0 0,-1 0,0 1,0 1,0 0,-1 0,-1 1,-1 0,0 1,0 1,0 0,1 1,1 1,1 0,0 0,-1 0,-1 1,0 1,-1 2,-1 0,0 0,0 1,1 0,0 0,0 1,0 0,0 0,1 0,1 0,1 0,1 1,2l0 3 -8 1zm1 -2l2 0 -1 -1c0,-1 0,-1 0,-1 0,-1 0,-1 0,-1 0,0 0,0 -1,0 0,0 0,0 0,0 -1,0 -1,1 -1,1 0,0 0,1 1,1l0 1zm3 0l2 0 0 -2c0,-1 0,-1 0,-1 0,0 0,-1 -1,-1 0,0 0,0 0,0 -1,0 -1,0 -1,0 0,1 0,1 0,1 0,0 0,1 0,2l0 1zm3 -7l-8 -1 0 -1 8 0 0 2zm0 -6l-7 -1 0 3 -1 0 1 -7 1 0 0 3 7 1 -1 1zm0 -11l1 -1c1,0 1,1 1,2 1,0 1,1 0,2 0,1 -1,2 -1,2 -1,1 -3,1 -4,0 -1,0 -2,-1 -3,-2 0,0 0,-2 0,-3 0,-1 1,-1 2,-2 0,0 1,0 1,0l0 2c0,-1 -1,0 -1,0 0,0 -1,0 -1,1 0,0 0,1 1,1 0,1 1,1 2,2 1,0 1,0 2,0 0,-1 1,-1 1,-2 0,0 0,0 0,-1 0,0 -1,-1 -1,-1zm0 -4c-1,0 -2,0 -2,-1 0,0 -1,-1 -1,-1 0,-1 0,-1 0,-2 0,0 0,-1 1,-1 0,-1 1,-2 2,-2 1,-1 2,-1 4,0 1,1 2,2 2,3 0,1 0,2 -1,3 0,1 -1,2 -2,2 -1,0 -2,0 -3,-1zm0 -1c1,0 2,0 3,0 0,0 1,0 1,-1 0,-1 1,-1 0,-2 0,0 0,-1 -1,-1 -1,-1 -2,-1 -3,-1 0,0 -1,1 -1,1 0,1 0,2 0,2 0,1 1,1 1,2zm8 -5l-7 -5 1 -1 7 5 -1 1zm2 -3l-6 -5 1 -2 6 2 -4 -4 1 -1 6 5 -1 1 -6 -1 4 4 -1 1zm11 -14l1 0c1,0 1,1 1,2 -1,1 -1,1 -2,2 -1,0 -2,1 -3,0 -1,0 -2,0 -3,-2 0,-1 -1,-2 0,-3 0,-1 0,-2 1,-2 1,-1 2,-1 3,-1 0,0 1,0 1,1l-1 1c0,0 0,-1 -1,-1 0,0 -1,1 -1,1 -1,0 -1,1 -1,1 0,1 0,2 1,2 0,1 1,2 2,2 0,0 1,0 1,0 1,-1 1,-1 1,-1 0,-1 0,-1 0,-2zm11 -2l-2 1 -1 -2 -3 1 0 2 -2 1 0 -9 2 -1 6 7zm-4 -2l-2 -2 0 3 2 -1zm4 -1l2 -1c0,1 0,1 0,1 1,1 1,1 2,0 0,0 1,0 1,0 0,-1 0,-1 0,-1 0,0 0,-1 0,-1 0,0 -1,0 -1,0 0,0 -1,0 -1,0 -1,0 -2,0 -2,0 -1,0 -1,-1 -2,-2 0,0 0,0 0,-1 1,0 1,-1 1,-1 1,0 1,0 2,-1 1,0 2,0 2,0 1,1 1,1 2,2l-2 1c0,-1 -1,-1 -1,-1 0,0 0,0 -1,0 0,0 -1,0 -1,0 0,1 0,1 0,1 0,0 0,0 0,0 1,0 1,1 2,0 1,0 1,0 2,1 0,0 1,0 1,0 0,0 1,1 1,1 0,1 0,1 0,2 -1,0 -1,1 -1,1 -1,0 -1,1 -2,1 -1,0 -2,0 -3,0 0,-1 -1,-1 -1,-2zm9 1l-1 -9 1 0 1 8 -1 1zm3 -1l0 -8 1 0 4 5 0 -5 1 0 1 8 -2 0 -4 -5 1 5 -2 0zm9 -4c0,-1 0,-2 1,-2 0,-1 0,-1 1,-1 0,-1 0,-1 1,-1 0,0 1,0 2,0 1,0 2,1 2,2 1,1 1,2 1,3 0,2 -1,3 -2,3 0,1 -2,1 -3,1 -1,0 -2,-1 -3,-2 0,-1 0,-2 0,-3zm2 0c0,1 0,2 0,2 0,1 1,1 1,1 1,0 2,0 2,0 1,-1 1,-1 1,-2 0,-1 0,-2 0,-2 0,-1 -1,-1 -1,-1 -1,-1 -2,0 -2,0 -1,0 -1,1 -1,2zm10 4l2 0c0,1 0,1 0,2 0,0 1,0 1,1 1,0 1,0 1,0 1,0 1,0 1,-1 0,0 0,0 0,0 0,0 0,-1 0,-1 0,0 -1,0 -1,-1 -1,0 -2,-1 -2,-1 0,-1 0,-2 0,-2 0,-1 1,-1 1,-1 0,0 1,-1 1,-1 1,0 1,1 2,1 1,0 2,1 2,1 0,1 0,2 0,3l-2 -1c0,-1 0,-1 0,-1 0,0 0,-1 -1,-1 0,0 -1,0 -1,0 0,0 0,0 0,0 0,1 0,1 0,1 0,0 0,1 1,1 1,1 1,1 1,1 1,1 1,1 1,2 0,0 0,0 0,1 -1,0 -1,1 -1,1 -1,0 -1,0 -2,0 0,0 -1,0 -2,0 -1,-1 -1,-1 -1,-2 -1,0 -1,-1 -1,-2zm9 2c0,-1 1,-1 1,-2 1,0 1,0 2,0 0,0 0,0 1,0 0,0 1,0 2,1 1,0 1,1 2,2 0,1 -1,2 -1,3 -1,2 -2,2 -3,3 -1,0 -2,0 -3,-1 -1,-1 -2,-2 -2,-3 0,-1 0,-2 1,-3zm1 1c0,1 0,2 0,2 0,1 0,1 1,2 0,0 1,0 2,0 0,0 1,-1 1,-2 1,0 1,-1 1,-2 0,0 -1,-1 -1,-1 -1,-1 -1,-1 -2,-1 -1,1 -1,1 -2,2zm5 8l5 -6 5 4 -1 1 -3 -3 -2 2 3 2 -1 1 -3 -2 -2 2 -1 -1zm6 6l5 -4 -1 -2 1 -1 4 5 -1 1 -1 -2 -6 5 -1 -2zm4 6l6 -6 1 1 -4 4 5 -1 1 2 -4 4 6 -2 1 2 -9 2 -1 -2 5 -4 -6 1 -1 -1zm6 15l0 -1 1 -2 -1 -3 -2 0 0 -2 9 1 0 2 -7 5zm2 -4l3 -2 -3 0 0 2zm-2 5l9 -1 0 4c0,0 0,1 0,2 0,0 0,0 0,1 -1,0 -1,0 -2,0 0,0 -1,0 -1,0 -1,0 -1,-1 -1,-2 -1,1 -1,1 -1,1 0,1 -1,1 -1,1l-2 2 0 -2 2 -2c0,0 1,-1 1,-1 0,0 0,0 0,0 0,-1 0,-1 0,-1l0 -1 -3 1 -1 -2zm5 1l1 1c0,1 0,2 0,2 0,0 0,0 0,0 0,0 1,1 1,0 0,0 0,0 1,0 0,0 0,0 0,-1 0,0 0,0 0,-1l-1 -1 -2 0zm-4 8l9 0 -1 6 -1 0 0 -4 -2 0 0 4 -1 0 0 -4 -2 -1 -1 5 -1 0 0 -6z"/>
   <path class="fil18" d="M34 115l2 1c0,0 0,1 0,1 0,1 0,1 1,1 0,1 0,1 1,1 0,0 0,-1 0,-1 1,0 1,0 1,0 0,-1 -1,-1 -1,-1 0,0 0,0 -1,-1 0,-1 -1,-1 -1,-2 0,0 0,-1 1,-1 0,-1 0,-1 0,-1 1,0 1,0 2,0 0,0 1,0 1,0 1,1 2,1 2,2 0,1 0,1 -1,2l-1 -1c0,0 0,0 0,-1 0,0 0,0 -1,-1 0,0 0,0 -1,0 0,0 0,0 0,0 0,1 0,1 0,1 0,0 0,1 1,1 0,1 1,1 1,2 0,0 0,0 0,1 0,0 0,1 0,1 0,0 -1,1 -1,1 -1,0 -1,0 -2,0 0,0 -1,0 -1,-1 -1,0 -2,-1 -2,-2 0,0 0,-1 0,-2zm8 3c0,0 1,-1 1,-1 1,-1 1,-1 1,-1 1,0 1,0 2,0 0,0 1,0 1,0 1,1 2,1 3,2 0,1 0,2 -1,4 0,1 -1,2 -2,2 -1,0 -2,0 -3,0 -1,-1 -2,-2 -2,-2 -1,-1 0,-3 0,-4zm2 1c-1,1 -1,2 -1,2 1,1 1,1 1,1 1,1 2,1 2,0 1,0 1,0 2,-1 0,-1 0,-2 0,-2 0,-1 -1,-1 -1,-2 -1,0 -1,0 -2,0 0,1 -1,1 -1,2zm6 7l2 -8 5 2 0 1 -4 -1 0 2 3 1 0 1 -4 -1 -1 3 -1 0zm9 2l1 -7 -2 0 0 -1 7 0 -1 2 -2 -1 -1 7 -2 0zm6 -2l2 0c0,0 0,1 0,1 1,0 1,0 2,0 0,0 0,0 1,0 0,0 0,-1 0,-1 0,0 0,0 0,0 0,-1 0,-1 -1,-1 0,0 0,0 -1,0 -1,0 -2,0 -2,-1 0,0 -1,-1 -1,-1 0,-1 0,-1 1,-2 0,0 0,0 1,0 0,-1 1,-1 1,-1 1,0 2,0 2,1 1,0 1,1 1,2l-1 0c0,-1 -1,-1 -1,-1 0,0 0,0 -1,0 0,0 -1,0 -1,0 0,0 0,0 0,0 0,1 0,1 0,1 0,0 1,0 2,0 0,1 1,1 1,1 1,0 1,0 1,1 1,0 1,1 1,1 0,0 0,1 -1,1 0,1 0,1 -1,1 0,0 -1,1 -1,1 -1,0 -2,-1 -3,-1 0,0 -1,-1 -1,-2zm10 2l-3 -7 2 -1 2 5 0 -5 2 -1 3 6 0 -6 1 0 0 8 -2 0 -2 -5 -1 6 -2 0zm11 -2l-3 -8 2 0 2 7 -1 1zm2 -4l2 0c0,0 0,0 1,0 0,0 0,0 1,0 0,0 1,0 1,-1 0,0 0,0 0,0 0,-1 0,-1 -1,-1 0,0 0,0 0,0 0,0 -1,0 -2,0 0,0 -1,0 -2,0 0,0 -1,0 -1,-1 0,0 0,-1 0,-1 0,0 0,-1 0,-1 1,-1 1,-1 2,-1 1,-1 1,-1 2,0 1,0 1,0 2,1l-2 1c0,-1 0,-1 -1,-1 0,0 0,0 -1,0 0,0 0,1 -1,1 0,0 0,0 0,0 0,1 1,1 1,1 0,0 1,0 1,0 1,-1 2,-1 2,-1 1,0 1,1 1,1 1,0 1,0 1,1 0,0 1,1 0,1 0,1 0,1 0,1 0,1 -1,1 -2,1 -1,1 -1,1 -2,1 -1,0 -1,-1 -2,-2zm8 -3l1 -1c0,0 1,0 1,1 1,0 1,-1 1,-1 1,0 1,0 1,-1 0,0 0,0 0,-1 0,0 0,0 0,0 0,0 -1,0 -1,0 0,0 -1,0 -1,1 -1,0 -2,0 -2,0 -1,0 -1,-1 -2,-1 0,0 0,-1 0,-1 0,-1 0,-1 0,-1 1,-1 1,-1 1,-2 1,0 2,0 3,0 0,0 1,0 1,1l-1 1c0,-1 -1,-1 -1,-1 0,0 0,0 -1,1 0,0 0,0 -1,0 0,1 0,1 0,1 1,0 1,0 1,0 0,0 1,0 1,0 1,0 2,-1 2,-1 1,0 1,0 1,1 1,0 1,0 1,1 1,0 1,0 1,1 0,0 0,1 -1,1 0,1 0,1 -1,1 -1,1 -2,1 -2,1 -1,0 -2,0 -2,-1z"/>
   <path class="fil19" d="M49 47l7 0 0 -8 8 0 0 8 5 0 0 -8 9 0 0 8c1,0 2,0 3,0 2,1 4,1 6,2 1,1 3,3 4,5 1,1 2,3 2,6 0,2 -1,4 -2,6 -2,2 -4,4 -6,5 3,1 6,2 8,5 1,2 2,4 2,7 0,3 0,5 -1,7 -2,2 -3,4 -5,6 -2,1 -5,2 -8,2 0,0 -2,0 -3,0l0 8 -9 0 0 -8 -1 0 -4 0 0 8 -8 0 0 -8 -7 0 0 -51zm11 8l0 12 7 0c5,0 7,0 9,0 1,0 3,-1 4,-2 1,-1 2,-2 2,-4 0,-1 -1,-3 -2,-4 -1,-1 -2,-1 -4,-2 -1,0 -4,0 -10,0l-6 0zm0 21l0 14 10 0c4,0 7,0 8,-1 2,0 3,-1 4,-2 1,-1 2,-2 2,-4 0,-2 -1,-3 -1,-4 -1,-1 -2,-2 -4,-2 -1,-1 -5,-1 -10,-1l-9 0z"/>
   <path class="fil20" d="M48 46l7 0 0 -9 8 0 0 9 5 0 0 -9 9 0 0 9c1,0 2,0 3,0 2,0 4,1 6,2 1,1 3,3 4,5 1,1 2,3 2,6 0,2 -1,4 -3,6 -1,2 -3,4 -5,5 3,1 6,2 8,4 1,3 2,5 2,8 0,3 0,5 -2,7 -1,2 -2,4 -4,5 -2,2 -5,3 -8,3 -1,0 -2,0 -3,0l0 8 -9 0 0 -8 -1 0 -4 0 0 8 -8 0 0 -8 -7 0 0 -51zm11 8l0 12 7 0c5,0 7,0 8,0 2,0 4,-1 5,-2 1,-1 2,-2 2,-4 0,-2 -1,-3 -2,-4 -1,-1 -2,-1 -4,-2 -1,0 -4,0 -10,0l-6 0zm0 21l0 13 10 0c4,0 7,0 8,0 2,0 3,-1 4,-2 1,-1 2,-2 2,-4 0,-2 -1,-3 -2,-4 0,-1 -2,-2 -3,-3 -2,0 -5,0 -10,0l-9 0z"/>
   <path class="fil21" d="M48 46l7 0 0 -8 8 0 0 0 -8 0 0 8 -7 0 0 51 0 0 0 -51zm16 0l4 0 0 -8 9 0 0 0 -8 0 0 8 -5 0 0 0zm14 0c0,0 1,0 2,0 2,0 4,1 6,2 1,1 2,2 3,3 -1,-1 -2,-1 -3,-2 -2,-1 -3,-2 -6,-2 0,0 -1,0 -2,0l0 -1zm7 24c3,1 5,3 6,4 -1,-1 -4,-3 -7,-3 1,-1 1,-1 1,-1zm-16 35l-1 0 0 -7 1 0 0 7zm-14 0l0 0 0 -7 0 0 0 7zm5 -39l6 0c5,0 7,0 8,0 2,0 4,-1 5,-2 1,-1 2,-2 2,-4 0,-1 -1,-2 -1,-3 0,0 0,0 0,0 1,1 1,2 1,4 0,1 0,3 -1,4 -2,1 -3,1 -5,2 -1,0 -4,0 -8,0l-7 0 0 -1zm0 23l9 0c4,0 7,-1 8,-1 2,0 3,-1 4,-2 1,-1 2,-2 2,-4 0,-2 -1,-3 -2,-4l0 0c1,0 1,0 1,1 1,1 1,2 1,4 0,1 0,3 -1,4 -1,1 -3,2 -4,2 -1,0 -4,0 -8,0l-10 0 0 0z"/>
   <path class="fil10" d="M77 38l-9 7 0 1 0 0 -20 16 0 13 11 -9 0 0 0 -12 6 0c4,0 7,0 9,0l9 -7c-1,0 -2,-1 -3,-1 -1,0 -2,0 -3,0l0 -8zm-14 3l0 5 1 0 -16 13 0 -5 15 -13zm5 1l0 -5 6 0 -6 5z"/>
   <path class="fil22" d="M63 37l0 0 0 8 0 0 0 -8zm13 0l1 0 0 8c0,0 -1,0 -1,0l0 -8zm11 12c1,1 2,2 3,4 1,1 2,3 2,6 0,2 -1,4 -3,6 -1,2 -3,4 -5,5 0,-1 -1,-1 -1,-1 2,-1 4,-2 6,-4 1,-2 2,-5 2,-7 0,-2 -1,-4 -2,-6 -1,-1 -1,-2 -2,-3zm3 24c0,0 1,1 2,1 1,3 2,5 2,8 0,3 0,5 -2,7 -1,2 -2,4 -4,5 -2,2 -5,3 -8,3 -1,0 -2,0 -3,0l0 8 -9 0 0 -1 8 0 0 -7c2,-1 3,-1 4,-1 3,0 5,-1 7,-2 2,-1 4,-3 5,-5 1,-3 2,-5 2,-7 0,-3 -1,-6 -3,-8 0,-1 -1,-1 -1,-1zm-22 24l-1 0 -4 0 0 8 -8 0 0 -1 8 0 0 -7 3 0 2 0 0 0zm-14 0l-6 0 0 0 6 0 0 0zm5 -43l0 12 -1 0 0 -12 7 0c5,0 8,0 9,0 2,0 4,1 5,2 -1,-1 -3,-2 -4,-2 -1,0 -4,0 -10,0l-6 0zm0 21l0 13 -1 0 0 -14 9 0c5,0 9,0 10,1 1,0 2,1 3,2 0,-1 -1,-1 -2,-2 -2,0 -5,0 -10,0l-9 0z"/>
   <path class="fil23" d="M105 47c5,7 7,15 7,24 0,24 -20,44 -44,44 -17,0 -31,-9 -39,-22 8,13 22,21 38,21 25,0 45,-20 45,-44 0,-8 -3,-16 -7,-23z"/>
   <path class="fil24" d="M37 102c-6,-5 -10,-12 -12,-20 -7,-24 7,-48 31,-55 16,-4 32,1 43,11 -11,-10 -27,-14 -42,-10 -24,6 -38,30 -32,54 2,8 6,15 12,20z"/>
   <path class="fil8" d="M36 15c0,0 1,0 1,0 0,0 0,1 -1,1 -1,1 -1,1 -2,1 0,-1 1,-1 2,-2z"/>
   <path class="fil8" d="M33 12c1,0 2,0 2,0 0,0 0,1 -1,1 -1,1 -2,1 -2,0 0,0 1,0 1,-1z"/>
   <path class="fil23" d="M38 103c-6,-6 -11,-13 -13,-21 -6,-24 8,-48 32,-54 15,-4 31,0 42,11 -11,-10 -26,-15 -42,-11 -24,7 -38,31 -31,55 2,8 6,14 12,20z"/>
   <path class="fil25" d="M105 47c4,7 7,15 7,23 0,24 -20,44 -45,44 -16,0 -30,-8 -38,-21 8,12 22,21 38,21 24,0 44,-20 44,-45 0,-8 -2,-16 -6,-22z"/>
   <polygon class="fil26" points="26,97 27,101 30,102 27,104 27,107 25,105 21,106 23,103 21,100 24,100 "/>
   <polygon class="fil27" points="26,97 27,100 30,102 27,103 27,107 25,105 21,106 22,103 20,100 24,100 "/>
   <polygon class="fil14" points="111,97 110,100 107,101 110,103 110,107 112,104 116,105 114,102 116,99 113,100 "/>
   <polygon class="fil26" points="110,97 110,101 106,102 109,104 109,107 112,105 116,106 114,103 116,100 113,100 "/>
   <polygon class="fil27" points="111,97 110,100 107,102 110,103 110,107 112,105 116,106 114,103 116,100 113,100 "/>
   <g style="clip-path:url(#id3)">
    <polygon class="fil28" points="-77,-87 219,-87 219,230 -77,230 "/>
    <polygon id="1" class="fil29" points="-213,-73 814,-73 814,1380 -213,1380 "/>
    <g id="Layer_x0020_1_0">
     <metadata id="CorelCorpID_1Corel-Layer"/>
     <g>
      <path id="2" class="fil30" d="M167 0c37,0 68,31 68,68 0,38 -31,68 -68,68 -19,0 -37,-8 -49,-20 0,-1 0,-1 1,-1l0 0c0,-1 0,-1 1,-1l0 -1c0,0 1,0 1,-1l0 0c0,0 1,-1 1,-1l0 0c0,0 0,-1 1,-1l0 0c0,-1 0,-1 1,-1l0 -1 0 0c5,-8 9,-17 10,-26l0 -1c1,0 1,0 1,-1 0,0 0,0 0,0 0,-1 0,-1 0,-1 0,-1 0,-1 0,-1 0,0 0,-1 0,-1 0,0 0,-1 0,-1l0 0c0,-1 0,-1 0,-2l0 0c0,-1 0,-1 0,-2l0 0c0,0 0,-1 0,-1 0,-1 0,-2 0,-2l0 0c0,-1 0,-1 0,-2l0 0c0,-1 0,-1 0,-2l0 0c0,0 0,-1 0,-1 0,0 0,-1 0,-1 0,0 0,0 0,-1 0,0 0,0 0,0 0,-1 0,-1 0,-1 0,-1 0,-1 -1,-1 0,-1 0,-1 0,-1 0,0 0,-1 0,-1l0 0 0 0 0 -1c-2,-9 -5,-17 -10,-24 -1,-1 -1,-1 -1,-2l0 0c0,0 -1,-1 -1,-1l0 0c0,0 -1,-1 -1,-1l0 0c0,-1 -1,-1 -1,-1l0 -1c0,0 -1,0 -1,-1l0 0c-1,0 -1,-1 -1,-1l0 0c-1,0 -1,-1 -1,-1l0 0c-1,-1 -1,-1 -1,-1 12,-14 30,-23 51,-23z"/>
      <path class="fil31" d="M155 35l24 0 0 21 21 0 0 24 -21 0 0 21 -24 0 0 -21 -20 0 0 0c0,1 0,1 -1,1l0 1c0,3 -1,6 -2,8 8,12 20,19 35,19 23,0 41,-18 41,-41 0,-22 -18,-41 -41,-41 -15,0 -29,8 -36,21 1,3 2,6 3,9l0 -1 21 0 0 -21zm12 -31c4,0 8,0 12,1l0 4c-4,-1 -8,-2 -12,-2 -4,0 -9,1 -13,2l0 -4c4,-1 9,-1 13,-1zm36 10c7,5 13,11 18,18l-3 3c-5,-7 -11,-13 -18,-18l3 -3zm27 41c1,5 2,9 2,13 0,4 -1,8 -1,12l-4 0c1,-3 1,-8 1,-12 0,-4 -1,-8 -1,-13l3 0zm-9 49c-5,7 -11,13 -18,18l-3 -3c8,-4 14,-11 18,-18l3 3zm-41 28c-4,1 -9,1 -13,1 -4,0 -8,0 -12,-1l0 -4c4,1 8,1 12,1 4,0 9,0 13,-1l0 4zm-49 -10c-4,-2 -7,-6 -11,-9 0,0 1,0 1,-1l0 0c0,0 1,-1 1,-1l0 0c0,0 0,-1 1,-1 3,4 7,7 11,9l-3 3zm-13 -96c4,-5 8,-8 13,-11l2 2c-4,3 -9,7 -12,12 -1,-1 -1,-1 -1,-1l0 -1c0,0 -1,0 -1,-1l0 0c0,0 -1,0 -1,0zm60 -14c8,1 15,4 21,8l-8 9c-4,-2 -9,-4 -13,-5l0 -12zm28 33l9 -9c4,6 7,14 9,21l-13 0c-1,-4 -2,-9 -5,-12zm5 34l13 0c-2,8 -5,15 -9,22l-9 -9c2,-4 4,-8 5,-13zm-20 29l8 8c-6,4 -13,7 -21,9l0 -12c4,-1 9,-3 13,-5zm-35 5l0 12c-8,-2 -15,-5 -21,-9l8 -9c4,3 8,5 13,6zm-13 -84l-8 -9c6,-4 13,-7 21,-8l0 12c-5,1 -9,3 -13,5z"/>
      <path class="fil32" d="M68 3c37,0 67,30 67,67 0,38 -30,68 -67,68 -38,0 -68,-30 -68,-68 0,-37 30,-67 68,-67z"/>
     </g>
     <g style="clip-path:url(#id4)">
      <g>
       <path id="1" class="fil33" d="M116 13l-7 -9 -137 110 5 9 139 -110zm-8 -11l-2 -3 -139 109 3 4 138 -110z"/>
      </g>
     </g>
     <g style="clip-path:url(#id5)">
      <path class="fil5" d="M68 3c37,0 67,30 67,67 0,38 -30,68 -67,68 -38,0 -68,-30 -68,-68 0,-37 30,-67 68,-67z"/>
      <path class="fil34" d="M1 57l5 0c-1,5 -1,9 -1,13 0,5 0,9 1,13l-5 0c-1,-4 -1,-8 -1,-13 0,-4 0,-8 1,-13zm67 -54c4,0 8,0 13,1l0 5c-4,-1 -9,-1 -13,-1 -5,0 -9,0 -13,1l0 -5c4,-1 8,-1 13,-1zm38 11c7,5 13,11 18,19l-4 3c-4,-7 -11,-13 -18,-18l4 -4zm28 43c1,5 1,9 1,13 0,5 0,9 -1,13l-5 0c1,-4 2,-8 2,-13 0,-4 -1,-8 -2,-13l5 0zm-10 51c-5,7 -11,13 -18,18l-4 -3c8,-5 14,-11 18,-18l4 3zm-43 29c-5,1 -9,1 -13,1 -5,0 -9,0 -13,-1l0 -5c4,1 8,1 13,1 4,0 9,0 13,-1l0 5zm-51 -10c-7,-5 -14,-11 -18,-19l3 -3c5,7 11,13 18,18l-3 4zm-18 -95c5,-7 11,-13 18,-18l3 4c-7,4 -13,11 -18,18l-3 -4z"/>
      <path class="fil35" d="M68 4c37,0 67,30 67,67 0,37 -30,67 -67,67 -37,0 -67,-30 -67,-67 0,-37 30,-67 67,-67zm0 1c37,0 66,29 66,66 0,36 -29,66 -66,66 -37,0 -66,-30 -66,-66 0,-37 29,-66 66,-66z"/>
      <path class="fil36" d="M67 3c37,0 67,30 67,67 0,37 -30,67 -67,67 -37,0 -66,-30 -66,-67 0,-37 29,-67 66,-67zm0 1c37,0 67,30 67,66 0,37 -30,66 -67,66 -36,0 -66,-29 -66,-66 0,-36 30,-66 66,-66z"/>
      <path class="fil37" d="M68 4c37,0 67,29 67,66 0,37 -30,67 -67,67 -37,0 -67,-30 -67,-67 0,-37 30,-66 67,-66zm0 0c36,0 66,30 66,66 0,37 -30,67 -66,67 -37,0 -67,-30 -67,-67 0,-36 30,-66 67,-66z"/>
     </g>
     <g style="clip-path:url(#id6)">
      <g>
       <path id="1" class="fil38" d="M117 11l-6 -8 -138 110 6 9 138 -111zm-7 -11l-3 -3 -138 110 2 3 139 -110z"/>
      </g>
     </g>
     <g style="clip-path:url(#id7)">
      <path class="fil5" d="M68 4c37,0 67,29 67,66 0,37 -30,67 -67,67 -37,0 -67,-30 -67,-67 0,-37 30,-66 67,-66zm0 0c36,0 66,30 66,66 0,37 -30,67 -66,67 -37,0 -67,-30 -67,-67 0,-36 30,-66 67,-66z"/>
      <path class="fil36" d="M67 7c35,0 63,28 63,63 0,35 -28,63 -63,63 -34,0 -62,-28 -62,-63 0,-35 28,-63 62,-63z"/>
      <path class="fil39" d="M68 8c35,0 63,28 63,63 0,35 -28,63 -63,63 -35,0 -63,-28 -63,-63 0,-35 28,-63 63,-63z"/>
      <path class="fil40" d="M68 8c34,0 63,28 63,62 0,35 -29,63 -63,63 -35,0 -63,-28 -63,-63 0,-34 28,-62 63,-62z"/>
     </g>
     <g style="clip-path:url(#id8)">
      <g>
       <path id="1" class="fil33" d="M116 12l-7 -9 -137 110 5 9 139 -110zm-8 -11l-2 -3 -139 109 3 4 138 -110z"/>
      </g>
     </g>
     <g style="clip-path:url(#id9)">
      <path class="fil5" d="M68 8c34,0 63,28 63,62 0,35 -29,63 -63,63 -35,0 -63,-28 -63,-63 0,-34 28,-62 63,-62z"/>
      <path class="fil41" d="M68 26c24,0 44,20 44,44 0,25 -20,45 -44,45 -25,0 -45,-20 -45,-45 0,-24 20,-44 45,-44z"/>
      <polygon class="fil33" points="26,97 27,100 30,101 27,103 27,107 24,104 21,105 22,102 20,99 24,100 "/>
      <path class="fil42" d="M12 80l-1 -3c0,-1 0,-1 0,-1 0,-1 0,-1 0,-1 0,-1 1,-1 1,-1 0,0 0,0 1,0 0,0 1,0 1,0 0,0 1,0 1,1 0,-1 0,-1 0,-2 1,0 1,0 2,0 0,0 0,0 1,0 0,0 1,0 1,0 0,1 0,1 0,2 0,0 0,0 1,2l0 2 -8 1zm1 -1l2 -1 0 -1c-1,0 -1,-1 -1,-1 0,0 0,-1 0,-1 0,0 0,0 -1,0 0,0 0,0 0,0 0,1 -1,1 -1,1 0,0 1,1 1,2l0 1zm3 -1l2 0 0 -2c0,0 0,-1 0,-1 0,0 0,0 0,0 -1,-1 -1,-1 -1,-1 0,0 -1,1 -1,1 0,0 0,0 0,0 0,1 0,1 0,2l0 1zm3 -7l-8 0 0 -2 8 0 0 2zm0 -5l-6 -1 -1 2 -1 0 1 -7 1 1 0 2 7 1 -1 2zm0 -12l1 -1c1,1 1,1 1,2 1,0 1,1 0,2 0,1 -1,2 -1,3 -1,0 -2,0 -4,0 -1,-1 -2,-1 -3,-2 0,-1 0,-2 0,-3 0,-1 1,-2 2,-3 0,0 1,0 1,0l0 2c0,0 -1,0 -1,0 0,0 0,1 -1,1 0,1 0,1 1,2 0,0 1,1 2,1 1,0 1,0 2,0 0,0 1,-1 1,-1 0,-1 0,-1 0,-1 0,-1 -1,-1 -1,-2zm0 -3c-1,-1 -2,-1 -2,-2 0,0 0,0 -1,-1 0,0 0,-1 0,-1 0,-1 0,-1 1,-2 0,-1 1,-2 2,-2 1,0 2,0 4,0 1,1 2,2 2,3 0,1 0,2 0,3 -1,1 -2,2 -3,2 -1,0 -2,0 -3,0zm1 -2c0,1 1,1 2,1 0,-1 1,-1 1,-2 1,0 1,-1 0,-1 0,-1 0,-2 -1,-2 -1,-1 -2,-1 -2,-1 -1,1 -2,1 -2,2 0,0 0,1 0,1 0,1 1,2 2,2zm7 -5l-7 -5 1 -1 7 5 -1 1zm2 -2l-6 -6 1 -1 6 1 -4 -4 1 -1 6 5 -1 2 -6 -1 4 3 -1 2zm11 -15l1 0c1,1 1,2 1,2 -1,1 -1,2 -2,2 -1,1 -2,1 -3,1 -1,-1 -2,-1 -2,-2 -1,-1 -2,-3 -1,-4 0,-1 0,-1 1,-2 1,-1 2,-1 3,-1 0,0 1,0 1,1l-1 1c0,0 0,0 -1,0 0,0 -1,0 -1,0 -1,0 -1,1 -1,2 0,0 0,1 1,2 1,1 1,1 2,1 0,0 1,0 1,0 1,0 1,-1 1,-1 0,-1 0,-1 0,-2zm11 -2l-1 1 -2 -2 -3 2 0 2 -2 1 0 -10 2 0 6 6zm-4 -2l-2 -2 0 3 2 -1zm4 -1l2 0c0,0 0,0 0,1 1,0 1,0 2,0 0,0 1,-1 1,-1 0,0 0,-1 0,-1 0,0 0,0 0,0 0,0 -1,0 -1,-1 0,0 -1,0 -1,0 -1,1 -2,0 -2,0 -1,0 -1,-1 -2,-1 0,-1 0,-1 0,-2 1,0 1,0 1,-1 1,0 1,0 2,0 1,-1 2,-1 2,0 1,0 1,1 2,1l-2 1c0,-1 0,-1 -1,-1 0,0 0,0 -1,0 0,0 -1,0 -1,1 0,0 0,0 0,0 0,0 0,1 0,1 1,0 1,0 2,0 1,0 1,0 2,0 0,0 1,0 1,0 0,1 1,1 1,2 0,0 0,1 0,1 0,1 -1,1 -1,1 -1,1 -1,1 -2,1 -1,0 -2,0 -2,0 -1,0 -2,-1 -2,-2zm9 1l-1 -8 1 -1 1 9 -1 0zm3 -1l0 -8 1 0 4 6 0 -6 2 0 0 8 -2 0 -4 -5 1 5 -2 0zm9 -4c0,-1 0,-1 1,-2 0,0 0,-1 1,-1 0,0 1,0 1,-1 0,0 1,0 2,0 1,1 2,1 3,2 0,1 0,2 0,3 0,2 -1,3 -2,3 0,1 -1,1 -3,1 -1,0 -2,-1 -2,-2 -1,0 -1,-2 -1,-3zm2 0c0,1 0,2 0,3 0,0 1,1 2,1 0,0 1,0 1,-1 1,0 1,-1 1,-2 1,-1 0,-2 0,-2 0,-1 -1,-1 -1,-1 -1,0 -2,0 -2,0 -1,1 -1,1 -1,2zm11 4l1 1c0,0 0,1 0,1 0,0 1,1 1,1 1,0 1,0 1,0 1,0 1,0 1,0 0,-1 0,-1 0,-1 0,0 0,0 0,-1 0,0 -1,0 -1,-1 -1,0 -2,-1 -2,-1 0,-1 0,-1 0,-2 0,0 1,-1 1,-1 0,0 1,0 1,0 1,0 1,0 2,0 1,1 2,1 2,2 0,0 0,1 0,2l-2 -1c0,0 0,-1 0,-1 0,0 0,0 -1,-1 0,0 0,0 -1,0 0,0 0,0 0,1 0,0 0,0 0,0 0,0 0,1 1,1 1,1 1,1 1,2 1,0 1,0 1,1 0,0 0,1 0,1 -1,1 -1,1 -1,1 -1,1 -1,1 -2,1 0,0 -1,0 -1,-1 -1,0 -2,-1 -2,-1 -1,-1 -1,-2 0,-3zm8 2c0,0 1,-1 1,-1 1,0 1,-1 2,-1 0,0 0,0 1,0 0,0 1,0 2,1 1,0 1,1 2,2 0,1 0,3 -1,4 -1,1 -2,2 -3,2 -1,0 -2,0 -3,-1 -1,0 -2,-1 -2,-2 0,-1 0,-2 1,-4zm1 1c0,1 0,2 0,2 0,1 0,2 1,2 0,0 1,0 2,0 0,0 1,0 1,-1 1,-1 1,-2 1,-2 0,-1 -1,-2 -1,-2 -1,0 -1,0 -2,0 -1,0 -1,0 -2,1zm5 8l5 -6 5 4 -1 1 -3 -3 -2 2 3 2 -1 1 -3 -2 -2 3 -1 -2zm6 7l5 -5 -1 -2 1 -1 4 6 -1 1 -1 -2 -6 4 -1 -1zm4 5l6 -6 1 2 -4 4 6 -2 0 2 -4 4 6 -1 1 1 -9 2 -1 -1 5 -5 -6 2 -1 -2zm6 16l0 -2 1 -1 -1 -4 -2 0 0 -2 9 1 0 2 -7 6zm3 -4l2 -2 -3 -1 1 3zm-3 5l9 -2 0 4c0,1 0,1 0,2 0,0 0,1 0,1 -1,0 -1,0 -2,1 0,0 -1,-1 -1,-1 -1,0 -1,-1 -1,-1 0,0 -1,0 -1,1 0,0 -1,0 -1,1l-2 1 0 -2 2 -1c0,-1 1,-1 1,-2 0,0 0,0 0,0 0,0 0,-1 0,-1l0 0 -3 0 -1 -1zm5 1l1 1c0,1 0,1 0,1 0,0 0,1 0,1 1,0 1,0 1,0 0,0 0,0 1,-1 0,0 0,0 0,0 0,0 0,-1 0,-1l0 -2 -3 1zm-4 7l9 0 0 6 -2 0 0 -4 -2 0 0 4 -1 0 0 -4 -2 0 0 4 -2 0 0 -6z"/>
      <path class="fil42" d="M35 116l1 0c0,1 0,1 0,2 0,0 0,0 1,1 0,0 0,0 1,0 0,0 0,0 1,-1 0,0 0,0 0,0 0,0 0,0 -1,-1 0,0 0,0 -1,-1 0,0 -1,-1 -1,-1 0,-1 0,-2 1,-2 0,0 0,-1 1,-1 0,0 0,0 1,0 0,0 1,0 1,1 1,0 2,1 2,1 0,1 0,2 0,2l-2 0c0,-1 0,-1 0,-1 0,-1 0,-1 0,-1 -1,-1 -1,-1 -2,-1 0,0 0,0 0,1 0,0 0,0 0,0 0,0 0,1 1,1 0,1 1,2 1,2 0,0 0,1 0,1 0,0 0,1 0,1 0,1 -1,1 -1,1 -1,0 -1,0 -2,0 0,0 -1,0 -1,0 -1,-1 -2,-2 -2,-2 0,-1 0,-2 1,-2zm7 3c0,-1 1,-2 1,-2 1,0 1,-1 2,-1 0,0 0,0 1,0 0,0 1,0 1,0 2,1 2,2 3,3 0,1 0,2 -1,3 0,1 -1,2 -2,2 -1,1 -2,1 -3,0 -1,0 -2,-1 -2,-2 -1,-1 0,-2 0,-3zm2 0c-1,1 -1,2 -1,2 1,1 1,1 2,2 0,0 1,0 1,0 1,0 1,-1 2,-2 0,-1 0,-1 0,-2 0,-1 0,-1 -1,-1 -1,-1 -1,-1 -2,0 0,0 -1,0 -1,1zm6 7l2 -8 5 2 0 1 -4 -1 0 2 3 1 0 1 -4 -1 -1 4 -1 -1zm9 2l1 -7 -2 0 0 -1 7 1 -1 1 -2 0 -1 6 -2 0zm6 -2l2 0c0,1 0,1 0,1 1,0 1,1 2,1 0,0 0,-1 1,-1 0,0 0,0 0,-1 0,0 0,0 0,0 0,0 0,0 -1,0 0,0 0,-1 -1,-1 -1,0 -2,0 -2,0 0,-1 -1,-1 -1,-2 0,0 0,-1 1,-1 0,-1 0,-1 1,-1 0,0 1,0 1,0 1,0 2,0 3,0 0,1 0,1 0,2l-1 0c0,0 0,-1 -1,-1 0,0 0,0 -1,0 0,0 -1,0 -1,0 0,0 0,1 0,1 0,0 0,0 0,0 0,0 1,1 2,1 0,0 1,0 1,0 1,0 1,1 1,1 1,0 1,1 1,1 0,1 0,1 -1,2 0,0 0,0 -1,1 0,0 -1,0 -1,0 -1,0 -2,0 -3,-1 0,0 -1,-1 -1,-2zm10 2l-3 -7 2 0 2 5 0 -6 2 0 3 5 0 -6 1 0 0 8 -2 0 -2 -5 -1 6 -2 0zm11 -2l-3 -7 2 -1 2 8 -1 0zm2 -3l2 -1c0,0 0,1 1,1 0,0 0,0 1,-1 0,0 1,0 1,0 0,-1 0,-1 0,-1 0,0 0,-1 -1,-1 0,0 0,0 0,0 0,0 -1,0 -2,1 0,0 -1,0 -2,0 0,-1 -1,-1 -1,-2 0,0 0,0 0,-1 0,0 0,-1 1,-1 0,0 0,-1 1,-1 1,0 2,0 2,0 1,0 1,0 2,1l-2 1c0,0 0,-1 -1,-1 0,0 0,0 -1,0 0,1 0,1 -1,1 0,0 0,1 0,1 1,0 1,0 1,0 0,0 1,0 1,0 1,0 2,0 2,0 1,0 1,0 1,0 1,0 1,1 1,1 1,1 1,1 1,1 -1,1 -1,1 -1,2 0,0 -1,0 -2,1 0,0 -1,0 -2,0 -1,0 -1,-1 -2,-1zm8 -4l1 -1c0,1 1,1 1,1 1,0 1,0 1,-1 1,0 1,0 1,0 0,-1 0,-1 0,-1 0,0 0,-1 0,-1 0,0 -1,0 -1,0 0,0 -1,1 -1,1 -1,0 -2,0 -2,0 -1,0 -1,0 -2,-1 0,0 0,-1 0,-1 0,0 0,-1 0,-1 1,-1 1,-1 2,-1 0,-1 1,-1 2,-1 0,0 1,0 1,1l-1 1c0,0 0,0 -1,0 0,-1 0,0 -1,0 0,0 0,0 -1,1 0,0 0,0 1,0 0,0 0,1 0,1 0,0 1,-1 2,-1 0,0 1,0 1,0 1,0 1,0 2,0 0,0 0,0 1,1 0,0 0,1 0,1 0,1 0,1 -1,1 0,1 0,1 -1,2 -1,0 -1,0 -2,0 -1,0 -2,0 -2,-1z"/>
      <path class="fil43" d="M12 80l-1 -4c0,0 0,-1 0,-1 0,0 0,-1 0,-1 0,0 1,-1 1,-1 0,0 0,0 1,0 0,0 1,0 1,0 0,0 1,0 1,1 0,-1 0,-1 0,-1 1,-1 1,-1 2,-1 0,0 0,0 1,0 0,0 1,0 1,1 0,0 0,0 0,1 0,0 0,1 1,2l0 3 -8 1zm1 -2l2 0 0 -1c-1,-1 -1,-2 -1,-2 0,0 0,0 0,0 0,0 0,-1 -1,-1 0,1 0,1 0,1 0,0 -1,0 -1,0 0,1 1,1 1,2l0 1zm3 -1l2 0 0 -1c0,-1 0,-1 0,-2 0,0 0,0 0,0 -1,0 -1,0 -1,0 0,0 -1,0 -1,0 0,0 0,0 0,1 0,0 0,0 0,1l0 1zm3 -7l-8 0 0 -2 8 1 0 1zm0 -5l-6 -1 -1 3 -1 -1 1 -6 1 0 0 2 7 1 -1 2zm0 -11l1 -2c1,1 1,1 1,2 1,1 1,2 0,2 0,2 -1,2 -1,3 -1,0 -2,0 -4,0 -1,0 -2,-1 -3,-2 0,-1 0,-2 0,-3 0,-1 1,-2 2,-2 0,0 1,-1 1,-1l0 2c0,0 -1,0 -1,0 0,1 0,1 -1,1 0,1 0,2 1,2 0,1 1,1 2,1 1,1 1,1 2,0 0,0 1,0 1,-1 0,0 0,-1 0,-1 0,-1 -1,-1 -1,-1zm0 -4c-1,0 -2,-1 -2,-1 0,-1 0,-1 -1,-2 0,0 0,-1 0,-1 0,-1 0,-1 1,-2 0,-1 1,-2 2,-2 1,0 2,0 4,1 1,0 2,1 2,2 0,1 0,2 0,3 -1,1 -2,2 -3,2 -1,1 -2,1 -3,0zm1 -2c0,1 1,1 2,1 0,0 1,-1 1,-1 1,-1 1,-2 0,-2 0,-1 0,-1 -1,-2 -1,0 -2,0 -2,0 -1,0 -2,0 -2,1 0,1 0,1 0,2 0,0 1,1 2,1zm7 -4l-7 -5 1 -2 7 5 -1 2zm2 -3l-6 -6 1 -1 6 1 -4 -4 1 -1 6 6 -1 1 -6 -1 4 4 -1 1zm11 -14l1 -1c1,1 1,2 1,3 -1,0 -1,1 -2,1 -1,1 -2,1 -3,1 -1,0 -2,-1 -2,-2 -1,-1 -2,-2 -1,-3 0,-1 0,-2 1,-3 1,0 2,-1 3,-1 0,1 1,1 1,1l-1 2c0,-1 0,-1 -1,-1 0,0 -1,0 -1,0 -1,1 -1,1 -1,2 0,0 0,1 1,2 1,1 1,1 2,1 0,1 1,1 1,0 1,0 1,0 1,-1 0,0 0,-1 0,-1zm11 -3l-1 1 -2 -1 -3 1 0 2 -2 1 0 -9 2 -1 6 6zm-4 -1l-2 -3 0 4 2 -1zm4 -1l2 -1c0,0 0,1 0,1 1,0 1,0 2,0 0,0 1,0 1,-1 0,0 0,0 0,-1 0,0 0,0 0,0 0,0 -1,0 -1,0 0,0 -1,0 -1,0 -1,0 -2,0 -2,-1 -1,0 -1,0 -2,-1 0,0 0,-1 0,-1 1,-1 1,-1 1,-1 1,-1 1,-1 2,-1 1,0 2,0 2,0 1,0 1,1 2,2l-2 0c0,0 0,-1 -1,-1 0,0 0,0 -1,0 0,0 -1,1 -1,1 0,0 0,0 0,1 0,0 0,0 0,0 1,0 1,0 2,0 1,0 1,0 2,0 0,0 1,0 1,1 0,0 1,0 1,1 0,0 0,1 0,1 0,1 -1,1 -1,2 -1,0 -1,0 -2,0 -1,1 -2,1 -2,0 -1,0 -2,-1 -2,-1zm9 0l-1 -8 1 0 1 8 -1 0zm3 0l0 -9 1 0 4 6 0 -6 2 0 0 9 -2 0 -4 -6 1 6 -2 0zm9 -5c0,0 0,-1 1,-2 0,0 0,0 1,-1 0,0 1,0 1,0 0,0 1,0 2,0 1,0 2,1 3,1 0,1 0,2 0,4 0,1 -1,2 -2,3 0,0 -1,1 -3,0 -1,0 -2,0 -2,-1 -1,-1 -1,-2 -1,-4zm2 1c0,1 0,1 0,2 0,0 1,1 2,1 0,0 1,0 1,0 1,-1 1,-2 1,-3 1,-1 0,-1 0,-2 0,0 -1,-1 -1,-1 -1,0 -2,0 -2,1 -1,0 -1,1 -1,2zm11 3l1 1c0,1 0,1 0,1 0,1 1,1 1,1 1,0 1,1 1,0 1,0 1,0 1,0 0,0 0,-1 0,-1 0,0 0,0 0,0 0,0 -1,-1 -1,-1 -1,-1 -2,-1 -2,-2 0,0 0,-1 0,-2 0,0 1,0 1,-1 0,0 1,0 1,0 1,0 1,0 2,0 1,1 2,1 2,2 0,1 0,1 0,2l-2 0c0,-1 0,-1 0,-2 0,0 0,0 -1,0 0,0 0,0 -1,0 0,0 0,0 0,0 0,0 0,0 0,1 0,0 0,0 1,1 1,0 1,1 1,1 1,0 1,1 1,1 0,1 0,1 0,2 -1,0 -1,0 -1,1 -1,0 -1,0 -2,0 0,0 -1,0 -1,0 -1,-1 -2,-1 -2,-2 -1,-1 -1,-2 0,-3zm8 3c0,-1 1,-2 1,-2 1,0 1,0 2,0 0,-1 0,-1 1,-1 0,1 1,1 2,1 1,1 1,2 2,3 0,1 0,2 -1,3 -1,1 -2,2 -3,2 -1,0 -2,0 -3,0 -1,-1 -2,-2 -2,-3 0,-1 0,-2 1,-3zm1 1c0,0 0,1 0,2 0,0 0,1 1,1 0,1 1,1 2,1 0,-1 1,-1 1,-2 1,-1 1,-1 1,-2 0,-1 -1,-1 -1,-2 -1,0 -1,0 -2,0 -1,0 -1,1 -2,2zm5 8l5 -7 5 4 -1 1 -3 -2 -2 1 3 3 -1 1 -3 -3 -2 3 -1 -1zm6 6l5 -4 -1 -2 1 -1 4 5 -1 1 -1 -2 -6 4 -1 -1zm4 5l6 -5 1 1 -4 4 6 -1 0 1 -4 4 6 -1 1 1 -9 2 -1 -1 5 -5 -6 2 -1 -2zm6 16l0 -2 1 -1 -1 -3 -2 0 0 -2 9 1 0 1 -7 6zm3 -4l2 -2 -3 0 1 2zm-3 5l9 -1 0 3c0,1 0,2 0,2 0,1 0,1 0,1 -1,1 -1,1 -2,1 0,0 -1,0 -1,-1 -1,0 -1,0 -1,-1 0,0 -1,1 -1,1 0,0 -1,1 -1,1l-2 1 0 -2 2 -1c0,-1 1,-1 1,-1 0,0 0,-1 0,-1 0,0 0,0 0,-1l0 0 -3 1 -1 -2zm5 1l1 1c0,1 0,1 0,2 0,0 0,0 0,0 1,0 1,0 1,0 0,0 0,0 1,0 0,0 0,-1 0,-1 0,0 0,0 0,-1l0 -1 -3 0zm-4 7l9 0 0 7 -2 0 0 -5 -2 0 0 4 -1 0 0 -4 -2 0 0 5 -2 0 0 -7z"/>
      <path class="fil43" d="M35 115l1 1c0,0 0,1 0,1 0,0 0,1 1,1 0,0 0,0 1,0 0,0 0,0 1,0 0,0 0,-1 0,-1 0,0 0,0 -1,0 0,-1 0,-1 -1,-1 0,-1 -1,-2 -1,-2 0,-1 0,-1 1,-2 0,0 0,0 1,-1 0,0 0,0 1,0 0,0 1,1 1,1 1,0 2,1 2,2 0,0 0,1 0,2l-2 -1c0,-1 0,-1 0,-1 0,0 0,-1 0,-1 -1,0 -1,0 -2,0 0,0 0,0 0,0 0,0 0,0 0,1 0,0 0,0 1,1 0,0 1,1 1,1 0,1 0,1 0,1 0,1 0,1 0,2 0,0 -1,0 -1,1 -1,0 -1,0 -2,0 0,0 -1,-1 -1,-1 -1,-1 -2,-1 -2,-2 0,-1 0,-1 1,-2zm7 3c0,-1 1,-1 1,-2 1,0 1,0 2,0 0,-1 0,-1 1,-1 0,0 1,0 1,1 2,0 2,1 3,2 0,1 0,2 -1,3 0,1 -1,2 -2,3 -1,0 -2,0 -3,-1 -1,0 -2,-1 -2,-2 -1,-1 0,-2 0,-3zm2 1c-1,0 -1,1 -1,2 1,0 1,1 2,1 0,0 1,0 1,0 1,0 1,-1 2,-2 0,0 0,-1 0,-2 0,0 0,-1 -1,-1 -1,0 -1,0 -2,0 0,0 -1,1 -1,2zm6 6l2 -7 5 1 0 1 -4 -1 0 2 3 1 0 1 -4 0 -1 3 -1 -1zm9 2l1 -6 -2 -1 0 -1 7 1 -1 1 -2 0 -1 7 -2 -1zm6 -1l2 -1c0,1 0,1 0,2 1,0 1,0 2,0 0,0 0,0 1,-1 0,0 0,0 0,0 0,-1 0,-1 0,-1 0,0 0,0 -1,0 0,0 0,0 -1,0 -1,-1 -2,-1 -2,-1 0,-1 -1,-1 -1,-2 0,0 0,-1 1,-1 0,0 0,-1 1,-1 0,0 1,0 1,0 1,0 2,0 3,0 0,1 0,1 0,2l-1 0c0,0 0,0 -1,-1 0,0 0,0 -1,0 0,0 -1,0 -1,1 0,0 0,0 0,0 0,0 0,0 0,1 0,0 1,0 2,0 0,0 1,0 1,1 1,0 1,0 1,0 1,1 1,1 1,2 0,0 0,1 -1,1 0,0 0,1 -1,1 0,0 -1,0 -1,0 -1,0 -2,0 -3,0 0,-1 -1,-2 -1,-2zm10 2l-3 -8 2 0 2 5 0 -6 2 0 3 5 0 -6 1 0 0 8 -2 1 -2 -6 -1 6 -2 1zm11 -3l-3 -7 2 -1 2 8 -1 0zm2 -3l2 -1c0,1 0,1 1,1 0,0 0,0 1,0 0,0 1,-1 1,-1 0,0 0,-1 0,-1 0,0 0,0 -1,0 0,0 0,0 0,0 0,0 -1,0 -2,0 0,0 -1,0 -2,0 0,0 -1,-1 -1,-1 0,-1 0,-1 0,-1 0,-1 0,-1 1,-2 0,0 0,0 1,0 1,-1 2,-1 2,-1 1,0 1,1 2,1l-2 1c0,0 0,0 -1,0 0,-1 0,0 -1,0 0,0 0,0 -1,0 0,1 0,1 0,1 1,0 1,0 1,0 0,0 1,0 1,0 1,0 2,0 2,0 1,0 1,0 1,0 1,1 1,1 1,1 1,1 1,1 1,2 -1,0 -1,1 -1,1 0,0 -1,1 -2,1 0,0 -1,1 -2,0 -1,0 -1,0 -2,-1zm8 -4l1 -1c0,1 1,1 1,1 1,0 1,0 1,0 1,0 1,-1 1,-1 0,0 0,-1 0,-1 0,0 0,0 0,0 0,0 -1,0 -1,0 0,0 -1,0 -1,0 -1,0 -2,1 -2,0 -1,0 -1,0 -2,0 0,-1 0,-1 0,-2 0,0 0,0 0,-1 1,0 1,-1 2,-1 0,-1 1,-1 2,-1 0,0 1,1 1,1l-1 1c0,0 0,0 -1,0 0,0 0,0 -1,0 0,0 0,1 -1,1 0,0 0,0 1,1 0,0 0,0 0,0 0,0 1,0 2,-1 0,0 1,0 1,0 1,0 1,0 2,0 0,0 0,1 1,1 0,1 0,1 0,1 0,1 0,1 -1,2 0,0 0,1 -1,1 -1,1 -1,1 -2,1 -1,0 -2,-1 -2,-2z"/>
      <path class="fil44" d="M12 80l-1 -3c0,-1 0,-1 0,-2 0,0 0,0 0,-1 0,0 1,0 1,0 0,-1 0,-1 1,-1 0,0 1,0 1,0 0,1 1,1 1,1 0,0 0,-1 0,-1 1,0 1,-1 2,-1 0,0 0,0 1,1 0,0 0,0 1,0 0,0 0,1 0,1 0,1 0,1 1,2l0 3 -8 1zm1 -2l2 0 -1 -1c0,-1 0,-1 0,-1 0,-1 0,-1 0,-1 0,0 0,0 -1,0 0,0 0,0 0,0 -1,0 -1,1 -1,1 0,0 0,1 1,1l0 1zm3 0l2 0 0 -2c0,-1 0,-1 0,-1 0,0 0,-1 -1,-1 0,0 0,0 0,0 -1,0 -1,0 -1,0 0,1 0,1 0,1 0,0 0,1 0,2l0 1zm3 -7l-8 -1 0 -1 8 0 0 2zm0 -6l-7 -1 0 3 -1 0 1 -7 1 0 0 3 7 1 -1 1zm0 -11l1 -1c1,0 1,1 1,2 1,0 1,1 0,2 0,1 -1,2 -1,2 -1,1 -3,1 -4,0 -1,0 -2,-1 -3,-2 0,0 0,-2 0,-3 0,-1 1,-1 2,-2 0,0 1,0 1,0l0 2c0,-1 -1,0 -1,0 0,0 -1,0 -1,1 0,0 0,1 1,1 0,1 1,1 2,2 1,0 1,0 2,0 0,-1 1,-1 1,-2 0,0 0,0 0,-1 0,0 -1,-1 -1,-1zm0 -4c-1,0 -2,0 -2,-1 0,0 -1,-1 -1,-1 0,-1 0,-1 0,-2 0,0 0,-1 1,-1 0,-1 1,-2 2,-2 1,-1 2,-1 4,0 1,1 2,2 2,3 0,1 0,2 -1,3 0,1 -1,2 -2,2 -1,0 -2,0 -3,-1zm0 -1c1,0 2,0 3,0 0,0 1,0 1,-1 0,-1 1,-1 0,-2 0,0 0,-1 -1,-1 -1,-1 -2,-1 -3,-1 0,0 -1,1 -1,1 0,1 0,2 0,2 0,1 1,1 1,2zm8 -5l-7 -5 1 -1 7 5 -1 1zm2 -3l-6 -5 1 -2 6 2 -4 -4 1 -1 6 5 -1 1 -6 -1 4 4 -1 1zm11 -14l1 0c1,0 1,1 1,2 -1,1 -1,1 -2,2 -1,0 -2,1 -3,0 -1,0 -2,0 -3,-2 0,-1 -1,-2 0,-3 0,-1 0,-2 1,-2 1,-1 2,-1 3,-1 0,0 1,0 1,1l-1 1c0,0 0,-1 -1,-1 0,0 -1,1 -1,1 -1,0 -1,1 -1,1 0,1 0,2 1,2 0,1 1,2 2,2 0,0 1,0 1,0 1,-1 1,-1 1,-1 0,-1 0,-1 0,-2zm11 -2l-2 1 -1 -2 -3 1 0 2 -2 1 0 -9 2 -1 6 7zm-4 -2l-2 -2 0 3 2 -1zm4 -1l2 -1c0,1 0,1 0,1 1,1 1,1 2,0 0,0 1,0 1,0 0,-1 0,-1 0,-1 0,0 0,-1 0,-1 0,0 -1,0 -1,0 0,0 -1,0 -1,0 -1,0 -2,0 -2,0 -1,0 -1,-1 -2,-2 0,0 0,0 0,-1 1,0 1,-1 1,-1 1,0 1,0 2,-1 1,0 2,0 2,0 1,1 1,1 2,2l-2 1c0,-1 -1,-1 -1,-1 0,0 0,0 -1,0 0,0 -1,0 -1,0 0,1 0,1 0,1 0,0 0,0 0,0 1,0 1,1 2,0 1,0 1,0 2,1 0,0 1,0 1,0 0,0 1,1 1,1 0,1 0,1 0,2 -1,0 -1,1 -1,1 -1,0 -1,1 -2,1 -1,0 -2,0 -3,0 0,-1 -1,-1 -1,-2zm9 1l-1 -9 1 0 1 8 -1 1zm3 -1l0 -8 1 0 4 5 0 -5 1 0 1 8 -2 0 -4 -5 1 5 -2 0zm9 -4c0,-1 0,-2 1,-2 0,-1 0,-1 1,-1 0,-1 0,-1 1,-1 0,0 1,0 2,0 1,0 2,1 2,2 1,1 1,2 1,3 0,2 -1,3 -2,3 0,1 -2,1 -3,1 -1,0 -2,-1 -3,-2 0,-1 0,-2 0,-3zm2 0c0,1 0,2 0,2 0,1 1,1 1,1 1,0 2,0 2,0 1,-1 1,-1 1,-2 0,-1 0,-2 0,-2 0,-1 -1,-1 -1,-1 -1,-1 -2,0 -2,0 -1,0 -1,1 -1,2zm10 4l2 0c0,1 0,1 0,2 0,0 1,0 1,1 1,0 1,0 1,0 1,0 1,0 1,-1 0,0 0,0 0,0 0,0 0,-1 0,-1 0,0 -1,0 -1,-1 -1,0 -2,-1 -2,-1 0,-1 0,-2 0,-2 0,-1 1,-1 1,-1 0,0 1,-1 1,-1 1,0 1,1 2,1 1,0 2,1 2,1 0,1 0,2 0,3l-2 -1c0,-1 0,-1 0,-1 0,0 0,-1 -1,-1 0,0 -1,0 -1,0 0,0 0,0 0,0 0,1 0,1 0,1 0,0 0,1 1,1 1,1 1,1 1,1 1,1 1,1 1,2 0,0 0,0 0,1 -1,0 -1,1 -1,1 -1,0 -1,0 -2,0 0,0 -1,0 -2,0 -1,-1 -1,-1 -1,-2 -1,0 -1,-1 -1,-2zm9 2c0,-1 1,-1 1,-2 1,0 1,0 2,0 0,0 0,0 1,0 0,0 1,0 2,1 1,0 1,1 2,2 0,1 -1,2 -1,3 -1,2 -2,2 -3,3 -1,0 -2,0 -3,-1 -1,-1 -2,-2 -2,-3 0,-1 0,-2 1,-3zm1 1c0,1 0,2 0,2 0,1 0,1 1,2 0,0 1,0 2,0 0,0 1,-1 1,-2 1,0 1,-1 1,-2 0,0 -1,-1 -1,-1 -1,-1 -1,-1 -2,-1 -1,1 -1,1 -2,2zm5 8l5 -6 5 4 -1 1 -3 -3 -2 2 3 2 -1 1 -3 -2 -2 2 -1 -1zm6 6l5 -4 -1 -2 1 -1 4 5 -1 1 -1 -2 -6 5 -1 -2zm4 6l6 -6 1 1 -4 4 5 -1 1 2 -4 4 6 -2 1 2 -9 2 -1 -2 5 -4 -6 1 -1 -1zm6 15l0 -1 1 -2 -1 -3 -2 0 0 -2 9 1 0 2 -7 5zm2 -4l3 -2 -3 0 0 2zm-2 5l9 -1 0 4c0,0 0,1 0,2 0,0 0,0 0,1 -1,0 -1,0 -2,0 0,0 -1,0 -1,0 -1,0 -1,-1 -1,-2 -1,1 -1,1 -1,1 0,1 -1,1 -1,1l-2 2 0 -2 2 -2c0,0 1,-1 1,-1 0,0 0,0 0,0 0,-1 0,-1 0,-1l0 -1 -3 1 -1 -2zm5 1l1 1c0,1 0,2 0,2 0,0 0,0 0,0 0,0 1,1 1,0 0,0 0,0 1,0 0,0 0,0 0,-1 0,0 0,0 0,-1l-1 -1 -2 0zm-4 8l9 0 -1 6 -1 0 0 -4 -2 0 0 4 -1 0 0 -4 -2 -1 -1 5 -1 0 0 -6z"/>
      <path class="fil45" d="M34 115l2 1c0,0 0,1 0,1 0,1 0,1 1,1 0,1 0,1 1,1 0,0 0,-1 0,-1 1,0 1,0 1,0 0,-1 -1,-1 -1,-1 0,0 0,0 -1,-1 0,-1 -1,-1 -1,-2 0,0 0,-1 1,-1 0,-1 0,-1 0,-1 1,0 1,0 2,0 0,0 1,0 1,0 1,1 2,1 2,2 0,1 0,1 -1,2l-1 -1c0,0 0,0 0,-1 0,0 0,0 -1,-1 0,0 0,0 -1,0 0,0 0,0 0,0 0,1 0,1 0,1 0,0 0,1 1,1 0,1 1,1 1,2 0,0 0,0 0,1 0,0 0,1 0,1 0,0 -1,1 -1,1 -1,0 -1,0 -2,0 0,0 -1,0 -1,-1 -1,0 -2,-1 -2,-2 0,0 0,-1 0,-2zm8 3c0,0 1,-1 1,-1 1,-1 1,-1 1,-1 1,0 1,0 2,0 0,0 1,0 1,0 1,1 2,1 3,2 0,1 0,2 -1,4 0,1 -1,2 -2,2 -1,0 -2,0 -3,0 -1,-1 -2,-2 -2,-2 -1,-1 0,-3 0,-4zm2 1c-1,1 -1,2 -1,2 1,1 1,1 1,1 1,1 2,1 2,0 1,0 1,0 2,-1 0,-1 0,-2 0,-2 0,-1 -1,-1 -1,-2 -1,0 -1,0 -2,0 0,1 -1,1 -1,2zm6 7l2 -8 5 2 0 1 -4 -1 0 2 3 1 0 1 -4 -1 -1 3 -1 0zm9 2l1 -7 -2 0 0 -1 7 0 -1 2 -2 -1 -1 7 -2 0zm6 -2l2 0c0,0 0,1 0,1 1,0 1,0 2,0 0,0 0,0 1,0 0,0 0,-1 0,-1 0,0 0,0 0,0 0,-1 0,-1 -1,-1 0,0 0,0 -1,0 -1,0 -2,0 -2,-1 0,0 -1,-1 -1,-1 0,-1 0,-1 1,-2 0,0 0,0 1,0 0,-1 1,-1 1,-1 1,0 2,0 2,1 1,0 1,1 1,2l-1 0c0,-1 -1,-1 -1,-1 0,0 0,0 -1,0 0,0 -1,0 -1,0 0,0 0,0 0,0 0,1 0,1 0,1 0,0 1,0 2,0 0,1 1,1 1,1 1,0 1,0 1,1 1,0 1,1 1,1 0,0 0,1 -1,1 0,1 0,1 -1,1 0,0 -1,1 -1,1 -1,0 -2,-1 -3,-1 0,0 -1,-1 -1,-2zm10 2l-3 -7 2 -1 2 5 0 -5 2 -1 3 6 0 -6 1 0 0 8 -2 0 -2 -5 -1 6 -2 0zm11 -2l-3 -8 2 0 2 7 -1 1zm2 -4l2 0c0,0 0,0 1,0 0,0 0,0 1,0 0,0 1,0 1,-1 0,0 0,0 0,0 0,-1 0,-1 -1,-1 0,0 0,0 0,0 0,0 -1,0 -2,0 0,0 -1,0 -2,0 0,0 -1,0 -1,-1 0,0 0,-1 0,-1 0,0 0,-1 0,-1 1,-1 1,-1 2,-1 1,-1 1,-1 2,0 1,0 1,0 2,1l-2 1c0,-1 0,-1 -1,-1 0,0 0,0 -1,0 0,0 0,1 -1,1 0,0 0,0 0,0 0,1 1,1 1,1 0,0 1,0 1,0 1,-1 2,-1 2,-1 1,0 1,1 1,1 1,0 1,0 1,1 0,0 1,1 0,1 0,1 0,1 0,1 0,1 -1,1 -2,1 -1,1 -1,1 -2,1 -1,0 -1,-1 -2,-2zm8 -3l1 -1c0,0 1,0 1,1 1,0 1,-1 1,-1 1,0 1,0 1,-1 0,0 0,0 0,-1 0,0 0,0 0,0 0,0 -1,0 -1,0 0,0 -1,0 -1,1 -1,0 -2,0 -2,0 -1,0 -1,-1 -2,-1 0,0 0,-1 0,-1 0,-1 0,-1 0,-1 1,-1 1,-1 1,-2 1,0 2,0 3,0 0,0 1,0 1,1l-1 1c0,-1 -1,-1 -1,-1 0,0 0,0 -1,1 0,0 0,0 -1,0 0,1 0,1 0,1 1,0 1,0 1,0 0,0 1,0 1,0 1,0 2,-1 2,-1 1,0 1,0 1,1 1,0 1,0 1,1 1,0 1,0 1,1 0,0 0,1 -1,1 0,1 0,1 -1,1 -1,1 -2,1 -2,1 -1,0 -2,0 -2,-1z"/>
      <path class="fil46" d="M49 47l7 0 0 -8 8 0 0 8 5 0 0 -8 9 0 0 8c1,0 2,0 3,0 2,1 4,1 6,2 1,1 3,3 4,5 1,1 2,3 2,6 0,2 -1,4 -2,6 -2,2 -4,4 -6,5 3,1 6,2 8,5 1,2 2,4 2,7 0,3 0,5 -1,7 -2,2 -3,4 -5,6 -2,1 -5,2 -8,2 0,0 -2,0 -3,0l0 8 -9 0 0 -8 -1 0 -4 0 0 8 -8 0 0 -8 -7 0 0 -51zm11 8l0 12 7 0c5,0 7,0 9,0 1,0 3,-1 4,-2 1,-1 2,-2 2,-4 0,-1 -1,-3 -2,-4 -1,-1 -2,-1 -4,-2 -1,0 -4,0 -10,0l-6 0zm0 21l0 14 10 0c4,0 7,0 8,-1 2,0 3,-1 4,-2 1,-1 2,-2 2,-4 0,-2 -1,-3 -1,-4 -1,-1 -2,-2 -4,-2 -1,-1 -5,-1 -10,-1l-9 0z"/>
      <path class="fil47" d="M48 46l7 0 0 -9 8 0 0 9 5 0 0 -9 9 0 0 9c1,0 2,0 3,0 2,0 4,1 6,2 1,1 3,3 4,5 1,1 2,3 2,6 0,2 -1,4 -3,6 -1,2 -3,4 -5,5 3,1 6,2 8,4 1,3 2,5 2,8 0,3 0,5 -2,7 -1,2 -2,4 -4,5 -2,2 -5,3 -8,3 -1,0 -2,0 -3,0l0 8 -9 0 0 -8 -1 0 -4 0 0 8 -8 0 0 -8 -7 0 0 -51zm11 8l0 12 7 0c5,0 7,0 8,0 2,0 4,-1 5,-2 1,-1 2,-2 2,-4 0,-2 -1,-3 -2,-4 -1,-1 -2,-1 -4,-2 -1,0 -4,0 -10,0l-6 0zm0 21l0 13 10 0c4,0 7,0 8,0 2,0 3,-1 4,-2 1,-1 2,-2 2,-4 0,-2 -1,-3 -2,-4 0,-1 -2,-2 -3,-3 -2,0 -5,0 -10,0l-9 0z"/>
      <path class="fil48" d="M48 46l7 0 0 -8 8 0 0 0 -8 0 0 8 -7 0 0 51 0 0 0 -51zm16 0l4 0 0 -8 9 0 0 0 -8 0 0 8 -5 0 0 0zm14 0c0,0 1,0 2,0 2,0 4,1 6,2 1,1 2,2 3,3 -1,-1 -2,-1 -3,-2 -2,-1 -3,-2 -6,-2 0,0 -1,0 -2,0l0 -1zm7 24c3,1 5,3 6,4 -1,-1 -4,-3 -7,-3 1,-1 1,-1 1,-1zm-16 35l-1 0 0 -7 1 0 0 7zm-14 0l0 0 0 -7 0 0 0 7zm5 -39l6 0c5,0 7,0 8,0 2,0 4,-1 5,-2 1,-1 2,-2 2,-4 0,-1 -1,-2 -1,-3 0,0 0,0 0,0 1,1 1,2 1,4 0,1 0,3 -1,4 -2,1 -3,1 -5,2 -1,0 -4,0 -8,0l-7 0 0 -1zm0 23l9 0c4,0 7,-1 8,-1 2,0 3,-1 4,-2 1,-1 2,-2 2,-4 0,-2 -1,-3 -2,-4l0 0c1,0 1,0 1,1 1,1 1,2 1,4 0,1 0,3 -1,4 -1,1 -3,2 -4,2 -1,0 -4,0 -8,0l-10 0 0 0z"/>
      <path class="fil38" d="M77 38l-9 7 0 1 0 0 -20 16 0 13 11 -9 0 0 0 -12 6 0c4,0 7,0 9,0l9 -7c-1,0 -2,-1 -3,-1 -1,0 -2,0 -3,0l0 -8zm-14 3l0 5 1 0 -16 13 0 -5 15 -13zm5 1l0 -5 6 0 -6 5z"/>
      <path class="fil49" d="M63 37l0 0 0 8 0 0 0 -8zm13 0l1 0 0 8c0,0 -1,0 -1,0l0 -8zm11 12c1,1 2,2 3,4 1,1 2,3 2,6 0,2 -1,4 -3,6 -1,2 -3,4 -5,5 0,-1 -1,-1 -1,-1 2,-1 4,-2 6,-4 1,-2 2,-5 2,-7 0,-2 -1,-4 -2,-6 -1,-1 -1,-2 -2,-3zm3 24c0,0 1,1 2,1 1,3 2,5 2,8 0,3 0,5 -2,7 -1,2 -2,4 -4,5 -2,2 -5,3 -8,3 -1,0 -2,0 -3,0l0 8 -9 0 0 -1 8 0 0 -7c2,-1 3,-1 4,-1 3,0 5,-1 7,-2 2,-1 4,-3 5,-5 1,-3 2,-5 2,-7 0,-3 -1,-6 -3,-8 0,-1 -1,-1 -1,-1zm-22 24l-1 0 -4 0 0 8 -8 0 0 -1 8 0 0 -7 3 0 2 0 0 0zm-14 0l-6 0 0 0 6 0 0 0zm5 -43l0 12 -1 0 0 -12 7 0c5,0 8,0 9,0 2,0 4,1 5,2 -1,-1 -3,-2 -4,-2 -1,0 -4,0 -10,0l-6 0zm0 21l0 13 -1 0 0 -14 9 0c5,0 9,0 10,1 1,0 2,1 3,2 0,-1 -1,-1 -2,-2 -2,0 -5,0 -10,0l-9 0z"/>
      <path class="fil50" d="M105 47c5,7 7,15 7,24 0,24 -20,44 -44,44 -17,0 -31,-9 -39,-22 8,13 22,21 38,21 25,0 45,-20 45,-44 0,-8 -3,-16 -7,-23z"/>
      <path class="fil51" d="M37 102c-6,-5 -10,-12 -12,-20 -7,-24 7,-48 31,-55 16,-4 32,1 43,11 -11,-10 -27,-14 -42,-10 -24,6 -38,30 -32,54 2,8 6,15 12,20z"/>
      <path class="fil36" d="M36 15c0,0 1,0 1,0 0,0 0,1 -1,1 -1,1 -1,1 -2,1 0,-1 1,-1 2,-2z"/>
      <path class="fil36" d="M33 12c1,0 2,0 2,0 0,0 0,1 -1,1 -1,1 -2,1 -2,0 0,0 1,0 1,-1z"/>
      <path class="fil50" d="M38 103c-6,-6 -11,-13 -13,-21 -6,-24 8,-48 32,-54 15,-4 31,0 42,11 -11,-10 -26,-15 -42,-11 -24,7 -38,31 -31,55 2,8 6,14 12,20z"/>
      <path class="fil52" d="M105 47c4,7 7,15 7,23 0,24 -20,44 -45,44 -16,0 -30,-8 -38,-21 8,12 22,21 38,21 24,0 44,-20 44,-45 0,-8 -2,-16 -6,-22z"/>
      <polygon class="fil53" points="26,97 27,101 30,102 27,104 27,107 25,105 21,106 23,103 21,100 24,100 "/>
      <polygon class="fil54" points="26,97 27,100 30,102 27,103 27,107 25,105 21,106 22,103 20,100 24,100 "/>
      <polygon class="fil33" points="111,97 110,100 107,101 110,103 110,107 112,104 116,105 114,102 116,99 113,100 "/>
      <polygon class="fil53" points="110,97 110,101 106,102 109,104 109,107 112,105 116,106 114,103 116,100 113,100 "/>
      <polygon class="fil54" points="111,97 110,100 107,102 110,103 110,107 112,105 116,106 114,103 116,100 113,100 "/>
     </g>
    </g>
   </g>
   <path class="fil55" d="M48 46l7 0 0 -8 8 0 0 8 5 0 0 -8 9 0 0 8c1,0 2,0 3,0 2,1 4,1 6,2 1,2 3,3 4,5 1,2 2,4 2,6 0,2 -1,4 -3,6 -1,2 -3,4 -5,5 3,1 6,2 8,5 1,2 2,4 2,7 0,3 0,5 -2,7 -1,3 -2,4 -4,6 -2,1 -5,2 -8,2 -1,0 -2,0 -3,0l0 8 -9 0 0 -8 -1 0 -4 0 0 8 -8 0 0 -8 -7 0 0 -51zm11 8l0 12 7 0c5,0 7,0 8,0 2,0 4,-1 5,-2 1,-1 2,-2 2,-4 0,-1 -1,-3 -2,-4 -1,-1 -2,-1 -4,-1 -1,-1 -4,-1 -10,-1l-6 0zm0 21l0 14 10 0c4,0 7,0 8,-1 2,0 3,-1 4,-2 1,-1 2,-2 2,-4 0,-2 -1,-3 -2,-4 0,-1 -2,-2 -3,-2 -2,-1 -5,-1 -10,-1l-9 0z"/>
   <path class="fil56" d="M267 45l7 -1 0 2c0,2 1,4 2,6 1,2 2,3 5,4 2,1 4,1 8,1 4,0 7,-1 10,-2 2,-2 3,-5 3,-7 0,-2 0,-3 -2,-5 -1,-1 -4,-3 -10,-6 -4,-1 -7,-3 -9,-4 -2,-2 -4,-3 -5,-5 -2,-2 -2,-4 -2,-7 0,-3 1,-5 2,-8 2,-2 4,-4 7,-5 3,-1 6,-2 10,-2 5,0 9,1 12,3 3,1 5,3 6,6 2,2 2,5 2,7 0,0 0,0 0,1l-7 1c0,-2 0,-3 0,-4 -1,-2 -1,-3 -2,-4 -2,-1 -3,-2 -5,-3 -2,0 -4,0 -6,0 -4,0 -7,0 -9,2 -2,2 -3,3 -3,6 0,1 0,2 1,3 1,1 2,3 4,4 1,0 4,2 9,4 4,2 7,3 8,4 2,1 4,3 5,5 1,2 2,4 2,6 0,3 -1,6 -3,9 -2,2 -4,4 -8,6 -3,1 -7,2 -11,2 -6,0 -11,-2 -15,-5 -4,-2 -6,-7 -6,-14zm50 2c0,-7 2,-14 7,-19 4,-4 9,-6 15,-6 5,0 8,1 11,4 3,3 5,7 5,12 0,5 -1,9 -3,13 -2,4 -4,7 -8,9 -3,2 -7,4 -11,4 -3,0 -6,-1 -8,-2 -3,-2 -5,-4 -6,-6 -1,-3 -2,-5 -2,-9zm7 0c0,4 1,6 2,8 2,2 5,3 7,3 2,0 3,0 5,-1 1,0 2,-1 4,-2 1,-2 2,-3 3,-4 1,-2 1,-4 2,-5 1,-3 1,-5 1,-8 0,-3 -1,-6 -3,-8 -1,-2 -4,-3 -7,-3 -2,0 -4,0 -5,1 -2,1 -4,3 -5,5 -2,2 -3,4 -3,7 -1,2 -1,5 -1,7zm36 16l7 -35 -6 0 1 -5 6 0 1 -6c1,-3 1,-5 2,-6 1,-2 2,-3 3,-3 2,-1 4,-2 6,-2 2,0 4,1 8,1l-2 6c-2,0 -4,0 -5,0 -2,0 -3,0 -3,1 -1,0 -2,2 -2,4l-1 5 7 0 -1 5 -7 0 -8 35 -6 0zm42 -6l-1 6c-1,0 -3,0 -5,0 -2,0 -4,0 -6,-2 -1,-1 -2,-2 -2,-4 0,-1 0,-3 1,-6l5 -23 -5 0 1 -5 5 0 2 -10 8 -5 -3 15 7 0 -2 5 -6 0 -5 22c0,3 -1,5 -1,5 0,1 1,1 1,2 0,0 1,1 2,1 2,0 3,-1 4,-1zm13 -12l8 -1 -1 2c0,2 1,4 2,6 1,2 3,3 5,4 2,1 5,1 8,1 4,0 8,-1 10,-2 2,-2 4,-5 4,-7 0,-2 -1,-3 -2,-5 -2,-1 -5,-3 -11,-6 -4,-1 -7,-3 -9,-4 -2,-2 -4,-3 -5,-5 -1,-2 -2,-4 -2,-7 0,-3 1,-5 3,-8 1,-2 3,-4 6,-5 3,-1 7,-2 11,-2 4,0 8,1 11,3 3,1 5,3 7,6 1,2 2,5 2,7 0,0 0,0 0,1l-7 1c0,-2 -1,-3 -1,-4 0,-2 -1,-3 -2,-4 -1,-1 -3,-2 -5,-3 -1,0 -3,0 -6,0 -4,0 -7,0 -9,2 -2,2 -3,3 -3,6 0,1 1,2 1,3 1,1 2,3 4,4 1,0 5,2 9,4 4,2 7,3 9,4 2,1 3,3 4,5 1,2 2,4 2,6 0,3 -1,6 -3,9 -2,2 -4,4 -7,6 -4,1 -7,2 -11,2 -7,0 -12,-2 -16,-5 -4,-2 -6,-7 -6,-14zm54 18l-5 -40 7 0 2 18 0 10c0,0 1,2 1,4 0,-2 1,-4 2,-6 0,-1 1,-3 2,-6l10 -20 7 0 1 20c1,3 1,7 1,12 1,-4 3,-8 6,-14l9 -18 6 0 -19 40 -7 0 -2 -24c0,-1 0,-4 0,-8 -1,2 -2,5 -4,8l-10 24 -7 0zm54 -48l1 -8 7 0 -2 8 -6 0zm-10 48l8 -40 7 0 -9 40 -6 0zm14 -14l7 0c0,2 0,3 1,5 0,1 1,2 3,3 2,1 3,1 6,1 3,0 5,0 6,-2 2,-1 3,-2 3,-4 0,-1 -1,-2 -2,-3 -1,-1 -3,-3 -7,-4 -3,-2 -5,-3 -6,-3 -2,-1 -3,-3 -4,-4 -1,-1 -2,-3 -2,-5 0,-3 2,-6 4,-8 3,-2 6,-3 11,-3 5,0 9,1 11,3 3,2 4,6 4,9l-6 1c0,-3 -1,-5 -3,-6 -2,-1 -4,-2 -7,-2 -2,0 -4,0 -5,2 -2,1 -2,2 -2,3 0,1 0,2 2,3 0,1 2,2 5,3 6,3 9,4 10,6 2,2 3,4 3,7 0,2 0,4 -1,6 -2,2 -3,4 -6,5 -2,1 -5,2 -9,2 -4,0 -8,-2 -12,-4 -3,-2 -4,-6 -4,-11zm38 0l7 0c0,2 1,3 1,5 1,1 2,2 4,3 1,1 3,1 5,1 3,0 5,0 7,-2 2,-1 2,-2 2,-4 0,-1 0,-2 -1,-3 -1,-1 -3,-3 -7,-4 -4,-2 -6,-3 -7,-3 -2,-1 -3,-3 -4,-4 0,-1 -1,-3 -1,-5 0,-3 1,-6 4,-8 2,-2 6,-3 10,-3 5,0 9,1 12,3 3,2 4,6 4,9l-7 1c0,-3 -1,-5 -2,-6 -2,-1 -4,-2 -7,-2 -2,0 -4,0 -6,2 -1,1 -2,2 -2,3 0,1 1,2 2,3 1,1 3,2 6,3 5,3 9,4 10,6 2,2 3,4 3,7 0,2 0,4 -2,6 -1,2 -3,4 -5,5 -3,1 -6,2 -9,2 -5,0 -9,-2 -12,-4 -3,-2 -5,-6 -5,-11z"/>
   <path class="fil18" d="M292 80c0,-3 -4,-4 -8,-4 -11,0 -20,12 -20,24 0,8 3,12 10,12 7,0 14,-3 14,-7 0,0 0,-1 -1,-2 -3,3 -7,5 -10,5 -4,0 -6,-3 -6,-9 0,-7 4,-20 11,-20 3,0 5,2 6,6 2,-1 4,-3 4,-5zm20 25c0,1 -1,2 -2,2 0,-1 0,-1 0,-2 0,-4 2,-15 4,-17 -1,-1 -3,-1 -4,-1 -1,0 -2,0 -3,1 -1,-1 -2,-1 -4,-1 -8,0 -14,10 -15,18 0,4 2,7 5,7l1 0c3,0 6,-3 10,-9 -1,1 -1,3 -1,4 0,3 2,5 4,5 4,0 8,-5 8,-9 0,0 0,0 0,0 0,0 -1,1 -3,2zm-11 -2c-2,2 -3,4 -4,4 -1,0 -2,-1 -2,-2 0,-6 4,-15 7,-15 2,0 3,1 4,3 -1,2 -3,6 -5,10zm27 -14c1,0 2,0 2,1 2,-1 2,-2 2,-3 0,-1 -1,-1 -2,-1 -6,0 -11,3 -11,8 0,2 0,4 1,5 2,2 4,4 4,6 0,2 -1,3 -3,3 -3,0 -5,-2 -6,-5 -1,1 -2,1 -2,3 0,4 4,6 7,6 5,0 10,-5 10,-10 0,-3 -2,-5 -4,-8 0,-1 -1,-2 -1,-2 0,-2 1,-3 3,-3zm17 -13c-2,0 -4,0 -6,1 0,0 0,0 0,1 0,1 0,4 0,5 0,1 0,2 2,2 3,-1 3,-1 5,-4 1,-2 1,-3 1,-4 0,0 0,0 0,0 0,-1 0,-1 -2,-1zm-2 29c2,-2 3,-3 3,-2 0,1 0,2 -1,3 -1,3 -5,6 -7,6 -2,0 -4,-2 -4,-5 0,-1 0,-4 1,-7 1,-3 1,-5 1,-7 1,-1 1,-2 1,-2 0,-1 -1,-2 -1,-3 2,0 3,-1 5,-1 0,0 1,0 2,1 0,1 1,1 0,2 0,1 0,2 0,3 -1,2 -2,5 -2,6 0,2 -1,5 -1,6 0,1 1,1 1,2 0,0 1,-1 2,-2zm21 -13c0,0 0,0 0,1 0,1 0,4 -2,9 0,2 -1,4 -1,5 0,3 2,5 5,5 3,0 8,-5 8,-9 0,0 -1,0 -1,0 0,0 -1,1 -2,2 -1,1 -2,2 -3,2 0,-1 0,-1 0,-2 0,-2 1,-4 1,-6 1,-4 2,-7 2,-9 0,-2 -2,-3 -4,-3 -3,0 -8,5 -11,10 1,-3 1,-6 1,-8 0,-2 -1,-2 -2,-2 -1,0 -3,0 -5,1 1,1 1,2 1,3 0,2 -1,7 -3,12 0,3 -1,6 -2,8 1,0 2,0 3,0 2,0 3,0 4,-2 2,-5 3,-7 5,-11 2,-3 4,-6 6,-6zm14 0c-3,3 -5,7 -5,11 0,6 4,9 9,9 8,0 14,-9 14,-17 0,-5 -3,-8 -8,-8 -4,0 -7,1 -10,5zm12 3c0,5 -3,13 -7,13 -2,0 -3,-2 -3,-4 0,-5 3,-14 7,-14 2,0 3,2 3,5zm24 8c-3,0 -5,3 -5,4 0,4 5,5 9,5 7,0 15,-5 15,-12 0,-3 -1,-5 -4,-7 -6,-5 -7,-6 -7,-9 0,-3 2,-5 5,-5 3,0 5,2 6,4 1,-1 3,-2 3,-4 0,-3 -3,-3 -7,-3 -7,0 -13,4 -13,12 0,5 4,7 8,10 2,1 3,3 3,5 0,4 -3,5 -7,5 -3,0 -6,-1 -6,-4 0,0 0,-1 0,-1zm26 -11c-3,3 -5,7 -5,11 0,6 4,9 9,9 8,0 14,-9 14,-17 0,-5 -3,-8 -8,-8 -4,0 -7,1 -10,5zm12 3c0,5 -3,13 -7,13 -2,0 -3,-2 -3,-4 0,-5 3,-14 7,-14 2,0 3,2 3,5zm5 22c0,1 -1,1 -1,1 0,0 1,1 1,1 0,0 0,0 1,0 4,-2 8,-6 9,-10 2,-6 3,-11 4,-16 1,0 2,0 2,0 3,0 6,-1 6,-3 0,-1 0,-1 0,-1 -2,0 -4,0 -6,0l-1 0c0,-3 1,-6 2,-7 1,-1 2,-2 3,-2 2,0 3,1 4,3 2,-1 3,-3 3,-4 0,-2 -2,-2 -4,-2 -7,0 -12,3 -14,10 0,1 0,2 -1,2 -3,0 -3,1 -4,3 0,0 0,0 0,0 0,1 2,1 3,1l1 0c-1,2 -3,15 -4,17 0,3 -2,5 -4,7zm38 -28c-2,0 -3,0 -5,0l-2 0c1,-4 1,-6 1,-6 0,-2 -1,-3 -2,-3 -2,0 -3,1 -5,2 0,1 0,2 0,2 0,3 -1,8 -2,12 -1,3 -1,4 -1,7 0,1 0,2 0,3 0,3 1,5 5,5 3,0 8,-5 8,-8 0,0 0,0 0,0 -1,0 -2,1 -3,2 -1,1 -2,2 -2,2 -2,0 -2,-1 -2,-2 0,-2 0,-4 0,-5 1,-3 2,-5 2,-7 0,0 1,0 1,0 1,0 2,0 3,0 2,0 4,-2 4,-4 0,0 0,0 0,0zm18 22c-1,1 -1,0 -3,1 0,-3 0,-4 0,-5 0,-3 0,-6 0,-9 -2,5 -4,9 -7,12 -2,1 -4,1 -6,1 0,-1 0,-3 0,-5 0,-4 0,-9 0,-12 0,-3 -1,-4 -2,-6 2,-1 3,-1 5,-1 2,0 2,2 3,6 0,2 0,5 0,9l0 2c5,-6 7,-11 7,-15 0,0 -1,-1 -1,-1 2,-1 3,-1 4,-1 3,0 3,3 3,9 0,2 0,6 -1,10 4,-5 7,-12 7,-16 0,-1 0,-3 -1,-4 0,0 1,-1 1,-1 4,0 6,1 6,4 0,4 -9,21 -15,22zm37 -6c0,1 -1,2 -2,2 0,-1 0,-1 0,-2 0,-4 2,-15 4,-17 -1,-1 -2,-1 -4,-1 -1,0 -2,0 -3,1 -1,-1 -2,-1 -4,-1 -7,0 -14,10 -14,18 0,4 1,7 4,7l1 0c3,0 6,-3 10,-9 -1,1 -1,3 -1,4 0,3 2,5 4,5 4,0 8,-5 8,-9 0,0 0,0 0,0 0,0 -1,1 -3,2zm-11 -2c-2,2 -3,4 -4,4 -1,0 -2,-1 -2,-2 0,-6 4,-15 7,-15 2,0 4,1 4,3 -1,2 -3,6 -5,10zm32 -16c-2,0 -5,3 -9,9 1,-3 2,-5 2,-7 0,-1 -1,-2 -3,-2 -1,0 -3,0 -5,1 1,1 1,2 1,3 0,3 -2,11 -5,20 1,0 3,0 3,0 3,0 4,0 4,-2 3,-8 6,-15 10,-15 0,0 1,1 1,1 2,-2 4,-4 4,-6 0,-2 -1,-2 -2,-2 0,0 0,0 -1,0zm13 21c-2,0 -4,-1 -5,-2 0,-1 0,-1 0,-3 0,-1 3,-2 4,-3 6,-2 10,-6 10,-9 0,-3 -2,-4 -5,-4 -4,0 -8,1 -11,5 -3,4 -5,8 -5,13 0,4 3,7 9,7 2,0 5,-1 7,-2 1,0 2,-1 3,-2 1,-1 1,-3 1,-4 -3,2 -5,4 -8,4zm-4 -10c1,-5 3,-8 5,-8 2,0 3,1 2,3 0,1 -1,3 -4,4 -2,1 -3,2 -4,3 0,-1 1,-2 1,-2z"/>
  </g>
 </g>
</svg>
