<?xml version="1.0" encoding="UTF-8"?>
<!DOCTYPE svg PUBLIC "-//W3C//DTD SVG 1.1//EN" "http://www.w3.org/Graphics/SVG/1.1/DTD/svg11.dtd">
<!-- Creator: CorelDRAW X7 -->
<svg xmlns="http://www.w3.org/2000/svg" xml:space="preserve" width="599px" height="600px" version="1.1" style="shape-rendering:geometricPrecision; text-rendering:geometricPrecision; image-rendering:optimizeQuality; fill-rule:evenodd; clip-rule:evenodd"
viewBox="0 0 668 669"
 xmlns:xlink="http://www.w3.org/1999/xlink">
 <defs>
  <style type="text/css">
   <![CDATA[
    .str0 {stroke:#2B2A29;stroke-width:2.00144}
    .fil0 {fill:#333333}
    .fil256 {fill:#D4861B}
    .fil2 {fill:#D5881C}
    .fil75 {fill:#D58A24}
    .fil255 {fill:#D6891D}
    .fil3 {fill:#D68A1D}
    .fil74 {fill:#D68C24}
    .fil76 {fill:#D68C27}
    .fil77 {fill:#D68E2A}
    .fil73 {fill:#D78D25}
    .fil78 {fill:#D7902D}
    .fil4 {fill:#D88C1D}
    .fil254 {fill:#D88C1F}
    .fil72 {fill:#D88F25}
    .fil79 {fill:#D8922F}
    .fil5 {fill:#D98E1E}
    .fil71 {fill:#D99126}
    .fil80 {fill:#D99432}
    .fil81 {fill:#D99635}
    .fil6 {fill:#DA8F1F}
    .fil253 {fill:#DA8F21}
    .fil70 {fill:#DA9226}
    .fil82 {fill:#DA9838}
    .fil7 {fill:#DB9120}
    .fil252 {fill:#DB9223}
    .fil69 {fill:#DB9427}
    .fil83 {fill:#DB9A3B}
    .fil84 {fill:#DB9C3D}
    .fil8 {fill:#DC9320}
    .fil68 {fill:#DC9527}
    .fil85 {fill:#DC9E40}
    .fil9 {fill:#DD9521}
    .fil251 {fill:#DD9525}
    .fil86 {fill:#DD9F43}
    .fil87 {fill:#DDA146}
    .fil67 {fill:#DE9728}
    .fil88 {fill:#DEA349}
    .fil10 {fill:#DF9722}
    .fil250 {fill:#DF9827}
    .fil66 {fill:#DF9928}
    .fil89 {fill:#DFA54C}
    .fil90 {fill:#DFA74E}
    .fil11 {fill:#E09923}
    .fil65 {fill:#E09A29}
    .fil91 {fill:#E0A951}
    .fil12 {fill:#E19B24}
    .fil249 {fill:#E19B28}
    .fil64 {fill:#E19C29}
    .fil92 {fill:#E1AB54}
    .fil13 {fill:#E29D24}
    .fil63 {fill:#E29E2A}
    .fil93 {fill:#E2AD57}
    .fil94 {fill:#E2AF5A}
    .fil14 {fill:#E39E25}
    .fil248 {fill:#E39E2A}
    .fil62 {fill:#E39F2A}
    .fil95 {fill:#E3B15C}
    .fil15 {fill:#E4A026}
    .fil61 {fill:#E4A12B}
    .fil96 {fill:#E4B35F}
    .fil97 {fill:#E4B562}
    .fil247 {fill:#E5A12C}
    .fil60 {fill:#E5A32B}
    .fil98 {fill:#E5B765}
    .fil16 {fill:#E6A227}
    .fil59 {fill:#E6A42C}
    .fil99 {fill:#E6B968}
    .fil100 {fill:#E6BB6B}
    .fil1 {fill:#E6E6E6}
    .fil17 {fill:#E7A428}
    .fil246 {fill:#E7A42E}
    .fil58 {fill:#E7A62C}
    .fil101 {fill:#E7BD6D}
    .fil18 {fill:#E8A628}
    .fil57 {fill:#E8A82D}
    .fil102 {fill:#E8BF70}
    .fil245 {fill:#E9A730}
    .fil19 {fill:#E9A829}
    .fil56 {fill:#E9A92D}
    .fil103 {fill:#E9C173}
    .fil104 {fill:#E9C276}
    .fil20 {fill:#EAAA2A}
    .fil244 {fill:#EAAA32}
    .fil55 {fill:#EAAB2E}
    .fil105 {fill:#EAC479}
    .fil54 {fill:#EBAD2E}
    .fil106 {fill:#EBC67B}
    .fil107 {fill:#EBC87E}
    .fil21 {fill:#ECAC2B}
    .fil243 {fill:#ECAD34}
    .fil108 {fill:#ECCA81}
    .fil22 {fill:#EDAD2B}
    .fil53 {fill:#EDAE2F}
    .fil109 {fill:#EDCC84}
    .fil110 {fill:#EDCE87}
    .fil23 {fill:#EEAF2C}
    .fil242 {fill:#EEAF36}
    .fil52 {fill:#EEB02F}
    .fil111 {fill:#EED08A}
    .fil24 {fill:#EFB12D}
    .fil51 {fill:#EFB130}
    .fil112 {fill:#EFD28C}
    .fil113 {fill:#EFD48F}
    .fil241 {fill:#F0B238}
    .fil25 {fill:#F0B32E}
    .fil50 {fill:#F0B330}
    .fil114 {fill:#F0D692}
    .fil26 {fill:#F1B52F}
    .fil49 {fill:#F1B531}
    .fil115 {fill:#F1D895}
    .fil240 {fill:#F2B53A}
    .fil48 {fill:#F2B631}
    .fil116 {fill:#F2DA98}
    .fil117 {fill:#F2DC9A}
    .fil27 {fill:#F3B72F}
    .fil47 {fill:#F3B832}
    .fil118 {fill:#F3DE9D}
    .fil239 {fill:#F4B83C}
    .fil28 {fill:#F4B930}
    .fil46 {fill:#F4BA32}
    .fil119 {fill:#F4E0A0}
    .fil120 {fill:#F4E2A3}
    .fil29 {fill:#F5BB31}
    .fil45 {fill:#F5BB33}
    .fil121 {fill:#F5E3A6}
    .fil238 {fill:#F6BB3E}
    .fil30 {fill:#F6BC32}
    .fil44 {fill:#F6BD33}
    .fil122 {fill:#F6E5A9}
    .fil123 {fill:#F6E7AB}
    .fil31 {fill:#F7BE33}
    .fil43 {fill:#F7BF34}
    .fil124 {fill:#F7E9AE}
    .fil237 {fill:#F8BE3F}
    .fil32 {fill:#F8C033}
    .fil42 {fill:#F8C034}
    .fil125 {fill:#F8EBB1}
    .fil126 {fill:#F8EDB4}
    .fil236 {fill:#F9C141}
    .fil41 {fill:#F9C235}
    .fil127 {fill:#F9EFB7}
    .fil33 {fill:#FAC234}
    .fil40 {fill:#FAC435}
    .fil128 {fill:#FAF1B9}
    .fil34 {fill:#FBC435}
    .fil235 {fill:#FBC443}
    .fil129 {fill:#FBF3BC}
    .fil130 {fill:#FBF5BF}
    .fil39 {fill:#FCC536}
    .fil35 {fill:#FCC636}
    .fil148 {fill:#FCF599}
    .fil147 {fill:#FCF59C}
    .fil146 {fill:#FCF59E}
    .fil145 {fill:#FCF5A0}
    .fil144 {fill:#FCF6A3}
    .fil143 {fill:#FCF6A5}
    .fil142 {fill:#FCF6A8}
    .fil141 {fill:#FCF6AA}
    .fil140 {fill:#FCF6AC}
    .fil139 {fill:#FCF6AF}
    .fil138 {fill:#FCF6B1}
    .fil137 {fill:#FCF6B4}
    .fil136 {fill:#FCF6B6}
    .fil135 {fill:#FCF7B8}
    .fil134 {fill:#FCF7BB}
    .fil133 {fill:#FCF7BD}
    .fil132 {fill:#FCF7C0}
    .fil131 {fill:#FCF7C2}
    .fil38 {fill:#FDC736}
    .fil234 {fill:#FDC745}
    .fil36 {fill:#FDC836}
    .fil173 {fill:#FDE75C}
    .fil172 {fill:#FDE95E}
    .fil171 {fill:#FDEB61}
    .fil170 {fill:#FDED64}
    .fil169 {fill:#FDEF66}
    .fil168 {fill:#FDF169}
    .fil167 {fill:#FDF36B}
    .fil166 {fill:#FDF36E}
    .fil165 {fill:#FDF370}
    .fil164 {fill:#FDF373}
    .fil163 {fill:#FDF375}
    .fil162 {fill:#FDF477}
    .fil161 {fill:#FDF47A}
    .fil160 {fill:#FDF47C}
    .fil159 {fill:#FDF47F}
    .fil158 {fill:#FDF481}
    .fil157 {fill:#FDF483}
    .fil156 {fill:#FDF486}
    .fil155 {fill:#FDF488}
    .fil154 {fill:#FDF48B}
    .fil153 {fill:#FDF58D}
    .fil152 {fill:#FDF590}
    .fil151 {fill:#FDF592}
    .fil150 {fill:#FDF594}
    .fil149 {fill:#FDF597}
    .fil37 {fill:#FEC937}
    .fil185 {fill:#FED13D}
    .fil184 {fill:#FED33F}
    .fil183 {fill:#FED542}
    .fil182 {fill:#FED745}
    .fil181 {fill:#FED947}
    .fil180 {fill:#FEDB4A}
    .fil179 {fill:#FEDC4C}
    .fil178 {fill:#FEDE4F}
    .fil177 {fill:#FEE051}
    .fil176 {fill:#FEE254}
    .fil175 {fill:#FEE457}
    .fil174 {fill:#FEE659}
    .fil192 {fill:#FFC42B}
    .fil191 {fill:#FFC62D}
    .fil193 {fill:#FFC62F}
    .fil190 {fill:#FFC830}
    .fil194 {fill:#FFC836}
    .fil189 {fill:#FFCA32}
    .fil195 {fill:#FFCA3C}
    .fil233 {fill:#FFCA47}
    .fil188 {fill:#FFCC35}
    .fil196 {fill:#FFCD43}
    .fil232 {fill:#FFCD4E}
    .fil187 {fill:#FFCE38}
    .fil197 {fill:#FFCF4A}
    .fil231 {fill:#FFCF55}
    .fil186 {fill:#FFD03A}
    .fil198 {fill:#FFD150}
    .fil230 {fill:#FFD25C}
    .fil199 {fill:#FFD457}
    .fil229 {fill:#FFD563}
    .fil200 {fill:#FFD65E}
    .fil228 {fill:#FFD76A}
    .fil201 {fill:#FFD864}
    .fil227 {fill:#FFDA71}
    .fil202 {fill:#FFDB6B}
    .fil203 {fill:#FFDD72}
    .fil226 {fill:#FFDD78}
    .fil204 {fill:#FFDF78}
    .fil225 {fill:#FFDF7F}
    .fil205 {fill:#FFE17F}
    .fil224 {fill:#FFE286}
    .fil206 {fill:#FFE486}
    .fil223 {fill:#FFE48D}
    .fil207 {fill:#FFE68C}
    .fil222 {fill:#FFE794}
    .fil208 {fill:#FFE893}
    .fil221 {fill:#FFEA9B}
    .fil209 {fill:#FFEB9A}
    .fil220 {fill:#FFECA2}
    .fil210 {fill:#FFEDA0}
    .fil211 {fill:#FFEFA7}
    .fil219 {fill:#FFEFA9}
    .fil212 {fill:#FFF2AE}
    .fil218 {fill:#FFF2B0}
    .fil213 {fill:#FFF4B4}
    .fil217 {fill:#FFF4B6}
    .fil214 {fill:#FFF6BB}
    .fil216 {fill:#FFF7BD}
    .fil215 {fill:#FFF9C2}
   ]]>
  </style>
     <clipPath id="id0">
      <path d="M334 1l15 28 18 -26 12 29 20 -24 9 30 23 -22 6 30 25 -19 3 31 26 -17 1 31 27 -14 -2 31 29 -12 -6 31 30 -9 -9 30 31 -6 -12 30 31 -3 -14 28 31 0 -17 26 31 3 -19 25 30 6 -22 23 30 9 -24 20 29 13 -26 17 28 15 -28 15 26 18 -29 12 24 20 -30 10 22 22 -30 7 19 24 -31 3 17 27 -31 0 14 28 -31 -3 12 29 -31 -6 9 30 -30 -8 6 30 -29 -11 2 31 -27 -15 -1 32 -26 -17 -3 31 -25 -20 -6 31 -23 -22 -9 30 -20 -24 -12 28 -18 -25 -15 27 -15 -27 -18 25 -12 -28 -20 24 -10 -30 -22 22 -7 -31 -24 20 -3 -31 -27 17 0 -32 -28 15 3 -31 -29 11 6 -30 -30 8 9 -30 -31 6 11 -29 -31 3 15 -28 -32 0 18 -27 -32 -3 20 -24 -31 -7 22 -22 -30 -10 24 -20 -28 -12 25 -18 -27 -15 27 -15 -25 -17 28 -13 -24 -20 30 -9 -22 -23 31 -6 -20 -25 32 -3 -18 -26 32 0 -15 -28 31 3 -11 -30 31 6 -9 -30 30 9 -6 -31 29 12 -3 -31 28 14 0 -31 27 17 3 -31 24 19 7 -30 22 22 10 -30 20 24 12 -29 18 26 15 -28zm0 620c158,0 285,-128 285,-286 0,-157 -127,-285 -285,-285 -158,0 -286,128 -286,285 0,158 128,286 286,286zm0 6c161,0 291,-131 291,-292 0,-161 -130,-291 -291,-291 -161,0 -291,130 -291,291 0,161 130,292 291,292zm0 -26c146,0 265,-119 265,-266 0,-146 -119,-265 -265,-265 -147,0 -266,119 -266,265 0,147 119,266 266,266zm0 10c152,0 276,-123 276,-276 0,-152 -124,-276 -276,-276 -153,0 -276,124 -276,276 0,153 123,276 276,276zm0 -88c104,0 188,-84 188,-188 0,-104 -84,-188 -188,-188 -104,0 -188,84 -188,188 0,104 84,188 188,188zm0 56c135,0 244,-109 244,-244 0,-135 -109,-244 -244,-244 -135,0 -244,109 -244,244 0,135 109,244 244,244zm0 -422l9 22 24 2 -18 15 5 23 -20 -12 -20 12 5 -23 -18 -15 24 -2 9 -22zm-163 248c8,5 24,9 41,9 39,0 57,-21 57,-45 0,-20 -11,-33 -37,-42 -18,-7 -26,-12 -26,-21 0,-7 6,-14 20,-14 15,0 25,5 30,7l8 -26c-9,-4 -21,-7 -37,-7 -34,0 -54,19 -54,43 0,21 15,34 39,42 17,7 24,12 24,21 0,9 -8,15 -23,15 -13,0 -27,-4 -35,-9l-7 27zm115 0c8,5 24,9 40,9 40,0 58,-21 58,-45 0,-20 -12,-33 -37,-42 -18,-7 -26,-12 -26,-21 0,-7 6,-14 20,-14 14,0 25,5 30,7l8 -26c-9,-4 -21,-7 -37,-7 -34,0 -54,19 -54,43 0,21 15,34 39,42 17,7 24,12 24,21 0,9 -8,15 -23,15 -13,0 -27,-4 -36,-9l-6 27zm120 7l90 0 0 -28 -57 0 0 -116 -33 0 0 144zm144 -96l6 13 14 2 -11 9 4 14 -13 -7 -12 7 3 -14 -11 -9 15 -2 5 -13zm-433 0l6 13 15 2 -11 9 3 14 -13 -7 -12 7 3 -14 -11 -9 15 -2 5 -13zm293 126l6 13 14 1 -11 10 4 14 -13 -8 -12 8 3 -14 -11 -10 15 -1 5 -13zm-153 0l6 13 14 1 -11 10 4 14 -13 -8 -12 8 3 -14 -11 -10 15 -1 5 -13zm77 7l9 22 24 2 -18 15 5 23 -20 -12 -20 12 5 -23 -18 -15 24 -2 9 -22zm76 -261l6 14 14 1 -11 9 4 15 -13 -8 -12 8 3 -15 -11 -9 15 -1 5 -14zm-153 0l6 14 14 1 -11 9 4 15 -13 -8 -12 8 3 -15 -11 -9 15 -1 5 -14zm-104 65l2 -6 -27 -12 -2 4 0 8 5 1 -1 -5 1 -1 22 11zm-17 -35c-3,5 2,11 9,16 7,4 15,5 18,0 3,-5 1,-10 -9,-16 -6,-3 -14,-6 -18,0zm5 3c1,-2 5,-1 10,3 6,3 9,5 8,7 -1,2 -4,1 -11,-3 -6,-3 -8,-6 -7,-7zm8 -22c-4,5 0,11 8,16 6,5 13,8 17,2 3,-4 2,-10 -7,-16 -6,-4 -14,-8 -18,-2zm4 3c1,-2 5,0 10,4 6,4 8,6 7,8 -1,2 -4,1 -10,-4 -6,-4 -8,-6 -7,-8zm9 -20c-2,3 -1,8 3,11 3,4 8,5 11,2 2,-2 2,-6 -3,-10 -3,-3 -8,-6 -11,-3zm3 3c1,-1 3,0 5,3 3,2 4,4 3,5 -1,1 -3,0 -5,-3 -3,-2 -4,-4 -3,-5zm21 18l-11 -34 -2 3 11 33 2 -2zm-3 -24c-3,3 -1,7 2,11 4,3 8,5 11,2 2,-3 2,-7 -2,-11 -3,-3 -8,-5 -11,-2zm2 2c1,-1 3,0 6,3 3,3 4,4 3,5 -1,1 -3,0 -6,-2 -3,-3 -4,-5 -3,-6zm22 0c1,-1 4,-2 6,-3 5,-4 6,-9 2,-14 -2,-3 -5,-4 -10,-4 -4,1 -5,1 -6,-1 -1,-1 -1,-3 1,-5 1,-1 2,-1 3,-1l-2 -5c-1,0 -3,1 -5,2 -5,4 -5,9 -2,13 2,3 5,4 10,4 3,-1 5,-1 7,1 1,2 1,4 -2,6 -1,1 -3,2 -4,2l2 5zm18 -35l-6 4 -4 -6 6 -4 -3 -4 -11 7 17 27 12 -8 -3 -5 -7 5 -4 -7 6 -4 -3 -5zm25 2c-1,1 -1,2 -2,2 -4,2 -8,1 -11,-6 -4,-7 -2,-11 1,-13 1,0 2,0 3,0l-2 -6c0,0 -2,1 -4,2 -5,2 -9,10 -4,20 4,8 11,12 18,9 2,-1 3,-2 4,-3l-3 -5zm-5 -25l7 18c3,7 7,11 13,8 5,-2 7,-7 4,-15l-7 -18 -6 2 7 19c2,5 1,6 0,7 -2,1 -4,0 -5,-4l-8 -19 -5 2zm33 21l6 -1 -3 -13 1 0c2,0 3,1 5,4 1,4 3,6 3,7l6 -1c0,-1 -2,-5 -4,-8 -1,-3 -2,-5 -5,-5l0 0c3,-3 4,-6 3,-9 0,-3 -1,-5 -4,-6 -2,-1 -5,-1 -8,0 -3,0 -5,1 -7,2l7 30zm0 -27c0,-1 1,-1 2,-1 2,0 4,1 4,4 1,2 0,5 -3,6l-1 0 -2 -9zm33 2l-8 1 -1 -8 8 -1 -1 -5 -13 2 4 31 14 -2 -1 -5 -8 1 -1 -8 7 -1 0 -5zm17 18l6 -1 0 -25 5 -1 0 -5 -17 0 0 6 6 0 0 26zm15 0l6 0 1 -12 1 0c2,0 3,1 3,5 1,3 1,7 1,8l7 0c-1,-1 -1,-5 -2,-9 0,-3 -1,-5 -3,-6l0 0c3,-2 5,-4 5,-8 1,-2 0,-5 -1,-6 -2,-3 -5,-3 -9,-3 -2,-1 -4,-1 -6,0l-3 31zm8 -27c1,0 1,0 2,0 3,1 3,3 3,5 0,3 -2,5 -4,5l-1 0 0 -10zm26 24l0 7 6 1 -1 -32 -7 -1 -12 29 6 1 2 -6 6 1zm-4 -6l2 -6c1,-2 2,-5 2,-7l1 0c-1,2 -1,5 -1,7l0 7 -4 -1zm18 17l2 -7c3,-6 4,-11 5,-14l0 0c0,3 0,7 0,10l0 13 6 2 10 -30 -5 -2 -2 7c-2,6 -4,11 -5,14l0 0c0,-3 0,-7 0,-10l0 -13 -6 -2 -10 30 5 2zm17 4c1,1 2,3 5,4 5,3 11,1 13,-4 2,-3 1,-7 -1,-11 -3,-3 -3,-4 -2,-6 0,-2 2,-3 5,-2 1,1 2,2 3,3l3 -4c-1,-1 -2,-3 -4,-3 -6,-3 -11,-1 -13,4 -1,3 -1,6 2,10 2,3 2,5 1,7 0,2 -2,2 -5,1 -2,-1 -3,-2 -4,-3l-3 4zm30 9l-2 7 5 3 11 -31 -7 -3 -21 23 5 3 5 -5 4 3zm-2 -7l5 -5c1,-1 3,-4 4,-6l0 0c0,2 -2,5 -2,7l-3 6 -4 -2zm22 22c0,0 -1,-1 -2,-1 -3,-2 -4,-7 0,-13 5,-6 9,-7 12,-5 1,1 2,2 2,3l4 -4c0,-1 -1,-2 -3,-3 -5,-4 -13,-4 -20,6 -5,7 -6,15 1,19 1,2 3,2 4,3l2 -5zm4 10l4 4 17 -20 5 4 3 -4 -13 -11 -4 4 5 3 -17 20zm34 -12l-23 22 4 4 23 -21 -4 -5zm15 16c-5,-5 -13,-3 -19,3 -7,5 -11,13 -6,18 4,4 10,5 19,-3 6,-5 11,-12 6,-18zm-4 3c1,3 -2,6 -6,10 -5,4 -9,7 -11,5 -1,-2 1,-6 6,-10 5,-5 9,-6 11,-5zm-9 33l6 -4c5,-3 9,-6 12,-8l0 0c-2,2 -5,6 -6,8l-8 11 3 4 27 -17 -3 -4 -6 4c-5,3 -9,6 -12,8l0 0c2,-2 4,-6 6,-8l8 -11 -3 -4 -27 17 3 4zm10 14c0,1 1,4 2,6 3,6 8,8 13,5 3,-1 5,-4 5,-9 1,-4 1,-5 3,-6 1,-1 3,-1 5,2 0,1 0,3 0,4l6 -2c0,-1 -1,-3 -2,-5 -3,-5 -8,-7 -12,-4 -3,1 -5,4 -6,9 0,3 0,5 -2,6 -2,1 -4,0 -5,-2 -1,-2 -2,-4 -2,-5l-5 1zm6 182l-2 5 27 13 3 -5 -1 -8 -5 -1 1 6 0 0 -23 -10zm17 35c3,-6 -2,-12 -9,-16 -7,-4 -15,-6 -18,0 -3,4 0,10 9,15 6,4 14,7 18,1zm-5 -3c-1,2 -4,0 -10,-3 -6,-4 -9,-6 -8,-7 1,-2 5,-1 11,2 6,4 8,6 7,8zm-8 22c4,-6 0,-12 -7,-17 -7,-4 -14,-7 -18,-2 -3,4 -1,10 8,17 5,4 13,7 17,2zm-4 -4c-1,2 -5,0 -10,-3 -6,-4 -8,-7 -7,-9 1,-1 4,0 10,4 6,4 8,7 7,8zm-9 20c3,-3 1,-8 -3,-11 -3,-3 -8,-5 -11,-2 -2,2 -2,7 3,11 3,3 8,5 11,2zm-2 -2c-1,1 -4,-1 -6,-3 -3,-3 -4,-5 -3,-6 1,-1 3,0 6,3 2,3 3,5 3,6zm-22 -18l11 33 3 -2 -12 -33 -2 2zm3 24c3,-3 1,-8 -2,-11 -4,-3 -8,-5 -11,-2 -2,2 -2,6 2,11 3,3 8,5 11,2zm-2 -3c-1,1 -3,0 -6,-2 -3,-3 -4,-5 -3,-6 1,-1 3,0 6,3 3,2 4,4 3,5zm-22 1c-1,0 -4,1 -6,3 -4,3 -5,9 -2,14 2,2 5,4 10,3 4,0 5,0 7,1 1,2 1,4 -1,5 -2,1 -3,2 -4,2l2 5c1,0 3,-1 5,-2 5,-5 5,-10 2,-14 -2,-2 -5,-4 -10,-3 -3,0 -5,0 -7,-2 -1,-1 -1,-3 2,-5 1,-1 3,-2 5,-2l-3 -5zm-18 34l6 -4 4 6 -6 4 3 5 11 -8 -17 -26 -12 8 3 4 7 -4 5 7 -6 4 2 4zm-25 -2c1,0 2,-1 3,-2 3,-1 7,0 10,7 4,7 2,11 -1,12 -1,1 -2,1 -3,1l2 5c1,0 2,0 4,-1 5,-3 9,-10 4,-21 -4,-8 -11,-12 -18,-8 -2,1 -3,2 -4,3l3 4zm6 26l-8 -18c-2,-8 -7,-11 -13,-9 -5,3 -6,8 -4,15l8 18 5 -2 -7 -19c-2,-4 -1,-6 0,-7 2,0 4,1 5,5l8 19 6 -2zm-34 -21l-6 1 3 12 -1 0c-2,1 -3,0 -5,-4 -1,-3 -2,-6 -3,-7l-6 2c1,1 2,4 4,8 1,3 3,4 5,5l0 0c-3,2 -4,5 -3,9 1,2 2,4 4,5 2,2 5,2 9,1 2,-1 4,-1 6,-2l-7 -30zm0 27c0,0 -1,0 -1,0 -3,1 -5,-1 -5,-3 -1,-3 0,-5 3,-6l1 0 2 9zm-32 -2l7 -1 1 7 -8 1 1 5 13 -1 -4 -32 -14 2 1 5 8 -1 1 9 -7 1 1 5zm-18 -18l-6 0 0 26 -5 0 0 6 17 -1 0 -5 -5 0 -1 -26zm-15 0l-6 -1 -1 13 -1 0c-2,0 -3,-1 -3,-5 0,-4 -1,-7 -1,-8l-7 0c1,1 1,5 2,8 0,4 1,6 3,7l0 0c-3,1 -5,4 -5,7 -1,3 0,5 2,7 2,2 4,3 8,3 2,0 5,0 7,0l2 -31zm-8 26c-1,0 -1,0 -2,0 -2,0 -3,-2 -3,-5 0,-3 2,-5 4,-4l1 0 0 9zm-26 -23l0 -7 -6 -1 1 32 7 1 12 -30 -5 -1 -3 7 -6 -1zm4 5l-2 7c-1,1 -2,5 -2,7l0 0c0,-3 0,-6 0,-8l0 -6 4 0zm-18 -16l-2 7c-2,6 -4,10 -5,13l0 0c1,-3 0,-7 0,-10l0 -13 -6 -1 -10 29 5 2 3 -7c1,-5 3,-10 4,-14l0 1c0,2 0,7 0,9l1 14 5 1 10 -29 -5 -2zm-17 -5c0,-1 -2,-2 -5,-4 -5,-2 -11,0 -13,5 -1,3 -1,6 1,10 3,4 3,5 2,7 0,1 -2,2 -5,1 -1,-1 -2,-2 -3,-3l-3 5c1,1 2,2 4,3 6,3 11,0 13,-4 1,-3 1,-7 -2,-11 -1,-3 -2,-4 -1,-6 1,-2 2,-3 5,-2 2,1 3,2 4,4l3 -5zm-30 -8l2 -7 -5 -3 -10 30 6 4 22 -24 -6 -3 -4 6 -5 -3zm2 6l-5 6c-1,1 -3,4 -4,5l0 0c1,-2 2,-5 2,-7l3 -6 4 2zm-22 -21c0,0 2,0 2,1 3,2 4,6 0,12 -5,7 -9,7 -12,5 -1,-1 -2,-1 -2,-2l-4 4c1,0 1,2 3,3 5,3 13,3 20,-6 5,-8 6,-15 0,-20 -2,-1 -4,-2 -5,-2l-2 5zm-4 -10l-4 -4 -17 19 -4 -4 -4 5 13 11 4 -4 -4 -4 16 -19zm-34 11l23 -21 -4 -5 -23 22 4 4zm-15 -16c5,6 13,3 19,-2 7,-6 11,-13 6,-18 -4,-5 -10,-5 -19,3 -6,5 -11,12 -6,17zm5 -3c-2,-2 1,-6 5,-10 5,-4 9,-6 11,-4 1,2 0,5 -6,10 -5,4 -9,6 -10,4zm8 -33l-6 4c-5,4 -9,6 -12,8l0 0c2,-2 5,-5 6,-8l8 -10 -3 -5 -27 17 3 5 6 -4c5,-3 9,-7 12,-8l0 0c-2,2 -4,5 -6,7l-8 11 3 5 27 -17 -3 -5zm-10 -14c0,-1 0,-3 -2,-6 -2,-5 -8,-7 -13,-5 -3,2 -5,5 -5,10 -1,4 -1,5 -3,6 -1,0 -3,0 -4,-2 -1,-2 -1,-3 -1,-4l-5 1c0,1 0,3 1,5 3,6 8,7 13,5 2,-2 4,-5 5,-10 0,-3 0,-4 2,-6 2,0 4,0 6,3 0,1 1,3 1,5l5 -2z"/>
     </clipPath>
 </defs>
 <g id="Layer_x0020_1">
  <metadata id="CorelCorpID_0Corel-Layer"/>
  <g id="_359559948368">
   <circle class="fil0 str0" cx="334" cy="335" r="297"/>
   <path class="fil1" d="M334 0l15 27 18 -25 12 28 20 -24 9 30 23 -22 6 31 25 -20 3 32 26 -18 1 32 27 -15 -2 31 29 -11 -6 31 30 -9 -9 30 31 -6 -12 29 31 -3 -14 28 31 0 -17 27 31 3 -19 24 30 7 -22 22 30 10 -24 20 29 12 -26 18 28 15 -28 15 26 18 -29 12 24 20 -30 9 22 23 -30 6 19 25 -31 3 17 26 -31 1 14 27 -31 -2 12 29 -31 -6 9 30 -30 -9 6 31 -29 -12 2 31 -27 -14 -1 31 -26 -17 -3 31 -25 -19 -6 30 -23 -22 -9 30 -20 -24 -12 29 -18 -26 -15 28 -15 -28 -18 26 -12 -29 -20 24 -10 -30 -22 22 -7 -30 -24 19 -3 -31 -27 17 0 -31 -28 14 3 -31 -29 12 6 -31 -30 9 9 -30 -31 6 11 -29 -31 2 15 -27 -32 -1 18 -26 -32 -3 20 -25 -31 -6 22 -23 -30 -9 24 -20 -28 -12 25 -18 -27 -15 27 -15 -25 -18 28 -12 -24 -20 30 -10 -22 -22 31 -7 -20 -24 32 -3 -18 -27 32 0 -15 -28 31 3 -11 -29 31 6 -9 -30 30 9 -6 -31 29 11 -3 -31 28 15 0 -32 27 18 3 -32 24 20 7 -31 22 22 10 -30 20 24 12 -28 18 25 15 -27zm0 619c158,0 285,-127 285,-285 0,-158 -127,-286 -285,-286 -158,0 -286,128 -286,286 0,158 128,285 286,285zm0 6c161,0 291,-130 291,-291 0,-161 -130,-291 -291,-291 -161,0 -291,130 -291,291 0,161 130,291 291,291zm0 -26c146,0 265,-119 265,-265 0,-147 -119,-266 -265,-266 -147,0 -266,119 -266,266 0,146 119,265 266,265zm0 11c152,0 276,-124 276,-276 0,-153 -124,-276 -276,-276 -153,0 -276,123 -276,276 0,152 123,276 276,276zm0 -88c104,0 188,-84 188,-188 0,-104 -84,-188 -188,-188 -104,0 -188,84 -188,188 0,104 84,188 188,188zm0 56c135,0 244,-109 244,-244 0,-135 -109,-244 -244,-244 -135,0 -244,109 -244,244 0,135 109,244 244,244zm0 -423l9 22 24 2 -18 16 5 23 -20 -13 -20 13 5 -23 -18 -16 24 -2 9 -22zm-163 249c8,4 24,8 41,8 39,0 57,-20 57,-44 0,-20 -11,-34 -37,-43 -18,-7 -26,-11 -26,-20 0,-8 6,-14 20,-14 15,0 25,4 30,7l8 -26c-9,-4 -21,-8 -37,-8 -34,0 -54,19 -54,44 0,21 15,34 39,42 17,6 24,11 24,20 0,10 -8,16 -23,16 -13,0 -27,-5 -35,-9l-7 27zm115 0c8,4 24,8 40,8 40,0 58,-20 58,-44 0,-20 -12,-34 -37,-43 -18,-7 -26,-11 -26,-20 0,-8 6,-14 20,-14 14,0 25,4 30,7l8 -26c-9,-4 -21,-8 -37,-8 -34,0 -54,19 -54,44 0,21 15,34 39,42 17,6 24,11 24,20 0,10 -8,16 -23,16 -13,0 -27,-5 -36,-9l-6 27zm120 6l90 0 0 -27 -57 0 0 -116 -33 0 0 143zm144 -96l6 14 14 1 -11 10 4 14 -13 -8 -12 8 3 -14 -11 -10 15 -1 5 -14zm-433 0l6 14 15 1 -11 10 3 14 -13 -8 -12 8 3 -14 -11 -10 15 -1 5 -14zm293 126l6 14 14 1 -11 9 4 15 -13 -8 -12 8 3 -15 -11 -9 15 -1 5 -14zm-153 0l6 14 14 1 -11 9 4 15 -13 -8 -12 8 3 -15 -11 -9 15 -1 5 -14zm77 8l9 21 24 2 -18 16 5 23 -20 -12 -20 12 5 -23 -18 -16 24 -2 9 -21zm76 -261l6 13 14 1 -11 10 4 14 -13 -7 -12 7 3 -14 -11 -10 15 -1 5 -13zm-153 0l6 13 14 1 -11 10 4 14 -13 -7 -12 7 3 -14 -11 -10 15 -1 5 -13zm-104 64l2 -5 -27 -13 -2 5 0 8 5 1 -1 -6 1 0 22 10zm-17 -34c-3,5 2,11 9,15 7,4 15,6 18,0 3,-4 1,-10 -9,-15 -6,-4 -14,-7 -18,0zm5 2c1,-1 5,0 10,3 6,4 9,6 8,8 -1,1 -4,1 -11,-3 -6,-4 -8,-6 -7,-8zm8 -21c-4,5 0,11 8,16 6,5 13,7 17,2 3,-4 2,-10 -7,-17 -6,-4 -14,-7 -18,-1zm4 3c1,-2 5,0 10,4 6,4 8,6 7,8 -1,1 -4,0 -10,-4 -6,-4 -8,-7 -7,-8zm9 -20c-2,3 -1,8 3,11 3,3 8,5 11,2 2,-2 2,-6 -3,-11 -3,-3 -8,-5 -11,-2zm3 2c1,-1 3,1 5,3 3,3 4,5 3,6 -1,1 -3,0 -5,-3 -3,-3 -4,-5 -3,-6zm21 18l-11 -33 -2 2 11 34 2 -3zm-3 -24c-3,3 -1,8 2,11 4,4 8,5 11,2 2,-2 2,-6 -2,-11 -3,-2 -8,-5 -11,-2zm2 3c1,-1 3,0 6,3 3,2 4,4 3,5 -1,1 -3,0 -6,-3 -3,-2 -4,-4 -3,-5zm22 -1c1,0 4,-1 6,-3 5,-3 6,-9 2,-13 -2,-3 -5,-5 -10,-4 -4,0 -5,0 -6,-1 -1,-2 -1,-4 1,-5 1,-1 2,-2 3,-2l-2 -5c-1,1 -3,1 -5,3 -5,4 -5,9 -2,13 2,2 5,4 10,3 3,0 5,0 7,2 1,1 1,3 -2,5 -1,1 -3,2 -4,3l2 4zm18 -34l-6 4 -4 -6 6 -4 -3 -5 -11 8 17 26 12 -8 -3 -4 -7 4 -4 -7 6 -4 -3 -4zm25 2c-1,1 -1,1 -2,2 -4,2 -8,0 -11,-7 -4,-6 -2,-11 1,-12 1,-1 2,-1 3,-1l-2 -5c0,0 -2,0 -4,1 -5,3 -9,10 -4,21 4,8 11,12 18,8 2,-1 3,-2 4,-3l-3 -4zm-5 -26l7 18c3,8 7,11 13,9 5,-3 7,-8 4,-15l-7 -18 -6 2 7 19c2,4 1,6 0,7 -2,0 -4,0 -5,-5l-8 -19 -5 2zm33 22l6 -2 -3 -12 1 0c2,-1 3,0 5,4 1,3 3,6 3,7l6 -2c0,-1 -2,-4 -4,-7 -1,-4 -2,-5 -5,-6l0 0c3,-2 4,-5 3,-9 0,-2 -1,-4 -4,-5 -2,-2 -5,-1 -8,-1 -3,1 -5,2 -7,2l7 31zm0 -28c0,0 1,0 2,0 2,-1 4,1 4,3 1,3 0,6 -3,6l-1 0 -2 -9zm33 2l-8 1 -1 -7 8 -1 -1 -5 -13 1 4 32 14 -2 -1 -5 -8 1 -1 -9 7 -1 0 -5zm17 18l6 0 0 -26 5 0 0 -6 -17 1 0 5 6 0 0 26zm15 0l6 1 1 -13 1 0c2,0 3,2 3,5 1,4 1,7 1,8l7 1c-1,-2 -1,-6 -2,-9 0,-4 -1,-6 -3,-7l0 0c3,-1 5,-4 5,-7 1,-3 0,-5 -1,-7 -2,-2 -5,-3 -9,-3 -2,0 -4,0 -6,0l-3 31zm8 -26c1,0 1,0 2,0 3,0 3,2 3,5 0,3 -2,5 -4,4l-1 0 0 -9zm26 23l0 8 6 1 -1 -32 -7 -2 -12 30 6 1 2 -7 6 1zm-4 -5l2 -7c1,-1 2,-4 2,-6l1 0c-1,2 -1,5 -1,7l0 6 -4 0zm18 16l2 -6c3,-6 4,-11 5,-14l0 0c0,3 0,7 0,10l0 13 6 2 10 -30 -5 -2 -2 7c-2,5 -4,10 -5,14l0 0c0,-3 0,-8 0,-10l0 -13 -6 -2 -10 30 5 1zm17 5c1,1 2,3 5,4 5,2 11,0 13,-5 2,-3 1,-6 -1,-10 -3,-4 -3,-5 -2,-7 0,-1 2,-2 5,-1 1,1 2,2 3,3l3 -5c-1,-1 -2,-2 -4,-3 -6,-3 -11,0 -13,5 -1,2 -1,6 2,10 2,3 2,4 1,6 0,2 -2,3 -5,2 -2,-1 -3,-2 -4,-3l-3 4zm30 8l-2 7 5 3 11 -30 -7 -4 -21 24 5 3 5 -6 4 3zm-2 -6l5 -5c1,-2 3,-4 4,-6l0 0c0,2 -2,5 -2,7l-3 6 -4 -2zm22 22c0,-1 -1,-1 -2,-2 -3,-2 -4,-6 0,-12 5,-6 9,-7 12,-5 1,1 2,1 2,2l4 -3c0,-1 -1,-2 -3,-4 -5,-3 -13,-3 -20,6 -5,8 -6,15 1,20 1,1 3,2 4,2l2 -4zm4 10l4 4 17 -20 5 4 3 -5 -13 -11 -4 4 5 4 -17 20zm34 -12l-23 22 4 4 23 -22 -4 -4zm15 16c-5,-6 -13,-3 -19,2 -7,6 -11,13 -6,19 4,4 10,4 19,-4 6,-4 11,-12 6,-17zm-4 3c1,2 -2,6 -6,10 -5,4 -9,6 -11,4 -1,-2 1,-5 6,-10 5,-4 9,-6 11,-4zm-9 33l6 -4c5,-3 9,-6 12,-8l0 0c-2,2 -5,5 -6,8l-8 10 3 5 27 -17 -3 -5 -6 4c-5,3 -9,7 -12,9l0 0c2,-3 4,-6 6,-8l8 -11 -3 -5 -27 17 3 5zm10 14c0,1 1,4 2,6 3,5 8,7 13,5 3,-2 5,-5 5,-9 1,-4 1,-6 3,-7 1,0 3,0 5,2 0,2 0,3 0,4l6 -1c0,-1 -1,-3 -2,-5 -3,-6 -8,-7 -12,-5 -3,2 -5,5 -6,10 0,3 0,5 -2,6 -2,1 -4,0 -5,-3 -1,-1 -2,-3 -2,-5l-5 2zm6 182l-2 5 27 13 3 -5 -1 -8 -5 -1 1 6 0 0 -23 -10zm17 34c3,-5 -2,-11 -9,-16 -7,-4 -15,-5 -18,0 -3,5 0,10 9,16 6,4 14,6 18,0zm-5 -3c-1,2 -4,1 -10,-2 -6,-4 -9,-6 -8,-8 1,-2 5,-1 11,3 6,3 8,6 7,7zm-8 22c4,-5 0,-11 -7,-16 -7,-5 -14,-7 -18,-2 -3,4 -1,10 8,16 5,4 13,8 17,2zm-4 -3c-1,2 -5,0 -10,-4 -6,-4 -8,-6 -7,-8 1,-2 4,0 10,4 6,4 8,6 7,8zm-9 20c3,-3 1,-8 -3,-11 -3,-4 -8,-5 -11,-2 -2,2 -2,6 3,11 3,3 8,5 11,2zm-2 -3c-1,1 -4,0 -6,-2 -3,-3 -4,-5 -3,-6 1,-1 3,0 6,3 2,2 3,4 3,5zm-22 -18l11 34 3 -3 -12 -33 -2 2zm3 24c3,-3 1,-7 -2,-11 -4,-3 -8,-5 -11,-2 -2,3 -2,7 2,11 3,3 8,6 11,2zm-2 -2c-1,1 -3,0 -6,-3 -3,-2 -4,-4 -3,-5 1,-1 3,0 6,2 3,3 4,5 3,6zm-22 0c-1,1 -4,2 -6,3 -4,4 -5,10 -2,14 2,3 5,4 10,4 4,-1 5,-1 7,1 1,1 1,3 -1,5 -2,1 -3,1 -4,1l2 5c1,0 3,-1 5,-2 5,-4 5,-9 2,-13 -2,-3 -5,-4 -10,-4 -3,1 -5,1 -7,-1 -1,-2 -1,-4 2,-6 1,-1 3,-2 5,-2l-3 -5zm-18 35l6 -4 4 6 -6 4 3 4 11 -7 -17 -26 -12 7 3 5 7 -5 5 8 -6 3 2 5zm-25 -2c1,-1 2,-2 3,-2 3,-2 7,0 10,6 4,7 2,11 -1,13 -1,0 -2,1 -3,1l2 5c1,0 2,-1 4,-2 5,-2 9,-9 4,-20 -4,-8 -11,-12 -18,-8 -2,0 -3,2 -4,2l3 5zm6 25l-8 -18c-2,-7 -7,-10 -13,-8 -5,2 -6,7 -4,15l8 18 5 -2 -7 -19c-2,-5 -1,-6 0,-7 2,-1 4,0 5,4l8 20 6 -3zm-34 -21l-6 1 3 13 -1 0c-2,0 -3,0 -5,-4 -1,-3 -2,-6 -3,-7l-6 1c1,1 2,5 4,8 1,3 3,5 5,5l0 0c-3,3 -4,6 -3,9 1,3 2,5 4,6 2,1 5,1 9,0 2,0 4,-1 6,-2l-7 -30zm0 27c0,1 -1,1 -1,1 -3,1 -5,-1 -5,-4 -1,-2 0,-5 3,-5l1 -1 2 9zm-32 -2l7 0 1 7 -8 1 1 5 13 -2 -4 -31 -14 2 1 5 8 -1 1 8 -7 1 1 5zm-18 -17l-6 0 0 26 -5 0 0 5 17 0 0 -6 -5 0 -1 -25zm-15 0l-6 -1 -1 13 -1 0c-2,-1 -3,-2 -3,-6 0,-3 -1,-6 -1,-7l-7 -1c1,1 1,5 2,9 0,3 1,5 3,6l0 0c-3,2 -5,5 -5,8 -1,3 0,5 2,7 2,2 4,2 8,3 2,0 5,0 7,-1l2 -30zm-8 26c-1,0 -1,0 -2,0 -2,-1 -3,-3 -3,-5 0,-3 2,-5 4,-5l1 0 0 10zm-26 -24l0 -7 -6 -1 1 32 7 1 12 -29 -5 -1 -3 6 -6 -1zm4 6l-2 6c-1,2 -2,5 -2,7l0 0c0,-2 0,-5 0,-7l0 -7 4 1zm-18 -17l-2 7c-2,6 -4,11 -5,14l0 0c1,-3 0,-7 0,-10l0 -13 -6 -2 -10 30 5 2 3 -7c1,-5 3,-11 4,-14l0 0c0,3 0,7 0,10l1 13 5 2 10 -30 -5 -2zm-17 -4c0,-1 -2,-3 -5,-4 -5,-2 -11,-1 -13,4 -1,3 -1,7 1,11 3,3 3,5 2,6 0,2 -2,3 -5,2 -1,-1 -2,-2 -3,-3l-3 4c1,1 2,3 4,4 6,2 11,0 13,-5 1,-2 1,-6 -2,-10 -1,-3 -2,-5 -1,-7 1,-1 2,-2 5,-1 2,1 3,2 4,3l3 -4zm-30 -9l2 -7 -5 -2 -10 30 6 4 22 -24 -6 -3 -4 5 -5 -3zm2 7l-5 5c-1,2 -3,4 -4,6l0 0c1,-2 2,-5 2,-7l3 -6 4 2zm-22 -22c0,0 2,1 2,1 3,3 4,7 0,13 -5,6 -9,7 -12,5 -1,-1 -2,-2 -2,-2l-4 3c1,1 1,2 3,3 5,4 13,4 20,-6 5,-7 6,-15 0,-19 -2,-2 -4,-2 -5,-2l-2 4zm-4 -10l-4 -4 -17 20 -4 -4 -4 4 13 12 4 -5 -4 -3 16 -20zm-34 12l23 -22 -4 -4 -23 21 4 5zm-15 -16c5,5 13,3 19,-3 7,-5 11,-12 6,-18 -4,-4 -10,-4 -19,3 -6,5 -11,12 -6,18zm5 -3c-2,-2 1,-6 5,-10 5,-4 9,-6 11,-5 1,2 0,6 -6,10 -5,5 -9,6 -10,5zm8 -33l-6 4c-5,3 -9,6 -12,8l0 0c2,-2 5,-6 6,-8l8 -11 -3 -4 -27 17 3 4 6 -3c5,-4 9,-7 12,-9l0 0c-2,2 -4,6 -6,8l-8 11 3 4 27 -17 -3 -4zm-10 -14c0,-1 0,-4 -2,-6 -2,-6 -8,-8 -13,-5 -3,1 -5,4 -5,9 -1,4 -1,5 -3,6 -1,1 -3,1 -4,-2 -1,-1 -1,-3 -1,-4l-5 2c0,1 0,3 1,5 3,6 8,7 13,4 2,-1 4,-4 5,-9 0,-3 0,-5 2,-6 2,-1 4,0 6,2 0,2 1,4 1,5l5 -1z"/>
   <g>
    <g style="clip-path:url(#id0)">
     <polygon class="fil2" points="334,335 -138,332 -138,315 "/>
     <polygon id="1" class="fil3" points="334,335 -138,318 -137,303 "/>
     <polygon id="2" class="fil4" points="334,335 -137,306 -136,292 "/>
     <polygon id="3" class="fil5" points="334,335 -137,295 -135,280 "/>
     <polygon id="4" class="fil6" points="334,335 -135,283 -134,269 "/>
     <polygon id="5" class="fil7" points="334,335 -134,272 -132,257 "/>
     <polygon id="6" class="fil8" points="334,335 -132,260 -130,246 "/>
     <polygon id="7" class="fil9" points="334,335 -130,249 -128,235 "/>
     <polygon id="8" class="fil10" points="334,335 -128,237 -125,223 "/>
     <polygon id="9" class="fil11" points="334,335 -126,226 -122,212 "/>
     <polygon id="10" class="fil12" points="334,335 -123,215 -119,201 "/>
     <polygon id="11" class="fil13" points="334,335 -120,204 -115,190 "/>
     <polygon id="12" class="fil14" points="334,335 -116,193 -112,179 "/>
     <polygon id="13" class="fil15" points="334,335 -113,182 -108,168 "/>
     <polygon id="14" class="fil16" points="334,335 -109,171 -104,157 "/>
     <polygon id="15" class="fil17" points="334,335 -105,160 -99,147 "/>
     <polygon id="16" class="fil18" points="334,335 -100,149 -94,136 "/>
     <polygon id="17" class="fil19" points="334,335 -95,139 -89,126 "/>
     <polygon id="18" class="fil20" points="334,335 -90,128 -84,115 "/>
     <polygon id="19" class="fil21" points="334,335 -85,118 -78,105 "/>
     <polygon id="20" class="fil22" points="334,335 -80,108 -73,95 "/>
     <polygon id="21" class="fil23" points="334,335 -74,98 -67,85 "/>
     <polygon id="22" class="fil24" points="334,335 -68,88 -60,75 "/>
     <polygon id="23" class="fil25" points="334,335 -62,78 -54,66 "/>
     <polygon id="24" class="fil26" points="334,335 -55,68 -47,56 "/>
     <polygon id="25" class="fil27" points="334,335 -49,59 -40,47 "/>
     <polygon id="26" class="fil28" points="334,335 -42,49 -33,38 "/>
     <polygon id="27" class="fil29" points="334,335 -35,40 -26,29 "/>
     <polygon id="28" class="fil30" points="334,335 -27,31 -18,20 "/>
     <polygon id="29" class="fil31" points="334,335 -20,22 -10,12 "/>
     <polygon id="30" class="fil32" points="334,335 -12,14 -2,3 "/>
     <polygon id="31" class="fil33" points="334,335 -4,6 6,-5 "/>
     <polygon id="32" class="fil34" points="334,335 4,-3 15,-13 "/>
     <polygon id="33" class="fil35" points="334,335 12,-11 23,-20 "/>
     <polygon id="34" class="fil36" points="334,335 21,-18 32,-28 "/>
     <polygon id="35" class="fil37" points="334,335 30,-26 41,-35 "/>
     <polygon id="36" class="fil38" points="334,335 39,-33 50,-42 "/>
     <polygon id="37" class="fil39" points="334,335 48,-40 60,-49 "/>
     <polygon id="38" class="fil40" points="334,335 57,-47 69,-56 "/>
     <polygon id="39" class="fil41" points="334,335 67,-54 79,-62 "/>
     <polygon id="40" class="fil42" points="334,335 76,-61 89,-68 "/>
     <polygon id="41" class="fil43" points="334,335 86,-67 99,-74 "/>
     <polygon id="42" class="fil44" points="334,335 96,-73 109,-80 "/>
     <polygon id="43" class="fil45" points="334,335 106,-78 119,-85 "/>
     <polygon id="44" class="fil46" points="334,335 116,-84 129,-90 "/>
     <polygon id="45" class="fil47" points="334,335 127,-89 140,-95 "/>
     <polygon id="46" class="fil48" points="334,335 137,-94 150,-100 "/>
     <polygon id="47" class="fil49" points="334,335 148,-99 161,-104 "/>
     <polygon id="48" class="fil50" points="334,335 159,-103 172,-108 "/>
     <polygon id="49" class="fil51" points="334,335 169,-107 183,-112 "/>
     <polygon id="50" class="fil52" points="334,335 180,-111 194,-116 "/>
     <polygon id="51" class="fil53" points="334,335 191,-115 205,-119 "/>
     <polygon id="52" class="fil54" points="334,335 202,-118 216,-122 "/>
     <polygon id="53" class="fil55" points="334,335 213,-121 228,-125 "/>
     <polygon id="54" class="fil56" points="334,335 225,-124 239,-127 "/>
     <polygon id="55" class="fil57" points="334,335 236,-127 250,-129 "/>
     <polygon id="56" class="fil58" points="334,335 247,-129 262,-131 "/>
     <polygon id="57" class="fil59" points="334,335 259,-131 273,-133 "/>
     <polygon id="58" class="fil60" points="334,335 270,-133 285,-134 "/>
     <polygon id="59" class="fil61" points="334,335 282,-134 296,-135 "/>
     <polygon id="60" class="fil62" points="334,335 293,-135 308,-136 "/>
     <polygon id="61" class="fil63" points="334,335 305,-136 319,-137 "/>
     <polygon id="62" class="fil64" points="334,335 316,-137 331,-137 "/>
     <polygon id="63" class="fil65" points="334,335 328,-137 343,-137 "/>
     <polygon id="64" class="fil66" points="334,335 340,-137 354,-137 "/>
     <polygon id="65" class="fil67" points="334,335 351,-137 366,-136 "/>
     <polygon id="66" class="fil68" points="334,335 363,-136 377,-135 "/>
     <polygon id="67" class="fil69" points="334,335 374,-135 389,-134 "/>
     <polygon id="68" class="fil70" points="334,335 386,-134 400,-132 "/>
     <polygon id="69" class="fil71" points="334,335 397,-133 412,-130 "/>
     <polygon id="70" class="fil72" points="334,335 409,-131 423,-128 "/>
     <polygon id="71" class="fil73" points="334,335 420,-129 434,-126 "/>
     <polygon id="72" class="fil74" points="334,335 432,-127 446,-123 "/>
     <polygon id="73" class="fil75" points="334,335 443,-124 457,-121 "/>
     <polygon id="74" class="fil76" points="334,335 454,-121 468,-117 "/>
     <polygon id="75" class="fil77" points="334,335 465,-118 479,-114 "/>
     <polygon id="76" class="fil78" points="334,335 476,-115 490,-110 "/>
     <polygon id="77" class="fil79" points="334,335 487,-111 501,-106 "/>
     <polygon id="78" class="fil80" points="334,335 498,-107 512,-102 "/>
     <polygon id="79" class="fil81" points="334,335 509,-103 523,-98 "/>
     <polygon id="80" class="fil82" points="334,335 520,-99 533,-93 "/>
     <polygon id="81" class="fil83" points="334,335 530,-94 544,-88 "/>
     <polygon id="82" class="fil84" points="334,335 541,-89 554,-83 "/>
     <polygon id="83" class="fil85" points="334,335 551,-84 564,-77 "/>
     <polygon id="84" class="fil86" points="334,335 561,-78 574,-71 "/>
     <polygon id="85" class="fil87" points="334,335 572,-73 584,-65 "/>
     <polygon id="86" class="fil88" points="334,335 582,-67 594,-59 "/>
     <polygon id="87" class="fil89" points="334,335 591,-61 603,-52 "/>
     <polygon id="88" class="fil90" points="334,335 601,-54 613,-46 "/>
     <polygon id="89" class="fil91" points="334,335 610,-47 622,-39 "/>
     <polygon id="90" class="fil92" points="334,335 620,-40 631,-32 "/>
     <polygon id="91" class="fil93" points="334,335 629,-33 640,-24 "/>
     <polygon id="92" class="fil94" points="334,335 638,-26 649,-17 "/>
     <polygon id="93" class="fil95" points="334,335 647,-18 657,-9 "/>
     <polygon id="94" class="fil96" points="334,335 655,-11 666,-1 "/>
     <polygon id="95" class="fil97" points="334,335 664,-3 674,8 "/>
     <polygon id="96" class="fil98" points="334,335 672,6 682,16 "/>
     <polygon id="97" class="fil99" points="334,335 680,14 689,25 "/>
     <polygon id="98" class="fil100" points="334,335 688,22 697,33 "/>
     <polygon id="99" class="fil101" points="334,335 695,31 704,42 "/>
     <polygon id="100" class="fil102" points="334,335 702,40 711,52 "/>
     <polygon id="101" class="fil103" points="334,335 710,49 718,61 "/>
     <polygon id="102" class="fil104" points="334,335 716,59 725,71 "/>
     <polygon id="103" class="fil105" points="334,335 723,68 731,80 "/>
     <polygon id="104" class="fil106" points="334,335 730,78 737,90 "/>
     <polygon id="105" class="fil107" points="334,335 736,88 743,100 "/>
     <polygon id="106" class="fil108" points="334,335 742,98 749,110 "/>
     <polygon id="107" class="fil109" points="334,335 747,108 754,120 "/>
     <polygon id="108" class="fil110" points="334,335 753,118 759,131 "/>
     <polygon id="109" class="fil111" points="334,335 758,128 764,141 "/>
     <polygon id="110" class="fil112" points="334,335 763,139 769,152 "/>
     <polygon id="111" class="fil113" points="334,335 768,149 773,163 "/>
     <polygon id="112" class="fil114" points="334,335 772,160 777,173 "/>
     <polygon id="113" class="fil115" points="334,335 776,171 781,184 "/>
     <polygon id="114" class="fil116" points="334,335 780,182 785,195 "/>
     <polygon id="115" class="fil117" points="334,335 784,193 788,207 "/>
     <polygon id="116" class="fil118" points="334,335 787,204 791,218 "/>
     <polygon id="117" class="fil119" points="334,335 790,215 794,229 "/>
     <polygon id="118" class="fil120" points="334,335 793,226 796,240 "/>
     <polygon id="119" class="fil121" points="334,335 796,237 799,252 "/>
     <polygon id="120" class="fil122" points="334,335 798,249 800,263 "/>
     <polygon id="121" class="fil123" points="334,335 800,260 802,275 "/>
     <polygon id="122" class="fil124" points="334,335 802,272 803,286 "/>
     <polygon id="123" class="fil125" points="334,335 803,283 805,298 "/>
     <polygon id="124" class="fil126" points="334,335 804,295 805,309 "/>
     <polygon id="125" class="fil127" points="334,335 805,306 806,321 "/>
     <polygon id="126" class="fil128" points="334,335 806,318 806,332 "/>
     <polygon id="127" class="fil129" points="334,335 806,329 806,344 "/>
     <polygon id="128" class="fil130" points="334,335 806,341 806,356 "/>
     <polygon id="129" class="fil131" points="334,335 806,353 805,367 "/>
     <polygon id="130" class="fil132" points="334,335 805,364 804,379 "/>
     <polygon id="131" class="fil133" points="334,335 804,376 803,390 "/>
     <polygon id="132" class="fil134" points="334,335 803,387 801,402 "/>
     <polygon id="133" class="fil135" points="334,335 802,399 800,413 "/>
     <polygon id="134" class="fil136" points="334,335 800,410 797,425 "/>
     <polygon id="135" class="fil137" points="334,335 798,422 795,436 "/>
     <polygon id="136" class="fil138" points="334,335 796,433 793,447 "/>
     <polygon id="137" class="fil139" points="334,335 793,444 790,458 "/>
     <polygon id="138" class="fil140" points="334,335 790,456 787,470 "/>
     <polygon id="139" class="fil141" points="334,335 787,467 783,481 "/>
     <polygon id="140" class="fil142" points="334,335 784,478 779,492 "/>
     <polygon id="141" class="fil143" points="334,335 780,489 775,502 "/>
     <polygon id="142" class="fil144" points="334,335 776,500 771,513 "/>
     <polygon id="143" class="fil145" points="334,335 772,511 767,524 "/>
     <polygon id="144" class="fil146" points="334,335 768,521 762,535 "/>
     <polygon id="145" class="fil147" points="334,335 763,532 757,545 "/>
     <polygon id="146" class="fil148" points="334,335 758,542 752,555 "/>
     <polygon id="147" class="fil149" points="334,335 753,553 746,565 "/>
     <polygon id="148" class="fil150" points="334,335 747,563 740,576 "/>
     <polygon id="149" class="fil151" points="334,335 742,573 734,585 "/>
     <polygon id="150" class="fil152" points="334,335 736,583 728,595 "/>
     <polygon id="151" class="fil153" points="334,335 730,593 722,605 "/>
     <polygon id="152" class="fil154" points="334,335 723,602 715,614 "/>
     <polygon id="153" class="fil155" points="334,335 716,612 708,623 "/>
     <polygon id="154" class="fil156" points="334,335 710,621 701,633 "/>
     <polygon id="155" class="fil157" points="334,335 702,630 693,641 "/>
     <polygon id="156" class="fil158" points="334,335 695,639 686,650 "/>
     <polygon id="157" class="fil159" points="334,335 688,648 678,659 "/>
     <polygon id="158" class="fil160" points="334,335 680,657 670,667 "/>
     <polygon id="159" class="fil161" points="334,335 672,665 662,675 "/>
     <polygon id="160" class="fil162" points="334,335 664,673 653,683 "/>
     <polygon id="161" class="fil163" points="334,335 655,681 644,691 "/>
     <polygon id="162" class="fil164" points="334,335 647,689 636,698 "/>
     <polygon id="163" class="fil165" points="334,335 638,697 627,706 "/>
     <polygon id="164" class="fil166" points="334,335 629,704 617,713 "/>
     <polygon id="165" class="fil167" points="334,335 620,711 608,720 "/>
     <polygon id="166" class="fil168" points="334,335 610,718 599,726 "/>
     <polygon id="167" class="fil169" points="334,335 601,725 589,733 "/>
     <polygon id="168" class="fil170" points="334,335 591,731 579,739 "/>
     <polygon id="169" class="fil171" points="334,335 582,737 569,745 "/>
     <polygon id="170" class="fil172" points="334,335 572,743 559,750 "/>
     <polygon id="171" class="fil173" points="334,335 561,749 549,756 "/>
     <polygon id="172" class="fil174" points="334,335 551,754 538,761 "/>
     <polygon id="173" class="fil175" points="334,335 541,760 528,766 "/>
     <polygon id="174" class="fil176" points="334,335 530,764 517,770 "/>
     <polygon id="175" class="fil177" points="334,335 520,769 506,775 "/>
     <polygon id="176" class="fil178" points="334,335 509,774 496,779 "/>
     <polygon id="177" class="fil179" points="334,335 498,778 485,783 "/>
     <polygon id="178" class="fil180" points="334,335 487,782 474,786 "/>
     <polygon id="179" class="fil181" points="334,335 476,785 463,790 "/>
     <polygon id="180" class="fil182" points="334,335 465,789 451,793 "/>
     <polygon id="181" class="fil183" points="334,335 454,792 440,795 "/>
     <polygon id="182" class="fil184" points="334,335 443,795 429,798 "/>
     <polygon id="183" class="fil185" points="334,335 432,797 417,800 "/>
     <polygon id="184" class="fil186" points="334,335 420,799 406,802 "/>
     <polygon id="185" class="fil187" points="334,335 409,801 394,804 "/>
     <polygon id="186" class="fil188" points="334,335 397,803 383,805 "/>
     <polygon id="187" class="fil189" points="334,335 386,805 371,806 "/>
     <polygon id="188" class="fil190" points="334,335 374,806 360,807 "/>
     <polygon id="189" class="fil191" points="334,335 363,806 348,807 "/>
     <polygon id="190" class="fil192" points="334,335 351,807 337,807 "/>
     <polygon id="191" class="fil193" points="334,335 340,807 325,807 "/>
     <polygon id="192" class="fil194" points="334,335 328,807 314,807 "/>
     <polygon id="193" class="fil195" points="334,335 316,807 302,806 "/>
     <polygon id="194" class="fil196" points="334,335 305,806 290,805 "/>
     <polygon id="195" class="fil197" points="334,335 293,806 279,804 "/>
     <polygon id="196" class="fil198" points="334,335 282,805 267,803 "/>
     <polygon id="197" class="fil199" points="334,335 270,803 256,801 "/>
     <polygon id="198" class="fil200" points="334,335 259,801 245,799 "/>
     <polygon id="199" class="fil201" points="334,335 247,799 233,797 "/>
     <polygon id="200" class="fil202" points="334,335 236,797 222,794 "/>
     <polygon id="201" class="fil203" points="334,335 225,795 211,791 "/>
     <polygon id="202" class="fil204" points="334,335 213,792 200,788 "/>
     <polygon id="203" class="fil205" points="334,335 202,789 188,784 "/>
     <polygon id="204" class="fil206" points="334,335 191,785 177,781 "/>
     <polygon id="205" class="fil207" points="334,335 180,782 167,777 "/>
     <polygon id="206" class="fil208" points="334,335 169,778 156,773 "/>
     <polygon id="207" class="fil209" points="334,335 159,774 145,768 "/>
     <polygon id="208" class="fil210" points="334,335 148,769 135,763 "/>
     <polygon id="209" class="fil211" points="334,335 137,764 124,758 "/>
     <polygon id="210" class="fil212" points="334,335 127,760 114,753 "/>
     <polygon id="211" class="fil213" points="334,335 116,754 104,748 "/>
     <polygon id="212" class="fil214" points="334,335 106,749 94,742 "/>
     <polygon id="213" class="fil215" points="334,335 96,743 84,736 "/>
     <polygon id="214" class="fil216" points="334,335 86,737 74,729 "/>
     <polygon id="215" class="fil217" points="334,335 76,731 64,723 "/>
     <polygon id="216" class="fil218" points="334,335 67,725 55,716 "/>
     <polygon id="217" class="fil219" points="334,335 57,718 46,709 "/>
     <polygon id="218" class="fil220" points="334,335 48,711 37,702 "/>
     <polygon id="219" class="fil221" points="334,335 39,704 28,695 "/>
     <polygon id="220" class="fil222" points="334,335 30,697 19,687 "/>
     <polygon id="221" class="fil223" points="334,335 21,689 10,679 "/>
     <polygon id="222" class="fil224" points="334,335 12,681 2,671 "/>
     <polygon id="223" class="fil225" points="334,335 4,673 -6,663 "/>
     <polygon id="224" class="fil226" points="334,335 -4,665 -14,654 "/>
     <polygon id="225" class="fil227" points="334,335 -12,657 -22,646 "/>
     <polygon id="226" class="fil228" points="334,335 -20,648 -29,637 "/>
     <polygon id="227" class="fil229" points="334,335 -27,639 -37,628 "/>
     <polygon id="228" class="fil230" points="334,335 -35,630 -44,619 "/>
     <polygon id="229" class="fil231" points="334,335 -42,621 -51,609 "/>
     <polygon id="230" class="fil232" points="334,335 -49,612 -57,600 "/>
     <polygon id="231" class="fil233" points="334,335 -55,602 -64,590 "/>
     <polygon id="232" class="fil234" points="334,335 -62,593 -70,580 "/>
     <polygon id="233" class="fil235" points="334,335 -68,583 -76,570 "/>
     <polygon id="234" class="fil236" points="334,335 -74,573 -81,560 "/>
     <polygon id="235" class="fil237" points="334,335 -80,563 -87,550 "/>
     <polygon id="236" class="fil238" points="334,335 -85,553 -92,540 "/>
     <polygon id="237" class="fil239" points="334,335 -90,542 -97,529 "/>
     <polygon id="238" class="fil240" points="334,335 -95,532 -101,519 "/>
     <polygon id="239" class="fil241" points="334,335 -100,521 -106,508 "/>
     <polygon id="240" class="fil242" points="334,335 -105,511 -110,497 "/>
     <polygon id="241" class="fil243" points="334,335 -109,500 -114,486 "/>
     <polygon id="242" class="fil244" points="334,335 -113,489 -117,475 "/>
     <polygon id="243" class="fil245" points="334,335 -116,478 -120,464 "/>
     <polygon id="244" class="fil246" points="334,335 -120,467 -123,453 "/>
     <polygon id="245" class="fil247" points="334,335 -123,456 -126,442 "/>
     <polygon id="246" class="fil248" points="334,335 -126,444 -129,430 "/>
     <polygon id="247" class="fil249" points="334,335 -128,433 -131,419 "/>
     <polygon id="248" class="fil250" points="334,335 -130,422 -133,407 "/>
     <polygon id="249" class="fil251" points="334,335 -132,410 -134,396 "/>
     <polygon id="250" class="fil252" points="334,335 -134,399 -136,384 "/>
     <polygon id="251" class="fil253" points="334,335 -135,387 -137,373 "/>
     <polygon id="252" class="fil254" points="334,335 -137,376 -138,361 "/>
     <polygon id="253" class="fil255" points="334,335 -137,364 -138,350 "/>
     <polygon id="254" class="fil256" points="334,335 -138,353 -138,338 "/>
     <polygon id="255" class="fil256" points="334,335 -138,341 -138,329 "/>
    </g>
   </g>
  </g>
 </g>
</svg>
