<?xml version="1.0" encoding="UTF-8"?>
<!DOCTYPE svg PUBLIC "-//W3C//DTD SVG 1.1//EN" "http://www.w3.org/Graphics/SVG/1.1/DTD/svg11.dtd">
<!-- Creator: CorelDRAW X7 -->
<svg xmlns="http://www.w3.org/2000/svg" xml:space="preserve" width="600px" height="155px" version="1.1" style="shape-rendering:geometricPrecision; text-rendering:geometricPrecision; image-rendering:optimizeQuality; fill-rule:evenodd; clip-rule:evenodd"
viewBox="0 0 535 139"
 xmlns:xlink="http://www.w3.org/1999/xlink">
 <defs>
  <style type="text/css">
   <![CDATA[
    .fil1 {fill:#FEFEFE}
    .fil0 {fill:#0057A6}
   ]]>
  </style>
 </defs>
 <g id="Layer_x0020_1">
  <metadata id="CorelCorpID_0Corel-Layer"/>
  <g id="_358949797040">
   <path class="fil0" d="M102 139c38,0 73,-31 73,-69 0,-41 -35,-70 -73,-70l-32 0c-38,0 -70,29 -70,70 0,38 32,69 70,69l32 0z"/>
   <path class="fil1" d="M84 107l0 -75c16,5 26,20 26,37 0,17 -10,32 -26,38zm-54 -38c0,-17 11,-32 26,-37l0 75c-15,-6 -26,-21 -26,-38zm40 -63c-35,0 -63,28 -63,63 0,35 28,64 63,64 35,0 63,-29 63,-64 0,-35 -28,-63 -63,-63z"/>
   <path class="fil1" d="M206 86c0,6 4,7 7,7 16,0 21,-12 21,-23 0,-14 -9,-24 -23,-24 -3,0 -4,1 -5,1l0 39zm-8 -34c0,-6 -3,-6 -6,-6l0 -2c3,0 5,0 8,0 3,0 8,0 13,0 19,0 29,13 29,26 0,7 -4,25 -30,25 -4,0 -7,0 -11,0 -3,0 -6,0 -9,0l0 -2c4,0 6,0 6,-5l0 -36z"/>
   <path class="fil1" d="M252 51c-1,0 -3,-2 -3,-4 0,-2 2,-4 3,-4 2,0 4,2 4,4 0,2 -2,4 -4,4zm-7 42l1 0c2,0 3,0 3,-2l0 -20c0,-3 -1,-4 -3,-5l0 -1c3,-1 7,-3 7,-3 1,0 1,0 2,0 0,0 0,0 0,1l0 28c0,2 2,2 4,2l1 0 0 2c-2,0 -5,0 -7,0 -3,0 -6,0 -8,0l0 -2z"/>
   <path class="fil1" d="M267 71c0,-2 -1,-3 -4,-4l0 -2c3,-1 6,-2 10,-3 0,0 0,0 0,0l0 5c4,-3 8,-5 13,-5 6,0 8,4 8,10l0 19c0,2 2,2 4,2l1 0 0 2c-3,0 -5,0 -8,0 -2,0 -5,0 -8,0l0 -2 2 0c2,0 3,0 3,-2l0 -19c0,-4 -2,-6 -7,-6 -2,0 -6,2 -8,3l0 22c0,2 2,2 4,2l1 0 0 2c-3,0 -5,0 -8,0 -2,0 -5,0 -8,0l0 -2 2 0c2,0 3,0 3,-2l0 -20z"/>
   <path class="fil1" d="M317 73c2,0 2,-1 2,-2 0,-4 -2,-7 -6,-7 -4,0 -7,3 -8,9l12 0zm-13 2c0,1 0,2 0,4 1,7 5,13 11,13 4,0 7,-2 10,-5l1 1c-3,4 -7,8 -13,8 -12,0 -14,-11 -14,-16 0,-14 9,-18 14,-18 6,0 13,3 13,11 0,1 0,1 0,1l-1 1 -21 0z"/>
   <path class="fil1" d="M327 93l2 0c2,0 4,0 4,-2l0 -21c0,-2 -3,-2 -4,-3l0 -1c5,-2 8,-4 9,-4 0,0 1,0 1,1l0 6 0 0c2,-3 5,-7 9,-7 2,0 4,1 4,4 0,2 -1,3 -3,3 -3,0 -3,-1 -5,-1 -1,0 -5,1 -5,6l0 17c0,2 1,2 3,2l4 0 0 2c-4,0 -7,0 -10,0 -3,0 -6,0 -9,0l0 -2z"/>
   <path class="fil1" d="M355 85c1,5 4,9 10,9 4,0 5,-3 5,-5 0,-9 -15,-6 -15,-18 0,-4 3,-9 11,-9 2,0 5,0 8,2l1 7 -2 0c-1,-4 -3,-7 -8,-7 -3,0 -6,2 -6,5 0,8 17,6 17,17 0,5 -4,10 -12,10 -3,0 -7,-1 -9,-2l-1 -9 1 0z"/>
   <path class="fil1" d="M442 57l-2 0c-1,-8 -7,-12 -15,-12 -9,0 -21,6 -21,24 0,14 11,25 22,25 7,0 13,-5 15,-13l1 1 -1 10c-4,2 -12,4 -17,4 -17,0 -27,-11 -27,-27 0,-15 13,-26 27,-26 6,0 12,2 17,4l1 10z"/>
   <path class="fil1" d="M445 93l1 0c2,0 4,0 4,-2l0 -41c0,-5 -1,-5 -4,-6l0 -1c3,-1 6,-2 7,-3 1,0 2,-1 2,-1 0,0 0,1 0,1l0 51c0,2 2,2 4,2l1 0 0 2c-2,0 -5,0 -7,0 -3,0 -6,0 -8,0l0 -2z"/>
   <path class="fil1" d="M492 91c0,1 0,1 2,1 0,0 2,0 3,0l0 2c-4,0 -10,2 -11,2l0 0 0 -6c-5,4 -8,6 -13,6 -4,0 -8,-2 -8,-9l0 -18c0,-2 -1,-4 -5,-4l0 -2c3,0 9,0 10,0 1,0 1,0 1,2l0 19c0,2 0,8 6,8 2,0 6,-2 9,-4l0 -20c0,-1 -4,-2 -6,-3l0 -1c6,-1 10,-1 11,-1 1,0 1,0 1,1l0 27z"/>
   <path class="fil1" d="M506 87c0,3 3,7 8,7 7,0 11,-7 11,-14 0,-8 -6,-14 -12,-14 -3,0 -5,1 -7,3l0 18zm0 -20c3,-3 7,-5 11,-5 8,0 13,7 13,15 0,10 -7,19 -17,19 -5,0 -8,-2 -10,-2l-2 1 -2 -1c1,-4 1,-8 1,-13l0 -31c0,-5 -1,-5 -4,-6l0 -1c3,-1 6,-2 8,-3 1,0 1,-1 1,-1 1,0 1,1 1,1l0 27z"/>
   <path class="fil1" d="M530 58l0 0c1,0 1,-1 1,-1 0,-1 0,-1 -1,-1l0 0 0 2zm-2 2l0 0c1,0 1,0 1,0l0 -4c0,0 0,0 -1,0l0 -1 3 0c0,0 1,1 1,2 0,0 0,1 -1,1l1 1c0,1 1,1 1,1l0 0 -1 0c-1,0 -1,-1 -2,-2l0 0 0 2c0,0 0,0 0,0l0 0 -2 0zm2 2c3,0 4,-2 4,-4 0,-2 -1,-4 -4,-4 -2,0 -3,2 -3,4 0,2 1,4 3,4zm0 -9c3,0 5,2 5,5 0,2 -2,5 -5,5 -2,0 -4,-3 -4,-5 0,-3 2,-5 4,-5z"/>
  </g>
 </g>
</svg>
