<?xml version="1.0" encoding="UTF-8"?>
<!DOCTYPE svg PUBLIC "-//W3C//DTD SVG 1.1//EN" "http://www.w3.org/Graphics/SVG/1.1/DTD/svg11.dtd">
<!-- Creator: CorelDRAW X7 -->
<svg xmlns="http://www.w3.org/2000/svg" xml:space="preserve" width="600px" height="153px" version="1.1" style="shape-rendering:geometricPrecision; text-rendering:geometricPrecision; image-rendering:optimizeQuality; fill-rule:evenodd; clip-rule:evenodd"
viewBox="0 0 566 144"
 xmlns:xlink="http://www.w3.org/1999/xlink">
 <defs>
  <style type="text/css">
   <![CDATA[
    .fil2 {fill:url(#id0)}
    .fil0 {fill:url(#id1);fill-rule:nonzero}
    .fil1 {fill:url(#id2);fill-rule:nonzero}
   ]]>
  </style>
  <linearGradient id="id0" gradientUnits="userSpaceOnUse" x1="439.318" y1="144.314" x2="439.318" y2="0">
   <stop offset="0" style="stop-opacity:1; stop-color:#EE3314"/>
   <stop offset="1" style="stop-opacity:1; stop-color:#FF6D04"/>
  </linearGradient>
  <linearGradient id="id1" gradientUnits="userSpaceOnUse" x1="259.464" y1="144.315" x2="259.464" y2="0.000974776">
   <stop offset="0" style="stop-opacity:1; stop-color:#5D5D5D"/>
   <stop offset="1" style="stop-opacity:1; stop-color:#010101"/>
  </linearGradient>
  <linearGradient id="id2" gradientUnits="userSpaceOnUse" xlink:href="#id0" x1="102.825" y1="144.315" x2="102.825" y2="0.000974776">
  </linearGradient>
 </defs>
 <g id="Layer_x0020_1">
  <metadata id="CorelCorpID_0Corel-Layer"/>
  <path class="fil0" d="M307 87l-20 -53 -19 53 39 0zm-91 57l-58 -144 32 0 41 105 9 -23 27 -82 5 0 26 0 5 0 58 144 -32 0 -12 -33 -58 0 -12 33 -31 0 0 0z"/>
  <path class="fil1" d="M152 87l-20 -53 -19 53 39 0zm-152 57l0 -143 29 0 0 119 41 0 47 -120 31 0 58 144 -32 0 -12 -33 -58 0 -12 33 -31 0 -61 0z"/>
  <path class="fil2" d="M313 0l253 0 0 144 -195 0 -58 -144zm193 115c2,0 3,-1 4,-4 1,-2 2,-5 3,-9l1 -3c-4,2 -7,3 -9,5 -2,3 -3,5 -3,6 0,2 0,3 1,4 0,0 1,1 3,1zm-48 -29c2,0 3,0 4,-1 1,-1 2,-1 3,-2 2,-2 3,-3 3,-4 1,-2 2,-3 2,-5l5 -24c0,-1 0,-2 -1,-3 -1,-1 -2,-2 -4,-2 -3,0 -6,1 -8,3 -2,2 -4,5 -6,8 -1,3 -2,7 -3,10 -1,4 -1,7 -1,9 0,4 0,7 1,9 2,1 3,2 5,2zm54 -46l-8 36c-1,1 -1,3 -1,4 0,2 1,3 2,4 1,1 2,2 3,2 2,0 4,-1 7,-3 2,-2 3,-5 4,-9l7 -34 11 0 -13 62c-1,4 -2,7 -3,9 -1,3 -2,5 -3,6 -1,1 -3,2 -4,3 -1,0 -3,0 -5,0 -3,0 -6,0 -8,-2 -2,-1 -4,-4 -4,-7 0,-2 1,-4 2,-5 1,-2 2,-3 4,-5 2,-1 3,-2 6,-3 2,-1 4,-2 6,-3l1 -7c-2,2 -4,4 -6,5 -2,1 -4,1 -5,1 -2,0 -4,0 -5,-1 -1,-1 -3,-2 -4,-3 -1,-1 -2,-3 -2,-4 -1,-1 -1,-2 -1,-2 0,0 0,0 -1,1 -1,2 -3,4 -5,6 -1,1 -3,2 -4,2 -2,1 -3,1 -4,1 -3,0 -5,-1 -6,-2 -2,-2 -2,-5 -3,-8 -1,2 -4,5 -7,7 -2,2 -6,3 -9,3 -2,0 -4,0 -5,-1 -2,0 -3,-1 -5,-3 -1,-1 -2,-3 -3,-5 0,-2 -1,-5 -1,-8 0,-3 0,-5 1,-8 0,-3 1,-6 2,-8 1,-3 3,-6 4,-9 2,-2 3,-4 5,-6 3,-2 5,-4 7,-5 3,-1 6,-2 9,-2 1,0 3,1 5,1 2,1 3,3 3,5l2 -5 10 0 -7 36c-1,2 -1,3 -1,5 0,1 0,2 1,3 0,1 1,2 2,2 2,0 4,-1 6,-3 1,-2 3,-5 4,-8l0 -1 8 -34 11 0zm-97 -4l-2 8c2,-1 4,-3 6,-3 2,-1 4,-2 6,-2 2,0 4,1 5,1 2,1 3,2 4,3 2,2 2,4 3,6 1,2 1,5 1,8 0,2 0,5 0,8 -1,2 -1,5 -2,8 -1,3 -2,5 -3,8 -2,2 -3,5 -5,7 -2,2 -4,3 -7,4 -3,1 -5,2 -9,2 -2,0 -3,0 -5,-1 -1,-1 -2,-3 -3,-4l-6 29 -12 2 18 -84 11 0zm5 10c-2,0 -3,1 -5,2 -1,0 -2,2 -3,3l-7 32c0,2 1,3 3,3 1,1 2,1 3,1 3,0 5,-1 8,-3 2,-2 3,-5 5,-8 1,-3 2,-6 3,-10 0,-3 0,-6 0,-9 0,-2 0,-4 0,-5 -1,-1 -1,-3 -2,-3 -1,-1 -1,-2 -2,-2 -1,-1 -2,-1 -3,-1z"/>
 </g>
</svg>
