<?xml version="1.0" encoding="UTF-8"?>
<!DOCTYPE svg PUBLIC "-//W3C//DTD SVG 1.1//EN" "http://www.w3.org/Graphics/SVG/1.1/DTD/svg11.dtd">
<!-- Creator: CorelDRAW X7 -->
<svg xmlns="http://www.w3.org/2000/svg" xml:space="preserve" width="600px" height="360px" version="1.1" style="shape-rendering:geometricPrecision; text-rendering:geometricPrecision; image-rendering:optimizeQuality; fill-rule:evenodd; clip-rule:evenodd"
viewBox="0 0 673 404"
 xmlns:xlink="http://www.w3.org/1999/xlink">
 <defs>
  <style type="text/css">
   <![CDATA[
    .str0 {stroke:#FEFEFE;stroke-width:0.532146}
    .fil3 {fill:none;fill-rule:nonzero}
    .fil2 {fill:#FEFEFE}
    .fil0 {fill:#E41D2C}
    .fil1 {fill:#0082C3}
   ]]>
  </style>
 </defs>
 <g id="Layer_x0020_1">
  <metadata id="CorelCorpID_0Corel-Layer"/>
  <g id="_358955216848">
   <circle class="fil0" cx="471" cy="202" r="202"/>
   <path class="fil1" d="M202 0c59,0 112,25 149,65l-30 0 -9 12 49 0c3,4 6,8 9,12l-67 0 -8 12 82 0c2,4 5,8 7,13l-95 0 -6 11 106 0c2,4 3,8 5,13l-115 0 -3 11 121 0c1,4 2,8 3,13l-128 0 -2 11 132 0c1,4 1,8 1,12l-133 0 -1 11 135 0c0,2 0,4 0,6 0,2 0,4 0,6l-136 0 1 11 134 0c0,4 0,8 -1,12l-131 0 2 11 127 0c-1,4 -2,8 -3,12l-121 0 4 11 114 0c-2,5 -3,10 -5,14l-105 0 6 11 94 0c-3,5 -5,10 -8,14l-79 0 7 12 65 0c-3,4 -6,9 -10,13l-46 0 9 11 28 0c-37,39 -90,64 -148,64 -112,0 -202,-90 -202,-202 0,-112 90,-202 202,-202z"/>
   <path class="fil2" d="M427 185l-1 0c-11,-1 -23,-5 -33,1 -6,4 -5,9 0,14 10,6 19,4 28,14 14,20 1,43 -20,50 -15,3 -39,2 -54,-3l4 -21c13,3 21,5 34,4 13,-2 16,-14 2,-20 -11,-4 -19,-7 -25,-16 -5,-11 -3,-27 4,-36 14,-14 46,-12 64,-9l1 0 1 0 -5 22z"/>
   <path class="fil2" d="M290 203l34 0c1,-10 -1,-18 -11,-20 -14,-2 -21,7 -23,20zm-4 18l0 2c-1,26 41,24 59,14l-4 23c-23,12 -61,5 -75,-13 -14,-20 -9,-52 6,-70l2 -2 2 -2 2 -2c11,-8 22,-10 35,-10 38,3 41,26 35,60l-62 0z"/>
   <path class="fil2" d="M249 244l-4 21 -24 0 1 -2 0 -2 0 -1 0 -2 1 -1 0 -2 0 0 0 -1 -1 2c-13,12 -35,15 -50,4 -17,-16 -9,-41 9,-53l3 -1c14,-6 30,-5 45,-5l0 0 1 -1c2,-9 -3,-15 -12,-16 -9,0 -33,1 -40,5l7 -22c12,-6 34,-6 48,-4 16,4 29,12 26,31l-10 50zm-23 -25c0,-1 0,-1 -2,-1 -8,-1 -19,1 -26,6 -7,6 -9,18 1,20 9,1 18,-1 23,-9 3,-5 3,-10 4,-16z"/>
   <path class="fil2" d="M483 265l27 0 9 -54c1,-4 2,-8 4,-12 5,-8 16,-11 25,-10l0 0 1 0 0 0 0 0 0 -1 1 -2 0 -2 1 -3c1,-4 2,-8 4,-11l1 -2 1 -2 0 -1 1 -1 1 -1 0 0 0 0 -1 0 0 -1c-14,-2 -24,6 -32,17l2 -16 -27 0 -18 102z"/>
   <polygon class="fil2" points="640,260 648,260 648,261 645,261 645,268 643,268 643,261 640,261 "/>
   <g>
    <polyline class="fil3 str0" points="640,260 648,260 648,261 645,261 645,268 643,268 643,261 640,261 640,260 "/>
   </g>
   <polygon class="fil2" points="649,260 651,260 654,266 657,260 659,260 659,268 657,268 657,262 655,268 653,268 651,262 651,268 649,268 "/>
   <g>
    <polyline class="fil3 str0" points="649,260 651,260 654,266 657,260 659,260 659,268 657,268 657,262 655,268 653,268 651,262 651,268 649,268 649,260 "/>
   </g>
   <path class="fil2" d="M633 172c20,16 22,46 11,68 -18,36 -78,37 -95,0 -10,-27 -1,-62 27,-74 18,-7 41,-6 57,6zm-54 55c5,19 26,16 35,0 3,-9 5,-19 4,-29 -5,-20 -26,-16 -35,0 -4,9 -6,19 -4,29z"/>
   <path class="fil2" d="M449 140l27 0 -5 23 17 0 -4 22 -17 -1 -9 53c0,5 1,6 5,7 5,1 11,1 15,-1l1 0 -3 18c-8,5 -22,5 -31,4 -13,-3 -16,-8 -14,-21l18 -104z"/>
   <path class="fil2" d="M48 265l-26 0 22 -125 46 0 4 75 31 -75 47 0 -22 125 -26 0 16 -93 -1 0 -38 93 -30 0c-2,-31 -3,-62 -5,-93l0 0 0 0 -1 0 0 0 0 0 0 0 0 0 -17 93z"/>
  </g>
 </g>
</svg>
