<?xml version="1.0" encoding="UTF-8"?>
<!DOCTYPE svg PUBLIC "-//W3C//DTD SVG 1.1//EN" "http://www.w3.org/Graphics/SVG/1.1/DTD/svg11.dtd">
<!-- Creator: CorelDRAW X7 -->
<svg xmlns="http://www.w3.org/2000/svg" xml:space="preserve" width="600px" height="359px" version="1.1" style="shape-rendering:geometricPrecision; text-rendering:geometricPrecision; image-rendering:optimizeQuality; fill-rule:evenodd; clip-rule:evenodd"
viewBox="0 0 574 343"
 xmlns:xlink="http://www.w3.org/1999/xlink">
 <defs>
  <style type="text/css">
   <![CDATA[
    .str0 {stroke:#FEFEFE;stroke-width:0.452901}
    .fil3 {fill:none;fill-rule:nonzero}
    .fil2 {fill:#FEFEFE}
    .fil0 {fill:#F9B32A}
    .fil1 {fill:#E41D2C}
   ]]>
  </style>
 </defs>
 <g id="Layer_x0020_1">
  <metadata id="CorelCorpID_0Corel-Layer"/>
  <g id="_358955159056">
   <polygon class="fil0" points="402,343 411,343 419,342 428,341 436,340 445,338 453,336 461,333 469,330 476,326 484,323 491,318 498,314 505,309 511,304 517,299 523,293 529,287 534,281 540,274 544,268 549,261 553,253 557,246 560,238 563,230 566,222 568,214 570,206 572,198 573,189 573,180 574,171 573,163 573,154 572,145 570,137 568,129 566,121 563,113 560,105 557,97 553,90 549,83 544,76 540,69 534,62 529,56 523,50 517,45 511,39 505,34 498,29 491,25 484,21 476,17 469,13 461,10 453,8 445,5 436,3 428,2 419,1 411,0 402,0 393,0 384,1 376,2 367,3 359,5 351,8 343,10 335,13 327,17 320,21 313,25 306,29 299,34 293,39 286,45 280,50 275,56 269,62 264,69 260,76 255,83 251,90 247,97 244,105 241,113 238,121 236,129 234,137 232,145 231,154 231,163 230,171 231,180 231,189 232,198 234,206 236,214 238,222 241,230 244,238 247,246 251,253 255,261 260,268 264,274 269,281 275,287 280,293 286,299 293,304 299,309 306,314 313,318 320,323 327,326 335,330 343,333 351,336 359,338 367,340 376,341 384,342 393,343 "/>
   <polygon class="fil1" points="172,343 181,343 190,342 198,341 207,340 215,338 223,336 231,333 239,330 246,326 254,323 261,318 268,314 275,309 281,304 287,299 293,293 299,287 304,281 309,274 314,268 319,261 323,253 327,246 330,238 333,230 336,222 338,214 340,206 341,198 342,189 343,180 343,171 343,163 342,154 341,145 340,137 338,129 336,121 333,113 330,105 327,97 323,90 319,83 314,76 309,69 304,62 299,56 293,50 287,45 281,39 275,34 268,29 261,25 254,21 246,17 239,13 231,10 223,8 215,5 207,3 198,2 190,1 181,0 172,0 163,0 154,1 146,2 137,3 129,5 121,8 113,10 105,13 97,17 90,21 83,25 76,29 69,34 63,39 56,45 50,50 45,56 39,62 34,69 29,76 25,83 21,90 17,97 13,105 10,113 8,121 5,129 3,137 2,145 1,154 0,163 0,171 0,180 1,189 2,198 3,206 5,214 8,222 10,230 13,238 17,246 21,253 25,261 29,268 34,274 39,281 45,287 50,293 56,299 63,304 69,309 76,314 83,318 90,323 97,326 105,330 113,333 121,336 129,338 137,340 146,341 154,342 163,343 "/>
   <polygon class="fil0" points="267,66 358,66 358,57 275,57 "/>
   <polygon class="fil0" points="253,87 358,87 358,77 259,77 "/>
   <polygon class="fil0" points="243,107 358,107 358,98 247,98 "/>
   <polygon class="fil0" points="236,128 358,128 358,119 239,119 "/>
   <polygon class="fil0" points="240,228 358,228 358,219 237,219 "/>
   <polygon class="fil0" points="249,249 358,249 358,240 244,240 "/>
   <polygon class="fil0" points="261,270 358,270 358,260 255,260 "/>
   <polygon class="fil0" points="278,290 358,290 358,281 270,281 "/>
   <polygon class="fil0" points="232,149 358,149 358,139 234,139 "/>
   <polygon class="fil0" points="309,207 357,207 357,198 310,198 "/>
   <polygon class="fil0" points="312,187 357,187 357,177 314,177 "/>
   <polygon class="fil0" points="229,177 241,177 241,187 229,187 "/>
   <polygon class="fil2" points="205,166 204,166 204,166 203,166 202,166 201,166 201,166 200,165 199,165 198,165 197,165 196,165 195,165 194,165 193,165 191,165 189,165 188,165 187,166 186,166 185,166 185,167 184,167 183,168 183,168 182,169 182,170 182,170 182,171 182,172 182,172 183,173 183,174 185,175 186,176 188,177 189,177 191,178 193,179 195,179 197,180 199,181 200,182 202,184 203,185 204,188 204,190 205,193 204,197 204,200 203,202 202,204 201,206 200,208 198,209 197,211 195,212 193,213 191,213 189,214 187,214 185,215 183,215 181,215 180,215 177,215 175,215 173,215 171,215 169,215 168,215 166,215 165,215 164,214 163,214 161,214 160,214 159,213 159,213 158,213 157,212 159,200 160,200 160,200 161,200 162,200 163,201 164,201 166,201 167,201 168,202 170,202 172,202 173,202 175,202 177,202 178,202 180,202 182,202 183,201 184,201 185,200 185,199 186,198 186,197 186,196 186,195 186,193 185,192 183,191 182,190 180,189 177,189 175,188 173,187 171,185 169,184 167,182 165,180 164,177 164,174 164,170 164,168 165,166 165,164 166,162 167,161 168,159 169,158 170,156 172,155 174,154 176,153 178,153 181,152 184,152 187,152 190,152 192,152 194,152 196,152 198,152 199,152 201,152 202,152 203,152 204,152 205,152 205,153 206,153 207,153 207,153 208,153 208,153 "/>
   <g>
    <polyline class="fil3 str0" points="205,166 205,166 204,166 204,166 203,166 202,166 201,166 201,166 200,165 199,165 198,165 197,165 196,165 195,165 194,165 193,165 191,165 189,165 188,165 187,166 186,166 185,166 185,167 184,167 183,168 183,168 182,169 182,170 182,170 182,171 182,172 182,172 183,173 183,174 185,175 186,176 188,177 189,177 191,178 193,179 195,179 197,180 199,181 200,182 202,184 203,185 204,188 204,190 205,193 204,197 204,200 203,202 202,204 201,206 200,208 198,209 197,211 195,212 193,213 191,213 189,214 187,214 185,215 183,215 181,215 180,215 177,215 175,215 173,215 171,215 169,215 168,215 166,215 165,215 164,214 163,214 161,214 160,214 159,213 159,213 158,213 157,212 159,200 160,200 160,200 161,200 162,200 163,201 164,201 166,201 167,201 168,202 170,202 172,202 173,202 175,202 177,202 178,202 180,202 182,202 183,201 184,201 185,200 185,199 186,198 186,197 186,196 186,195 186,193 185,192 183,191 182,190 180,189 177,189 175,188 173,187 171,185 169,184 167,182 165,180 164,177 164,174 164,170 164,168 165,166 165,164 166,162 167,161 168,159 169,158 170,156 172,155 174,154 176,153 178,153 181,152 184,152 187,152 190,152 192,152 194,152 196,152 198,152 199,152 201,152 202,152 203,152 204,152 205,152 205,153 206,153 207,153 207,153 208,153 208,153 205,166 "/>
   </g>
   <polygon class="fil2" points="219,139 235,139 233,153 242,153 240,166 230,166 224,198 224,199 225,200 225,201 226,201 227,202 228,202 230,202 231,203 232,202 233,202 234,202 235,202 236,202 237,202 237,201 237,201 235,212 235,212 234,213 234,213 233,213 233,213 233,213 232,214 231,214 231,214 230,214 230,214 229,214 228,214 227,215 226,215 225,215 221,215 219,215 217,214 215,214 213,214 212,213 211,213 210,212 209,211 208,210 208,209 208,208 208,207 208,206 208,205 208,203 208,202 "/>
   <g>
    <polyline class="fil3 str0" points="219,139 235,139 233,153 242,153 240,166 230,166 224,198 224,199 225,200 225,201 226,201 227,202 228,202 230,202 231,203 232,202 233,202 234,202 235,202 236,202 237,202 237,201 237,201 235,212 235,212 234,213 234,213 233,213 233,213 233,213 232,214 231,214 231,214 230,214 230,214 229,214 228,214 227,215 226,215 225,215 221,215 219,215 217,214 215,214 213,214 212,213 211,213 210,212 209,211 208,210 208,209 208,208 208,207 208,206 208,205 208,203 208,202 219,139 "/>
   </g>
   <polygon class="fil2" points="255,188 255,189 255,190 255,191 255,192 256,193 256,194 257,195 257,196 258,197 259,198 260,199 261,200 262,200 263,201 264,201 266,201 267,202 269,202 270,202 272,202 273,202 275,202 276,202 278,202 279,202 281,201 282,201 284,201 286,200 287,199 289,198 291,197 288,212 287,212 286,212 286,213 285,213 284,213 283,214 282,214 281,214 280,214 279,214 278,215 276,215 275,215 273,215 271,215 269,215 267,215 264,214 261,214 258,213 255,212 252,211 250,210 247,208 245,206 243,204 241,201 240,198 239,195 238,191 238,187 238,182 239,180 239,178 240,176 240,173 241,171 242,168 243,166 245,163 247,161 249,159 252,157 255,155 258,154 262,152 266,152 271,152 273,152 275,152 278,152 280,153 282,154 285,155 287,156 289,158 290,160 292,162 293,165 294,168 294,171 294,175 294,180 293,184 293,188 255,188 257,177 278,177 279,175 278,174 278,172 278,171 278,170 277,169 277,168 276,168 275,167 275,166 274,166 273,165 272,165 271,165 270,165 269,164 268,164 267,165 266,165 265,165 264,166 263,166 262,167 262,168 261,168 260,169 259,170 259,171 258,172 258,173 258,174 257,176 "/>
   <g>
    <polyline class="fil3 str0" points="255,188 255,188 255,189 255,190 255,191 255,192 256,193 256,194 257,195 257,196 258,197 259,198 260,199 261,200 262,200 263,201 264,201 266,201 267,202 269,202 270,202 272,202 273,202 275,202 276,202 278,202 279,202 281,201 282,201 284,201 286,200 287,199 289,198 291,197 288,212 287,212 286,212 286,213 285,213 284,213 283,214 282,214 281,214 280,214 279,214 278,215 276,215 275,215 273,215 271,215 269,215 267,215 264,214 261,214 258,213 255,212 252,211 250,210 247,208 245,206 243,204 241,201 240,198 239,195 238,191 238,187 238,182 239,180 239,178 240,176 240,173 241,171 242,168 243,166 245,163 247,161 249,159 252,157 255,155 258,154 262,152 266,152 271,152 273,152 275,152 278,152 280,153 282,154 285,155 287,156 289,158 290,160 292,162 293,165 294,168 294,171 294,175 294,180 293,184 293,188 250,188 253,177 278,177 279,175 278,174 278,172 278,171 278,170 277,169 277,168 276,168 275,167 275,166 274,166 273,165 272,165 271,165 270,165 269,164 268,164 267,165 266,165 265,165 264,166 263,166 262,167 262,168 261,168 260,169 259,170 259,171 258,172 258,173 258,174 257,176 255,188 "/>
   </g>
   <polygon class="fil2" points="393,156 392,156 392,155 391,155 390,155 389,154 388,154 387,154 386,153 385,153 384,153 383,153 382,152 380,152 379,152 377,152 376,152 375,152 373,152 372,152 370,153 368,153 367,154 365,155 363,156 362,157 360,158 359,160 357,162 356,165 355,168 354,171 353,175 353,177 352,179 352,181 352,183 353,185 353,187 353,189 354,190 355,192 356,193 357,195 359,196 360,197 362,198 364,199 366,199 367,199 368,199 369,200 370,200 371,200 373,200 374,200 375,200 377,199 378,199 380,199 381,198 383,198 384,197 385,196 387,195 384,210 384,211 383,211 383,211 382,212 382,212 381,213 380,213 379,213 377,214 376,214 374,214 372,215 370,215 367,215 364,215 361,215 358,214 356,214 353,213 350,212 348,210 346,208 343,206 341,204 339,202 338,199 336,195 335,192 334,188 334,184 334,179 335,175 335,172 336,170 336,168 337,165 338,163 338,161 339,159 340,158 341,156 342,154 343,153 344,151 345,150 346,148 347,147 348,146 350,145 351,144 352,143 354,142 355,141 357,140 359,139 360,139 362,138 364,138 366,137 368,137 370,137 372,136 374,136 376,136 378,136 380,136 381,136 383,137 385,137 386,137 388,138 389,138 391,138 392,139 393,139 394,139 395,140 395,140 396,140 396,140 "/>
   <g>
    <polyline class="fil3 str0" points="393,156 393,156 392,156 392,155 391,155 390,155 389,154 388,154 387,154 386,153 385,153 384,153 383,153 382,152 380,152 379,152 377,152 376,152 375,152 373,152 372,152 370,153 368,153 367,154 365,155 363,156 362,157 360,158 359,160 357,162 356,165 355,168 354,171 353,175 353,177 352,179 352,181 352,183 353,185 353,187 353,189 354,190 355,192 356,193 357,195 359,196 360,197 362,198 364,199 366,199 367,199 368,199 369,200 370,200 371,200 373,200 374,200 375,200 377,199 378,199 380,199 381,198 383,198 384,197 385,196 387,195 384,210 384,211 383,211 383,211 382,212 382,212 381,213 380,213 379,213 377,214 376,214 374,214 372,215 370,215 367,215 364,215 361,215 358,214 356,214 353,213 350,212 348,210 346,208 343,206 341,204 339,202 338,199 336,195 335,192 334,188 334,184 334,179 335,175 335,172 336,170 336,168 337,165 338,163 338,161 339,159 340,158 341,156 342,154 343,153 344,151 345,150 346,148 347,147 348,146 350,145 351,144 352,143 354,142 355,141 357,140 359,139 360,139 362,138 364,138 366,137 368,137 370,137 372,136 374,136 376,136 378,136 380,136 381,136 383,137 385,137 386,137 388,138 389,138 391,138 392,139 393,139 394,139 395,140 395,140 396,140 396,140 393,156 "/>
   </g>
   <polygon class="fil2" points="536,215 520,215 521,208 521,208 520,209 519,210 518,211 517,212 516,212 515,213 514,214 513,214 512,215 511,215 509,215 508,215 507,215 506,216 505,216 504,216 501,215 498,215 495,214 493,212 491,211 489,209 488,207 486,204 485,202 484,199 483,196 483,193 483,190 483,187 483,184 484,181 484,178 486,175 487,172 488,169 490,166 491,164 493,162 495,160 497,158 499,157 502,156 504,155 506,154 508,153 511,153 513,153 515,153 516,153 518,153 519,154 521,154 522,155 523,155 524,156 525,157 526,157 526,158 527,159 528,160 528,160 529,161 529,162 533,139 549,139 "/>
   <g>
    <polyline class="fil3 str0" points="536,215 520,215 521,208 521,208 520,209 519,210 518,211 517,212 516,212 515,213 514,214 513,214 512,215 511,215 509,215 508,215 507,215 506,216 505,216 504,216 501,215 498,215 495,214 493,212 491,211 489,209 488,207 486,204 485,202 484,199 483,196 483,193 483,190 483,187 483,184 484,181 484,178 486,175 487,172 488,169 490,166 491,164 493,162 495,160 497,158 499,157 502,156 504,155 506,154 508,153 511,153 513,153 515,153 516,153 518,153 519,154 521,154 522,155 523,155 524,156 525,157 526,157 526,158 527,159 528,160 528,160 529,161 529,162 533,139 549,139 536,215 "/>
   </g>
   <polygon class="fil0" points="510,201 511,201 513,200 514,200 515,199 517,199 518,198 519,197 520,196 521,195 522,193 522,192 523,191 524,189 524,188 524,186 525,184 525,183 525,181 525,180 525,178 525,176 525,175 524,174 524,172 523,171 523,170 522,169 521,168 520,168 519,167 518,167 517,167 515,167 514,167 512,168 511,168 510,169 509,170 508,171 507,172 506,173 505,174 504,176 504,177 503,179 503,181 502,182 502,184 501,186 502,189 502,192 503,195 504,197 505,199 507,200 "/>
   <polygon class="fil2" points="154,202 152,215 137,215 137,212 138,210 138,209 138,208 137,209 136,210 135,211 134,211 133,212 131,213 130,214 128,214 127,215 125,215 123,215 121,216 120,216 118,216 116,216 115,215 113,215 111,214 109,214 108,213 107,212 106,211 105,210 104,208 103,207 103,206 102,205 102,203 101,202 101,201 101,199 101,198 101,196 102,194 102,192 103,190 104,188 105,186 106,185 108,183 109,182 111,181 112,180 114,179 116,178 118,177 120,177 122,176 122,176 122,176 123,176 123,176 124,176 125,176 126,176 127,176 128,176 129,175 130,175 131,175 132,175 132,175 133,175 134,175 135,175 137,175 138,175 139,175 140,175 141,175 142,175 142,175 142,175 142,174 142,173 143,172 142,170 142,169 141,168 140,167 139,167 138,166 136,166 135,166 133,166 132,165 130,165 128,166 126,166 124,166 122,166 121,166 119,166 117,167 116,167 114,167 113,168 112,168 111,168 110,169 115,155 116,154 117,154 119,153 120,153 121,153 123,153 124,152 126,152 128,152 129,152 131,152 133,152 135,152 136,152 139,152 141,152 142,152 144,153 146,153 148,153 149,154 151,155 153,156 154,157 156,158 157,160 158,161 159,163 160,165 160,167 160,169 160,171 "/>
   <g>
    <polyline class="fil3 str0" points="154,202 152,215 137,215 137,212 138,210 138,209 138,208 137,209 136,210 135,211 134,211 133,212 131,213 130,214 128,214 127,215 125,215 123,215 121,216 120,216 118,216 116,216 115,215 113,215 111,214 109,214 108,213 107,212 106,211 105,210 104,208 103,207 103,206 102,205 102,203 101,202 101,201 101,199 101,198 101,196 102,194 102,192 103,190 104,188 105,186 106,185 108,183 109,182 111,181 112,180 114,179 116,178 118,177 120,177 122,176 122,176 122,176 123,176 123,176 124,176 125,176 126,176 127,176 128,176 129,175 130,175 131,175 132,175 132,175 133,175 134,175 135,175 137,175 138,175 139,175 140,175 141,175 142,175 142,175 142,175 142,174 142,173 143,172 142,170 142,169 141,168 140,167 139,167 138,166 136,166 135,166 133,166 132,165 130,165 128,166 126,166 124,166 122,166 121,166 119,166 117,167 116,167 114,167 113,168 112,168 111,168 110,169 115,155 116,154 117,154 119,153 120,153 121,153 123,153 124,152 126,152 128,152 129,152 131,152 133,152 135,152 136,152 139,152 141,152 142,152 144,153 146,153 148,153 149,154 151,155 153,156 154,157 156,158 157,160 158,161 159,163 160,165 160,167 160,169 160,171 154,202 "/>
   </g>
   <polygon class="fil1" points="140,187 140,187 140,186 139,186 139,186 138,186 137,186 136,186 136,186 135,186 134,186 133,186 132,186 131,186 130,186 129,187 129,187 128,187 128,187 127,187 127,188 126,188 125,188 124,189 124,189 123,190 122,190 121,191 121,192 120,193 120,193 119,194 119,195 119,197 119,199 120,200 121,201 122,201 123,202 124,202 125,202 126,202 128,202 129,201 131,201 132,201 133,200 134,200 135,199 136,198 136,198 137,197 137,196 138,196 138,195 138,194 138,194 139,192 139,190 140,188 "/>
   <polygon class="fil2" points="32,215 16,215 29,139 57,139 59,184 78,139 107,139 94,215 78,215 88,158 87,158 64,215 46,215 46,212 45,206 45,197 44,187 44,176 43,167 43,161 43,158 42,158 42,158 42,158 "/>
   <g>
    <polyline class="fil3 str0" points="32,215 16,215 29,139 57,139 59,184 78,139 107,139 94,215 78,215 88,158 87,158 64,215 46,215 46,212 45,206 45,197 44,187 44,176 43,167 43,161 43,158 42,158 42,158 42,158 32,215 "/>
   </g>
   <polygon class="fil2" points="441,202 439,215 424,215 425,212 425,210 425,209 425,208 424,209 423,210 422,211 421,211 420,212 418,213 417,214 415,214 414,215 412,215 411,215 409,216 407,216 406,216 404,216 403,215 400,215 399,214 397,214 395,213 394,212 393,211 392,210 391,208 391,207 390,206 390,205 389,203 389,202 389,201 389,199 389,198 389,196 389,194 390,192 391,190 391,188 393,186 394,185 395,183 397,182 398,181 400,180 402,179 403,178 405,177 407,177 409,176 409,176 410,176 410,176 411,176 411,176 412,176 413,176 414,176 415,176 416,175 417,175 418,175 419,175 420,175 421,175 421,175 423,175 424,175 425,175 427,175 428,175 429,175 429,175 429,175 429,175 430,174 430,173 430,172 430,170 429,169 428,168 428,167 427,167 425,166 424,166 423,166 421,166 419,165 418,165 416,166 414,166 412,166 410,166 408,166 407,166 405,167 403,167 402,167 401,168 400,168 399,168 398,169 402,155 404,154 405,154 406,153 408,153 409,153 410,153 412,152 414,152 415,152 417,152 419,152 420,152 422,152 424,152 426,152 428,152 430,152 431,153 433,153 435,153 437,154 439,155 440,156 442,157 443,158 445,160 446,161 447,163 447,165 448,167 448,169 447,171 "/>
   <polygon class="fil2" points="439,215 439,215 442,202 441,202 439,215 439,214 439,215 439,215 439,215 "/>
   <polygon class="fil2" points="424,215 424,215 439,215 439,214 424,214 425,215 424,215 424,215 424,215 "/>
   <polygon class="fil2" points="425,208 424,208 424,209 424,210 424,212 424,215 425,215 425,212 425,210 425,209 425,208 424,208 "/>
   <polygon class="fil2" points="402,216 402,216 404,216 406,216 407,216 409,216 411,216 412,215 414,215 416,215 417,214 418,213 420,213 421,212 422,211 423,210 424,209 425,208 424,208 424,209 423,210 422,210 421,211 420,212 418,213 417,213 415,214 414,214 412,215 411,215 409,215 407,215 406,215 404,215 403,215 "/>
   <polygon class="fil2" points="388,198 388,198 389,199 389,201 389,202 389,203 389,205 390,206 390,207 391,209 392,210 393,211 394,212 395,213 397,214 398,215 400,215 402,216 403,215 401,215 399,214 397,213 396,212 394,211 393,210 392,209 392,208 391,207 391,206 390,205 390,203 390,202 389,201 389,199 389,198 "/>
   <polygon class="fil2" points="409,176 409,176 407,176 405,177 403,177 402,178 400,179 398,180 396,182 395,183 394,184 392,186 391,188 390,190 390,192 389,194 389,196 388,198 389,198 389,196 390,194 390,192 391,190 392,188 393,186 394,185 395,183 397,182 398,181 400,180 402,179 404,178 405,178 407,177 409,177 "/>
   <polygon class="fil2" points="421,175 421,175 421,175 420,175 419,175 418,175 417,175 416,175 415,175 414,175 413,175 412,176 411,176 411,176 410,176 410,176 409,176 409,176 409,177 409,177 410,177 410,177 411,176 411,176 412,176 413,176 414,176 415,176 416,176 417,176 418,176 419,176 420,176 421,176 421,176 "/>
   <polygon class="fil2" points="429,175 429,175 429,175 429,175 428,175 427,175 425,175 424,175 423,175 421,175 421,176 423,176 424,176 425,176 427,176 428,176 429,176 429,176 429,176 430,175 429,176 430,176 430,175 "/>
   <polygon class="fil2" points="430,172 430,172 429,173 429,174 429,175 429,175 430,175 430,175 430,174 430,173 430,172 430,172 "/>
   <polygon class="fil2" points="423,166 423,166 424,166 425,166 426,167 427,168 428,168 429,169 429,170 430,172 430,172 430,170 430,169 429,168 428,167 427,166 425,166 424,165 423,165 423,165 "/>
   <polygon class="fil2" points="398,169 398,169 399,169 400,168 401,168 402,168 403,167 405,167 407,167 408,167 410,166 412,166 414,166 416,166 418,166 419,166 421,166 423,166 423,165 421,165 419,165 418,165 416,165 414,165 412,165 410,166 408,166 406,166 405,166 403,167 402,167 401,167 400,168 399,168 398,168 399,169 "/>
   <polygon class="fil2" points="402,154 402,155 398,169 399,169 403,155 402,155 402,154 402,155 402,155 "/>
   <polygon class="fil2" points="428,152 428,152 426,152 424,152 422,152 420,152 419,152 417,152 415,152 414,152 412,152 410,152 409,152 408,153 406,153 405,153 403,154 402,154 402,155 404,155 405,154 406,154 408,153 409,153 411,153 412,153 414,153 415,152 417,152 419,152 420,152 422,152 424,152 426,152 428,152 "/>
   <polygon class="fil2" points="448,171 448,171 448,169 448,167 448,165 447,163 446,161 445,159 444,158 442,157 440,156 439,155 437,154 435,153 433,153 431,152 430,152 428,152 428,152 430,153 431,153 433,153 435,154 437,155 438,155 440,156 442,157 443,159 444,160 446,161 446,163 447,165 447,167 447,169 447,171 "/>
   <polygon class="fil2" points="442,202 442,202 448,171 447,171 441,202 "/>
   <polygon class="fil0" points="427,187 427,186 427,186 427,186 426,186 425,186 425,186 424,186 423,186 422,186 421,186 420,186 419,186 418,186 418,187 417,187 416,187 416,187 415,187 415,187 414,187 413,188 413,188 412,189 411,189 410,190 410,190 409,191 408,192 408,192 407,193 407,194 407,195 407,197 407,199 408,200 408,201 409,201 410,202 411,202 412,202 414,202 416,202 417,201 418,201 420,201 421,200 422,199 423,199 424,198 424,197 425,197 425,196 426,195 426,195 426,194 426,193 427,192 427,190 427,188 "/>
   <polygon class="fil2" points="547,207 547,206 547,204 548,203 549,201 550,200 552,200 553,199 555,199 556,199 558,200 559,200 560,201 561,203 562,204 563,206 563,207 561,207 561,206 561,205 560,203 559,202 558,202 557,201 556,201 555,200 553,201 552,201 551,202 550,202 549,203 549,205 548,206 548,207 "/>
   <polygon class="fil2" points="552,207 552,203 555,203 556,203 556,204 557,204 557,204 558,204 558,205 558,205 558,205 558,206 558,206 558,207 557,207 555,207 555,207 556,207 556,207 556,207 557,206 557,206 557,206 557,205 557,205 557,205 556,205 556,205 556,205 556,205 555,205 555,205 553,205 553,207 "/>
   <polygon class="fil2" points="547,207 547,207 547,209 547,210 548,212 549,213 550,214 552,215 553,215 555,215 556,215 558,215 559,214 560,213 561,212 562,210 563,209 563,207 563,207 561,207 561,207 561,209 561,210 560,211 559,212 558,213 557,213 556,214 555,214 553,214 552,213 551,213 550,212 549,211 549,210 548,209 548,207 548,207 "/>
   <polygon class="fil2" points="552,207 552,210 553,210 553,207 555,207 556,210 558,210 556,207 556,207 557,207 557,207 557,207 557,207 555,207 555,207 553,207 553,207 "/>
   <g>
    <polyline class="fil3 str0" points="547,207 547,207 547,206 547,204 548,203 549,201 550,200 552,200 553,199 555,199 556,199 558,200 559,200 560,201 561,203 562,204 563,206 563,207 563,209 562,210 561,212 560,213 559,214 558,215 556,215 555,215 553,215 552,215 550,214 549,213 548,212 547,210 547,209 547,207 "/>
   </g>
   <g>
    <polyline class="fil3 str0" points="553,210 552,210 552,203 555,203 556,203 556,204 557,204 557,204 558,204 558,205 558,205 558,205 558,206 558,206 558,207 557,207 557,207 557,207 556,207 556,207 558,210 556,210 555,207 553,207 553,210 "/>
   </g>
   <g>
    <polyline class="fil3 str0" points="555,207 555,207 555,207 556,207 556,207 556,207 557,206 557,206 557,206 557,205 557,205 557,205 556,205 556,205 556,205 556,205 555,205 555,205 553,205 553,207 555,207 "/>
   </g>
   <g>
    <polyline class="fil3 str0" points="555,214 555,214 556,214 557,213 558,213 559,212 560,211 561,210 561,209 561,207 561,206 561,205 560,203 559,202 558,202 557,201 556,201 555,200 553,201 552,201 551,202 550,202 549,203 549,205 548,206 548,207 548,209 549,210 549,211 550,212 551,213 552,213 553,214 555,214 "/>
   </g>
   <polygon class="fil2" points="446,215 462,215 468,182 468,181 468,179 469,178 469,177 470,175 471,174 471,173 472,172 473,171 474,170 476,169 477,169 479,168 481,167 483,167 485,167 486,167 486,167 487,167 489,152 488,152 486,152 484,153 483,153 482,154 481,154 479,155 478,155 477,156 476,157 475,158 474,159 474,160 473,161 472,162 471,163 473,153 457,153 "/>
   <g>
    <polyline class="fil3 str0" points="446,215 462,215 468,182 468,181 468,179 469,178 469,177 470,175 471,174 471,173 472,172 473,171 474,170 476,169 477,169 479,168 481,167 483,167 485,167 486,167 486,167 487,167 489,152 488,152 486,152 484,153 483,153 482,154 481,154 479,155 478,155 477,156 476,157 475,158 474,159 474,160 473,161 472,162 471,163 473,153 457,153 446,215 "/>
   </g>
   <polygon class="fil2" points="292,215 309,215 309,215 315,182 315,181 315,179 315,178 316,177 316,176 317,175 317,174 318,173 319,172 320,171 322,170 323,170 325,169 326,169 328,168 331,168 331,168 331,168 331,168 332,168 332,168 332,168 332,168 332,168 332,168 333,168 333,166 333,165 333,164 334,162 334,160 335,159 335,158 336,157 337,156 337,155 338,154 338,153 338,153 338,152 338,152 338,152 338,152 337,152 337,152 337,152 336,152 336,152 334,152 332,152 331,153 329,153 328,154 327,154 326,155 325,155 324,156 323,157 322,158 321,159 320,160 319,161 319,162 318,163 320,153 303,153 "/>
   <g>
    <polyline class="fil3 str0" points="292,215 309,215 309,215 315,182 315,181 315,179 315,178 316,177 316,176 317,175 317,174 318,173 319,172 320,171 322,170 323,170 325,169 326,169 328,168 331,168 331,168 331,168 331,168 332,168 332,168 332,168 332,168 332,168 332,168 333,168 333,166 333,165 333,164 334,162 334,160 335,159 335,158 336,157 337,156 337,155 338,154 338,153 338,153 338,152 338,152 338,152 338,152 337,152 337,152 337,152 336,152 336,152 334,152 332,152 331,153 329,153 328,154 327,154 326,155 325,155 324,156 323,157 322,158 321,159 320,160 319,161 319,162 318,163 320,153 303,153 292,215 "/>
   </g>
  </g>
 </g>
</svg>
