<?xml version="1.0" encoding="UTF-8"?>
<!DOCTYPE svg PUBLIC "-//W3C//DTD SVG 1.1//EN" "http://www.w3.org/Graphics/SVG/1.1/DTD/svg11.dtd">
<!-- Creator: CorelDRAW X7 -->
<svg xmlns="http://www.w3.org/2000/svg" xml:space="preserve" width="600px" height="157px" version="1.1" style="shape-rendering:geometricPrecision; text-rendering:geometricPrecision; image-rendering:optimizeQuality; fill-rule:evenodd; clip-rule:evenodd"
viewBox="0 0 600 157"
 xmlns:xlink="http://www.w3.org/1999/xlink">
 <defs>
  <style type="text/css">
   <![CDATA[
    .fil0 {fill:black}
    .fil5 {fill:white}
    .fil2 {fill:url(#id0)}
    .fil1 {fill:url(#id1)}
    .fil3 {fill:url(#id2)}
    .fil4 {fill:url(#id3)}
   ]]>
  </style>
  <linearGradient id="id0" gradientUnits="userSpaceOnUse" x1="112.21" y1="138.109" x2="22.8904" y2="19.0154">
   <stop offset="0" style="stop-opacity:1; stop-color:#90CD3C"/>
   <stop offset="0.54902" style="stop-opacity:1; stop-color:#90CD3C"/>
   <stop offset="1" style="stop-opacity:1; stop-color:#D5EC94"/>
  </linearGradient>
  <linearGradient id="id1" gradientUnits="userSpaceOnUse" x1="126.077" y1="141.915" x2="31.0479" y2="15.2098">
   <stop offset="0" style="stop-opacity:1; stop-color:#FAC709"/>
   <stop offset="0.54902" style="stop-opacity:1; stop-color:#FCD613"/>
   <stop offset="1" style="stop-opacity:1; stop-color:#FEF852"/>
  </linearGradient>
  <linearGradient id="id2" gradientUnits="userSpaceOnUse" x1="110.622" y1="140.546" x2="24.443" y2="25.6404">
   <stop offset="0" style="stop-opacity:1; stop-color:#518904"/>
   <stop offset="0.34902" style="stop-opacity:1; stop-color:#3D6900"/>
   <stop offset="1" style="stop-opacity:1; stop-color:#80BB0A"/>
  </linearGradient>
  <linearGradient id="id3" gradientUnits="userSpaceOnUse" x1="104.737" y1="149.685" x2="30.2907" y2="50.4227">
   <stop offset="0" style="stop-opacity:1; stop-color:#454F5E"/>
   <stop offset="1" style="stop-opacity:1; stop-color:#8396B2"/>
  </linearGradient>
 </defs>
 <g id="Layer_x0020_1">
  <metadata id="CorelCorpID_0Corel-Layer"/>
  <g id="_358951755536">
   <g>
    <path class="fil0" d="M252 101c-7,0 -7,-4 -7,-9 0,-8 14,-8 14,1 0,5 -3,8 -7,8zm13 -24c-3,0 -4,-3 -14,-3 -20,0 -28,16 -21,29 1,2 5,5 7,6l0 1c-2,0 -5,1 -6,2 -3,3 -3,4 -3,8 0,8 13,9 19,9 1,0 1,1 3,1 5,0 13,-1 14,2 1,5 -9,5 -13,5 -5,0 -12,-1 -12,-6l0 -2c-8,0 -14,1 -14,9 0,11 18,13 26,13 10,0 20,-3 25,-10 3,-4 4,-6 4,-11 0,-18 -28,-13 -33,-14 -1,-1 -1,-1 -2,-2 2,-3 6,-1 11,-2 11,-1 20,-6 20,-19 0,-2 -1,-5 -2,-7 -1,-1 -1,-1 -1,-2 7,-1 12,-15 -2,-17 -3,-1 -2,-1 -3,4 -1,4 -3,5 -3,6z"/>
    <path class="fil0" d="M309 101c-4,0 -7,-3 -7,-6l0 -2c0,-9 14,-9 14,0 0,3 0,4 -2,6 -1,1 -3,2 -5,2zm13 -24c-1,0 -2,-1 -3,-1 -16,-7 -34,2 -34,17 0,4 1,8 2,10 2,2 4,5 7,6l0 1c-4,0 -9,3 -9,9 0,4 2,6 5,8 5,2 15,3 22,3 3,0 9,0 9,3 0,6 -18,4 -21,3 -3,-1 -4,-3 -4,-7 -7,0 -14,1 -14,9 0,16 46,19 54,-2 3,-8 -1,-17 -11,-19l-12 -1c-2,0 -4,0 -6,0 -3,0 -4,0 -5,-2 4,-3 6,-1 11,-2 4,0 7,-1 10,-2 5,-3 10,-8 10,-15 0,-9 -2,-8 -3,-11 4,-2 7,-4 7,-9 0,-3 -2,-5 -3,-6 -2,-2 -5,-2 -8,-2 0,3 -2,9 -4,10z"/>
    <path class="fil0" d="M447 91c0,-2 0,-13 0,-16 4,0 10,0 13,2 4,2 5,11 -3,13 -3,1 -7,1 -10,1zm-20 -25l0 57c0,9 15,7 18,5 1,-2 1,-3 2,-6 0,-3 0,-14 0,-16 10,0 18,0 25,-4 7,-4 10,-11 10,-21 0,-4 -1,-8 -3,-11 0,-1 -1,-2 -2,-4 -9,-10 -23,-8 -38,-8 -3,0 -6,0 -8,1 -3,1 -4,4 -4,7z"/>
    <path class="fil0" d="M544 79c0,2 1,6 2,8 2,10 9,39 20,41l-5 9c-1,1 -1,2 -2,3 -2,6 0,11 5,11 8,0 9,1 13,-6 1,-1 3,-6 4,-8 8,-18 13,-33 18,-52 0,-2 1,-3 1,-5l0 -1c0,-2 -1,-3 -2,-4 -3,-1 -7,-1 -10,-1 -8,0 -8,8 -10,18l-6 21c0,-1 -1,-3 -1,-5 -3,-9 -5,-18 -7,-27 -2,-8 -7,-7 -13,-7 -3,0 -7,2 -7,5z"/>
    <path class="fil0" d="M168 85l0 23c0,6 1,12 4,15 6,11 23,8 28,-2l1 -1c0,8 4,9 10,9 3,0 6,0 7,-2 1,-2 2,-5 2,-8l0 -35c0,-9 -4,-10 -11,-10 -10,0 -8,12 -8,19 0,9 1,21 -7,21 -16,0 2,-40 -15,-40 -7,0 -11,1 -11,11z"/>
    <path class="fil0" d="M513 116c-4,0 -8,1 -8,-5 0,-5 7,-6 12,-5 3,1 3,1 3,3 0,4 -3,7 -7,7zm-22 -30c0,4 2,6 5,7 5,-3 8,-3 15,-3 3,0 5,0 7,1 2,1 2,3 2,6 -4,-1 -6,-1 -11,-1 -17,0 -25,12 -20,24 1,3 2,4 4,5 1,2 3,3 5,4 8,2 16,1 22,-5l1 -2c0,3 3,6 5,7 5,2 13,1 15,-7 0,-1 -1,-1 -2,-3 -6,-9 4,-32 -10,-41 -11,-8 -38,-5 -38,8z"/>
    <path class="fil0" d="M397 99c-4,0 -9,-1 -11,-3 1,-5 4,-8 10,-8 3,0 7,2 7,5 0,4 -2,6 -6,6zm-29 3c0,19 12,28 29,28 7,0 20,-2 20,-12 0,-2 -1,-4 -3,-6 0,0 0,0 -1,-1 0,0 0,0 0,0 -1,0 0,0 -1,0 -4,2 -5,4 -12,4 -7,0 -15,-2 -15,-9 8,4 33,6 33,-14 0,-6 -3,-11 -6,-13 -3,-2 -4,-3 -7,-4 -7,-2 -15,-2 -21,1 -2,1 -4,2 -5,3 -7,5 -11,14 -11,23z"/>
    <path class="fil0" d="M343 62l0 60c0,10 14,8 17,5 1,-2 2,-5 2,-8l0 -54c0,-10 -4,-11 -11,-11 -5,0 -8,3 -8,8z"/>
   </g>
   <circle class="fil1" cx="79" cy="79" r="79"/>
   <path class="fil2" d="M79 0c3,0 6,0 9,1 11,50 28,70 47,132 -14,15 -34,24 -56,24 -44,0 -79,-35 -79,-78 0,-44 35,-79 79,-79z"/>
   <path class="fil3" d="M135 133c-14,15 -34,24 -56,24 -44,0 -79,-35 -79,-78 0,-31 17,-57 42,-70 2,48 46,98 93,124z"/>
   <path class="fil4" d="M135 133c-14,15 -34,24 -56,24 -44,0 -79,-35 -79,-78 0,-13 3,-25 9,-36 15,63 57,93 126,90z"/>
   <circle class="fil0" transform="matrix(0.510784 0.229477 -0.29972 0.711669 110.35 91.4059)" r="79"/>
   <path class="fil5" d="M110 91c0,-2 0,-13 0,-16 4,0 10,0 13,2 4,2 5,11 -3,13 -3,1 -7,1 -10,1zm-20 -25l0 57c0,9 15,7 17,5 2,-2 2,-3 3,-6 0,-3 0,-14 0,-16 10,0 18,0 25,-4 7,-4 10,-11 10,-21 0,-4 -1,-8 -3,-11 0,-1 -1,-2 -2,-4 -10,-10 -23,-8 -38,-8 -3,0 -6,0 -9,1 -2,1 -3,4 -3,7z"/>
  </g>
 </g>
</svg>
