<?xml version="1.0" encoding="UTF-8"?>
<!DOCTYPE svg PUBLIC "-//W3C//DTD SVG 1.1//EN" "http://www.w3.org/Graphics/SVG/1.1/DTD/svg11.dtd">
<!-- Creator: CorelDRAW X7 -->
<svg xmlns="http://www.w3.org/2000/svg" xml:space="preserve" width="600px" height="120px" version="1.1" style="shape-rendering:geometricPrecision; text-rendering:geometricPrecision; image-rendering:optimizeQuality; fill-rule:evenodd; clip-rule:evenodd"
viewBox="0 0 600 120"
 xmlns:xlink="http://www.w3.org/1999/xlink">
 <defs>
  <style type="text/css">
   <![CDATA[
    .fil1 {fill:#ED2D25}
    .fil0 {fill:black}
   ]]>
  </style>
 </defs>
 <g id="Layer_x0020_1">
  <metadata id="CorelCorpID_0Corel-Layer"/>
  <g id="_358955182288">
   <path class="fil0" d="M87 96l0 0 -15 -63 -19 0 -16 63 0 0 -17 -63 -20 0 26 85 20 0 16 -64 0 0 16 64 19 0 27 -85 -19 0 -18 63zm123 -65c-2,0 -3,-1 -7,-1 -12,0 -23,10 -25,19l0 0 0 -16 -18 0 0 85 19 0 0 -41c0,-19 10,-29 23,-29 3,0 5,0 8,1l0 -18zm-79 87l19 0 0 -85 -19 0 0 85zm138 -50c-1,-12 -9,-23 -22,-23 -13,0 -22,10 -22,23l44 0zm18 12l-62 0c0,13 7,25 23,25 11,0 17,-5 21,-14l17 0c-4,19 -20,29 -38,29 -27,0 -42,-19 -42,-45 0,-24 16,-45 41,-45 27,0 44,24 40,50zm233 -49c-2,0 -3,-1 -7,-1 -12,0 -23,10 -25,19l-1 0 0 -16 -17 0 0 85 19 0 0 -41c0,-19 10,-29 23,-29 2,0 5,0 8,1l0 -18zm62 44c0,-19 -9,-30 -24,-30 -17,0 -23,16 -23,31 0,15 7,29 23,29 17,0 24,-15 24,-30zm-1 -75l19 0 0 118 -18 0 0 -12 0 0c-5,10 -16,14 -26,14 -27,0 -40,-20 -40,-46 0,-30 18,-44 37,-44 10,0 22,4 28,14l0 0 0 -44zm-145 75c-6,4 -15,4 -23,5 -8,1 -16,4 -16,14 0,9 11,11 18,11 8,0 21,-4 21,-16l0 -14zm23 30c1,0 3,0 5,0l0 13c-3,1 -9,2 -12,2 -8,0 -13,-3 -15,-10 -7,7 -19,10 -29,10 -15,0 -29,-8 -29,-25 0,-21 17,-25 32,-26 14,-3 26,-1 26,-12 0,-10 -10,-12 -18,-12 -10,0 -18,4 -18,13l-19 0c1,-21 20,-28 39,-28 16,0 34,7 34,25l0 44c0,4 1,6 4,6zm-148 -29c0,14 7,29 23,29 11,0 18,-7 20,-19l19 0c-3,22 -17,34 -39,34 -27,0 -41,-19 -41,-44 0,-26 14,-46 42,-46 19,0 36,10 38,31l-19 0c-1,-10 -9,-16 -19,-16 -10,0 -24,5 -24,31z"/>
   <polygon class="fil1" points="131,19 150,19 150,0 131,0 "/>
  </g>
 </g>
</svg>
