<?xml version="1.0" encoding="UTF-8"?>
<!DOCTYPE svg PUBLIC "-//W3C//DTD SVG 1.1//EN" "http://www.w3.org/Graphics/SVG/1.1/DTD/svg11.dtd">
<!-- Creator: CorelDRAW X7 -->
<svg xmlns="http://www.w3.org/2000/svg" xml:space="preserve" width="600px" height="226px" version="1.1" style="shape-rendering:geometricPrecision; text-rendering:geometricPrecision; image-rendering:optimizeQuality; fill-rule:evenodd; clip-rule:evenodd"
viewBox="0 0 600 226"
 xmlns:xlink="http://www.w3.org/1999/xlink">
 <defs>
  <style type="text/css">
   <![CDATA[
    .fil0 {fill:black}
    .fil4 {fill:yellow}
    .fil1 {fill:white}
    .fil3 {fill:#2B2A29;fill-rule:nonzero}
    .fil2 {fill:yellow;fill-rule:nonzero}
    .fil5 {fill:white;fill-rule:nonzero}
   ]]>
  </style>
 </defs>
 <g id="Layer_x0020_1">
  <metadata id="CorelCorpID_0Corel-Layer"/>
  <g id="_359564465376">
   <polygon class="fil0" points="66,0 600,0 541,226 7,226 37,110 18,125 0,139 5,120 19,68 24,48 34,62 46,78 "/>
   <path class="fil1" d="M254 10l334 0 -44 168 -333 0 20 -80 86 0 -18 69 236 0 39 -147 -237 0 -18 70 -85 0 20 -80zm-90 0l86 0 -21 80 -86 0 21 -80zm63 88l-21 80 -86 0 21 -80 86 0zm-154 -88l86 0 -20 80 -87 0 21 -80zm63 88l-20 80 -87 0 21 -80 86 0z"/>
   <path class="fil2" d="M513 48l15 0 -29 109 14 0 29 -109 15 0 4 -18 -43 0 -5 18zm-26 0l23 0 5 -18 -38 0 -33 127 14 0 14 -52 18 0 5 -18 -18 0 10 -39zm-87 79c-5,20 -1,32 13,32 14,0 25,-12 30,-32l17 -66c6,-20 1,-32 -13,-32 -14,0 -24,12 -30,32l-17 66zm32 -67c2,-10 6,-13 11,-13 4,0 6,3 4,13l-18 68c-3,9 -6,13 -11,13 -4,0 -6,-4 -4,-13l18 -68zm-63 1c-10,36 17,41 10,67 -2,9 -6,12 -11,12 -4,0 -6,-3 -4,-12l3 -10 -13 0 -3 9c-5,20 -1,32 13,32 14,0 24,-12 29,-32 10,-36 -16,-41 -10,-67 3,-10 6,-13 11,-13 4,0 6,3 3,13l-1 6 13 0 1 -5c6,-20 2,-32 -12,-32 -14,0 -24,12 -29,32z"/>
   <g>
    <path class="fil1" d="M265 46l16 0 -30 114 15 0 29 -114 16 0 5 -19 -46 0 -5 19zm12 2l-12 0 -3 0 1 -3 5 -19 0 -2 2 0 46 0 3 0 -1 3 -5 19 0 2 -2 0 -14 0 -29 113 0 2 -2 0 -15 0 -4 0 1 -4 29 -111z"/>
    <polygon id="1" class="fil3" points="265,46 281,46 251,160 266,160 295,46 311,46 316,27 270,27 "/>
   </g>
   <g>
    <path class="fil1" d="M193 46l26 0 5 -19 -41 0 -34 133 40 0 5 -19 -26 0 11 -39 20 0 5 -19 -20 0 9 -37zm26 2l-24 0 -8 32 17 0 3 0 -1 3 -5 19 0 2 -2 0 -18 0 -9 34 22 0 3 0 -1 4 -5 19 0 2 -2 0 -40 0 -4 0 1 -4 35 -133 0 -2 2 0 41 0 3 0 -1 3 -5 19 0 2 -2 0z"/>
    <polygon id="1" class="fil3" points="193,46 219,46 224,27 183,27 149,160 189,160 194,141 168,141 179,102 199,102 204,83 184,83 "/>
   </g>
   <g>
    <path class="fil1" d="M108 46c5,0 6,4 4,13l-2 8c-3,10 -7,14 -13,14l-6 0 9 -35 8 0zm-15 54c7,0 8,4 5,16l-3 12c-2,10 -6,13 -11,13l-8 0 10 -41 7 0zm20 -73l-22 0 -35 133 23 0c15,0 25,-11 31,-32l3 -11c3,-14 3,-24 -4,-28 8,-5 13,-13 17,-27l1 -5c5,-20 1,-30 -14,-30zm-3 23c0,-1 -1,-2 -2,-2l-6 0 -7 30 2 0c2,0 4,0 5,-2 2,-2 4,-5 5,-10l2 -7c1,-5 1,-8 1,-9zm-13 54c-1,-1 -2,-2 -4,-2l-5 0 -9 36 5 0c2,0 3,0 5,-2 1,-1 2,-4 4,-9l3 -12c1,-5 2,-9 1,-11zm-6 -80l22 0c9,0 14,3 17,9l0 0c3,6 2,14 -1,25l-1 5c-2,7 -4,13 -7,17 -2,4 -5,7 -8,9 3,3 4,6 4,10 1,5 0,12 -2,19l-3 11c-3,11 -7,19 -12,25 -6,6 -13,9 -21,9l-23 0 -4 0 1 -4 35 -133 1 -2 2 0z"/>
    <path id="1" class="fil3" d="M108 46c5,0 6,4 4,13l-2 8c-3,10 -7,14 -13,14l-6 0 9 -35 8 0zm-15 54c7,0 8,4 5,16l-3 12c-2,10 -6,13 -11,13l-8 0 10 -41 7 0zm20 -73l-22 0 -35 133 23 0c15,0 25,-11 31,-32l3 -11c3,-14 3,-24 -4,-28 8,-5 13,-13 17,-27l1 -5c5,-20 1,-30 -14,-30z"/>
   </g>
   <polygon class="fil4" points="27,68 46,94 13,120 "/>
   <polygon class="fil4" points="350,68 318,94 337,120 "/>
   <path class="fil5" d="M289 206l1 -3 9 0 -2 6c-2,2 -4,3 -6,4 -2,1 -4,1 -7,1 -4,0 -7,-1 -9,-3 -1,-2 -2,-4 -1,-8 1,-3 3,-6 6,-8 3,-2 6,-3 10,-3 2,0 4,1 6,1 2,1 3,3 4,4l-3 2c-1,-1 -2,-2 -3,-3 -1,0 -3,-1 -5,-1 -3,0 -5,1 -7,3 -3,1 -4,3 -5,5 0,3 0,4 1,6 2,2 4,2 7,2 2,0 3,0 5,-1 2,0 3,-1 4,-2l1 -2 -6 0zm42 0l8 0 -2 -8 -6 8zm-10 8l16 -21 2 0 6 21 -4 0 -1 -6 -11 0 -4 6 -4 0zm50 0l6 -21 2 0 6 12 11 -12 3 0 -5 21 -4 0 4 -15 -11 11 -5 -11 -4 15 -3 0zm53 0l6 -21 3 0 -5 21 -4 0zm34 0l6 -21 2 0 9 14 4 -14 3 0 -5 21 -2 0 -10 -15 -3 15 -4 0zm65 -8l1 -3 9 0 -2 6c-1,2 -3,3 -6,4 -2,1 -4,1 -7,1 -4,0 -6,-1 -8,-3 -2,-2 -3,-4 -2,-8 1,-3 3,-6 6,-8 3,-2 6,-3 10,-3 3,0 5,1 6,1 2,1 3,3 4,4l-3 2c-1,-1 -2,-2 -3,-3 -1,0 -3,-1 -5,-1 -3,0 -5,1 -7,3 -3,1 -4,3 -5,5 0,3 0,4 2,6 1,2 3,2 6,2 2,0 4,0 5,-1 2,0 3,-1 4,-2l1 -2 -6 0z"/>
   <path class="fil4" d="M112 189c4,0 7,4 6,8 0,1 0,1 0,1 4,1 6,4 5,8 -1,5 -6,8 -10,8 -3,0 -6,-2 -6,-5 -2,3 -6,5 -9,5 -4,0 -7,-3 -6,-8 1,-4 5,-7 10,-8 0,0 0,0 0,-1 1,-4 6,-8 10,-8z"/>
   <polygon class="fil4" points="108,219 106,211 101,219 "/>
   <path class="fil4" d="M240 189c2,0 12,10 10,17 -1,5 -5,8 -10,8 -3,0 -5,-2 -6,-5 -2,3 -5,5 -8,5 -5,0 -8,-3 -6,-8 2,-8 17,-17 20,-17z"/>
   <polygon class="fil4" points="235,219 234,211 228,219 "/>
   <path class="fil4" d="M169 217c-4,0 -14,-10 -12,-19 1,-4 6,-8 11,-8 4,0 6,2 6,5 3,-3 6,-5 10,-5 4,0 7,4 6,8 -2,10 -18,19 -21,19z"/>
   <path class="fil4" d="M51 189c3,6 6,10 11,15 -7,4 -12,8 -18,14 -3,-6 -6,-10 -11,-14 7,-5 12,-9 18,-15z"/>
  </g>
 </g>
</svg>
