<?xml version="1.0" encoding="UTF-8"?>
<!DOCTYPE svg PUBLIC "-//W3C//DTD SVG 1.1//EN" "http://www.w3.org/Graphics/SVG/1.1/DTD/svg11.dtd">
<!-- Creator: CorelDRAW X7 -->
<svg xmlns="http://www.w3.org/2000/svg" xml:space="preserve" width="600px" height="245px" version="1.1" style="shape-rendering:geometricPrecision; text-rendering:geometricPrecision; image-rendering:optimizeQuality; fill-rule:evenodd; clip-rule:evenodd"
viewBox="0 0 576 235"
 xmlns:xlink="http://www.w3.org/1999/xlink">
 <defs>
  <style type="text/css">
   <![CDATA[
    .fil0 {fill:#145C86}
    .fil1 {fill:#E6E6E6}
    .fil4 {fill:white}
    .fil6 {fill:url(#id0)}
    .fil2 {fill:url(#id1)}
    .fil5 {fill:url(#id2)}
    .fil3 {fill:url(#id3);fill-rule:nonzero}
   ]]>
  </style>
  <linearGradient id="id0" gradientUnits="userSpaceOnUse" x1="178.1" y1="194.018" x2="160.652" y2="7.90971">
   <stop offset="0" style="stop-opacity:1; stop-color:#00619E"/>
   <stop offset="0.188235" style="stop-opacity:1; stop-color:#0B8ACD"/>
   <stop offset="0.521569" style="stop-opacity:1; stop-color:#61D6FB"/>
   <stop offset="1" style="stop-opacity:1; stop-color:#C7E0F4"/>
  </linearGradient>
  <linearGradient id="id1" gradientUnits="userSpaceOnUse" xlink:href="#id0" x1="90.777" y1="200.008" x2="72.2061" y2="1.91895">
  </linearGradient>
  <linearGradient id="id2" gradientUnits="userSpaceOnUse" xlink:href="#id0" x1="546.044" y1="70.0251" x2="551.633" y2="39.0415">
  </linearGradient>
  <linearGradient id="id3" gradientUnits="userSpaceOnUse" x1="389.002" y1="235.081" x2="389.002" y2="84.1913">
   <stop offset="0" style="stop-opacity:1; stop-color:#58595B"/>
   <stop offset="0.501961" style="stop-opacity:1; stop-color:#B3B5B7"/>
   <stop offset="1" style="stop-opacity:1; stop-color:#595A5C"/>
  </linearGradient>
 </defs>
 <g id="Layer_x0020_1">
  <metadata id="CorelCorpID_0Corel-Layer"/>
  <g id="_358952184576">
   <ellipse class="fil0" transform="matrix(0.995455 -0.0952372 0.0952372 0.995455 550.303 60.3905)" rx="20" ry="15"/>
   <ellipse class="fil1" transform="matrix(0.995455 -0.0952372 0.0952372 0.995455 548.839 56.7297)" rx="20" ry="15"/>
   <polygon class="fil2" points="0,174 26,38 163,0 158,202 "/>
   <g>
    <path class="fil3" d="M291 156l-1 31 -88 0 0 -4 67 -89 -34 0c-6,0 -11,1 -13,2 -2,1 -4,2 -5,5 -2,4 -4,8 -4,14l-4 0 0 -28 84 0 0 4 -67 89 36 0c8,0 13,-1 16,-2 2,-2 5,-4 6,-7 1,-2 2,-7 3,-15l4 0zm100 -69l0 61c0,11 0,18 1,21 0,2 1,4 2,5 2,1 3,1 5,1 2,0 4,0 7,-1l2 4 -30 12 -5 0 0 -21c-9,9 -15,15 -20,17 -4,3 -9,4 -14,4 -5,0 -10,-2 -14,-5 -5,-3 -7,-7 -9,-12 -2,-6 -2,-13 -2,-22l0 -45c0,-4 -1,-8 -2,-9 -1,-2 -2,-4 -4,-5 -2,-1 -6,-1 -11,-1l0 -4 35 0 0 67c0,9 1,15 5,18 3,3 7,5 11,5 3,0 7,-1 11,-3 4,-2 9,-6 14,-12l0 -56c0,-6 -1,-10 -3,-12 -2,-2 -7,-3 -13,-3l0 -4 34 0zm51 63c-7,-3 -11,-7 -14,-12 -4,-5 -5,-11 -5,-18 0,-10 3,-18 11,-25 7,-7 17,-11 28,-11 10,0 18,2 25,7l21 0c3,0 5,0 5,0 1,1 1,1 1,1 1,1 1,2 1,4 0,2 0,3 0,4 -1,0 -1,0 -2,1 0,0 -2,0 -5,0l-13 0c4,5 6,12 6,20 0,9 -3,17 -11,24 -7,6 -16,10 -28,10 -5,0 -10,-1 -15,-3 -3,3 -5,6 -7,8 -1,2 -1,4 -1,5 0,1 0,2 1,4 2,1 4,2 7,2 3,0 8,1 16,1 15,0 24,1 29,2 7,0 12,3 16,7 4,4 6,9 6,15 0,8 -4,16 -11,23 -12,11 -27,16 -45,16 -14,0 -26,-3 -35,-9 -6,-4 -8,-8 -8,-12 0,-1 0,-3 1,-5 1,-3 4,-6 7,-11 1,-1 5,-5 12,-12 -4,-2 -7,-4 -8,-6 -2,-2 -3,-4 -3,-6 0,-3 1,-6 3,-9 2,-4 7,-8 15,-15zm18 -60c-5,0 -9,2 -13,6 -4,4 -5,11 -5,20 0,11 2,20 7,26 4,5 8,7 14,7 6,0 10,-2 14,-6 3,-4 5,-10 5,-19 0,-12 -2,-21 -7,-27 -4,-5 -9,-7 -15,-7zm-19 97c-4,4 -6,7 -8,10 -2,3 -3,6 -3,9 0,4 2,7 7,9 7,5 17,7 31,7 13,0 23,-2 29,-7 6,-5 9,-9 9,-15 0,-4 -2,-6 -6,-8 -3,-1 -11,-2 -22,-3 -16,0 -29,-1 -37,-2zm120 -103l0 80c0,7 0,11 1,13 1,2 2,3 4,4 2,1 5,2 10,2l0 4 -48 0 0 -4c4,0 8,-1 9,-1 2,-1 3,-3 4,-5 1,-2 2,-6 2,-13l0 -38c0,-11 -1,-18 -1,-21 -1,-2 -1,-4 -3,-5 -1,-1 -2,-1 -4,-1 -2,0 -5,0 -7,1l-2 -4 30 -12 5 0z"/>
    <path id="1" class="fil1" d="M291 156l-1 31 -88 0 0 -4 67 -89 -34 0c-6,0 -11,1 -13,2 -2,1 -4,2 -5,5 -2,4 -4,8 -4,14l-4 0 0 -28 84 0 0 4 -67 89 36 0c8,0 13,-1 16,-2 2,-2 5,-4 6,-7 1,-2 2,-7 3,-15l4 0zm100 -69l0 61c0,11 0,18 1,21 0,2 1,4 2,5 2,1 3,1 5,1 2,0 4,0 7,-1l2 4 -30 12 -5 0 0 -21c-9,9 -15,15 -20,17 -4,3 -9,4 -14,4 -5,0 -10,-2 -14,-5 -5,-3 -7,-7 -9,-12 -2,-6 -2,-13 -2,-22l0 -45c0,-4 -1,-8 -2,-9 -1,-2 -2,-4 -4,-5 -2,-1 -6,-1 -11,-1l0 -4 35 0 0 67c0,9 1,15 5,18 3,3 7,5 11,5 3,0 7,-1 11,-3 4,-2 9,-6 14,-12l0 -56c0,-6 -1,-10 -3,-12 -2,-2 -7,-3 -13,-3l0 -4 34 0zm69 3c-5,0 -9,2 -13,6 -4,4 -5,11 -5,20 0,11 2,20 7,26 4,5 8,7 14,7 6,0 10,-2 14,-6 3,-4 5,-10 5,-19 0,-12 -2,-21 -7,-27 -4,-5 -9,-7 -15,-7zm-19 97c-4,4 -6,7 -8,10 -2,3 -3,6 -3,9 0,4 2,7 7,9 7,5 17,7 31,7 13,0 23,-2 29,-7 6,-5 9,-9 9,-15 0,-4 -2,-6 -6,-8 -3,-1 -11,-2 -22,-3 -16,0 -29,-1 -37,-2zm120 -103l0 80c0,7 0,11 1,13 1,2 2,3 4,4 2,1 5,2 10,2l0 4 -48 0 0 -4c4,0 8,-1 9,-1 2,-1 3,-3 4,-5 1,-2 2,-6 2,-13l0 -38c0,-11 -1,-18 -1,-21 -1,-2 -1,-4 -3,-5 -1,-1 -2,-1 -4,-1 -2,0 -5,0 -7,1l-2 -4 30 -12 5 0zm-272 102l1 -29 -2 0c0,4 -1,6 -1,9 -1,2 -1,4 -2,5l0 0c-1,2 -2,3 -3,5 -1,1 -2,2 -4,2l0 0c-1,1 -3,2 -6,2 -3,0 -6,0 -10,0l-36 0 0 0c0,0 0,0 0,0 -1,0 -1,-1 -1,-1l67 -88 0 -3 -82 0 0 26 2 0c0,-3 1,-5 1,-7 1,-2 2,-5 3,-6l0 0 0 0c0,-2 1,-3 2,-4 1,-1 2,-2 3,-2l0 0c2,-1 3,-1 6,-1 2,0 5,0 8,0l34 0 0 0c0,0 0,0 0,0 1,0 1,1 0,1l-66 88 0 3 86 0zm101 -38l0 -60 -32 0 0 2c3,0 5,1 7,1 3,1 4,2 5,3l0 0c3,2 4,6 4,12l0 56 0 0c0,1 0,1 0,1 -3,3 -6,5 -8,7 -2,2 -5,4 -7,5l0 0c-2,1 -4,1 -6,2l0 0 0 0c-1,0 -3,1 -5,1 -2,0 -4,-1 -6,-2 -3,0 -4,-1 -6,-3l0 0c-2,-2 -3,-4 -4,-7 -1,-3 -1,-7 -1,-12l0 -66 -33 0 0 2c2,0 4,0 5,0 2,1 4,1 5,2l0 0c1,0 2,1 3,2 1,0 1,1 2,2l0 0 0 0c0,1 1,3 1,4 0,2 1,4 1,6l0 45c0,5 0,9 0,12 1,4 1,7 2,9 1,3 2,5 3,7 1,2 3,4 5,5l0 0c2,2 4,3 7,4 2,1 4,1 7,1 3,0 5,0 7,-1 3,-1 5,-1 7,-3 2,-1 5,-3 8,-6 3,-2 7,-6 11,-11 0,0 1,0 1,0 0,0 1,0 1,1l0 20 4 0 29 -12 -1 -2c-1,0 -3,1 -4,1 -1,0 -2,0 -3,0 -1,0 -2,0 -3,0 -1,0 -1,-1 -2,-1l0 0c-1,-1 -1,-2 -2,-3 0,-1 -1,-2 -1,-3l0 0c0,-2 -1,-4 -1,-8 0,-3 0,-8 0,-13zm44 -4c2,2 5,4 8,6m-14 -13c2,3 4,5 6,7m-9 -15c1,3 2,6 3,8m-4 -17c0,3 0,6 1,9m1 -22c-2,4 -2,8 -2,13m10 -24c-3,3 -6,7 -8,11m8 -11l0 0m13 -8c-5,1 -9,4 -13,8l0 0m28 -11c-5,0 -11,1 -15,3m28 -1c-4,-1 -8,-2 -13,-2m24 7c-3,-2 -7,-4 -11,-5m12 5c0,0 0,0 -1,0m22 0l-21 0 0 0m25 0c-1,0 -2,0 -4,0m5 0c0,0 -1,0 -1,0m1 0l0 0m0 0c0,0 0,0 0,0l0 0m1 1c0,0 0,-1 -1,-1m1 1c0,0 0,0 0,0m0 1c0,-1 0,-1 0,-1m0 3c0,-1 0,-2 0,-2m0 4c0,-1 0,-1 0,-2m0 3c0,0 0,0 0,-1l0 0m0 1c0,0 0,0 0,0m-1 1c0,0 0,0 1,-1m-1 1l0 0m-1 0c0,0 1,0 1,0m-5 0c2,0 3,0 4,0m-17 0l13 0m-14 1c0,-1 0,-1 1,-1m4 10c-1,-3 -3,-6 -5,-9m6 20c0,-4 0,-8 -1,-11m-1 23c1,-3 2,-8 2,-12m-10 23c3,-3 6,-7 8,-11m-20 18c4,-1 8,-4 12,-7m-28 10c6,0 11,-1 16,-3m-23 2c2,1 4,1 7,1m-15 -2c3,0 5,1 8,1m-9 -1c0,0 1,-1 1,0m-5 4c1,-1 3,-3 4,-4m-6 7c0,-1 1,-2 2,-3m-2 3l0 0m-2 3c1,-1 1,-2 2,-3l0 0m-2 6c0,-1 0,-2 0,-3m0 5c0,0 0,-1 0,-2m2 4c-1,0 -1,-1 -2,-2m5 4c-1,0 -2,-1 -3,-2m7 3c-1,0 -3,-1 -4,-1m4 1l0 0m6 0c-3,0 -5,0 -6,0m16 1c-4,0 -7,0 -10,-1m10 1l0 0m18 1c-5,-1 -11,-1 -18,-1l0 0m29 1c-3,0 -6,0 -11,0m11 0l0 0m9 3c-3,-1 -6,-2 -9,-3l0 0m15 8c-2,-2 -4,-4 -6,-5m11 11c-1,-2 -3,-4 -5,-6m6 14c0,-3 0,-5 -1,-8m-2 20c2,-4 3,-8 3,-12m-11 23c4,-4 6,-8 8,-11m-27 22c7,-2 13,-6 19,-11m-44 15c9,0 17,-1 25,-4m-44 2c6,1 12,2 19,2m-35 -9c5,3 10,5 16,7m-22 -12c2,1 4,3 6,5l0 0m-7 -11c0,2 0,4 1,6m-1 -8c0,1 0,1 0,2m1 -5c-1,1 -1,2 -1,3m1 -3l0 0m2 -4c-1,2 -2,3 -2,4m7 -11c-2,3 -3,5 -5,7m5 -7l0 0m3 -3c-2,2 -3,3 -3,3l0 0m11 -11c-3,3 -6,6 -8,8m8 -10c0,0 0,0 0,0 1,1 1,1 0,2m-5 -5c2,1 3,2 5,3m-8 -6c1,1 2,2 3,3m-4 -5c0,1 1,2 1,2m-2 -5c0,1 0,2 1,3m0 -7c-1,1 -1,3 -1,4m3 -9c-1,2 -2,4 -2,5m2 -5l0 0m5 -6c-2,3 -4,5 -5,6m14 -14c-4,3 -7,6 -9,8m9 -9c1,0 0,1 0,1m11 -61c2,-1 5,-1 7,-1 3,0 6,0 9,2 2,1 4,3 6,5l0 0c3,3 5,7 6,12 1,5 2,10 2,16 0,4 0,8 -1,11 -1,4 -3,7 -4,9 -2,2 -4,3 -7,5l0 0 0 0c-2,1 -5,1 -8,1 -3,0 -6,0 -8,-2 -3,-1 -5,-3 -7,-5l0 0c-2,-4 -4,-7 -5,-12 -2,-5 -2,-10 -2,-15 0,-5 0,-9 1,-12 1,-4 2,-6 4,-9 2,-2 4,-4 7,-5zm-18 102c2,-2 3,-4 5,-6l0 0c0,0 0,0 1,0 4,1 9,1 16,2 6,0 13,0 21,0 6,1 10,1 14,1 4,1 7,2 9,2l0 0 0 0c2,1 3,2 4,4 1,1 2,3 2,5 0,3 -1,6 -3,8 -1,3 -4,5 -7,8l0 0c-3,2 -7,4 -12,5 -5,1 -11,2 -17,2 -7,0 -13,-1 -18,-2 -6,-1 -10,-3 -14,-5l0 0 0 0c-2,-1 -4,-3 -5,-5 -1,-1 -2,-3 -2,-5 0,-1 1,-3 1,-4 0,-2 1,-4 2,-5l0 0c1,-2 2,-4 3,-5zm125 -28l0 -79 -4 0 -29 12 1 2c1,0 2,0 3,-1 2,0 3,0 4,0 1,0 2,0 3,0 1,1 1,1 2,2l0 0c1,0 1,1 2,2 0,1 0,2 1,3 0,0 0,0 0,0 0,1 0,4 0,8 1,3 1,8 1,13l0 38c0,4 0,6 -1,8 0,2 0,4 -1,5 0,0 0,0 0,0 0,1 -1,2 -2,3 0,1 -1,2 -2,2l0 0c-1,1 -2,1 -4,1 -2,1 -3,1 -5,1l0 2 46 0 0 -2c-2,0 -4,0 -5,-1 -2,0 -3,0 -4,-1 -1,0 -2,-1 -3,-2 -1,-1 -1,-2 -2,-3l0 0c0,-1 -1,-3 -1,-5 0,-2 0,-4 0,-8z"/>
   </g>
   <path class="fil0" d="M71 49c-1,9 -2,17 -3,25 -1,9 -1,17 -2,25 5,0 11,0 16,-1 6,0 11,0 17,-1 8,0 14,-2 17,-4 4,-4 6,-10 7,-18 2,0 3,-1 4,-1 0,9 -1,18 -1,26 -1,9 -1,17 -2,26 -1,0 -2,0 -4,0 0,-7 -1,-12 -2,-14 -1,-2 -3,-4 -6,-5 -3,-2 -8,-2 -14,-2 -5,0 -11,0 -16,1 -6,0 -11,0 -17,0 -1,7 -1,14 -2,21 -1,7 -1,14 -2,21 -1,6 -1,9 0,10 0,2 1,3 3,4 1,0 4,1 8,2 9,1 18,2 26,3 9,1 15,1 19,0 4,0 8,-2 12,-5 5,-4 10,-11 15,-20 2,0 3,0 5,0 -3,6 -5,13 -8,19 -2,6 -5,12 -7,19 -20,-3 -40,-6 -60,-9 -19,-3 -39,-5 -59,-8 0,-1 0,-2 0,-3 2,0 4,0 6,1 3,0 7,0 10,-1 3,-1 5,-2 6,-4 1,-1 2,-5 2,-11 2,-13 3,-26 5,-39 1,-13 3,-25 4,-38 1,-8 1,-12 -1,-14 -2,-1 -6,-2 -12,0 -2,0 -4,1 -5,1 0,-1 0,-2 0,-3 19,-4 37,-9 56,-13 18,-4 37,-9 56,-13 0,11 0,22 0,34 -2,0 -3,0 -5,0 -1,-8 -2,-13 -4,-15 -1,-3 -4,-5 -7,-6 -3,0 -8,0 -16,2 -6,1 -13,3 -19,4 -7,1 -14,3 -20,4z"/>
   <path class="fil4" d="M68 47c-1,8 -2,16 -3,25 -1,8 -1,16 -2,25 5,-1 11,-1 16,-1 6,-1 11,-1 17,-1 8,-1 14,-2 17,-5 4,-3 6,-9 7,-18 2,0 3,0 4,0 0,8 -1,17 -1,26 -1,8 -1,17 -2,26 -1,0 -2,0 -4,-1 0,-7 -1,-11 -2,-13 -1,-3 -3,-5 -6,-6 -3,-1 -8,-2 -14,-2 -5,1 -11,1 -16,1 -6,0 -11,0 -17,1 -1,7 -1,14 -2,21 -1,6 -1,13 -2,20 -1,6 -1,9 0,11 0,1 1,2 3,3 1,1 4,2 8,2 9,1 18,2 26,3 9,1 15,2 19,1 4,-1 8,-3 12,-6 5,-4 10,-11 15,-20 2,0 4,0 5,0 -2,7 -5,13 -7,19 -3,7 -5,13 -8,19 -20,-3 -40,-6 -60,-8 -19,-3 -39,-6 -59,-9 0,-1 0,-2 0,-3 2,1 4,1 6,1 3,0 7,0 10,-1 3,0 5,-1 6,-3 1,-2 2,-6 2,-12 2,-12 3,-25 5,-38 1,-13 3,-26 4,-39 1,-7 1,-12 -1,-13 -2,-2 -6,-2 -12,-1 -2,1 -4,1 -5,1 0,-1 0,-2 0,-3 19,-4 37,-8 56,-13 19,-4 37,-8 56,-12 0,11 0,22 0,33 -2,0 -3,1 -5,1 -1,-8 -2,-13 -4,-16 -1,-3 -4,-4 -7,-5 -3,-1 -8,0 -15,1 -7,2 -14,3 -20,4 -7,2 -14,3 -20,5z"/>
   <path class="fil5" d="M547 40c11,-1 21,4 22,13 1,8 -8,15 -19,16 -11,1 -20,-4 -21,-13 -1,-8 7,-15 18,-16z"/>
   <polygon class="fil6" points="158,202 163,0 181,26 179,190 "/>
  </g>
 </g>
</svg>
