<?xml version="1.0" encoding="UTF-8"?>
<!DOCTYPE svg PUBLIC "-//W3C//DTD SVG 1.1//EN" "http://www.w3.org/Graphics/SVG/1.1/DTD/svg11.dtd">
<!-- Creator: CorelDRAW X7 -->
<svg xmlns="http://www.w3.org/2000/svg" xml:space="preserve" width="600px" height="222px" version="1.1" style="shape-rendering:geometricPrecision; text-rendering:geometricPrecision; image-rendering:optimizeQuality; fill-rule:evenodd; clip-rule:evenodd"
viewBox="0 0 600 222"
 xmlns:xlink="http://www.w3.org/1999/xlink">
 <defs>
  <style type="text/css">
   <![CDATA[
    .fil1 {fill:url(#id0);fill-rule:nonzero}
    .fil0 {fill:url(#id1);fill-rule:nonzero}
   ]]>
  </style>
  <linearGradient id="id0" gradientUnits="userSpaceOnUse" x1="149.043" y1="178.09" x2="149.043" y2="47.1785">
   <stop offset="0" style="stop-opacity:1; stop-color:#353536"/>
   <stop offset="0.631373" style="stop-opacity:1; stop-color:#B0B2B3"/>
   <stop offset="1" style="stop-opacity:1; stop-color:#8A8B8D"/>
  </linearGradient>
  <linearGradient id="id1" gradientUnits="userSpaceOnUse" x1="458.231" y1="221.979" x2="458.231" y2="0">
   <stop offset="0" style="stop-opacity:1; stop-color:#557D2B"/>
   <stop offset="0.6" style="stop-opacity:1; stop-color:#659524"/>
   <stop offset="0.309804" style="stop-opacity:1; stop-color:#557D2B"/>
   <stop offset="0.6" style="stop-opacity:1; stop-color:#9AC13A"/>
   <stop offset="0.709804" style="stop-opacity:1; stop-color:#76AD1C"/>
   <stop offset="1" style="stop-opacity:1; stop-color:#76AD1C"/>
  </linearGradient>
 </defs>
 <g id="Layer_x0020_1">
  <metadata id="CorelCorpID_0Corel-Layer"/>
  <g id="_359090103376">
   <path class="fil0" d="M514 47l86 0 0 25 -30 0 0 106 -26 0 0 -106 -30 0 0 -25zm-111 0l23 0 51 80 0 -80 26 0 0 131 -23 0 -51 -80 0 80 -26 0 0 -131zm-82 0l68 0 0 25 -60 0 0 28 51 0 0 25 -51 0 0 28 60 0 0 25 -68 0 0 44 -5 0 0 -222 5 0 0 47z"/>
   <path class="fil1" d="M114 47l86 0 0 25 -59 0 0 28 51 0 0 25 -51 0 0 28 59 0 0 25 -86 0 0 -131zm-114 0l24 0 50 80 0 -80 26 0 0 131 -23 0 -51 -80 0 80 -26 0 0 -131zm212 0l86 0 0 25 -30 0 0 106 -26 0 0 -106 -30 0 0 -25z"/>
  </g>
 </g>
</svg>
