<?xml version="1.0" encoding="UTF-8"?>
<!DOCTYPE svg PUBLIC "-//W3C//DTD SVG 1.1//EN" "http://www.w3.org/Graphics/SVG/1.1/DTD/svg11.dtd">
<!-- Creator: CorelDRAW X7 -->
<svg xmlns="http://www.w3.org/2000/svg" xml:space="preserve" width="600px" height="138px" version="1.1" style="shape-rendering:geometricPrecision; text-rendering:geometricPrecision; image-rendering:optimizeQuality; fill-rule:evenodd; clip-rule:evenodd"
viewBox="0 0 600 138"
 xmlns:xlink="http://www.w3.org/1999/xlink">
 <defs>
  <style type="text/css">
   <![CDATA[
    .fil4 {fill:none}
    .fil53 {fill:none;fill-rule:nonzero}
    .fil9 {fill:#FEFEFE}
    .fil22 {fill:#EBECEC}
    .fil24 {fill:#9D9E9E}
    .fil23 {fill:#898989}
    .fil7 {fill:#FFFBDB}
    .fil8 {fill:#FFF7B2}
    .fil13 {fill:#FFF383}
    .fil3 {fill:#FFED00}
    .fil49 {fill:#877D61}
    .fil36 {fill:#FFE598}
    .fil48 {fill:#ECD58E}
    .fil50 {fill:#9B8F62}
    .fil34 {fill:#FFE166}
    .fil35 {fill:#FFDE23}
    .fil31 {fill:#FFDD00}
    .fil26 {fill:#FECC00}
    .fil52 {fill:#FBBB00}
    .fil51 {fill:#C18349}
    .fil37 {fill:#C47B44}
    .fil29 {fill:#BA553F}
    .fil10 {fill:#C88517}
    .fil25 {fill:#C58C14}
    .fil1 {fill:#B62A22}
    .fil33 {fill:#BB6800}
    .fil6 {fill:#BB8149}
    .fil20 {fill:#FEFEFE;fill-rule:nonzero}
    .fil18 {fill:#5B5B5B;fill-rule:nonzero}
    .fil16 {fill:#434242;fill-rule:nonzero}
    .fil54 {fill:#2B2A29;fill-rule:nonzero}
    .fil15 {fill:#FFF7B2;fill-rule:nonzero}
    .fil42 {fill:#423F3D;fill-rule:nonzero}
    .fil44 {fill:#5A554D;fill-rule:nonzero}
    .fil46 {fill:#FFE598;fill-rule:nonzero}
    .fil41 {fill:#FFDE23;fill-rule:nonzero}
    .fil27 {fill:#FFE497;fill-rule:nonzero}
    .fil43 {fill:#BA553F;fill-rule:nonzero}
    .fil17 {fill:#B62A22;fill-rule:nonzero}
    .fil40 {fill:#BB6800;fill-rule:nonzero}
    .fil14 {fill:#BB8149;fill-rule:nonzero}
    .fil5 {fill:url(#id10)}
    .fil32 {fill:url(#id11)}
    .fil12 {fill:url(#id12)}
    .fil39 {fill:url(#id13)}
    .fil30 {fill:url(#id14)}
    .fil2 {fill:url(#id15)}
    .fil38 {fill:url(#id16)}
    .fil11 {fill:url(#id17)}
    .fil0 {fill:url(#id18)}
    .fil28 {fill:url(#id19)}
    .fil19 {fill:url(#id20);fill-rule:nonzero}
    .fil45 {fill:url(#id21);fill-rule:nonzero}
    .fil21 {fill:url(#id22);fill-rule:nonzero}
    .fil47 {fill:url(#id23);fill-rule:nonzero}
   ]]>
  </style>
    <clipPath id="id0">
     <path d="M68 3c37,0 67,30 67,67 0,38 -30,68 -67,68 -38,0 -68,-30 -68,-68 0,-37 30,-67 68,-67z"/>
    </clipPath>
    <clipPath id="id1">
     <path d="M68 4c36,0 66,29 66,66 0,37 -30,67 -66,67 -37,0 -67,-30 -67,-67 0,-37 30,-66 67,-66zm0 0c36,0 66,30 66,66 0,37 -30,67 -66,67 -37,0 -67,-30 -67,-67 0,-36 30,-66 67,-66z"/>
    </clipPath>
    <clipPath id="id2">
     <path d="M68 8c34,0 62,28 62,62 0,35 -28,63 -62,63 -35,0 -63,-28 -63,-63 0,-34 28,-62 63,-62z"/>
    </clipPath>
    <clipPath id="id3" style="clip-rule:nonzero">
     <path d="M48 46l6 0 0 -8 9 0 0 8 5 0 0 -8 9 0 0 8c1,0 2,0 3,0 2,1 4,1 5,2 2,1 4,3 5,5 1,1 1,3 1,6 0,2 0,4 -2,6 -1,2 -3,4 -5,5 3,1 6,2 7,5 2,2 3,4 3,7 0,3 0,5 -2,7 -1,2 -2,4 -4,5 -3,2 -5,3 -8,3 -1,0 -2,0 -3,0l0 8 -9 0 0 -8 -2 0 -3 0 0 8 -9 0 0 -8 -6 0 0 -51zm11 8l0 12 7 0c5,0 7,0 8,0 2,0 4,-1 5,-2 1,-1 1,-2 1,-4 0,-1 0,-3 -1,-4 -1,-1 -2,-1 -4,-2 -1,0 -4,0 -10,0l-6 0zm0 21l0 14 10 0c4,0 7,-1 8,-1 2,0 3,-1 4,-2 1,-1 2,-2 2,-4 0,-2 -1,-3 -2,-4 -1,-1 -2,-2 -3,-2 -2,-1 -5,-1 -10,-1l-9 0z"/>
    </clipPath>
      <clipPath id="id4">
       <path d="M48 46l6 0 0 -8 9 0 0 8 5 0 0 -8 9 0 0 8c1,0 2,0 3,0 2,1 4,1 5,2 2,1 4,3 5,5 1,1 1,3 1,6 0,2 0,4 -2,6 -1,2 -3,4 -5,5 3,1 6,2 7,5 2,2 3,4 3,7 0,3 0,5 -2,7 -1,2 -2,4 -4,5 -3,2 -5,3 -8,3 -1,0 -2,0 -3,0l0 8 -9 0 0 -8 -2 0 -3 0 0 8 -9 0 0 -8 -6 0 0 -51zm11 8l0 12 7 0c5,0 7,0 8,0 2,0 4,-1 5,-2 1,-1 1,-2 1,-4 0,-1 0,-3 -1,-4 -1,-1 -2,-1 -4,-2 -1,0 -4,0 -10,0l-6 0zm0 21l0 14 10 0c4,0 7,-1 8,-1 2,0 3,-1 4,-2 1,-1 2,-2 2,-4 0,-2 -1,-3 -2,-4 -1,-1 -2,-2 -3,-2 -2,-1 -5,-1 -10,-1l-9 0z"/>
      </clipPath>
      <clipPath id="id5">
       <path d="M48 46l6 0 0 -8 9 0 0 8 5 0 0 -8 9 0 0 8c1,0 2,0 3,0 2,1 4,1 5,2 2,1 4,3 5,5 1,1 1,3 1,6 0,2 0,4 -2,6 -1,2 -3,4 -5,5 3,1 6,2 7,5 2,2 3,4 3,7 0,3 0,5 -2,7 -1,2 -2,4 -4,5 -3,2 -5,3 -8,3 -1,0 -2,0 -3,0l0 8 -9 0 0 -8 -2 0 -3 0 0 8 -9 0 0 -8 -6 0 0 -51zm11 8l0 12 7 0c5,0 7,0 8,0 2,0 4,-1 5,-2 1,-1 1,-2 1,-4 0,-1 0,-3 -1,-4 -1,-1 -2,-1 -4,-2 -1,0 -4,0 -10,0l-6 0zm0 21l0 14 10 0c4,0 7,-1 8,-1 2,0 3,-1 4,-2 1,-1 2,-2 2,-4 0,-2 -1,-3 -2,-4 -1,-1 -2,-2 -3,-2 -2,-1 -5,-1 -10,-1l-9 0z"/>
      </clipPath>
      <clipPath id="id6">
      </clipPath>
      <clipPath id="id7">
       <path d="M48 46l6 0 0 -8 9 0 0 8 5 0 0 -8 9 0 0 8c1,0 2,0 3,0 2,1 4,1 5,2 2,1 4,3 5,5 1,1 1,3 1,6 0,2 0,4 -2,6 -1,2 -3,4 -5,5 3,1 6,2 7,5 2,2 3,4 3,7 0,3 0,5 -2,7 -1,2 -2,4 -4,5 -3,2 -5,3 -8,3 -1,0 -2,0 -3,0l0 8 -9 0 0 -8 -2 0 -3 0 0 8 -9 0 0 -8 -6 0 0 -51zm11 8l0 12 7 0c5,0 7,0 8,0 2,0 4,-1 5,-2 1,-1 1,-2 1,-4 0,-1 0,-3 -1,-4 -1,-1 -2,-1 -4,-2 -1,0 -4,0 -10,0l-6 0zm0 21l0 14 10 0c4,0 7,-1 8,-1 2,0 3,-1 4,-2 1,-1 2,-2 2,-4 0,-2 -1,-3 -2,-4 -1,-1 -2,-2 -3,-2 -2,-1 -5,-1 -10,-1l-9 0z"/>
      </clipPath>
      <clipPath id="id8">
       <path d="M48 46l6 0 0 -8 9 0 0 8 5 0 0 -8 9 0 0 8c1,0 2,0 3,0 2,1 4,1 5,2 2,1 4,3 5,5 1,1 1,3 1,6 0,2 0,4 -2,6 -1,2 -3,4 -5,5 3,1 6,2 7,5 2,2 3,4 3,7 0,3 0,5 -2,7 -1,2 -2,4 -4,5 -3,2 -5,3 -8,3 -1,0 -2,0 -3,0l0 8 -9 0 0 -8 -2 0 -3 0 0 8 -9 0 0 -8 -6 0 0 -51zm11 8l0 12 7 0c5,0 7,0 8,0 2,0 4,-1 5,-2 1,-1 1,-2 1,-4 0,-1 0,-3 -1,-4 -1,-1 -2,-1 -4,-2 -1,0 -4,0 -10,0l-6 0zm0 21l0 14 10 0c4,0 7,-1 8,-1 2,0 3,-1 4,-2 1,-1 2,-2 2,-4 0,-2 -1,-3 -2,-4 -1,-1 -2,-2 -3,-2 -2,-1 -5,-1 -10,-1l-9 0z"/>
      </clipPath>
      <clipPath id="id9">
       <path d="M48 46l6 0 0 -8 9 0 0 8 5 0 0 -8 9 0 0 8c1,0 2,0 3,0 2,1 4,1 5,2 2,1 4,3 5,5 1,1 1,3 1,6 0,2 0,4 -2,6 -1,2 -3,4 -5,5 3,1 6,2 7,5 2,2 3,4 3,7 0,3 0,5 -2,7 -1,2 -2,4 -4,5 -3,2 -5,3 -8,3 -1,0 -2,0 -3,0l0 8 -9 0 0 -8 -2 0 -3 0 0 8 -9 0 0 -8 -6 0 0 -51zm11 8l0 12 7 0c5,0 7,0 8,0 2,0 4,-1 5,-2 1,-1 1,-2 1,-4 0,-1 0,-3 -1,-4 -1,-1 -2,-1 -4,-2 -1,0 -4,0 -10,0l-6 0zm0 21l0 14 10 0c4,0 7,-1 8,-1 2,0 3,-1 4,-2 1,-1 2,-2 2,-4 0,-2 -1,-3 -2,-4 -1,-1 -2,-2 -3,-2 -2,-1 -5,-1 -10,-1l-9 0z"/>
      </clipPath>
  <linearGradient id="id10" gradientUnits="userSpaceOnUse" x1="133.055" y1="139.841" x2="2.04345" y2="0.889584">
   <stop offset="0" style="stop-opacity:1; stop-color:#FFF7B2"/>
   <stop offset="1" style="stop-opacity:1; stop-color:#FFFBDB"/>
  </linearGradient>
  <linearGradient id="id11" gradientUnits="userSpaceOnUse" x1="133.055" y1="139.841" x2="2.04345" y2="0.889584">
   <stop offset="0" style="stop-opacity:1; stop-color:#FFDE23"/>
   <stop offset="1" style="stop-opacity:1; stop-color:#FFE166"/>
  </linearGradient>
  <linearGradient id="id12" gradientUnits="userSpaceOnUse" x1="40.9541" y1="20.7218" x2="94.144" y2="120.008">
   <stop offset="0" style="stop-opacity:1; stop-color:#FEFEFE"/>
   <stop offset="0.129412" style="stop-opacity:1; stop-color:#C2C2C3"/>
   <stop offset="0.501961" style="stop-opacity:1; stop-color:#727271"/>
   <stop offset="1" style="stop-opacity:1; stop-color:#D9DADA"/>
  </linearGradient>
  <linearGradient id="id13" gradientUnits="userSpaceOnUse" x1="40.9541" y1="20.7218" x2="94.144" y2="120.008">
   <stop offset="0" style="stop-opacity:1; stop-color:#FFE598"/>
   <stop offset="0.129412" style="stop-opacity:1; stop-color:#C0AF77"/>
   <stop offset="0.501961" style="stop-opacity:1; stop-color:#706959"/>
   <stop offset="1" style="stop-opacity:1; stop-color:#D9C484"/>
  </linearGradient>
  <linearGradient id="id14" gradientUnits="userSpaceOnUse" x1="35.4481" y1="10.7488" x2="99.6505" y2="129.981">
   <stop offset="0" style="stop-opacity:1; stop-color:#FCBE00"/>
   <stop offset="0.501961" style="stop-opacity:1; stop-color:#EA9000"/>
   <stop offset="1" style="stop-opacity:1; stop-color:#FECB00"/>
  </linearGradient>
  <linearGradient id="id15" gradientUnits="userSpaceOnUse" x1="35.4481" y1="10.7488" x2="99.6505" y2="129.981">
   <stop offset="0" style="stop-opacity:1; stop-color:#FCD730"/>
   <stop offset="0.501961" style="stop-opacity:1; stop-color:#EAA912"/>
   <stop offset="1" style="stop-opacity:1; stop-color:#FEE46E"/>
  </linearGradient>
  <linearGradient id="id16" gradientUnits="userSpaceOnUse" x1="37.7216" y1="14.9705" x2="97.377" y2="125.759">
   <stop offset="0" style="stop-opacity:1; stop-color:#FCCB00"/>
   <stop offset="0.501961" style="stop-opacity:1; stop-color:#E69600"/>
   <stop offset="1" style="stop-opacity:1; stop-color:#FED704"/>
  </linearGradient>
  <linearGradient id="id17" gradientUnits="userSpaceOnUse" x1="37.7216" y1="14.9705" x2="97.377" y2="125.759">
   <stop offset="0" style="stop-opacity:1; stop-color:#FCE43C"/>
   <stop offset="0.501961" style="stop-opacity:1; stop-color:#E6AF1C"/>
   <stop offset="1" style="stop-opacity:1; stop-color:#FEF083"/>
  </linearGradient>
  <radialGradient id="id18" gradientUnits="userSpaceOnUse" gradientTransform="matrix(1.95244 -0 -0 1.95244 -134 -40)" cx="140.573" cy="42.1773" r="139.102" fx="140.573" fy="42.1773">
   <stop offset="0" style="stop-opacity:1; stop-color:#FEFEFE"/>
   <stop offset="1" style="stop-opacity:1; stop-color:#D9DADA"/>
  </radialGradient>
  <radialGradient id="id19" gradientUnits="userSpaceOnUse" gradientTransform="matrix(1.95244 -0 -0 1.95244 -134 -40)" cx="140.573" cy="42.1773" r="139.102" fx="140.573" fy="42.1773">
   <stop offset="0" style="stop-opacity:1; stop-color:#FFE497"/>
   <stop offset="1" style="stop-opacity:1; stop-color:#D9C484"/>
  </radialGradient>
  <linearGradient id="id20" gradientUnits="userSpaceOnUse" x1="52.2085" y1="50.3956" x2="89.4841" y2="91.8289">
   <stop offset="0" style="stop-opacity:1; stop-color:#FEFEFE"/>
   <stop offset="0.129412" style="stop-opacity:1; stop-color:#EBECEC"/>
   <stop offset="0.501961" style="stop-opacity:1; stop-color:#C5C6C6"/>
   <stop offset="1" style="stop-opacity:1; stop-color:#EBECEC"/>
  </linearGradient>
  <linearGradient id="id21" gradientUnits="userSpaceOnUse" x1="52.2085" y1="50.3956" x2="89.4841" y2="91.8289">
   <stop offset="0" style="stop-opacity:1; stop-color:#FFE598"/>
   <stop offset="0.129412" style="stop-opacity:1; stop-color:#ECD58E"/>
   <stop offset="0.501961" style="stop-opacity:1; stop-color:#C4B379"/>
   <stop offset="1" style="stop-opacity:1; stop-color:#ECD58E"/>
  </linearGradient>
  <linearGradient id="id22" gradientUnits="userSpaceOnUse" x1="53.0688" y1="49.8446" x2="88.6238" y2="92.381">
   <stop offset="0" style="stop-opacity:1; stop-color:#C4C5C5"/>
   <stop offset="0.129412" style="stop-opacity:1; stop-color:#BABBBB"/>
   <stop offset="0.501961" style="stop-opacity:1; stop-color:#A6A7A7"/>
   <stop offset="1" style="stop-opacity:1; stop-color:#BABBBB"/>
  </linearGradient>
  <linearGradient id="id23" gradientUnits="userSpaceOnUse" x1="53.0688" y1="49.8446" x2="88.6238" y2="92.381">
   <stop offset="0" style="stop-opacity:1; stop-color:#C3B178"/>
   <stop offset="0.129412" style="stop-opacity:1; stop-color:#B8A873"/>
   <stop offset="0.501961" style="stop-opacity:1; stop-color:#A49667"/>
   <stop offset="1" style="stop-opacity:1; stop-color:#B8A873"/>
  </linearGradient>
 </defs>
 <g id="Layer_x0020_1">
  <metadata id="CorelCorpID_0Corel-Layer"/>
  <g id="_358949787600">
   <path class="fil0" d="M167 0c37,0 68,30 68,68 0,38 -31,68 -68,68 -20,0 -37,-8 -49,-20 0,-1 0,-1 0,-1l1 -1c0,0 0,0 1,0l0 -1c0,0 0,0 1,-1l0 0c0,0 0,-1 1,-1l0 0c0,-1 0,-1 1,-1l0 -1c0,0 0,0 0,-1l1 0 0 0c5,-8 9,-17 10,-26l0 -1c0,0 0,0 0,-1 0,0 0,0 0,-1 1,0 1,0 1,0 0,-1 0,-1 0,-1 0,-1 0,-1 0,-1 0,0 0,-1 0,-1l0 -1c0,0 0,-1 0,-1l0 0c0,-1 0,-1 0,-2l0 0c0,0 0,-1 0,-2 0,0 0,-1 0,-1l0 0c0,-1 0,-1 0,-2l0 0c0,-1 0,-1 0,-2l0 0c0,0 0,-1 0,-1 0,0 0,-1 0,-1 0,0 0,-1 0,-1 0,0 0,0 0,-1 -1,0 -1,0 -1,0 0,-1 0,-1 0,-1 0,-1 0,-1 0,-1 0,0 0,-1 0,-1l0 0 0 0 0 -1c-2,-9 -5,-17 -10,-24 -1,-1 -1,-1 -1,-2l0 0c-1,0 -1,-1 -1,-1l0 0c-1,0 -1,-1 -1,-1l0 0c-1,-1 -1,-1 -1,-2l0 0c-1,0 -1,0 -1,-1l0 0c-1,0 -1,-1 -1,-1l-1 0c0,0 0,-1 0,-1l-1 0c0,-1 0,-1 0,-1 12,-14 30,-23 51,-23z"/>
   <path class="fil1" d="M155 35l24 0 0 21 21 0 -1 24 -21 0 0 21 -24 0 1 -21 -21 0 0 0c0,1 0,1 0,1l0 1c0,3 -1,5 -2,8 7,12 20,19 35,19 22,0 41,-18 41,-41 0,-22 -19,-41 -41,-41 -15,0 -29,8 -36,21 1,3 2,6 3,9l0 -1 21 0 0 -21zm12 -31c4,0 8,0 12,1l0 3c-4,0 -8,-1 -12,-1 -5,0 -9,1 -13,2l0 -4c4,-1 8,-1 13,-1zm35 10c7,5 13,11 18,18l-3 3c-4,-7 -10,-13 -17,-18l2 -3zm28 41c1,4 1,9 1,13 0,4 0,8 -1,12l-4 0c1,-4 2,-8 2,-12 0,-4 -1,-9 -2,-13l4 0zm-9 49c-5,7 -11,13 -18,18l-3 -3c7,-5 13,-11 18,-18l3 3zm-42 28c-4,0 -8,1 -12,1 -5,0 -9,-1 -13,-1l0 -4c4,1 8,1 13,1 4,0 8,0 12,-1l0 4zm-48 -10c-4,-3 -8,-6 -11,-9 0,0 0,-1 1,-1l0 0c0,0 0,-1 1,-1l0 0c0,-1 0,-1 0,-1 4,3 7,7 12,9l-3 3zm-13 -96c4,-5 8,-8 12,-11l3 2c-5,3 -9,7 -12,11 -1,0 -1,0 -1,-1l0 0c-1,0 -1,0 -1,-1l0 0c-1,0 -1,0 -1,0zm60 -14c7,1 15,4 21,8l-9 9c-4,-2 -8,-4 -12,-5l0 -12zm28 32l8 -8c5,6 8,13 9,21l-12 0c-1,-4 -3,-9 -5,-13zm5 35l12 0c-1,8 -4,15 -9,21l-8 -8c2,-4 4,-8 5,-13zm-21 28l9 9c-7,4 -14,7 -22,9l0 -12c5,-2 9,-3 13,-6zm-34 6l0 12c-8,-2 -15,-5 -22,-9l9 -9c4,3 8,4 13,6zm-13 -84l-8 -9c6,-4 13,-7 21,-8l0 12c-5,1 -9,3 -13,5z"/>
   <path class="fil2" d="M68 3c37,0 67,30 67,67 0,38 -30,68 -67,68 -38,0 -68,-30 -68,-68 0,-37 30,-67 68,-67z"/>
   <g style="clip-path:url(#id0)">
    <g>
     <path id="1" class="fil3" d="M116 13l-7 -9 -137 110 5 9 139 -110zm-8 -11l-2 -3 -139 109 3 4 138 -110z"/>
    </g>
   </g>
   <path class="fil4" d="M68 3c37,0 67,30 67,67 0,38 -30,68 -67,68 -38,0 -68,-30 -68,-68 0,-37 30,-67 68,-67z"/>
   <path class="fil5" d="M1 57l5 0c-1,5 -1,9 -1,13 0,5 0,9 1,13l-5 0c-1,-4 -1,-8 -1,-13 0,-4 0,-8 1,-13zm67 -54c4,0 8,0 13,1l0 5c-5,-1 -9,-1 -13,-1 -5,0 -9,0 -13,1l0 -5c4,-1 8,-1 13,-1zm37 11c8,5 14,11 19,19l-4 3c-5,-7 -11,-13 -18,-18l3 -4zm29 43c1,5 1,9 1,13 0,5 0,9 -1,13l-5 0c1,-4 1,-8 1,-13 0,-4 0,-8 -1,-13l5 0zm-10 51c-5,7 -11,13 -18,18l-4 -3c7,-5 14,-11 18,-18l4 3zm-43 29c-5,0 -9,1 -13,1 -5,0 -9,0 -13,-1l0 -5c4,1 8,1 13,1 4,0 8,0 13,-1l0 5zm-51 -11c-7,-4 -14,-11 -18,-18l3 -3c5,7 11,13 18,18l-3 3zm-18 -94c5,-7 11,-13 18,-18l3 4c-7,4 -13,11 -18,18l-3 -4z"/>
   <path class="fil6" d="M68 4c37,0 67,30 67,67 0,37 -30,67 -67,67 -37,0 -67,-30 -67,-67 0,-37 30,-67 67,-67zm0 1c36,0 66,29 66,66 0,36 -30,66 -66,66 -37,0 -66,-30 -66,-66 0,-37 29,-66 66,-66z"/>
   <path class="fil7" d="M67 3c37,0 67,30 67,67 0,37 -30,67 -67,67 -37,0 -66,-30 -66,-67 0,-37 29,-67 66,-67zm0 1c37,0 67,30 67,66 0,37 -30,66 -67,66 -36,0 -66,-29 -66,-66 0,-36 30,-66 66,-66z"/>
   <path class="fil8" d="M68 4c36,0 66,29 66,66 0,37 -30,67 -66,67 -37,0 -67,-30 -67,-67 0,-37 30,-66 67,-66zm0 0c36,0 66,30 66,66 0,37 -30,67 -66,67 -37,0 -67,-30 -67,-67 0,-36 30,-66 67,-66z"/>
   <g style="clip-path:url(#id1)">
    <g>
     <path id="1" class="fil9" d="M117 11l-7 -8 -137 110 6 8 138 -110zm-7 -11l-3 -3 -138 110 2 3 139 -110z"/>
    </g>
   </g>
   <path class="fil4" d="M68 4c36,0 66,29 66,66 0,37 -30,67 -66,67 -37,0 -67,-30 -67,-67 0,-37 30,-66 67,-66zm0 0c36,0 66,30 66,66 0,37 -30,67 -66,67 -37,0 -67,-30 -67,-67 0,-36 30,-66 67,-66z"/>
   <path class="fil7" d="M67 7c35,0 63,28 63,63 0,35 -28,63 -63,63 -34,0 -62,-28 -62,-63 0,-35 28,-63 62,-63z"/>
   <path class="fil10" d="M68 8c34,0 63,28 63,63 0,35 -29,63 -63,63 -35,0 -63,-28 -63,-63 0,-35 28,-63 63,-63z"/>
   <path class="fil11" d="M68 8c34,0 62,28 62,62 0,35 -28,63 -62,63 -35,0 -63,-28 -63,-63 0,-34 28,-62 63,-62z"/>
   <g style="clip-path:url(#id2)">
    <g>
     <path id="1" class="fil3" d="M116 12l-7 -9 -137 110 5 9 139 -110zm-8 -11l-2 -3 -139 109 3 4 138 -110z"/>
    </g>
   </g>
   <path class="fil4" d="M68 8c34,0 62,28 62,62 0,35 -28,63 -62,63 -35,0 -63,-28 -63,-63 0,-34 28,-62 63,-62z"/>
   <path class="fil12" d="M68 26c24,0 44,20 44,44 0,25 -20,45 -44,45 -25,0 -45,-20 -45,-45 0,-24 20,-44 45,-44z"/>
   <polygon class="fil13" points="26,97 27,100 30,101 27,103 27,107 24,104 21,105 22,102 20,99 24,99 "/>
   <path class="fil14" d="M12 80l-1 -3c0,-1 0,-1 0,-2 0,0 0,0 0,0 0,-1 1,-1 1,-1 0,0 0,-1 1,-1 0,0 1,0 1,1 0,0 1,0 1,0 0,0 0,-1 0,-1 1,0 1,0 2,0 0,0 0,0 1,0 0,0 0,0 1,0 0,1 0,1 0,1 0,1 0,1 1,2l0 3 -8 1zm1 -2l2 0 0 -1c-1,-1 -1,-1 -1,-1 0,0 0,-1 0,-1 0,0 0,0 -1,0 0,0 0,0 0,0 0,1 -1,1 -1,1 0,0 1,1 1,1l0 1zm3 0l2 0 0 -2c0,0 0,-1 0,-1 0,0 0,0 0,-1 -1,0 -1,0 -1,0 0,0 -1,0 -1,1 0,0 0,0 0,0 0,0 0,1 0,2l0 1zm3 -7l-8 0 0 -2 8 0 0 2zm0 -5l-6 -1 -1 2 -1 0 1 -7 1 0 0 3 7 1 -1 2zm0 -12l1 -1c1,0 1,1 1,2 1,0 1,1 0,2 0,1 -1,2 -1,2 -1,1 -3,1 -4,1 -1,-1 -2,-1 -3,-2 0,-1 0,-2 0,-3 0,-1 1,-2 2,-3 0,0 1,0 1,0l0 2c0,0 -1,0 -1,0 0,0 0,1 -1,1 0,1 0,1 1,2 0,0 1,1 2,1 1,0 1,0 2,0 0,0 1,-1 1,-1 0,-1 0,-1 0,-2 0,0 -1,0 -1,-1zm0 -3c-1,-1 -2,-1 -2,-2 0,0 0,-1 -1,-1 0,0 0,-1 0,-1 0,-1 0,-1 1,-2 0,-1 1,-2 2,-2 1,0 2,0 4,0 1,1 2,2 2,3 0,1 0,2 -1,3 0,1 -1,2 -2,2 -1,0 -2,0 -3,0zm1 -2c0,0 1,1 2,0 0,0 1,0 1,-1 1,0 1,-1 0,-2 0,0 0,-1 -1,-1 -1,-1 -2,-1 -3,-1 0,1 -1,1 -1,2 0,0 0,1 0,1 0,1 1,2 2,2zm7 -5l-7 -5 1 -1 7 5 -1 1zm2 -3l-6 -5 1 -1 6 1 -4 -4 1 -1 6 5 -1 2 -6 -1 4 3 -1 1zm11 -14l1 0c1,1 1,1 1,2 -1,1 -1,1 -2,2 -1,1 -2,1 -3,1 -1,-1 -2,-1 -3,-2 0,-1 -1,-3 0,-4 0,-1 0,-2 1,-2 1,-1 2,-1 3,-1 0,0 1,0 1,1l-1 1c0,0 0,0 -1,0 0,0 -1,0 -1,0 -1,0 -1,1 -1,1 0,1 0,2 1,3 0,0 1,1 2,1 0,0 1,0 1,0 1,0 1,-1 1,-1 0,-1 0,-1 0,-2zm11 -2l-2 1 -1 -2 -3 2 0 2 -2 0 0 -9 2 0 6 6zm-4 -2l-2 -2 0 3 2 -1zm4 -1l1 0c1,0 1,0 1,1 1,0 1,0 2,0 0,0 1,-1 1,-1 0,0 0,-1 0,-1 0,0 0,0 0,0 0,0 -1,-1 -1,-1 0,0 -1,0 -1,0 -1,0 -2,0 -3,0 0,0 -1,-1 -1,-1 0,-1 0,-1 0,-2 0,0 1,0 1,-1 1,0 1,0 2,0 1,-1 2,-1 2,0 1,0 1,1 1,1l-1 1c0,-1 -1,-1 -1,-1 0,0 -1,0 -1,0 0,0 -1,0 -1,1 0,0 0,0 0,0 0,0 0,1 0,1 0,0 1,0 2,0 1,0 1,0 2,0 0,0 1,0 1,0 0,1 0,1 1,2 0,0 0,1 0,1 -1,1 -1,1 -1,1 -1,1 -1,1 -2,1 -1,0 -2,0 -3,0 0,0 -1,-1 -1,-2zm9 1l-1 -8 1 -1 1 9 -1 0zm3 -1l0 -8 1 0 4 6 0 -6 1 0 1 8 -2 0 -4 -5 0 5 -1 0zm9 -4c0,-1 0,-1 1,-2 0,0 0,-1 1,-1 0,0 0,0 1,-1 0,0 1,0 2,0 1,1 2,1 2,2 1,1 1,2 1,3 0,2 -1,3 -2,3 -1,1 -2,1 -3,1 -1,0 -2,-1 -3,-2 0,-1 0,-2 0,-3zm2 0c-1,1 0,2 0,3 0,0 1,0 1,1 1,0 2,0 2,-1 1,0 1,-1 1,-2 0,-1 0,-2 0,-2 0,-1 -1,-1 -2,-1 0,0 -1,0 -1,0 -1,1 -1,1 -1,2zm10 4l2 1c0,0 0,1 0,1 0,0 1,1 1,1 0,0 1,0 1,0 1,0 1,0 1,-1 0,0 0,0 0,0 0,0 0,0 0,-1 -1,0 -1,0 -1,-1 -1,0 -2,-1 -2,-1 0,-1 0,-1 0,-2 0,0 1,-1 1,-1 0,0 1,0 1,0 1,0 1,0 2,0 1,1 1,1 2,2 0,0 0,1 0,2l-2 -1c0,0 0,-1 0,-1 0,0 0,0 -1,-1 0,0 -1,0 -1,0 0,0 0,0 0,1 0,0 0,0 0,0 0,0 0,1 1,1 1,1 1,1 1,2 1,0 1,0 1,1 0,0 0,1 0,1 -1,1 -1,1 -1,1 -1,1 -1,1 -2,1 0,0 -1,-1 -2,-1 -1,0 -1,-1 -2,-2 0,0 0,-1 0,-2zm9 2c0,0 1,-1 1,-1 1,-1 1,-1 1,-1 1,0 1,0 2,0 0,0 1,0 1,1 2,0 2,1 2,2 1,1 0,3 0,4 -1,1 -2,2 -3,2 -1,0 -2,0 -3,-1 -1,0 -2,-1 -2,-2 0,-1 0,-2 1,-4zm1 1c0,1 -1,2 0,2 0,1 0,2 1,2 0,0 1,0 1,0 1,0 2,0 2,-1 1,-1 1,-2 1,-2 0,-1 -1,-2 -1,-2 -1,0 -1,0 -2,0 -1,0 -1,0 -2,1zm4 8l6 -6 4 4 -1 1 -3 -3 -1 2 3 2 -1 1 -3 -2 -2 2 -2 -1zm7 7l5 -5 -1 -2 1 -1 4 6 -1 1 -2 -2 -5 4 -1 -1zm4 5l6 -6 1 2 -5 4 6 -2 1 2 -4 4 6 -2 0 2 -8 2 -1 -1 5 -5 -6 2 -1 -2zm6 16l-1 -2 2 -1 -1 -4 -2 0 0 -2 9 1 0 2 -7 6zm2 -4l3 -2 -3 -1 0 3zm-2 4l9 -1 0 4c0,1 0,1 0,2 0,0 0,1 -1,1 0,0 0,0 -1,0 0,0 -1,0 -1,0 -1,0 -1,-1 -1,-1 -1,0 -1,0 -1,1 0,0 -1,0 -1,1l-2 1 0 -2 2 -2c0,0 1,0 1,-1 0,0 0,0 0,0 0,0 0,-1 0,-1l0 0 -4 0 0 -2zm5 1l0 2c1,0 1,1 1,1 0,0 0,1 0,1 0,0 1,0 1,0 0,0 0,0 0,-1 1,0 1,0 1,0 0,0 0,-1 0,-2l-1 -1 -2 0zm-4 8l8 0 0 6 -1 0 0 -4 -2 0 0 4 -1 0 0 -4 -3 0 0 4 -1 0 0 -6z"/>
   <path class="fil14" d="M34 115l2 1c0,1 0,1 0,1 0,1 0,1 1,1 0,1 0,1 1,1 0,0 0,0 0,-1 1,0 1,0 1,0 0,0 -1,-1 -1,-1 0,0 0,0 -1,-1 0,-1 -1,-1 -1,-2 0,0 0,-1 1,-1 0,-1 0,-1 0,-1 1,0 1,0 2,0 0,0 1,0 1,0 1,1 2,2 2,2 0,1 0,2 -1,2l-1 -1c0,0 0,0 0,-1 0,0 0,0 -1,0 0,-1 0,-1 -1,-1 0,0 0,0 0,0 0,1 0,1 0,1 0,0 0,1 1,1 0,1 1,1 1,2 0,0 0,0 0,1 0,0 0,1 0,1 0,1 -1,1 -1,1 -1,0 -1,0 -2,0 0,0 -1,0 -1,-1 -1,0 -2,-1 -2,-1 0,-1 0,-2 0,-3zm8 3c0,0 1,-1 1,-1 1,-1 1,-1 1,-1 1,0 1,0 2,0 0,0 1,0 1,0 1,1 2,1 3,2 0,1 0,2 -1,4 0,1 -1,2 -2,2 -1,0 -2,0 -3,0 -1,-1 -2,-1 -2,-2 -1,-1 0,-2 0,-4zm2 1c-1,1 -1,2 -1,2 0,1 1,1 1,2 1,0 2,0 2,0 1,-1 1,-1 2,-2 0,-1 0,-2 0,-2 0,-1 -1,-1 -1,-1 -1,-1 -1,-1 -2,-1 -1,1 -1,1 -1,2zm6 7l2 -8 5 2 0 1 -4 -1 0 2 3 1 0 1 -4 -1 -1 3 -1 0zm9 2l1 -7 -2 0 0 -1 6 1 0 1 -2 0 -1 6 -2 0zm6 -2l2 0c0,0 0,1 0,1 1,0 1,0 1,0 1,0 1,0 2,0 0,0 0,-1 0,-1 0,0 0,0 0,0 0,0 -1,-1 -1,-1 0,0 0,0 -1,0 -1,0 -2,0 -2,-1 0,0 -1,-1 -1,-1 0,-1 0,-1 1,-1 0,-1 0,-1 1,-1 0,0 0,-1 1,-1 1,0 2,1 2,1 1,0 1,1 1,2l-1 0c0,-1 -1,-1 -1,-1 0,0 0,0 -1,0 0,0 -1,0 -1,0 0,0 0,0 0,1 0,0 0,0 0,0 0,0 1,0 2,1 0,0 1,0 1,0 1,0 1,0 1,1 0,0 1,1 1,1 0,1 0,1 -1,1 0,1 0,1 -1,1 0,1 -1,1 -2,1 -1,0 -1,0 -2,-1 0,0 -1,-1 -1,-2zm10 2l-3 -7 1 -1 3 6 0 -6 2 -1 2 6 1 -6 1 0 0 8 -2 0 -3 -5 0 6 -2 0zm11 -2l-3 -8 1 0 3 7 -1 1zm2 -4l1 0c1,0 1,0 1,0 1,1 1,0 2,0 0,0 1,0 1,-1 0,0 0,0 0,0 0,-1 -1,-1 -1,-1 0,0 0,0 0,0 -1,0 -1,0 -2,0 -1,1 -1,1 -2,0 0,0 -1,0 -1,-1 0,0 0,0 0,-1 0,0 0,-1 0,-1 1,0 1,-1 2,-1 1,0 1,-1 2,0 1,0 1,0 2,1l-2 1c0,-1 0,-1 -1,-1 0,0 0,0 -1,0 0,0 0,1 -1,1 0,0 0,0 0,1 0,0 1,0 1,0 0,0 1,0 1,0 1,0 2,-1 2,0 1,0 1,0 1,0 1,0 1,0 1,1 0,0 0,1 0,1 0,1 0,1 0,2 -1,0 -1,0 -2,1 -1,0 -1,0 -2,0 -1,0 -1,-1 -2,-2zm8 -3l1 -1c0,0 1,1 1,1 0,0 1,0 1,-1 1,0 1,0 1,-1 0,0 0,0 0,-1 0,0 0,0 0,0 -1,0 -1,0 -1,0 0,0 -1,0 -1,1 -1,0 -2,0 -2,0 -1,0 -2,0 -2,-1 0,0 0,-1 0,-1 0,-1 0,-1 0,-1 0,-1 1,-1 1,-1 1,-1 2,-1 3,-1 0,0 1,0 1,1l-1 1c0,0 -1,-1 -1,-1 0,0 -1,0 -1,1 0,0 -1,0 -1,0 0,1 0,1 0,1 0,0 1,0 1,0 0,0 1,0 1,0 1,0 2,0 2,0 1,-1 1,0 1,0 1,0 1,0 1,1 1,0 1,0 1,1 0,0 0,1 -1,1 0,1 0,1 -1,1 -1,1 -2,1 -2,1 -1,0 -2,0 -2,-1z"/>
   <path class="fil15" d="M12 80l-1 -4c0,0 0,-1 0,-1 0,-1 0,-1 0,-1 0,0 1,-1 1,-1 0,0 0,0 1,0 0,0 1,0 1,0 0,0 1,0 1,1 0,-1 0,-1 0,-2 1,0 1,0 2,0 0,0 0,0 1,0 0,0 0,0 1,1 0,0 0,0 0,1 0,0 0,1 1,2l0 3 -8 1zm1 -2l2 0 0 -2c-1,0 -1,-1 -1,-1 0,0 0,0 0,0 0,-1 0,-1 -1,-1 0,0 0,1 0,1 0,0 -1,0 -1,0 0,1 1,1 1,2l0 1zm3 -1l2 0 0 -1c0,-1 0,-1 0,-2 0,0 0,0 0,0 -1,0 -1,0 -1,0 0,0 -1,0 -1,0 0,0 0,0 0,0 0,1 0,1 0,2l0 1zm3 -7l-8 0 0 -2 8 0 0 2zm0 -5l-6 -1 -1 2 -1 0 1 -6 1 0 0 2 7 1 -1 2zm0 -11l1 -2c1,1 1,1 1,2 1,1 1,2 0,2 0,1 -1,2 -1,3 -1,0 -3,0 -4,0 -1,0 -2,-1 -3,-2 0,-1 0,-2 0,-3 0,-1 1,-2 2,-2 0,-1 1,-1 1,-1l0 2c0,0 -1,0 -1,0 0,1 0,1 -1,1 0,1 0,2 1,2 0,1 1,1 2,1 1,0 1,0 2,0 0,0 1,0 1,-1 0,0 0,-1 0,-1 0,-1 -1,-1 -1,-1zm0 -4c-1,-1 -2,-1 -2,-1 0,-1 0,-1 -1,-2 0,0 0,-1 0,-1 0,-1 0,-1 1,-2 0,-1 1,-2 2,-2 1,0 2,0 4,1 1,0 2,1 2,2 0,1 0,2 -1,3 0,1 -1,2 -2,2 -1,1 -2,1 -3,0zm1 -2c0,1 1,1 2,1 0,0 1,-1 1,-1 1,-1 1,-2 0,-2 0,-1 0,-1 -1,-2 -1,0 -2,0 -3,0 0,0 -1,0 -1,1 0,1 0,1 0,2 0,0 1,1 2,1zm7 -4l-7 -5 1 -2 7 5 -1 2zm2 -3l-6 -6 1 -1 6 1 -4 -4 1 -1 6 6 -1 1 -6 -1 4 4 -1 1zm11 -14l1 -1c1,1 1,2 1,2 -1,1 -1,2 -2,2 -1,1 -2,1 -3,1 -1,0 -2,-1 -3,-2 0,-1 -1,-2 0,-3 0,-1 0,-2 1,-3 1,0 2,-1 3,-1 0,0 1,1 1,1l-1 1c0,0 0,0 -1,0 0,0 -1,0 -1,0 -1,1 -1,1 -1,2 0,0 0,1 1,2 0,1 1,1 2,1 0,1 1,0 1,0 1,0 1,0 1,-1 0,0 0,-1 0,-1zm11 -3l-2 1 -1 -1 -3 1 0 2 -2 1 0 -9 2 -1 6 6zm-4 -1l-2 -3 0 3 2 0zm4 -2l1 0c1,0 1,1 1,1 1,0 1,0 2,0 0,0 1,0 1,-1 0,0 0,0 0,-1 0,0 0,0 0,0 0,0 -1,0 -1,0 0,0 -1,0 -1,0 -1,0 -2,0 -3,-1 0,0 -1,0 -1,-1 0,0 0,-1 0,-1 0,-1 1,-1 1,-1 1,-1 1,-1 2,-1 1,0 2,0 2,0 1,0 1,1 1,2l-1 0c0,0 -1,-1 -1,-1 0,0 -1,0 -1,0 0,0 -1,1 -1,1 0,0 0,0 0,0 0,1 0,1 0,1 0,0 1,0 2,0 1,0 1,0 2,0 0,0 1,0 1,1 0,0 0,0 1,1 0,0 0,1 0,1 -1,1 -1,1 -1,2 -1,0 -1,0 -2,0 -1,1 -2,1 -3,0 0,0 -1,-1 -1,-2zm9 1l-1 -8 1 0 1 8 -1 0zm3 0l0 -9 1 0 4 6 0 -6 1 0 1 9 -2 0 -4 -6 0 6 -1 0zm9 -5c0,0 0,-1 1,-2 0,0 0,0 1,-1 0,0 0,0 1,0 0,0 1,0 2,0 1,0 2,1 2,1 1,1 1,2 1,4 0,1 -1,2 -2,3 -1,0 -2,1 -3,0 -1,0 -2,0 -3,-1 0,-1 0,-2 0,-4zm2 1c-1,1 0,1 0,2 0,0 1,1 1,1 1,0 2,0 2,-1 1,0 1,-1 1,-2 0,-1 0,-1 0,-2 0,0 -1,-1 -2,-1 0,0 -1,0 -1,1 -1,0 -1,1 -1,2zm10 3l2 1c0,1 0,1 0,1 0,1 1,1 1,1 0,0 1,0 1,0 1,0 1,0 1,0 0,0 0,-1 0,-1 0,0 0,0 0,0 -1,0 -1,-1 -1,-1 -1,-1 -2,-1 -2,-2 0,0 0,-1 0,-2 0,0 1,0 1,-1 0,0 1,0 1,0 1,0 1,0 2,0 1,1 1,1 2,2 0,1 0,1 0,2l-2 -1c0,0 0,0 0,-1 0,0 0,0 -1,0 0,0 -1,-1 -1,0 0,0 0,0 0,0 0,0 0,0 0,0 0,1 0,1 1,2 1,0 1,1 1,1 1,0 1,1 1,1 0,1 0,1 0,1 -1,1 -1,1 -1,2 -1,0 -1,0 -2,0 0,0 -1,0 -2,-1 -1,0 -1,-1 -2,-1 0,-1 0,-2 0,-3zm9 3c0,-1 1,-2 1,-2 1,0 1,0 1,-1 1,0 1,0 2,0 0,1 1,1 1,1 2,1 2,2 2,3 1,1 0,2 0,3 -1,1 -2,2 -3,2 -1,0 -2,0 -3,0 -1,-1 -2,-2 -2,-3 0,-1 0,-2 1,-3zm1 1c0,0 -1,1 0,2 0,0 0,1 1,1 0,1 1,1 1,1 1,-1 2,-1 2,-2 1,-1 1,-2 1,-2 0,-1 -1,-1 -1,-2 -1,0 -1,0 -2,0 -1,0 -1,1 -2,2zm4 8l6 -7 4 4 -1 1 -3 -2 -1 1 3 3 -1 1 -3 -3 -2 3 -2 -1zm7 6l5 -4 -1 -2 1 -1 4 5 -1 1 -2 -2 -5 4 -1 -1zm4 5l6 -6 1 2 -5 4 6 -1 1 1 -4 4 6 -1 0 1 -8 2 -1 -1 5 -5 -6 2 -1 -2zm6 16l-1 -2 2 -1 -1 -3 -2 -1 0 -1 9 1 0 1 -7 6zm2 -4l3 -2 -3 0 0 2zm-2 5l9 -1 0 3c0,1 0,2 0,2 0,1 0,1 -1,1 0,0 0,1 -1,1 0,0 -1,0 -1,-1 -1,0 -1,0 -1,-1 -1,0 -1,1 -1,1 0,0 -1,0 -1,1l-2 1 0 -2 2 -1c0,-1 1,-1 1,-1 0,-1 0,-1 0,-1 0,0 0,0 0,-1l0 0 -4 0 0 -1zm5 1l0 1c1,1 1,1 1,1 0,1 0,1 0,1 0,0 1,0 1,0 0,0 0,0 0,0 1,-1 1,-1 1,-1 0,0 0,-1 0,-1l-1 -2 -2 1zm-4 7l8 0 0 7 -1 0 0 -5 -2 0 0 4 -1 0 0 -4 -3 0 0 5 -1 0 0 -7z"/>
   <path class="fil15" d="M34 115l2 0c0,1 0,1 0,2 0,0 0,0 1,1 0,0 0,0 1,0 0,0 0,0 0,0 1,-1 1,-1 1,-1 0,0 -1,0 -1,-1 0,0 0,0 -1,-1 0,0 -1,-1 -1,-1 0,-1 0,-1 1,-2 0,0 0,-1 0,-1 1,0 1,0 2,0 0,0 1,0 1,1 1,0 2,1 2,2 0,0 0,1 -1,1l-1 0c0,-1 0,-1 0,-1 0,-1 0,-1 -1,-1 0,0 0,-1 -1,-1 0,1 0,1 0,1 0,0 0,0 0,0 0,1 0,1 1,2 0,0 1,1 1,1 0,0 0,1 0,1 0,1 0,1 0,1 0,1 -1,1 -1,1 -1,1 -1,1 -2,0 0,0 -1,0 -1,0 -1,-1 -2,-1 -2,-2 0,-1 0,-2 0,-2zm8 3c0,-1 1,-2 1,-2 1,0 1,-1 1,-1 1,0 1,0 2,0 0,0 1,0 1,1 1,0 2,1 3,2 0,1 0,2 -1,3 0,1 -1,2 -2,2 -1,1 -2,1 -3,0 -1,0 -2,-1 -2,-2 -1,-1 0,-2 0,-3zm2 0c-1,1 -1,2 -1,3 0,0 1,1 1,1 1,0 2,0 2,0 1,0 1,-1 2,-2 0,-1 0,-1 0,-2 0,0 -1,-1 -1,-1 -1,0 -1,0 -2,0 -1,0 -1,1 -1,1zm6 7l2 -8 5 2 0 1 -4 -1 0 2 3 1 0 1 -4 -1 -1 4 -1 -1zm9 2l1 -6 -2 -1 0 -1 6 1 0 1 -2 0 -1 6 -2 0zm6 -2l2 0c0,1 0,1 0,1 1,1 1,1 1,1 1,0 1,0 2,-1 0,0 0,0 0,-1 0,0 0,0 0,0 0,0 -1,0 -1,0 0,0 0,0 -1,-1 -1,0 -2,0 -2,0 0,-1 -1,-1 -1,-2 0,0 0,-1 1,-1 0,0 0,-1 1,-1 0,0 0,0 1,0 1,0 2,0 2,0 1,1 1,1 1,2l-1 0c0,0 -1,-1 -1,-1 0,0 0,0 -1,0 0,0 -1,0 -1,0 0,0 0,1 0,1 0,0 0,0 0,0 0,1 1,1 2,1 0,0 1,0 1,0 1,1 1,1 1,1 0,0 1,1 1,1 0,1 0,1 -1,2 0,0 0,0 -1,1 0,0 -1,0 -2,0 -1,0 -1,0 -2,-1 0,0 -1,-1 -1,-2zm10 3l-3 -8 1 0 3 5 0 -6 2 0 2 5 1 -6 1 0 0 8 -2 1 -3 -6 0 6 -2 1zm11 -3l-3 -7 1 -1 3 8 -1 0zm2 -3l1 -1c1,0 1,1 1,1 1,0 1,0 2,0 0,-1 1,-1 1,-1 0,-1 0,-1 0,-1 0,0 -1,0 -1,0 0,-1 0,-1 0,-1 -1,0 -1,1 -2,1 -1,0 -1,0 -2,0 0,0 -1,-1 -1,-1 0,-1 0,-1 0,-2 0,0 0,0 0,-1 1,0 1,0 2,-1 1,0 1,0 2,0 1,0 1,1 2,1l-2 1c0,0 0,-1 -1,-1 0,0 0,0 -1,1 0,0 0,0 -1,0 0,0 0,1 0,1 0,0 1,0 1,0 0,0 1,0 1,0 1,0 2,0 2,0 1,0 1,0 1,0 1,0 1,1 1,1 0,1 0,1 0,2 0,0 0,0 0,1 -1,0 -1,1 -2,1 -1,0 -1,0 -2,0 -1,0 -1,0 -2,-1zm8 -4l1 -1c0,1 1,1 1,1 0,0 1,0 1,0 1,-1 1,-1 1,-1 0,-1 0,-1 0,-1 0,0 0,0 0,-1 -1,0 -1,0 -1,1 0,0 -1,0 -1,0 -1,0 -2,0 -2,0 -1,0 -2,0 -2,-1 0,0 0,0 0,-1 0,0 0,-1 0,-1 0,0 1,-1 1,-1 1,-1 2,-1 3,-1 0,0 1,1 1,1l-1 1c0,0 -1,0 -1,0 0,0 -1,0 -1,0 0,0 -1,1 -1,1 0,0 0,0 0,0 0,1 1,1 1,1 0,0 1,0 1,-1 1,0 2,0 2,0 1,0 1,0 1,0 1,0 1,0 1,1 1,0 1,1 1,1 0,1 0,1 -1,2 0,0 0,0 -1,1 -1,0 -2,1 -2,0 -1,0 -2,0 -2,-1z"/>
   <path class="fil16" d="M11 80l0 -3c0,-1 0,-1 0,-2 0,0 0,0 0,-1 0,0 1,0 1,0 0,-1 0,-1 1,-1 0,0 1,0 1,0 0,1 1,1 1,1 0,0 0,-1 0,-1 1,0 1,-1 2,-1 0,0 0,0 1,0 0,1 0,1 1,1 0,0 0,1 0,1 0,0 0,1 1,2l0 3 -9 1zm2 -2l2 0 -1 -1c0,-1 0,-1 0,-1 0,-1 0,-1 0,-1 0,0 -1,0 -1,0 0,0 0,0 0,0 -1,0 -1,0 -1,1 0,0 0,0 1,1l0 1zm3 0l2 -1 0 -1c0,-1 0,-1 0,-1 0,-1 0,-1 -1,-1 0,0 0,0 0,0 -1,0 -1,0 -1,0 0,0 0,1 0,1 0,0 0,1 0,1l0 2zm3 -7l-8 -1 0 -1 8 0 0 2zm0 -6l-7 -1 0 3 -1 0 1 -7 1 0 0 3 7 1 -1 1zm0 -11l1 -1c0,0 1,1 1,1 1,1 1,2 0,3 0,1 -1,2 -2,2 0,1 -2,1 -3,0 -1,0 -2,-1 -3,-2 0,-1 0,-2 0,-3 0,-1 1,-1 2,-2 0,0 1,0 1,0l0 1c0,0 -1,1 -1,1 0,0 -1,0 -1,1 0,0 0,1 1,1 0,1 1,1 2,2 1,0 1,0 2,0 0,-1 1,-1 1,-2 0,0 0,0 0,-1 0,0 -1,-1 -1,-1zm0 -4c-1,0 -2,-1 -2,-1 0,0 -1,-1 -1,-1 0,-1 0,-1 0,-2 0,0 0,-1 1,-1 0,-1 1,-2 2,-2 1,-1 2,-1 3,0 2,1 2,2 3,3 0,1 0,2 -1,3 0,1 -1,2 -2,2 -1,0 -2,0 -3,-1zm0 -1c1,0 2,0 3,0 0,0 1,0 1,-1 0,-1 1,-1 0,-2 0,0 0,-1 -1,-1 -1,-1 -2,-1 -3,-1 0,0 -1,1 -1,1 0,1 0,2 0,2 0,1 1,1 1,2zm8 -5l-7 -5 1 -1 7 5 -1 1zm2 -3l-6 -5 1 -2 6 1 -4 -3 1 -1 6 5 -1 1 -6 -1 4 4 -1 1zm11 -14l1 -1c1,1 1,2 1,3 -1,1 -1,1 -2,2 -1,0 -2,1 -3,0 -1,0 -2,-1 -3,-2 0,-1 -1,-2 -1,-3 1,-1 1,-2 2,-3 1,0 2,0 3,0 0,0 1,0 1,1l-1 1c0,0 -1,-1 -1,-1 0,0 -1,0 -1,1 -1,0 -1,1 -1,1 0,1 0,1 1,2 0,1 1,2 2,2 0,0 1,0 1,0 1,-1 1,-1 1,-1 0,-1 0,-1 0,-2zm11 -2l-2 0 -1 -1 -3 1 0 2 -2 1 0 -9 2 -1 6 7zm-4 -2l-2 -2 0 3 2 -1zm4 -1l1 -1c1,1 1,1 1,1 1,0 1,0 2,0 0,0 1,0 1,0 0,-1 0,-1 0,-1 0,0 0,-1 0,-1 -1,0 -1,0 -1,0 0,0 -1,0 -1,0 -1,0 -2,0 -3,0 0,0 -1,-1 -1,-2 0,0 0,0 0,-1 0,0 1,-1 1,-1 0,0 1,0 2,-1 1,0 1,0 2,0 1,1 1,1 1,2l-1 0c0,0 -1,0 -1,0 0,0 -1,0 -1,0 -1,0 -1,0 -1,0 0,0 0,1 0,1 0,0 0,0 0,0 0,0 1,0 2,0 1,0 1,0 2,1 0,0 1,0 1,0 0,0 0,1 1,1 0,1 0,1 0,2 -1,0 -1,1 -1,1 -1,0 -1,1 -2,1 -1,0 -2,0 -3,0 0,-1 -1,-1 -1,-2zm9 1l-1 -9 1 0 1 8 -1 1zm3 -1l0 -8 1 0 4 5 0 -5 1 0 1 8 -2 0 -4 -5 0 5 -1 0zm9 -4c0,-1 0,-2 1,-2 0,-1 0,-1 1,-1 0,-1 0,-1 1,-1 0,0 1,0 2,0 1,0 2,1 2,2 1,1 1,2 1,3 0,1 -1,2 -2,3 -1,1 -2,1 -3,1 -1,0 -2,-1 -3,-2 0,-1 0,-2 0,-3zm2 0c-1,1 -1,2 0,2 0,1 1,1 1,1 1,0 2,0 2,0 1,-1 1,-1 1,-2 0,-1 0,-2 0,-2 0,-1 -1,-1 -2,-1 0,-1 -1,0 -1,0 -1,0 -1,1 -1,2zm10 4l2 0c0,1 0,1 0,2 0,0 0,0 1,1 0,0 1,0 1,0 1,0 1,-1 1,-1 0,0 0,0 0,0 0,-1 0,-1 0,-1 -1,0 -1,0 -2,-1 0,0 -1,-1 -1,-1 0,-1 0,-2 0,-2 0,-1 0,-1 1,-1 0,0 1,-1 1,-1 1,0 1,1 2,1 1,0 1,1 2,1 0,1 0,2 0,3l-2 -1c0,-1 0,-1 0,-1 0,0 0,-1 -1,-1 0,0 -1,0 -1,0 0,0 0,0 0,0 -1,0 -1,1 0,1 0,0 0,1 1,1 0,1 1,1 1,1 0,1 1,1 1,2 0,0 0,0 -1,1 0,0 0,1 0,1 -1,0 -1,0 -2,0 0,0 -1,0 -2,0 -1,-1 -1,-1 -2,-2 0,0 0,-1 0,-2zm9 2c0,-1 1,-1 1,-2 0,0 1,0 1,0 1,0 1,0 2,0 0,0 1,0 1,0 1,1 2,2 2,3 1,1 0,2 0,3 -1,2 -2,2 -3,3 -1,0 -2,0 -3,-1 -1,-1 -2,-2 -2,-3 0,-1 0,-2 1,-3zm1 1c0,1 -1,1 0,2 0,1 0,1 1,2 0,0 1,0 1,0 1,0 2,-1 2,-2 1,0 1,-1 1,-2 0,0 -1,-1 -1,-1 -1,-1 -2,-1 -2,-1 -1,1 -1,1 -2,2zm4 8l6 -6 4 4 -1 1 -3 -3 -1 1 3 3 -1 1 -3 -2 -2 2 -2 -1zm7 6l5 -4 -1 -2 1 -1 4 5 -1 1 -2 -2 -5 5 -1 -2zm4 6l6 -6 1 1 -5 4 6 -1 1 2 -4 4 6 -2 0 2 -8 2 -1 -2 5 -4 -7 1 0 -1zm6 15l-1 -2 2 -1 -1 -3 -2 0 0 -2 9 1 0 2 -7 5zm2 -4l3 -2 -3 0 0 2zm-2 5l8 -1 1 3c0,1 0,2 0,2 0,1 0,1 -1,2 0,0 0,0 -1,0 -1,0 -1,0 -2,0 0,-1 0,-1 -1,-2 0,1 0,1 0,1 0,1 -1,1 -1,1l-2 2 0 -2 2 -2c0,0 0,-1 1,-1 0,0 0,0 0,0 0,-1 0,-1 0,-1l0 -1 -4 1 0 -2zm5 1l0 1c0,1 1,2 1,2 0,0 0,0 0,0 0,0 0,0 1,0 0,0 0,0 0,0 1,0 1,0 1,-1 0,0 0,0 -1,-1l0 -1 -2 0zm-4 8l8 0 0 6 -1 0 0 -5 -2 0 0 5 -1 0 0 -5 -3 0 0 5 -1 0 0 -6z"/>
   <path class="fil17" d="M34 115l2 1c0,0 0,1 0,1 0,0 0,1 0,1 1,0 1,0 2,0 0,0 0,0 0,0 0,0 1,0 1,-1 -1,0 -1,0 -1,0 0,0 0,-1 -1,-1 0,-1 -1,-1 -1,-2 0,0 0,-1 0,-2 1,0 1,0 1,0 1,-1 1,-1 2,-1 0,1 1,1 1,1 1,1 2,1 2,2 0,1 0,1 -1,2l-1 -1c0,0 0,-1 0,-1 0,0 0,-1 -1,-1 0,0 0,0 -1,0 0,0 0,0 0,0 0,0 0,1 0,1 0,0 0,0 1,1 0,1 1,1 1,1 0,1 0,1 0,2 0,0 0,0 0,1 0,0 -1,1 -1,1 -1,0 -1,0 -2,0 0,0 -1,0 -1,-1 -1,0 -2,-1 -2,-2 0,0 0,-1 0,-2zm8 3c0,-1 1,-1 1,-2 1,0 1,0 1,0 1,0 1,-1 2,0 0,0 1,0 1,0 1,0 2,1 2,2 1,1 1,2 0,3 0,2 -1,2 -2,3 -1,0 -2,0 -3,0 -1,-1 -2,-2 -2,-3 -1,-1 -1,-2 0,-3zm2 1c-1,1 -1,1 -1,2 0,1 1,1 1,1 1,1 2,1 2,0 1,0 1,-1 2,-1 0,-1 0,-2 0,-2 0,-1 -1,-2 -1,-2 -1,0 -1,0 -2,0 -1,0 -1,1 -1,2zm6 7l2 -8 5 1 0 2 -4 -1 0 1 3 1 0 2 -4 -1 -1 3 -1 0zm9 2l1 -7 -2 0 0 -2 6 1 0 2 -2 -1 -1 7 -2 0zm6 -2l2 0c0,0 0,0 0,1 0,0 1,0 1,0 1,0 1,0 2,0 0,-1 0,-1 0,-1 0,0 0,0 0,-1 0,0 -1,0 -1,0 0,0 0,0 -1,0 -1,0 -2,-1 -2,-1 -1,0 -1,-1 -1,-2 0,0 0,0 0,-1 1,0 1,0 1,-1 1,0 1,0 2,0 1,0 2,0 2,1 1,0 1,1 1,1l-1 1c0,-1 -1,-1 -1,-1 0,-1 0,-1 -1,-1 0,0 -1,1 -1,1 0,0 0,0 0,0 0,0 0,1 0,1 0,0 1,0 1,0 1,0 2,1 2,1 1,0 1,0 1,1 0,0 1,0 1,1 0,0 -1,1 -1,1 0,1 0,1 -1,1 0,0 -1,0 -2,0 -1,0 -1,0 -2,0 -1,-1 -1,-1 -1,-2zm10 2l-3 -8 1 0 3 5 0 -5 2 -1 2 5 1 -5 1 -1 0 9 -2 0 -3 -6 0 7 -2 0zm11 -2l-3 -8 1 0 3 7 -1 1zm2 -4l1 -1c1,1 1,1 1,1 1,0 1,0 2,0 0,0 0,-1 1,-1 0,0 0,0 0,-1 0,0 -1,0 -1,0 0,0 0,0 0,0 -1,0 -1,0 -2,0 -1,0 -1,0 -2,0 0,0 -1,0 -1,-1 0,0 0,-1 0,-1 0,-1 0,-1 0,-1 1,-1 1,-1 2,-1 1,-1 1,-1 2,-1 1,1 1,1 1,2l-1 0c0,0 0,0 -1,0 0,0 0,0 -1,0 0,0 -1,0 -1,1 0,0 0,0 0,0 0,0 0,1 1,1 0,0 0,0 1,-1 1,0 2,0 2,0 1,0 1,0 1,1 1,0 1,0 1,1 0,0 0,0 0,1 0,0 0,1 0,1 -1,1 -1,1 -2,1 -1,1 -1,1 -2,1 -1,-1 -1,-1 -2,-2zm8 -3l1 -1c0,0 1,0 1,0 0,0 1,0 1,0 1,0 1,-1 1,-1 0,0 0,-1 0,-1 0,0 0,0 0,0 -1,0 -1,0 -1,0 0,0 -1,0 -1,0 -1,1 -2,1 -2,1 -1,0 -2,-1 -2,-1 0,-1 0,-1 0,-1 0,-1 0,-1 0,-2 0,0 1,0 1,-1 1,0 2,-1 3,0 0,0 1,0 1,1l-1 1c0,-1 -1,-1 -1,-1 0,0 -1,0 -1,0 0,1 -1,1 -1,1 0,0 0,1 0,1 0,0 1,0 1,0 0,0 1,0 1,0 1,-1 2,-1 2,-1 1,0 1,0 1,0 1,1 1,1 1,1 1,1 1,1 1,2 0,0 0,1 -1,1 0,0 0,1 -1,1 -1,1 -2,1 -2,1 -1,0 -2,-1 -2,-1z"/>
   <path class="fil18" d="M49 47l7 0 0 -8 8 0 0 8 5 0 0 -8 9 0 0 8c1,0 2,0 3,0 2,0 4,1 6,2 1,1 3,3 4,5 1,1 1,3 1,6 0,2 0,4 -2,6 -1,2 -3,4 -5,5 3,1 6,2 7,4 2,3 3,5 3,8 0,3 0,5 -2,7 -1,2 -2,4 -4,5 -2,2 -5,3 -8,3 -1,0 -2,0 -3,0l0 8 -9 0 0 -8 -1 0 -4 0 0 8 -8 0 0 -8 -7 0 0 -51zm11 8l0 12 7 0c5,0 7,0 8,0 2,0 4,-1 5,-2 1,-1 2,-2 2,-4 0,-2 -1,-3 -2,-4 -1,-1 -2,-1 -4,-2 -1,0 -4,0 -10,0l-6 0zm0 21l0 13 10 0c4,0 7,0 8,0 2,0 3,-1 4,-2 1,-1 2,-2 2,-4 0,-2 -1,-3 -2,-4 0,-1 -2,-2 -3,-3 -2,0 -5,0 -10,0l-9 0z"/>
   <path class="fil19" d="M48 45l6 0 0 -8 9 0 0 8 5 0 0 -8 9 0 0 9c1,0 2,0 3,0 2,0 4,1 5,2 2,1 4,3 5,4 1,2 1,4 1,6 0,3 0,5 -2,7 -1,2 -3,4 -5,5 3,1 6,2 7,4 2,3 3,5 3,8 0,2 0,5 -2,7 -1,2 -2,4 -4,5 -3,2 -5,2 -8,3 -1,0 -2,0 -3,0l0 8 -9 0 0 -8 -2 0 -3 0 0 8 -9 0 0 -8 -6 0 0 -52zm11 9l0 12 7 0c5,0 7,0 8,0 2,0 4,-1 5,-2 1,-1 1,-2 1,-4 0,-2 0,-3 -1,-4 -1,-1 -2,-2 -4,-2 -1,0 -4,0 -10,0l-6 0zm0 21l0 13 10 0c4,0 7,0 8,0 2,0 3,-1 4,-2 1,-1 2,-3 2,-4 0,-2 -1,-3 -2,-4 -1,-1 -2,-2 -3,-3 -2,0 -5,0 -10,0l-9 0z"/>
   <path class="fil20" d="M48 46l6 0 0 -9 9 0 0 1 -8 0 0 8 -7 0 0 51 0 0 0 -51zm16 0l4 0 0 -9 9 0 0 1 -8 0 0 8 -5 0 0 0zm13 0c1,0 2,0 3,0 2,0 4,1 5,2 2,1 3,2 3,3 0,-1 -1,-2 -2,-2 -2,-1 -4,-2 -6,-2 -1,0 -1,0 -3,-1l0 0zm8 24c3,1 5,2 6,4 -1,-1 -4,-3 -7,-4 0,0 1,0 1,0zm-16 35l-1 0 0 -7 1 0 0 7zm-14 0l-1 0 0 -7 1 0 0 7zm4 -39l7 0c5,0 7,0 8,0 2,0 4,-1 5,-2 1,-1 1,-2 1,-4 0,-1 0,-2 -1,-3 1,0 1,0 1,0 1,1 1,2 1,4 0,1 0,3 -2,4 -1,1 -2,1 -4,2 -1,0 -4,0 -8,0l-8 0 0 -1zm0 22l10 0c4,0 7,0 8,0 2,0 3,-1 4,-2 1,-1 2,-3 2,-4 0,-2 -1,-3 -2,-4l0 0c1,0 1,0 1,0 1,2 1,3 1,4 0,2 0,4 -1,5 -1,1 -3,2 -4,2 -2,0 -4,0 -8,0l-11 0 0 -1z"/>
   <path class="fil9" d="M77 38l-9 7 0 0 -1 0 -19 16 0 14 11 -9 0 0 0 -12 6 0c4,0 7,0 9,0l9 -7c-1,-1 -2,-1 -3,-1 -1,0 -2,0 -3,0l0 -8zm-14 3l0 4 1 0 -16 14 0 -5 15 -13zm5 1l0 -5 6 0 -6 5z"/>
   <path class="fil21" d="M63 37l0 0 0 8 0 0 0 -8zm13 0l1 0 0 8c0,0 -1,0 -1,0l0 -8zm11 12c1,1 2,2 3,3 1,2 1,4 1,6 0,3 0,5 -2,7 -1,2 -3,3 -5,4 0,0 -1,0 -1,0 2,-1 4,-2 6,-4 1,-2 2,-5 2,-7 0,-2 -1,-4 -2,-6 -1,-1 -1,-2 -2,-3zm3 24c0,0 1,1 1,1 2,3 3,5 3,8 0,2 0,5 -2,7 -1,2 -2,4 -4,5 -3,2 -5,2 -8,3 -1,0 -2,0 -3,0l0 8 -9 0 0 -1 8 0 0 -8c2,0 3,0 3,0 3,0 6,-1 8,-2 2,-2 4,-3 5,-6 1,-2 1,-4 1,-6 0,-3 0,-6 -2,-8 -1,-1 -1,-1 -1,-1zm-23 24l-1 0 -3 0 0 8 -9 0 0 -1 9 0 0 -7 3 0 1 -1 0 1zm-13 0l-6 0 0 0 6 0 0 0zm5 -43l0 11 -1 0 0 -11 7 0c5,0 8,0 9,0 2,0 3,0 4,1 -1,0 -2,-1 -3,-1 -1,0 -4,0 -10,0l-6 0zm0 21l0 13 -1 0 0 -14 9 0c5,0 9,0 10,1 1,0 2,1 3,1 -1,0 -1,0 -2,-1 -2,0 -5,0 -10,0l-9 0z"/>
   <path class="fil22" d="M105 47c4,7 7,15 7,23 0,25 -20,45 -44,45 -17,0 -31,-9 -39,-22 8,13 22,21 38,21 25,0 44,-20 44,-44 0,-8 -2,-16 -6,-23z"/>
   <path class="fil23" d="M37 102c-6,-5 -10,-12 -12,-21 -7,-23 7,-47 31,-54 16,-4 32,1 42,11 -10,-10 -26,-14 -42,-10 -23,6 -37,30 -31,54 2,8 6,15 12,20z"/>
   <path class="fil7" d="M35 15c1,0 2,0 2,0 0,0 0,1 -1,1 -1,1 -1,1 -2,1 0,-1 1,-1 1,-2z"/>
   <path class="fil7" d="M33 12c1,0 2,0 2,0 0,0 0,1 -1,1 -1,1 -2,1 -2,0 0,0 0,0 1,-1z"/>
   <path class="fil22" d="M37 103c-5,-6 -10,-13 -12,-21 -6,-24 8,-48 31,-54 16,-4 32,0 43,11 -11,-10 -27,-15 -42,-11 -24,7 -38,31 -31,54 2,8 6,15 11,21z"/>
   <path class="fil24" d="M105 47c4,7 6,14 6,23 0,24 -19,44 -44,44 -16,0 -30,-9 -38,-22 8,13 22,22 38,22 24,0 44,-20 44,-45 0,-8 -2,-16 -6,-22z"/>
   <polygon class="fil25" points="26,97 27,101 30,102 27,104 27,107 25,105 21,106 23,103 21,100 24,100 "/>
   <polygon class="fil26" points="26,97 27,100 30,102 27,103 27,107 24,105 21,106 22,102 20,99 24,100 "/>
   <polygon class="fil13" points="111,97 110,100 106,101 109,103 110,107 112,104 116,105 114,102 116,99 113,99 "/>
   <polygon class="fil25" points="110,97 110,101 106,102 109,104 109,107 112,105 115,106 114,103 116,100 113,100 "/>
   <polygon class="fil26" points="110,97 110,100 106,102 109,103 109,107 112,105 116,106 114,102 116,99 113,100 "/>
   <g style="clip-path:url(#id3)">
    <polygon class="fil27" points="-76,-86 218,-86 218,229 -76,229 "/>
    <g id="Layer_x0020_1_0">
     <metadata id="CorelCorpID_1Corel-Layer"/>
     <g>
      <path id="1" class="fil28" d="M167 0c37,0 68,30 68,68 0,38 -31,68 -68,68 -20,0 -37,-8 -49,-20 0,-1 0,-1 0,-1l1 -1c0,0 0,0 1,0l0 -1c0,0 0,0 1,-1l0 0c0,0 0,-1 1,-1l0 0c0,-1 0,-1 1,-1l0 -1c0,0 0,0 0,-1l1 0 0 0c5,-8 9,-17 10,-26l0 -1c0,0 0,0 0,-1 0,0 0,0 0,-1 1,0 1,0 1,0 0,-1 0,-1 0,-1 0,-1 0,-1 0,-1 0,0 0,-1 0,-1l0 -1c0,0 0,-1 0,-1l0 0c0,-1 0,-1 0,-2l0 0c0,0 0,-1 0,-2 0,0 0,-1 0,-1l0 0c0,-1 0,-1 0,-2l0 0c0,-1 0,-1 0,-2l0 0c0,0 0,-1 0,-1 0,0 0,-1 0,-1 0,0 0,-1 0,-1 0,0 0,0 0,-1 -1,0 -1,0 -1,0 0,-1 0,-1 0,-1 0,-1 0,-1 0,-1 0,0 0,-1 0,-1l0 0 0 0 0 -1c-2,-9 -5,-17 -10,-24 -1,-1 -1,-1 -1,-2l0 0c-1,0 -1,-1 -1,-1l0 0c-1,0 -1,-1 -1,-1l0 0c-1,-1 -1,-1 -1,-2l0 0c-1,0 -1,0 -1,-1l0 0c-1,0 -1,-1 -1,-1l-1 0c0,0 0,-1 0,-1l-1 0c0,-1 0,-1 0,-1 12,-14 30,-23 51,-23z"/>
      <path class="fil29" d="M155 35l24 0 0 21 21 0 -1 24 -21 0 0 21 -24 0 1 -21 -21 0 0 0c0,1 0,1 0,1l0 1c0,3 -1,5 -2,8 7,12 20,19 35,19 22,0 41,-18 41,-41 0,-22 -19,-41 -41,-41 -15,0 -29,8 -36,21 1,3 2,6 3,9l0 -1 21 0 0 -21zm12 -31c4,0 8,0 12,1l0 3c-4,0 -8,-1 -12,-1 -5,0 -9,1 -13,2l0 -4c4,-1 8,-1 13,-1zm35 10c7,5 13,11 18,18l-3 3c-4,-7 -10,-13 -17,-18l2 -3zm28 41c1,4 1,9 1,13 0,4 0,8 -1,12l-4 0c1,-4 2,-8 2,-12 0,-4 -1,-9 -2,-13l4 0zm-9 49c-5,7 -11,13 -18,18l-3 -3c7,-5 13,-11 18,-18l3 3zm-42 28c-4,0 -8,1 -12,1 -5,0 -9,-1 -13,-1l0 -4c4,1 8,1 13,1 4,0 8,0 12,-1l0 4zm-48 -10c-4,-3 -8,-6 -11,-9 0,0 0,-1 1,-1l0 0c0,0 0,-1 1,-1l0 0c0,-1 0,-1 0,-1 4,3 7,7 12,9l-3 3zm-13 -96c4,-5 8,-8 12,-11l3 2c-5,3 -9,7 -12,11 -1,0 -1,0 -1,-1l0 0c-1,0 -1,0 -1,-1l0 0c-1,0 -1,0 -1,0zm60 -14c7,1 15,4 21,8l-9 9c-4,-2 -8,-4 -12,-5l0 -12zm28 32l8 -8c5,6 8,13 9,21l-12 0c-1,-4 -3,-9 -5,-13zm5 35l12 0c-1,8 -4,15 -9,21l-8 -8c2,-4 4,-8 5,-13zm-21 28l9 9c-7,4 -14,7 -22,9l0 -12c5,-2 9,-3 13,-6zm-34 6l0 12c-8,-2 -15,-5 -22,-9l9 -9c4,3 8,4 13,6zm-13 -84l-8 -9c6,-4 13,-7 21,-8l0 12c-5,1 -9,3 -13,5z"/>
      <path class="fil30" d="M68 3c37,0 67,30 67,67 0,38 -30,68 -67,68 -38,0 -68,-30 -68,-68 0,-37 30,-67 68,-67z"/>
     </g>
     <g style="clip-path:url(#id4)">
      <g>
       <path id="1" class="fil31" d="M116 13l-7 -9 -137 110 5 9 139 -110zm-8 -11l-2 -3 -139 109 3 4 138 -110z"/>
      </g>
     </g>
     <g style="clip-path:url(#id5)">
      <path class="fil4" d="M68 3c37,0 67,30 67,67 0,38 -30,68 -67,68 -38,0 -68,-30 -68,-68 0,-37 30,-67 68,-67z"/>
      <path class="fil32" d="M1 57l5 0c-1,5 -1,9 -1,13 0,5 0,9 1,13l-5 0c-1,-4 -1,-8 -1,-13 0,-4 0,-8 1,-13zm67 -54c4,0 8,0 13,1l0 5c-5,-1 -9,-1 -13,-1 -5,0 -9,0 -13,1l0 -5c4,-1 8,-1 13,-1zm37 11c8,5 14,11 19,19l-4 3c-5,-7 -11,-13 -18,-18l3 -4zm29 43c1,5 1,9 1,13 0,5 0,9 -1,13l-5 0c1,-4 1,-8 1,-13 0,-4 0,-8 -1,-13l5 0zm-10 51c-5,7 -11,13 -18,18l-4 -3c7,-5 14,-11 18,-18l4 3zm-43 29c-5,0 -9,1 -13,1 -5,0 -9,0 -13,-1l0 -5c4,1 8,1 13,1 4,0 8,0 13,-1l0 5zm-51 -11c-7,-4 -14,-11 -18,-18l3 -3c5,7 11,13 18,18l-3 3zm-18 -94c5,-7 11,-13 18,-18l3 4c-7,4 -13,11 -18,18l-3 -4z"/>
      <path class="fil33" d="M68 4c37,0 67,30 67,67 0,37 -30,67 -67,67 -37,0 -67,-30 -67,-67 0,-37 30,-67 67,-67zm0 1c36,0 66,29 66,66 0,36 -30,66 -66,66 -37,0 -66,-30 -66,-66 0,-37 29,-66 66,-66z"/>
      <path class="fil34" d="M67 3c37,0 67,30 67,67 0,37 -30,67 -67,67 -37,0 -66,-30 -66,-67 0,-37 29,-67 66,-67zm0 1c37,0 67,30 67,66 0,37 -30,66 -67,66 -36,0 -66,-29 -66,-66 0,-36 30,-66 66,-66z"/>
      <path class="fil35" d="M68 4c36,0 66,29 66,66 0,37 -30,67 -66,67 -37,0 -67,-30 -67,-67 0,-37 30,-66 67,-66zm0 0c36,0 66,30 66,66 0,37 -30,67 -66,67 -37,0 -67,-30 -67,-67 0,-36 30,-66 67,-66z"/>
     </g>
     <g style="clip-path:url(#id6)">
      <g>
       <path id="1" class="fil36" d="M117 11l-7 -8 -137 110 6 8 138 -110zm-7 -11l-3 -3 -138 110 2 3 139 -110z"/>
      </g>
     </g>
     <g style="clip-path:url(#id7)">
      <path class="fil4" d="M68 4c36,0 66,29 66,66 0,37 -30,67 -66,67 -37,0 -67,-30 -67,-67 0,-37 30,-66 67,-66zm0 0c36,0 66,30 66,66 0,37 -30,67 -66,67 -37,0 -67,-30 -67,-67 0,-36 30,-66 67,-66z"/>
      <path class="fil34" d="M67 7c35,0 63,28 63,63 0,35 -28,63 -63,63 -34,0 -62,-28 -62,-63 0,-35 28,-63 62,-63z"/>
      <path class="fil37" d="M68 8c34,0 63,28 63,63 0,35 -29,63 -63,63 -35,0 -63,-28 -63,-63 0,-35 28,-63 63,-63z"/>
      <path class="fil38" d="M68 8c34,0 62,28 62,62 0,35 -28,63 -62,63 -35,0 -63,-28 -63,-63 0,-34 28,-62 63,-62z"/>
     </g>
     <g style="clip-path:url(#id8)">
      <g>
       <path id="1" class="fil31" d="M116 12l-7 -9 -137 110 5 9 139 -110zm-8 -11l-2 -3 -139 109 3 4 138 -110z"/>
      </g>
     </g>
     <g style="clip-path:url(#id9)">
      <path class="fil4" d="M68 8c34,0 62,28 62,62 0,35 -28,63 -62,63 -35,0 -63,-28 -63,-63 0,-34 28,-62 63,-62z"/>
      <path class="fil39" d="M68 26c24,0 44,20 44,44 0,25 -20,45 -44,45 -25,0 -45,-20 -45,-45 0,-24 20,-44 45,-44z"/>
      <polygon class="fil31" points="26,97 27,100 30,101 27,103 27,107 24,104 21,105 22,102 20,99 24,99 "/>
      <path class="fil40" d="M12 80l-1 -3c0,-1 0,-1 0,-2 0,0 0,0 0,0 0,-1 1,-1 1,-1 0,0 0,-1 1,-1 0,0 1,0 1,1 0,0 1,0 1,0 0,0 0,-1 0,-1 1,0 1,0 2,0 0,0 0,0 1,0 0,0 0,0 1,0 0,1 0,1 0,1 0,1 0,1 1,2l0 3 -8 1zm1 -2l2 0 0 -1c-1,-1 -1,-1 -1,-1 0,0 0,-1 0,-1 0,0 0,0 -1,0 0,0 0,0 0,0 0,1 -1,1 -1,1 0,0 1,1 1,1l0 1zm3 0l2 0 0 -2c0,0 0,-1 0,-1 0,0 0,0 0,-1 -1,0 -1,0 -1,0 0,0 -1,0 -1,1 0,0 0,0 0,0 0,0 0,1 0,2l0 1zm3 -7l-8 0 0 -2 8 0 0 2zm0 -5l-6 -1 -1 2 -1 0 1 -7 1 0 0 3 7 1 -1 2zm0 -12l1 -1c1,0 1,1 1,2 1,0 1,1 0,2 0,1 -1,2 -1,2 -1,1 -3,1 -4,1 -1,-1 -2,-1 -3,-2 0,-1 0,-2 0,-3 0,-1 1,-2 2,-3 0,0 1,0 1,0l0 2c0,0 -1,0 -1,0 0,0 0,1 -1,1 0,1 0,1 1,2 0,0 1,1 2,1 1,0 1,0 2,0 0,0 1,-1 1,-1 0,-1 0,-1 0,-2 0,0 -1,0 -1,-1zm0 -3c-1,-1 -2,-1 -2,-2 0,0 0,-1 -1,-1 0,0 0,-1 0,-1 0,-1 0,-1 1,-2 0,-1 1,-2 2,-2 1,0 2,0 4,0 1,1 2,2 2,3 0,1 0,2 -1,3 0,1 -1,2 -2,2 -1,0 -2,0 -3,0zm1 -2c0,0 1,1 2,0 0,0 1,0 1,-1 1,0 1,-1 0,-2 0,0 0,-1 -1,-1 -1,-1 -2,-1 -3,-1 0,1 -1,1 -1,2 0,0 0,1 0,1 0,1 1,2 2,2zm7 -5l-7 -5 1 -1 7 5 -1 1zm2 -3l-6 -5 1 -1 6 1 -4 -4 1 -1 6 5 -1 2 -6 -1 4 3 -1 1zm11 -14l1 0c1,1 1,1 1,2 -1,1 -1,1 -2,2 -1,1 -2,1 -3,1 -1,-1 -2,-1 -3,-2 0,-1 -1,-3 0,-4 0,-1 0,-2 1,-2 1,-1 2,-1 3,-1 0,0 1,0 1,1l-1 1c0,0 0,0 -1,0 0,0 -1,0 -1,0 -1,0 -1,1 -1,1 0,1 0,2 1,3 0,0 1,1 2,1 0,0 1,0 1,0 1,0 1,-1 1,-1 0,-1 0,-1 0,-2zm11 -2l-2 1 -1 -2 -3 2 0 2 -2 0 0 -9 2 0 6 6zm-4 -2l-2 -2 0 3 2 -1zm4 -1l1 0c1,0 1,0 1,1 1,0 1,0 2,0 0,0 1,-1 1,-1 0,0 0,-1 0,-1 0,0 0,0 0,0 0,0 -1,-1 -1,-1 0,0 -1,0 -1,0 -1,0 -2,0 -3,0 0,0 -1,-1 -1,-1 0,-1 0,-1 0,-2 0,0 1,0 1,-1 1,0 1,0 2,0 1,-1 2,-1 2,0 1,0 1,1 1,1l-1 1c0,-1 -1,-1 -1,-1 0,0 -1,0 -1,0 0,0 -1,0 -1,1 0,0 0,0 0,0 0,0 0,1 0,1 0,0 1,0 2,0 1,0 1,0 2,0 0,0 1,0 1,0 0,1 0,1 1,2 0,0 0,1 0,1 -1,1 -1,1 -1,1 -1,1 -1,1 -2,1 -1,0 -2,0 -3,0 0,0 -1,-1 -1,-2zm9 1l-1 -8 1 -1 1 9 -1 0zm3 -1l0 -8 1 0 4 6 0 -6 1 0 1 8 -2 0 -4 -5 0 5 -1 0zm9 -4c0,-1 0,-1 1,-2 0,0 0,-1 1,-1 0,0 0,0 1,-1 0,0 1,0 2,0 1,1 2,1 2,2 1,1 1,2 1,3 0,2 -1,3 -2,3 -1,1 -2,1 -3,1 -1,0 -2,-1 -3,-2 0,-1 0,-2 0,-3zm2 0c-1,1 0,2 0,3 0,0 1,0 1,1 1,0 2,0 2,-1 1,0 1,-1 1,-2 0,-1 0,-2 0,-2 0,-1 -1,-1 -2,-1 0,0 -1,0 -1,0 -1,1 -1,1 -1,2zm10 4l2 1c0,0 0,1 0,1 0,0 1,1 1,1 0,0 1,0 1,0 1,0 1,0 1,-1 0,0 0,0 0,0 0,0 0,0 0,-1 -1,0 -1,0 -1,-1 -1,0 -2,-1 -2,-1 0,-1 0,-1 0,-2 0,0 1,-1 1,-1 0,0 1,0 1,0 1,0 1,0 2,0 1,1 1,1 2,2 0,0 0,1 0,2l-2 -1c0,0 0,-1 0,-1 0,0 0,0 -1,-1 0,0 -1,0 -1,0 0,0 0,0 0,1 0,0 0,0 0,0 0,0 0,1 1,1 1,1 1,1 1,2 1,0 1,0 1,1 0,0 0,1 0,1 -1,1 -1,1 -1,1 -1,1 -1,1 -2,1 0,0 -1,-1 -2,-1 -1,0 -1,-1 -2,-2 0,0 0,-1 0,-2zm9 2c0,0 1,-1 1,-1 1,-1 1,-1 1,-1 1,0 1,0 2,0 0,0 1,0 1,1 2,0 2,1 2,2 1,1 0,3 0,4 -1,1 -2,2 -3,2 -1,0 -2,0 -3,-1 -1,0 -2,-1 -2,-2 0,-1 0,-2 1,-4zm1 1c0,1 -1,2 0,2 0,1 0,2 1,2 0,0 1,0 1,0 1,0 2,0 2,-1 1,-1 1,-2 1,-2 0,-1 -1,-2 -1,-2 -1,0 -1,0 -2,0 -1,0 -1,0 -2,1zm4 8l6 -6 4 4 -1 1 -3 -3 -1 2 3 2 -1 1 -3 -2 -2 2 -2 -1zm7 7l5 -5 -1 -2 1 -1 4 6 -1 1 -2 -2 -5 4 -1 -1zm4 5l6 -6 1 2 -5 4 6 -2 1 2 -4 4 6 -2 0 2 -8 2 -1 -1 5 -5 -6 2 -1 -2zm6 16l-1 -2 2 -1 -1 -4 -2 0 0 -2 9 1 0 2 -7 6zm2 -4l3 -2 -3 -1 0 3zm-2 4l9 -1 0 4c0,1 0,1 0,2 0,0 0,1 -1,1 0,0 0,0 -1,0 0,0 -1,0 -1,0 -1,0 -1,-1 -1,-1 -1,0 -1,0 -1,1 0,0 -1,0 -1,1l-2 1 0 -2 2 -2c0,0 1,0 1,-1 0,0 0,0 0,0 0,0 0,-1 0,-1l0 0 -4 0 0 -2zm5 1l0 2c1,0 1,1 1,1 0,0 0,1 0,1 0,0 1,0 1,0 0,0 0,0 0,-1 1,0 1,0 1,0 0,0 0,-1 0,-2l-1 -1 -2 0zm-4 8l8 0 0 6 -1 0 0 -4 -2 0 0 4 -1 0 0 -4 -3 0 0 4 -1 0 0 -6z"/>
      <path class="fil40" d="M34 115l2 1c0,1 0,1 0,1 0,1 0,1 1,1 0,1 0,1 1,1 0,0 0,0 0,-1 1,0 1,0 1,0 0,0 -1,-1 -1,-1 0,0 0,0 -1,-1 0,-1 -1,-1 -1,-2 0,0 0,-1 1,-1 0,-1 0,-1 0,-1 1,0 1,0 2,0 0,0 1,0 1,0 1,1 2,2 2,2 0,1 0,2 -1,2l-1 -1c0,0 0,0 0,-1 0,0 0,0 -1,0 0,-1 0,-1 -1,-1 0,0 0,0 0,0 0,1 0,1 0,1 0,0 0,1 1,1 0,1 1,1 1,2 0,0 0,0 0,1 0,0 0,1 0,1 0,1 -1,1 -1,1 -1,0 -1,0 -2,0 0,0 -1,0 -1,-1 -1,0 -2,-1 -2,-1 0,-1 0,-2 0,-3zm8 3c0,0 1,-1 1,-1 1,-1 1,-1 1,-1 1,0 1,0 2,0 0,0 1,0 1,0 1,1 2,1 3,2 0,1 0,2 -1,4 0,1 -1,2 -2,2 -1,0 -2,0 -3,0 -1,-1 -2,-1 -2,-2 -1,-1 0,-2 0,-4zm2 1c-1,1 -1,2 -1,2 0,1 1,1 1,2 1,0 2,0 2,0 1,-1 1,-1 2,-2 0,-1 0,-2 0,-2 0,-1 -1,-1 -1,-1 -1,-1 -1,-1 -2,-1 -1,1 -1,1 -1,2zm6 7l2 -8 5 2 0 1 -4 -1 0 2 3 1 0 1 -4 -1 -1 3 -1 0zm9 2l1 -7 -2 0 0 -1 6 1 0 1 -2 0 -1 6 -2 0zm6 -2l2 0c0,0 0,1 0,1 1,0 1,0 1,0 1,0 1,0 2,0 0,0 0,-1 0,-1 0,0 0,0 0,0 0,0 -1,-1 -1,-1 0,0 0,0 -1,0 -1,0 -2,0 -2,-1 0,0 -1,-1 -1,-1 0,-1 0,-1 1,-1 0,-1 0,-1 1,-1 0,0 0,-1 1,-1 1,0 2,1 2,1 1,0 1,1 1,2l-1 0c0,-1 -1,-1 -1,-1 0,0 0,0 -1,0 0,0 -1,0 -1,0 0,0 0,0 0,1 0,0 0,0 0,0 0,0 1,0 2,1 0,0 1,0 1,0 1,0 1,0 1,1 0,0 1,1 1,1 0,1 0,1 -1,1 0,1 0,1 -1,1 0,1 -1,1 -2,1 -1,0 -1,0 -2,-1 0,0 -1,-1 -1,-2zm10 2l-3 -7 1 -1 3 6 0 -6 2 -1 2 6 1 -6 1 0 0 8 -2 0 -3 -5 0 6 -2 0zm11 -2l-3 -8 1 0 3 7 -1 1zm2 -4l1 0c1,0 1,0 1,0 1,1 1,0 2,0 0,0 1,0 1,-1 0,0 0,0 0,0 0,-1 -1,-1 -1,-1 0,0 0,0 0,0 -1,0 -1,0 -2,0 -1,1 -1,1 -2,0 0,0 -1,0 -1,-1 0,0 0,0 0,-1 0,0 0,-1 0,-1 1,0 1,-1 2,-1 1,0 1,-1 2,0 1,0 1,0 2,1l-2 1c0,-1 0,-1 -1,-1 0,0 0,0 -1,0 0,0 0,1 -1,1 0,0 0,0 0,1 0,0 1,0 1,0 0,0 1,0 1,0 1,0 2,-1 2,0 1,0 1,0 1,0 1,0 1,0 1,1 0,0 0,1 0,1 0,1 0,1 0,2 -1,0 -1,0 -2,1 -1,0 -1,0 -2,0 -1,0 -1,-1 -2,-2zm8 -3l1 -1c0,0 1,1 1,1 0,0 1,0 1,-1 1,0 1,0 1,-1 0,0 0,0 0,-1 0,0 0,0 0,0 -1,0 -1,0 -1,0 0,0 -1,0 -1,1 -1,0 -2,0 -2,0 -1,0 -2,0 -2,-1 0,0 0,-1 0,-1 0,-1 0,-1 0,-1 0,-1 1,-1 1,-1 1,-1 2,-1 3,-1 0,0 1,0 1,1l-1 1c0,0 -1,-1 -1,-1 0,0 -1,0 -1,1 0,0 -1,0 -1,0 0,1 0,1 0,1 0,0 1,0 1,0 0,0 1,0 1,0 1,0 2,0 2,0 1,-1 1,0 1,0 1,0 1,0 1,1 1,0 1,0 1,1 0,0 0,1 -1,1 0,1 0,1 -1,1 -1,1 -2,1 -2,1 -1,0 -2,0 -2,-1z"/>
      <path class="fil41" d="M12 80l-1 -4c0,0 0,-1 0,-1 0,-1 0,-1 0,-1 0,0 1,-1 1,-1 0,0 0,0 1,0 0,0 1,0 1,0 0,0 1,0 1,1 0,-1 0,-1 0,-2 1,0 1,0 2,0 0,0 0,0 1,0 0,0 0,0 1,1 0,0 0,0 0,1 0,0 0,1 1,2l0 3 -8 1zm1 -2l2 0 0 -2c-1,0 -1,-1 -1,-1 0,0 0,0 0,0 0,-1 0,-1 -1,-1 0,0 0,1 0,1 0,0 -1,0 -1,0 0,1 1,1 1,2l0 1zm3 -1l2 0 0 -1c0,-1 0,-1 0,-2 0,0 0,0 0,0 -1,0 -1,0 -1,0 0,0 -1,0 -1,0 0,0 0,0 0,0 0,1 0,1 0,2l0 1zm3 -7l-8 0 0 -2 8 0 0 2zm0 -5l-6 -1 -1 2 -1 0 1 -6 1 0 0 2 7 1 -1 2zm0 -11l1 -2c1,1 1,1 1,2 1,1 1,2 0,2 0,1 -1,2 -1,3 -1,0 -3,0 -4,0 -1,0 -2,-1 -3,-2 0,-1 0,-2 0,-3 0,-1 1,-2 2,-2 0,-1 1,-1 1,-1l0 2c0,0 -1,0 -1,0 0,1 0,1 -1,1 0,1 0,2 1,2 0,1 1,1 2,1 1,0 1,0 2,0 0,0 1,0 1,-1 0,0 0,-1 0,-1 0,-1 -1,-1 -1,-1zm0 -4c-1,-1 -2,-1 -2,-1 0,-1 0,-1 -1,-2 0,0 0,-1 0,-1 0,-1 0,-1 1,-2 0,-1 1,-2 2,-2 1,0 2,0 4,1 1,0 2,1 2,2 0,1 0,2 -1,3 0,1 -1,2 -2,2 -1,1 -2,1 -3,0zm1 -2c0,1 1,1 2,1 0,0 1,-1 1,-1 1,-1 1,-2 0,-2 0,-1 0,-1 -1,-2 -1,0 -2,0 -3,0 0,0 -1,0 -1,1 0,1 0,1 0,2 0,0 1,1 2,1zm7 -4l-7 -5 1 -2 7 5 -1 2zm2 -3l-6 -6 1 -1 6 1 -4 -4 1 -1 6 6 -1 1 -6 -1 4 4 -1 1zm11 -14l1 -1c1,1 1,2 1,2 -1,1 -1,2 -2,2 -1,1 -2,1 -3,1 -1,0 -2,-1 -3,-2 0,-1 -1,-2 0,-3 0,-1 0,-2 1,-3 1,0 2,-1 3,-1 0,0 1,1 1,1l-1 1c0,0 0,0 -1,0 0,0 -1,0 -1,0 -1,1 -1,1 -1,2 0,0 0,1 1,2 0,1 1,1 2,1 0,1 1,0 1,0 1,0 1,0 1,-1 0,0 0,-1 0,-1zm11 -3l-2 1 -1 -1 -3 1 0 2 -2 1 0 -9 2 -1 6 6zm-4 -1l-2 -3 0 3 2 0zm4 -2l1 0c1,0 1,1 1,1 1,0 1,0 2,0 0,0 1,0 1,-1 0,0 0,0 0,-1 0,0 0,0 0,0 0,0 -1,0 -1,0 0,0 -1,0 -1,0 -1,0 -2,0 -3,-1 0,0 -1,0 -1,-1 0,0 0,-1 0,-1 0,-1 1,-1 1,-1 1,-1 1,-1 2,-1 1,0 2,0 2,0 1,0 1,1 1,2l-1 0c0,0 -1,-1 -1,-1 0,0 -1,0 -1,0 0,0 -1,1 -1,1 0,0 0,0 0,0 0,1 0,1 0,1 0,0 1,0 2,0 1,0 1,0 2,0 0,0 1,0 1,1 0,0 0,0 1,1 0,0 0,1 0,1 -1,1 -1,1 -1,2 -1,0 -1,0 -2,0 -1,1 -2,1 -3,0 0,0 -1,-1 -1,-2zm9 1l-1 -8 1 0 1 8 -1 0zm3 0l0 -9 1 0 4 6 0 -6 1 0 1 9 -2 0 -4 -6 0 6 -1 0zm9 -5c0,0 0,-1 1,-2 0,0 0,0 1,-1 0,0 0,0 1,0 0,0 1,0 2,0 1,0 2,1 2,1 1,1 1,2 1,4 0,1 -1,2 -2,3 -1,0 -2,1 -3,0 -1,0 -2,0 -3,-1 0,-1 0,-2 0,-4zm2 1c-1,1 0,1 0,2 0,0 1,1 1,1 1,0 2,0 2,-1 1,0 1,-1 1,-2 0,-1 0,-1 0,-2 0,0 -1,-1 -2,-1 0,0 -1,0 -1,1 -1,0 -1,1 -1,2zm10 3l2 1c0,1 0,1 0,1 0,1 1,1 1,1 0,0 1,0 1,0 1,0 1,0 1,0 0,0 0,-1 0,-1 0,0 0,0 0,0 -1,0 -1,-1 -1,-1 -1,-1 -2,-1 -2,-2 0,0 0,-1 0,-2 0,0 1,0 1,-1 0,0 1,0 1,0 1,0 1,0 2,0 1,1 1,1 2,2 0,1 0,1 0,2l-2 -1c0,0 0,0 0,-1 0,0 0,0 -1,0 0,0 -1,-1 -1,0 0,0 0,0 0,0 0,0 0,0 0,0 0,1 0,1 1,2 1,0 1,1 1,1 1,0 1,1 1,1 0,1 0,1 0,1 -1,1 -1,1 -1,2 -1,0 -1,0 -2,0 0,0 -1,0 -2,-1 -1,0 -1,-1 -2,-1 0,-1 0,-2 0,-3zm9 3c0,-1 1,-2 1,-2 1,0 1,0 1,-1 1,0 1,0 2,0 0,1 1,1 1,1 2,1 2,2 2,3 1,1 0,2 0,3 -1,1 -2,2 -3,2 -1,0 -2,0 -3,0 -1,-1 -2,-2 -2,-3 0,-1 0,-2 1,-3zm1 1c0,0 -1,1 0,2 0,0 0,1 1,1 0,1 1,1 1,1 1,-1 2,-1 2,-2 1,-1 1,-2 1,-2 0,-1 -1,-1 -1,-2 -1,0 -1,0 -2,0 -1,0 -1,1 -2,2zm4 8l6 -7 4 4 -1 1 -3 -2 -1 1 3 3 -1 1 -3 -3 -2 3 -2 -1zm7 6l5 -4 -1 -2 1 -1 4 5 -1 1 -2 -2 -5 4 -1 -1zm4 5l6 -6 1 2 -5 4 6 -1 1 1 -4 4 6 -1 0 1 -8 2 -1 -1 5 -5 -6 2 -1 -2zm6 16l-1 -2 2 -1 -1 -3 -2 -1 0 -1 9 1 0 1 -7 6zm2 -4l3 -2 -3 0 0 2zm-2 5l9 -1 0 3c0,1 0,2 0,2 0,1 0,1 -1,1 0,0 0,1 -1,1 0,0 -1,0 -1,-1 -1,0 -1,0 -1,-1 -1,0 -1,1 -1,1 0,0 -1,0 -1,1l-2 1 0 -2 2 -1c0,-1 1,-1 1,-1 0,-1 0,-1 0,-1 0,0 0,0 0,-1l0 0 -4 0 0 -1zm5 1l0 1c1,1 1,1 1,1 0,1 0,1 0,1 0,0 1,0 1,0 0,0 0,0 0,0 1,-1 1,-1 1,-1 0,0 0,-1 0,-1l-1 -2 -2 1zm-4 7l8 0 0 7 -1 0 0 -5 -2 0 0 4 -1 0 0 -4 -3 0 0 5 -1 0 0 -7z"/>
      <path class="fil41" d="M34 115l2 0c0,1 0,1 0,2 0,0 0,0 1,1 0,0 0,0 1,0 0,0 0,0 0,0 1,-1 1,-1 1,-1 0,0 -1,0 -1,-1 0,0 0,0 -1,-1 0,0 -1,-1 -1,-1 0,-1 0,-1 1,-2 0,0 0,-1 0,-1 1,0 1,0 2,0 0,0 1,0 1,1 1,0 2,1 2,2 0,0 0,1 -1,1l-1 0c0,-1 0,-1 0,-1 0,-1 0,-1 -1,-1 0,0 0,-1 -1,-1 0,1 0,1 0,1 0,0 0,0 0,0 0,1 0,1 1,2 0,0 1,1 1,1 0,0 0,1 0,1 0,1 0,1 0,1 0,1 -1,1 -1,1 -1,1 -1,1 -2,0 0,0 -1,0 -1,0 -1,-1 -2,-1 -2,-2 0,-1 0,-2 0,-2zm8 3c0,-1 1,-2 1,-2 1,0 1,-1 1,-1 1,0 1,0 2,0 0,0 1,0 1,1 1,0 2,1 3,2 0,1 0,2 -1,3 0,1 -1,2 -2,2 -1,1 -2,1 -3,0 -1,0 -2,-1 -2,-2 -1,-1 0,-2 0,-3zm2 0c-1,1 -1,2 -1,3 0,0 1,1 1,1 1,0 2,0 2,0 1,0 1,-1 2,-2 0,-1 0,-1 0,-2 0,0 -1,-1 -1,-1 -1,0 -1,0 -2,0 -1,0 -1,1 -1,1zm6 7l2 -8 5 2 0 1 -4 -1 0 2 3 1 0 1 -4 -1 -1 4 -1 -1zm9 2l1 -6 -2 -1 0 -1 6 1 0 1 -2 0 -1 6 -2 0zm6 -2l2 0c0,1 0,1 0,1 1,1 1,1 1,1 1,0 1,0 2,-1 0,0 0,0 0,-1 0,0 0,0 0,0 0,0 -1,0 -1,0 0,0 0,0 -1,-1 -1,0 -2,0 -2,0 0,-1 -1,-1 -1,-2 0,0 0,-1 1,-1 0,0 0,-1 1,-1 0,0 0,0 1,0 1,0 2,0 2,0 1,1 1,1 1,2l-1 0c0,0 -1,-1 -1,-1 0,0 0,0 -1,0 0,0 -1,0 -1,0 0,0 0,1 0,1 0,0 0,0 0,0 0,1 1,1 2,1 0,0 1,0 1,0 1,1 1,1 1,1 0,0 1,1 1,1 0,1 0,1 -1,2 0,0 0,0 -1,1 0,0 -1,0 -2,0 -1,0 -1,0 -2,-1 0,0 -1,-1 -1,-2zm10 3l-3 -8 1 0 3 5 0 -6 2 0 2 5 1 -6 1 0 0 8 -2 1 -3 -6 0 6 -2 1zm11 -3l-3 -7 1 -1 3 8 -1 0zm2 -3l1 -1c1,0 1,1 1,1 1,0 1,0 2,0 0,-1 1,-1 1,-1 0,-1 0,-1 0,-1 0,0 -1,0 -1,0 0,-1 0,-1 0,-1 -1,0 -1,1 -2,1 -1,0 -1,0 -2,0 0,0 -1,-1 -1,-1 0,-1 0,-1 0,-2 0,0 0,0 0,-1 1,0 1,0 2,-1 1,0 1,0 2,0 1,0 1,1 2,1l-2 1c0,0 0,-1 -1,-1 0,0 0,0 -1,1 0,0 0,0 -1,0 0,0 0,1 0,1 0,0 1,0 1,0 0,0 1,0 1,0 1,0 2,0 2,0 1,0 1,0 1,0 1,0 1,1 1,1 0,1 0,1 0,2 0,0 0,0 0,1 -1,0 -1,1 -2,1 -1,0 -1,0 -2,0 -1,0 -1,0 -2,-1zm8 -4l1 -1c0,1 1,1 1,1 0,0 1,0 1,0 1,-1 1,-1 1,-1 0,-1 0,-1 0,-1 0,0 0,0 0,-1 -1,0 -1,0 -1,1 0,0 -1,0 -1,0 -1,0 -2,0 -2,0 -1,0 -2,0 -2,-1 0,0 0,0 0,-1 0,0 0,-1 0,-1 0,0 1,-1 1,-1 1,-1 2,-1 3,-1 0,0 1,1 1,1l-1 1c0,0 -1,0 -1,0 0,0 -1,0 -1,0 0,0 -1,1 -1,1 0,0 0,0 0,0 0,1 1,1 1,1 0,0 1,0 1,-1 1,0 2,0 2,0 1,0 1,0 1,0 1,0 1,0 1,1 1,0 1,1 1,1 0,1 0,1 -1,2 0,0 0,0 -1,1 -1,0 -2,1 -2,0 -1,0 -2,0 -2,-1z"/>
      <path class="fil42" d="M11 80l0 -3c0,-1 0,-1 0,-2 0,0 0,0 0,-1 0,0 1,0 1,0 0,-1 0,-1 1,-1 0,0 1,0 1,0 0,1 1,1 1,1 0,0 0,-1 0,-1 1,0 1,-1 2,-1 0,0 0,0 1,0 0,1 0,1 1,1 0,0 0,1 0,1 0,0 0,1 1,2l0 3 -9 1zm2 -2l2 0 -1 -1c0,-1 0,-1 0,-1 0,-1 0,-1 0,-1 0,0 -1,0 -1,0 0,0 0,0 0,0 -1,0 -1,0 -1,1 0,0 0,0 1,1l0 1zm3 0l2 -1 0 -1c0,-1 0,-1 0,-1 0,-1 0,-1 -1,-1 0,0 0,0 0,0 -1,0 -1,0 -1,0 0,0 0,1 0,1 0,0 0,1 0,1l0 2zm3 -7l-8 -1 0 -1 8 0 0 2zm0 -6l-7 -1 0 3 -1 0 1 -7 1 0 0 3 7 1 -1 1zm0 -11l1 -1c0,0 1,1 1,1 1,1 1,2 0,3 0,1 -1,2 -2,2 0,1 -2,1 -3,0 -1,0 -2,-1 -3,-2 0,-1 0,-2 0,-3 0,-1 1,-1 2,-2 0,0 1,0 1,0l0 1c0,0 -1,1 -1,1 0,0 -1,0 -1,1 0,0 0,1 1,1 0,1 1,1 2,2 1,0 1,0 2,0 0,-1 1,-1 1,-2 0,0 0,0 0,-1 0,0 -1,-1 -1,-1zm0 -4c-1,0 -2,-1 -2,-1 0,0 -1,-1 -1,-1 0,-1 0,-1 0,-2 0,0 0,-1 1,-1 0,-1 1,-2 2,-2 1,-1 2,-1 3,0 2,1 2,2 3,3 0,1 0,2 -1,3 0,1 -1,2 -2,2 -1,0 -2,0 -3,-1zm0 -1c1,0 2,0 3,0 0,0 1,0 1,-1 0,-1 1,-1 0,-2 0,0 0,-1 -1,-1 -1,-1 -2,-1 -3,-1 0,0 -1,1 -1,1 0,1 0,2 0,2 0,1 1,1 1,2zm8 -5l-7 -5 1 -1 7 5 -1 1zm2 -3l-6 -5 1 -2 6 1 -4 -3 1 -1 6 5 -1 1 -6 -1 4 4 -1 1zm11 -14l1 -1c1,1 1,2 1,3 -1,1 -1,1 -2,2 -1,0 -2,1 -3,0 -1,0 -2,-1 -3,-2 0,-1 -1,-2 -1,-3 1,-1 1,-2 2,-3 1,0 2,0 3,0 0,0 1,0 1,1l-1 1c0,0 -1,-1 -1,-1 0,0 -1,0 -1,1 -1,0 -1,1 -1,1 0,1 0,1 1,2 0,1 1,2 2,2 0,0 1,0 1,0 1,-1 1,-1 1,-1 0,-1 0,-1 0,-2zm11 -2l-2 0 -1 -1 -3 1 0 2 -2 1 0 -9 2 -1 6 7zm-4 -2l-2 -2 0 3 2 -1zm4 -1l1 -1c1,1 1,1 1,1 1,0 1,0 2,0 0,0 1,0 1,0 0,-1 0,-1 0,-1 0,0 0,-1 0,-1 -1,0 -1,0 -1,0 0,0 -1,0 -1,0 -1,0 -2,0 -3,0 0,0 -1,-1 -1,-2 0,0 0,0 0,-1 0,0 1,-1 1,-1 0,0 1,0 2,-1 1,0 1,0 2,0 1,1 1,1 1,2l-1 0c0,0 -1,0 -1,0 0,0 -1,0 -1,0 -1,0 -1,0 -1,0 0,0 0,1 0,1 0,0 0,0 0,0 0,0 1,0 2,0 1,0 1,0 2,1 0,0 1,0 1,0 0,0 0,1 1,1 0,1 0,1 0,2 -1,0 -1,1 -1,1 -1,0 -1,1 -2,1 -1,0 -2,0 -3,0 0,-1 -1,-1 -1,-2zm9 1l-1 -9 1 0 1 8 -1 1zm3 -1l0 -8 1 0 4 5 0 -5 1 0 1 8 -2 0 -4 -5 0 5 -1 0zm9 -4c0,-1 0,-2 1,-2 0,-1 0,-1 1,-1 0,-1 0,-1 1,-1 0,0 1,0 2,0 1,0 2,1 2,2 1,1 1,2 1,3 0,1 -1,2 -2,3 -1,1 -2,1 -3,1 -1,0 -2,-1 -3,-2 0,-1 0,-2 0,-3zm2 0c-1,1 -1,2 0,2 0,1 1,1 1,1 1,0 2,0 2,0 1,-1 1,-1 1,-2 0,-1 0,-2 0,-2 0,-1 -1,-1 -2,-1 0,-1 -1,0 -1,0 -1,0 -1,1 -1,2zm10 4l2 0c0,1 0,1 0,2 0,0 0,0 1,1 0,0 1,0 1,0 1,0 1,-1 1,-1 0,0 0,0 0,0 0,-1 0,-1 0,-1 -1,0 -1,0 -2,-1 0,0 -1,-1 -1,-1 0,-1 0,-2 0,-2 0,-1 0,-1 1,-1 0,0 1,-1 1,-1 1,0 1,1 2,1 1,0 1,1 2,1 0,1 0,2 0,3l-2 -1c0,-1 0,-1 0,-1 0,0 0,-1 -1,-1 0,0 -1,0 -1,0 0,0 0,0 0,0 -1,0 -1,1 0,1 0,0 0,1 1,1 0,1 1,1 1,1 0,1 1,1 1,2 0,0 0,0 -1,1 0,0 0,1 0,1 -1,0 -1,0 -2,0 0,0 -1,0 -2,0 -1,-1 -1,-1 -2,-2 0,0 0,-1 0,-2zm9 2c0,-1 1,-1 1,-2 0,0 1,0 1,0 1,0 1,0 2,0 0,0 1,0 1,0 1,1 2,2 2,3 1,1 0,2 0,3 -1,2 -2,2 -3,3 -1,0 -2,0 -3,-1 -1,-1 -2,-2 -2,-3 0,-1 0,-2 1,-3zm1 1c0,1 -1,1 0,2 0,1 0,1 1,2 0,0 1,0 1,0 1,0 2,-1 2,-2 1,0 1,-1 1,-2 0,0 -1,-1 -1,-1 -1,-1 -2,-1 -2,-1 -1,1 -1,1 -2,2zm4 8l6 -6 4 4 -1 1 -3 -3 -1 1 3 3 -1 1 -3 -2 -2 2 -2 -1zm7 6l5 -4 -1 -2 1 -1 4 5 -1 1 -2 -2 -5 5 -1 -2zm4 6l6 -6 1 1 -5 4 6 -1 1 2 -4 4 6 -2 0 2 -8 2 -1 -2 5 -4 -7 1 0 -1zm6 15l-1 -2 2 -1 -1 -3 -2 0 0 -2 9 1 0 2 -7 5zm2 -4l3 -2 -3 0 0 2zm-2 5l8 -1 1 3c0,1 0,2 0,2 0,1 0,1 -1,2 0,0 0,0 -1,0 -1,0 -1,0 -2,0 0,-1 0,-1 -1,-2 0,1 0,1 0,1 0,1 -1,1 -1,1l-2 2 0 -2 2 -2c0,0 0,-1 1,-1 0,0 0,0 0,0 0,-1 0,-1 0,-1l0 -1 -4 1 0 -2zm5 1l0 1c0,1 1,2 1,2 0,0 0,0 0,0 0,0 0,0 1,0 0,0 0,0 0,0 1,0 1,0 1,-1 0,0 0,0 -1,-1l0 -1 -2 0zm-4 8l8 0 0 6 -1 0 0 -5 -2 0 0 5 -1 0 0 -5 -3 0 0 5 -1 0 0 -6z"/>
      <path class="fil43" d="M34 115l2 1c0,0 0,1 0,1 0,0 0,1 0,1 1,0 1,0 2,0 0,0 0,0 0,0 0,0 1,0 1,-1 -1,0 -1,0 -1,0 0,0 0,-1 -1,-1 0,-1 -1,-1 -1,-2 0,0 0,-1 0,-2 1,0 1,0 1,0 1,-1 1,-1 2,-1 0,1 1,1 1,1 1,1 2,1 2,2 0,1 0,1 -1,2l-1 -1c0,0 0,-1 0,-1 0,0 0,-1 -1,-1 0,0 0,0 -1,0 0,0 0,0 0,0 0,0 0,1 0,1 0,0 0,0 1,1 0,1 1,1 1,1 0,1 0,1 0,2 0,0 0,0 0,1 0,0 -1,1 -1,1 -1,0 -1,0 -2,0 0,0 -1,0 -1,-1 -1,0 -2,-1 -2,-2 0,0 0,-1 0,-2zm8 3c0,-1 1,-1 1,-2 1,0 1,0 1,0 1,0 1,-1 2,0 0,0 1,0 1,0 1,0 2,1 2,2 1,1 1,2 0,3 0,2 -1,2 -2,3 -1,0 -2,0 -3,0 -1,-1 -2,-2 -2,-3 -1,-1 -1,-2 0,-3zm2 1c-1,1 -1,1 -1,2 0,1 1,1 1,1 1,1 2,1 2,0 1,0 1,-1 2,-1 0,-1 0,-2 0,-2 0,-1 -1,-2 -1,-2 -1,0 -1,0 -2,0 -1,0 -1,1 -1,2zm6 7l2 -8 5 1 0 2 -4 -1 0 1 3 1 0 2 -4 -1 -1 3 -1 0zm9 2l1 -7 -2 0 0 -2 6 1 0 2 -2 -1 -1 7 -2 0zm6 -2l2 0c0,0 0,0 0,1 0,0 1,0 1,0 1,0 1,0 2,0 0,-1 0,-1 0,-1 0,0 0,0 0,-1 0,0 -1,0 -1,0 0,0 0,0 -1,0 -1,0 -2,-1 -2,-1 -1,0 -1,-1 -1,-2 0,0 0,0 0,-1 1,0 1,0 1,-1 1,0 1,0 2,0 1,0 2,0 2,1 1,0 1,1 1,1l-1 1c0,-1 -1,-1 -1,-1 0,-1 0,-1 -1,-1 0,0 -1,1 -1,1 0,0 0,0 0,0 0,0 0,1 0,1 0,0 1,0 1,0 1,0 2,1 2,1 1,0 1,0 1,1 0,0 1,0 1,1 0,0 -1,1 -1,1 0,1 0,1 -1,1 0,0 -1,0 -2,0 -1,0 -1,0 -2,0 -1,-1 -1,-1 -1,-2zm10 2l-3 -8 1 0 3 5 0 -5 2 -1 2 5 1 -5 1 -1 0 9 -2 0 -3 -6 0 7 -2 0zm11 -2l-3 -8 1 0 3 7 -1 1zm2 -4l1 -1c1,1 1,1 1,1 1,0 1,0 2,0 0,0 0,-1 1,-1 0,0 0,0 0,-1 0,0 -1,0 -1,0 0,0 0,0 0,0 -1,0 -1,0 -2,0 -1,0 -1,0 -2,0 0,0 -1,0 -1,-1 0,0 0,-1 0,-1 0,-1 0,-1 0,-1 1,-1 1,-1 2,-1 1,-1 1,-1 2,-1 1,1 1,1 1,2l-1 0c0,0 0,0 -1,0 0,0 0,0 -1,0 0,0 -1,0 -1,1 0,0 0,0 0,0 0,0 0,1 1,1 0,0 0,0 1,-1 1,0 2,0 2,0 1,0 1,0 1,1 1,0 1,0 1,1 0,0 0,0 0,1 0,0 0,1 0,1 -1,1 -1,1 -2,1 -1,1 -1,1 -2,1 -1,-1 -1,-1 -2,-2zm8 -3l1 -1c0,0 1,0 1,0 0,0 1,0 1,0 1,0 1,-1 1,-1 0,0 0,-1 0,-1 0,0 0,0 0,0 -1,0 -1,0 -1,0 0,0 -1,0 -1,0 -1,1 -2,1 -2,1 -1,0 -2,-1 -2,-1 0,-1 0,-1 0,-1 0,-1 0,-1 0,-2 0,0 1,0 1,-1 1,0 2,-1 3,0 0,0 1,0 1,1l-1 1c0,-1 -1,-1 -1,-1 0,0 -1,0 -1,0 0,1 -1,1 -1,1 0,0 0,1 0,1 0,0 1,0 1,0 0,0 1,0 1,0 1,-1 2,-1 2,-1 1,0 1,0 1,0 1,1 1,1 1,1 1,1 1,1 1,2 0,0 0,1 -1,1 0,0 0,1 -1,1 -1,1 -2,1 -2,1 -1,0 -2,-1 -2,-1z"/>
      <path class="fil44" d="M49 47l7 0 0 -8 8 0 0 8 5 0 0 -8 9 0 0 8c1,0 2,0 3,0 2,0 4,1 6,2 1,1 3,3 4,5 1,1 1,3 1,6 0,2 0,4 -2,6 -1,2 -3,4 -5,5 3,1 6,2 7,4 2,3 3,5 3,8 0,3 0,5 -2,7 -1,2 -2,4 -4,5 -2,2 -5,3 -8,3 -1,0 -2,0 -3,0l0 8 -9 0 0 -8 -1 0 -4 0 0 8 -8 0 0 -8 -7 0 0 -51zm11 8l0 12 7 0c5,0 7,0 8,0 2,0 4,-1 5,-2 1,-1 2,-2 2,-4 0,-2 -1,-3 -2,-4 -1,-1 -2,-1 -4,-2 -1,0 -4,0 -10,0l-6 0zm0 21l0 13 10 0c4,0 7,0 8,0 2,0 3,-1 4,-2 1,-1 2,-2 2,-4 0,-2 -1,-3 -2,-4 0,-1 -2,-2 -3,-3 -2,0 -5,0 -10,0l-9 0z"/>
      <path class="fil45" d="M48 45l6 0 0 -8 9 0 0 8 5 0 0 -8 9 0 0 9c1,0 2,0 3,0 2,0 4,1 5,2 2,1 4,3 5,4 1,2 1,4 1,6 0,3 0,5 -2,7 -1,2 -3,4 -5,5 3,1 6,2 7,4 2,3 3,5 3,8 0,2 0,5 -2,7 -1,2 -2,4 -4,5 -3,2 -5,2 -8,3 -1,0 -2,0 -3,0l0 8 -9 0 0 -8 -2 0 -3 0 0 8 -9 0 0 -8 -6 0 0 -52zm11 9l0 12 7 0c5,0 7,0 8,0 2,0 4,-1 5,-2 1,-1 1,-2 1,-4 0,-2 0,-3 -1,-4 -1,-1 -2,-2 -4,-2 -1,0 -4,0 -10,0l-6 0zm0 21l0 13 10 0c4,0 7,0 8,0 2,0 3,-1 4,-2 1,-1 2,-3 2,-4 0,-2 -1,-3 -2,-4 -1,-1 -2,-2 -3,-3 -2,0 -5,0 -10,0l-9 0z"/>
      <path class="fil46" d="M48 46l6 0 0 -9 9 0 0 1 -8 0 0 8 -7 0 0 51 0 0 0 -51zm16 0l4 0 0 -9 9 0 0 1 -8 0 0 8 -5 0 0 0zm13 0c1,0 2,0 3,0 2,0 4,1 5,2 2,1 3,2 3,3 0,-1 -1,-2 -2,-2 -2,-1 -4,-2 -6,-2 -1,0 -1,0 -3,-1l0 0zm8 24c3,1 5,2 6,4 -1,-1 -4,-3 -7,-4 0,0 1,0 1,0zm-16 35l-1 0 0 -7 1 0 0 7zm-14 0l-1 0 0 -7 1 0 0 7zm4 -39l7 0c5,0 7,0 8,0 2,0 4,-1 5,-2 1,-1 1,-2 1,-4 0,-1 0,-2 -1,-3 1,0 1,0 1,0 1,1 1,2 1,4 0,1 0,3 -2,4 -1,1 -2,1 -4,2 -1,0 -4,0 -8,0l-8 0 0 -1zm0 22l10 0c4,0 7,0 8,0 2,0 3,-1 4,-2 1,-1 2,-3 2,-4 0,-2 -1,-3 -2,-4l0 0c1,0 1,0 1,0 1,2 1,3 1,4 0,2 0,4 -1,5 -1,1 -3,2 -4,2 -2,0 -4,0 -8,0l-11 0 0 -1z"/>
      <path class="fil36" d="M77 38l-9 7 0 0 -1 0 -19 16 0 14 11 -9 0 0 0 -12 6 0c4,0 7,0 9,0l9 -7c-1,-1 -2,-1 -3,-1 -1,0 -2,0 -3,0l0 -8zm-14 3l0 4 1 0 -16 14 0 -5 15 -13zm5 1l0 -5 6 0 -6 5z"/>
      <path class="fil47" d="M63 37l0 0 0 8 0 0 0 -8zm13 0l1 0 0 8c0,0 -1,0 -1,0l0 -8zm11 12c1,1 2,2 3,3 1,2 1,4 1,6 0,3 0,5 -2,7 -1,2 -3,3 -5,4 0,0 -1,0 -1,0 2,-1 4,-2 6,-4 1,-2 2,-5 2,-7 0,-2 -1,-4 -2,-6 -1,-1 -1,-2 -2,-3zm3 24c0,0 1,1 1,1 2,3 3,5 3,8 0,2 0,5 -2,7 -1,2 -2,4 -4,5 -3,2 -5,2 -8,3 -1,0 -2,0 -3,0l0 8 -9 0 0 -1 8 0 0 -8c2,0 3,0 3,0 3,0 6,-1 8,-2 2,-2 4,-3 5,-6 1,-2 1,-4 1,-6 0,-3 0,-6 -2,-8 -1,-1 -1,-1 -1,-1zm-23 24l-1 0 -3 0 0 8 -9 0 0 -1 9 0 0 -7 3 0 1 -1 0 1zm-13 0l-6 0 0 0 6 0 0 0zm5 -43l0 11 -1 0 0 -11 7 0c5,0 8,0 9,0 2,0 3,0 4,1 -1,0 -2,-1 -3,-1 -1,0 -4,0 -10,0l-6 0zm0 21l0 13 -1 0 0 -14 9 0c5,0 9,0 10,1 1,0 2,1 3,1 -1,0 -1,0 -2,-1 -2,0 -5,0 -10,0l-9 0z"/>
      <path class="fil48" d="M105 47c4,7 7,15 7,23 0,25 -20,45 -44,45 -17,0 -31,-9 -39,-22 8,13 22,21 38,21 25,0 44,-20 44,-44 0,-8 -2,-16 -6,-23z"/>
      <path class="fil49" d="M37 102c-6,-5 -10,-12 -12,-21 -7,-23 7,-47 31,-54 16,-4 32,1 42,11 -10,-10 -26,-14 -42,-10 -23,6 -37,30 -31,54 2,8 6,15 12,20z"/>
      <path class="fil34" d="M35 15c1,0 2,0 2,0 0,0 0,1 -1,1 -1,1 -1,1 -2,1 0,-1 1,-1 1,-2z"/>
      <path class="fil34" d="M33 12c1,0 2,0 2,0 0,0 0,1 -1,1 -1,1 -2,1 -2,0 0,0 0,0 1,-1z"/>
      <path class="fil48" d="M37 103c-5,-6 -10,-13 -12,-21 -6,-24 8,-48 31,-54 16,-4 32,0 43,11 -11,-10 -27,-15 -42,-11 -24,7 -38,31 -31,54 2,8 6,15 11,21z"/>
      <path class="fil50" d="M105 47c4,7 6,14 6,23 0,24 -19,44 -44,44 -16,0 -30,-9 -38,-22 8,13 22,22 38,22 24,0 44,-20 44,-45 0,-8 -2,-16 -6,-22z"/>
      <polygon class="fil51" points="26,97 27,101 30,102 27,104 27,107 25,105 21,106 23,103 21,100 24,100 "/>
      <polygon class="fil52" points="26,97 27,100 30,102 27,103 27,107 24,105 21,106 22,102 20,99 24,100 "/>
      <polygon class="fil31" points="111,97 110,100 106,101 109,103 110,107 112,104 116,105 114,102 116,99 113,99 "/>
      <polygon class="fil51" points="110,97 110,101 106,102 109,104 109,107 112,105 115,106 114,103 116,100 113,100 "/>
      <polygon class="fil52" points="110,97 110,100 106,102 109,103 109,107 112,105 116,106 114,102 116,99 113,100 "/>
     </g>
    </g>
   </g>
   <path class="fil53" d="M48 46l6 0 0 -8 9 0 0 8 5 0 0 -8 9 0 0 8c1,0 2,0 3,0 2,1 4,1 5,2 2,1 4,3 5,5 1,1 1,3 1,6 0,2 0,4 -2,6 -1,2 -3,4 -5,5 3,1 6,2 7,5 2,2 3,4 3,7 0,3 0,5 -2,7 -1,2 -2,4 -4,5 -3,2 -5,3 -8,3 -1,0 -2,0 -3,0l0 8 -9 0 0 -8 -2 0 -3 0 0 8 -9 0 0 -8 -6 0 0 -51zm11 8l0 12 7 0c5,0 7,0 8,0 2,0 4,-1 5,-2 1,-1 1,-2 1,-4 0,-1 0,-3 -1,-4 -1,-1 -2,-1 -4,-2 -1,0 -4,0 -10,0l-6 0zm0 21l0 14 10 0c4,0 7,-1 8,-1 2,0 3,-1 4,-2 1,-1 2,-2 2,-4 0,-2 -1,-3 -2,-4 -1,-1 -2,-2 -3,-2 -2,-1 -5,-1 -10,-1l-9 0z"/>
   <path class="fil54" d="M267 78l7 -1 0 2c0,2 0,4 1,6 1,2 3,3 5,4 2,1 5,1 8,1 5,0 8,-1 10,-2 3,-2 4,-5 4,-7 0,-2 -1,-3 -2,-5 -1,-1 -5,-3 -10,-6 -5,-1 -8,-3 -9,-4 -3,-2 -5,-3 -6,-5 -1,-2 -2,-4 -2,-7 0,-3 1,-5 3,-7 1,-3 4,-5 7,-6 3,-1 6,-2 10,-2 4,0 8,1 11,3 3,1 5,3 7,6 1,2 2,5 2,7 0,0 0,1 0,1l-7 1c0,-2 0,-3 -1,-4 0,-2 -1,-3 -2,-4 -1,-1 -2,-2 -4,-2 -2,-1 -4,-1 -7,-1 -4,0 -7,1 -9,2 -2,2 -2,4 -2,6 0,1 0,2 1,3 0,2 2,3 3,4 2,0 5,2 10,4 4,2 6,3 8,4 2,1 3,3 5,5 1,2 1,4 1,6 0,3 -1,6 -3,9 -1,2 -4,4 -7,6 -3,1 -7,2 -11,2 -6,0 -12,-2 -15,-5 -4,-2 -6,-7 -6,-14zm49 2c0,-7 3,-14 7,-19 4,-4 9,-6 15,-6 5,0 9,1 12,4 3,3 4,7 4,12 0,5 -1,9 -3,13 -1,4 -4,7 -7,9 -4,2 -7,4 -11,4 -3,0 -6,-1 -9,-2 -2,-2 -4,-4 -6,-6 -1,-3 -2,-5 -2,-9zm7 0c0,4 1,6 3,8 2,2 4,3 7,3 1,0 3,0 4,-1 2,0 3,-1 4,-2 1,-2 2,-3 3,-4 1,-2 2,-4 2,-5 1,-3 2,-5 2,-8 0,-3 -1,-6 -3,-8 -2,-2 -4,-3 -7,-3 -2,0 -4,1 -6,2 -2,1 -3,2 -5,4 -1,2 -2,4 -3,7 0,2 -1,5 -1,7zm36 16l7 -35 -6 0 1 -5 6 0 2 -6c0,-3 1,-5 1,-6 1,-1 2,-2 4,-3 1,-1 3,-2 5,-2 2,0 5,1 8,2l-1 6c-3,-1 -5,-1 -6,-1 -1,0 -2,0 -3,1 -1,0 -1,2 -2,4l-1 5 8 0 -1 5 -8 0 -7 35 -7 0zm43 -6l-1 6c-2,0 -4,0 -5,0 -3,0 -5,0 -7,-2 -1,-1 -2,-2 -2,-4 0,-1 1,-3 1,-6l5 -23 -5 0 1 -5 5 0 2 -10 8 -5 -3 15 7 0 -1 5 -7 0 -5 22c0,3 0,5 0,5 0,1 0,1 0,2 1,0 2,1 3,1 1,0 2,-1 4,-1zm13 -12l7 -1 0 2c0,2 0,4 1,6 1,2 3,3 5,4 2,1 5,1 8,1 5,0 8,-1 10,-2 3,-2 4,-5 4,-7 0,-2 -1,-3 -2,-5 -1,-1 -5,-3 -10,-6 -5,-1 -8,-3 -9,-4 -3,-2 -5,-3 -6,-5 -1,-2 -2,-4 -2,-7 0,-3 1,-5 3,-7 1,-3 4,-5 7,-6 3,-1 6,-2 10,-2 4,0 8,1 11,3 3,1 6,3 7,6 1,2 2,5 2,7 0,0 0,1 0,1l-7 1c0,-2 0,-3 -1,-4 0,-2 -1,-3 -2,-4 -1,-1 -2,-2 -4,-2 -2,-1 -4,-1 -6,-1 -4,0 -8,1 -10,2 -2,2 -2,4 -2,6 0,1 0,2 1,3 0,2 2,3 3,4 2,0 5,2 10,4 4,2 6,3 8,4 2,1 4,3 5,5 1,2 1,4 1,6 0,3 -1,6 -2,9 -2,2 -5,4 -8,6 -3,1 -7,2 -11,2 -6,0 -11,-2 -15,-5 -4,-2 -6,-7 -6,-14zm53 18l-4 -40 6 0 2 18 1 10c0,0 0,2 0,4 1,-2 1,-4 2,-6 0,-1 1,-3 2,-5l10 -21 7 0 2 20c0,3 0,7 0,12 1,-4 3,-8 6,-14l9 -18 7 0 -20 40 -7 0 -2 -24c0,-1 0,-4 0,-8 -1,2 -2,5 -4,8l-10 24 -7 0zm54 -48l1 -8 7 0 -2 8 -6 0zm-10 48l8 -40 7 0 -8 40 -7 0zm14 -14l7 0c0,2 0,3 1,5 0,1 1,2 3,3 2,1 3,1 6,1 3,0 5,0 6,-2 2,-1 3,-2 3,-4 0,-1 -1,-2 -2,-3 -1,-1 -3,-2 -6,-4 -4,-2 -6,-3 -7,-3 -2,-1 -3,-3 -4,-4 -1,-1 -1,-3 -1,-5 0,-3 1,-6 3,-8 3,-2 6,-3 11,-3 5,0 9,1 11,3 3,3 4,6 4,9l-6 1c0,-3 -1,-4 -3,-6 -1,-1 -4,-2 -7,-2 -2,0 -4,1 -5,2 -1,1 -2,2 -2,3 0,1 0,2 2,3 0,1 2,2 5,3 6,3 9,5 10,6 2,2 4,4 4,7 0,2 -1,4 -2,6 -1,2 -3,4 -6,5 -2,1 -5,2 -9,2 -4,0 -8,-2 -11,-4 -4,-2 -5,-6 -5,-11zm39 0l6 0c0,2 1,3 1,5 1,1 2,2 4,3 1,1 3,1 5,1 3,0 6,0 7,-2 2,-1 2,-2 2,-4 0,-1 0,-2 -1,-3 -1,-1 -3,-2 -7,-4 -3,-2 -6,-3 -7,-3 -1,-1 -3,-3 -4,-4 0,-1 -1,-3 -1,-5 0,-3 1,-6 4,-8 2,-2 6,-3 10,-3 5,0 9,1 12,3 3,3 4,6 4,9l-7 1c0,-3 -1,-4 -2,-6 -2,-1 -4,-2 -7,-2 -2,0 -4,1 -6,2 -1,1 -2,2 -2,3 0,1 1,2 2,3 1,1 3,2 6,3 5,3 9,5 10,6 2,2 3,4 3,7 0,2 0,4 -2,6 -1,2 -3,4 -5,5 -3,1 -6,2 -9,2 -5,0 -9,-2 -12,-4 -3,-2 -5,-6 -4,-11z"/>
  </g>
 </g>
</svg>
