<?xml version="1.0" encoding="UTF-8"?>
<!DOCTYPE svg PUBLIC "-//W3C//DTD SVG 1.1//EN" "http://www.w3.org/Graphics/SVG/1.1/DTD/svg11.dtd">
<!-- Creator: CorelDRAW X7 -->
<svg xmlns="http://www.w3.org/2000/svg" xml:space="preserve" width="600px" height="264px" version="1.1" style="shape-rendering:geometricPrecision; text-rendering:geometricPrecision; image-rendering:optimizeQuality; fill-rule:evenodd; clip-rule:evenodd"
viewBox="0 0 592 260"
 xmlns:xlink="http://www.w3.org/1999/xlink">
 <defs>
  <style type="text/css">
   <![CDATA[
    .str0 {stroke:white;stroke-width:6.0958}
    .str1 {stroke:#CCCCCC;stroke-width:0.4645}
    .fil0 {fill:none}
    .fil3 {fill:#B3B3B3}
    .fil2 {fill:white}
    .fil1 {fill:white;fill-rule:nonzero}
   ]]>
  </style>
 </defs>
 <g id="Layer_x0020_1">
  <metadata id="CorelCorpID_0Corel-Layer"/>
  <g id="_359558272496">
   <path class="fil0 str0" d="M55 14l482 0c28,0 52,23 52,51l0 141c0,28 -24,51 -52,51l-482 0c-29,0 -52,-23 -52,-51l0 -141c0,-28 23,-51 52,-51z"/>
   <path class="fil1" d="M304 111l39 0 0 10 -25 0 0 7 23 0 0 10 -23 0 0 9 26 0 0 11 -40 0 0 -47zm-37 19l6 0c1,0 2,0 4,-1 1,0 2,-1 3,-1 0,-1 1,-2 1,-3 0,-2 -1,-3 -2,-4 -1,0 -3,-1 -5,-1l-7 0 0 10zm-14 28l0 -47 24 0c4,0 8,0 10,1 3,0 5,2 6,4 2,2 2,5 2,8 0,2 0,5 -1,6 -2,2 -3,4 -5,5 -1,1 -3,2 -5,2 2,1 3,1 4,2 0,0 1,1 2,2 1,1 2,2 2,3l7 14 -16 0 -8 -15c-1,-1 -2,-3 -3,-3 -1,-1 -2,-1 -3,-1l-2 0 0 19 -14 0zm-25 -47l15 0 0 28c0,2 -1,5 -2,8 0,2 -2,4 -4,6 -1,2 -3,3 -5,4 -3,1 -7,2 -11,2 -2,0 -4,-1 -7,-1 -3,0 -5,-1 -7,-2 -2,-1 -4,-2 -5,-4 -2,-2 -3,-3 -3,-5 -1,-3 -1,-6 -1,-8l0 -28 14 0 0 28c0,3 1,5 2,6 2,2 4,3 6,3 3,0 5,-1 6,-3 1,-1 2,-3 2,-6l0 -28zm-50 27l12 4c0,4 -2,7 -4,9 -2,3 -4,5 -7,6 -2,1 -6,2 -10,2 -5,0 -9,-1 -13,-3 -3,-1 -6,-4 -8,-8 -2,-3 -4,-8 -4,-14 0,-8 2,-14 7,-18 4,-4 10,-6 17,-6 6,0 11,1 14,3 4,3 6,6 8,11l-13 3c0,-1 -1,-2 -1,-3 -1,-1 -2,-2 -3,-2 -2,-1 -3,-1 -4,-1 -4,0 -6,1 -8,4 -1,2 -2,5 -2,9 0,5 1,9 2,11 2,2 4,3 7,3 3,0 5,-1 6,-3 2,-1 3,-4 4,-7zm-80 -27l40 0 0 10 -25 0 0 7 23 0 0 10 -23 0 0 9 25 0 0 11 -40 0 0 -47zm-50 31l14 -1c0,3 1,4 2,5 2,2 4,3 6,3 3,0 4,0 5,-1 1,-1 2,-2 2,-4 0,-1 -1,-2 -2,-3 -1,-1 -3,-2 -7,-3 -6,-1 -11,-3 -14,-5 -3,-3 -4,-6 -4,-9 0,-3 1,-5 2,-7 2,-2 4,-4 7,-5 2,-2 6,-2 11,-2 6,0 11,1 14,3 3,2 5,6 6,11l-14 1c0,-2 -1,-4 -2,-5 -2,-1 -3,-1 -5,-1 -2,0 -3,0 -4,1 -1,0 -1,1 -1,2 0,1 0,2 1,2 0,1 2,1 5,2 6,1 10,3 13,4 3,2 5,3 6,5 2,3 2,5 2,7 0,3 -1,6 -2,9 -2,2 -4,4 -7,6 -3,1 -7,2 -12,2 -8,0 -13,-2 -16,-5 -4,-3 -5,-7 -6,-12z"/>
   <path class="fil1" d="M281 76c-2,1 -3,2 -4,3 0,1 0,2 0,3 0,2 0,3 2,4 1,2 3,2 5,2 2,0 5,-1 8,-3 -3,-2 -7,-5 -11,-9zm5 -11c1,-1 3,-2 4,-3 1,-2 1,-3 1,-4 0,-1 0,-1 -1,-2 -1,-1 -2,-1 -3,-1 -2,0 -3,0 -4,1 0,1 -1,2 -1,3 0,1 1,3 4,6zm15 8l10 2c-1,2 -1,4 -2,5 0,1 -1,2 -2,4l5 3c1,1 2,1 3,2l-7 8c-2,-1 -3,-2 -4,-3 -2,-1 -3,-1 -4,-2 -2,1 -5,2 -7,3 -3,1 -7,2 -11,2 -6,0 -11,-2 -14,-4 -3,-3 -4,-6 -4,-10 0,-3 0,-5 2,-8 2,-2 5,-4 9,-6 -2,-2 -3,-3 -3,-5 -1,-2 -1,-3 -1,-5 0,-3 1,-6 3,-8 3,-2 7,-3 12,-3 5,0 9,1 12,3 2,2 4,4 4,7 0,2 -1,3 -2,5 0,1 -1,3 -2,4 -1,0 -3,2 -6,4 2,2 5,4 7,6 1,-1 1,-3 2,-4z"/>
   <path class="fil1" d="M194 49l39 0 0 10 -25 0 0 7 23 0 0 10 -23 0 0 9 26 0 0 11 -40 0 0 -47zm-44 0l36 0 0 10 -21 0 0 8 18 0 0 10 -18 0 0 19 -15 0 0 -47zm-26 29l-5 -17 -5 17 10 0zm4 10l-17 0 -2 8 -15 0 18 -47 15 0 18 47 -15 0 -2 -8zm-80 -8l14 -1c0,3 1,4 2,5 2,2 4,3 6,3 3,0 4,0 5,-1 1,-1 2,-2 2,-4 0,-1 -1,-2 -2,-3 -1,-1 -3,-2 -7,-3 -6,-1 -11,-3 -14,-5 -3,-3 -4,-6 -4,-9 0,-3 1,-5 2,-7 2,-2 4,-4 7,-5 2,-2 6,-2 11,-2 6,0 11,1 14,3 3,2 5,6 6,11l-14 1c0,-2 -1,-4 -2,-5 -2,-1 -3,-1 -5,-1 -2,0 -3,0 -4,1 -1,0 -1,1 -1,2 0,1 0,2 1,2 0,1 2,1 5,2 6,1 10,3 13,4 3,2 5,3 6,5 2,3 2,5 2,7 0,3 -1,6 -2,9 -2,2 -4,4 -7,6 -3,1 -7,2 -12,2 -8,0 -13,-2 -16,-5 -4,-3 -5,-7 -6,-12z"/>
   <path class="fil1" d="M33 164c30,11 57,27 76,59 87,-39 176,-56 267,-41 -98,-8 -191,14 -279,68 -13,-37 -36,-65 -64,-86z"/>
   <path class="fil2 str1" d="M550 105l0 -37c0,-37 -31,-68 -68,-68l0 0c-38,0 -68,31 -68,68l0 37 21 0 0 -35c0,-26 21,-47 47,-47l0 0c25,0 46,21 46,47l0 35 22 0z"/>
   <path class="fil2 str1" d="M405 96l155 0c3,0 6,2 6,6l0 113c0,4 -3,6 -6,6l-155 0c-3,0 -6,-2 -6,-6l0 -113c0,-4 3,-6 6,-6zm77 10c6,0 11,4 11,10 0,3 -2,6 -5,8l4 29 -19 0 4 -29c-3,-2 -5,-5 -5,-8 0,-6 5,-10 10,-10z"/>
   <rect class="fil3" x="399" y="160" width="166.93" height="46.1684"/>
   <path class="fil2" d="M560 160l6 0 0 7 -6 -7zm6 38l0 8 -17 0 -37 -46 24 0 30 38zm-167 1l0 -31 30 38 -24 0 -6 -7zm66 -39l23 0 37 46 -24 0 -36 -46zm-48 0l24 0 36 46 -24 0 -36 -46z"/>
   <path class="fil1" d="M194 225l0 -3 -3 -5 2 0 2 4 2 -4 2 0 -3 5 0 3 -2 0zm5 -4c0,0 0,-1 0,-2 1,0 1,0 1,-1 1,0 1,0 1,0 1,-1 1,-1 2,-1 1,0 2,1 3,1 0,1 1,2 1,3 0,2 -1,3 -1,3 -1,1 -2,1 -3,1 -1,0 -2,0 -3,-1 -1,0 -1,-1 -1,-3zm2 0c0,1 0,2 0,2 1,1 1,1 2,1 1,0 1,0 2,-1 0,0 0,-1 0,-2 0,-1 0,-1 0,-2 -1,0 -1,0 -2,0 -1,0 -1,0 -2,0 0,1 0,1 0,2zm7 -4l2 0 0 5c0,0 0,1 0,1 0,0 0,1 0,1 0,0 1,0 1,0 1,0 1,0 1,0 0,0 1,-1 1,-1 0,0 0,-1 0,-1l0 -5 1 0 0 5c0,1 0,1 0,2 0,0 0,0 0,1 -1,0 -1,0 -1,0 -1,0 -1,0 -2,0 -1,0 -1,0 -1,0 -1,0 -1,0 -1,0 -1,-1 -1,-1 -1,-1 0,-1 0,-1 0,-2l0 -5zm8 8l0 -8 3 0c1,0 2,1 2,1 1,0 1,0 1,0 0,1 0,1 0,2 0,0 0,1 0,1 0,1 -1,1 -2,1 1,0 1,0 1,1 0,0 1,0 1,1l1 1 -2 0 -1 -1c0,-1 -1,-1 -1,-2 0,0 0,0 0,0 0,0 -1,0 -1,0l0 0 0 3 -2 0zm2 -4l1 0c0,0 1,0 1,0 0,0 0,0 1,-1 0,0 0,0 0,0 0,0 0,-1 0,-1 -1,0 -1,0 -1,0 0,0 -1,0 -1,0l-1 0 0 2zm11 4l0 -6 -3 0 0 -2 7 0 0 2 -3 0 0 6 -1 0zm5 0l0 -8 3 0c1,0 1,1 2,1 0,0 1,0 1,0 0,1 0,1 0,2 0,0 0,1 0,1 -1,1 -1,1 -2,1 0,0 1,0 1,1 0,0 0,0 1,1l1 1 -2 0 -1 -1c-1,-1 -1,-1 -1,-2 0,0 0,0 -1,0 0,0 0,0 0,0l-1 0 0 3 -1 0zm1 -4l1 0c1,0 2,0 2,0 0,0 0,0 0,-1 0,0 0,0 0,0 0,0 0,-1 0,-1 0,0 0,0 0,0 0,0 -1,0 -1,0l-2 0 0 2zm14 4l-2 0 -1 -1 -3 0 0 1 -2 0 3 -8 2 0 3 8zm-3 -3l-1 -3 -1 3 2 0zm4 3l0 -8 1 0 3 6 0 -6 2 0 0 8 -2 0 -3 -5 0 5 -1 0zm7 -2l2 0c0,0 0,1 0,1 0,0 1,0 1,0 1,0 1,0 2,0 0,0 0,-1 0,-1 0,0 0,0 0,0 0,-1 -1,-1 -1,-1 0,0 0,0 -1,0 -1,0 -2,-1 -2,-1 0,0 -1,-1 -1,-1 0,-1 1,-1 1,-2 0,0 0,0 1,0 0,-1 1,-1 1,-1 1,0 2,1 2,1 1,0 1,1 1,2l-1 0c0,-1 -1,-1 -1,-1 0,0 0,0 -1,0 0,0 -1,0 -1,0 0,0 0,0 0,0 0,1 0,1 0,1 0,0 1,0 2,0 0,1 1,1 1,1 1,0 1,0 1,1 0,0 0,1 0,1 0,0 0,1 0,1 0,1 0,1 -1,1 0,0 -1,0 -2,0 -1,0 -1,0 -2,0 0,-1 -1,-1 -1,-2zm15 2l-2 0 0 -1 -4 0 0 1 -2 0 3 -8 2 0 3 8zm-3 -3l-1 -3 -1 3 2 0zm9 0l1 1c0,1 0,1 -1,2 0,0 -1,0 -2,0 -1,0 -2,0 -2,-1 -1,0 -1,-1 -1,-3 0,-1 0,-2 1,-3 0,0 1,-1 2,-1 1,0 2,1 3,1 0,1 0,1 0,2l-1 0c0,0 -1,-1 -1,-1 0,0 0,0 -1,0 0,0 -1,0 -1,0 -1,1 -1,1 -1,2 0,1 0,2 1,2 0,1 1,1 1,1 1,0 1,0 1,0 0,-1 1,-1 1,-2zm5 3l0 -6 -3 0 0 -2 6 0 0 2 -2 0 0 6 -1 0zm4 0l0 -8 2 0 0 8 -2 0zm3 -4c0,0 0,-1 1,-2 0,0 0,0 0,-1 1,0 1,0 1,0 1,-1 1,-1 2,-1 1,0 2,1 3,1 0,1 1,2 1,3 0,2 -1,3 -1,3 -1,1 -2,1 -3,1 -1,0 -2,0 -3,-1 0,0 -1,-1 -1,-3zm2 0c0,1 0,2 0,2 1,1 1,1 2,1 1,0 1,0 2,-1 0,0 0,-1 0,-2 0,-1 0,-1 0,-2 -1,0 -1,0 -2,0 -1,0 -1,0 -2,0 0,1 0,1 0,2zm7 4l0 -8 2 0 3 6 0 -6 1 0 0 8 -1 0 -3 -5 0 5 -2 0zm18 0l-2 0 -1 -1 -3 0 0 1 -2 0 3 -8 2 0 3 8zm-3 -3l-1 -3 -1 3 2 0zm4 3l0 -8 3 0c1,0 1,1 2,1 0,0 0,0 1,0 0,1 0,1 0,2 0,0 0,1 0,1 -1,1 -1,1 -2,1 0,0 1,0 1,1 0,0 0,0 1,1l1 1 -2 0 -1 -1c-1,-1 -1,-1 -1,-2 0,0 -1,0 -1,0 0,0 0,0 0,0l-1 0 0 3 -1 0zm1 -4l1 0c1,0 2,0 2,0 0,0 0,0 0,-1 0,0 0,0 0,0 0,0 0,-1 0,-1 0,0 0,0 0,0 -1,0 -1,0 -2,0l-1 0 0 2zm7 4l0 -8 5 0 0 2 -4 0 0 2 4 0 0 1 -4 0 0 2 5 0 0 1 -6 0zm10 -2l1 0c0,0 0,1 1,1 0,0 0,0 1,0 0,0 1,0 1,0 0,0 0,-1 0,-1 0,0 0,0 0,0 0,-1 0,-1 0,-1 -1,0 -1,0 -2,0 -1,0 -1,-1 -1,-1 -1,0 -1,-1 -1,-1 0,-1 0,-1 0,-2 0,0 1,0 1,0 1,-1 1,-1 2,-1 1,0 1,1 2,1 0,0 1,1 1,2l-2 0c0,-1 0,-1 0,-1 -1,0 -1,0 -1,0 -1,0 -1,0 -1,0 -1,0 -1,0 -1,0 0,1 0,1 1,1 0,0 0,0 1,0 1,1 1,1 2,1 0,0 0,0 1,1 0,0 0,1 0,1 0,0 0,1 0,1 -1,1 -1,1 -2,1 0,0 -1,0 -1,0 -1,0 -2,0 -3,0 0,-1 0,-1 0,-2zm7 2l0 -8 6 0 0 2 -4 0 0 2 4 0 0 1 -4 0 0 2 4 0 0 1 -6 0zm13 -3l1 1c0,1 0,1 -1,2 -1,0 -1,0 -2,0 -1,0 -2,0 -3,-1 0,0 -1,-1 -1,-3 0,-1 1,-2 1,-3 1,0 2,-1 3,-1 1,0 2,1 2,1 1,1 1,1 1,2l-1 0c0,0 -1,-1 -1,-1 0,0 -1,0 -1,0 -1,0 -1,0 -1,0 -1,1 -1,1 -1,2 0,1 0,2 1,2 0,1 0,1 1,1 0,0 1,0 1,0 0,-1 1,-1 1,-2zm3 -5l1 0 0 5c0,0 0,1 0,1 0,0 0,1 1,1 0,0 0,0 1,0 0,0 1,0 1,0 0,0 0,-1 0,-1 0,0 0,-1 0,-1l0 -5 2 0 0 5c0,1 0,1 0,2 0,0 -1,0 -1,1 0,0 0,0 -1,0 0,0 -1,0 -1,0 -1,0 -2,0 -2,0 0,0 -1,0 -1,0 0,-1 0,-1 0,-1 0,-1 0,-1 0,-2l0 -5zm8 8l0 -8 3 0c1,0 1,1 2,1 0,0 0,0 1,0 0,1 0,1 0,2 0,0 0,1 -1,1 0,1 0,1 -1,1 0,0 1,0 1,1 0,0 0,0 1,1l1 1 -2 0 -1 -1c-1,-1 -1,-1 -1,-2 0,0 -1,0 -1,0 0,0 0,0 -1,0l0 0 0 3 -1 0zm1 -4l1 0c1,0 2,0 2,0 0,0 0,0 0,-1 0,0 0,0 0,0 0,0 0,-1 0,-1 0,0 0,0 0,0 -1,0 -1,0 -2,0l-1 0 0 2zm6 4l0 -8 6 0 0 2 -4 0 0 2 4 0 0 1 -4 0 0 2 4 0 0 1 -6 0zm-181 13l-2 -8 2 0 1 5 2 -5 1 0 2 5 1 -5 2 0 -2 8 -2 0 -1 -6 -2 6 -2 0zm9 0l0 -8 2 0 0 8 -2 0zm5 0l0 -7 -2 0 0 -1 6 0 0 1 -2 0 0 7 -2 0zm5 0l0 -8 2 0 0 3 3 0 0 -3 2 0 0 8 -2 0 0 -4 -3 0 0 4 -2 0zm11 -3l1 0c1,0 1,1 1,1 0,0 1,0 1,0 1,0 1,0 1,0 1,0 1,0 1,-1 0,0 0,0 0,0 -1,0 -1,0 -1,0 0,-1 -1,-1 -1,-1 -1,0 -2,0 -2,-1 -1,0 -1,-1 -1,-1 0,-1 0,-1 0,-1 1,-1 1,-1 1,-1 1,0 1,0 2,0 1,0 2,0 2,0 1,1 1,1 1,2l-2 0c0,0 0,-1 0,-1 0,0 -1,0 -1,0 0,0 -1,0 -1,0 0,0 0,1 0,1 0,0 0,0 0,0 0,0 1,1 1,1 1,0 2,0 2,0 0,0 1,1 1,1 0,0 0,1 0,1 0,1 0,1 0,2 0,0 -1,0 -1,0 -1,1 -1,1 -2,1 -1,0 -2,0 -2,-1 -1,0 -1,-1 -1,-2zm7 0l2 0c0,0 0,1 0,1 1,0 1,0 1,0 1,0 1,0 2,0 0,0 0,0 0,-1 0,0 0,0 0,0 0,0 0,0 -1,0 0,-1 0,-1 -1,-1 -1,0 -1,0 -2,-1 0,0 -1,-1 -1,-1 0,-1 1,-1 1,-1 0,-1 0,-1 1,-1 0,0 1,0 1,0 1,0 2,0 3,0 0,1 0,1 0,2l-1 0c0,0 0,-1 -1,-1 0,0 0,0 -1,0 0,0 0,0 -1,0 0,0 0,1 0,1 0,0 0,0 0,0 0,0 1,1 2,1 0,0 1,0 1,0 1,0 1,1 1,1 0,0 1,1 1,1 0,1 -1,1 -1,2 0,0 0,0 -1,0 0,1 -1,1 -2,1 -1,0 -1,0 -2,-1 0,0 -1,-1 -1,-2zm8 3l0 -8 2 0 0 6 4 0 0 2 -6 0zm13 0l-1 0 0 -6c-1,0 -2,1 -2,1l0 -1c0,0 0,-1 1,-1 0,0 1,-1 1,-1l1 0 0 8zm7 -2l0 2 -5 0c0,-1 0,-1 1,-2 0,0 0,-1 1,-2 1,0 1,-1 2,-1 0,0 0,-1 0,-1 0,0 0,-1 0,-1 -1,0 -1,0 -1,0 0,0 -1,0 -1,0 0,0 0,1 0,1l-2 0c0,-1 1,-1 1,-2 1,0 1,0 2,0 1,0 1,0 2,0 0,1 0,1 0,2 0,0 0,1 0,1 0,0 0,1 0,1 -1,0 -1,1 -1,1 -1,0 -1,1 -1,1 0,0 -1,0 -1,0l3 0zm3 -3c-1,0 -1,0 -1,0 0,-1 0,-1 0,-1 0,-1 0,-1 0,-2 1,0 1,0 2,0 1,0 1,0 2,0 0,1 0,1 0,2 0,0 0,0 0,1 0,0 0,0 -1,0 1,1 1,1 1,1 0,0 1,1 1,1 0,1 -1,2 -1,2 -1,1 -1,1 -2,1 -1,0 -1,0 -2,-1 0,0 -1,-1 -1,-2 0,0 1,0 1,-1 0,0 0,0 1,-1zm0 -1c0,0 0,0 0,1 0,0 1,0 1,0 0,0 0,0 1,0 0,-1 0,-1 0,-1 0,0 0,-1 0,-1 -1,0 -1,0 -1,0 0,0 -1,0 -1,0 0,0 0,1 0,1zm0 3c0,1 0,1 0,1 0,0 1,1 1,1 0,0 1,-1 1,-1 0,0 0,0 0,-1 0,0 0,0 0,-1 0,0 -1,0 -1,0 0,0 -1,0 -1,0 0,1 0,1 0,1zm8 -5l3 0c1,0 1,0 1,0 1,0 1,0 1,0 1,0 1,1 1,1 0,0 0,0 0,1 0,0 0,0 0,1 0,0 -1,0 -1,0 1,1 1,1 1,1 0,0 1,1 1,1 0,1 -1,1 -1,1 0,1 0,1 0,1 -1,0 -1,1 -1,1 -1,0 -1,0 -2,0l-3 0 0 -8zm2 1l0 2 1 0c0,0 1,0 1,0 0,0 0,0 0,0 1,-1 1,-1 1,-1 0,0 0,0 -1,-1 0,0 0,0 0,0 0,0 -1,0 -2,0l0 0zm0 3l0 2 1 0c1,0 1,0 1,0 0,0 1,0 1,0 0,0 0,0 0,-1 0,0 0,0 0,0 0,-1 -1,-1 -1,-1 0,0 0,0 -1,0l-1 0zm6 4l0 -8 1 0 0 8 -1 0zm5 0l0 -7 -3 0 0 -1 7 0 0 1 -3 0 0 7 -1 0zm8 0l0 -8 6 0 0 1 -5 0 0 2 4 0 0 1 -4 0 0 2 5 0 0 2 -6 0zm7 0l0 -8 2 0 3 5 0 -5 1 0 0 8 -1 0 -3 -6 0 6 -2 0zm13 -3l2 0c-1,1 -1,2 -2,2 0,1 -1,1 -2,1 -1,0 -2,-1 -2,-1 -1,-1 -1,-2 -1,-3 0,-2 0,-3 1,-3 0,-1 1,-1 2,-1 1,0 2,0 3,0 0,1 0,1 1,2l-2 0c0,0 0,0 -1,-1 0,0 0,0 -1,0 0,0 -1,0 -1,1 0,0 -1,1 -1,2 0,1 1,1 1,2 0,0 1,0 1,0 1,0 1,0 1,0 1,0 1,-1 1,-1zm3 3l0 -8 3 0c1,0 2,0 2,0 1,0 1,0 1,1 0,0 0,0 0,1 0,1 0,1 0,1 0,1 -1,1 -2,1 1,0 1,1 1,1 0,0 1,0 1,1l1 2 -2 0 -1 -2c0,-1 -1,-1 -1,-1 0,0 0,-1 0,-1 -1,0 -1,0 -1,0l0 0 0 4 -2 0zm2 -5l1 0c0,0 1,0 1,0 0,0 0,0 1,0 0,-1 0,-1 0,-1 0,0 0,0 0,-1 -1,0 -1,0 -1,0 0,0 -1,0 -1,0l-1 0 0 2zm8 5l0 -4 -3 -4 2 0 1 3 2 -3 2 0 -3 4 0 4 -1 0zm5 0l0 -8 2 0c1,0 2,0 2,0 1,0 1,0 1,1 1,0 1,1 1,1 0,1 0,1 0,1 -1,1 -1,1 -1,1 0,0 -1,0 -1,1 0,0 -1,0 -2,0l-1 0 0 3 -1 0zm1 -7l0 2 1 0c1,0 1,0 2,0 0,0 0,0 0,0 0,0 0,-1 0,-1 0,0 0,0 0,-1 0,0 0,0 -1,0 0,0 0,0 -1,0l-1 0zm8 7l0 -7 -2 0 0 -1 6 0 0 1 -2 0 0 7 -2 0zm5 0l0 -8 1 0 0 8 -1 0zm3 -4c0,-1 0,-2 0,-2 0,-1 0,-1 1,-1 0,-1 0,-1 1,-1 0,0 1,0 1,0 2,0 3,0 3,1 1,0 1,1 1,3 0,1 0,2 -1,3 0,0 -1,1 -3,1 -1,0 -2,-1 -2,-1 -1,-1 -1,-2 -1,-3zm1 0c0,1 0,1 1,2 0,0 1,0 1,0 1,0 2,0 2,0 0,-1 1,-1 1,-2 0,-1 -1,-2 -1,-2 0,-1 -1,-1 -2,-1 0,0 -1,0 -1,1 -1,0 -1,1 -1,2zm7 4l0 -8 2 0 3 5 0 -5 2 0 0 8 -2 0 -3 -6 0 6 -2 0z"/>
  </g>
 </g>
</svg>
