<?xml version="1.0" encoding="UTF-8"?>
<!DOCTYPE svg PUBLIC "-//W3C//DTD SVG 1.1//EN" "http://www.w3.org/Graphics/SVG/1.1/DTD/svg11.dtd">
<!-- Creator: CorelDRAW X7 -->
<svg xmlns="http://www.w3.org/2000/svg" xml:space="preserve" width="600px" height="139px" version="1.1" style="shape-rendering:geometricPrecision; text-rendering:geometricPrecision; image-rendering:optimizeQuality; fill-rule:evenodd; clip-rule:evenodd"
viewBox="0 0 597 139"
 xmlns:xlink="http://www.w3.org/1999/xlink">
 <defs>
  <style type="text/css">
   <![CDATA[
    .fil1 {fill:white}
    .fil0 {fill:white;fill-rule:nonzero}
   ]]>
  </style>
 </defs>
 <g id="Layer_x0020_1">
  <metadata id="CorelCorpID_0Corel-Layer"/>
  <path class="fil0" d="M266 79l7 -1 0 2c0,3 0,4 1,6 1,2 3,3 5,4 2,1 5,2 8,2 5,0 8,-1 10,-3 3,-2 4,-4 4,-7 0,-1 -1,-3 -2,-4 -1,-2 -5,-4 -10,-6 -5,-2 -8,-3 -9,-4 -3,-2 -4,-4 -6,-6 -1,-2 -1,-4 -1,-6 0,-3 0,-6 2,-8 2,-2 4,-4 7,-5 3,-1 6,-2 10,-2 4,0 8,1 11,2 3,2 5,4 7,6 1,3 2,5 2,7 0,1 0,1 0,2l-7 0c0,-1 0,-3 -1,-3 0,-2 -1,-3 -2,-4 -1,-1 -2,-2 -4,-3 -2,-1 -4,-1 -6,-1 -4,0 -7,1 -10,3 -1,1 -2,3 -2,5 0,2 0,3 1,4 0,1 2,2 4,3 1,1 4,2 9,4 4,2 6,4 8,5 2,1 4,2 5,4 1,2 1,4 1,7 0,3 -1,5 -3,8 -1,2 -4,4 -7,6 -3,1 -7,2 -11,2 -6,0 -11,-2 -15,-4 -4,-3 -6,-8 -6,-15zm49 3l0 0c0,-8 3,-14 7,-19 4,-5 9,-7 15,-7 5,0 9,2 12,5 3,3 4,7 4,12 0,4 -1,9 -3,13 -2,4 -4,7 -8,9 -3,2 -7,3 -10,3 -4,0 -6,-1 -9,-2 -2,-1 -4,-3 -6,-6 -1,-2 -2,-5 -2,-8zm7 -1l0 0c0,4 1,7 3,9 2,2 4,3 7,3 1,0 3,-1 4,-1 1,-1 3,-2 4,-3 1,-1 2,-3 3,-4 1,-2 2,-3 2,-5 1,-3 1,-5 1,-7 0,-4 -1,-7 -2,-9 -2,-2 -4,-3 -7,-3 -2,0 -4,1 -6,2 -2,1 -3,2 -5,4 -1,2 -2,5 -3,7 -1,3 -1,5 -1,7zm36 16l0 0 7 -35 -6 0 1 -5 6 0 1 -6c1,-2 1,-4 2,-6 1,-1 2,-2 3,-3 2,-1 4,-1 6,-1 2,0 4,0 8,1l-2 6c-2,-1 -4,-1 -5,-1 -2,0 -3,1 -3,1 -1,1 -2,2 -2,5l-1 4 7 0 -1 5 -7 0 -7 35 -7 0zm42 -6l0 0 -1 6c-2,0 -3,1 -5,1 -2,0 -5,-1 -6,-2 -1,-1 -2,-3 -2,-4 0,-1 0,-3 1,-7l5 -23 -6 0 2 -5 5 0 2 -10 8 -4 -3 14 6 0 -1 5 -6 0 -5 22c-1,3 -1,5 -1,5 0,1 0,2 1,2 0,1 1,1 2,1 2,0 3,0 4,-1zm13 -12l0 0 7 -1 0 2c0,3 1,4 2,6 1,2 2,3 4,4 3,1 5,2 8,2 5,0 8,-1 10,-3 3,-2 4,-4 4,-7 0,-1 -1,-3 -2,-4 -1,-2 -5,-4 -10,-6 -4,-2 -7,-3 -9,-4 -2,-2 -4,-4 -5,-6 -2,-2 -2,-4 -2,-6 0,-3 1,-6 2,-8 2,-2 4,-4 7,-5 3,-1 6,-2 10,-2 4,0 8,1 11,2 3,2 6,4 7,6 1,3 2,5 2,7 0,1 0,1 0,2l-7 0c0,-1 0,-3 0,-3 -1,-2 -2,-3 -3,-4 -1,-1 -2,-2 -4,-3 -2,-1 -4,-1 -6,-1 -4,0 -7,1 -10,3 -1,1 -2,3 -2,5 0,2 0,3 1,4 1,1 2,2 4,3 1,1 4,2 9,4 4,2 7,4 8,5 2,1 4,2 5,4 1,2 1,4 1,7 0,3 -1,5 -2,8 -2,2 -5,4 -8,6 -3,1 -7,2 -11,2 -6,0 -11,-2 -15,-4 -4,-3 -6,-8 -6,-15zm53 18l0 0 -4 -40 6 0 2 18 1 10c0,1 0,2 0,5 1,-3 1,-5 2,-6 0,-2 1,-4 2,-6l10 -21 7 0 1 20c1,3 1,7 1,12 1,-3 3,-8 6,-14l8 -18 7 0 -19 40 -7 0 -2 -23c0,-2 0,-5 0,-9 -1,3 -2,6 -4,9l-10 23 -7 0zm53 -47l0 0 2 -8 7 0 -2 8 -7 0zm-10 47l0 0 7 0 9 -40 -7 0 -9 40zm15 -14l0 0 6 0c0,2 1,4 1,5 1,1 2,2 4,3 1,1 3,2 5,2 3,0 5,-1 7,-2 1,-1 2,-3 2,-4 0,-2 0,-3 -1,-4 -1,-1 -3,-2 -7,-4 -3,-1 -6,-2 -7,-3 -1,-1 -3,-2 -4,-4 0,-1 -1,-3 -1,-4 0,-3 1,-6 4,-8 2,-3 6,-4 10,-4 5,0 9,1 12,4 2,2 4,5 4,9l-7 0c0,-2 -1,-4 -2,-5 -2,-2 -4,-3 -7,-3 -2,0 -4,1 -6,2 -1,1 -1,2 -1,4 0,1 0,2 1,3 1,1 3,2 6,3 5,2 8,4 10,5 2,2 3,5 3,8 0,2 -1,4 -2,6 -1,1 -3,3 -5,4 -3,1 -6,2 -9,2 -5,0 -9,-1 -12,-4 -3,-2 -5,-6 -4,-11zm38 0l0 0 7 0c0,2 0,4 1,5 0,1 1,2 3,3 2,1 3,2 6,2 3,0 5,-1 6,-2 2,-1 3,-3 3,-4 0,-2 -1,-3 -2,-4 -1,-1 -3,-2 -7,-4 -3,-1 -5,-2 -6,-3 -2,-1 -3,-2 -4,-4 -1,-1 -1,-3 -1,-4 0,-3 1,-6 3,-8 3,-3 6,-4 11,-4 5,0 9,1 11,4 3,2 4,5 4,9l-6 0c-1,-2 -1,-4 -3,-5 -2,-2 -4,-3 -7,-3 -2,0 -4,1 -5,2 -2,1 -2,2 -2,4 0,1 0,2 2,3 0,1 2,2 5,3 6,2 9,4 10,5 2,2 3,5 3,8 0,2 0,4 -1,6 -2,1 -4,3 -6,4 -2,1 -5,2 -9,2 -4,0 -8,-1 -12,-4 -3,-2 -4,-6 -4,-11z"/>
  <g id="_359558235760">
   <path class="fil0" d="M118 119c-6,6 -14,11 -22,14 -8,4 -17,6 -27,6 -19,0 -36,-8 -49,-20 -12,-13 -20,-30 -20,-50 0,-19 8,-36 20,-49 13,-12 30,-20 49,-20 10,0 19,2 27,5 8,4 16,8 22,14 6,-6 13,-10 21,-14 9,-3 18,-5 27,-5 20,0 37,8 50,20 12,13 20,30 20,49 0,20 -8,37 -20,50 -13,12 -30,20 -50,20 -9,0 -18,-2 -27,-6 -8,-3 -15,-8 -21,-14zm-23 11c8,-3 15,-8 22,-15l0 0c0,0 2,0 2,0 6,7 14,12 22,15 8,3 16,5 25,5 19,0 35,-7 47,-19 12,-12 19,-28 19,-47 0,-18 -7,-34 -19,-46 -12,-12 -28,-19 -47,-19 -9,0 -17,2 -25,5 -8,3 -16,8 -22,14l0 0c-1,1 -2,1 -2,0 -7,-6 -14,-11 -22,-14 -8,-3 -16,-5 -26,-5 -18,0 -34,7 -46,19 -12,12 -19,28 -19,46 0,19 7,35 19,47 12,12 28,19 46,19 10,0 18,-2 26,-5z"/>
   <path class="fil1" d="M155 37l24 0 0 20 20 0 0 24 -21 0 0 21 -24 0 0 -21 -19 0 -1 1c0,0 0,0 0,1l0 0c0,3 -1,6 -2,8 7,12 20,19 35,19 22,0 40,-18 40,-40 0,-23 -18,-41 -40,-41 -15,0 -29,8 -36,20 1,3 2,6 3,9l0 -1 21 0 0 -20zm12 -32l0 0c4,0 8,1 12,1l0 4c-4,0 -8,-1 -12,-1 -5,0 -9,1 -13,1l0 -3c4,-1 8,-2 13,-2zm35 11l0 0c7,5 13,11 18,17l-3 3c-5,-7 -11,-13 -18,-17l3 -3zm28 41l0 0c0,4 1,8 1,13 0,4 -1,8 -1,12l-4 0c1,-4 1,-8 1,-12 0,-5 0,-9 -1,-13l4 0zm-10 48l0 0c-5,7 -10,13 -17,18l-3 -3c7,-5 13,-11 17,-18l3 3zm-41 28l0 0c-4,0 -8,1 -12,1 -5,0 -9,-1 -13,-1l0 -4c4,1 8,1 13,1 4,0 8,0 12,-1l0 4zm-48 -10l0 0c-4,-3 -8,-6 -11,-9 0,0 1,0 1,-1l0 0c0,0 1,-1 1,-1l0 0c0,0 0,-1 1,-1 3,4 7,7 11,9l-3 3zm-13 -96l0 0c4,-4 8,-8 13,-11l2 3c-4,3 -9,7 -12,11 -1,0 -1,-1 -1,-1l0 0c0,0 -1,-1 -1,-1l0 0c0,0 -1,-1 -1,-1zm59 -14l0 0c8,2 15,5 22,9l-9 9c-4,-3 -8,-4 -13,-6l0 -12zm28 33l0 0 9 -8c4,6 7,13 9,21l-12 0c-1,-5 -3,-9 -6,-13zm6 34l0 0 12 0c-2,8 -5,15 -9,22l-9 -9c3,-4 5,-8 6,-13zm-21 29l0 0 9 8c-7,4 -14,7 -22,9l0 -12c5,-1 9,-3 13,-5zm-34 5l0 0 0 12c-8,-2 -15,-5 -22,-9l9 -9c4,3 8,5 13,6zm-13 -83l0 0 -8 -9c6,-4 13,-7 21,-9l0 12c-5,2 -9,3 -13,6z"/>
   <path class="fil1" d="M110 95l-1 3 -3 1 3 2 0 3 3 -2 3 1 -1 -3 1 -3 -3 1 -2 -3zm-7 25l2 3c-6,5 -14,8 -22,10l-2 -4c-3,0 -7,1 -11,1 -4,0 -9,-1 -12,-1l-1 4c-8,-2 -16,-5 -23,-10l3 -3c-7,-5 -13,-10 -17,-17l0 0 -4 3c-5,-8 -8,-16 -9,-24l5 0c-1,-4 -2,-8 -2,-12 0,-32 27,-59 60,-59 33,0 59,27 59,59 0,21 -10,39 -26,50l0 0zm12 -51l0 0 8 0 0 6 -1 0 0 -4 -2 0 0 4 -1 0 0 -4 -2 0 0 4 -2 0 0 -6zm4 -7l0 0 2 0 0 1c1,1 1,1 1,1 0,0 0,1 -1,1 0,0 0,0 0,0 0,0 -1,0 -1,0 0,0 0,0 0,0 0,-1 0,-1 -1,-2l0 -1zm-4 -1l0 0 0 2 3 -1 0 1c0,0 0,0 0,0 0,1 0,1 0,1 0,0 -1,0 -1,1l-2 1 1 2 1 -1c0,0 1,-1 1,-1 0,0 0,-1 1,-1 0,1 0,1 1,1 0,1 1,1 1,1 1,0 1,-1 1,-1 1,0 1,0 1,-1 0,0 0,-1 0,-2l-1 -3 -7 1zm2 -4l0 0 2 -2 -3 -1 1 3zm-3 3l0 0 0 -1 1 -2 0 -3 -2 0 -1 -1 9 0 0 2 -7 5zm-6 -15l0 0 7 -5 0 1 -4 4 6 -1 0 1 -4 4 6 -1 0 1 -8 2 0 -1 4 -4 -6 1 -1 -2zm-3 -5l0 0 1 2 5 -4 1 1 1 0 -4 -5 -1 0 2 2 -5 4zm-6 -6l0 0 5 -5 4 3 -1 1 -3 -2 -1 1 3 2 -1 1 -3 -2 -2 3 -1 -2zm-4 -7l0 0c0,-1 1,-1 1,-2 1,0 1,0 2,1 1,0 1,0 1,1 0,1 0,1 -1,2 0,1 -1,1 -1,2 -1,0 -1,0 -2,-1 0,0 -1,-1 -1,-1 0,-1 0,-1 1,-2zm-2 -1l0 0c0,1 -1,2 -1,3 1,1 1,2 2,2 1,1 2,1 3,1 1,0 2,-1 3,-2 0,-1 1,-2 1,-3 -1,-1 -1,-2 -2,-3 -1,0 -1,0 -2,0 0,0 -1,0 -1,0 -1,0 -1,0 -1,0 -1,1 -1,1 -2,2zm-8 -2l0 0 2 0c0,1 0,1 0,2 0,0 0,0 1,0 0,1 1,1 1,1 0,0 1,-1 1,-1 0,0 0,0 0,0 0,-1 0,-1 -1,-1 0,0 0,0 -1,-1 0,0 -1,-1 -1,-1 0,-1 0,-1 0,-2 0,0 0,-1 1,-1 0,0 0,0 1,0 0,0 1,0 2,0 0,0 1,1 1,2 1,0 1,1 0,2l-1 -1c0,0 0,-1 0,-1 0,0 -1,-1 -1,-1 0,0 -1,0 -1,0 0,0 -1,0 -1,0 0,1 0,1 0,1 1,0 1,1 2,1 0,1 1,1 1,1 0,1 0,1 0,1 0,1 0,1 0,2 0,0 0,0 -1,1 0,0 -1,0 -1,0 -1,0 -1,0 -2,0 -1,-1 -1,-1 -2,-2 0,-1 0,-1 0,-2zm-10 -4l0 0c0,1 0,2 0,2 1,1 1,1 2,1 0,0 1,0 2,0 0,0 0,-1 1,-2 0,-1 0,-2 -1,-2 0,-1 -1,-1 -1,-1 -1,0 -1,0 -2,0 0,1 -1,1 -1,2zm-2 0l0 0c1,-1 1,-1 1,-2 0,0 1,-1 1,-1 0,0 1,0 1,0 1,-1 1,-1 2,0 1,0 2,0 3,1 0,1 0,2 0,3 0,2 -1,3 -1,3 -1,1 -2,1 -3,1 -2,-1 -2,-1 -3,-2 -1,-1 -1,-2 -1,-3zm-8 4l0 0 0 -8 1 0 4 5 0 -5 1 0 0 8 -1 0 -4 -5 0 5 -1 0zm-3 1l0 0 -1 -8 2 -1 1 8 -2 1zm-8 -1l0 0c0,1 0,1 1,2 1,0 2,0 3,0 0,-1 1,-1 1,-1 1,0 1,-1 1,-1 0,-1 0,-1 0,-2 0,0 0,0 -1,-1 0,0 0,0 -1,0 0,0 -1,0 -2,0 0,0 -1,0 -1,0 0,-1 0,-1 0,-1 -1,0 0,0 0,0 0,-1 0,-1 1,-1 0,0 0,0 1,0 0,0 0,0 0,1l2 -1c0,0 -1,-1 -1,-1 -1,-1 -2,-1 -3,0 0,0 -1,0 -1,0 -1,1 -1,1 -1,1 0,1 0,1 0,2 0,0 1,1 1,1 1,0 1,0 2,0 1,0 1,0 1,0 1,0 1,0 1,0 0,1 0,1 0,1 1,0 0,0 0,1 0,0 0,0 -1,0 0,0 -1,0 -1,0 0,0 -1,0 -1,-1l-1 1zm-4 1l0 0 -2 -2 0 3 2 -1zm4 2l0 0 -2 0 -1 -1 -3 1 0 2 -1 1 -1 -9 2 0 6 6zm-11 2l0 0c0,0 0,1 0,1 0,1 0,1 0,1 -1,0 -1,1 -2,0 0,0 -1,0 -2,-1 0,-1 0,-1 0,-2 0,-1 0,-1 0,-1 1,-1 1,-1 2,-1 0,0 0,0 1,1l1 -2c-1,0 -1,0 -2,0 -1,0 -1,0 -2,0 -1,1 -2,2 -2,3 0,1 0,2 1,3 1,1 2,2 3,2 1,0 2,0 2,-1 1,0 2,-1 2,-1 0,-1 0,-2 0,-3l-2 1zm-10 13l0 0 -6 -5 1 -1 6 1 -4 -4 1 -1 6 5 -1 2 -6 -1 4 3 -1 1zm-2 3l0 0 1 -2 -7 -4 0 1 6 5zm-7 4l0 0c1,1 1,1 2,1 1,0 1,-1 1,-1 1,-1 1,-1 1,-2 -1,-1 -1,-1 -2,-2 -1,0 -2,0 -2,0 -1,0 -1,0 -1,1 -1,1 -1,1 -1,2 1,0 1,1 2,1zm-1 2l0 0c-1,-1 -1,-1 -1,-1 -1,-1 -1,-1 -1,-2 0,0 0,-1 0,-1 0,0 0,-1 0,-2 1,-1 2,-1 3,-2 1,0 2,0 3,1 1,1 2,1 2,2 0,1 0,2 0,3 -1,1 -2,2 -3,2 -1,1 -2,0 -3,0zm0 3l0 0 1 -1c1,1 1,1 2,2 0,0 0,1 0,2 -1,1 -1,2 -2,2 -1,1 -2,1 -3,0 -2,0 -2,-1 -3,-2 0,0 -1,-1 0,-2 0,-1 1,-2 1,-2 1,-1 1,-1 2,-1l0 2c-1,0 -1,0 -1,0 -1,0 -1,1 -1,1 0,1 0,1 0,2 1,0 1,0 2,1 1,0 2,0 2,0 1,0 1,-1 1,-1 0,-1 0,-1 0,-2 0,0 0,0 -1,-1zm1 11l0 0 -7 -1 0 2 -1 0 0 -6 2 0 -1 3 7 0 0 2zm0 5l0 0 -8 0 0 -2 8 0 0 2zm-3 7l0 0 2 0 0 -2c-1,-1 -1,-1 -1,-1 0,0 0,0 0,-1 0,0 0,0 -1,0 0,0 0,0 0,1 0,0 -1,0 -1,0 0,0 0,1 0,2l1 1zm-4 0l0 0 2 0 0 -1c0,-1 0,-1 0,-1 0,-1 0,-1 0,-1 -1,0 -1,0 -1,0 0,0 0,0 -1,0 0,0 0,1 0,1 0,0 0,1 0,1l0 1zm-1 2l0 -3c0,-1 0,-1 0,-2 0,0 0,0 0,0 0,-1 0,-1 1,-1 0,0 0,-1 1,-1 0,0 0,0 1,1 0,0 0,0 0,0 1,0 1,-1 1,-1 0,0 1,0 1,0 1,0 1,0 1,0 1,0 1,0 1,0 0,1 1,1 1,1 0,1 0,1 0,2l0 3 -8 1zm14 16l1 3 3 1 -3 2 0 3 -2 -2 -4 1 2 -3 -2 -3 3 1 2 -3zm66 21l0 0 1 -1c1,0 1,0 1,0 1,0 1,0 1,0 1,0 1,-1 1,-1 0,0 0,-1 0,-1 0,0 0,0 0,0 0,0 -1,0 -1,0 0,0 -1,0 -1,0 -1,1 -2,1 -2,1 -1,0 -1,-1 -1,-1 -1,-1 -1,-1 -1,-1 0,-1 0,-1 1,-1 0,-1 0,-1 1,-2 1,0 1,0 2,0 1,0 1,0 1,1l-1 1c0,-1 0,-1 -1,-1 0,0 0,0 -1,1 0,0 0,0 0,0 0,1 0,1 0,1 0,0 0,0 0,0 0,0 1,0 2,0 0,0 1,-1 1,-1 1,0 1,0 1,1 1,0 1,0 1,0 1,1 1,1 1,2 0,0 0,1 -1,1 0,0 0,1 -1,1 -1,1 -1,1 -2,1 -1,0 -1,-1 -2,-1zm-7 3l0 0c0,1 1,1 2,1 0,0 1,0 2,0 0,0 1,-1 1,-1 1,0 1,-1 1,-1 0,-1 0,-1 0,-2 -1,0 -1,0 -1,-1 -1,0 -1,0 -1,0 -1,0 -1,0 -2,0 -1,1 -1,1 -2,0 0,0 0,0 0,0 0,0 0,0 0,0 0,-1 1,-1 1,-1 0,0 1,0 1,0 0,0 0,0 1,0l1 0c0,-1 -1,-1 -1,-2 -1,0 -2,0 -3,1 0,0 -1,0 -1,1 0,0 0,0 0,1 0,0 0,1 0,1 0,0 0,1 1,1 0,0 1,0 2,0 1,0 1,0 1,0 1,0 1,0 1,0 0,0 0,0 0,0 0,0 0,1 0,1 0,0 0,1 -1,1 0,0 -1,0 -1,0 0,0 -1,0 -1,-1l-1 1zm-3 3l0 0 -2 -7 1 -1 3 8 -2 0zm-9 2l0 0 -4 -7 2 0 2 5 1 -6 1 0 3 5 0 -5 1 -1 0 8 -2 0 -2 -5 -1 6 -1 0zm-10 -2l0 0 2 0c0,1 0,1 0,1 0,0 1,1 1,1 1,-1 1,-1 1,-1 1,0 1,0 1,-1 0,0 0,0 0,0 -1,0 -1,0 -1,0 0,0 -1,-1 -1,-1 -1,0 -2,0 -2,0 -1,-1 -1,-1 -1,-2 0,0 0,-1 0,-1 1,0 1,-1 1,-1 1,0 1,0 2,0 1,0 2,0 2,0 1,1 1,1 1,2l-2 0c0,0 0,0 0,-1 0,0 -1,0 -1,0 -1,0 -1,0 -1,0 0,1 0,1 0,1 0,0 0,0 0,0 0,1 1,1 1,1 1,0 2,0 2,0 0,1 1,1 1,1 0,0 0,1 0,1 0,1 0,1 0,2 0,0 -1,0 -1,0 -1,1 -1,1 -2,1 -1,0 -1,0 -2,-1 -1,0 -1,-1 -1,-2zm-5 2l0 0 1 -6 -3 -1 0 -1 6 1 0 1 -2 0 -1 6 -1 0zm-9 -2l0 0 2 -7 5 1 -1 1 -3 -1 -1 2 3 1 0 1 -3 -1 -1 4 -1 -1zm-6 -6l0 0c0,-1 1,-2 1,-2 1,0 1,0 2,0 0,0 1,1 1,1 0,1 0,2 0,2 -1,1 -1,2 -2,2 0,0 -1,0 -1,0 -1,0 -1,-1 -2,-1 0,-1 0,-2 1,-2zm-2 -1l0 0c0,1 0,2 0,3 0,1 1,2 2,2 1,1 2,1 3,0 1,0 1,-1 2,-2 1,-1 1,-2 0,-3 0,-1 -1,-2 -2,-2 0,0 -1,0 -1,0 -1,0 -1,0 -2,0 0,0 0,0 -1,0 0,1 0,1 -1,2zm-7 -3l1 1c0,0 0,1 0,1 0,0 1,1 1,1 0,0 1,0 1,0 0,0 1,0 1,0 0,0 0,0 0,-1 0,0 0,0 0,0 0,0 -1,-1 -1,-1 -1,-1 -1,-1 -1,-2 0,0 0,-1 0,-1 0,-1 1,-1 1,-1 0,0 1,0 1,0 1,0 1,0 2,0 0,1 1,1 1,2 0,1 0,1 0,2l-2 -1c1,0 1,-1 0,-1 0,0 0,0 0,-1 -1,0 -1,0 -1,0 0,0 -1,0 -1,0 0,1 0,1 0,1 0,0 1,1 1,1 1,1 1,1 1,1 0,1 1,1 1,2 0,0 -1,0 -1,1 0,0 0,0 -1,1 0,0 -1,0 -1,0 -1,0 -1,-1 -2,-1 -1,0 -1,-1 -1,-2 0,0 0,-1 0,-2zm31 -84c24,0 42,19 42,42 0,23 -18,42 -42,42 -23,0 -41,-19 -41,-42 0,-23 18,-42 41,-42zm-8 59l0 0 10 0c4,0 6,0 7,0 2,0 3,-1 4,-2 1,-1 2,-3 2,-4l0 0 0 -1c0,-1 -1,-2 -2,-3 0,-1 -1,-2 -3,-3 -1,0 -4,0 -9,0l-9 0 0 0 0 0 0 13zm0 -21l0 0 7 0c4,0 7,0 8,0 2,0 3,-1 4,-2 1,-1 2,-2 2,-4l0 0 0 0c0,-2 -1,-3 -2,-4 -1,-1 -2,-1 -4,-1 -1,-1 -4,-1 -9,-1l-6 0 0 0 0 1 0 11zm-4 -20l0 -7 8 0 0 7 0 0 5 0 0 0 0 -7 8 0 0 7 0 1c1,0 2,0 3,0 2,0 4,1 5,2 2,1 3,2 4,4 1,2 2,4 2,6 0,2 -1,4 -2,6 -1,2 -3,3 -5,4l0 0c0,0 0,0 0,0 3,1 5,3 7,5 2,2 3,4 3,7 0,2 -1,4 -2,6 -1,3 -3,4 -5,5 -2,2 -4,2 -7,3 0,0 -1,0 -3,0l0 0 0 7 -8 0 0 -7 0 0 -2 0 -3 0 0 0 0 7 -8 0 0 -7 0 0 -6 0 0 -49 6 0 0 0z"/>
   <path class="fil1" d="M82 7c8,2 16,5 23,10l-3 3c-6,-4 -13,-7 -20,-9 0,-3 0,-2 0,-4z"/>
   <path class="fil1" d="M58 11c-8,2 -15,4 -21,8 -1,0 -2,-1 -3,-2 7,-5 15,-8 24,-10 0,1 0,3 0,4z"/>
   <path class="fil1" d="M7 57c1,-8 5,-16 10,-23l3 3c-4,6 -7,13 -9,20 -7,0 2,0 -4,0z"/>
  </g>
 </g>
</svg>
