<?xml version="1.0" encoding="UTF-8"?>
<!DOCTYPE svg PUBLIC "-//W3C//DTD SVG 1.1//EN" "http://www.w3.org/Graphics/SVG/1.1/DTD/svg11.dtd">
<!-- Creator: CorelDRAW X7 -->
<svg xmlns="http://www.w3.org/2000/svg" xml:space="preserve" width="600px" height="600px" version="1.1" style="shape-rendering:geometricPrecision; text-rendering:geometricPrecision; image-rendering:optimizeQuality; fill-rule:evenodd; clip-rule:evenodd"
viewBox="0 0 669 669"
 xmlns:xlink="http://www.w3.org/1999/xlink">
 <defs>
  <style type="text/css">
   <![CDATA[
    .fil0 {fill:white}
   ]]>
  </style>
 </defs>
 <g id="Layer_x0020_1">
  <metadata id="CorelCorpID_0Corel-Layer"/>
  <path class="fil0" d="M334 0l15 27 18 -25 12 28 21 -24 9 30 22 -22 7 31 24 -20 4 32 26 -18 0 32 28 -15 -3 32 30 -12 -6 31 30 -9 -9 30 31 -6 -12 29 31 -2 -14 27 31 1 -17 26 31 3 -19 25 30 6 -22 23 30 9 -24 20 29 13 -26 17 28 15 -28 15 26 18 -29 12 24 21 -30 9 22 22 -30 7 19 24 -31 4 17 26 -31 0 14 28 -31 -3 12 30 -31 -6 9 30 -30 -9 6 31 -30 -12 3 31 -28 -14 0 31 -26 -17 -4 31 -24 -19 -7 30 -22 -22 -9 30 -21 -24 -12 29 -18 -26 -15 28 -15 -28 -17 26 -13 -29 -20 24 -9 -30 -23 22 -6 -30 -25 19 -3 -31 -26 17 -1 -31 -27 14 2 -31 -29 12 6 -31 -30 9 9 -30 -31 6 12 -30 -32 3 15 -28 -32 0 18 -26 -32 -4 20 -24 -31 -7 22 -22 -30 -9 24 -21 -28 -12 25 -18 -27 -15 27 -15 -25 -17 28 -13 -24 -20 30 -9 -22 -23 31 -6 -20 -25 32 -3 -18 -26 32 -1 -15 -27 32 2 -12 -29 31 6 -9 -30 30 9 -6 -31 29 12 -2 -32 27 15 1 -32 26 18 3 -32 25 20 6 -31 23 22 9 -30 20 24 13 -28 17 25 15 -27zm0 620c158,0 286,-128 286,-286 0,-158 -128,-286 -286,-286 -158,0 -286,128 -286,286 0,158 128,286 286,286zm0 6c162,0 292,-130 292,-292 0,-161 -130,-291 -292,-291 -161,0 -291,130 -291,291 0,162 130,292 291,292zm0 -26c147,0 266,-119 266,-266 0,-147 -119,-266 -266,-266 -147,0 -266,119 -266,266 0,147 119,266 266,266zm0 11c153,0 277,-124 277,-277 0,-152 -124,-276 -277,-276 -152,0 -276,124 -276,276 0,153 124,277 276,277zm0 -88c104,0 189,-85 189,-189 0,-104 -85,-188 -189,-188 -104,0 -188,84 -188,188 0,104 84,189 188,189zm0 56c135,0 245,-110 245,-245 0,-135 -110,-244 -245,-244 -135,0 -244,109 -244,244 0,135 109,245 244,245zm0 -423l10 22 23 2 -18 15 6 23 -21 -12 -20 12 6 -23 -18 -15 23 -2 9 -22zm-163 248c8,5 25,9 41,9 39,0 58,-20 58,-45 0,-20 -12,-33 -37,-42 -19,-7 -27,-11 -27,-21 0,-7 7,-13 21,-13 14,0 24,4 30,6l7 -26c-8,-4 -20,-7 -37,-7 -33,0 -54,19 -54,43 0,21 16,34 40,43 17,6 24,11 24,20 0,9 -8,15 -23,15 -14,0 -27,-4 -36,-9l-7 27zm115 0c8,5 25,9 41,9 39,0 58,-20 58,-45 0,-20 -12,-33 -37,-42 -19,-7 -27,-11 -27,-21 0,-7 7,-13 21,-13 14,0 24,4 30,6l7 -26c-8,-4 -20,-7 -36,-7 -34,0 -55,19 -55,43 0,21 16,34 40,43 17,6 24,11 24,20 0,9 -8,15 -23,15 -14,0 -27,-4 -36,-9l-7 27zm121 7l90 0 0 -27 -57 0 0 -117 -33 0 0 144zm144 -96l6 13 14 2 -11 9 4 14 -13 -7 -12 7 3 -14 -11 -9 14 -2 6 -13zm-433 0l5 13 15 2 -11 9 3 14 -12 -7 -13 7 3 -14 -11 -9 15 -2 6 -13zm293 126l6 13 14 2 -11 9 4 14 -13 -7 -12 7 3 -14 -11 -9 14 -2 6 -13zm-153 0l5 13 15 2 -11 9 3 14 -12 -7 -13 7 4 -14 -11 -9 14 -2 6 -13zm76 7l10 22 23 2 -18 16 6 23 -21 -13 -20 13 6 -23 -18 -16 23 -2 9 -22zm77 -261l6 14 14 1 -11 9 4 15 -13 -8 -12 8 3 -15 -11 -9 14 -1 6 -14zm-153 0l5 14 15 1 -11 9 3 15 -12 -8 -13 8 4 -15 -11 -9 14 -1 6 -14zm-105 65l3 -6 -28 -13 -2 5 0 8 5 1 0 -6 0 0 22 11zm-16 -35c-4,5 1,11 9,16 6,4 14,5 18,0 2,-5 0,-10 -10,-16 -6,-3 -14,-6 -17,0zm4 3c1,-2 5,-1 10,3 6,3 9,5 8,7 -1,2 -4,1 -10,-3 -6,-3 -9,-6 -8,-7zm8 -22c-3,5 1,11 8,16 6,5 14,8 18,2 2,-4 1,-10 -8,-16 -6,-4 -14,-8 -18,-2zm5 3c1,-2 4,0 9,4 6,4 8,6 7,8 -1,2 -4,1 -10,-4 -5,-4 -8,-6 -6,-8zm9 -20c-3,3 -1,8 2,11 3,4 8,5 11,2 2,-2 2,-6 -3,-11 -3,-3 -7,-5 -10,-2zm2 3c1,-1 3,0 6,2 2,3 4,5 3,6 -1,1 -3,0 -6,-3 -3,-2 -4,-4 -3,-5zm21 18l-11 -34 -2 3 11 33 2 -2zm-3 -24c-3,3 -1,7 3,11 3,3 8,5 11,2 2,-3 2,-7 -3,-11 -3,-3 -8,-6 -11,-2zm3 2c1,-1 3,0 5,3 3,2 4,4 3,5 -1,1 -3,0 -5,-2 -3,-3 -4,-5 -3,-6zm22 0c1,-1 3,-2 5,-3 5,-4 6,-10 2,-14 -2,-3 -5,-4 -10,-4 -4,1 -5,1 -6,-1 -1,-1 -1,-3 1,-5 1,-1 3,-1 4,-2l-3 -4c-1,0 -3,1 -4,2 -6,4 -6,9 -2,13 1,3 5,4 10,4 3,-1 5,-1 6,1 1,2 1,4 -1,6 -2,1 -4,2 -5,2l3 5zm17 -35l-6 4 -4 -6 7 -4 -3 -5 -12 8 17 26 12 -7 -3 -5 -6 5 -5 -8 6 -3 -3 -5zm25 2c0,1 -1,2 -2,2 -3,2 -7,0 -11,-6 -3,-7 -2,-11 1,-13 2,-1 2,-1 3,-1l-1 -5c-1,0 -3,0 -4,1 -6,3 -10,10 -4,21 4,8 10,12 17,8 2,-1 4,-2 4,-2l-3 -5zm-5 -25l7 18c3,7 7,10 13,8 6,-2 7,-8 4,-15l-7 -18 -6 2 8 19c2,5 1,6 -1,7 -1,1 -3,0 -5,-5l-7 -19 -6 3zm34 21l6 -2 -3 -12 1 0c2,0 3,0 4,4 2,3 3,6 4,7l6 -1c-1,-1 -3,-5 -4,-8 -1,-3 -3,-5 -5,-5l0 -1c3,-2 3,-5 3,-8 -1,-3 -2,-5 -4,-6 -3,-2 -6,-1 -9,-1 -2,1 -5,2 -6,3l7 30zm0 -28c0,0 1,0 1,0 3,-1 4,1 5,4 0,2 -1,5 -3,5l-1 1 -2 -10zm32 2l-7 1 -1 -7 8 -1 -1 -5 -14 2 4 31 14 -2 0 -5 -8 1 -1 -9 7 0 -1 -6zm18 18l6 0 -1 -26 6 0 0 -6 -18 1 1 6 5 -1 1 26zm15 0l6 1 1 -13 1 0c2,1 3,2 3,6 0,3 1,6 1,7l6 1c0,-1 -1,-5 -1,-9 0,-3 -1,-5 -3,-6l0 0c3,-2 5,-5 5,-8 0,-3 0,-5 -2,-7 -2,-2 -5,-2 -8,-3 -2,0 -5,0 -7,0l-2 31zm8 -26c0,0 1,0 1,0 3,0 4,2 4,5 0,3 -2,5 -5,5l-1 0 1 -10zm25 23l1 8 5 1 0 -32 -7 -2 -13 30 6 1 3 -7 5 1zm-4 -5l3 -6c0,-2 1,-5 2,-7l0 0c0,2 0,5 0,7l0 7 -5 -1zm19 17l2 -7c2,-6 4,-11 4,-14l1 0c-1,3 -1,7 -1,10l1 13 5 2 11 -30 -5 -2 -3 7c-2,5 -3,11 -4,14l0 0c0,-3 0,-7 0,-10l-1 -13 -5 -2 -10 30 5 2zm17 4c0,1 2,3 4,4 6,2 12,1 14,-5 1,-3 1,-6 -2,-10 -2,-3 -2,-5 -1,-6 0,-2 2,-3 4,-2 2,1 3,2 4,3l3 -5c-1,0 -2,-2 -4,-3 -6,-2 -11,0 -13,5 -1,2 -1,6 2,10 1,3 2,4 1,7 -1,1 -3,2 -5,1 -2,-1 -4,-2 -5,-3l-2 4zm30 9l-2 6 5 3 10 -30 -6 -4 -22 24 5 3 5 -5 5 3zm-2 -7l4 -5c2,-2 4,-4 5,-6l0 0c-1,2 -2,5 -3,7l-2 6 -4 -2zm22 22c-1,0 -2,-1 -2,-1 -4,-3 -4,-7 0,-13 5,-6 9,-7 12,-5 1,1 1,2 2,2l4 -3c-1,-1 -2,-2 -3,-3 -5,-4 -13,-4 -20,6 -5,7 -6,15 0,19 2,2 4,2 5,2l2 -4zm3 10l5 4 17 -20 4 4 4 -4 -13 -12 -4 5 4 3 -17 20zm34 -12l-22 22 4 4 23 -21 -5 -5zm16 16c-5,-5 -13,-3 -19,3 -7,5 -11,12 -6,18 4,4 10,4 19,-3 6,-5 11,-12 6,-18zm-5 3c2,2 -1,6 -5,10 -5,4 -9,7 -11,5 -2,-2 0,-6 6,-10 5,-5 9,-6 10,-5zm-8 33l6 -4c5,-3 9,-6 12,-8l0 0c-2,2 -5,6 -6,8l-8 11 3 4 27 -17 -3 -4 -6 4c-5,3 -9,6 -12,8l0 0c2,-2 4,-6 6,-8l8 -11 -3 -4 -27 17 3 4zm10 14c0,1 0,4 2,6 2,6 8,8 13,5 3,-1 5,-4 5,-9 1,-4 1,-5 3,-6 1,-1 3,-1 4,2 1,1 1,3 1,4l5 -2c1,-1 0,-3 -1,-5 -3,-5 -8,-7 -13,-4 -2,1 -4,4 -5,9 0,3 0,5 -2,6 -2,1 -4,0 -6,-2 0,-2 -1,-4 -1,-5l-5 1zm6 182l-2 6 27 12 2 -5 0 -7 -5 -1 1 5 0 0 -23 -10zm17 35c3,-6 -2,-12 -9,-16 -7,-4 -15,-6 -18,0 -3,4 -1,10 9,16 6,3 14,6 18,0zm-5 -3c-1,2 -4,1 -10,-3 -6,-3 -9,-5 -8,-7 1,-2 4,-1 11,3 6,3 8,6 7,7zm-8 22c4,-5 0,-12 -8,-17 -6,-4 -13,-7 -17,-1 -3,4 -2,10 7,16 6,4 14,8 18,2zm-4 -3c-1,1 -5,0 -10,-4 -6,-4 -8,-7 -7,-8 1,-2 4,-1 10,4 6,4 8,6 7,8zm-9 19c2,-2 1,-7 -3,-11 -3,-3 -8,-5 -11,-1 -2,2 -2,6 3,10 3,3 8,6 11,2zm-3 -2c-1,1 -3,0 -5,-3 -3,-2 -4,-4 -3,-5 1,-1 3,0 5,3 3,2 4,4 3,5zm-21 -18l11 34 2 -3 -11 -33 -2 2zm3 24c3,-3 1,-7 -3,-11 -3,-3 -7,-5 -10,-2 -3,2 -2,7 2,11 3,3 8,5 11,2zm-2 -2c-1,1 -3,-1 -6,-3 -3,-3 -4,-5 -3,-6 1,-1 3,0 6,3 3,3 4,5 3,6zm-22 0c-1,0 -4,1 -6,3 -5,4 -6,9 -2,14 2,3 5,4 10,4 4,-1 5,-1 6,1 1,1 1,3 -1,5 -1,1 -2,1 -3,1l2 5c1,0 3,-1 5,-2 5,-4 5,-10 2,-13 -2,-3 -5,-4 -10,-4 -4,1 -5,1 -7,-1 -1,-2 -1,-4 1,-6 2,-1 4,-2 5,-2l-2 -5zm-18 35l6 -4 4 6 -6 4 3 4 11 -7 -17 -27 -12 8 3 5 7 -5 4 7 -6 4 3 5zm-25 -2c0,-1 1,-2 2,-2 4,-2 7,-1 11,6 3,7 2,11 -1,13 -1,0 -2,0 -3,0l2 6c0,0 2,-1 4,-2 5,-2 9,-10 4,-20 -5,-8 -11,-12 -18,-9 -2,1 -3,2 -4,3l3 5zm5 25l-7 -18c-3,-7 -7,-11 -13,-8 -6,2 -7,7 -4,15l7 18 6 -2 -8 -19c-1,-5 -1,-6 1,-7 2,-1 3,0 5,4l8 19 5 -2zm-33 -21l-6 1 2 13 0 0c-2,0 -4,-1 -5,-4 -1,-4 -3,-6 -3,-7l-7 1c1,1 3,5 4,8 2,3 3,5 5,5l0 0c-2,3 -3,6 -2,9 0,3 1,5 3,6 3,1 6,1 9,0 2,0 5,-1 7,-2l-7 -30zm0 27c-1,1 -1,1 -2,1 -2,0 -4,-1 -5,-4 0,-2 1,-5 3,-6l1 0 3 9zm-33 -2l7 -1 1 8 -7 1 0 5 14 -2 -4 -31 -14 2 1 5 8 -1 1 8 -7 1 0 5zm-18 -18l-6 1 1 26 -6 0 1 5 17 0 0 -6 -6 0 -1 -26zm-15 0l-6 0 -1 13 -1 -1c-2,0 -2,-1 -3,-5 0,-3 0,-7 -1,-8l-6 0c0,1 1,5 1,9 1,3 2,5 4,6l0 0c-4,2 -6,4 -6,8 0,3 0,5 2,7 2,2 5,2 8,3 3,0 5,0 7,-1l2 -31zm-8 27c0,0 -1,0 -1,0 -3,-1 -4,-3 -4,-5 1,-3 2,-5 5,-5l1 0 -1 10zm-25 -24l0 -7 -6 -1 0 32 8 1 12 -29 -6 -1 -3 6 -5 -1zm4 6l-2 6c-1,2 -2,5 -3,7l0 0c0,-2 0,-5 0,-7l1 -7 4 1zm-19 -17l-2 7c-2,6 -3,11 -4,14l0 0c0,-3 0,-7 0,-10l-1 -13 -5 -2 -10 30 5 2 2 -7c2,-6 3,-11 4,-14l0 0c0,3 0,7 0,10l1 13 5 2 11 -30 -6 -2zm-16 -4c-1,-1 -3,-3 -5,-4 -6,-3 -11,-1 -14,4 -1,3 -1,7 2,11 2,3 3,4 2,6 -1,2 -3,3 -5,2 -2,-1 -3,-2 -3,-3l-3 4c0,1 2,3 4,3 6,3 10,1 13,-4 1,-3 1,-6 -2,-10 -2,-3 -3,-5 -2,-7 1,-2 3,-2 6,-1 1,1 3,2 4,3l3 -4zm-31 -9l3 -7 -6 -3 -10 31 6 3 22 -24 -5 -2 -5 5 -5 -3zm2 7l-4 5c-1,1 -3,4 -5,6l0 0c1,-2 2,-5 3,-7l2 -6 4 2zm-22 -22c1,0 2,1 3,1 3,2 3,6 -1,13 -5,6 -9,7 -12,5 -1,-1 -1,-2 -2,-3l-3 4c0,1 1,2 3,3 5,4 13,4 20,-6 5,-7 5,-15 -1,-19 -2,-2 -3,-2 -4,-3l-3 5zm-3 -10l-5 -4 -17 19 -4 -3 -4 4 13 11 4 -4 -4 -4 17 -19zm-34 12l23 -22 -5 -5 -22 22 4 5zm-15 -16c4,5 12,3 19,-3 6,-6 10,-13 5,-18 -4,-5 -10,-5 -19,3 -5,5 -10,12 -5,18zm4 -4c-2,-2 1,-6 5,-9 5,-4 9,-7 11,-5 2,2 0,6 -6,10 -5,5 -9,6 -10,4zm8 -32l-6 4c-5,3 -9,6 -12,8l0 0c2,-3 5,-6 7,-8l7 -11 -3 -5 -26 18 2 4 6 -4c5,-3 10,-6 12,-8l0 0c-2,2 -4,6 -6,8l-7 11 3 4 26 -17 -3 -4zm-10 -14c0,-2 0,-4 -1,-6 -3,-6 -9,-8 -14,-5 -3,1 -5,4 -5,9 0,4 -1,5 -2,6 -2,1 -4,0 -5,-2 -1,-2 -1,-3 -1,-4l-5 1c0,2 0,4 1,5 3,6 8,7 13,5 2,-1 5,-4 5,-9 0,-3 1,-5 3,-6 2,-1 4,-1 5,2 1,2 1,4 1,5l5 -1z"/>
 </g>
</svg>
